<svg width="25" height="32" viewBox="0 0 25 32" fill="none" xmlns="http://www.w3.org/2000/svg"><path d="M14.398 9.538h1V6.584l-1.794 2.347.794.607zM10.912 14.2l.806.591-.806-.591zm-3.108 5.166l-.903-.43-.68 1.43h1.583v-1zm6.594 0v1h1v-1h-1zM20.53 1.894h1v-1h-1v1zm0 17.472h-1v1h1v-1zm3.108 0h1v-1h-1v1zm0 5.124v1h1v-1h-1zm-3.108 0v-1h-1v1h1zm0 6.51v1h1v-1h-1zm-6.132 0h-1v1h1v-1zm0-6.51h1v-1h-1v1zm-12.558 0h-1v1h1v-1zm0-4.578l-.894-.447-.106.21v.237h1zm2.31-4.158l.858.514.004-.006-.862-.508zm3.066-4.788l-.821-.57-.002.002.823.568zm7.392-9.072v-1h-.414l-.293.293.707.707zm-1.004 7.037a292.591 292.591 0 00-3.498 4.678l1.612 1.182a289.3 289.3 0 013.474-4.646l-1.588-1.214zm-3.498 4.678A33.013 33.013 0 006.9 18.936l1.806.86a31.013 31.013 0 013.011-5.005l-1.612-1.182zm-2.302 6.757h6.594v-2H7.804v2zm7.594-1V9.538h-2v9.828h2zM19.53 1.894v17.472h2V1.894h-2zm1 18.472h3.108v-2H20.53v2zm2.108-1v5.124h2v-5.124h-2zm1 4.124H20.53v2h3.108v-2zm-4.108 1V31h2v-6.51h-2zm1 5.51h-6.132v2h6.132v-2zm-5.132 1v-6.51h-2V31h2zm-1-7.51H1.84v2h12.558v-2zm-11.558 1v-4.578h-2v4.578h2zm-.106-4.13a61.793 61.793 0 012.273-4.091l-1.714-1.03a63.75 63.75 0 00-2.347 4.226l1.788.894zm2.278-4.098a78.916 78.916 0 013.027-4.728l-1.646-1.136a80.866 80.866 0 00-3.105 4.848l1.724 1.016zm3.025-4.725a85.601 85.601 0 013.57-4.775L10.05 5.51a87.643 87.643 0 00-3.654 4.885l1.642 1.142zm3.57-4.775a51.516 51.516 0 013.708-4.16l-1.414-1.415a53.497 53.497 0 00-3.852 4.323l1.559 1.252zm3.001-3.868h5.922v-2h-5.922v2z" fill="#019BE0"/></svg>