<svg width="137" height="17" viewBox="0 0 137 17" fill="none" xmlns="http://www.w3.org/2000/svg"><path fill-rule="evenodd" clip-rule="evenodd" d="M136.03 12.712a12.338 12.338 0 01-.457 2.244.414.414 0 01-.156.213c-.168.101-5.387.303-6.034.259V8.797c.502 0 1.116-.068 1.919-.068.44.014.88.052 1.316.112a.44.44 0 01.167.258c.062.213.105.43.123.651h1.014V7.607l.056-1.122h-1.015c-.02.22-.06.439-.121.651a.435.435 0 01-.169.247c-.554.076-1.113.117-1.672.123h-1.694V4.982a29.092 29.092 0 01.166-3.467c.736 0 5.353.168 5.465.247.069.06.117.143.134.235.086.58.124 1.165.111 1.75h.936L136.576 0h-12.713v1.021a6.668 6.668 0 011.73.224.341.341 0 01.177.18c.132.543.189 1.102.168 1.66v7.787c0 .629 0 1.627-.101 3.018a15.766 15.766 0 01-.122 1.639 6.179 6.179 0 01-1.116.695v.651h11.977L137 12.69l-.97.022zM28.806 4.18l2.508 6.19h-4.907l2.399-6.19zm-2.17 11.7a5 5 0 01-1.68-.212.451.451 0 01-.186-.413 9.773 9.773 0 01.611-2.068l.524-1.442h6.02l1.004 2.649c.147.309.238.642.272.983a.358.358 0 01-.185.336 6.818 6.818 0 01-1.592.167v.995h7.361v-.995l-.512-.067a3.378 3.378 0 01-.687-.078.758.758 0 01-.24-.145 1.343 1.343 0 01-.218-.313l-.47-1.118-.73-1.642L30.66 0h-1.658l-1.036 2.716-3.054 7.733c-.578 1.464-.97 2.447-1.178 2.94-.447 1.06-.709 1.676-.796 1.832-.073.136-.165.26-.272.369a.989.989 0 01-.306.168 8.738 8.738 0 01-1.09.122v.995h5.453l-.087-.995zm42.34-.492a.393.393 0 01-.066.135.945.945 0 01-.318.235c-.276.174-.561.33-.855.47v.617s11.635.067 11.865 0l.471-4.393h-.986c-.143.784-.297 1.48-.461 2.095-.03.164-.098.318-.197.449-.066 0-5.91.291-5.91.291V3.026a9.54 9.54 0 01.109-1.49.37.37 0 01.186-.236 5.151 5.151 0 011.645-.235V0h-7.523v1.12a4.922 4.922 0 011.799.236.326.326 0 01.175.224c.125.839.177 1.686.154 2.533v9.179c0 1.278-.088 1.894-.088 2.096zm47.105-.863c-.039.16-.106.311-.196.448-.065 0-4.808.346-5.887.29V3.022a9.372 9.372 0 01.109-1.488.414.414 0 01.185-.235 5.157 5.157 0 011.614-.213V0h-7.435v1.119c.605-.05 1.214.01 1.799.18a.354.354 0 01.174.223c.125.856.187 1.72.185 2.585v9.165c0 1.275-.076 1.947-.109 2.148a.602.602 0 010 .135 1.082 1.082 0 01-.316.235 7.905 7.905 0 01-.861.47v.615h11.807l.458-4.387h-.971c-.229.728-.381 1.422-.556 2.037zM99.466 0h-2.863L92.44 7.87 87.699 0h-4.498v1.023h.808c.371.005.716.2.917.517l4.662 7.544c.221.342.375.723.453 1.124v2.249c0 .64 0 1.427-.067 2.338.012.25-.033.5-.131.73a.584.584 0 01-.32.18c-.526.068-1.053.102-1.582.102v1.068h7.734v-1.068a9.903 9.903 0 01-1.569-.09.676.676 0 01-.352-.214 2.362 2.362 0 01-.177-.854 20.915 20.915 0 01-.077-2.248v-1.957a4.31 4.31 0 01.065-.9c.05-.3.135-.596.255-.876.265-.506.95-1.641 2.055-3.373.984-1.574 2.098-3.845 2.74-4.092.275-.088.562-.13.851-.124V0zM53.654 7.633a3.82 3.82 0 01-1.403.236h-1.744c0-.774 0-2.243.066-4.486 0-1.021.055-1.672.077-1.952.365-.066.735-.1 1.105-.1a5.864 5.864 0 011.777.179c.527.198.979.56 1.292 1.031.366.54.548 1.186.52 1.84.018.7-.145 1.393-.476 2.007a2.85 2.85 0 01-1.214 1.19v.055zm6.514 7.851c-.132-.134-.496-.617-1.104-1.413-.044-.053-.309-.456-.795-1.211l-1.822-2.804-.132-.224c0-.09-.199-.314-.453-.696-.254-.381-.475-.74-.673-1.121a5.78 5.78 0 002.738-1.885 4.318 4.318 0 00.95-2.647 3.401 3.401 0 00-.652-2.074A3.064 3.064 0 0056.646.287c-.93-.22-1.884-.314-2.838-.28h-8.723v.987a6.553 6.553 0 011.756.246c.08.044.142.116.176.202.12.595.168 1.2.144 1.806v7.032l-.088 3.522c-.01.477-.05.953-.122 1.424a.749.749 0 01-.1.337.35.35 0 01-.209.123 8.414 8.414 0 01-1.601.123v1.066h7.53v-1.066a10.74 10.74 0 01-1.369-.067 1.134 1.134 0 01-.353-.123.586.586 0 01-.154-.18 3.205 3.205 0 01-.122-.874c0-.225 0-1.122-.077-2.827V8.732h.905a.828.828 0 01.685.36c.43.627 1.325 1.94 1.866 2.848l2.529 4.25c.129.213.226.444.287.685h4.538v-.998a2.3 2.3 0 01-.751-.101 1.285 1.285 0 01-.386-.292zM2.489 14.459a8.137 8.137 0 002.572 1.637c1.407.535 2.908.799 4.417.775.992.026 1.982-.072 2.948-.29a9.063 9.063 0 002.96-1.487v-.969a11.57 11.57 0 01-2.353.915 9.77 9.77 0 01-2.285.259 8.015 8.015 0 01-3.092-.55 6.55 6.55 0 01-1.877-1.324 6.45 6.45 0 01-1.502-2.293 8.64 8.64 0 01-.563-3.23 6.552 6.552 0 011.612-4.814 5.93 5.93 0 014.417-1.723 6.772 6.772 0 012.528.399 5.276 5.276 0 011.79 1.206c.066.516.099 1.195.12 2.035h.928l.53-3.898s-2.208-.7-3.036-.851c-.933-.16-1.88-.24-2.827-.237a10.428 10.428 0 00-7.221 2.315 7.654 7.654 0 00-2.55 5.944 9.136 9.136 0 00.86 3.952 8.15 8.15 0 001.624 2.229z" fill="#fff"/></svg>