<svg width="189" height="52" viewBox="0 0 189 52" fill="none" xmlns="http://www.w3.org/2000/svg"><path d="M74.422 21.489h-.914c-.203-3.379-1.49-4.276-4.673-4.276-1.253 0-3.286-.172-3.286.931v16.34c0 2.552.475 3.518 3.76 3.655v.793c-1.863-.035-3.76-.103-5.623-.138-1.794.035-3.556.104-5.384.138v-.793c3.285-.138 3.758-1.103 3.758-3.654v-16.34c0-1.035-1.49-.931-2.844-.931-3.352 0-4.978.172-5.113 4.275h-.779V16.11h20.793l.305 5.379zm24.621 8.308c0 6.274-2.405 9.514-8.839 9.514-6.062 0-9.008-2.172-9.008-8.411v-8.24c0-1.102 0-3.653-.338-4.584-.44-1.172-1.829-1.172-2.913-1.172v-.793c1.592.034 3.218.103 4.81.138 1.727-.034 3.42-.103 5.147-.138v.793c-1.084 0-2.506-.035-2.913 1.172-.304.93-.304 3.482-.304 4.585v8.48c0 4.413 1.693 6.93 6.333 6.93 4.673 0 7.01-2.482 7.01-7.102v-7.55c0-1.206 0-3.861-.338-4.93-.475-1.447-1.83-1.585-3.15-1.585v-.793c1.32.034 2.607.103 3.928.138 1.253-.034 2.506-.103 3.793-.138v.793c-1.084.034-2.27 0-2.743 1.241-.475 1.241-.475 3.896-.475 5.274v6.378zm9.178-7.067c0-1.103 0-3.654-.304-4.585-.373-1.206-1.795-1.172-2.879-1.172v-.862c1.389.034 2.845.103 4.268.138 1.828-.034 3.657-.103 5.486-.138 7.145-.138 12.563 4.412 12.563 11.894 0 7.308-4.706 11.1-11.683 10.928-1.998-.035-4.03-.103-6.028-.138-1.558.035-3.082.103-4.606.138v-.793c1.084 0 2.506 0 2.879-1.173.304-.93.304-3.481.304-4.584V22.73zm3.488 10.135c0 1.172-.135 2.826.542 3.826.779 1.172 2.506 1.31 3.793 1.31 5.926 0 7.078-4.343 7.078-9.446 0-6.826-1.931-11.514-9.178-11.514-.406 0-1.727-.07-2.032.241-.203.207-.203.794-.203 1.07v14.513zm19.032-5.275c0-6.86 5.893-11.893 12.429-11.893 6.468 0 12.157 4.826 12.157 11.652 0 7.067-5.452 11.962-12.293 11.962-6.603.001-12.293-4.791-12.293-11.72zm4.233 0c0 5.413 2.1 10.791 8.263 10.791 6.028 0 7.856-5.757 7.856-10.894 0-5.17-2.099-10.86-8.059-10.86-5.858 0-8.06 5.861-8.06 10.963zm41.825 8.516c1.083 1.275 1.591 1.758 3.319 2.034v.793c-1.016-.035-2.032-.103-3.048-.138-.847.035-1.693.103-2.541.138l-1.591-2-5.622-7.101c-1.117-1.31-.982-1.517-2.777-1.517v4.068c0 1.103 0 3.654.305 4.584.405 1.207 1.794 1.173 2.878 1.173v.793c-1.558-.035-3.149-.103-4.774-.138-1.693.035-3.387.103-5.08.138v-.793c1.084 0 2.506 0 2.879-1.172.304-.931.304-3.482.304-4.585V22.66c0-1.103 0-3.654-.304-4.585-.373-1.207-1.795-1.172-2.879-1.172v-.793c1.93.034 3.895.103 5.825.138 1.422-.034 2.879-.103 4.301-.138 3.861 0 7.755.897 7.755 5.688 0 3.723-2.778 5.62-6.13 5.93l7.18 8.377zm-12.26-8.722c4.234 0 7.315-.103 7.315-5.102 0-3.034-1.693-5.171-4.741-5.171-.406 0-1.896-.103-2.201.034-.44.207-.373.862-.373 1.242v8.997zM24.366 9.12c-9.999 0-18.134 8.282-18.134 18.46 0 10.18 8.135 18.462 18.134 18.462 10 0 18.134-8.282 18.134-18.461 0-10.179-8.134-18.46-18.134-18.46zm11.23 15.952h-.65c-.837-3.753-3.561-6.781-7.099-8.008v20.902c3.541-1.227 6.268-4.26 7.102-8.018h.647v9.008h-7.749v.002h-7.138v-.002h-7.556v-9.01h.606c.822 3.706 3.482 6.711 6.95 7.971V17.112c-3.465 1.26-6.122 4.26-6.948 7.96h-.608v-8.964h22.443v8.963zm7.928-16.016c.56 0 1.104.112 1.633.334a4.218 4.218 0 012.301 2.353 4.51 4.51 0 01.323 1.684 4.25 4.25 0 01-.338 1.656 4.536 4.536 0 01-.957 1.44 4.092 4.092 0 01-1.366.928 4.263 4.263 0 01-1.645.316 4.052 4.052 0 01-1.6-.325 4.304 4.304 0 01-1.38-.945 4.28 4.28 0 01-.936-1.405 4.369 4.369 0 01-.323-1.678 4.444 4.444 0 011.247-3.083 4.242 4.242 0 013.04-1.275zm0 .508c-.495 0-.973.1-1.435.297-.462.197-.872.48-1.228.846a3.874 3.874 0 00-1.101 2.717 3.757 3.757 0 001.113 2.717c.356.367.758.645 1.206.834.448.19.926.284 1.433.284.51 0 .99-.095 1.438-.284.448-.19.849-.467 1.201-.834.357-.37.63-.788.821-1.253.19-.465.286-.953.286-1.463a4 4 0 00-.289-1.492 3.594 3.594 0 00-.805-1.238 3.719 3.719 0 00-1.22-.834 3.582 3.582 0 00-1.42-.297zm-2.28 1.288h2.39c.596 0 1.067.112 1.413.337.348.225.52.527.52.907 0 .313-.14.57-.422.767-.282.199-.723.353-1.322.465.377.12.664.279.863.48.198.2.343.475.432.825.024.091.047.221.067.39.053.364.172.545.36.545.129 0 .229-.07.3-.21.071-.14.107-.345.107-.613h.261v.074c0 .363-.082.64-.246.827-.164.188-.406.282-.727.282a1 1 0 01-.477-.106.664.664 0 01-.294-.303c-.074-.165-.116-.399-.128-.703-.013-.303-.03-.5-.055-.591-.08-.28-.224-.488-.429-.623-.204-.133-.48-.2-.83-.2h-.2v1.535c0 .223.054.379.16.467.108.089.308.141.6.157v.248h-2.343v-.246c.292-.013.493-.063.605-.152.111-.088.167-.246.167-.473v-3.194c0-.227-.053-.384-.158-.47-.106-.087-.31-.139-.615-.155v-.267zm1.581 2.308a6.14 6.14 0 00.401.012c.454 0 .806-.093 1.056-.281.25-.188.374-.453.374-.796a.91.91 0 00-.322-.727c-.216-.184-.506-.276-.87-.276-.211 0-.37.038-.478.115a.38.38 0 00-.16.331v1.622z" fill="#fff"/></svg>