<svg width="161" height="32" viewBox="0 0 161 32" fill="none" xmlns="http://www.w3.org/2000/svg"><path fill-rule="evenodd" clip-rule="evenodd" d="M15.626 8.179H7.941v7.684H.256v15.37H23.31V8.179h-7.685zm0 7.684v7.686H7.94v-7.685h7.686z" fill="#fff"/><path fill-rule="evenodd" clip-rule="evenodd" d="M.255 8.18H7.94V.494H.255v7.684zm47.547 19.46c3.05 0 4.17-.882 4.17-3.154 0-2.339-1.187-3.186-4.577-3.186h-4.577v6.34h4.984zm-.542-9.934c2.949 0 4-.78 4-2.983 0-2.17-1.051-2.95-3.865-2.95h-4.577v5.933h4.442zm-8.578-9.527h9.086c5.22 0 7.594 1.865 7.594 6 0 2.543-.915 4.137-3.085 4.917v.067c2.712.814 3.831 2.611 3.831 5.628 0 4.442-2.373 6.442-7.628 6.442h-9.798V8.18z" fill="#fff"/><mask id="a" maskUnits="userSpaceOnUse" x="0" y="0" width="161" height="32"><path d="M.255 31.64h160.744V.494H.255V31.64z" fill="#fff"/></mask><g mask="url(#a)" fill-rule="evenodd" clip-rule="evenodd" fill="#fff"><path d="M59.836 31.233h4.136V8.18h-4.136v23.054zM72.99 11.874h-6.476V8.18H83.6v3.695h-6.476v19.359H72.99v-19.36zm13.153-3.695h15.189v3.628H90.279v5.967h9.358V21.4h-9.358v9.832h-4.136V8.18zm17.663 15.392V8.18h4.136v15.29c0 3.323 1.187 4.544 4.408 4.544 3.22 0 4.407-1.221 4.407-4.544V8.18h4v15.392c0 5.628-2.509 8.069-8.475 8.069-5.934 0-8.476-2.441-8.476-8.069zm29.393-4.848c2.916 0 3.932-.984 3.932-3.458 0-2.51-1.016-3.458-3.932-3.458h-4.611v6.916h4.611zm-8.747-10.544h9.154c5.458 0 7.662 2.068 7.662 7.086 0 3.83-1.322 5.933-4.407 6.713l5.288 9.255h-4.746l-5.018-8.916h-3.797v8.916h-4.136V8.18zm28.749 13.256v9.798h-4.137v-9.73l-7.797-13.324h4.746l5.289 9.154 5.255-9.154h4.442l-7.798 13.256z"/></g></svg>