<svg width="67" height="67" viewBox="0 0 67 67" fill="none" xmlns="http://www.w3.org/2000/svg"><path fill-rule="evenodd" clip-rule="evenodd" d="M50.635 4.724A33.119 33.119 0 0033.5 0c-6.33 0-12.332 1.774-17.374 4.864-1.507.932-2.362 1.675-2.362 2.634 0 2.826 6.604 5.862 18.314 5.862 11.587 0 20.578-3.327 20.578-6.53 0-.764-.668-1.298-2.02-2.106zm4.988 3.722c.14.218.209.457.209.773 0 3.72-11.386 10.305-29.514 10.305-13.316 0-15.81-4.94-15.81-8.086 0-1.124.43-2.274 1.378-3.44.053-.07.009-.096-.052-.044a33.553 33.553 0 00-4.715 4.9c-.666.841-1.08 1.587-1.08 2.035 0 6.514 16.33 11.237 31.594 11.237 16.269 0 23.53-5.31 23.53-9.98 0-1.67-.65-2.643-2.31-4.532A39.564 39.564 0 0055.675 8.4c-.052-.042-.088-.008-.052.046zM3.23 19.13c-.984 1.949-2.073 5.242-2.398 6.945-.14.728-.08 1.078.176 1.622C3.063 32.06 13.46 39.04 37.704 39.04c14.793 0 26.285-3.634 28.147-10.272.34-1.22.358-2.51-.08-4.25-.492-1.939-1.413-4.204-2.194-5.793-.027-.053-.071-.042-.063.018.291 8.7-23.965 14.31-36.203 14.31-13.256 0-24.317-5.285-24.317-11.956 0-.64.132-1.284.297-1.95.02-.062-.033-.07-.062-.018h.002zm23.536 27.805c-17.146 0-25.23-7.99-26.696-13.442-.019-.08-.071-.063-.071.008 0 1.834.184 4.204.5 5.777.15.764.773 1.968 1.686 2.923 4.152 4.328 14.503 10.395 32.428 10.395 24.424 0 30.008-8.138 31.149-10.816C66.579 39.865 67 36.406 67 33.5a35.6 35.6 0 00-.044-1.817c0-.088-.052-.096-.071-.009-1.22 6.55-22.087 15.258-40.118 15.258v.002zm9.007 14.738c8.243 0 17.303-2.247 22.717-6.7 1.487-1.21 2.9-2.827 4.163-4.994a32.08 32.08 0 002.02-4.188c.027-.069-.019-.104-.071-.027-5.04 7.42-19.63 12.046-34.694 12.046-10.649 0-22.106-3.407-26.59-9.912-.044-.063-.088-.036-.063.035 4.179 8.884 16.854 13.74 32.518 13.74zM12.955 59.96A33.464 33.464 0 0033.5 67c8.463 0 16.178-3.142 22.068-8.304.071-.062.038-.104-.033-.062-2.643 1.765-10.176 5.62-22.035 5.62-10.305 0-16.821-2.304-20.498-4.356-.071-.035-.096.017-.046.063" fill="#fff"/></svg>