<svg width="17" height="32" viewBox="0 0 17 32" fill="none" xmlns="http://www.w3.org/2000/svg"><path d="M1.94 7.942l-.382-.924-.907.375.358.913.931-.364zm2.52-1.134l.436.9.011-.006-.447-.894zM7.064 5.38l.514.857.01-.006.011-.006-.535-.845zm2.394-1.638l.595.804.005-.004-.6-.8zm2.1-1.848v-1h-.427l-.296.309.723.691zm4.368 0h1v-1h-1v1zm0 29.106v1h1v-1h-1zm-6.258 0h-1v1h1v-1zm0-20.958h1V8.173L9.113 9.21l.555.832zm-2.814 1.554l.397.918.01-.005.01-.004-.417-.909zM3.83 12.772l-.931.364.349.893.906-.311-.324-.946zM2.322 8.866c.832-.344 1.69-.73 2.574-1.158l-.872-1.8c-.852.412-1.674.782-2.466 1.11l.764 1.848zm2.585-1.164c.919-.459 1.81-.947 2.671-1.465L6.55 4.523c-.817.49-1.663.954-2.536 1.39l.894 1.79zM7.6 6.225a40.754 40.754 0 002.454-1.68l-1.19-1.607A38.763 38.763 0 016.53 4.535l1.07 1.69zm2.459-1.683a18.058 18.058 0 002.223-1.957l-1.446-1.382c-.574.6-1.233 1.18-1.977 1.739l1.2 1.6zm1.5-1.648h4.368v-2h-4.368v2zm3.368-1V31h2V1.894h-2zm1 28.106H9.668v2h6.258v-2zm-5.258 1V10.042h-2V31h2zM9.113 9.21a19.479 19.479 0 01-2.676 1.477l.834 1.818a21.488 21.488 0 002.952-1.63L9.113 9.21zm-2.656 1.468a40.747 40.747 0 01-2.951 1.148l.648 1.892a42.712 42.712 0 003.097-1.204l-.794-1.836zm-1.696 1.73l-1.89-4.83-1.862.728 1.89 4.83 1.862-.728z" fill="#019BE0"/></svg>