<svg width="2295" height="128" viewBox="0 0 2295 128" fill="none" xmlns="http://www.w3.org/2000/svg"><g filter="url(#filter0_d)"><path d="M102.98 1.19h1v-1h-1v1zm0 22.61v1h1v-1h-1zm-35.53 0v-1h-1v1h1zm0 95.2v1h1v-1h-1zm-26.52 0h-1v1h1v-1zm0-95.2h1v-1h-1v1zm-35.53 0h-1v1h1v-1zm0-22.61v-1h-1v1h1zm96.58 0V23.8h2V1.19h-2zm1 21.61H67.45v2h35.53v-2zm-36.53 1V119h2V23.8h-2zm1 94.2H40.93v2h26.52v-2zm-25.52 1V23.8h-2V119h2zm-1-96.2H5.4v2h35.53v-2zm-34.53 1V1.19h-2V23.8h2zm-1-21.61h97.58v-2H5.4v2zM120.024 119h-1v1h1v-1zm0-117.81v-1h-1v1h1zm79.56 0h1v-1h-1v1zm0 22.27v1h1v-1h-1zm-53.04 0v-1h-1v1h1zm0 23.12h-1v1h1v-1zm47.09 0h1v-1h-1v1zm0 21.76v1h1v-1h-1zm-47.09 0v-1h-1v1h1zm0 28.39h-1v1h1v-1zm56.95 0h1v-1h-1v1zm0 22.27v1h1v-1h-1zm-82.47 0V1.19h-2V119h2zm-1-116.81h79.56v-2h-79.56v2zm78.56-1v22.27h2V1.19h-2zm1 21.27h-53.04v2h53.04v-2zm-54.04 1v23.12h2V23.46h-2zm1 24.12h47.09v-2h-47.09v2zm46.09-1v21.76h2V46.58h-2zm1 20.76h-47.09v2h47.09v-2zm-48.09 1v28.39h2V68.34h-2zm1 29.39h56.95v-2h-56.95v2zm55.95-1V119h2V96.73h-2zm1 21.27h-83.47v2h83.47v-2zM302 119l-.957.292.216.708H302v-1zm-4.25-12.58l-.947.324.004.011.004.011.939-.346zm-4.42-12.92l.946-.324-.232-.676h-.714v1zm-45.9 0v-1h-.715l-.232.676.947.324zm-4.59 12.92l-.939-.346-.004.011-.004.011.947.324zM238.76 119v1h.74l.216-.708-.956-.292zm-27.54 0l-.945-.329-.463 1.329h1.408v-1zm12.58-35.19l.938.346-.938-.346zm11.56-30.43l-.927-.375-.004.01.931.365zm11.22-27.03l-.918-.398-.002.006.92.392zm11.56-25.16v-1h-.626l-.274.563.9.437zm25.33 0l.904-.427-.271-.573h-.633v1zm11.39 25.16l-.918.398.002.005.916-.403zm11.22 27.03l-.931.366.004.01.927-.376zm11.73 30.43l-.939.346.939-.346zM330.39 119v1h1.407l-.463-1.329-.944.329zm-60.18-91.12l.928-.371-1.014-2.535-.863 2.59.949.316zm-2.55 6.97l-.934-.359.934.359zm-3.91 10.2l-.935-.357.935.357zm-4.93 12.75l-.932-.363-.004.01-.004.01.94.343zm-5.27 14.62l-.943-.335-.474 1.335h1.417v-1zm33.49 0v1h1.416l-.474-1.335-.942.335zm-5.27-14.62l-.94.344.94-.344zm-4.93-12.75l-.935.357.005.012.005.012.925-.381zm-3.91-10.2l.933-.359-.933.359zm30.026 83.858a236.377 236.377 0 00-4.268-12.634l-1.877.692a234.46 234.46 0 014.232 12.526l1.913-.584zm-4.26-12.612l-.069-.202-.069-.201-.069-.202-.07-.202-.069-.202-.069-.202-.069-.202-.069-.202-.069-.202-.069-.201-.017-.051-.017-.05-.009-.026-.009-.025-.017-.05-.069-.202a16.05 16.05 0 01-.069-.202 16.05 16.05 0 01-.069-.202 16.05 16.05 0 01-.069-.202l-.069-.202-.069-.202-.018-.05-.017-.051a2.888 2.888 0 01-.017-.05l-.017-.05-.018-.051-.017-.05-.017-.051-.017-.05-.018-.051-.017-.05-.017-.051-.018-.05-.017-.051-.017-.05-.017-.051-.018-.05-.017-.051a2.888 2.888 0 01-.034-.1l-.018-.051-.017-.05-.017-.051-.017-.05-.018-.051-.017-.05-.017-.051-.018-.05-.017-.051-.017-.05-.017-.051-.018-.05-.017-.051-.017-.05a2.888 2.888 0 00-.017-.05l-.018-.051-.017-.05-.017-.051-.017-.05-.018-.051-.017-.05-.017-.051-.018-.05-.017-.051-.017-.05-.017-.051-.018-.05-.017-.051-.017-.05-.017-.051-.018-.05a2.888 2.888 0 00-.017-.05l-.017-.051-.017-.05-.018-.05-.017-.051-.017-.05-.017-.051-.018-.05-.017-.051-.017-.05-.553-1.616-.552-1.615-.553-1.615-.552-1.615-1.893.648.018.05.017.05.017.051.017.05.018.051.017.05.017.051.017.05.018.05.017.051.017.05.018.051.017.05.017.051.017.05.018.051.017.05.017.051.017.05.018.051.017.05.017.051.017.05.018.05.017.051.017.05.018.051.017.05.017.051.017.05.018.051.017.05.017.051.017.05.018.051.017.05.017.051.017.05.018.051.017.05.017.05.018.051c.004.015.012.036.017.05l.017.051.017.05.018.051.017.05.017.051.017.05.018.051.017.05.017.051.017.05.018.051.017.05.017.05.018.051c.004.015.012.036.017.05l.017.051.017.05.018.051.017.05.017.051.017.05.018.051.017.05.017.051.017.05.018.051.017.05.017.051.017.05.018.05.017.051.017.05.018.051.017.05.017.051.017.05.018.051.017.05.017.051.017.05.018.051.017.05.017.051.017.05.018.05.017.051.017.05.018.051.017.05.017.051.017.05.018.051.017.05.017.051.017.05.018.051.017.05.017.051.017.05.018.051.017.05.017.05.018.051.017.05.017.051.017.05.018.051.017.05.017.051.017.05.018.051.017.05.017.051.017.05.018.051.017.05.017.05.018.051c.004.015.012.036.017.05l.017.051.017.051.018.05.017.051.017.05.017.051.553 1.615.552 1.615.553 1.615.552 1.615 1.893-.648zM293.33 92.5h-45.9v2h45.9v-2zm-46.847.676a580.81 580.81 0 01-4.582 12.898l1.877.692a590.38 590.38 0 004.598-12.942l-1.893-.648zm-4.59 12.92a403.31 403.31 0 00-4.09 12.612l1.913.584c1.243-4.069 2.6-8.251 4.07-12.548l-1.893-.648zM238.76 118h-27.54v2h27.54v-2zm-26.596 1.329a2093.876 2093.876 0 0112.574-35.173l-1.877-.692c-3.969 10.773-8.164 22.509-12.586 35.207l1.889.658zm12.574-35.173a1525.454 1525.454 0 0111.552-30.41l-1.861-.732a1530.18 1530.18 0 00-11.568 30.45l1.877.692zm11.548-30.4c3.852-9.516 7.589-18.52 11.213-27.014l-1.839-.784a1563.003 1563.003 0 00-11.227 27.047l1.853.75zm11.211-27.008a645.164 645.164 0 0111.542-25.12L257.24.752a648.536 648.536 0 00-11.578 25.199l1.835.796zM258.14 2.19h25.33v-2h-25.33v2zm24.425-.573a874.191 874.191 0 0111.377 25.131l1.835-.796A877.01 877.01 0 00284.374.763l-1.809.854zm11.379 25.136c3.734 8.486 7.469 17.484 11.205 26.993l1.861-.732c-3.744-9.53-7.489-18.553-11.235-27.067l-1.831.806zm11.209 27.002c3.849 9.51 7.755 19.643 11.718 30.4l1.877-.69c-3.97-10.776-7.884-20.93-11.742-30.46l-1.853.75zm11.718 30.4a2093.876 2093.876 0 0112.574 35.174l1.889-.658c-4.422-12.698-8.617-24.434-12.586-35.207l-1.877.692zM330.39 118H302v2h28.39v-2zm-61.129-90.436c-.56 1.679-1.403 3.986-2.535 6.927l1.867.718c1.135-2.952 1.991-5.292 2.565-7.013l-1.897-.632zm-2.535 6.927a6588.941 6588.941 0 00-3.911 10.202l1.869.714c1.473-3.853 2.776-7.252 3.909-10.198l-1.867-.718zm-3.911 10.202c-1.472 3.85-3.114 8.099-4.927 12.744l1.863.727c1.814-4.649 3.458-8.901 4.933-12.757l-1.869-.714zm-4.935 12.763c-1.701 4.65-3.458 9.526-5.273 14.629l1.885.67c1.812-5.097 3.568-9.968 5.267-14.611l-1.879-.688zm-4.33 15.964h33.49v-2h-33.49v2zm34.432-1.335a1739.978 1739.978 0 00-5.273-14.629l-1.879.688c1.699 4.643 3.455 9.514 5.267 14.611l1.885-.67zm-5.273-14.629a345.335 345.335 0 00-4.945-12.787l-1.849.762a342.95 342.95 0 014.915 12.713l1.879-.688zm-4.935-12.763a5703.247 5703.247 0 00-3.911-10.202l-1.867.718c1.133 2.946 2.436 6.345 3.909 10.198l1.869-.714zm-3.911-10.202a601.631 601.631 0 00-2.725-6.982l-1.857.742a591.034 591.034 0 012.715 6.958l1.867-.718zM376.919 1.19l.878-.479-.284-.521h-.594v1zm6.97 13.94l-.905.425.005.011.006.011.894-.447zm8.33 17.85l-.916.402.005.01.004.01.907-.422zm8.67 19.55l.921-.39-.921.39zm7.99 18.87l-.921.39.921 2.176.921-2.176-.921-.39zm7.99-18.87l-.921-.39.921.39zm8.5-19.55l-.91-.415-.003.007.913.408zm8.33-17.85l-.898-.44-.004.008.902.432zm7.14-13.94v-1h-.594l-.284.521.878.479zm24.14 0l.99-.143-.124-.857h-.866v1zm3.06 26.35l-.996.093.002.012.994-.105zm2.55 30.26l-.998.064.001.012.997-.076zm2.04 31.45l-.999.054.001.01.998-.064zm1.7 29.75v1h1.05l-.051-1.049-.999.049zm-25.84 0l-.999.03.028.97h.971v-1zm-1.36-37.4l.999-.042-.999.042zm-2.55-40.8l.997-.082-1.916-.312.919.394zm-6.8 15.81l-.918-.396.918.396zm-7.48 17.34l-.918-.396-.003.007-.004.008.925.381zm-6.97 16.66l.917.399.003-.007-.92-.392zm-5.78 13.43v1h.662l.259-.609-.921-.391zm-18.53 0l-.921.391.259.609h.662v-1zm-5.78-13.43l-.92.392.003.007.917-.399zm-7.14-16.66l-.925.38.004.008.003.008.918-.396zm-7.31-17.34l-.918.396.918-.396zm-6.8-15.81l.919-.394-1.916.312.997.082zm-2.55 40.8l.999.042-.999-.042zm-1.36 37.4v1h.971l.029-.97-1-.03zm-25.84 0l-.999-.049-.051 1.049h1.05v-1zm1.53-29.75l-.998-.064v.01l.998.054zm2.04-31.45l-.997-.075-.001.01.998.065zm2.55-30.26l-.995-.104-.001.01.996.094zm3.23-26.35v-1h-.865l-.125.857.99.143zm24.452.479c2.027 3.716 4.341 8.344 6.943 13.886l1.81-.85c-2.612-5.564-4.944-10.23-6.997-13.994l-1.756.958zm6.954 13.908c2.711 5.423 5.481 11.358 8.308 17.805l1.832-.804c-2.839-6.473-5.623-12.438-8.352-17.895l-1.788.894zm8.317 17.824a629.71 629.71 0 018.656 19.52l1.842-.781a632.587 632.587 0 00-8.684-19.581l-1.814.842zm8.656 19.52c2.834 6.686 5.497 12.976 7.99 18.869l1.842-.78c-2.493-5.893-5.157-12.183-7.99-18.87l-1.842.78zM409.8 71.79a35939.24 35939.24 0 017.99-18.87l-1.842-.78a48846.84 48846.84 0 00-7.99 18.87l1.842.78zm7.99-18.87a1121.598 1121.598 0 018.492-19.532l-1.826-.816a1121.257 1121.257 0 00-8.508 19.568l1.842.78zm8.489-19.525c2.944-6.455 5.718-12.4 8.322-17.833l-1.804-.864a1048.171 1048.171 0 00-8.338 17.867l1.82.83zm8.318-17.825c2.716-5.546 5.089-10.178 7.12-13.901L439.961.71c-2.049 3.757-4.436 8.418-7.16 13.98l1.796.879zm6.242-13.38h24.14v-2h-24.14v2zm23.15-.857c1.131 7.8 2.149 16.566 3.054 26.3l1.992-.186c-.908-9.76-1.93-18.56-3.066-26.4l-1.98.286zm3.056 26.312a740 740 0 012.546 30.22l1.996-.13c-.681-10.552-1.532-20.652-2.553-30.3l-1.989.21zm2.547 30.23c.793 10.42 1.472 20.896 2.038 31.429l1.998-.108a1417.874 1417.874 0 00-2.042-31.472l-1.994.152zm2.039 31.44c.68 10.535 1.246 20.446 1.699 29.734l1.998-.098c-.454-9.299-1.021-19.22-1.701-29.765l-1.996.128zM474.329 118h-25.84v2h25.84v-2zm-24.84.97a3074.018 3074.018 0 00-1.361-37.412l-1.998.084c.566 13.483 1.02 25.946 1.36 37.388l1.999-.06zm-1.361-37.412c-.567-13.5-1.418-27.114-2.552-40.84l-1.994.164c1.133 13.7 1.982 27.287 2.548 40.76l1.998-.084zm-4.468-41.152a7277.61 7277.61 0 01-6.799 15.808l1.836.792c2.494-5.78 4.761-11.051 6.801-15.812l-1.838-.788zm-6.799 15.808l-.015.034-.014.034-.015.034-.015.033a.464.464 0 01-.014.034l-.015.034a.485.485 0 00-.014.034l-.015.034a8350115225.724 8350115225.724 0 00-.029.068l-.015.033-.014.034-.015.034-.015.034-.014.034-.015.034-.015.034-.014.034-.015.033-.014.034-.015.034-.015.034-.014.034-.015.034a.485.485 0 00-.014.034l-.015.033a11.237 11.237 0 00-.029.068l-.015.034a159274909745.975 159274909745.975 0 00-.029.068l-.015.034-.014.033-.015.034-.014.034-.015.034-.015.034-.014.034-.015.034-.015.034a.485.485 0 01-.014.033l-.015.034-.014.034-.015.034-.015.034-.014.034-.015.034-.014.034-.015.033-.015.034-.014.034-.015.034a.485.485 0 00-.014.034l-.015.034-.015.034-.014.034-.015.033-.014.034-.015.034-.015.034-.014.034-.015.034-.015.033-.014.034-.015.034-.014.034-.015.034-.015.034a.464.464 0 01-.014.034l-.015.034-.014.033a11.237 11.237 0 01-.03.068l-.014.034-.015.034a.485.485 0 00-.014.034l-.015.034-.015.033-.014.034-.015.034-.015.034-.014.034-.015.034-.014.034-.015.034-.015.033a.485.485 0 01-.029.068.485.485 0 00-.014.034l-.015.034-.015.034-.014.034-.015.034a.464.464 0 00-.014.033l-.015.034-.015.034-.014.034-.015.034a11.237 11.237 0 00-.044.102l-.014.033-.015.034-.015.034-.014.034-.015.034-.014.034-.015.034-.015.033-.014.034-.015.034-.014.034-.015.034-.015.034-.014.034-.015.033a.485.485 0 00-.014.034l-.015.034-.015.034-.014.034-.015.034a159274909745.975 159274909745.975 0 00-.029.068l-.015.033-.014.034-.015.034-.015.034-.014.034-.015.034-.014.034-.015.034-.015.033a.464.464 0 01-.014.034l-.015.034-.014.034-.015.034-.015.034-.014.034-.015.033a.485.485 0 00-.014.034l-.015.034-.015.034-.014.034-.015.034-.015.034a.485.485 0 01-.014.033l-.015.034-.014.034-.015.034-.015.034a.485.485 0 01-.014.034l-.015.034a.485.485 0 00-.014.034l-.015.033-.015.034-.014.034-.015.034a.464.464 0 00-.014.034l-.015.034-.015.034-.014.033-.015.034a.485.485 0 00-.014.034l-.015.034-.015.034-.014.034-.015.034-.015.034-.014.033-.015.034-.014.034-.015.034-.015.034-.014.034-.015.034-.014.034-.015.033-.015.034-.014.034-.015.034a.485.485 0 00-.014.034l-.015.034-.015.034-.014.034-.015.033a.485.485 0 00-.014.034l-.015.034-.015.034-.014.034-.015.034-.015.033-.014.034-.015.034a.504.504 0 00-.014.034l-.015.034-.015.034a.464.464 0 01-.029.068.485.485 0 00-.014.033l-.015.034-.015.034-.014.034-.015.034a.485.485 0 00-.014.034l-.015.034-.015.034-.014.033-.015.034-.015.034-.014.034-.015.034-.014.034-.015.034-.015.034-.014.033a11.237 11.237 0 00-.029.068l-.015.034-.015.034-.014.034-.015.034a.464.464 0 00-.014.033l-.015.034-.015.034-.014.034-.015.034a.485.485 0 00-.014.034l-.015.034-.015.033-.014.034-.015.034-.015.034-.014.034-.015.034-.014.034-.015.034-.015.033a.485.485 0 01-.014.034l-.015.034-.014.034-.015.034-.015.034-.014.034-.015.034a.485.485 0 00-.014.033l-.015.034-.015.034-.014.034-.015.034-.014.034-.015.034-.015.033-.014.034-.015.034-.015.034a.485.485 0 01-.014.034l-.029.068-.03.067-.029.068-.029.068-.029.068-.029.067-.03.068-.029.068-.029.067-.029.068-.03.068-.029.068-.029.067-.029.068-.029.068-.03.068-.029.067-.029.068-.029.068-.03.068-.029.067-.029.068-.029.068-.029.068-.03.067-.029.068-.029.068-.029.068-.03.067-.029.068-.029.068-.029.067-.029.068-.03.068-.029.068-.029.067-.029.068-.029.068-.03.067-.029.068-.029.068-.029.068-.03.067-.029.068-.029.068-.029.068-.029.067-.03.068-.029.068-.029.068-.029.067-.03.068-.029.068-.029.068-.029.067-.029.068-.03.068-.029.067-.029.068-.029.068-.029.068-.03.067-.029.068-.029.068-.029.068-.03.067-.029.068-.029.068-.029.068-.029.067-.03.068-.029.068-.029.068-.029.067-.03.068-.029.068-.029.067-.029.068-.029.068-.03.068-.029.067-.029.068-.029.068-.03.068-.029.067-.029.068-.029.068-.029.067-.03.068-.029.068-.029.068-.029.067-.029.068-.03.068-.029.068-.029.067-.029.068-.03.068-.029.068-.029.067-.029.068-.029.068-.03.067-.029.068-.029.068-.029.068-.03.068-.029.067-.029.068-.029.068-.029.067-.03.068-.029.068-.029.068-.029.067-.03.068-.029.068-.029.068-.029.067-.029.068-.03.068-.029.067-.029.068-.029.068-.029.068-.03.067-.029.068-.029.068 1.836.792.015-.034.014-.034.015-.034.015-.033.014-.034.015-.034.015-.034a.485.485 0 01.014-.034l.015-.034.014-.034.015-.034.015-.033.014-.034a8812096469.458 8812096469.458 0 01.029-.068l.015-.034.015-.034a.504.504 0 01.014-.033l.015-.034.014-.034.015-.034.015-.034.014-.034.015-.034.015-.034a.485.485 0 01.029-.067l.014-.034.015-.034.015-.034.014-.034.015-.034a.464.464 0 00.014-.034l.015-.033.015-.034.014-.034.015-.034.014-.034.015-.034.015-.034.014-.034.015-.033a.485.485 0 00.014-.034l.015-.034.015-.034.014-.034.015-.034.015-.034.014-.033.015-.034.014-.034.015-.034.015-.034a.464.464 0 01.014-.034l.015-.034.014-.034.015-.033.015-.034.014-.034.015-.034a.485.485 0 00.014-.034l.015-.034.015-.033.014-.034.015-.034a8812096469.458 8812096469.458 0 01.029-.068l.015-.034.014-.034.015-.034.015-.033a.464.464 0 01.014-.034l.015-.034.014-.034.015-.034.015-.034.014-.034.015-.034a.464.464 0 00.014-.033l.015-.034.015-.034.014-.034.015-.034.014-.034.015-.034.015-.034.014-.033.015-.034.015-.034a.485.485 0 01.014-.034l.015-.034.014-.034.015-.034.015-.033.014-.034.015-.034.014-.034.015-.034.015-.034.014-.034.015-.034.014-.033.015-.034.015-.034.014-.034.015-.034.014-.034.015-.034.015-.033.014-.034.015-.034.015-.034.014-.034.015-.034.014-.034.015-.033.015-.034.014-.034.015-.034.014-.034.015-.034.015-.034a.485.485 0 01.014-.034l.015-.033a.485.485 0 00.014-.034l.015-.034.015-.034.014-.034.015-.034a.504.504 0 00.014-.034l.015-.034.015-.033.014-.034.015-.034.015-.034a.464.464 0 01.014-.034l.015-.034.014-.034.015-.034.015-.033a.485.485 0 01.014-.034l.015-.034a8812096469.458 8812096469.458 0 01.029-.068l.015-.034.014-.034.015-.033a.485.485 0 00.014-.034l.015-.034.015-.034.014-.034.015-.034.015-.034.014-.034.015-.033.014-.034.015-.034.015-.034.014-.034.015-.034.014-.034.015-.033.015-.034.014-.034.015-.034a.485.485 0 00.014-.034l.015-.034.015-.034.014-.034.015-.033.014-.034.015-.034.015-.034.014-.034.015-.034.015-.034a.485.485 0 01.014-.033l.015-.034.014-.034.015-.034.015-.034.014-.034.015-.034a.485.485 0 00.014-.033l.015-.034.015-.034a.485.485 0 01.029-.068l.014-.034.015-.034.015-.034.014-.033.015-.034.014-.034.015-.034.015-.034.014-.034.015-.034.015-.034a.464.464 0 01.014-.033l.015-.034a.485.485 0 00.014-.034l.015-.034.015-.034a.485.485 0 01.014-.034l.015-.034a.464.464 0 00.014-.033l.015-.034.015-.034.014-.034.015-.034a.485.485 0 00.014-.034l.015-.034.015-.034.014-.033.015-.034.015-.034.014-.034.015-.034.014-.034.015-.034.015-.033.014-.034.015-.034a.464.464 0 00.014-.034l.015-.034.015-.034.014-.034.015-.033a.485.485 0 00.014-.034l.015-.034.015-.034.014-.034.015-.034.014-.034.015-.034.015-.033.014-.034.015-.034.015-.034.014-.034.015-.034.014-.034.015-.034.015-.033a.464.464 0 01.014-.034l.015-.034.014-.034.015-.034.015-.034.014-.034.015-.033.014-.034.015-.034.015-.034.014-.034.03-.068.029-.067.029-.068.029-.068.029-.068.03-.067.029-.068.029-.068.029-.067.029-.068.03-.068.029-.068.029-.067.029-.068.03-.068.029-.068.029-.067.029-.068.029-.068.03-.068.029-.067.029-.068.029-.068.03-.067.029-.068.029-.068.029-.068.029-.068.03-.067.029-.068.029-.068.029-.067.03-.068.029-.068.029-.068.029-.067.029-.068.03-.068.029-.068.029-.067.029-.068.029-.068.03-.068.029-.067.029-.068.029-.068.03-.067.029-.068.029-.068.029-.068.029-.067.03-.068.029-.068.029-.068.029-.067.03-.068.029-.068.029-.067.029-.068.029-.068.03-.068.029-.067.029-.068.029-.068.03-.068.029-.067.029-.068.029-.068.029-.068.03-.067.029-.068.029-.068.029-.068.029-.067.03-.068.029-.068.029-.067.029-.068.03-.068.029-.068.029-.067.029-.068.029-.068.03-.068.029-.067.029-.068.029-.068.03-.068.029-.067.029-.068.029-.068.029-.068.03-.067.029-.068.029-.068.029-.067.03-.068.029-.068.029-.068.029-.067.029-.068.03-.068.029-.068.029-.067.029-.068.029-.068.03-.068.029-.067.029-.068.029-.068.03-.067.029-.068.029-.068.029-.068.029-.067.03-.068.029-.068.029-.068.029-.067.03-.068.029-.068.029-.067.029-.068.029-.068.03-.068.029-.067.029-.068.029-.068-1.836-.792zm-7.487 17.355c-2.378 5.777-4.7 11.327-6.965 16.65l1.84.783a1542.97 1542.97 0 006.975-16.671l-1.85-.762zm-6.962 16.642a1735.361 1735.361 0 00-5.784 13.438l1.842.782c1.585-3.737 3.51-8.21 5.776-13.422l-1.834-.798zm-4.863 12.829h-18.53v2h18.53v-2zm-17.609.609a1697.173 1697.173 0 00-5.784-13.438l-1.834.798c2.266 5.211 4.191 9.685 5.776 13.422l1.842-.782zm-5.781-13.43a3631.503 3631.503 0 00-7.142-16.665l-1.836.792c2.493 5.779 4.872 11.33 7.138 16.656l1.84-.784zm-7.135-16.65a1125.7 1125.7 0 00-7.317-17.355l-1.836.792c2.491 5.775 4.926 11.55 7.303 17.325l1.85-.762zm-7.317-17.355a7567.547 7567.547 0 01-6.799-15.808l-1.838.788c2.04 4.76 4.307 10.031 6.801 15.812l1.836-.792zm-8.715-15.496a1011.608 1011.608 0 00-2.552 40.84l1.998.084c.566-13.473 1.415-27.06 2.548-40.76l-1.994-.164zm-2.552 40.84c-.567 13.49-1.02 25.961-1.361 37.412l2 .06c.339-11.442.793-23.905 1.359-37.388l-1.998-.084zM368.079 118h-25.84v2h25.84v-2zm-24.841 1.049c.453-9.292.963-19.207 1.53-29.745l-1.997-.108a6057.045 6057.045 0 00-1.531 29.755l1.998.098zm1.529-29.735c.68-10.54 1.36-21.022 2.04-31.449l-1.996-.13c-.68 10.427-1.36 20.91-2.04 31.45l1.996.13zm2.039-31.439a1624.961 1624.961 0 012.549-30.241l-1.992-.188a1630.6 1630.6 0 00-2.551 30.279l1.994.15zm2.548-30.23c1.019-9.737 2.094-18.507 3.225-26.312l-1.98-.286c-1.135 7.835-2.213 16.632-3.234 26.389l1.989.208zm2.235-25.455h25.33v-2h-25.33v2zm356.518-1h1v-1h-1v1zm0 22.61v1h1v-1h-1zm-35.53 0v-1h-1v1h1zm0 95.2v1h1v-1h-1zm-26.52 0h-1v1h1v-1zm0-95.2h1v-1h-1v1zm-35.53 0h-1v1h1v-1zm0-22.61v-1h-1v1h1zm96.58 0V23.8h2V1.19h-2zm1 21.61h-35.53v2h35.53v-2zm-36.53 1V119h2V23.8h-2zm1 94.2h-26.52v2h26.52v-2zm-25.52 1V23.8h-2V119h2zm-1-96.2h-35.53v2h35.53v-2zm-34.53 1V1.19h-2V23.8h2zm-1-21.61h97.58v-2h-97.58v2zM725.151 119h-1v1h1v-1zm0-117.81v-1h-1v1h1zm79.56 0h1v-1h-1v1zm0 22.27v1h1v-1h-1zm-53.04 0v-1h-1v1h1zm0 23.12h-1v1h1v-1zm47.09 0h1v-1h-1v1zm0 21.76v1h1v-1h-1zm-47.09 0v-1h-1v1h1zm0 28.39h-1v1h1v-1zm56.95 0h1v-1h-1v1zm0 22.27v1h1v-1h-1zm-82.47 0V1.19h-2V119h2zm-1-116.81h79.56v-2h-79.56v2zm78.56-1v22.27h2V1.19h-2zm1 21.27h-53.04v2h53.04v-2zm-54.04 1v23.12h2V23.46h-2zm1 24.12h47.09v-2h-47.09v2zm46.09-1v21.76h2V46.58h-2zm1 20.76h-47.09v2h47.09v-2zm-48.09 1v28.39h2V68.34h-2zm1 29.39h56.95v-2h-56.95v2zm55.95-1V119h2V96.73h-2zm1 21.27h-83.47v2h83.47v-2zm98.505 1l-.956.292.216.708h.74v-1zm-4.25-12.58l-.946.324.004.011.004.011.938-.346zm-4.42-12.92l.947-.324-.232-.676h-.715v1zm-45.9 0v-1h-.714l-.232.676.946.324zm-4.59 12.92l-.938-.346-.004.011-.004.011.946.324zm-4.08 12.58v1h.741l.216-.708-.957-.292zm-27.54 0l-.944-.329-.463 1.329h1.407v-1zm12.581-35.19l.938.346-.938-.346zm11.56-30.43l-.927-.375-.004.01.931.365zm11.219-27.03l-.917-.398-.002.006.919.392zm11.56-25.16v-1h-.625l-.274.563.899.437zm25.33 0l.905-.427-.271-.573h-.634v1zm11.391 25.16l-.918.398.002.005.916-.403zm11.219 27.03l-.93.366.004.01.926-.376zm11.73 30.43l-.938.346.938-.346zm12.58 35.19v1h1.408l-.463-1.329-.945.329zm-60.18-91.12l.929-.371-1.014-2.535-.863 2.59.948.316zm-2.55 6.97l-.933-.359.933.359zm-3.91 10.2l-.934-.357.934.357zm-4.93 12.75l-.931-.363-.004.01-.004.01.939.343zm-5.269 14.62l-.943-.335-.474 1.335h1.417v-1zm33.49 0v1h1.416l-.474-1.335-.942.335zm-5.271-14.62l-.939.344.939-.344zm-4.93-12.75l-.934.357.005.012.005.012.924-.381zm-3.909-10.2l.933-.359-.933.359zm30.026 83.858a236.377 236.377 0 00-4.268-12.634l-1.877.692a234.46 234.46 0 014.232 12.526l1.913-.584zm-4.26-12.612l-.069-.202-.069-.201-.07-.202-.069-.202-.069-.202-.069-.202-.069-.202-.069-.202-.069-.202-.069-.201-.017-.051-.018-.05-.008-.026a.694.694 0 01-.009-.025l-.017-.05a16.05 16.05 0 01-.069-.202 16.05 16.05 0 01-.069-.202 16.05 16.05 0 01-.069-.202 16.05 16.05 0 01-.069-.202l-.069-.202-.069-.202-.018-.05-.017-.051a2.888 2.888 0 01-.017-.05l-.017-.05-.018-.051-.017-.05-.017-.051-.018-.05-.017-.051-.017-.05-.017-.051-.018-.05-.017-.051-.017-.05-.017-.051-.018-.05-.017-.051a2.888 2.888 0 01-.017-.05l-.017-.05-.018-.051-.017-.05-.017-.051-.018-.05-.017-.051-.017-.05-.017-.051-.018-.05-.017-.051-.017-.05-.017-.051-.018-.05-.017-.051-.017-.05-.017-.05-.018-.051-.017-.05-.017-.051-.018-.05-.017-.051-.017-.05-.017-.051-.018-.05-.017-.051-.017-.05-.017-.051-.018-.05-.017-.051-.017-.05-.017-.051-.018-.05-.017-.05-.017-.051-.017-.05-.018-.05-.017-.051-.017-.05-.018-.051-.017-.05-.017-.051-.017-.05-.553-1.616-.552-1.615-.553-1.615-.552-1.615-1.893.648.018.05.017.05.017.051.017.05.018.051.017.05.017.051.017.05.018.05.017.051.017.05.018.051c.004.015.012.036.017.05l.017.051.017.05.018.051.017.05.017.051.017.05.018.051.017.05.017.051.017.05.018.05.017.051.017.05.018.051c.004.015.012.036.017.05l.017.051.017.05.018.051.017.05.017.051.017.05.018.051.017.05.017.051.017.05.018.051.017.05.017.05.017.051.018.05.017.051.017.05.018.051.017.05.017.051.017.05.018.051.017.05.017.051.017.05.018.051.017.05.017.05.017.051.018.05.017.051.017.05.018.051c.004.015.012.036.017.05l.017.051.017.05.018.051.017.05.017.051.017.05.018.051.017.05.017.051.017.05.018.05.017.051.017.05.018.051c.004.015.012.036.017.05l.017.051.017.05.018.051.017.05.017.051.017.05.018.051.017.05.017.051.017.05.018.05.017.051.017.05.017.051.018.05.017.051.017.05.018.051.017.05.017.051.017.05.018.051.017.05.017.051.017.05.018.051.017.05.017.05.017.051.018.05.017.051.017.05.018.051c.004.015.012.036.017.05l.017.051.017.05.018.051.017.05.017.051.017.05.018.051.017.05.017.05.017.051.018.05.017.051.017.051.018.05.017.051.017.05.017.051.553 1.615.552 1.615.553 1.615.552 1.615 1.893-.648zM898.456 92.5h-45.9v2h45.9v-2zm-46.846.676a580.81 580.81 0 01-4.582 12.898l1.877.692a590.38 590.38 0 004.598-12.942l-1.893-.648zm-4.59 12.92a403.31 403.31 0 00-4.09 12.612l1.913.584c1.243-4.069 2.6-8.251 4.07-12.548l-1.893-.648zM843.886 118h-27.54v2h27.54v-2zm-26.595 1.329a2093.876 2093.876 0 0112.574-35.173l-1.877-.692c-3.969 10.773-8.164 22.509-12.586 35.207l1.889.658zm12.574-35.173a1525.454 1525.454 0 0111.552-30.41l-1.861-.732a1530.18 1530.18 0 00-11.568 30.45l1.877.692zm11.548-30.4c3.852-9.516 7.589-18.52 11.213-27.014l-1.839-.784a1563.003 1563.003 0 00-11.227 27.047l1.853.75zm11.211-27.008a645.164 645.164 0 0111.542-25.12l-1.799-.875a648.536 648.536 0 00-11.578 25.199l1.835.796zM863.266 2.19h25.33v-2h-25.33v2zm24.426-.573a874.191 874.191 0 0111.377 25.131l1.835-.796A877.01 877.01 0 00889.501.763l-1.809.854zm11.379 25.136c3.734 8.486 7.469 17.484 11.205 26.993l1.861-.732c-3.744-9.53-7.489-18.553-11.235-27.067l-1.831.806zm11.209 27.002c3.848 9.51 7.755 19.643 11.718 30.4l1.877-.69c-3.97-10.776-7.884-20.93-11.742-30.46l-1.853.75zm11.718 30.4a2093.876 2093.876 0 0112.574 35.174l1.889-.658c-4.422-12.698-8.617-24.434-12.586-35.207l-1.877.692zM935.516 118h-28.39v2h28.39v-2zm-61.128-90.436c-.56 1.679-1.404 3.986-2.535 6.927l1.867.718c1.135-2.952 1.991-5.292 2.565-7.013l-1.897-.632zm-2.535 6.927a6588.941 6588.941 0 00-3.911 10.202l1.869.714c1.473-3.853 2.776-7.252 3.909-10.198l-1.867-.718zm-3.911 10.202c-1.472 3.85-3.114 8.099-4.927 12.744l1.863.727c1.814-4.649 3.458-8.901 4.933-12.757l-1.869-.714zm-4.935 12.763c-1.701 4.65-3.458 9.526-5.273 14.629l1.885.67c1.812-5.097 3.568-9.968 5.267-14.611l-1.879-.688zm-4.33 15.964h33.49v-2h-33.49v2zm34.432-1.335a1739.978 1739.978 0 00-5.273-14.629l-1.879.688c1.699 4.643 3.455 9.514 5.267 14.611l1.885-.67zm-5.273-14.629a345.335 345.335 0 00-4.945-12.787l-1.849.762a342.95 342.95 0 014.915 12.713l1.879-.688zm-4.935-12.763a6588.941 6588.941 0 00-3.911-10.202l-1.867.718c1.133 2.946 2.436 6.345 3.909 10.198l1.869-.714zM878.99 34.49a601.631 601.631 0 00-2.725-6.982l-1.857.742a591.034 591.034 0 012.715 6.958l1.867-.718zm103.056-33.3l.878-.479-.284-.521h-.594v1zm6.97 13.94l-.905.425.005.011.006.011.894-.447zm8.33 17.85l-.916.402.005.01.004.01.907-.422zm8.674 19.55l.92-.39-.92.39zm7.99 18.87l-.92.39.92 2.176.92-2.176-.92-.39zm7.99-18.87l-.92-.39.92.39zm8.5-19.55l-.91-.415-.01.007.92.408zm8.33-17.85l-.9-.44-.01.008.91.432zm7.14-13.94v-1h-.6l-.28.521.88.479zm24.14 0l.99-.143-.13-.857h-.86v1zm3.06 26.35l-1 .093v.012l1-.105zm2.55 30.26l-1 .064v.012l1-.076zm2.04 31.45l-1 .054v.01l1-.064zm1.7 29.75v1h1.05l-.06-1.049-.99.049zm-25.84 0l-1 .03.03.97h.97v-1zm-1.36-37.4l1-.042-1 .042zm-2.55-40.8l.99-.082-1.91-.312.92.394zm-6.8 15.81l-.92-.396.92.396zm-7.48 17.34l-.92-.396-.01.007v.008l.93.381zm-6.97 16.66l.91.399.01-.007-.92-.392zm-5.78 13.43v1h.66l.26-.609-.92-.391zm-18.53 0l-.92.391.25.609h.67v-1zm-5.784-13.43l-.92.392.003.007.917-.399zm-7.14-16.66l-.925.38.004.008.003.008.918-.396zm-7.31-17.34l-.918.396.918-.396zm-6.8-15.81l.919-.394-1.916.312.997.082zm-2.55 40.8l.999.042-.999-.042zm-1.36 37.4v1h.971l.029-.97-1-.03zm-25.84 0l-.999-.049-.051 1.049h1.05v-1zm1.53-29.75l-.998-.064-.001.01.999.054zm2.04-31.45l-.997-.075-.001.01.998.065zm2.55-30.26l-.995-.104-.001.01.996.094zm3.23-26.35v-1h-.865l-.125.857.99.143zm24.452.479c2.027 3.716 4.341 8.344 6.943 13.886l1.81-.85c-2.612-5.564-4.944-10.23-6.997-13.994l-1.756.958zm6.954 13.908c2.711 5.423 5.481 11.358 8.308 17.805l1.832-.804c-2.839-6.473-5.623-12.438-8.352-17.895l-1.788.894zm8.317 17.824a632.074 632.074 0 018.661 19.52l1.84-.781a649.76 649.76 0 00-8.687-19.581l-1.814.842zm8.661 19.52c2.83 6.686 5.49 12.976 7.99 18.869l1.84-.78c-2.5-5.893-5.16-12.183-7.99-18.87l-1.84.78zm9.83 18.869c2.49-5.894 5.15-12.183 7.99-18.87l-1.84-.78c-2.84 6.687-5.5 12.977-7.99 18.87l1.84.78zm7.99-18.87c2.83-6.68 5.66-13.192 8.49-19.532l-1.83-.816a1121.81 1121.81 0 00-8.5 19.568l1.84.78zm8.49-19.525c2.94-6.455 5.71-12.4 8.32-17.833l-1.81-.864c-2.61 5.446-5.38 11.402-8.33 17.867l1.82.83zm8.31-17.825c2.72-5.546 5.09-10.178 7.12-13.901l-1.75-.958c-2.05 3.757-4.44 8.418-7.16 13.98l1.79.879zm6.25-13.38h24.14v-2h-24.14v2zm23.15-.857c1.13 7.8 2.14 16.566 3.05 26.3l1.99-.186c-.91-9.76-1.93-18.56-3.06-26.4l-1.98.286zm3.05 26.312c1.02 9.619 1.87 19.692 2.55 30.22l1.99-.13c-.68-10.552-1.53-20.652-2.55-30.3l-1.99.21zm2.55 30.23c.79 10.42 1.47 20.896 2.04 31.429l1.99-.108c-.56-10.547-1.24-21.038-2.04-31.472l-1.99.152zm2.04 31.44c.68 10.535 1.24 20.446 1.7 29.734l1.99-.098c-.45-9.299-1.02-19.22-1.7-29.765l-1.99.128zm2.7 28.685h-25.84v2h25.84v-2zm-24.84.97c-.34-11.451-.8-23.922-1.36-37.412l-2 .084c.56 13.483 1.02 25.946 1.36 37.388l2-.06zm-1.36-37.412c-.57-13.5-1.42-27.114-2.56-40.84l-1.99.164c1.13 13.7 1.98 27.287 2.55 40.76l2-.084zm-4.47-41.152a9190.16 9190.16 0 01-6.8 15.808l1.83.792c2.5-5.78 4.76-11.051 6.81-15.812l-1.84-.788zm-6.8 15.808c-.01.011-.01.023-.02.034 0 .011-.01.022-.01.034-.01.01-.01.022-.02.034 0 .01-.01.022-.01.033-.01.012-.01.023-.02.034 0 .011 0 .023-.01.034 0 .011-.01.023-.01.034-.01.011-.01.023-.02.034 0 .011-.01.022-.01.034-.01.011-.01.022-.02.034 0 .01-.01.022-.01.033-.01.012-.01.023-.02.034 0 .012-.01.023-.01.034-.01.011-.01.023-.02.034 0 .011-.01.023-.01.034-.01.011-.01.023-.02.034 0 .011-.01.022-.01.034-.01.01-.01.022-.02.034 0 .01 0 .022-.01.033 0 .012-.01.023-.01.034-.01.012-.01.023-.02.034 0 .011-.01.023-.01.034-.01.011-.01.023-.02.034 0 .011-.01.022-.01.034-.01.011-.01.022-.02.034 0 .01-.01.022-.01.033-.01.012-.01.023-.02.034 0 .012-.01.023-.01.034-.01.011-.01.023-.02.034 0 .011-.01.023-.01.034-.01.011-.01.023-.02.034 0 .011 0 .022-.01.034 0 .01-.01.022-.01.033-.01.012-.01.023-.02.034 0 .012-.01.023-.01.034-.01.011-.01.023-.02.034 0 .011-.01.023-.01.034-.01.011-.01.023-.02.034 0 .011-.01.022-.01.034-.01.011-.01.022-.02.034 0 .01-.01.022-.01.033-.01.012-.01.023-.02.034 0 .012-.01.023-.01.034-.01.011-.01.023-.02.034 0 .011 0 .023-.01.034 0 .011-.01.023-.01.034-.01.011-.01.022-.02.034 0 .011-.01.022-.01.034-.01.01-.01.022-.02.033 0 .012-.01.023-.01.034-.01.012-.01.023-.02.034 0 .011-.01.023-.01.034-.01.011-.01.023-.02.034 0 .011-.01.022-.01.034-.01.011-.01.022-.02.034 0 .01-.01.022-.01.034-.01.01-.01.022-.01.033-.01.012-.01.023-.02.034 0 .012-.01.023-.01.034-.01.011-.01.023-.02.034 0 .011-.01.023-.01.034-.01.011-.01.022-.02.034 0 .011-.01.022-.01.033-.01.012-.01.023-.02.034 0 .012-.01.023-.01.034-.01.012-.01.023-.02.034 0 .011-.01.023-.01.034-.01.011-.01.023-.02.034 0 .011-.01.022-.01.034-.01.011-.01.022-.01.034-.01.01-.01.022-.02.033 0 .012-.01.023-.01.034-.01.012-.01.023-.02.034 0 .011-.01.023-.01.034-.01.011-.01.023-.02.034 0 .011-.01.023-.01.034-.01.011-.01.022-.02.034 0 .011-.01.022-.01.033-.01.012-.01.023-.02.034 0 .012-.01.023-.01.034-.01.012-.01.023-.02.034 0 .011-.01.023-.01.034-.01.011-.01.023-.01.034-.01.011-.01.023-.02.034 0 .011-.01.022-.01.034-.01.01-.01.022-.02.033 0 .012-.01.023-.01.034-.01.012-.01.023-.02.034 0 .011-.01.023-.01.034-.01.011-.01.023-.02.034 0 .011-.01.023-.01.034-.01.011-.01.022-.02.034 0 .011-.01.022-.01.034-.01.01-.01.022-.02.033 0 .012-.01.023-.01.034 0 .012-.01.023-.01.034-.01.011-.01.023-.02.034 0 .011-.01.023-.01.034-.01.011-.01.023-.02.034 0 .011-.01.022-.01.034-.01.01-.01.022-.02.034 0 .01-.01.022-.01.033-.01.012-.01.023-.02.034 0 .012-.01.023-.01.034-.01.011-.01.023-.02.034 0 .011-.01.022-.01.034-.01.011-.01.022-.02.034 0 .011-.01.022-.01.034 0 .01-.01.022-.01.033-.01.012-.01.023-.02.034 0 .012-.01.023-.01.034-.01.011-.01.023-.02.034 0 .011-.01.023-.01.034-.01.011-.01.023-.02.034 0 .011-.01.022-.01.034-.01.01-.01.022-.02.033 0 .012-.01.023-.01.034-.01.012-.01.023-.02.034 0 .011-.01.023-.01.034-.01.011-.01.023-.02.034 0 .011-.01.023-.01.034 0 .011-.01.022-.01.034-.01.011-.01.022-.02.034 0 .01-.01.022-.01.033-.01.012-.01.023-.02.034 0 .012-.01.023-.01.034-.01.011-.01.023-.02.034 0 .011-.01.023-.01.034-.01.011-.01.023-.02.034 0 .011-.01.022-.01.034-.01.01-.01.022-.02.034 0 .01-.01.022-.01.033-.01.012-.01.023-.02.034 0 .011 0 .023-.01.034 0 .011-.01.023-.01.034-.01.011-.01.023-.02.034 0 .011-.01.022-.01.034-.01.011-.01.022-.02.034 0 .01-.01.022-.01.033-.01.012-.01.023-.02.034 0 .012-.01.023-.01.034-.01.012-.01.023-.02.034 0 .011-.01.023-.01.034-.01.011-.01.023-.02.034 0 .011-.01.022-.01.034-.01.01-.01.022-.02.033 0 .012 0 .023-.01.034 0 .012-.01.023-.01.034-.01.011-.01.023-.02.034 0 .011-.01.023-.01.034-.01.011-.01.023-.02.034 0 .011-.01.022-.01.034-.01.011-.01.022-.02.034 0 .01-.01.022-.01.033-.01.012-.01.023-.02.034 0 .012-.01.023-.01.034-.01.011-.01.023-.02.034 0 .011-.01.023-.01.034-.01.011-.01.023-.02.034 0 .011 0 .022-.01.034 0 .01-.01.022-.01.033-.01.012-.01.023-.02.034 0 .012-.01.023-.01.034-.01.011-.01.023-.02.034 0 .011-.01.023-.01.034-.01.011-.01.023-.02.034 0 .011-.01.022-.01.034-.01.011-.01.022-.02.034 0 .01-.01.022-.01.033-.01.012-.01.023-.02.034 0 .012-.01.023-.01.034-.01.011-.01.023-.02.034 0 .011 0 .023-.01.034 0 .011-.01.023-.01.034-.01.011-.01.022-.02.034 0 .011-.01.022-.01.034-.01.01-.01.022-.02.033 0 .012-.01.023-.01.034-.01.012-.01.023-.02.034 0 .011-.01.023-.01.034-.01.011-.01.023-.02.034 0 .011-.01.022-.01.034-.01.011-.01.022-.02.034 0 .01-.01.022-.01.034-.01.01-.01.022-.01.033-.01.012-.01.023-.02.034 0 .012-.01.023-.01.034-.01.011-.01.023-.02.034 0 .011-.01.022-.01.034-.01.011-.01.022-.02.034 0 .011-.01.022-.01.033-.01.012-.01.023-.02.034 0 .012-.01.023-.01.034-.01.012-.01.023-.02.034 0 .011-.01.023-.01.034-.01.011-.01.023-.02.034 0 .011-.01.023-.01.034-.01.011-.01.022-.01.034-.01.01-.01.022-.02.033 0 .012-.01.023-.01.034-.01.012-.01.023-.02.034 0 .011-.01.023-.01.034-.01.011-.01.023-.02.034 0 .011-.01.023-.01.034-.01.011-.01.022-.02.034 0 .011-.01.022-.01.034-.01.01-.01.022-.02.033 0 .012-.01.023-.01.034-.01.012-.01.023-.02.034 0 .011-.01.023-.01.034-.01.011-.01.023-.01.034-.01.011-.01.023-.02.034 0 .011-.01.022-.01.034-.01.01-.01.022-.02.034 0 .01-.01.022-.01.033-.01.012-.01.023-.02.034 0 .011-.01.023-.01.034-.01.011-.01.023-.02.034 0 .011-.01.023-.01.034-.01.011-.01.022-.02.034 0 .011-.01.022-.01.034-.01.01-.01.022-.02.033 0 .012-.01.023-.01.034 0 .012-.01.023-.01.034-.01.011-.01.023-.02.034 0 .011-.01.023-.01.034-.01.011-.01.023-.02.034 0 .011-.01.022-.01.034-.01.01-.01.022-.02.033 0 .012-.01.023-.01.034-.01.012-.01.023-.02.034 0 .011-.01.023-.01.034-.01.011-.01.023-.02.034 0 .011-.01.022-.01.034-.01.011-.01.022-.02.034 0 .011-.01.022-.01.034 0 .01-.01.022-.01.033-.01.012-.01.023-.02.034 0 .012-.01.023-.01.034-.01.011-.01.023-.02.034 0 .011-.01.023-.01.034-.01.011-.01.022-.02.034 0 .011-.01.022-.01.034-.01.01-.01.022-.02.034 0 .01-.01.022-.01.033-.01.012-.01.023-.02.034 0 .011-.01.023-.01.034-.01.011-.01.023-.02.034 0 .011-.01.022-.01.034 0 .011-.01.022-.01.034-.01.011-.01.022-.02.034 0 .01-.01.022-.01.033-.01.012-.01.023-.02.034 0 .012-.01.023-.01.034-.01.011-.01.023-.02.034 0 .011-.01.023-.01.034l-.03.068-.03.067-.03.068-.03.068-.03.068-.03.067-.03.068-.03.068-.03.067c-.02.069.01 0-.02.068l-.03.068-.03.068-.03.067-.03.068-.03.068-.03.068-.03.067-.03.068-.03.068-.03.068-.03.067-.03.068c-.02.069.01 0-.02.068l-.03.068-.03.067-.03.068-.03.068-.03.068-.03.067-.03.068-.03.068-.03.067-.03.068-.03.068c-.03.068 0 0-.02.068l-.03.067-.03.068-.03.068-.03.067-.03.068-.03.068-.03.068-.03.067-.03.068-.03.068-.03.068-.03.067c-.03.069 0 0-.02.068l-.03.068-.03.068-.03.067-.03.068-.03.068-.03.068-.03.067-.03.068-.03.068-.03.067-.03.068-.03.068-.02.068-.03.067-.03.068-.03.068-.03.068-.03.067-.03.068-.03.068-.03.068-.03.067-.03.068-.03.068-.03.068c-.02.068.01-.001-.02.067l-.03.068-.03.068-.03.067-.03.068-.03.068-.03.068-.03.067-.03.068-.03.068-.03.068-.03.067-.03.068c-.02.069.01 0-.02.068l-.03.067-.03.068-.03.068-.03.068-.03.067-.03.068-.03.068-.03.068-.03.067-.03.068-.03.068c-.03.068 0 0-.02.068l-.03.067-.03.068-.03.068-.03.067-.03.068-.03.068-.03.068-.03.068-.03.067-.03.068-.03.068-.03.067c-.03.069 0 0-.02.068l-.03.068-.03.068-.03.067-.03.068-.03.068-.03.068-.03.067-.03.068-.03.068-.03.067-.03.068-.03.068-.02.068-.03.067-.03.068-.03.068 1.83.792c.01-.011.01-.023.02-.034 0-.011.01-.022.01-.034.01-.01.01-.022.02-.034 0-.01.01-.022.01-.033.01-.012.01-.023.02-.034 0-.012.01-.023.01-.034.01-.011.01-.023.02-.034 0-.011.01-.023.01-.034.01-.011.01-.022.02-.034 0-.011.01-.022.01-.034.01-.01.01-.022.01-.034.01-.01.01-.022.02-.033 0-.012.01-.023.01-.034.01-.012.01-.023.02-.034 0-.011.01-.023.01-.034.01-.011.01-.022.02-.034 0-.011.01-.022.01-.034.01-.01.01-.022.02-.033 0-.012.01-.023.01-.034.01-.012.01-.023.02-.034 0-.011.01-.023.01-.034.01-.011.01-.023.02-.034 0-.011.01-.023.01-.034.01-.011.01-.022.01-.034.01-.011.01-.022.02-.034 0-.01.01-.022.01-.033.01-.012.01-.023.02-.034 0-.012.01-.023.01-.034.01-.011.01-.023.02-.034 0-.011.01-.023.01-.034.01-.011.01-.022.02-.034 0-.011.01-.022.01-.034.01-.01.01-.022.02-.034 0-.01.01-.022.01-.033.01-.012.01-.023.02-.034 0-.012.01-.023.01-.034.01-.011.01-.023.01-.034.01-.011.01-.023.02-.034 0-.011.01-.022.01-.034.01-.011.01-.022.02-.034 0-.01.01-.022.01-.034.01-.01.01-.022.02-.033 0-.012.01-.023.01-.034.01-.011.01-.023.02-.034 0-.011.01-.023.01-.034.01-.011.01-.023.02-.034 0-.011.01-.022.01-.034.01-.011.01-.022.02-.034 0-.01.01-.022.01-.033 0-.012.01-.023.01-.034.01-.012.01-.023.02-.034 0-.011.01-.023.01-.034.01-.011.01-.023.02-.034 0-.011.01-.023.01-.034.01-.011.01-.022.02-.034 0-.01.01-.022.01-.034.01-.01.01-.022.02-.033 0-.012.01-.023.01-.034.01-.011.01-.023.02-.034 0-.011.01-.023.01-.034.01-.011.01-.022.02-.034 0-.011.01-.022.01-.034 0-.011.01-.022.01-.033.01-.012.01-.023.02-.034 0-.012.01-.023.01-.034.01-.012.01-.023.02-.034 0-.011.01-.023.01-.034.01-.011.01-.023.02-.034 0-.011.01-.023.01-.034.01-.011.01-.022.02-.034 0-.01.01-.022.01-.033.01-.012.01-.023.02-.034 0-.012.01-.023.01-.034.01-.011.01-.023.02-.034 0-.011.01-.023.01-.034 0-.011.01-.022.01-.034.01-.011.01-.022.02-.034 0-.011.01-.022.01-.034.01-.01.01-.022.02-.033 0-.012.01-.023.01-.034.01-.012.01-.023.02-.034 0-.011.01-.023.01-.034.01-.011.01-.023.02-.034 0-.011.01-.022.01-.034.01-.011.01-.022.02-.034 0-.01.01-.022.01-.034.01-.01.01-.022.02-.033 0-.012 0-.023.01-.034 0-.011.01-.023.01-.034.01-.011.01-.023.02-.034 0-.011.01-.023.01-.034.01-.011.01-.022.02-.034 0-.011.01-.022.01-.034.01-.01.01-.022.02-.033 0-.012.01-.023.01-.034.01-.012.01-.023.02-.034 0-.011.01-.023.01-.034.01-.011.01-.023.02-.034 0-.011.01-.023.01-.034.01-.011.01-.022.02-.034 0-.01 0-.022.01-.034 0-.01.01-.022.01-.033.01-.012.01-.023.02-.034 0-.011.01-.023.01-.034.01-.011.01-.023.02-.034 0-.011.01-.023.01-.034.01-.011.01-.022.02-.034 0-.011.01-.022.01-.034.01-.01.01-.022.02-.033 0-.012.01-.023.01-.034.01-.012.01-.023.02-.034 0-.011.01-.023.01-.034.01-.011.01-.023.02-.034 0-.011 0-.023.01-.034 0-.011.01-.022.01-.034.01-.01.01-.022.02-.033 0-.012.01-.023.01-.034.01-.012.01-.023.02-.034 0-.011.01-.023.01-.034.01-.011.01-.023.02-.034 0-.011.01-.023.01-.034.01-.011.01-.022.02-.034 0-.011.01-.022.01-.034.01-.01.01-.022.02-.033 0-.012.01-.023.01-.034.01-.012.01-.023.02-.034 0-.011 0-.023.01-.034 0-.011.01-.023.01-.034.01-.011.01-.022.02-.034 0-.011.01-.022.01-.034.01-.01.01-.022.02-.034 0-.01.01-.022.01-.033.01-.012.01-.023.02-.034 0-.011.01-.023.01-.034.01-.011.01-.023.02-.034 0-.011.01-.023.01-.034.01-.011.01-.022.02-.034 0-.011.01-.022.01-.034.01-.01.01-.022.01-.034.01-.01.01-.022.02-.033 0-.012.01-.023.01-.034.01-.011.01-.023.02-.034 0-.011.01-.023.01-.034.01-.011.01-.022.02-.034 0-.011.01-.022.01-.034.01-.01.01-.022.02-.034 0-.01.01-.022.01-.033.01-.012.01-.023.02-.034 0-.011.01-.023.01-.034.01-.011.01-.023.02-.034 0-.011.01-.023.01-.034.01-.011.01-.022.01-.034.01-.011.01-.022.02-.034 0-.01.01-.022.01-.034.01-.01.01-.022.02-.033 0-.012.01-.023.01-.034.01-.011.01-.023.02-.034 0-.011.01-.023.01-.034.01-.011.01-.023.02-.034 0-.011.01-.022.01-.034.01-.011.01-.022.02-.034 0-.01.01-.022.01-.033.01-.012.01-.023.02-.034 0-.012.01-.023.01-.034 0-.011.01-.023.01-.034.01-.011.01-.023.02-.034 0-.011.01-.022.01-.034.01-.011.01-.022.02-.034 0-.01.01-.022.01-.034.01-.01.01-.022.02-.033 0-.012.01-.023.01-.034.01-.012.01-.023.02-.034 0-.011.01-.023.01-.034.01-.011.01-.022.02-.034 0-.011.01-.022.01-.034.01-.011.01-.022.02-.034 0-.01.01-.022.01-.033 0-.012.01-.023.01-.034.01-.012.01-.023.02-.034 0-.011.01-.023.01-.034.01-.011.01-.023.02-.034 0-.011.01-.022.01-.034.01-.011.01-.022.02-.034 0-.01.01-.022.01-.033.01-.012.01-.023.02-.034 0-.012.01-.023.01-.034.01-.011.01-.023.02-.034 0-.011.01-.023.01-.034.01-.011.01-.022.02-.034 0-.011.01-.022.01-.034 0-.011.01-.022.01-.034.01-.01.01-.022.02-.033 0-.012.01-.023.01-.034.01-.012.01-.023.02-.034 0-.011.01-.023.01-.034.01-.011.01-.023.02-.034 0-.011.01-.022.01-.034.01-.011.01-.022.02-.034 0-.01.01-.022.01-.034.01-.01.01-.022.02-.033 0-.012.01-.023.01-.034.01-.011.01-.023.02-.034 0-.011.01-.023.01-.034 0-.011.01-.023.01-.034.01-.011.01-.022.02-.034 0-.011.01-.022.01-.034.01-.01.01-.022.02-.033 0-.012.01-.023.01-.034.01-.012.01-.023.02-.034 0-.011.01-.023.01-.034.01-.011.01-.023.02-.034 0-.011.01-.023.01-.034.01-.011.01-.022.02-.034 0-.01.01-.022.01-.034.01-.01.01-.022.02-.033 0-.012 0-.023.01-.034 0-.012.01-.023.01-.034.01-.011.01-.023.02-.034 0-.011.01-.022.01-.034.01-.011.01-.022.02-.034 0-.011.01-.022.01-.034.01-.01.01-.022.02-.033 0-.012.01-.023.01-.034.01-.012.01-.023.02-.034 0-.011.01-.023.01-.034.01-.011.01-.023.02-.034 0-.011.01-.022.01-.034.01-.011.01-.022.02-.034 0-.01 0-.022.01-.033 0-.012.01-.023.01-.034.01-.012.01-.023.02-.034 0-.011.01-.023.01-.034.01-.011.01-.023.02-.034 0-.011.01-.022.01-.034.01-.011.01-.022.02-.034 0-.011.01-.022.01-.034.01-.01.01-.022.02-.033 0-.012.01-.023.01-.034.01-.012.01-.023.02-.034 0-.011.01-.023.01-.034.01-.011.01-.023.02-.034 0-.011 0-.022.01-.034 0-.011.01-.022.01-.034.01-.01.01-.022.02-.034 0-.01.01-.022.01-.033.01-.012.01-.023.02-.034 0-.011.01-.023.01-.034.01-.011.01-.023.02-.034 0-.011.01-.023.01-.034.01-.011.01-.022.02-.034 0-.011.01-.022.01-.034.01-.01.01-.022.02-.033 0-.012.01-.023.01-.034.01-.012.01-.023.02-.034 0-.011 0-.023.01-.034 0-.011.01-.023.01-.034l.03-.068.03-.067.03-.068.03-.068.03-.068.03-.067.03-.068.03-.068.03-.067.03-.068.03-.068c.03-.068 0 0 .02-.068l.03-.067.03-.068.03-.068.03-.068.03-.067.03-.068.03-.068.03-.068.03-.067.03-.068.03-.068.03-.067.02-.068.03-.068.03-.068.03-.068.03-.067.03-.068.03-.068.03-.067.03-.068.03-.068.03-.068.03-.067.03-.068.02-.068.03-.068.03-.067.03-.068.03-.068.03-.068.03-.067.03-.068.03-.068.03-.067.03-.068.03-.068.03-.068c.02-.068-.01.001.02-.067l.03-.068.03-.068.03-.068.03-.067.03-.068.03-.068.03-.067.03-.068.03-.068.03-.068.03-.067.03-.068c.02-.069-.01 0 .02-.068l.03-.068.03-.067.03-.068.03-.068.03-.068.03-.067.03-.068.03-.068.03-.068.03-.067.03-.068c.03-.068 0 0 .02-.068l.03-.067.03-.068.03-.068.03-.068.03-.067.03-.068.03-.068.03-.068.03-.067.03-.068.03-.068.03-.068c.03-.068 0 .001.02-.067l.03-.068.03-.068.03-.068.03-.067.03-.068.03-.068.03-.067.03-.068.03-.068.03-.068.03-.067.03-.068.02-.068.03-.068.03-.067.03-.068.03-.068.03-.068.03-.067.03-.068.03-.068.03-.067.03-.068.03-.068.03-.068c.02-.068-.01.001.02-.067l.03-.068.03-.068.03-.068.03-.067.03-.068.03-.068.03-.067.03-.068.03-.068.03-.068.03-.067.03-.068c.02-.069-.01 0 .02-.068l-1.83-.792zm-7.49 17.355c-2.38 5.777-4.7 11.327-6.96 16.65l1.84.783a1709.56 1709.56 0 006.97-16.671l-1.85-.762zm-6.96 16.642c-2.27 5.215-4.2 9.695-5.78 13.438l1.84.782c1.58-3.737 3.51-8.21 5.77-13.422l-1.83-.798zm-4.86 12.829h-18.53v2h18.53v-2zm-17.61.609c-1.59-3.743-3.52-8.223-5.787-13.438l-1.834.798a1871.43 1871.43 0 015.781 13.422l1.84-.782zm-5.784-13.43a3631.503 3631.503 0 00-7.142-16.665l-1.836.792c2.493 5.779 4.872 11.33 7.138 16.656l1.84-.784zm-7.135-16.65a1125.7 1125.7 0 00-7.317-17.355l-1.836.792c2.491 5.775 4.925 11.55 7.303 17.325l1.85-.762zm-7.317-17.355a7567.547 7567.547 0 01-6.799-15.808l-1.838.788c2.04 4.76 4.307 10.031 6.801 15.812l1.836-.792zm-8.715-15.496a1011.608 1011.608 0 00-2.552 40.84l1.998.084c.566-13.473 1.415-27.06 2.548-40.76l-1.994-.164zm-2.552 40.84c-.567 13.49-1.02 25.961-1.361 37.412l2 .06c.339-11.442.793-23.905 1.359-37.388l-1.998-.084zM973.206 118h-25.84v2h25.84v-2zm-24.841 1.049c.453-9.292.963-19.207 1.53-29.745l-1.998-.108a6178.144 6178.144 0 00-1.53 29.755l1.998.098zm1.529-29.735c.68-10.54 1.36-21.022 2.04-31.449l-1.996-.13c-.68 10.427-1.36 20.91-2.04 31.45l1.996.13zm2.039-31.439a1624.961 1624.961 0 012.549-30.241l-1.992-.188a1630.6 1630.6 0 00-2.551 30.279l1.994.15zm2.548-30.23c1.019-9.737 2.094-18.507 3.225-26.312l-1.98-.286c-1.135 7.835-2.213 16.632-3.235 26.389l1.99.208zm2.235-25.455h25.33v-2h-25.33v2zm356.514-1h1v-1h-1v1zm0 22.61v1h1v-1h-1zm-35.53 0v-1h-1v1h1zm0 95.2v1h1v-1h-1zm-26.52 0h-1v1h1v-1zm0-95.2h1v-1h-1v1zm-35.53 0h-1v1h1v-1zm0-22.61v-1h-1v1h1zm96.58 0V23.8h2V1.19h-2zm1 21.61h-35.53v2h35.53v-2zm-36.53 1V119h2V23.8h-2zm1 94.2h-26.52v2h26.52v-2zm-25.52 1V23.8h-2V119h2zm-1-96.2h-35.53v2h35.53v-2zm-34.53 1V1.19h-2V23.8h2zm-1-21.61h97.58v-2h-97.58v2zM1330.28 119h-1v1h1v-1zm0-117.81v-1h-1v1h1zm79.56 0h1v-1h-1v1zm0 22.27v1h1v-1h-1zm-53.04 0v-1h-1v1h1zm0 23.12h-1v1h1v-1zm47.09 0h1v-1h-1v1zm0 21.76v1h1v-1h-1zm-47.09 0v-1h-1v1h1zm0 28.39h-1v1h1v-1zm56.95 0h1v-1h-1v1zm0 22.27v1h1v-1h-1zm-82.47 0V1.19h-2V119h2zm-1-116.81h79.56v-2h-79.56v2zm78.56-1v22.27h2V1.19h-2zm1 21.27h-53.04v2h53.04v-2zm-54.04 1v23.12h2V23.46h-2zm1 24.12h47.09v-2h-47.09v2zm46.09-1v21.76h2V46.58h-2zm1 20.76h-47.09v2h47.09v-2zm-48.09 1v28.39h2V68.34h-2zm1 29.39h56.95v-2h-56.95v2zm55.95-1V119h2V96.73h-2zm1 21.27h-83.47v2h83.47v-2zm98.5 1l-.95.292.21.708h.74v-1zm-4.25-12.58l-.94.324v.011l.01.011.93-.346zm-4.42-12.92l.95-.324-.23-.676h-.72v1zm-45.9 0v-1h-.71l-.23.676.94.324zm-4.59 12.92l-.93-.346-.01.011v.011l.94.324zm-4.08 12.58v1h.74l.22-.708-.96-.292zm-27.54 0l-.94-.329-.46 1.329h1.4v-1zm12.58-35.19l.94.346-.94-.346zm11.56-30.43l-.92-.375-.01.01.93.365zm11.22-27.03l-.91-.398-.01.006.92.392zm11.56-25.16v-1h-.62l-.28.563.9.437zm25.33 0l.91-.427-.27-.573h-.64v1zm11.39 25.16l-.91.398v.005l.91-.403zm11.22 27.03l-.93.366.01.01.92-.376zm11.73 30.43l-.93.346.93-.346zm12.58 35.19v1h1.41l-.46-1.329-.95.329zm-60.18-91.12l.93-.371-1.01-2.535-.87 2.59.95.316zm-2.55 6.97l-.93-.359.93.359zm-3.91 10.2l-.93-.357.93.357zm-4.93 12.75l-.93-.363v.01l-.01.01.94.343zm-5.27 14.62l-.94-.335-.47 1.335h1.41v-1zm33.49 0v1h1.42l-.47-1.335-.95.335zm-5.27-14.62l-.94.344.94-.344zm-4.93-12.75l-.93.357v.012l.01.012.92-.381zm-3.91-10.2l.94-.359-.94.359zm30.03 83.858c-1.25-4.1-2.68-8.311-4.27-12.634l-1.87.692c1.58 4.29 2.99 8.466 4.23 12.526l1.91-.584zm-4.26-12.612l-.07-.202-.07-.201-.07-.202-.07-.202-.07-.202c-.03-.089-.03-.113-.06-.202-.04-.089-.04-.113-.07-.202l-.07-.202-.07-.202-.07-.201c-.01-.018-.01-.033-.02-.051 0-.017-.01-.033-.02-.05v-.026c-.01-.008-.01-.016-.01-.025-.01-.017-.01-.033-.02-.05-.02-.066-.05-.136-.07-.202-.02-.066-.05-.136-.07-.202-.02-.066-.04-.136-.07-.202-.02-.066-.04-.136-.07-.202a1.672 1.672 0 00-.07-.202c-.02-.08-.04-.121-.06-.202a.106.106 0 01-.02-.05c-.01-.015-.01-.036-.02-.051a.11.11 0 00-.02-.05c0-.014-.01-.036-.01-.05a.109.109 0 01-.02-.051c-.01-.014-.01-.036-.02-.05a.109.109 0 00-.02-.051c0-.014-.01-.036-.01-.05-.01-.015-.01-.036-.02-.051a.106.106 0 00-.02-.05c0-.015-.01-.036-.01-.051a.106.106 0 01-.02-.05c-.01-.015-.01-.036-.02-.051a.106.106 0 00-.02-.05c0-.015-.01-.036-.01-.051a.106.106 0 01-.02-.05c-.01-.015-.01-.036-.02-.051a.11.11 0 00-.02-.05c0-.015-.01-.036-.01-.05-.01-.015-.01-.036-.02-.051a.106.106 0 00-.02-.05c0-.015-.01-.036-.01-.051a.106.106 0 01-.02-.05c-.01-.015-.01-.036-.02-.051a.106.106 0 00-.02-.05c0-.015-.01-.036-.01-.051a.106.106 0 01-.02-.05c-.01-.015-.01-.036-.02-.051a.106.106 0 00-.02-.05c0-.015-.01-.036-.01-.051-.01-.014-.01-.036-.02-.05a.109.109 0 00-.02-.051c0-.014-.01-.036-.01-.05a.11.11 0 01-.02-.05c-.01-.015-.01-.036-.02-.051a.106.106 0 00-.02-.05c0-.015-.01-.036-.01-.051a.106.106 0 01-.02-.05c-.01-.015-.01-.036-.02-.051a.106.106 0 00-.02-.05c0-.015-.01-.036-.01-.051-.01-.014-.01-.036-.02-.05a.109.109 0 00-.02-.051c0-.014-.01-.036-.01-.05a.109.109 0 01-.02-.051c-.01-.014-.01-.036-.02-.05a.109.109 0 00-.02-.051c0-.014-.01-.036-.01-.05a.109.109 0 01-.02-.051c-.01-.014-.01-.035-.02-.05 0-.015-.01-.036-.01-.05a.109.109 0 01-.02-.051c-.01-.014-.01-.036-.02-.05a.107.107 0 00-.02-.05c0-.015-.01-.037-.01-.051a.108.108 0 01-.02-.05c-.01-.015-.01-.037-.02-.051a.108.108 0 00-.02-.05c0-.015-.01-.037-.01-.051a.107.107 0 01-.02-.05c-.2-.584-.35-1.032-.55-1.616-.2-.583-.36-1.031-.56-1.615-.2-.583-.35-1.031-.55-1.615-.2-.583-.35-1.031-.55-1.615l-1.89.648c0 .014.01.036.01.05a.11.11 0 01.02.05c.01.015.01.037.02.051 0 .015.01.036.02.05 0 .015.01.036.01.051a.11.11 0 01.02.05c.01.015.01.036.02.051 0 .014.01.036.02.05 0 .015.01.036.01.05.01.015.01.037.02.051 0 .015.01.036.02.05 0 .015.01.037.01.051a.11.11 0 01.02.05c.01.015.01.037.02.051 0 .015.01.036.02.05 0 .015.01.037.01.051a.11.11 0 01.02.05c.01.015.01.037.02.051 0 .015.01.036.02.05 0 .015.01.037.01.051.01.015.01.036.02.05 0 .015.01.037.02.051 0 .014.01.036.01.05a.11.11 0 01.02.05c.01.015.01.037.02.051 0 .015.01.036.02.05 0 .015.01.037.01.051a.11.11 0 01.02.05c.01.015.01.037.02.051 0 .015.01.036.02.05 0 .015.01.037.01.051.01.015.01.036.02.05 0 .015.01.037.02.051 0 .015.01.036.01.05.01.015.02.037.02.051.01.015.01.036.02.05 0 .015.01.037.02.051 0 .015.01.036.01.05.01.015.02.037.02.051.01.014.01.036.02.05 0 .015.01.036.02.05 0 .015.01.037.01.051.01.015.01.036.02.05 0 .015.01.037.02.051 0 .015.01.036.01.05.01.015.02.037.02.051.01.015.01.036.02.05 0 .015.01.037.02.051 0 .015.01.036.01.05.01.015.02.037.02.051.01.015.01.036.02.05 0 .015.01.036.02.051 0 .015.01.036.01.05.01.015.01.036.02.051 0 .014.01.036.02.05 0 .015.01.036.01.05.01.016.02.037.02.051.01.015.01.036.02.05 0 .015.01.037.02.051 0 .015.01.036.01.05.01.015.02.037.02.051.01.015.01.036.02.05 0 .015.01.037.01.051a.11.11 0 01.02.05c.01.015.01.037.02.051 0 .015.01.036.02.05 0 .015.01.037.01.051a.11.11 0 01.02.05c.01.015.01.037.02.051 0 .015.01.036.02.05 0 .015.01.036.01.051.01.014.02.036.02.05.01.015.01.036.02.05 0 .015.01.037.01.051a.11.11 0 01.02.05c.01.015.01.037.02.051 0 .015.01.036.02.05 0 .015.01.037.01.051a.11.11 0 01.02.05c.01.015.01.037.02.051 0 .015.01.036.02.05 0 .015.01.037.01.051a.11.11 0 01.02.05c.01.015.01.037.02.051 0 .015.01.036.01.05.01.015.02.037.02.051.01.014.01.036.02.05 0 .015.01.036.02.05 0 .016.01.037.01.051a.11.11 0 01.02.05c.01.015.01.037.02.051 0 .015.01.036.02.05 0 .015.01.037.01.051a.11.11 0 01.02.05c.01.015.01.037.02.051 0 .015.01.036.01.05.01.015.02.037.02.051.01.015.01.036.02.05 0 .015.01.037.02.051 0 .015.01.036.01.05.01.015.02.036.02.051.01.014.01.036.02.05 0 .015.01.036.02.051 0 .014.01.036.01.05a.11.11 0 01.02.05c.01.015.01.037.02.051 0 .015.01.036.01.05.01.015.02.037.02.051.01.015.01.036.02.05 0 .015.01.037.02.051 0 .015.01.036.01.05.01.015.02.037.02.051.01.015.01.036.02.05 0 .015.01.037.02.051 0 .015.01.036.01.05.01.015.02.037.02.051.01.015.01.036.02.05 0 .015.01.037.01.051.01.014.02.036.02.05.01.015.01.036.02.05 0 .015.01.037.02.051 0 .015.01.036.01.05.01.015.02.037.02.051.01.015.01.036.02.051 0 .014.01.036.02.05 0 .015.01.036.01.051.01.014.02.036.02.05 0 .015.01.036.02.051.2.583.35 1.031.55 1.615l.55 1.615.55 1.615c.2.557.37 1.058.56 1.615l1.89-.648zm-5.37-13.596h-45.9v2h45.9v-2zm-46.84.676c-1.47 4.3-3 8.599-4.58 12.898l1.87.692c1.59-4.314 3.12-8.628 4.6-12.942l-1.89-.648zm-4.59 12.92a393.016 393.016 0 00-4.09 12.612l1.91.584c1.24-4.069 2.6-8.251 4.07-12.548l-1.89-.648zM1449.01 118h-27.54v2h27.54v-2zm-26.59 1.329a2149.67 2149.67 0 0112.57-35.173l-1.87-.692a2073.217 2073.217 0 00-12.59 35.207l1.89.658zm12.57-35.173c3.97-10.761 7.82-20.898 11.55-30.41l-1.86-.732a1498.15 1498.15 0 00-11.56 30.45l1.87.692zm11.55-30.4c3.85-9.516 7.59-18.52 11.21-27.014l-1.84-.784c-3.63 8.506-7.37 17.522-11.22 27.047l1.85.75zm11.21-27.008a654.19 654.19 0 0111.54-25.12l-1.8-.875a644.074 644.074 0 00-11.57 25.199l1.83.796zm10.64-24.558h25.33v-2h-25.33v2zm24.43-.573c3.85 8.15 7.64 16.527 11.38 25.131l1.83-.796a860.846 860.846 0 00-11.4-25.189l-1.81.854zm11.38 25.136a726.353 726.353 0 0111.2 26.993l1.86-.732a733.53 733.53 0 00-11.23-27.067l-1.83.806zm11.21 27.002c3.85 9.51 7.75 19.643 11.72 30.4l1.87-.69c-3.97-10.776-7.88-20.93-11.74-30.46l-1.85.75zm11.72 30.4c3.96 10.76 8.15 22.485 12.57 35.174l1.89-.658A2073.217 2073.217 0 001529 83.464l-1.87.692zM1540.64 118h-28.39v2h28.39v-2zm-61.13-90.436c-.55 1.679-1.4 3.986-2.53 6.927l1.87.718c1.13-2.952 1.99-5.292 2.56-7.013l-1.9-.632zm-2.53 6.927c-1.13 2.947-2.44 6.348-3.91 10.202l1.87.714c1.47-3.853 2.77-7.252 3.91-10.198l-1.87-.718zm-3.91 10.202c-1.47 3.85-3.12 8.099-4.93 12.744l1.87.727c1.81-4.649 3.45-8.901 4.93-12.757l-1.87-.714zm-4.94 12.763c-1.7 4.65-3.45 9.526-5.27 14.629l1.89.67c1.81-5.097 3.56-9.968 5.26-14.611l-1.88-.688zm-4.33 15.964h33.49v-2h-33.49v2zm34.44-1.335a1969.58 1969.58 0 00-5.28-14.629l-1.88.688c1.7 4.643 3.46 9.514 5.27 14.611l1.89-.67zm-5.28-14.629c-1.7-4.657-3.35-8.92-4.94-12.787l-1.85.762c1.58 3.839 3.22 8.076 4.91 12.713l1.88-.688zm-4.93-12.763c-1.48-3.854-2.78-7.255-3.91-10.202l-1.87.718c1.13 2.946 2.44 6.345 3.91 10.198l1.87-.714zm-3.91-10.202a768.469 768.469 0 00-2.73-6.982l-1.86.742c.68 1.694 1.59 4.013 2.72 6.958l1.87-.718zM1587.17 1.19l.88-.479-.28-.521h-.6v1zm6.97 13.94l-.9.425v.011l.01.011.89-.447zm8.33 17.85l-.91.402v.01l.01.01.9-.422zm8.67 19.55l.92-.39-.92.39zm7.99 18.87l-.92.39.92 2.176.92-2.176-.92-.39zm7.99-18.87l-.92-.39.92.39zm8.5-19.55l-.91-.415v.007l.91.408zm8.33-17.85l-.9-.44v.008l.9.432zm7.14-13.94v-1h-.59l-.28.521.87.479zm24.14 0l.99-.143-.12-.857h-.87v1zm3.06 26.35l-.99.093v.012l.99-.105zm2.55 30.26l-1 .064.01.012.99-.076zm2.04 31.45l-1 .054.01.01.99-.064zm1.7 29.75v1h1.05l-.05-1.049-1 .049zm-25.84 0l-1 .03.03.97h.97v-1zm-1.36-37.4l1-.042-1 .042zm-2.55-40.8l1-.082-1.92-.312.92.394zm-6.8 15.81l-.92-.396.92.396zm-7.48 17.34l-.92-.396v.015l.92.381zm-6.97 16.66l.92.399v-.007l-.92-.392zm-5.78 13.43v1h.66l.26-.609-.92-.391zm-18.53 0l-.92.391.26.609h.66v-1zm-5.78-13.43l-.92.392.01.007.91-.399zm-7.14-16.66l-.92.38v.016l.92-.396zm-7.31-17.34l-.92.396.92-.396zm-6.8-15.81l.92-.394-1.91.312.99.082zm-2.55 40.8l1 .042-1-.042zm-1.36 37.4v1h.97l.03-.97-1-.03zm-25.84 0l-1-.049-.05 1.049h1.05v-1zm1.53-29.75l-.99-.064-.01.01 1 .054zm2.04-31.45l-.99-.075v.01l.99.065zm2.55-30.26l-.99-.104v.01l.99.094zm3.23-26.35v-1h-.86l-.13.857.99.143zm24.46.479c2.02 3.716 4.34 8.344 6.94 13.886l1.81-.85c-2.61-5.564-4.95-10.23-7-13.994l-1.75.958zm6.95 13.908c2.71 5.423 5.48 11.358 8.31 17.805l1.83-.804c-2.84-6.473-5.62-12.438-8.35-17.895l-1.79.894zm8.32 17.824a636.984 636.984 0 018.65 19.52l1.84-.781a618.575 618.575 0 00-8.68-19.581l-1.81.842zm8.65 19.52c2.84 6.686 5.5 12.976 7.99 18.869l1.84-.78c-2.49-5.893-5.15-12.183-7.99-18.87l-1.84.78zm9.83 18.869c2.5-5.894 5.16-12.183 7.99-18.87l-1.84-.78c-2.83 6.687-5.49 12.977-7.99 18.87l1.84.78zm7.99-18.87c2.83-6.68 5.67-13.192 8.5-19.532l-1.83-.816a1121.12 1121.12 0 00-8.51 19.568l1.84.78zm8.49-19.525c2.95-6.455 5.72-12.4 8.32-17.833l-1.8-.864c-2.61 5.446-5.39 11.402-8.34 17.867l1.82.83zm8.32-17.825c2.72-5.546 5.09-10.178 7.12-13.901l-1.75-.958c-2.05 3.757-4.44 8.418-7.17 13.98l1.8.879zm6.24-13.38h24.14v-2h-24.14v2zm23.15-.857c1.13 7.8 2.15 16.566 3.06 26.3l1.99-.186c-.91-9.76-1.93-18.56-3.07-26.4l-1.98.286zm3.06 26.312c1.02 9.619 1.87 19.692 2.55 30.22l1.99-.13c-.68-10.552-1.53-20.652-2.55-30.3l-1.99.21zm2.55 30.23c.79 10.42 1.47 20.896 2.03 31.429l2-.108a1461.58 1461.58 0 00-2.04-31.472l-1.99.152zm2.04 31.44c.67 10.535 1.24 20.446 1.69 29.734l2-.098c-.45-9.299-1.02-19.22-1.7-29.765l-1.99.128zm2.69 28.685h-25.84v2h25.84v-2zm-24.84.97a2994.05 2994.05 0 00-1.36-37.412l-2 .084c.57 13.483 1.02 25.946 1.36 37.388l2-.06zm-1.36-37.412c-.57-13.5-1.42-27.114-2.55-40.84l-1.99.164c1.13 13.7 1.98 27.287 2.54 40.76l2-.084zm-4.47-41.152c-2.04 4.76-4.3 10.029-6.8 15.808l1.84.792c2.49-5.78 4.76-11.051 6.8-15.812l-1.84-.788zm-6.8 15.808c0 .011-.01.023-.01.034 0 .011-.01.022-.01.034-.01.01-.01.022-.02.034 0 .01-.01.022-.01.033-.01.012-.01.023-.02.034 0 .011-.01.023-.01.034-.01.011-.01.023-.02.034 0 .011-.01.023-.01.034-.01.011-.01.022-.02.034 0 .011-.01.022-.01.034-.01.01-.01.022-.02.033 0 .012-.01.023-.01.034-.01.012-.01.023-.02.034 0 .011 0 .023-.01.034 0 .011-.01.023-.01.034-.01.011-.01.023-.02.034 0 .011-.01.022-.01.034-.01.01-.01.022-.02.034 0 .01-.01.022-.01.033-.01.012-.01.023-.02.034 0 .012-.01.023-.01.034-.01.011-.01.023-.02.034 0 .011-.01.023-.01.034-.01.011-.01.022-.02.034 0 .011-.01.022-.01.034-.01.01-.01.022-.02.033 0 .012 0 .023-.01.034 0 .012-.01.023-.01.034-.01.011-.01.023-.02.034 0 .011-.01.023-.01.034-.01.011-.01.023-.02.034 0 .011-.01.022-.01.034-.01.01-.01.022-.02.033 0 .012-.01.023-.01.034-.01.012-.01.023-.02.034 0 .011-.01.023-.01.034-.01.011-.01.023-.02.034 0 .011-.01.023-.01.034-.01.011-.01.022-.01.034-.01.011-.01.022-.02.034 0 .01-.01.022-.01.033-.01.012-.01.023-.02.034 0 .012-.01.023-.01.034-.01.011-.01.023-.02.034 0 .011-.01.023-.01.034-.01.011-.01.023-.02.034 0 .011-.01.022-.01.034-.01.011-.01.022-.02.034 0 .01-.01.022-.01.033-.01.012-.01.023-.02.034 0 .012-.01.023-.01.034-.01.011-.01.023-.01.034-.01.011-.01.023-.02.034 0 .011-.01.022-.01.034-.01.011-.01.022-.02.034 0 .01-.01.022-.01.034-.01.01-.01.022-.02.033 0 .012-.01.023-.01.034-.01.012-.01.023-.02.034 0 .011-.01.023-.01.034-.01.011-.01.023-.02.034 0 .011-.01.022-.01.034-.01.011-.01.022-.02.033 0 .012-.01.023-.01.034-.01.012-.01.023-.01.034-.01.012-.01.023-.02.034 0 .011-.01.023-.01.034-.01.011-.01.023-.02.034 0 .011-.01.022-.01.034-.01.011-.01.022-.02.034 0 .01-.01.022-.01.033-.01.012-.01.023-.02.034 0 .012-.01.023-.01.034-.01.011-.01.023-.02.034 0 .011-.01.023-.01.034-.01.011-.01.023-.02.034 0 .011-.01.022-.01.034-.01.011-.01.022-.01.033-.01.012-.01.023-.02.034 0 .012-.01.023-.01.034-.01.012-.01.023-.02.034 0 .011-.01.023-.01.034-.01.011-.01.023-.02.034 0 .011-.01.023-.01.034-.01.011-.01.022-.02.034 0 .01-.01.022-.01.033-.01.012-.01.023-.02.034 0 .012-.01.023-.01.034-.01.011-.01.023-.02.034 0 .011-.01.023-.01.034 0 .011-.01.023-.01.034-.01.011-.01.022-.02.034 0 .011-.01.022-.01.034-.01.01-.01.022-.02.033 0 .012-.01.023-.01.034-.01.012-.01.023-.02.034 0 .011-.01.023-.01.034-.01.011-.01.023-.02.034 0 .011-.01.023-.01.034-.01.011-.01.022-.02.034 0 .01-.01.022-.01.034-.01.01-.01.022-.02.033 0 .012-.01.023-.01.034 0 .012-.01.023-.01.034-.01.011-.01.023-.02.034 0 .011-.01.022-.01.034-.01.011-.01.022-.02.034 0 .011-.01.022-.01.034-.01.01-.01.022-.02.033 0 .012-.01.023-.01.034-.01.012-.01.023-.02.034 0 .011-.01.023-.01.034-.01.011-.01.023-.02.034 0 .011-.01.023-.01.034-.01.011-.01.022-.02.034 0 .01-.01.022-.01.033 0 .012-.01.023-.01.034-.01.012-.01.023-.02.034 0 .011-.01.023-.01.034-.01.011-.01.023-.02.034 0 .011-.01.023-.01.034-.01.011-.01.022-.02.034 0 .011-.01.022-.01.034-.01.01-.01.022-.02.033 0 .012-.01.023-.01.034-.01.012-.01.023-.02.034 0 .011-.01.023-.01.034-.01.011-.01.023-.02.034 0 .011-.01.023-.01.034 0 .011-.01.022-.01.034-.01.01-.01.022-.02.034 0 .01-.01.022-.01.033-.01.012-.01.023-.02.034 0 .011-.01.023-.01.034-.01.011-.01.023-.02.034 0 .011-.01.023-.01.034-.01.011-.01.022-.02.034 0 .011-.01.022-.01.034-.01.01-.01.022-.02.033 0 .012-.01.023-.01.034-.01.012-.01.023-.02.034 0 .012 0 .023-.01.034 0 .011-.01.023-.01.034-.01.011-.01.023-.02.034 0 .011-.01.022-.01.034-.01.01-.01.022-.02.033 0 .012-.01.023-.01.034-.01.012-.01.023-.02.034 0 .011-.01.023-.01.034-.01.011-.01.023-.02.034 0 .011-.01.023-.01.034-.01.011-.01.022-.02.034 0 .011-.01.022-.01.034-.01.01-.01.022-.02.033 0 .012 0 .023-.01.034 0 .012-.01.023-.01.034-.01.011-.01.023-.02.034 0 .011-.01.023-.01.034-.01.011-.01.023-.02.034 0 .011-.01.022-.01.034-.01.01-.01.022-.02.033 0 .012-.01.023-.01.034-.01.012-.01.023-.02.034 0 .011-.01.023-.01.034-.01.011-.01.023-.02.034 0 .011-.01.023-.01.034-.01.011-.01.022-.01.034-.01.011-.01.022-.02.034 0 .01-.01.022-.01.033-.01.012-.01.023-.02.034 0 .012-.01.023-.01.034-.01.011-.01.023-.02.034 0 .011-.01.023-.01.034-.01.011-.01.023-.02.034 0 .011-.01.022-.01.034-.01.011-.01.022-.02.034 0 .01-.01.022-.01.033-.01.012-.01.023-.02.034 0 .012-.01.023-.01.034-.01.011-.01.023-.01.034-.01.011-.01.023-.02.034 0 .011-.01.022-.01.034-.01.011-.01.022-.02.034 0 .01-.01.022-.01.034-.01.01-.01.022-.02.033 0 .012-.01.023-.01.034-.01.012-.01.023-.02.034 0 .011-.01.023-.01.034-.01.011-.01.022-.02.034 0 .011-.01.022-.01.034-.01.011-.01.022-.02.033 0 .012-.01.023-.01.034-.01.012-.01.023-.01.034-.01.012-.01.023-.02.034 0 .011-.01.023-.01.034-.01.011-.01.023-.02.034 0 .011-.01.023-.01.034-.01.011-.01.022-.02.034 0 .01-.01.022-.01.033-.01.012-.01.023-.02.034 0 .012-.01.023-.01.034-.01.011-.01.023-.02.034 0 .011-.01.023-.01.034-.01.011-.01.023-.02.034 0 .011-.01.022-.01.034-.01.011-.01.022-.01.034-.01.01-.01.022-.02.033 0 .012-.01.023-.01.034-.01.012-.01.023-.02.034 0 .011-.01.023-.01.034-.01.011-.01.023-.02.034 0 .011-.01.023-.01.034-.01.011-.01.022-.02.034 0 .01-.01.022-.01.034-.01.01-.01.022-.02.033 0 .012-.01.023-.01.034-.01.011-.01.023-.02.034 0 .011-.01.023-.01.034 0 .011-.01.023-.01.034-.01.011-.01.022-.02.034 0 .011-.01.022-.01.034-.01.01-.01.022-.02.033 0 .012-.01.023-.01.034-.01.012-.01.023-.02.034 0 .011-.01.023-.01.034-.01.011-.01.023-.02.034 0 .011-.01.023-.01.034-.01.011-.01.022-.02.034 0 .01-.01.022-.01.033-.01.012-.01.023-.02.034 0 .012-.01.023-.01.034 0 .011-.01.023-.01.034-.01.011-.01.023-.02.034 0 .011-.01.022-.01.034-.01.011-.01.022-.02.034 0 .011-.01.022-.01.034-.01.01-.01.022-.02.033 0 .012-.01.023-.01.034-.01.012-.01.023-.02.034 0 .011-.01.023-.01.034-.01.011-.01.023-.02.034 0 .011-.01.022-.01.034-.01.011-.01.022-.02.034 0 .01-.01.022-.01.034 0 .01-.01.022-.01.033-.01.012-.01.023-.02.034 0 .011-.01.023-.01.034-.01.011-.01.023-.02.034 0 .011-.01.022-.01.034-.01.011-.01.022-.02.034 0 .011-.01.022-.01.034-.01.01-.01.022-.02.033 0 .012-.01.023-.01.034-.01.012-.01.023-.02.034 0 .011-.01.023-.01.034-.01.011-.01.023-.02.034-.02.068.01 0-.02.068l-.03.067-.03.068-.03.068-.03.068-.03.067-.03.068-.03.068-.03.067-.03.068-.03.068-.03.068-.03.067c-.02.069.01 0-.02.068l-.03.068-.03.068-.03.067-.03.068-.03.068-.03.068-.03.067-.03.068-.03.068-.03.068-.03.067c-.03.069 0 0-.02.068l-.03.068-.03.068-.03.067-.03.068-.03.068-.03.067-.03.068-.03.068-.03.068-.03.067-.03.068-.03.068c-.03.068 0 0-.02.067l-.03.068-.03.068-.03.068-.03.067-.03.068-.03.068-.03.068-.03.067-.03.068-.03.068-.03.068-.03.067-.02.068-.03.068-.03.068-.03.067-.03.068-.03.068-.03.067-.03.068-.03.068-.03.068-.03.067-.03.068-.03.068c-.02.068.01 0-.02.068l-.03.067-.03.068-.03.068-.03.068-.03.067-.03.068-.03.068-.03.068-.03.067-.03.068-.03.068-.03.067c-.02.069.01 0-.02.068l-.03.068-.03.068-.03.067-.03.068-.03.068-.03.068-.03.067-.03.068-.03.068-.03.067-.03.068c-.03.069 0 0-.02.068l-.03.068-.03.067-.03.068-.03.068-.03.068-.03.067-.03.068-.03.068-.03.068-.03.067-.03.068-.03.068c-.03.068 0 0-.02.067l-.03.068-.03.068-.03.068-.03.068-.03.067-.03.068-.03.068-.03.067-.03.068-.03.068-.03.068-.03.067-.02.068-.03.068-.03.068-.03.067-.03.068-.03.068-.03.067-.03.068-.03.068-.03.068-.03.067-.03.068-.03.068 1.84.792c.01-.011.01-.023.02-.034 0-.011.01-.022.01-.034.01-.01.01-.022.02-.034 0-.01 0-.022.01-.033 0-.012.01-.023.01-.034.01-.012.01-.023.02-.034 0-.011.01-.023.01-.034.01-.011.01-.023.02-.034 0-.011.01-.022.01-.034.01-.011.01-.022.02-.034 0-.01.01-.022.01-.034.01-.01.01-.022.02-.033 0-.012.01-.023.01-.034.01-.012.01-.023.02-.034 0-.011.01-.023.01-.034.01-.011.01-.022.01-.034.01-.011.01-.022.02-.034 0-.01.01-.022.01-.033.01-.012.01-.023.02-.034 0-.012.01-.023.01-.034.01-.011.01-.023.02-.034 0-.011.01-.023.01-.034.01-.011.01-.023.02-.034 0-.011.01-.022.01-.034.01-.011.01-.022.02-.034 0-.01.01-.022.01-.033.01-.012.01-.023.02-.034 0-.012.01-.023.01-.034.01-.011.01-.023.01-.034.01-.011.01-.023.02-.034 0-.011.01-.022.01-.034.01-.011.01-.022.02-.034 0-.01.01-.022.01-.034.01-.01.01-.022.02-.033 0-.012.01-.023.01-.034.01-.012.01-.023.02-.034 0-.011.01-.023.01-.034.01-.011.01-.023.02-.034 0-.011.01-.022.01-.034.01-.011.01-.022.02-.034 0-.01.01-.022.01-.034.01-.01.01-.022.01-.033.01-.012.01-.023.02-.034 0-.011.01-.023.01-.034.01-.011.01-.023.02-.034 0-.011.01-.023.01-.034.01-.011.01-.022.02-.034 0-.011.01-.022.01-.034.01-.01.01-.022.02-.033 0-.012.01-.023.01-.034.01-.012.01-.023.02-.034 0-.011.01-.023.01-.034.01-.011.01-.023.02-.034 0-.011.01-.023.01-.034.01-.011.01-.022.01-.034.01-.01.01-.022.02-.034 0-.01.01-.022.01-.033.01-.012.01-.023.02-.034 0-.011.01-.023.01-.034.01-.011.01-.023.02-.034 0-.011.01-.022.01-.034.01-.011.01-.022.02-.034 0-.011.01-.022.01-.033.01-.012.01-.023.02-.034 0-.012.01-.023.01-.034.01-.012.01-.023.02-.034 0-.011.01-.023.01-.034 0-.011.01-.023.01-.034.01-.011.01-.023.02-.034 0-.011.01-.022.01-.034.01-.01.01-.022.02-.033 0-.012.01-.023.01-.034.01-.012.01-.023.02-.034 0-.011.01-.023.01-.034.01-.011.01-.023.02-.034 0-.011.01-.022.01-.034.01-.011.01-.022.02-.034 0-.011.01-.022.01-.034.01-.01.01-.022.02-.033 0-.012.01-.023.01-.034 0-.012.01-.023.01-.034.01-.011.01-.023.02-.034 0-.011.01-.023.01-.034.01-.011.01-.022.02-.034 0-.011.01-.022.01-.034.01-.01.01-.022.02-.034 0-.01.01-.022.01-.033.01-.012.01-.023.02-.034 0-.011.01-.023.01-.034.01-.011.01-.023.02-.034 0-.011.01-.023.01-.034.01-.011.01-.022.02-.034 0-.011 0-.022.01-.034 0-.01.01-.022.01-.033.01-.012.01-.023.02-.034 0-.012.01-.023.01-.034.01-.011.01-.023.02-.034 0-.011.01-.023.01-.034.01-.011.01-.023.02-.034 0-.011.01-.022.01-.034.01-.01.01-.022.02-.034 0-.01.01-.022.01-.033.01-.012.01-.023.02-.034 0-.011.01-.023.01-.034.01-.011.01-.023.02-.034 0-.011 0-.023.01-.034 0-.011.01-.022.01-.034.01-.011.01-.022.02-.034 0-.01.01-.022.01-.033.01-.012.01-.023.02-.034 0-.012.01-.023.01-.034.01-.011.01-.023.02-.034 0-.011.01-.023.01-.034.01-.011.01-.023.02-.034 0-.011.01-.022.01-.034.01-.01.01-.022.02-.033 0-.012.01-.023.01-.034.01-.012.01-.023.02-.034 0-.011 0-.023.01-.034 0-.011.01-.023.01-.034.01-.011.01-.023.02-.034 0-.011.01-.022.01-.034.01-.011.01-.022.02-.034 0-.01.01-.022.01-.033.01-.012.01-.023.02-.034 0-.012.01-.023.01-.034.01-.011.01-.023.02-.034 0-.011.01-.023.01-.034.01-.011.01-.022.02-.034 0-.011.01-.022.01-.034.01-.01.01-.022.02-.034 0-.01 0-.022.01-.033 0-.012.01-.023.01-.034.01-.011.01-.023.02-.034 0-.011.01-.023.01-.034.01-.011.01-.023.02-.034 0-.011.01-.022.01-.034.01-.011.01-.022.02-.034 0-.01.01-.022.01-.034.01-.01.01-.022.02-.033 0-.012.01-.023.01-.034.01-.011.01-.023.02-.034 0-.011.01-.023.01-.034.01-.011.01-.022.01-.034.01-.011.01-.022.02-.034 0-.01.01-.022.01-.034.01-.01.01-.022.02-.033 0-.012.01-.023.01-.034.01-.011.01-.023.02-.034 0-.011.01-.023.01-.034.01-.011.01-.023.02-.034 0-.011.01-.022.01-.034.01-.011.01-.022.02-.034 0-.01.01-.022.01-.034.01-.01.01-.022.02-.033 0-.012.01-.023.01-.034.01-.011.01-.023.01-.034.01-.011.01-.023.02-.034 0-.011.01-.023.01-.034.01-.011.01-.022.02-.034 0-.011.01-.022.01-.034.01-.01.01-.022.02-.033 0-.012.01-.023.01-.034.01-.012.01-.023.02-.034 0-.011.01-.023.01-.034.01-.011.01-.023.02-.034 0-.011.01-.022.01-.034.01-.011.01-.022.02-.034 0-.01.01-.022.01-.034.01-.01.01-.022.01-.033.01-.012.01-.023.02-.034 0-.012.01-.023.01-.034.01-.011.01-.023.02-.034 0-.011.01-.022.01-.034.01-.011.01-.022.02-.034 0-.011.01-.022.01-.034.01-.01.01-.022.02-.033 0-.012.01-.023.01-.034.01-.012.01-.023.02-.034 0-.011.01-.023.01-.034.01-.011.01-.023.02-.034 0-.011.01-.022.01-.034.01-.011.01-.022.01-.034.01-.01.01-.022.02-.033 0-.012.01-.023.01-.034.01-.012.01-.023.02-.034 0-.011.01-.023.01-.034.01-.011.01-.023.02-.034 0-.011.01-.022.01-.034.01-.011.01-.022.02-.034 0-.011.01-.022.01-.034.01-.01.01-.022.02-.033 0-.012.01-.023.01-.034.01-.012.01-.023.02-.034 0-.011.01-.023.01-.034 0-.011.01-.023.01-.034.01-.011.01-.022.02-.034 0-.011.01-.022.01-.034.01-.01.01-.022.02-.034 0-.01.01-.022.01-.033.01-.012.01-.023.02-.034 0-.011.01-.023.01-.034.01-.011.01-.023.02-.034 0-.011.01-.023.01-.034.01-.011.01-.022.02-.034 0-.011.01-.022.01-.034.01-.01.01-.022.02-.033 0-.012.01-.023.01-.034 0-.012.01-.023.01-.034.01-.011.01-.023.02-.034 0-.011.01-.023.01-.034.01-.011.01-.023.02-.034 0-.011.01-.022.01-.034.01-.01.01-.022.02-.034 0-.01.01-.022.01-.033.01-.012.01-.023.02-.034 0-.012.01-.023.01-.034.01-.011.01-.023.02-.034 0-.011.01-.022.01-.034.01-.011.01-.022.02-.034 0-.011 0-.022.01-.034 0-.01.01-.022.01-.033.01-.012.01-.023.02-.034 0-.012.01-.023.01-.034.01-.011.01-.023.02-.034 0-.011.01-.023.01-.034.01-.011.01-.022.02-.034 0-.011.01-.022.01-.034.01-.01.01-.022.02-.033 0-.012.01-.023.01-.034.01-.012.01-.023.02-.034 0-.011.01-.023.01-.034.01-.011.01-.023.02-.034 0-.011 0-.022.01-.034 0-.011.01-.022.01-.034.01-.011.01-.022.02-.034 0-.01.01-.022.01-.033.01-.012.01-.023.02-.034 0-.012.01-.023.01-.034.01-.011.01-.023.02-.034 0-.011.01-.023.01-.034.01-.011.01-.022.02-.034 0-.011.01-.022.01-.034.01-.01.01-.022.02-.034 0-.01.01-.022.01-.033.01-.012.01-.023.02-.034 0-.011 0-.023.01-.034 0-.011.01-.023.01-.034.01-.011.01-.023.02-.034 0-.011.01-.022.01-.034.01-.011.01-.022.02-.034 0-.01.01-.022.01-.033.01-.012.01-.023.02-.034 0-.012.01-.023.01-.034.01-.011.01-.023.02-.034 0-.011.01-.023.01-.034l.03-.068.03-.067.03-.068.03-.068.03-.068.03-.067.03-.068c.03-.069 0 0 .02-.068l.03-.067.03-.068.03-.068.03-.068.03-.067.03-.068.03-.068.03-.068.03-.067.03-.068.03-.068.03-.068c.03-.068 0 .001.02-.067l.03-.068.03-.068.03-.067.03-.068.03-.068.03-.068.03-.068.03-.067.03-.068.03-.068.03-.067.03-.068.02-.068.03-.068.03-.067.03-.068.03-.068.03-.068.03-.067.03-.068.03-.068.03-.068.03-.067.03-.068.03-.068c.02-.068-.01.001.02-.067l.03-.068.03-.068.03-.068.03-.067.03-.068.03-.068.03-.068.03-.067.03-.068.03-.068.03-.067.03-.068c.02-.069-.01 0 .02-.068l.03-.068.03-.067.03-.068.03-.068.03-.068.03-.067.03-.068.03-.068.03-.068.03-.067.03-.068c.03-.069 0 0 .02-.068l.03-.068.03-.067.03-.068.03-.068.03-.067.03-.068.03-.068.03-.068.03-.067.03-.068.03-.068.03-.068c.03-.068 0 .001.02-.067l.03-.068.03-.068.03-.068.03-.067.03-.068.03-.068.03-.068.03-.067.03-.068.03-.068.03-.067.03-.068.02-.068.03-.068.03-.067.03-.068.03-.068.03-.068.03-.067.03-.068.03-.068.03-.068.03-.067.03-.068.03-.068c.02-.068-.01.001.02-.067l.03-.068.03-.068.03-.068.03-.067.03-.068.03-.068.03-.068.03-.067.03-.068.03-.068.03-.067.03-.068c.02-.069-.01 0 .02-.068l.03-.068.03-.067.03-.068.03-.068-1.84-.792zm-7.48 17.355c-2.38 5.777-4.7 11.327-6.97 16.65l1.84.783c2.27-5.331 4.6-10.888 6.98-16.671l-1.85-.762zm-6.96 16.642c-2.27 5.215-4.2 9.695-5.79 13.438l1.84.782c1.59-3.737 3.51-8.21 5.78-13.422l-1.83-.798zm-4.87 12.829h-18.53v2h18.53v-2zm-17.61.609c-1.58-3.743-3.51-8.223-5.78-13.438l-1.83.798c2.26 5.211 4.19 9.685 5.77 13.422l1.84-.782zm-5.78-13.43c-2.26-5.329-4.64-10.884-7.14-16.665l-1.84.792c2.5 5.779 4.88 11.33 7.14 16.656l1.84-.784zm-7.13-16.65c-2.38-5.785-4.82-11.57-7.32-17.355l-1.84.792c2.5 5.775 4.93 11.55 7.31 17.325l1.85-.762zm-7.32-17.355c-2.49-5.78-4.76-11.049-6.8-15.808l-1.84.788c2.04 4.76 4.31 10.031 6.8 15.812l1.84-.792zm-8.71-15.496c-1.14 13.726-1.99 27.34-2.56 40.84l2 .084c.57-13.473 1.42-27.06 2.55-40.76l-1.99-.164zm-2.56 40.84c-.56 13.49-1.02 25.961-1.36 37.412l2 .06c.34-11.442.8-23.905 1.36-37.388l-2-.084zm-.36 36.442h-25.84v2h25.84v-2zm-24.84 1.049c.46-9.292.96-19.207 1.53-29.745l-2-.108c-.56 10.542-1.07 20.46-1.53 29.755l2 .098zm1.53-29.735c.68-10.54 1.36-21.022 2.04-31.449l-1.99-.13c-.68 10.427-1.36 20.91-2.04 31.45l1.99.13zm2.04-31.439c.79-10.534 1.64-20.615 2.55-30.241l-1.99-.188c-.91 9.64-1.76 19.733-2.55 30.279l1.99.15zm2.55-30.23c1.02-9.737 2.09-18.507 3.22-26.312l-1.98-.286c-1.13 7.835-2.21 16.632-3.23 26.389l1.99.208zm2.23-25.455h25.33v-2h-25.33v2zm356.52-1h1v-1h-1v1zm0 22.61v1h1v-1h-1zm-35.53 0v-1h-1v1h1zm0 95.2v1h1v-1h-1zm-26.52 0h-1v1h1v-1zm0-95.2h1v-1h-1v1zm-35.53 0h-1v1h1v-1zm0-22.61v-1h-1v1h1zm96.58 0V23.8h2V1.19h-2zm1 21.61h-35.53v2h35.53v-2zm-36.53 1V119h2V23.8h-2zm1 94.2h-26.52v2h26.52v-2zm-25.52 1V23.8h-2V119h2zm-1-96.2h-35.53v2h35.53v-2zm-34.53 1V1.19h-2V23.8h2zm-1-21.61h97.58v-2h-97.58v2zM1935.4 119h-1v1h1v-1zm0-117.81v-1h-1v1h1zm79.56 0h1v-1h-1v1zm0 22.27v1h1v-1h-1zm-53.04 0v-1h-1v1h1zm0 23.12h-1v1h1v-1zm47.09 0h1v-1h-1v1zm0 21.76v1h1v-1h-1zm-47.09 0v-1h-1v1h1zm0 28.39h-1v1h1v-1zm56.95 0h1v-1h-1v1zm0 22.27v1h1v-1h-1zm-82.47 0V1.19h-2V119h2zm-1-116.81h79.56v-2h-79.56v2zm78.56-1v22.27h2V1.19h-2zm1 21.27h-53.04v2h53.04v-2zm-54.04 1v23.12h2V23.46h-2zm1 24.12h47.09v-2h-47.09v2zm46.09-1v21.76h2V46.58h-2zm1 20.76h-47.09v2h47.09v-2zm-48.09 1v28.39h2V68.34h-2zm1 29.39h56.95v-2h-56.95v2zm55.95-1V119h2V96.73h-2zm1 21.27h-83.47v2h83.47v-2zm98.51 1l-.96.292.22.708h.74v-1zm-4.25-12.58l-.95.324.01.011v.011l.94-.346zm-4.42-12.92l.95-.324-.23-.676h-.72v1zm-45.9 0v-1h-.71l-.24.676.95.324zm-4.59 12.92l-.94-.346v.011l-.01.011.95.324zm-4.08 12.58v1h.74l.22-.708-.96-.292zm-27.54 0l-.94-.329-.47 1.329h1.41v-1zm12.58-35.19l.94.346-.94-.346zm11.56-30.43l-.93-.375v.01l.93.365zm11.22-27.03l-.92-.398v.006l.92.392zm11.56-25.16v-1h-.63l-.27.563.9.437zm25.33 0l.9-.427-.27-.573h-.63v1zm11.39 25.16l-.92.398.01.005.91-.403zm11.22 27.03l-.93.366v.01l.93-.376zm11.73 30.43l-.94.346.94-.346zm12.58 35.19v1h1.41l-.47-1.329-.94.329zm-60.18-91.12l.93-.371-1.02-2.535-.86 2.59.95.316zm-2.55 6.97l-.93-.359.93.359zm-3.91 10.2l-.93-.357.93.357zm-4.93 12.75l-.93-.363-.01.01v.01l.94.343zm-5.27 14.62l-.94-.335-.48 1.335h1.42v-1zm33.49 0v1h1.42l-.48-1.335-.94.335zm-5.27-14.62l-.94.344.94-.344zm-4.93-12.75l-.93.357v.012l.01.012.92-.381zm-3.91-10.2l.93-.359-.93.359zm30.03 83.858c-1.26-4.1-2.68-8.311-4.27-12.634l-1.88.692c1.58 4.29 2.99 8.466 4.23 12.526l1.92-.584zm-4.26-12.612l-.07-.202-.07-.201-.07-.202-.07-.202-.07-.202-.07-.202-.07-.202-.07-.202c-.03-.088-.03-.113-.06-.202-.04-.088-.04-.113-.07-.201-.01-.018-.02-.033-.02-.051-.01-.017-.01-.033-.02-.05 0-.009 0-.017-.01-.026 0-.008 0-.016-.01-.025 0-.017-.01-.033-.01-.05-.03-.066-.05-.136-.07-.202-.02-.066-.05-.136-.07-.202-.02-.066-.05-.136-.07-.202-.02-.066-.05-.136-.07-.202a1.672 1.672 0 00-.07-.202c-.03-.08-.04-.121-.07-.202 0-.014-.01-.036-.01-.05a.109.109 0 01-.02-.051c-.01-.014-.01-.035-.02-.05a.106.106 0 00-.02-.05c0-.015-.01-.036-.01-.051a.106.106 0 01-.02-.05c-.01-.015-.01-.036-.02-.051a.106.106 0 00-.02-.05c0-.015-.01-.036-.01-.051a.106.106 0 01-.02-.05c-.01-.015-.01-.036-.02-.051 0-.014-.01-.036-.01-.05a.109.109 0 01-.02-.051c-.01-.014-.01-.036-.02-.05a.109.109 0 00-.02-.051c0-.014-.01-.036-.01-.05a.109.109 0 01-.02-.051c-.01-.014-.01-.035-.02-.05a.102.102 0 00-.02-.05c0-.015-.01-.036-.01-.051a.106.106 0 01-.02-.05c-.01-.015-.01-.036-.02-.051 0-.014-.01-.036-.01-.05a.109.109 0 01-.02-.051c-.01-.014-.01-.036-.02-.05a.109.109 0 00-.02-.051c0-.014-.01-.036-.01-.05a.109.109 0 01-.02-.051c-.01-.014-.01-.036-.02-.05a.109.109 0 00-.02-.051c0-.014-.01-.036-.01-.05a.109.109 0 01-.02-.051c-.01-.014-.01-.036-.02-.05 0-.015-.01-.036-.01-.05a.109.109 0 01-.02-.051c-.01-.014-.01-.036-.02-.05a.109.109 0 00-.02-.051c0-.014-.01-.036-.01-.05a.109.109 0 01-.02-.051c-.01-.014-.01-.036-.02-.05a.109.109 0 00-.02-.051c0-.014-.01-.036-.01-.05-.01-.015-.01-.036-.02-.051a.106.106 0 00-.02-.05c0-.015-.01-.036-.01-.051a.106.106 0 01-.02-.05c-.01-.015-.01-.036-.02-.051a.106.106 0 00-.02-.05c0-.015-.01-.036-.01-.051a.102.102 0 01-.02-.05c-.01-.015-.01-.036-.02-.05a.109.109 0 00-.02-.051c0-.014-.01-.036-.01-.05-.01-.015-.01-.036-.02-.05a.107.107 0 00-.02-.051c0-.015-.01-.036-.01-.05a.107.107 0 01-.02-.051c-.01-.015-.01-.036-.02-.05a.107.107 0 00-.02-.051c0-.015-.01-.036-.01-.05-.2-.584-.36-1.032-.56-1.616-.2-.583-.35-1.031-.55-1.615-.2-.583-.35-1.031-.55-1.615-.2-.583-.35-1.031-.55-1.615l-1.9.648c.01.014.02.036.02.05.01.015.01.036.02.05 0 .015.01.037.02.051 0 .015.01.036.01.05.01.015.02.036.02.051.01.015.01.036.02.05 0 .015.01.036.02.051 0 .014.01.036.01.05.01.015.01.036.02.05 0 .015.01.037.02.051 0 .015.01.036.01.05.01.015.02.037.02.051.01.015.01.036.02.05 0 .015.01.037.02.051 0 .015.01.036.01.05.01.015.02.037.02.051.01.015.01.036.02.05 0 .015.01.037.01.051a.11.11 0 01.02.05c.01.015.01.037.02.051 0 .015.01.036.02.05 0 .015.01.037.01.051.01.014.02.036.02.05.01.015.01.036.02.05 0 .015.01.037.02.051 0 .015.01.036.01.05.01.015.02.037.02.051.01.015.01.036.02.05 0 .015.01.037.01.051a.11.11 0 01.02.05c.01.015.01.037.02.051 0 .015.01.036.02.05 0 .015.01.037.01.051a.11.11 0 01.02.05c.01.015.01.037.02.051 0 .015.01.036.02.05 0 .015.01.037.01.051a.11.11 0 01.02.05c.01.015.01.037.02.051 0 .014.01.036.01.05a.11.11 0 01.02.05c.01.015.01.037.02.051 0 .015.01.036.02.05 0 .015.01.037.01.051a.11.11 0 01.02.05c.01.015.01.037.02.051 0 .015.01.036.02.05 0 .015.01.037.01.051a.11.11 0 01.02.05c.01.015.01.037.02.051 0 .015.01.036.01.05.01.015.02.036.02.051.01.015.01.036.02.05 0 .015.01.036.02.051 0 .014.01.036.01.05a.11.11 0 01.02.05c.01.016.01.037.02.051 0 .015.01.036.02.05 0 .015.01.037.01.051a.11.11 0 01.02.05c.01.015.01.037.02.051 0 .015.01.036.01.05.01.015.02.037.02.051.01.015.01.036.02.05 0 .015.01.037.02.051 0 .015.01.036.01.05.01.015.02.037.02.051.01.015.01.036.02.05 0 .015.01.037.02.051 0 .015.01.036.01.05.01.015.02.036.02.051.01.014.01.036.02.05 0 .015.01.036.01.05.01.015.02.037.02.051.01.015.01.036.02.05 0 .015.01.037.02.051 0 .015.01.036.01.05.01.015.02.037.02.051.01.015.01.036.02.05 0 .015.01.037.02.051 0 .015.01.036.01.05.01.015.02.037.02.051.01.015.01.036.02.05 0 .015.01.037.01.051a.11.11 0 01.02.05c.01.015.01.037.02.051 0 .014.01.036.02.05 0 .015.01.036.01.05.01.016.02.037.02.051.01.015.01.036.02.05 0 .015.01.037.02.051 0 .015.01.036.01.05.01.015.01.037.02.051.01.015.01.036.02.05 0 .015.01.037.01.051a.11.11 0 01.02.05c.01.015.01.037.02.051 0 .015.01.036.02.05 0 .015.01.037.01.051a.11.11 0 01.02.05c.01.015.01.036.02.051 0 .014.01.036.02.05 0 .015.01.036.01.051.01.014.01.036.02.05 0 .015.01.036.02.05 0 .015.01.037.01.051a.11.11 0 01.02.05c.01.015.01.037.02.051 0 .015.01.036.02.05 0 .015.01.037.01.051a.11.11 0 01.02.05c.01.015.01.037.02.051 0 .015.01.036.02.05 0 .015.01.037.01.051.01.015.01.036.02.05 0 .015.01.037.02.051 0 .015.01.036.01.05.01.015.02.037.02.051.01.014.01.036.02.05 0 .015.01.036.02.05 0 .015.01.037.01.051a.11.11 0 01.02.05c.01.015.01.037.02.051 0 .015.01.036.02.051 0 .014.01.036.01.05.01.015.01.036.02.051 0 .014.01.036.02.05 0 .015.01.036.01.051.2.583.36 1.031.56 1.615l.55 1.615.55 1.615.55 1.615 1.9-.648zm-5.37-13.596h-45.9v2h45.9v-2zm-46.85.676c-1.47 4.3-2.99 8.599-4.58 12.898l1.88.692c1.59-4.314 3.12-8.628 4.6-12.942l-1.9-.648zm-4.59 12.92a419.804 419.804 0 00-4.09 12.612l1.92.584c1.24-4.069 2.6-8.251 4.07-12.548l-1.9-.648zM2054.14 118h-27.54v2h27.54v-2zm-26.6 1.329c4.42-12.689 8.61-24.413 12.58-35.173l-1.88-.692c-3.97 10.773-8.16 22.509-12.58 35.207l1.88.658zm12.58-35.173a1483.83 1483.83 0 0111.55-30.41l-1.86-.732a1557.86 1557.86 0 00-11.57 30.45l1.88.692zm11.55-30.4c3.85-9.516 7.59-18.52 11.21-27.014l-1.84-.784c-3.63 8.506-7.37 17.522-11.23 27.047l1.86.75zm11.21-27.008c3.73-8.6 7.58-16.974 11.54-25.12l-1.8-.875a659.143 659.143 0 00-11.58 25.199l1.84.796zm10.64-24.558h25.33v-2h-25.33v2zm24.43-.573a882.53 882.53 0 0111.37 25.131l1.84-.796A888.07 888.07 0 002099.75.763l-1.8.854zm11.38 25.136c3.73 8.486 7.46 17.484 11.2 26.993l1.86-.732a733.53 733.53 0 00-11.23-27.067l-1.83.806zm11.2 27.002c3.85 9.51 7.76 19.643 11.72 30.4l1.88-.69c-3.97-10.776-7.88-20.93-11.74-30.46l-1.86.75zm11.72 30.4c3.97 10.76 8.16 22.485 12.58 35.174l1.88-.658c-4.42-12.698-8.61-24.434-12.58-35.207l-1.88.692zM2145.77 118h-28.39v2h28.39v-2zm-61.13-90.436c-.56 1.679-1.4 3.986-2.53 6.927l1.86.718c1.14-2.952 2-5.292 2.57-7.013l-1.9-.632zm-2.53 6.927c-1.14 2.947-2.44 6.348-3.91 10.202l1.86.714c1.48-3.853 2.78-7.252 3.91-10.198l-1.86-.718zm-3.91 10.202c-1.48 3.85-3.12 8.099-4.93 12.744l1.86.727c1.82-4.649 3.46-8.901 4.93-12.757l-1.86-.714zm-4.94 12.763c-1.7 4.65-3.46 9.526-5.27 14.629l1.88.67c1.82-5.097 3.57-9.968 5.27-14.611l-1.88-.688zm-4.33 15.964h33.49v-2h-33.49v2zm34.43-1.335c-1.81-5.103-3.57-9.979-5.27-14.629l-1.88.688c1.7 4.643 3.46 9.514 5.27 14.611l1.88-.67zm-5.27-14.629c-1.7-4.657-3.35-8.92-4.94-12.787l-1.85.762c1.58 3.839 3.22 8.076 4.91 12.713l1.88-.688zm-4.94-12.763c-1.47-3.854-2.77-7.255-3.91-10.202l-1.86.718c1.13 2.946 2.43 6.345 3.91 10.198l1.86-.714zm-3.91-10.202a581.53 581.53 0 00-2.72-6.982l-1.86.742a674.89 674.89 0 012.72 6.958l1.86-.718zM2192.3 1.19l.88-.479-.29-.521h-.59v1zm6.97 13.94l-.91.425.01.011.01.011.89-.447zm8.33 17.85l-.92.402.01.01v.01l.91-.422zm8.67 19.55l.92-.39-.92.39zm7.99 18.87l-.92.39.92 2.176.92-2.176-.92-.39zm7.99-18.87l-.92-.39.92.39zm8.5-19.55l-.91-.415v.007l.91.408zm8.33-17.85l-.9-.44v.008l.9.432zm7.14-13.94v-1h-.59l-.29.521.88.479zm24.14 0l.99-.143-.12-.857h-.87v1zm3.06 26.35l-1 .093.01.012.99-.105zm2.55 30.26l-1 .064v.012l1-.076zm2.04 31.45l-1 .054v.01l1-.064zm1.7 29.75v1h1.05l-.05-1.049-1 .049zm-25.84 0l-1 .03.03.97h.97v-1zm-1.36-37.4l1-.042-1 .042zm-2.55-40.8l1-.082-1.92-.312.92.394zm-6.8 15.81l-.92-.396.92.396zm-7.48 17.34l-.92-.396v.015l.92.381zm-6.97 16.66l.92.399v-.007l-.92-.392zm-5.78 13.43v1h.66l.26-.609-.92-.391zm-18.53 0l-.92.391.26.609h.66v-1zm-5.78-13.43l-.92.392v.007l.92-.399zm-7.14-16.66l-.92.38v.016l.92-.396zm-7.31-17.34l-.92.396.92-.396zm-6.8-15.81l.92-.394-1.92.312 1 .082zm-2.55 40.8l1 .042-1-.042zm-1.36 37.4v1h.97l.03-.97-1-.03zm-25.84 0l-1-.049-.05 1.049h1.05v-1zm1.53-29.75l-1-.064v.01l1 .054zm2.04-31.45l-1-.075v.01l1 .065zm2.55-30.26l-.99-.104-.01.01 1 .094zm3.23-26.35v-1h-.87l-.12.857.99.143zm24.45.479c2.03 3.716 4.34 8.344 6.94 13.886l1.82-.85c-2.62-5.564-4.95-10.23-7-13.994l-1.76.958zm6.96 13.908c2.71 5.423 5.48 11.358 8.3 17.805l1.84-.804c-2.84-6.473-5.63-12.438-8.36-17.895l-1.78.894zm8.31 17.824a636.921 636.921 0 018.66 19.52l1.84-.781a642.324 642.324 0 00-8.68-19.581l-1.82.842zm8.66 19.52c2.83 6.686 5.5 12.976 7.99 18.869l1.84-.78c-2.49-5.893-5.16-12.183-7.99-18.87l-1.84.78zm9.83 18.869c2.49-5.894 5.16-12.183 7.99-18.87l-1.84-.78c-2.83 6.687-5.5 12.977-7.99 18.87l1.84.78zm7.99-18.87c2.83-6.68 5.66-13.192 8.49-19.532l-1.82-.816c-2.84 6.353-5.68 12.876-8.51 19.568l1.84.78zm8.49-19.525c2.94-6.455 5.72-12.4 8.32-17.833l-1.8-.864c-2.61 5.446-5.39 11.402-8.34 17.867l1.82.83zm8.32-17.825c2.71-5.546 5.09-10.178 7.12-13.901l-1.76-.958c-2.05 3.757-4.43 8.418-7.16 13.98l1.8.879zm6.24-13.38h24.14v-2h-24.14v2zm23.15-.857c1.13 7.8 2.15 16.566 3.05 26.3l2-.186c-.91-9.76-1.93-18.56-3.07-26.4l-1.98.286zm3.06 26.312a756.674 756.674 0 012.54 30.22l2-.13c-.68-10.552-1.53-20.652-2.56-30.3l-1.98.21zm2.54 30.23c.8 10.42 1.48 20.896 2.04 31.429l2-.108a1461.58 1461.58 0 00-2.04-31.472l-2 .152zm2.04 31.44c.68 10.535 1.25 20.446 1.7 29.734l2-.098c-.45-9.299-1.02-19.22-1.7-29.765l-2 .128zm2.7 28.685h-25.84v2h25.84v-2zm-24.84.97a2994.05 2994.05 0 00-1.36-37.412l-2 .084c.57 13.483 1.02 25.946 1.36 37.388l2-.06zm-1.36-37.412c-.57-13.5-1.42-27.114-2.55-40.84l-2 .164c1.14 13.7 1.98 27.287 2.55 40.76l2-.084zm-4.47-41.152a9190.16 9190.16 0 01-6.8 15.808l1.84.792c2.49-5.78 4.76-11.051 6.8-15.812l-1.84-.788zm-6.8 15.808c0 .011-.01.023-.01.034-.01.011-.01.022-.02.034 0 .01-.01.022-.01.034-.01.01-.01.022-.02.033 0 .012-.01.023-.01.034-.01.011-.01.023-.02.034 0 .011-.01.023-.01.034-.01.011-.01.023-.02.034 0 .011-.01.022-.01.034 0 .011-.01.022-.01.034-.01.01-.01.022-.02.033 0 .012-.01.023-.01.034-.01.012-.01.023-.02.034 0 .011-.01.023-.01.034-.01.011-.01.023-.02.034 0 .011-.01.023-.01.034-.01.011-.01.022-.02.034 0 .01-.01.022-.01.034-.01.01-.01.022-.02.033 0 .012-.01.023-.01.034-.01.012-.01.023-.02.034 0 .011 0 .023-.01.034 0 .011-.01.023-.01.034-.01.011-.01.022-.02.034 0 .011-.01.022-.01.034-.01.01-.01.022-.02.033 0 .012-.01.023-.01.034-.01.012-.01.023-.02.034 0 .011-.01.023-.01.034-.01.011-.01.023-.02.034 0 .011-.01.023-.01.034-.01.011-.01.022-.02.034 0 .01-.01.022-.01.033-.01.012-.01.023-.01.034-.01.012-.01.023-.02.034 0 .011-.01.023-.01.034-.01.011-.01.023-.02.034 0 .011-.01.023-.01.034-.01.011-.01.022-.02.034 0 .011-.01.022-.01.034-.01.01-.01.022-.02.033 0 .012-.01.023-.01.034-.01.012-.01.023-.02.034 0 .011-.01.023-.01.034-.01.011-.01.023-.02.034 0 .011-.01.023-.01.034-.01.011-.01.022-.01.034-.01.011-.01.022-.02.034 0 .01-.01.022-.01.033-.01.012-.01.023-.02.034 0 .012-.01.023-.01.034-.01.011-.01.023-.02.034 0 .011-.01.023-.01.034-.01.011-.01.022-.02.034 0 .011-.01.022-.01.034-.01.01-.01.022-.02.034 0 .01-.01.022-.01.033-.01.012-.01.023-.02.034 0 .012-.01.023-.01.034 0 .011-.01.023-.01.034-.01.011-.01.023-.02.034 0 .011-.01.022-.01.034-.01.011-.01.022-.02.033 0 .012-.01.023-.01.034-.01.012-.01.023-.02.034 0 .012-.01.023-.01.034-.01.011-.01.023-.02.034 0 .011-.01.023-.01.034-.01.011-.01.022-.02.034 0 .011-.01.022-.01.034-.01.01-.01.022-.02.033 0 .012-.01.023-.01.034 0 .012-.01.023-.01.034-.01.011-.01.023-.02.034 0 .011-.01.023-.01.034-.01.011-.01.023-.02.034 0 .011-.01.022-.01.034-.01.011-.01.022-.02.033 0 .012-.01.023-.01.034-.01.012-.01.023-.02.034 0 .012-.01.023-.01.034-.01.011-.01.023-.02.034 0 .011-.01.023-.01.034-.01.011-.01.023-.02.034 0 .011-.01.022-.01.034 0 .01-.01.022-.01.033-.01.012-.01.023-.02.034 0 .012-.01.023-.01.034-.01.011-.01.023-.02.034 0 .011-.01.023-.01.034-.01.011-.01.023-.02.034 0 .011-.01.022-.01.034-.01.011-.01.022-.02.034 0 .01-.01.022-.01.033-.01.012-.01.023-.02.034 0 .012-.01.023-.01.034-.01.011-.01.023-.02.034 0 .011-.01.023-.01.034 0 .011-.01.023-.01.034-.01.011-.01.022-.02.034 0 .01-.01.022-.01.034-.01.01-.01.022-.02.033 0 .012-.01.023-.01.034-.01.012-.01.023-.02.034 0 .011-.01.023-.01.034-.01.011-.01.022-.02.034 0 .011-.01.022-.01.034-.01.011-.01.022-.02.034 0 .01-.01.022-.01.033-.01.012-.01.023-.02.034 0 .012-.01.023-.01.034 0 .011-.01.023-.01.034-.01.011-.01.023-.02.034 0 .011-.01.023-.01.034-.01.011-.01.022-.02.034 0 .01-.01.022-.01.033-.01.012-.01.023-.02.034 0 .012-.01.023-.01.034-.01.011-.01.023-.02.034 0 .011-.01.023-.01.034-.01.011-.01.023-.02.034 0 .011-.01.022-.01.034-.01.011-.01.022-.02.034 0 .01 0 .022-.01.033 0 .012-.01.023-.01.034-.01.012-.01.023-.02.034 0 .011-.01.023-.01.034-.01.011-.01.023-.02.034 0 .011-.01.023-.01.034-.01.011-.01.022-.02.034 0 .01-.01.022-.01.034-.01.01-.01.022-.02.033 0 .012-.01.023-.01.034-.01.011-.01.023-.02.034 0 .011-.01.023-.01.034-.01.011-.01.023-.02.034 0 .011 0 .022-.01.034 0 .011-.01.022-.01.034-.01.01-.01.022-.02.033 0 .012-.01.023-.01.034-.01.012-.01.023-.02.034 0 .012-.01.023-.01.034-.01.011-.01.023-.02.034 0 .011-.01.023-.01.034-.01.011-.01.022-.02.034 0 .01-.01.022-.01.033-.01.012-.01.023-.02.034 0 .012-.01.023-.01.034-.01.011-.01.023-.02.034 0 .011 0 .023-.01.034 0 .011-.01.023-.01.034-.01.011-.01.022-.02.034 0 .011-.01.022-.01.034-.01.01-.01.022-.02.033 0 .012-.01.023-.01.034-.01.012-.01.023-.02.034 0 .011-.01.023-.01.034-.01.011-.01.023-.02.034 0 .011-.01.023-.01.034-.01.011-.01.022-.02.034 0 .01-.01.022-.01.033-.01.012-.01.023-.01.034-.01.012-.01.023-.02.034 0 .011-.01.023-.01.034-.01.011-.01.023-.02.034 0 .011-.01.023-.01.034-.01.011-.01.022-.02.034 0 .011-.01.022-.01.034-.01.01-.01.022-.02.033 0 .012-.01.023-.01.034-.01.012-.01.023-.02.034 0 .011-.01.023-.01.034-.01.011-.01.023-.02.034 0 .011-.01.023-.01.034-.01.011-.01.022-.01.034-.01.011-.01.022-.02.034 0 .01-.01.022-.01.033-.01.012-.01.023-.02.034 0 .012-.01.023-.01.034-.01.011-.01.023-.02.034 0 .011-.01.023-.01.034-.01.011-.01.022-.02.034 0 .011-.01.022-.01.034-.01.01-.01.022-.02.034 0 .01-.01.022-.01.033-.01.012-.01.023-.02.034 0 .012-.01.023-.01.034-.01.011-.01.023-.01.034-.01.011-.01.022-.02.034 0 .011-.01.022-.01.034-.01.011-.01.022-.02.033 0 .012-.01.023-.01.034-.01.012-.01.023-.02.034 0 .012-.01.023-.01.034-.01.011-.01.023-.02.034 0 .011-.01.023-.01.034-.01.011-.01.023-.02.034 0 .011-.01.022-.01.034-.01.01-.01.022-.02.033 0 .012-.01.023-.01.034-.01.012-.01.023-.01.034-.01.011-.01.023-.02.034 0 .011-.01.023-.01.034-.01.011-.01.023-.02.034 0 .011-.01.022-.01.034-.01.011-.01.022-.02.034 0 .01-.01.022-.01.033-.01.012-.01.023-.02.034 0 .012-.01.023-.01.034-.01.011-.01.023-.02.034 0 .011-.01.023-.01.034-.01.011-.01.023-.02.034 0 .011-.01.022-.01.034-.01.01-.01.022-.01.034-.01.01-.01.022-.02.033 0 .012-.01.023-.01.034-.01.011-.01.023-.02.034 0 .011-.01.023-.01.034-.01.011-.01.023-.02.034 0 .011-.01.022-.01.034-.01.011-.01.022-.02.034 0 .01-.01.022-.01.033-.01.012-.01.023-.02.034 0 .012-.01.023-.01.034-.01.011-.01.023-.02.034 0 .011-.01.023-.01.034 0 .011-.01.023-.01.034-.01.011-.01.022-.02.034 0 .01-.01.022-.01.033-.01.012-.01.023-.02.034 0 .012-.01.023-.01.034-.01.011-.01.023-.02.034 0 .011-.01.023-.01.034-.01.011-.01.022-.02.034 0 .011-.01.022-.01.034-.01.011-.01.022-.02.034 0 .01-.01.022-.01.033-.01.012-.01.023-.02.034 0 .012-.01.023-.01.034 0 .011-.01.023-.01.034-.01.011-.01.023-.02.034 0 .011-.01.022-.01.034-.01.011-.01.022-.02.034 0 .01-.01.022-.01.034-.01.01-.01.022-.02.033 0 .012-.01.023-.01.034-.01.011-.01.023-.02.034 0 .011-.01.023-.01.034-.01.011-.01.022-.02.034 0 .011-.01.022-.01.034-.01.011-.01.022-.02.034 0 .01-.01.022-.01.033 0 .012-.01.023-.01.034-.01.012-.01.023-.02.034 0 .011-.01.023-.01.034-.01.011-.01.023-.02.034l-.03.068-.03.067-.03.068-.03.068c-.02.068.01 0-.02.068l-.03.067-.03.068-.03.068-.03.067-.03.068-.03.068-.03.068-.03.067-.03.068-.03.068-.03.068-.03.067c-.02.069.01 0-.02.068l-.03.068-.03.068-.03.067-.03.068-.03.068-.03.068-.03.067-.03.068-.03.068-.03.068-.03.067c-.03.069 0 0-.02.068l-.03.068-.03.067-.03.068-.03.068-.03.068-.03.067-.03.068-.03.068-.03.067-.03.068-.03.068-.03.068-.02.067-.03.068-.03.068-.03.068-.03.067-.03.068-.03.068-.03.068-.03.067-.03.068-.03.068-.03.068-.03.067c-.02.069.01 0-.02.068l-.03.068-.03.067-.03.068-.03.068-.03.068-.03.067-.03.068-.03.068-.03.068-.03.067-.03.068-.03.068c-.02.068.01 0-.02.068l-.03.067-.03.068-.03.068-.03.068-.03.067-.03.068-.03.068-.03.067-.03.068-.03.068-.03.068c-.03.068 0-.001-.02.067l-.03.068-.03.068-.03.068-.03.067-.03.068-.03.068-.03.067-.03.068-.03.068-.03.068-.03.067-.03.068c-.03.069 0 0-.02.068l-.03.068-.03.067-.03.068-.03.068-.03.068-.03.067-.03.068-.03.068-.03.067-.03.068-.03.068-.03.068-.02.068-.03.067-.03.068-.03.068-.03.067-.03.068-.03.068-.03.068-.03.067-.03.068-.03.068-.03.068-.03.067-.02.068-.03.068-.03.067-.03.068-.03.068-.03.068-.03.067-.03.068-.03.068 1.84.792c0-.011.01-.023.01-.034.01-.011.01-.022.02-.034 0-.01.01-.022.01-.034.01-.01.01-.022.02-.033 0-.012.01-.023.01-.034.01-.012.01-.023.02-.034 0-.011.01-.023.01-.034.01-.011.01-.023.02-.034 0-.011 0-.022.01-.034 0-.011.01-.022.01-.034.01-.01.01-.022.02-.034 0-.01.01-.022.01-.033.01-.012.01-.023.02-.034 0-.012.01-.023.01-.034.01-.011.01-.023.02-.034 0-.011.01-.022.01-.034.01-.011.01-.022.02-.034 0-.01.01-.022.01-.033.01-.012.01-.023.02-.034 0-.012.01-.023.01-.034.01-.011.01-.023.02-.034 0-.011 0-.023.01-.034 0-.011.01-.023.01-.034.01-.011.01-.022.02-.034 0-.011.01-.022.01-.034.01-.01.01-.022.02-.033 0-.012.01-.023.01-.034.01-.012.01-.023.02-.034 0-.011.01-.023.01-.034.01-.011.01-.023.02-.034 0-.011.01-.022.01-.034.01-.011.01-.022.02-.034 0-.01.01-.022.01-.034.01-.01.01-.022.01-.033.01-.012.01-.023.02-.034 0-.012.01-.023.01-.034.01-.011.01-.023.02-.034 0-.011.01-.023.01-.034.01-.011.01-.022.02-.034 0-.011.01-.022.01-.034.01-.01.01-.022.02-.034 0-.01.01-.022.01-.033.01-.012.01-.023.02-.034 0-.011.01-.023.01-.034.01-.011.01-.023.02-.034 0-.011.01-.023.01-.034.01-.011.01-.022.01-.034.01-.011.01-.022.02-.034 0-.01.01-.022.01-.033.01-.012.01-.023.02-.034 0-.012.01-.023.01-.034.01-.011.01-.023.02-.034 0-.011.01-.023.01-.034.01-.011.01-.023.02-.034 0-.011.01-.022.01-.034.01-.01.01-.022.02-.034 0-.01.01-.022.01-.033.01-.012.01-.023.02-.034 0-.011.01-.023.01-.034 0-.011.01-.023.01-.034.01-.011.01-.022.02-.034 0-.011.01-.022.01-.034.01-.011.01-.022.02-.033 0-.012.01-.023.01-.034.01-.012.01-.023.02-.034 0-.012.01-.023.01-.034.01-.011.01-.023.02-.034 0-.011.01-.023.01-.034.01-.011.01-.023.02-.034 0-.011.01-.022.01-.034.01-.01.01-.022.02-.033 0-.012.01-.023.01-.034 0-.012.01-.023.01-.034.01-.011.01-.023.02-.034 0-.011.01-.023.01-.034.01-.011.01-.022.02-.034 0-.011.01-.022.01-.034.01-.011.01-.022.02-.034 0-.01.01-.022.01-.033.01-.012.01-.023.02-.034 0-.012.01-.023.01-.034.01-.011.01-.023.02-.034 0-.011.01-.023.01-.034.01-.011.01-.022.02-.034 0-.011 0-.022.01-.034 0-.01.01-.022.01-.034.01-.01.01-.022.02-.033 0-.012.01-.023.01-.034.01-.011.01-.023.02-.034 0-.011.01-.023.01-.034.01-.011.01-.023.02-.034 0-.011.01-.022.01-.034.01-.011.01-.022.02-.034 0-.01.01-.022.01-.033.01-.012.01-.023.02-.034 0-.012.01-.023.01-.034.01-.011.01-.023.02-.034 0-.011 0-.023.01-.034 0-.011.01-.023.01-.034.01-.011.01-.022.02-.034 0-.01.01-.022.01-.034.01-.01.01-.022.02-.033 0-.012.01-.023.01-.034.01-.011.01-.023.02-.034 0-.011.01-.023.01-.034.01-.011.01-.023.02-.034 0-.011.01-.022.01-.034.01-.011.01-.022.02-.034 0-.01.01-.022.01-.033.01-.012.01-.023.02-.034 0-.012 0-.023.01-.034 0-.011.01-.023.01-.034.01-.011.01-.023.02-.034 0-.011.01-.023.01-.034.01-.011.01-.022.02-.034 0-.01.01-.022.01-.033.01-.012.01-.023.02-.034 0-.012.01-.023.01-.034.01-.011.01-.023.02-.034 0-.011.01-.023.01-.034.01-.011.01-.023.02-.034 0-.011.01-.022.01-.034.01-.011.01-.022.02-.034 0-.01 0-.022.01-.033 0-.012.01-.023.01-.034.01-.012.01-.023.02-.034 0-.011.01-.023.01-.034.01-.011.01-.023.02-.034 0-.011.01-.022.01-.034.01-.011.01-.022.02-.034 0-.01.01-.022.01-.034.01-.01.01-.022.02-.033 0-.012.01-.023.01-.034.01-.011.01-.023.02-.034 0-.011.01-.023.01-.034.01-.011.01-.023.01-.034.01-.011.01-.022.02-.034 0-.011.01-.022.01-.034.01-.01.01-.022.02-.034 0-.01.01-.022.01-.033.01-.012.01-.023.02-.034 0-.011.01-.023.01-.034.01-.011.01-.023.02-.034 0-.011.01-.022.01-.034.01-.011.01-.022.02-.034 0-.01.01-.022.01-.034.01-.01.01-.022.02-.033 0-.012.01-.023.01-.034.01-.011.01-.023.01-.034.01-.011.01-.023.02-.034 0-.011.01-.023.01-.034.01-.011.01-.022.02-.034 0-.011.01-.022.01-.034.01-.01.01-.022.02-.034 0-.01.01-.022.01-.033.01-.012.01-.023.02-.034 0-.011.01-.023.01-.034.01-.011.01-.023.02-.034 0-.011.01-.023.01-.034.01-.011.01-.022.02-.034 0-.011.01-.022.01-.034.01-.01.01-.022.01-.033.01-.012.01-.023.02-.034 0-.012.01-.023.01-.034.01-.011.01-.023.02-.034 0-.011.01-.023.01-.034.01-.011.01-.022.02-.034 0-.011.01-.022.01-.034.01-.01.01-.022.02-.034 0-.01.01-.022.01-.033.01-.012.01-.023.02-.034 0-.012.01-.023.01-.034.01-.011.01-.023.02-.034 0-.011.01-.022.01-.034.01-.011.01-.022.01-.034.01-.011.01-.022.02-.034 0-.01.01-.022.01-.033.01-.012.01-.023.02-.034 0-.012.01-.023.01-.034.01-.011.01-.023.02-.034 0-.011.01-.023.01-.034.01-.011.01-.022.02-.034 0-.011.01-.022.01-.034.01-.01.01-.022.02-.033 0-.012.01-.023.01-.034.01-.012.01-.023.02-.034 0-.011.01-.023.01-.034 0-.011.01-.023.01-.034.01-.011.01-.022.02-.034 0-.011.01-.022.01-.034.01-.011.01-.022.02-.034 0-.01.01-.022.01-.033.01-.012.01-.023.02-.034 0-.012.01-.023.01-.034.01-.011.01-.023.02-.034 0-.011.01-.023.01-.034.01-.011.01-.022.02-.034 0-.011.01-.022.01-.034.01-.01.01-.022.02-.034 0-.01.01-.022.01-.033 0-.012.01-.023.01-.034.01-.011.01-.023.02-.034 0-.011.01-.023.01-.034.01-.011.01-.023.02-.034 0-.011.01-.022.01-.034.01-.011.01-.022.02-.034 0-.01.01-.022.01-.033.01-.012.01-.023.02-.034 0-.012.01-.023.01-.034.01-.011.01-.023.02-.034 0-.011.01-.023.01-.034.01-.011.01-.023.02-.034 0-.011.01-.022.01-.034 0-.01.01-.022.01-.034.01-.01.01-.022.02-.033 0-.012.01-.023.01-.034.01-.012.01-.023.02-.034 0-.011.01-.023.01-.034.01-.011.01-.022.02-.034 0-.011.01-.022.01-.034.01-.011.01-.022.02-.034 0-.01.01-.022.01-.033.01-.012.01-.023.02-.034 0-.012.01-.023.01-.034.01-.011.01-.023.02-.034 0-.011.01-.023.01-.034 0-.011.01-.022.01-.034.01-.011.01-.022.02-.034 0-.01.01-.022.01-.033.01-.012.01-.023.02-.034 0-.012.01-.023.01-.034.01-.011.01-.023.02-.034 0-.011.01-.023.01-.034.01-.011.01-.022.02-.034 0-.011.01-.022.01-.034.01-.011.01-.022.02-.034 0-.01.01-.022.01-.033.01-.012.01-.023.02-.034 0-.012 0-.023.01-.034 0-.011.01-.023.01-.034.01-.011.01-.023.02-.034 0-.011.01-.022.01-.034.01-.011.01-.022.02-.034 0-.01.01-.022.01-.034.01-.01.01-.022.02-.033 0-.012.01-.023.01-.034.01-.011.01-.023.02-.034 0-.011.01-.023.01-.034.01-.011.01-.023.02-.034 0-.011.01-.022.01-.034.01-.011.01-.022.02-.034 0-.01 0-.022.01-.033 0-.012.01-.023.01-.034.01-.012.01-.023.02-.034 0-.011.01-.023.01-.034.01-.011.01-.023.02-.034l.03-.068.03-.067.03-.068.03-.068c.02-.068-.01 0 .02-.068l.03-.067.03-.068.03-.068.03-.067.03-.068.03-.068.03-.068.03-.067.03-.068.03-.068.03-.068c.03-.068 0 .001.02-.067l.03-.068.03-.068.03-.068.03-.067.03-.068.03-.068.03-.067.03-.068.03-.068.03-.068.03-.068.03-.067c.03-.069 0 0 .02-.068l.03-.068.03-.067.03-.068.03-.068.03-.068.03-.067.03-.068.03-.068.03-.068.03-.067.03-.068.03-.068c.02-.068-.01 0 .02-.068l.03-.067.03-.068.03-.068.03-.067.03-.068.03-.068.03-.068.03-.067.03-.068.03-.068.03-.068.03-.067c.02-.069-.01 0 .02-.068l.03-.068.03-.067.03-.068.03-.068.03-.068.03-.067.03-.068.03-.068.03-.068.03-.067.03-.068c.03-.069 0 0 .02-.068l.03-.068.03-.067.03-.068.03-.068.03-.068.03-.067.03-.068.03-.068.03-.067.03-.068.03-.068.03-.068c.03-.068 0 .001.02-.067l.03-.068.03-.068.03-.068.03-.067.03-.068.03-.068.03-.068.03-.067.03-.068.03-.068.03-.068.03-.067.02-.068.03-.068.03-.067.03-.068.03-.068.03-.068.03-.067.03-.068.03-.068.03-.068.03-.067.03-.068.03-.068.02-.068.03-.067.03-.068.03-.068.03-.067.03-.068.03-.068.03-.068.03-.067.03-.068.03-.068.03-.068.03-.067c.02-.069-.01 0 .02-.068l.03-.068.03-.067.03-.068.03-.068.03-.068.03-.067.03-.068.03-.068-1.84-.792zm-7.48 17.355c-2.38 5.777-4.71 11.327-6.97 16.65l1.84.783a1493.11 1493.11 0 006.97-16.671l-1.84-.762zm-6.97 16.642c-2.26 5.215-4.19 9.695-5.78 13.438l1.84.782c1.59-3.737 3.51-8.21 5.78-13.422l-1.84-.798zm-4.86 12.829h-18.53v2h18.53v-2zm-17.61.609c-1.59-3.743-3.52-8.223-5.78-13.438l-1.84.798c2.27 5.211 4.19 9.685 5.78 13.422l1.84-.782zm-5.78-13.43c-2.27-5.329-4.65-10.884-7.14-16.665l-1.84.792c2.49 5.779 4.87 11.33 7.14 16.656l1.84-.784zm-7.14-16.65c-2.38-5.785-4.82-11.57-7.31-17.355l-1.84.792c2.49 5.775 4.93 11.55 7.31 17.325l1.84-.762zm-7.31-17.355c-2.5-5.78-4.76-11.049-6.8-15.808l-1.84.788c2.04 4.76 4.31 10.031 6.8 15.812l1.84-.792zm-8.72-15.496c-1.13 13.726-1.98 27.34-2.55 40.84l2 .084c.57-13.473 1.41-27.06 2.55-40.76l-2-.164zm-2.55 40.84a2994.05 2994.05 0 00-1.36 37.412l2 .06c.34-11.442.79-23.905 1.36-37.388l-2-.084zm-.36 36.442h-25.84v2h25.84v-2zm-24.84 1.049c.45-9.292.96-19.207 1.53-29.745l-2-.108c-.57 10.542-1.08 20.46-1.53 29.755l2 .098zm1.53-29.735c.68-10.54 1.36-21.022 2.04-31.449l-2-.13c-.68 10.427-1.36 20.91-2.04 31.45l2 .13zm2.04-31.439c.79-10.534 1.64-20.615 2.55-30.241l-2-.188c-.9 9.64-1.75 19.733-2.55 30.279l2 .15zm2.54-30.23c1.02-9.737 2.1-18.507 3.23-26.312l-1.98-.286c-1.14 7.835-2.21 16.632-3.23 26.389l1.98.208zm2.24-25.455h25.33v-2h-25.33v2z" fill="#646482"/></g><defs><filter id="filter0_d" x=".4" y=".19" width="2294.36" height="127.81" filterUnits="userSpaceOnUse" color-interpolation-filters="sRGB"><feFlood flood-opacity="0" result="BackgroundImageFix"/><feColorMatrix in="SourceAlpha" values="0 0 0 0 0 0 0 0 0 0 0 0 0 0 0 0 0 0 127 0"/><feOffset dy="4"/><feGaussianBlur stdDeviation="2"/><feColorMatrix values="0 0 0 0 0 0 0 0 0 0 0 0 0 0 0 0 0 0 0.25 0"/><feBlend in2="BackgroundImageFix" result="effect1_dropShadow"/><feBlend in="SourceGraphic" in2="effect1_dropShadow" result="shape"/></filter></defs></svg>