<svg width="2180" height="134" viewBox="0 0 2180 134" fill="none" xmlns="http://www.w3.org/2000/svg"><g filter="url(#filter0_d)"><path d="M34.91 78.65l-.96.28.003.012.004.01.953-.302zm6.12 12.07l-.794.608.012.015.012.015.77-.638zm9.86 7.65l.426-.905-.426.905zm26.35 0l-.416-.91-.01.005.426.905zm9.86-7.65l-.78-.625-.003.004.783.621zm6.12-12.07l-.953-.302-.004.01-.003.011.96.281zm0-31.28l-.962.275.004.013.005.014.953-.302zM87.1 35.3l-.794.608.012.015.012.015.77-.638zm-9.86-7.82l-.426.905.01.005.416-.91zm-26.35.17l.426.905.01-.005.011-.006-.447-.894zm-9.86 7.82l-.78-.625-.004.004.784.621zm-6.12 12.07l-.955-.296-.003.008-.002.007.96.281zm83.3 42.16l-.929-.37-.003.008.932.362zm-12.24 19.21l.699.715.008-.008-.707-.707zm-18.7 11.56l-.338-.941-.005.002.343.939zm-64.6-11.56l-.7.715.008.007.692-.722zM10.09 89.7l-.93.369.002.005.928-.374zm.17-53.21l.923.386.002-.005-.925-.381zm12.75-19.38l-.692-.722-.008.007.7.715zm18.7-11.73l-.343-.94-.005.002.348.938zm45.22 0l.343-.94-.343.94zm18.7 11.73l.699-.715-.699.715zm12.58 19.38l-.929.369.001.005.928-.374zM31.87 63.01c0 5.857.689 11.167 2.08 15.92l1.92-.56c-1.329-4.54-2-9.657-2-15.36h-2zm2.087 15.942c1.503 4.742 3.593 8.873 6.28 12.376l1.587-1.216c-2.527-3.297-4.518-7.213-5.96-11.764l-1.907.604zm6.303 12.406a29.277 29.277 0 0010.204 7.917l.852-1.81a27.277 27.277 0 01-9.516-7.383l-1.54 1.276zm10.204 7.917c4.008 1.886 8.577 2.815 13.686 2.815v-2c-4.864 0-9.135-.884-12.834-2.625l-.852 1.81zm13.686 2.815c5 0 9.511-.931 13.516-2.815l-.852-1.81c-3.702 1.742-7.917 2.625-12.664 2.625v2zm13.506-2.81c4.104-1.877 7.519-4.523 10.227-7.939L86.317 90.1c-2.505 3.158-5.664 5.611-9.493 7.361l.832 1.82zm10.225-7.935c2.81-3.513 4.906-7.656 6.299-12.414l-1.92-.562c-1.327 4.536-3.311 8.439-5.94 11.726l1.56 1.25zm6.292-12.393c1.51-4.76 2.257-10.078 2.257-15.942h-2c0 5.696-.726 10.805-2.163 15.338l1.906.604zM96.43 63.01c0-5.864-.747-11.182-2.257-15.942l-1.906.604c1.437 4.533 2.163 9.642 2.163 15.338h2zm-2.249-15.915c-1.391-4.871-3.49-9.024-6.31-12.433l-1.541 1.276c2.618 3.164 4.6 7.058 5.928 11.707l1.924-.55zm-6.287-12.403c-2.708-3.533-6.126-6.241-10.238-8.122l-.832 1.82c3.821 1.746 6.977 4.25 9.482 7.518l1.588-1.216zm-10.228-8.117c-4.005-1.884-8.517-2.815-13.516-2.815v2c4.747 0 8.962.883 12.664 2.625l.852-1.81zM64.15 23.76c-5.117 0-9.695.99-13.707 2.996l.894 1.788c3.694-1.847 7.957-2.784 12.813-2.784v-2zm-13.686 2.985c-3.995 1.88-7.402 4.584-10.215 8.1l1.562 1.25c2.627-3.284 5.793-5.793 9.505-7.54l-.852-1.81zM40.246 34.85c-2.696 3.4-4.788 7.539-6.291 12.395l1.91.592c1.444-4.664 3.432-8.571 5.948-11.745l-1.567-1.242zM33.95 47.26c-1.39 4.752-2.08 10.005-2.08 15.751h2c0-5.587.67-10.648 2-15.19l-1.92-.56zm87.85 15.75c0 9.987-1.515 18.754-4.519 26.321l1.858.738c3.116-7.847 4.661-16.873 4.661-27.059h-2zm-4.522 26.328c-2.902 7.478-6.91 13.76-12.015 18.865l1.414 1.414c5.322-5.321 9.474-11.846 12.465-19.555l-1.864-.724zm-12.007 18.857c-5.105 4.994-11.213 8.773-18.34 11.334l.677 1.882c7.38-2.652 13.739-6.58 19.061-11.786l-1.398-1.43zm-18.344 11.336c-7.02 2.563-14.61 3.849-22.777 3.849v2c8.38 0 16.204-1.32 23.463-3.971l-.686-1.878zM64.15 123.38c-7.937 0-15.413-1.285-22.437-3.849l-.686 1.878c7.256 2.649 14.966 3.971 23.123 3.971v-2zm-22.437-3.849c-7.014-2.561-13.128-6.342-18.351-11.343l-1.384 1.444c5.43 5.199 11.783 9.125 19.05 11.777l.685-1.878zm-18.344-11.336c-5.218-5.107-9.338-11.39-12.351-18.869l-1.856.748c3.107 7.709 7.374 14.232 12.809 19.551l1.398-1.43zM11.02 89.331C8.015 81.764 6.5 72.997 6.5 63.01h-2c0 10.186 1.545 19.212 4.66 27.059l1.86-.738zM6.5 63.01c0-9.983 1.57-18.687 4.683-26.134l-1.846-.772C6.103 43.844 4.5 52.82 4.5 63.01h2zm4.685-26.14c3.127-7.595 7.306-13.937 12.524-19.045l-1.398-1.43c-5.435 5.32-9.757 11.897-12.976 19.714l1.85.762zm12.517-19.038c5.342-5.12 11.458-8.956 18.356-11.514l-.696-1.876c-7.155 2.655-13.506 6.639-19.044 11.946l1.384 1.444zm18.35-11.513C49.08 3.754 56.445 2.47 64.15 2.47v-2c-7.934 0-15.53 1.323-22.783 3.97l.686 1.88zM64.15 2.47c7.937 0 15.413 1.285 22.437 3.85l.686-1.88C80.017 1.793 72.307.47 64.15.47v2zm22.437 3.85c7.01 2.558 13.12 6.393 18.344 11.505l1.398-1.43c-5.43-5.314-11.785-9.3-19.056-11.954l-.686 1.878zm18.344 11.505c5.216 5.105 9.335 11.443 12.35 19.034l1.858-.738c-3.105-7.822-7.372-14.404-12.81-19.726l-1.398 1.43zm12.351 19.039c3.003 7.45 4.518 16.159 4.518 26.146h2c0-10.186-1.545-19.158-4.662-26.894l-1.856.748zm52.275 84.116l-.369.93.008.003.008.003.353-.936zm-14.96-9.69l-.737.677.01.01.01.01.717-.697zm-8.67-14.79l-.955.3.004.01.004.012.947-.322zm-2.72-92.31v-1h-1v1h1zm26.52 0h1v-1h-1v1zm1.53 83.3l-.958.287.006.02.006.019.946-.326zm4.42 8.16l-.765.644.018.022.02.02.727-.686zm6.8 4.42l-.329.945.012.004.317-.949zm24.48-4.59l-.698-.717-.009.01.707.707zm6.12-91.29v-1h-1v1h1zm26.52 0h1v-1h-1v1zm-2.89 92.31l-.949-.316.949.316zm-8.84 14.96l.717.697.009-.01-.726-.687zm-36.89 11.92c-8.186 0-15.201-1.122-21.067-3.336l-.706 1.872c6.146 2.319 13.412 3.464 21.773 3.464v-2zm-21.052-3.33c-5.893-2.335-10.756-5.491-14.611-9.457l-1.434 1.394c4.077 4.194 9.188 7.498 15.308 9.923l.737-1.86zm-14.592-9.437c-3.755-4.085-6.575-8.893-8.46-14.435l-1.893.644c1.969 5.791 4.928 10.844 8.88 15.145l1.473-1.354zm-8.452-14.412c-1.779-5.67-2.674-11.915-2.674-18.741h-2c0 7 .918 13.45 2.765 19.34l1.909-.6zm-2.674-18.741V4.19h-2v73.27h2zm-1-72.27h26.52v-2h-26.52v2zm25.52-1v71.06h2V4.19h-2zm0 71.06c0 4.826.516 9.008 1.572 12.527l1.915-.574c-.984-3.282-1.487-7.26-1.487-11.953h-2zm1.584 12.566c1.165 3.376 2.692 6.212 4.601 8.478l1.53-1.288c-1.718-2.04-3.138-4.645-4.24-7.842l-1.891.652zm4.639 8.52c2.035 2.155 4.437 3.718 7.198 4.678l.657-1.888c-2.452-.854-4.583-2.237-6.401-4.163l-1.454 1.374zm7.21 4.683c2.833.944 5.887 1.411 9.157 1.411v-2c-3.078 0-5.916-.44-8.524-1.309l-.633 1.898zm9.157 1.411c6.681 0 12.164-2.06 16.347-6.243l-1.414-1.414c-3.751 3.75-8.695 5.657-14.933 5.657v2zm16.337-6.233c4.369-4.248 6.423-11.33 6.423-20.947h-2c0 9.422-2.027 15.828-5.817 19.513l1.394 1.434zm6.423-20.947V4.19h-2v71.06h2zm-1-70.06h26.52v-2h-26.52v2zm25.52-1v73.27h2V4.19h-2zm0 73.27c0 6.82-.951 13.058-2.839 18.724l1.897.632c1.965-5.894 2.942-12.35 2.942-19.356h-2zm-2.839 18.724c-1.883 5.649-4.757 10.507-8.618 14.589l1.453 1.374c4.073-4.305 7.092-9.42 9.062-15.33l-1.897-.633zm-8.608 14.579c-3.849 3.959-8.76 7.057-14.761 9.279l.695 1.876c6.239-2.311 11.415-5.56 15.5-9.761l-1.434-1.394zm-14.761 9.279c-5.982 2.216-13.112 3.338-21.412 3.338v2c8.473 0 15.849-1.145 22.107-3.462l-.695-1.876zM340.242 12.35l-.559.829.007.005.552-.834zm8.33 49.47l-.804-.594-.002.003.806.591zm-16.32 12.07l-.382-.924-1.237.51.841 1.042.778-.628zm7.48 10.2l-.828.56.008.012.82-.572zm7.65 11.9l-.86.511.009.014.008.013.843-.538zm7.48 12.92l-.885.465.004.009.881-.474zm6.63 13.09v1h1.58l-.676-1.428-.904.428zm-29.75 0l-.873.488.286.512h.587v-1zm-6.63-11.73l-.879.477.005.01.006.009.868-.496zm-6.8-11.56l-.855.518.005.01.006.009.844-.537zm-6.8-10.54l-.832.555.004.006.005.007.823-.568zm-6.8-9.18l.768-.64-.3-.36h-.468v1zm-13.09 0v-1h-1v1h1zm0 43.01v1h1v-1h-1zm-26.52 0h-1v1h1v-1zm0-116.11l-.192-.981-.808.158v.823h1zm17.85-2.38l-.073-.997h-.001l.074.997zm12.92 22.1l-.071-.997h-.006l.077.997zm-4.25.34l-.083-.997-.917.077v.92h1zm0 31.96h-1v1h1v-1zm28.9-3.74l-.501-.865.501.865zm-.17-24.99l-.501.865.013.008.014.008.474-.881zm-20.74-25.35c17.584 0 30.898 3.16 40.071 9.349l1.118-1.658c-9.64-6.504-23.413-9.691-41.189-9.691v2zm40.078 9.354c9.074 6.013 13.662 15.413 13.662 28.406h2c0-13.527-4.819-23.62-14.558-30.074l-1.104 1.668zm13.662 28.406c0 8.119-1.889 14.637-5.584 19.636l1.608 1.188c4.012-5.427 5.976-12.396 5.976-20.824h-2zm-5.586 19.639c-3.61 4.922-8.887 8.844-15.896 11.737l.763 1.848c7.272-3 12.875-7.125 16.745-12.403l-1.612-1.182zm-16.292 13.29c2.359 2.92 4.835 6.296 7.43 10.131l1.656-1.12c-2.619-3.872-5.129-7.295-7.53-10.268l-1.556 1.256zm7.438 10.143a194.487 194.487 0 017.61 11.84l1.719-1.023a196.256 196.256 0 00-7.689-11.96l-1.64 1.143zm7.627 11.866a174.446 174.446 0 017.438 12.847l1.77-.93a176.668 176.668 0 00-7.522-12.993l-1.686 1.076zm7.442 12.856a283.04 283.04 0 016.607 13.044l1.808-.856a285.512 285.512 0 00-6.654-13.136l-1.761.948zM361.492 121h-29.75v2h29.75v-2zm-28.877.512a1416.935 1416.935 0 00-6.635-11.738l-1.736.992c2.265 3.964 4.473 7.871 6.625 11.722l1.746-.976zm-6.624-11.719a194.43 194.43 0 00-6.835-11.62l-1.688 1.074a191.569 191.569 0 016.765 11.5l1.758-.954zm-6.824-11.601a214.239 214.239 0 00-6.832-10.59l-1.646 1.136a213.13 213.13 0 016.768 10.49l1.71-1.036zm-6.823-10.577c-2.283-3.425-4.571-6.514-6.864-9.265l-1.536 1.28c2.24 2.69 4.486 5.72 6.736 9.095l1.664-1.11zm-7.632-9.625h-13.09v2h13.09v-2zm-14.09 1V122h2V78.99h-2zm1 42.01h-26.52v2h26.52v-2zm-25.52 1V5.89h-2V122h2zm-.808-115.129a149.494 149.494 0 0117.732-2.364l-.148-1.994a151.441 151.441 0 00-17.968 2.396l.384 1.962zm17.73-2.364c6.216-.452 11.744-.677 16.588-.677v-2c-4.903 0-10.481.228-16.733.683l.145 1.994zm18.118 19.933c-1.946 0-3.727.057-5.341.172l.142 1.996a73.419 73.419 0 015.199-.168v-2zm-5.347.173a666.46 666.46 0 00-4.256.34l.166 1.994c1.358-.114 2.772-.227 4.244-.34l-.154-1.994zm-5.173 1.337v31.96h2V25.95h-2zm1 32.96h7.48v-2h-7.48v2zm7.48 0c10.005 0 17.373-1.242 21.921-3.875l-1.002-1.73c-4.065 2.353-10.978 3.605-20.919 3.605v2zm21.921-3.875c4.684-2.711 6.959-7.338 6.959-13.615h-2c0 5.737-2.032 9.61-5.961 11.885l1.002 1.73zm6.959-13.615c0-6.08-2.357-10.536-7.156-13.12l-.948 1.76c4.041 2.176 6.104 5.88 6.104 11.36h2zm-7.129-13.105c-4.532-2.624-11.144-3.875-19.711-3.875v2c8.433 0 14.627 1.242 18.709 3.605l1.002-1.73zM498.38 16.77l.96-.28-.21-.72h-.75v1zm4.42 15.81l-.965.26.003.011.003.011.959-.282zm5.27 18.02l-.96.28.003.007.002.008.955-.295zm5.78 18.7l-.955.295.955-.295zm5.61 17.34l-.946.322 1.084 3.186.832-3.261-.97-.247zm4.42-18.87l-.973-.227-.002.007-.002.008.977.212zm4.42-21.08l-.982-.184.982.184zm3.91-21.59l-.982-.184-.003.012.985.172zm3.741-20.91v-1h-.845l-.141.833.986.167zm27.539 0l.981.197.241-1.197h-1.222v1zM549.72 64.2l-.968-.249-.001.005.969.244zM533.06 122v1h.724l.226-.687-.95-.313zm-24.31 0l-.939.343.24.657h.699v-1zm-11.56-34.17l-.954.297v.003l.954-.3zm-11.05-36.04l.958-.289-.958-3.171-.957 3.171.957.289zm-10.88 36.04l.957.291.001-.002-.958-.289zM463.87 122v1h.7l.24-.657-.94-.343zm-24.31 0l-.949.313.226.687h.723v-1zm-16.83-57.8l-.969.244.001.005.968-.249zm-13.6-60.01v-1h-1.221l.241 1.197.98-.197zm28.73 0l.986-.167-.141-.833h-.845v1zm3.74 20.91l-.982.184v.003l.982-.187zm4.25 21.59l.98-.2-.98.2zm4.42 21.08l-.977.212.002.008.002.007.973-.227zm4.76 18.87l-.964.265.827 3.01 1.076-2.93-.939-.345zm16.49-54.4l-.964-.265-.002.01-.003.008.969.247zm4.25-15.47v-1h-.762l-.202.735.964.265zm21.651.28a763.612 763.612 0 014.414 15.79l1.931-.52a759.981 759.981 0 00-4.426-15.83l-1.919.56zm4.42 15.812c1.7 5.78 3.456 11.785 5.269 18.017l1.921-.558a6601.639 6601.639 0 00-5.271-18.023l-1.919.564zm5.274 18.033l5.78 18.7 1.911-.59-5.78-18.7-1.911.59zm5.78 18.7a645.804 645.804 0 005.619 17.367l1.893-.644a642.99 642.99 0 01-5.601-17.313l-1.911.59zm7.535 17.292c1.476-5.793 2.952-12.095 4.428-18.905l-1.955-.424a536.125 536.125 0 01-4.412 18.835l1.939.494zm4.424-18.89a489.972 489.972 0 004.429-21.123l-1.965-.368a491.142 491.142 0 01-4.411 21.037l1.947.454zm4.429-21.123a1765.17 1765.17 0 003.913-21.602l-1.971-.344a1761.966 1761.966 0 01-3.907 21.578l1.965.368zm3.91-21.59a1215.868 1215.868 0 003.743-20.927l-1.971-.334a1225.1 1225.1 0 01-3.737 20.893l1.965.368zm2.758-20.094h27.539v-2h-27.539v2zm26.559-1.197c-3.963 19.702-8.549 39.688-13.758 59.958l1.937.498c5.218-20.303 9.812-40.324 13.782-60.062l-1.961-.394zm-13.759 59.963c-5.095 20.266-10.642 39.509-16.64 57.731l1.899.626c6.015-18.272 11.575-37.561 16.68-57.87l-1.939-.487zM533.06 121h-24.31v2h24.31v-2zm-23.37.657c-3.961-10.864-7.81-22.24-11.546-34.127l-1.908.6c3.745 11.913 7.603 23.317 11.575 34.213l1.879-.686zm-11.545-34.124A4382.265 4382.265 0 01487.098 51.5l-1.915.578a4386.375 4386.375 0 0011.053 36.048l1.909-.594zM485.183 51.5l-.021.07-.021.07-.022.071-.021.07-.021.07-.021.071-.022.07-.021.071-.021.07-.021.07-.022.071-.021.07-.021.071-.021.07-.022.07-.021.071-.021.07-.021.071-.022.07-.021.07-.021.071-.021.07-.022.071-.021.07-.021.07-.021.071-.022.07-.021.07-.021.071-.021.07-.022.071-.021.07-.021.07-.021.071-.022.07-.021.071-.021.07-.021.07-.022.071-.021.07-.021.071-.021.07-.022.07-.021.071-.021.07-.021.071-.022.07-.021.07-.021.071-.021.07-.022.07-.021.071-.021.07-.021.071-.022.07-.021.07-.021.071-.021.07-.022.071-.021.07-.021.07-.021.071-.022.07-.021.071-.021.07-.021.07-.022.071-.021.07-.021.07-.021.071-.022.07-.021.071-.021.07-.021.07-.022.071-.021.07-.021.071-.021.07-.022.07-.021.071a62.937 62.937 0 01-.042.141l-.022.07-.021.07-.021.071-.021.07-.022.071-.021.07-.021.07-.021.071-.022.07-.021.07-.021.071-.021.07-.022.071-.021.07-.021.07-.021.071-.022.07-.021.071-.021.07-.021.07-.022.071-.021.07-.021.071-.021.07-.022.07-.021.071-.021.07-.021.071-.022.07-.021.07-.021.071-.021.07-.022.07-.021.071-.021.07-.021.071-.022.07-.021.07-.021.071-.021.07-.022.071-.021.07-.021.07-.021.071-.022.07-.021.071-.021.07-.021.07-.022.071-.021.07-.021.07-.021.071-.022.07-.021.071-.021.07-.021.07-.022.071-.021.07-.021.071-.021.07-.022.07-.021.071-.021.07-.021.071-.022.07-.021.07-.021.071-.021.07-.022.071-.021.07-.021.07-.021.071-.022.07-.021.07-.021.071-.021.07-.022.071-.021.07-.021.07-.021.071-.022.07-.021.071-.021.07-.021.07-.022.071-.021.07-.021.071-.021.07-.022.07-.021.071a62.937 62.937 0 00-.042.141l-.022.07-.021.07a62.937 62.937 0 01-.042.142l-.022.07-.021.07-.021.07-.021.071-.022.07a62.937 62.937 0 00-.063.212l-.022.07-.021.07-.021.07-.021.071-.022.07-.021.071-.021.07-.021.07-.022.071-.021.07-.021.07-.021.071-.022.07-.021.071-.021.07-.021.07-.022.071-.021.07-.021.071-.021.07-.022.07-.021.071-.021.07-.021.071-.022.07-.021.07-.021.071-.021.07-.022.071-.021.07-.021.07-.021.071-.022.07-.021.07-.021.071-.021.07-.022.071-.021.07-.021.07-.021.071-.022.07-.021.071-.021.07-.021.07-.022.071-.021.07-.021.071-.021.07-.022.07-.021.071-.021.07-.021.071-.022.07-.021.07-.021.071-.021.07-.022.07-.021.071-.021.07-.021.071-.022.07-.021.07-.021.071-.021.07-.022.071-.021.07-.021.07-.021.071-.022.07-.021.071-.021.07-.021.07-.022.071-.021.07-.021.07-.021.071-.022.07-.021.071-.021.07-.021.07-.022.071-.021.07a62.937 62.937 0 00-.042.142l-.022.07-.021.07-.021.07-.021.071-.022.07-.021.07-.021.071-.021.07-.022.071a62.937 62.937 0 00-.063.211l-.022.07-.021.07-.021.071-.021.07-.022.071-.021.07-.021.07-.021.071-.022.07-.021.071-.021.07-.021.07-.022.071-.021.07-.021.071-.021.07-.022.07-.021.071-.021.07-.021.071-.022.07-.021.07-.021.071-.021.07-.022.07-.021.071-.021.07-.021.071-.022.07-.021.07a62.937 62.937 0 00-.042.142l-.022.07-.021.07-.021.07-.021.071-.022.07-.021.071-.021.07-.021.07-.022.071-.021.07-.021.07-.021.071-.022.07-.021.071-.021.07-.021.07-.022.071-.021.07a62.937 62.937 0 00-.042.141l-.022.07-.021.071-.021.07-.021.071-.022.07-.021.07-.021.071-.021.07-.022.071-.021.07-.021.07-.021.071-.022.07-.021.07-.021.071-.021.07-.022.071-.021.07-.021.07-.021.071-.022.07-.021.071-.021.07-.021.07-.022.071-.021.07-.021.071-.021.07-.022.07-.021.071-.021.07-.021.071-.022.07-.021.07-.021.071-.021.07-.022.07-.021.071-.021.07-.021.071-.022.07-.021.07a62.937 62.937 0 00-.042.142l-.022.07-.021.07-.021.07-.021.071-.022.07-.021.071-.021.07-.021.07-.022.071-.021.07-.021.07-.021.071-.022.07-.021.071-.021.07-.021.07-.022.071-.021.07-.021.071-.021.07-.022.07-.021.071-.021.07-.021.071-.022.07-.021.07-.021.071-.021.07-.022.071-.021.07-.021.07-.021.071-.022.07-.021.07-.021.071-.021.07-.022.071-.021.07-.021.07-.021.071-.022.07-.021.071-.021.07-.021.07-.022.071-.021.07-.021.071-.021.07-.022.07-.021.071-.021.07-.021.071-.022.07-.021.07a62.937 62.937 0 01-.042.141l-.022.07-.021.071-.021.07-.021.071-.022.07-.021.07-.021.071-.021.07-.022.071-.021.07-.021.07-.021.071-.022.07-.021.071-.021.07-.021.07-.022.071-.021.07-.021.07-.021.071-.022.07-.021.071-.021.07-.021.07-.022.071-.021.07-.021.071-.021.07-.022.07-.021.071-.021.07-.021.071-.022.07-.021.07-.021.071-.021.07-.022.071-.021.07-.021.07-.021.071-.022.07-.021.07a62.937 62.937 0 01-.042.142l-.022.07-.021.07-.021.07-.021.071-.022.07-.021.071-.021.07-.021.07-.022.071-.021.07-.021.071-.021.07-.022.07-.021.071-.021.07-.021.071-.022.07-.021.07-.021.071-.021.07-.022.07-.021.071-.021.07-.021.071-.022.07-.021.07-.021.071-.021.07-.022.071-.021.07-.021.07-.021.071-.022.07-.021.071 1.915.578.021-.07.021-.07.022-.071.021-.07.021-.07.021-.071.022-.07.021-.071.021-.07.021-.07a1.9 1.9 0 01.022-.071l.021-.07.021-.071.021-.07.022-.07.021-.071.021-.07.021-.071.022-.07.021-.07.021-.071.021-.07a62.937 62.937 0 00.043-.14l.021-.072.021-.07.022-.07.021-.07.021-.071.021-.07a1.9 1.9 0 01.022-.071l.021-.07.021-.07.021-.071.022-.07.021-.071.021-.07.021-.07.022-.071.021-.07.021-.071.021-.07a1.9 1.9 0 01.022-.07l.021-.071.021-.07.021-.071.022-.07.021-.07.021-.071a62.937 62.937 0 01.043-.14l.021-.071.021-.07.021-.071a1.9 1.9 0 01.022-.07l.021-.07.021-.071.021-.07.022-.071.021-.07.021-.07.021-.071a1.9 1.9 0 01.022-.07l.021-.071.021-.07.021-.07.022-.071.021-.07.021-.071.021-.07.022-.07.021-.071.021-.07.021-.07a1.9 1.9 0 01.022-.071l.021-.07.021-.071.021-.07.022-.07.021-.071.021-.07.021-.071.022-.07.021-.07.021-.071.021-.07a1.9 1.9 0 01.022-.071l.021-.07.021-.07.021-.071.022-.07.021-.07.021-.071a62.937 62.937 0 01.043-.141l.021-.07.021-.07.021-.071.022-.07.021-.071.021-.07.021-.07.022-.071.021-.07.021-.071.021-.07a1.9 1.9 0 01.022-.07l.021-.071.021-.07.021-.071.022-.07.021-.07.021-.071.021-.07.022-.07.021-.071.021-.07.021-.071a62.937 62.937 0 00.064-.211l.021-.07.022-.071.021-.07a62.937 62.937 0 01.064-.212l.021-.07.021-.07.021-.07.022-.071.021-.07.021-.071.021-.07.022-.07.021-.071.021-.07.021-.07a1.9 1.9 0 01.022-.071l.021-.07.021-.071.021-.07.022-.07.021-.071.021-.07.021-.071.022-.07.021-.07.021-.071.021-.07a1.9 1.9 0 01.022-.071l.021-.07.021-.07.021-.071.022-.07.021-.07.021-.071.021-.07a1.9 1.9 0 01.022-.071l.021-.07.021-.07.021-.071.022-.07a62.937 62.937 0 00.042-.142l.021-.07.022-.07.021-.07.021-.071.021-.07a1.9 1.9 0 01.022-.07l.021-.071.021-.07.021-.071.022-.07.021-.07.021-.071.021-.07.022-.07.021-.071.021-.07.021-.071a1.9 1.9 0 01.022-.07l.021-.07.021-.071.021-.07.022-.071.021-.07.021-.07.021-.071a1.9 1.9 0 01.022-.07l.021-.071.021-.07.021-.07.022-.071.021-.07.021-.07.021-.071.022-.07.021-.071.021-.07.021-.07a1.9 1.9 0 01.022-.071l.021-.07.021-.071.021-.07.022-.07.021-.071.021-.07.021-.071.022-.07.021-.07.021-.071.021-.07a62.937 62.937 0 00.043-.14l.021-.072.021-.07.022-.07.021-.07.021-.071a62.937 62.937 0 01.043-.141l.021-.07.021-.07.021-.071.022-.07.021-.071.021-.07.021-.07.022-.071.021-.07.021-.071.021-.07a1.9 1.9 0 01.022-.07l.021-.071.021-.07.021-.071.022-.07.021-.07.021-.071.021-.07.022-.07.021-.071.021-.07.021-.071a1.9 1.9 0 01.022-.07l.021-.07.021-.071.021-.07.022-.071.021-.07.021-.07.021-.071a1.9 1.9 0 01.022-.07l.021-.071.021-.07.021-.07.022-.071.021-.07.021-.071.021-.07.022-.07.021-.071.021-.07.021-.07a1.9 1.9 0 01.022-.071l.021-.07.021-.071.021-.07.022-.07.021-.071.021-.07.021-.071.022-.07.021-.07.021-.071.021-.07a1.9 1.9 0 01.022-.071l.021-.07.021-.07.021-.071.022-.07.021-.07.021-.071.021-.07a1.9 1.9 0 01.022-.071l.021-.07.021-.07.021-.071.022-.07.021-.071.021-.07.021-.07.022-.071.021-.07.021-.071.021-.07a1.9 1.9 0 01.022-.07l.021-.071.021-.07.021-.071.022-.07.021-.07.021-.071.021-.07.022-.07.021-.071.021-.07.021-.071a1.9 1.9 0 01.022-.07l.021-.07.021-.071.021-.07.022-.071.021-.07.021-.07.021-.071a1.9 1.9 0 01.022-.07l.021-.071.021-.07.021-.07.022-.071.021-.07.021-.07.021-.071.022-.07.021-.071.021-.07.021-.07a1.9 1.9 0 01.022-.071l.021-.07.021-.071.021-.07.022-.07.021-.071.021-.07.021-.071.022-.07.021-.07.021-.071.021-.07a1.9 1.9 0 01.022-.071l.021-.07.021-.07.021-.071.022-.07.021-.07.021-.071.021-.07a1.9 1.9 0 01.022-.071l.021-.07.021-.07.021-.071.022-.07.021-.071.021-.07.021-.07.022-.071.021-.07.021-.071.021-.07a1.9 1.9 0 01.022-.07l.021-.071.021-.07.021-.071.022-.07.021-.07.021-.071.021-.07.022-.07.021-.071.021-.07.021-.071a62.937 62.937 0 00.064-.211l.021-.07.022-.071a62.937 62.937 0 01.042-.14l.021-.071a1.9 1.9 0 01.022-.07l.021-.071.021-.07.021-.07.022-.071.021-.07.021-.071.021-.07.022-.07.021-.071.021-.07.021-.07a1.9 1.9 0 01.022-.071l.021-.07.021-.071.021-.07.022-.07.021-.071.021-.07a62.937 62.937 0 01.043-.141l.021-.07.021-.071.021-.07a1.9 1.9 0 01.022-.071l.021-.07.021-.07.021-.071.022-.07.021-.07.021-.071a62.937 62.937 0 01.043-.141l.021-.07.021-.07.021-.071.022-.07.021-.071.021-.07.021-.07.022-.071.021-.07.021-.071.021-.07a1.9 1.9 0 01.022-.07l.021-.071.021-.07.021-.071.022-.07.021-.07.021-.071.021-.07.022-.07.021-.071.021-.07.021-.071a1.9 1.9 0 01.022-.07l.021-.07.021-.071.021-.07.022-.071.021-.07.021-.07.021-.071a1.9 1.9 0 01.022-.07l.021-.071.021-.07.021-.07.022-.071.021-.07.021-.071.021-.07.022-.07.021-.071.021-.07.021-.07a1.9 1.9 0 01.022-.071l.021-.07.021-.071.021-.07.022-.07.021-.071.021-.07.021-.071.022-.07.021-.07.021-.071.021-.07a62.937 62.937 0 00.064-.211l.021-.071.022-.07a62.937 62.937 0 01.085-.282l.021-.07.021-.07.021-.071.022-.07.021-.071.021-.07.021-.07.022-.071.021-.07.021-.071.021-.07a1.9 1.9 0 01.022-.07l.021-.071.021-.07.021-.071.022-.07.021-.07.021-.071.021-.07.022-.07.021-.071.021-.07.021-.071a1.9 1.9 0 01.022-.07l.021-.07.021-.071.021-.07.022-.071.021-.07.021-.07.021-.071a1.9 1.9 0 01.022-.07l.021-.071-1.915-.578zm-10.879 36.038c-3.622 11.884-7.413 23.257-11.373 34.118l1.879.686c3.973-10.898 7.776-22.306 11.407-34.222l-1.913-.582zM463.87 121h-24.31v2h24.31v-2zm-23.36.687c-5.999-18.224-11.603-37.469-16.811-57.736l-1.937.498c5.218 20.306 10.834 39.594 16.849 57.864l1.899-.626zm-16.81-57.73c-5.096-20.273-9.626-40.26-13.589-59.964l-1.961.394c3.97 19.736 8.507 39.755 13.611 60.057l1.939-.488zM409.13 5.19h28.73v-2h-28.73v2zm27.745-.833a1215.868 1215.868 0 003.743 20.927l1.965-.368a1225.1 1225.1 0 01-3.737-20.893l-1.971.334zm3.743 20.93a1815.218 1815.218 0 004.252 21.602l1.96-.398a1812.324 1812.324 0 01-4.247-21.578l-1.965.374zm4.252 21.602a1683.387 1683.387 0 004.423 21.093l1.955-.424a1657.513 1657.513 0 01-4.418-21.067l-1.96.398zm4.427 21.108c1.589 6.81 3.179 13.114 4.769 18.908l1.929-.53c-1.583-5.766-3.166-12.043-4.751-18.832l-1.947.454zm6.672 18.988a357.751 357.751 0 005.967-17.73l-1.911-.59a356.938 356.938 0 01-5.933 17.63l1.877.69zm5.967-17.73c1.928-6.238 3.8-12.477 5.615-18.716l-1.921-.558a1162.211 1162.211 0 01-5.605 18.684l1.911.59zm5.615-18.716a561.512 561.512 0 004.939-18.052l-1.939-.494a555.063 555.063 0 01-4.921 17.988l1.921.558zm4.934-18.034c1.586-5.78 3.003-10.937 4.25-15.47l-1.929-.53-4.25 15.47 1.929.53zm3.285-14.735h22.61v-2h-22.61v2zm127.411 60.88l-.959.28.003.012.003.01.953-.302zm6.121 12.07l-.794.608.011.015.012.015.771-.638zm9.859 7.65l.426-.905-.426.905zm26.35 0l-.415-.91-.01.005.425.905zm9.86-7.65l-.78-.625-.003.004.783.621zm6.121-12.07l-.954-.302-.003.01-.003.011.96.281zm0-31.28l-.962.275.004.013.004.014.954-.302zm-6.121-12.07l-.793.608.011.015.012.015.77-.638zm-9.86-7.82l-.425.905.01.005.415-.91zm-26.35.17l.426.905.011-.005.011-.006-.448-.894zm-9.859 7.82l-.781-.625-.003.004.784.621zm-6.121 12.07l-.955-.296-.002.008-.002.007.959.281zm83.301 42.16l-.93-.37-.003.008.933.362zm-12.24 19.21l.699.715.008-.008-.707-.707zm-18.7 11.56l-.339-.941-.004.002.343.939zm-64.601-11.56l-.699.715.008.007.691-.722zM578.362 89.7l-.93.369.002.005.928-.374zm.169-53.21l.923.386.002-.005-.925-.381zm12.75-19.38l-.691-.722-.008.007.699.715zm18.701-11.73l-.343-.94-.005.002.348.938zm45.219 0l.343-.94-.343.94zm18.7 11.73l.7-.715-.7.715zm12.581 19.38l-.93.369.002.005.928-.374zm-86.341 26.52c0 5.857.689 11.167 2.081 15.92l1.919-.56c-1.329-4.54-2-9.657-2-15.36h-2zm2.087 15.942c1.504 4.742 3.594 8.873 6.28 12.376l1.587-1.216c-2.527-3.297-4.517-7.213-5.96-11.764l-1.907.604zm6.303 12.406a29.28 29.28 0 0010.205 7.917l.851-1.81a27.272 27.272 0 01-9.515-7.383l-1.541 1.276zm10.205 7.917c4.007 1.886 8.577 2.815 13.686 2.815v-2c-4.865 0-9.136-.884-12.835-2.625l-.851 1.81zm13.686 2.815c4.999 0 9.511-.931 13.515-2.815l-.851-1.81c-3.702 1.742-7.917 2.625-12.664 2.625v2zm13.505-2.81c4.105-1.877 7.519-4.523 10.228-7.939l-1.567-1.242c-2.505 3.158-5.663 5.611-9.492 7.361l.831 1.82zm10.225-7.935c2.81-3.513 4.907-7.656 6.299-12.414l-1.919-.562c-1.328 4.536-3.311 8.439-5.941 11.726l1.561 1.25zm6.293-12.393c1.509-4.76 2.256-10.078 2.256-15.942h-2c0 5.696-.726 10.805-2.163 15.338l1.907.604zm2.256-15.942c0-5.864-.747-11.182-2.256-15.942l-1.907.604c1.437 4.533 2.163 9.642 2.163 15.338h2zm-2.248-15.915c-1.392-4.871-3.49-9.024-6.311-12.433l-1.541 1.276c2.619 3.164 4.601 7.058 5.929 11.707l1.923-.55zm-6.288-12.403c-2.708-3.533-6.125-6.241-10.238-8.122l-.831 1.82c3.821 1.746 6.977 4.25 9.482 7.518l1.587-1.216zm-10.228-8.117c-4.004-1.884-8.516-2.815-13.515-2.815v2c4.747 0 8.962.883 12.664 2.625l.851-1.81zm-13.515-2.815c-5.118 0-9.695.99-13.708 2.996l.895 1.788c3.694-1.847 7.957-2.784 12.813-2.784v-2zm-13.686 2.985c-3.995 1.88-7.402 4.584-10.215 8.1l1.561 1.25c2.627-3.284 5.793-5.793 9.505-7.54l-.851-1.81zm-10.218 8.104c-2.697 3.4-4.789 7.539-6.292 12.395l1.911.592c1.443-4.664 3.431-8.571 5.948-11.745l-1.567-1.242zm-6.296 12.41c-1.391 4.752-2.081 10.005-2.081 15.751h2c0-5.587.671-10.648 2-15.19l-1.919-.56zm87.849 15.751c0 9.987-1.514 18.754-4.519 26.321l1.859.738c3.115-7.847 4.66-16.873 4.66-27.059h-2zm-4.522 26.328c-2.901 7.478-6.909 13.76-12.015 18.865l1.415 1.414c5.321-5.321 9.473-11.846 12.465-19.555l-1.865-.724zm-12.007 18.857c-5.105 4.994-11.213 8.773-18.339 11.334l.677 1.882c7.38-2.652 13.739-6.58 19.061-11.786l-1.399-1.43zm-18.343 11.336c-7.021 2.563-14.611 3.849-22.777 3.849v2c8.379 0 16.203-1.32 23.462-3.971l-.685-1.878zm-22.777 3.849c-7.937 0-15.414-1.285-22.438-3.849l-.685 1.878c7.256 2.649 14.966 3.971 23.123 3.971v-2zm-22.438-3.849c-7.014-2.561-13.127-6.342-18.351-11.343l-1.383 1.444c5.43 5.199 11.783 9.125 19.049 11.777l.685-1.878zm-18.343-11.336c-5.219-5.107-9.339-11.39-12.352-18.869l-1.855.748c3.106 7.709 7.373 14.232 12.808 19.551l1.399-1.43zm-12.35-18.864c-3.005-7.567-4.52-16.334-4.52-26.321h-2c0 10.186 1.546 19.212 4.661 27.059l1.859-.738zm-4.52-26.321c0-9.983 1.571-18.687 4.683-26.134l-1.845-.772c-3.235 7.74-4.838 16.716-4.838 26.906h2zm4.685-26.14c3.128-7.595 7.306-13.937 12.525-19.045l-1.399-1.43c-5.434 5.32-9.756 11.897-12.975 19.714l1.849.762zm12.517-19.038c5.342-5.12 11.459-8.956 18.356-11.514l-.695-1.876c-7.156 2.655-13.506 6.639-19.044 11.946l1.383 1.444zm18.351-11.513c7.027-2.565 14.391-3.849 22.098-3.849v-2c-7.934 0-15.53 1.323-22.783 3.97l.685 1.88zm22.098-3.849c7.936 0 15.413 1.285 22.437 3.85l.685-1.88C648.288 1.793 640.578.47 632.422.47v2zm22.437 3.85c7.009 2.558 13.12 6.393 18.343 11.505l1.399-1.43c-5.43-5.314-11.786-9.3-19.057-11.954l-.685 1.878zm18.343 11.505c5.216 5.105 9.336 11.443 12.35 19.034l1.859-.738c-3.106-7.822-7.373-14.404-12.81-19.726l-1.399 1.43zm12.352 19.039c3.002 7.45 4.517 16.159 4.517 26.146h2c0-10.186-1.544-19.158-4.662-26.894l-1.855.748zM788.318 12.35l-.559.829.007.005.552-.834zm8.33 49.47l-.804-.594-.002.003.806.591zm-16.32 12.07l-.381-.924-1.238.51.841 1.042.778-.628zm7.48 10.2l-.828.56.008.012.82-.572zm7.65 11.9l-.859.511.008.014.008.013.843-.538zm7.48 12.92l-.885.465.005.009.88-.474zm6.63 13.09v1h1.58l-.676-1.428-.904.428zm-29.75 0l-.873.488.286.512h.587v-1zm-6.63-11.73l-.879.477.005.01.006.009.868-.496zm-6.8-11.56l-.855.518.006.01.005.009.844-.537zm-6.8-10.54l-.832.555.004.006.005.007.823-.568zm-6.8-9.18l.768-.64-.299-.36h-.469v1zm-13.09 0v-1h-1v1h1zm0 43.01v1h1v-1h-1zm-26.52 0h-1v1h1v-1zm0-116.11l-.192-.981-.808.158v.823h1zm17.85-2.38l-.072-.997h-.002l.074.997zm12.92 22.1l-.071-.997h-.006l.077.997zm-4.25.34l-.083-.997-.917.077v.92h1zm0 31.96h-1v1h1v-1zm28.9-3.74l-.501-.865.501.865zm-.17-24.99l-.501.865.013.008.014.008.474-.881zm-20.74-25.35c17.584 0 30.898 3.16 40.071 9.349l1.118-1.658c-9.64-6.504-23.412-9.691-41.189-9.691v2zm40.078 9.354c9.075 6.013 13.662 15.413 13.662 28.406h2c0-13.527-4.819-23.62-14.558-30.074l-1.104 1.668zm13.662 28.406c0 8.119-1.889 14.637-5.584 19.636l1.608 1.188c4.012-5.427 5.976-12.396 5.976-20.824h-2zm-5.586 19.639c-3.61 4.922-8.887 8.844-15.895 11.737l.763 1.848c7.272-3 12.874-7.125 16.745-12.403l-1.613-1.182zm-16.292 13.29c2.359 2.92 4.836 6.296 7.43 10.131l1.656-1.12c-2.619-3.872-5.129-7.295-7.53-10.268l-1.556 1.256zm7.438 10.143a194.973 194.973 0 017.611 11.84l1.719-1.023a197.221 197.221 0 00-7.689-11.96l-1.641 1.143zm7.627 11.866a174.446 174.446 0 017.438 12.847l1.771-.93a176.673 176.673 0 00-7.523-12.993l-1.686 1.076zm7.443 12.856a284.01 284.01 0 016.606 13.044l1.808-.856a286.486 286.486 0 00-6.653-13.136l-1.761.948zm7.51 11.616h-29.75v2h29.75v-2zm-28.877.512a1388.667 1388.667 0 00-6.635-11.738l-1.736.992c2.265 3.964 4.473 7.871 6.625 11.722l1.746-.976zm-6.624-11.719a194.43 194.43 0 00-6.835-11.62l-1.688 1.074a191.569 191.569 0 016.765 11.5l1.758-.954zm-6.824-11.601a214.239 214.239 0 00-6.832-10.59l-1.646 1.136a212.399 212.399 0 016.768 10.49l1.71-1.036zm-6.823-10.577c-2.283-3.425-4.571-6.514-6.864-9.265l-1.536 1.28c2.241 2.69 4.486 5.72 6.736 9.095l1.664-1.11zm-7.632-9.625h-13.09v2h13.09v-2zm-14.09 1V122h2V78.99h-2zm1 42.01h-26.52v2h26.52v-2zm-25.52 1V5.89h-2V122h2zm-.807-115.129a149.45 149.45 0 0117.731-2.364l-.148-1.994a151.441 151.441 0 00-17.968 2.396l.385 1.962zm17.73-2.364c6.215-.452 11.744-.677 16.587-.677v-2c-4.903 0-10.481.228-16.732.683l.145 1.994zm18.117 19.933c-1.946 0-3.726.057-5.341.172l.142 1.996a73.419 73.419 0 015.199-.168v-2zm-5.347.173a666.46 666.46 0 00-4.256.34l.166 1.994c1.358-.114 2.772-.227 4.244-.34l-.154-1.994zm-5.173 1.337v31.96h2V25.95h-2zm1 32.96h7.48v-2h-7.48v2zm7.48 0c10.005 0 17.373-1.242 21.921-3.875l-1.002-1.73c-4.065 2.353-10.977 3.605-20.919 3.605v2zm21.921-3.875c4.684-2.711 6.959-7.338 6.959-13.615h-2c0 5.737-2.032 9.61-5.961 11.885l1.002 1.73zm6.959-13.615c0-6.08-2.356-10.536-7.156-13.12l-.948 1.76c4.041 2.176 6.104 5.88 6.104 11.36h2zm-7.129-13.105c-4.532-2.624-11.144-3.875-19.711-3.875v2c8.434 0 14.627 1.242 18.709 3.605l1.002-1.73zM896.097 122l-.851.525.293.475h.558v-1zm-8.5-12.41l-.819.573.008.012.008.012.803-.597zm-10.54-13.43l-.772.636.009.01.009.011.754-.657zm-11.73-12.92l-.717.697.01.01.707-.707zm-12.24-11.05l.614-.79-1.614-1.255v2.045h1zm0 49.81v1h1v-1h-1zm-26.52 0h-1v1h1v-1zm0-117.81v-1h-1v1h1zm26.52 0h1v-1h-1v1zm0 44.54h-1v2.499l1.724-1.81-.724-.689zm20.74-22.61l-.749-.663.749.663zm19.55-21.93v-1h-.446l-.298.332.744.668zm31.45 0l.764.646 1.39-1.646h-2.154v1zm-24.31 27.54l-.735-.678-.005.005.74.673zm-25.5 26.69l-.707-.707-.776.775.844.701.639-.769zm27.2 27.88l-.777.63.004.005.773-.635zm25.33 35.7v1h1.792l-.941-1.525-.851.525zm-30.599-.525c-2.398-3.883-5.248-8.043-8.549-12.482l-1.605 1.194c3.273 4.401 6.09 8.514 8.452 12.338l1.702-1.05zm-8.532-12.458a161.773 161.773 0 00-10.605-13.514l-1.508 1.314c3.831 4.395 7.323 8.844 10.475 13.346l1.638-1.146zm-10.588-13.493a183.526 183.526 0 00-11.794-12.991l-1.414 1.414a181.51 181.51 0 0111.665 12.85l1.543-1.273zm-11.784-12.981c-4.108-4.223-8.223-7.937-12.343-11.142l-1.228 1.578c4.039 3.142 8.085 6.794 12.137 10.958l1.434-1.394zM852.087 72.19V122h2V72.19h-2zm1 48.81h-26.52v2h26.52v-2zm-25.52 1V4.19h-2V122h2zm-1-116.81h26.52v-2h-26.52v2zm25.52-1v44.54h2V4.19h-2zm1.724 45.23a820.11 820.11 0 0020.765-22.638l-1.498-1.324a819.837 819.837 0 01-20.715 22.582l1.448 1.38zm20.764-22.637a4233.632 4233.632 0 0119.546-21.925l-1.488-1.336c-6.009 6.688-12.527 14-19.555 21.935l1.497 1.326zM893.377 5.19h31.45v-2h-31.45v2zm30.686-1.646a840.056 840.056 0 01-24.281 27.508l1.47 1.356a842.402 842.402 0 0024.339-27.572l-1.528-1.292zm-24.286 27.513a785.173 785.173 0 01-25.467 26.656l1.414 1.414a787.58 787.58 0 0025.532-26.724l-1.479-1.346zm-25.399 28.132c9.35 7.773 18.371 17.018 27.062 27.74l1.554-1.259c-8.763-10.81-17.875-20.152-27.338-28.019l-1.278 1.538zm27.066 27.746c8.809 10.728 17.226 22.591 25.252 35.59l1.702-1.05c-8.068-13.068-16.537-25.005-25.408-35.81l-1.546 1.27zM927.547 121h-31.45v2h31.45v-2zm56.541-20.08l.231.973.016-.004.016-.004-.263-.965zm5.95-2.55l.569.822.021-.014.019-.015-.609-.793zm3.06-3.91l.933.359-.933-.359zm-4.59-14.45l-.584.812.009.006.008.006.567-.824zm-18.7-8.33l-.333.943.008.003.009.003.316-.949zm-11.56-4.59l-.426.905.011.005.011.005.404-.915zm-10.37-6.63l-.665.747.008.007.008.007.649-.761zm-7.48-9.69l-.895.447.006.011.889-.458zm.17-28.56l.903.428.005-.009-.908-.419zm8.67-11.22l-.634-.774.634.774zm13.6-6.97l.285.958.01-.002.009-.003-.304-.953zm38.592 0l-.28.96.28-.96zm14.28 5.61l.94.344.29-.81-.75-.412-.48.878zm-7.65 20.91l-.46.888 1.01.522.39-1.066-.94-.344zm-11.052-4.42l-.325.946.016.005.017.005.292-.956zm-28.22.68l.53.848.009-.006-.539-.842zm-2.55 13.43l.822-.57-.822.57zm4.25 4.08l-.567.824.029.02.031.018.507-.862zm6.46 3.23l-.394.92.026.01.026.01.342-.94zm8.16 2.89l.347-.938-.01-.003-.01-.004-.327.945zm15.982 6.8l-.45.894.01.005.01.004.43-.903zm11.22 7.65l-.71.707.01.007v.006l.7-.72zm-2.55 50.49l.61.789.01-.006-.62-.783zm-48.962 7.99l.16-.987-.013-.002-.013-.002-.134.991zm-11.22-2.21l-.275.962.009.002.266-.964zm-8.33-2.89l-.411.912.009.004.008.003.394-.919zm-5.78-2.89l-.943-.334-.279.787.726.415.496-.868zm7.48-21.08l.481-.877-1.031-.565-.393 1.108.943.334zm12.92 5.27l-.297.955.012.004.013.003.272-.962zm19.04 3.21c3.781 0 6.927-.286 9.411-.877l-.463-1.946c-2.275.542-5.25.823-8.948.823v2zm9.443-.885c2.558-.698 4.658-1.587 6.256-2.693l-1.138-1.644c-1.349.934-3.216 1.745-5.644 2.407l.526 1.93zm6.296-2.722c1.593-1.226 2.741-2.67 3.384-4.344l-1.867-.718c-.489 1.273-1.382 2.435-2.736 3.476l1.219 1.586zm3.384-4.344c.617-1.604.917-3.371.917-5.289h-2c0 1.709-.267 3.228-.784 4.571l1.867.718zm.917-5.289c0-4.233-2.02-7.695-5.874-10.344l-1.133 1.648c3.4 2.338 5.007 5.223 5.007 8.696h2zm-5.857-10.332c-3.756-2.7-10.112-5.515-18.967-8.467l-.632 1.898c8.824 2.941 14.935 5.68 18.432 8.193l1.167-1.624zm-18.95-8.461a162.26 162.26 0 01-11.49-4.562l-.807 1.83c3.876 1.71 7.753 3.25 11.631 4.618l.666-1.886zm-11.467-4.552c-3.778-1.778-7.159-3.94-10.148-6.486l-1.297 1.522c3.132 2.668 6.664 4.925 10.593 6.774l.852-1.81zm-10.132-6.472c-2.965-2.636-5.383-5.767-7.255-9.401l-1.778.916c1.981 3.846 4.55 7.175 7.704 9.98l1.329-1.495zm-7.25-9.39c-1.841-3.683-2.784-8.169-2.784-13.493h-2c0 5.556.983 10.363 2.995 14.387l1.789-.894zm-2.784-13.493c0-5.313.995-10.037 2.963-14.192l-1.807-.856c-2.112 4.458-3.156 9.48-3.156 15.048h2zm2.968-14.2c1.977-4.284 4.773-7.903 8.395-10.866l-1.267-1.548c-3.858 3.157-6.841 7.018-8.944 11.575l1.816.838zm8.395-10.866c3.623-2.964 8.034-5.231 13.252-6.786l-.571-1.916c-5.435 1.618-10.091 3.998-13.948 7.154l1.267 1.548zm13.271-6.791c5.211-1.664 11.113-2.503 17.716-2.503v-2c-6.771 0-12.882.86-18.324 2.597l.608 1.906zm17.716-2.503c7.866 0 14.623.843 20.292 2.51l.56-1.92C995.815 1.328 988.858.47 980.858.47v2zm20.292 2.51c5.73 1.687 10.42 3.533 14.08 5.528l.96-1.756c-3.83-2.085-8.66-3.979-14.48-5.691l-.56 1.918zm13.62 4.306l-7.65 20.91 1.88.688 7.65-20.91-1.88-.688zm-6.25 20.366c-3.35-1.732-7.09-3.227-11.22-4.488l-.584 1.912c4.034 1.232 7.654 2.684 10.884 4.352l.92-1.776zm-11.188-4.478c-4.1-1.406-9.033-2.094-14.774-2.094v2c5.592 0 10.293.672 14.125 1.986l.649-1.892zm-14.774-2.094c-6.395 0-11.226.905-14.309 2.878l1.078 1.684c2.584-1.653 6.932-2.562 13.231-2.562v-2zm-14.3 2.872c-3.055 1.91-4.55 4.92-4.55 8.838h2c0-3.335 1.225-5.651 3.61-7.142l-1.06-1.696zm-4.55 8.838c0 2.315.55 4.337 1.708 6.01l1.644-1.14c-.883-1.274-1.352-2.878-1.352-4.87h-2zm1.708 6.01c1.102 1.592 2.614 3.034 4.505 4.334l1.133-1.648c-1.735-1.193-3.057-2.471-3.994-3.825l-1.644 1.138zm4.565 4.372c1.968 1.158 4.16 2.253 6.573 3.287l.788-1.838c-2.347-1.006-4.462-2.064-6.347-3.173l-1.014 1.724zm6.625 3.308a560.49 560.49 0 008.175 2.895l.654-1.89a559.383 559.383 0 01-8.146-2.885l-.683 1.88zm8.154 2.888c6.095 2.257 11.387 4.51 15.88 6.756l.89-1.788c-4.569-2.287-9.93-4.568-16.075-6.844l-.695 1.876zm15.9 6.765c4.45 2.114 8.09 4.603 10.94 7.454l1.41-1.414c-3.04-3.042-6.88-5.654-11.49-7.846l-.86 1.806zm10.95 7.467a26.438 26.438 0 016.56 9.998l1.88-.696A28.567 28.567 0 001013 64.16l-1.39 1.44zm6.56 9.998c1.42 3.825 2.15 8.516 2.15 14.102h2c0-5.748-.75-10.69-2.27-14.798l-1.88.696zm2.15 14.102c0 10.729-3.75 18.98-11.18 24.887l1.24 1.566c7.98-6.333 11.94-15.195 11.94-26.453h-2zm-11.18 24.881c-7.45 5.81-18.806 8.799-34.232 8.799v2c15.627 0 27.502-3.018 35.462-9.221l-1.23-1.578zm-34.232 8.799c-5.172 0-9.82-.337-13.95-1.007l-.32 1.974c4.256.69 9.014 1.033 14.27 1.033v-2zm-13.976-1.011c-4.159-.562-7.854-1.291-11.088-2.183l-.532 1.928c3.339.921 7.124 1.666 11.352 2.237l.268-1.982zm-11.08-2.181c-3.143-.898-5.878-1.848-8.21-2.847l-.788 1.838c2.427 1.041 5.245 2.017 8.449 2.933l.549-1.924zm-8.194-2.84c-2.247-1.011-4.143-1.96-5.694-2.846l-.992 1.736c1.622.927 3.579 1.905 5.865 2.934l.821-1.824zm-5.248-1.644l7.48-21.08-1.885-.668-7.48 21.08 1.885.668zm6.057-20.537c3.587 1.967 7.96 3.748 13.104 5.348l.594-1.91c-5.056-1.573-9.297-3.306-12.736-5.192l-.962 1.754zm13.129 5.355c5.328 1.506 11.772 2.248 19.312 2.248v-2c-7.421 0-13.67-.731-18.768-2.172l-.544 1.924zM1188.55 78.65l-.96.28.01.012v.01l.95-.302zm6.12 12.07l-.79.608.01.015.01.015.77-.638zm9.86 7.65l.43-.905-.43.905zm26.35 0l-.41-.91-.01.005.42.905zm9.86-7.65l-.78-.625v.004l.78.621zm6.12-12.07l-.95-.302v.01l-.01.011.96.281zm0-31.28l-.96.275.01.013v.014l.95-.302zm-6.12-12.07l-.79.608.01.015.01.015.77-.638zm-9.86-7.82l-.42.905.01.005.41-.91zm-26.35.17l.43.905.01-.005.01-.006-.45-.894zm-9.86 7.82l-.78-.625v.004l.78.621zm-6.12 12.07l-.95-.296-.01.008v.007l.96.281zm83.3 42.16l-.93-.37v.008l.93.362zm-12.24 19.21l.7.715.01-.008-.71-.707zm-18.7 11.56l-.34-.941v.002l.34.939zm-64.6-11.56l-.7.715.01.007.69-.722zm-12.58-19.21l-.93.369.01.005.92-.374zm.17-53.21l.93.386v-.005l-.93-.381zm12.75-19.38l-.69-.722-.01.007.7.715zm18.7-11.73l-.34-.94-.01.002.35.938zm45.22 0l.35-.94-.35.94zm18.7 11.73l.7-.715-.7.715zm12.58 19.38l-.93.369.01.005.92-.374zm-86.34 26.52c0 5.857.69 11.167 2.08 15.92l1.92-.56c-1.33-4.54-2-9.657-2-15.36h-2zm2.09 15.942c1.5 4.742 3.59 8.873 6.28 12.376l1.59-1.216c-2.53-3.297-4.52-7.213-5.96-11.764l-1.91.604zm6.3 12.406c2.82 3.4 6.22 6.04 10.21 7.917l.85-1.81a27.326 27.326 0 01-9.52-7.383l-1.54 1.276zm10.21 7.917c4 1.886 8.57 2.815 13.68 2.815v-2c-4.86 0-9.13-.884-12.83-2.625l-.85 1.81zm13.68 2.815c5 0 9.51-.931 13.52-2.815l-.85-1.81c-3.71 1.742-7.92 2.625-12.67 2.625v2zm13.51-2.81c4.1-1.877 7.52-4.523 10.23-7.939l-1.57-1.242c-2.51 3.158-5.66 5.611-9.49 7.361l.83 1.82zm10.22-7.935c2.81-3.513 4.91-7.656 6.3-12.414l-1.92-.562c-1.32 4.536-3.31 8.439-5.94 11.726l1.56 1.25zm6.3-12.393c1.51-4.76 2.25-10.078 2.25-15.942h-2c0 5.696-.72 10.805-2.16 15.338l1.91.604zm2.25-15.942c0-5.864-.74-11.182-2.25-15.942l-1.91.604c1.44 4.533 2.16 9.642 2.16 15.338h2zm-2.25-15.915c-1.39-4.871-3.49-9.024-6.31-12.433l-1.54 1.276c2.62 3.164 4.6 7.058 5.93 11.707l1.92-.55zm-6.28-12.403c-2.71-3.533-6.13-6.241-10.24-8.122l-.83 1.82c3.82 1.746 6.97 4.25 9.48 7.518l1.59-1.216zm-10.23-8.117c-4.01-1.884-8.52-2.815-13.52-2.815v2c4.75 0 8.96.883 12.67 2.625l.85-1.81zm-13.52-2.815c-5.11 0-9.69.99-13.7 2.996l.89 1.788c3.69-1.847 7.96-2.784 12.81-2.784v-2zm-13.68 2.985c-4 1.88-7.41 4.584-10.22 8.1l1.56 1.25c2.63-3.284 5.8-5.793 9.51-7.54l-.85-1.81zm-10.22 8.104c-2.7 3.4-4.79 7.539-6.29 12.395l1.91.592c1.44-4.664 3.43-8.571 5.95-11.745l-1.57-1.242zm-6.3 12.41c-1.39 4.752-2.08 10.005-2.08 15.751h2c0-5.587.67-10.648 2-15.19l-1.92-.56zm87.85 15.751c0 9.987-1.51 18.754-4.52 26.321l1.86.738c3.12-7.847 4.66-16.873 4.66-27.059h-2zm-4.52 26.328c-2.9 7.478-6.91 13.76-12.01 18.865l1.41 1.414c5.32-5.321 9.47-11.846 12.46-19.555l-1.86-.724zm-12.01 18.857c-5.1 4.994-11.21 8.773-18.34 11.334l.68 1.882c7.38-2.652 13.74-6.58 19.06-11.786l-1.4-1.43zm-18.34 11.336c-7.02 2.563-14.61 3.849-22.78 3.849v2c8.38 0 16.21-1.32 23.47-3.971l-.69-1.878zm-22.78 3.849c-7.93 0-15.41-1.285-22.43-3.849l-.69 1.878c7.26 2.649 14.97 3.971 23.12 3.971v-2zm-22.43-3.849c-7.02-2.561-13.13-6.342-18.36-11.343l-1.38 1.444c5.43 5.199 11.78 9.125 19.05 11.777l.69-1.878zm-18.35-11.336c-5.22-5.107-9.34-11.39-12.35-18.869l-1.85.748c3.1 7.709 7.37 14.232 12.8 19.551l1.4-1.43zm-12.35-18.864c-3-7.567-4.52-16.334-4.52-26.321h-2c0 10.186 1.55 19.212 4.66 27.059l1.86-.738zm-4.52-26.321c0-9.983 1.57-18.687 4.69-26.134l-1.85-.772c-3.23 7.74-4.84 16.716-4.84 26.906h2zm4.69-26.14c3.13-7.595 7.3-13.937 12.52-19.045l-1.4-1.43c-5.43 5.32-9.75 11.897-12.97 19.714l1.85.762zm12.51-19.038c5.35-5.12 11.46-8.956 18.36-11.514l-.7-1.876c-7.15 2.655-13.5 6.639-19.04 11.946l1.38 1.444zm18.36-11.513c7.02-2.565 14.39-3.849 22.09-3.849v-2c-7.93 0-15.53 1.323-22.78 3.97l.69 1.88zm22.09-3.849c7.94 0 15.42 1.285 22.44 3.85l.69-1.88c-7.26-2.648-14.97-3.97-23.13-3.97v2zm22.44 3.85c7.01 2.558 13.12 6.393 18.34 11.505l1.4-1.43c-5.43-5.314-11.78-9.3-19.05-11.954l-.69 1.878zm18.34 11.505c5.22 5.105 9.34 11.443 12.35 19.034l1.86-.738c-3.1-7.822-7.37-14.404-12.81-19.726l-1.4 1.43zm12.36 19.039c3 7.45 4.51 16.159 4.51 26.146h2c0-10.186-1.54-19.158-4.66-26.894l-1.85.748zm52.27 84.116l-.37.93.01.003.01.003.35-.936zm-14.96-9.69l-.74.677.01.01.01.01.72-.697zm-8.67-14.79l-.95.3v.022l.95-.322zm-2.72-92.31v-1h-1v1h1zm26.52 0h1v-1h-1v1zm1.53 83.3l-.96.287.01.02v.019l.95-.326zm4.42 8.16l-.77.644.02.022.02.02.73-.686zm6.8 4.42l-.33.945.01.004.32-.949zm24.48-4.59l-.7-.717-.01.01.71.707zm6.12-91.29v-1h-1v1h1zm26.52 0h1v-1h-1v1zm-2.89 92.31l-.95-.316.95.316zm-8.84 14.96l.72.697.01-.01-.73-.687zm-36.89 11.92c-8.19 0-15.2-1.122-21.07-3.336l-.7 1.872c6.14 2.319 13.41 3.464 21.77 3.464v-2zm-21.05-3.33c-5.9-2.335-10.76-5.491-14.61-9.457l-1.44 1.394c4.08 4.194 9.19 7.498 15.31 9.923l.74-1.86zm-14.59-9.437c-3.76-4.085-6.58-8.893-8.46-14.435l-1.9.644c1.97 5.791 4.93 10.844 8.88 15.145l1.48-1.354zm-8.46-14.412c-1.78-5.67-2.67-11.915-2.67-18.741h-2c0 7 .92 13.45 2.77 19.34l1.9-.6zm-2.67-18.741V4.19h-2v73.27h2zm-1-72.27h26.52v-2h-26.52v2zm25.52-1v71.06h2V4.19h-2zm0 71.06c0 4.826.52 9.008 1.57 12.527l1.92-.574c-.99-3.282-1.49-7.26-1.49-11.953h-2zm1.58 12.566c1.17 3.376 2.7 6.212 4.6 8.478l1.53-1.288c-1.71-2.04-3.13-4.645-4.24-7.842l-1.89.652zm4.64 8.52c2.04 2.155 4.44 3.718 7.2 4.678l.66-1.888a15.803 15.803 0 01-6.4-4.163l-1.46 1.374zm7.21 4.683c2.84.944 5.89 1.411 9.16 1.411v-2c-3.08 0-5.92-.44-8.52-1.309l-.64 1.898zm9.16 1.411c6.68 0 12.16-2.06 16.35-6.243l-1.42-1.414c-3.75 3.75-8.69 5.657-14.93 5.657v2zm16.34-6.233c4.37-4.248 6.42-11.33 6.42-20.947h-2c0 9.422-2.03 15.828-5.82 19.513l1.4 1.434zm6.42-20.947V4.19h-2v71.06h2zm-1-70.06h26.52v-2h-26.52v2zm25.52-1v73.27h2V4.19h-2zm0 73.27c0 6.82-.95 13.058-2.84 18.724l1.9.632c1.96-5.894 2.94-12.35 2.94-19.356h-2zm-2.84 18.724c-1.88 5.649-4.76 10.507-8.62 14.589l1.46 1.374c4.07-4.305 7.09-9.42 9.06-15.33l-1.9-.633zm-8.61 14.579c-3.85 3.959-8.76 7.057-14.76 9.279l.7 1.876c6.24-2.311 11.41-5.56 15.5-9.761l-1.44-1.394zm-14.76 9.279c-5.98 2.216-13.11 3.338-21.41 3.338v2c8.47 0 15.85-1.145 22.11-3.462l-.7-1.876zM1493.88 12.35l-.55.829v.005l.55-.834zm8.33 49.47l-.8-.594v.003l.8.591zm-16.32 12.07l-.38-.924-1.23.51.84 1.042.77-.628zm7.48 10.2l-.82.56v.012l.82-.572zm7.65 11.9l-.85.511v.014l.01.013.84-.538zm7.48 12.92l-.88.465v.009l.88-.474zm6.63 13.09v1h1.58l-.67-1.428-.91.428zm-29.75 0l-.87.488.29.512h.58v-1zm-6.63-11.73l-.87.477v.01l.01.009.86-.496zm-6.8-11.56l-.85.518v.01l.01.009.84-.537zm-6.8-10.54l-.83.555.01.006v.007l.82-.568zm-6.8-9.18l.77-.64-.3-.36h-.47v1zm-13.09 0v-1h-1v1h1zm0 43.01v1h1v-1h-1zm-26.52 0h-1v1h1v-1zm0-116.11l-.19-.981-.81.158v.823h1zm17.85-2.38l-.07-.997.07.997zm12.92 22.1l-.07-.997.07.997zm-4.25.34l-.08-.997-.92.077v.92h1zm0 31.96h-1v1h1v-1zm28.9-3.74l-.5-.865.5.865zm-.17-24.99l-.5.865.02.008.01.008.47-.881zm-20.74-25.35c17.59 0 30.9 3.16 40.08 9.349l1.11-1.658c-9.64-6.504-23.41-9.691-41.19-9.691v2zm40.08 9.354c9.08 6.013 13.66 15.413 13.66 28.406h2c0-13.527-4.81-23.62-14.55-30.074l-1.11 1.668zm13.66 28.406c0 8.119-1.88 14.637-5.58 19.636l1.61 1.188c4.01-5.427 5.97-12.396 5.97-20.824h-2zm-5.58 19.639c-3.61 4.922-8.89 8.844-15.9 11.737l.77 1.848c7.27-3 12.87-7.125 16.74-12.403l-1.61-1.182zm-16.29 13.29c2.36 2.92 4.83 6.296 7.43 10.131l1.65-1.12c-2.62-3.872-5.13-7.295-7.53-10.268l-1.55 1.256zm7.43 10.143c2.6 3.719 5.13 7.665 7.62 11.84l1.71-1.023c-2.5-4.213-5.06-8.2-7.69-11.96l-1.64 1.143zm7.63 11.866a175.63 175.63 0 017.44 12.847l1.77-.93c-2.39-4.557-4.9-8.888-7.52-12.993l-1.69 1.076zm7.44 12.856c2.38 4.406 4.58 8.754 6.61 13.044l1.81-.856a295.793 295.793 0 00-6.65-13.136l-1.77.948zm7.51 11.616h-29.75v2h29.75v-2zm-28.87.512c-2.16-3.856-4.37-7.769-6.64-11.738l-1.73.992c2.26 3.964 4.47 7.871 6.62 11.722l1.75-.976zm-6.63-11.719c-2.16-3.987-4.44-7.86-6.83-11.62l-1.69 1.074a194.84 194.84 0 016.77 11.5l1.75-.954zm-6.82-11.601a216.453 216.453 0 00-6.83-10.59l-1.65 1.136c2.26 3.269 4.51 6.766 6.77 10.49l1.71-1.036zm-6.82-10.577c-2.29-3.425-4.57-6.514-6.87-9.265l-1.53 1.28c2.24 2.69 4.48 5.72 6.73 9.095l1.67-1.11zm-7.64-9.625h-13.09v2h13.09v-2zm-14.09 1V122h2V78.99h-2zm1 42.01h-26.52v2h26.52v-2zm-25.52 1V5.89h-2V122h2zm-.8-115.129a149.516 149.516 0 0117.73-2.364l-.15-1.994a151.42 151.42 0 00-17.97 2.396l.39 1.962zm17.73-2.364c6.21-.452 11.74-.677 16.58-.677v-2c-4.9 0-10.48.228-16.73.683l.15 1.994zm18.11 19.933c-1.94 0-3.72.057-5.34.172l.15 1.996c1.55-.112 3.29-.168 5.19-.168v-2zm-5.34.173c-1.48.113-2.9.227-4.26.34l.17 1.994c1.36-.114 2.77-.227 4.24-.34l-.15-1.994zm-5.18 1.337v31.96h2V25.95h-2zm1 32.96h7.48v-2h-7.48v2zm7.48 0c10.01 0 17.38-1.242 21.93-3.875l-1.01-1.73c-4.06 2.353-10.97 3.605-20.92 3.605v2zm21.93-3.875c4.68-2.711 6.95-7.338 6.95-13.615h-2c0 5.737-2.03 9.61-5.96 11.885l1.01 1.73zm6.95-13.615c0-6.08-2.35-10.536-7.15-13.12l-.95 1.76c4.04 2.176 6.1 5.88 6.1 11.36h2zm-7.12-13.105c-4.54-2.624-11.15-3.875-19.72-3.875v2c8.44 0 14.63 1.242 18.71 3.605l1.01-1.73zm177.52-11.545l.96-.28-.21-.72h-.75v1zm4.42 15.81l-.96.26v.022l.96-.282zm5.27 18.02l-.96.28.01.007v.008l.95-.295zm5.78 18.7l-.95.295.95-.295zm5.61 17.34l-.94.322 1.08 3.186.83-3.261-.97-.247zm4.42-18.87l-.97-.227v.015l.97.212zm4.42-21.08l-.98-.184.98.184zm3.91-21.59l-.98-.184v.012l.98.172zm3.74-20.91v-1h-.84l-.14.833.98.167zm27.54 0l.98.197.24-1.197h-1.22v1zm-13.77 60.01l-.97-.249v.005l.97.244zM1686.7 122v1h.73l.22-.687-.95-.313zm-24.31 0l-.94.343.24.657h.7v-1zm-11.56-34.17l-.95.297v.003l.95-.3zm-11.05-36.04l.96-.289-.96-3.171-.95 3.171.95.289zm-10.88 36.04l.96.291v-.002l-.96-.289zM1617.51 122v1h.7l.24-.657-.94-.343zm-24.31 0l-.95.313.23.687h.72v-1zm-16.83-57.8l-.97.244v.005l.97-.249zm-13.6-60.01v-1h-1.22l.24 1.197.98-.197zm28.73 0l.99-.167-.14-.833h-.85v1zm3.74 20.91l-.98.184v.003l.98-.187zm4.25 21.59l.98-.2-.98.2zm4.42 21.08l-.97.212v.015l.97-.227zm4.76 18.87l-.96.265.83 3.01 1.07-2.93-.94-.345zm16.49-54.4l-.96-.265v.01l-.01.008.97.247zm4.25-15.47v-1h-.76l-.2.735.96.265zm21.65.28c1.36 4.64 2.83 9.902 4.42 15.79l1.93-.52c-1.59-5.899-3.06-11.176-4.43-15.83l-1.92.56zm4.42 15.812c1.7 5.78 3.46 11.785 5.27 18.017l1.92-.558c-1.81-6.234-3.57-12.242-5.27-18.023l-1.92.564zm5.28 18.033c1.92 6.234 3.85 12.467 5.78 18.7l1.91-.59c-1.93-6.234-3.85-12.467-5.78-18.7l-1.91.59zm5.78 18.7a638.58 638.58 0 005.62 17.367l1.89-.644a629.177 629.177 0 01-5.6-17.313l-1.91.59zm7.53 17.292c1.48-5.793 2.95-12.095 4.43-18.905l-1.95-.424c-1.48 6.79-2.95 13.068-4.42 18.835l1.94.494zm4.43-18.89a503.958 503.958 0 004.43-21.123l-1.97-.368a498.947 498.947 0 01-4.41 21.037l1.95.454zm4.43-21.123c1.36-7.257 2.66-14.458 3.91-21.602l-1.97-.344c-1.25 7.136-2.55 14.328-3.91 21.578l1.97.368zm3.91-21.59c1.36-7.258 2.6-14.234 3.74-20.927l-1.97-.334a1288.75 1288.75 0 01-3.74 20.893l1.97.368zm2.75-20.094h27.54v-2h-27.54v2zm26.56-1.197c-3.96 19.702-8.55 39.688-13.76 59.958l1.94.498c5.22-20.303 9.81-40.324 13.78-60.062l-1.96-.394zm-13.76 59.963c-5.09 20.266-10.64 39.509-16.64 57.731l1.9.626c6.02-18.272 11.58-37.561 16.68-57.87l-1.94-.487zM1686.7 121h-24.31v2h24.31v-2zm-23.37.657a792.89 792.89 0 01-11.54-34.127l-1.91.6a799.48 799.48 0 0011.57 34.213l1.88-.686zm-11.54-34.124c-3.74-12.01-7.42-24.021-11.05-36.032l-1.91.578c3.62 12.016 7.31 24.032 11.05 36.048l1.91-.594zM1638.83 51.5l-.03.07c0 .024-.01.047-.02.07 0 .024-.01.048-.02.071-.01.024-.01.047-.02.07-.01.024-.01.048-.02.07-.01.024-.01.048-.02.071-.01.024-.02.047-.02.07-.01.024-.02.048-.02.071l-.03.07c0 .024-.01.047-.02.07 0 .024-.01.048-.02.071-.01.024-.01.047-.02.07-.01.024-.01.048-.02.071-.01.024-.01.047-.02.07a.187.187 0 00-.02.07.187.187 0 00-.02.071l-.03.07c0 .024-.01.048-.02.071 0 .023-.01.047-.02.07-.01.024-.01.047-.02.07-.01.024-.01.048-.02.071-.01.024-.01.047-.02.07-.01.024-.02.047-.02.071a.187.187 0 00-.02.07l-.03.07c0 .024-.01.048-.02.071 0 .024-.01.047-.02.07-.01.024-.01.047-.02.07-.01.024-.01.048-.02.071-.01.024-.01.047-.02.07-.01.024-.02.048-.02.071-.01.024-.02.047-.02.07l-.03.07c0 .024-.01.048-.02.071 0 .024-.01.047-.02.07-.01.024-.01.048-.02.071-.01.024-.01.047-.02.07-.01.024-.01.047-.02.07a.188.188 0 00-.02.071.188.188 0 00-.02.07l-.03.071c0 .023-.01.047-.02.07 0 .024-.01.047-.02.07-.01.024-.01.048-.02.071-.01.024-.01.047-.02.07-.01.024-.01.047-.02.071a.187.187 0 00-.02.07.188.188 0 00-.02.07l-.03.071c0 .024-.01.047-.02.07 0 .024-.01.047-.02.07-.01.024-.01.048-.02.071-.01.024-.01.047-.02.07-.01.024-.01.048-.02.071a.187.187 0 00-.02.07.187.187 0 00-.02.07l-.03.071c0 .024-.01.047-.02.07 0 .024-.01.048-.02.071-.01.023-.01.047-.02.07-.01.024-.01.047-.02.07-.01.024-.01.048-.02.071-.01.024-.02.047-.02.07-.01.024-.02.047-.02.071l-.03.07c0 .024-.01.047-.02.07 0 .024-.01.048-.02.071-.01.024-.01.047-.02.07-.01.024-.01.047-.02.07-.01.024-.01.048-.02.071a.188.188 0 00-.02.07.188.188 0 00-.02.071l-.03.07c0 .024-.01.047-.02.07 0 .024-.01.048-.02.071-.01.024-.01.047-.02.07-.01.024-.01.048-.02.071-.01.023-.01.047-.02.07a.187.187 0 00-.02.07.187.187 0 00-.02.071l-.03.07c0 .024-.01.048-.02.071 0 .023-.01.047-.02.07-.01.024-.01.047-.02.07-.01.024-.01.048-.02.071-.01.024-.01.047-.02.07a.187.187 0 00-.02.071.187.187 0 00-.02.07l-.03.07c0 .024-.01.048-.02.071 0 .024-.01.047-.02.07-.01.024-.01.047-.02.07-.01.024-.01.048-.02.071-.01.024-.01.047-.02.07-.01.024-.02.048-.02.071-.01.024-.02.047-.02.07l-.03.07c0 .024-.01.048-.02.071 0 .024-.01.047-.02.07-.01.024-.01.048-.02.071-.01.023-.01.047-.02.07-.01.024-.01.047-.02.07-.01.024-.02.048-.02.071-.01.024-.02.047-.02.07l-.03.071c0 .023-.01.047-.02.07 0 .024-.01.047-.02.07-.01.024-.01.048-.02.071-.01.024-.01.047-.02.07-.01.024-.01.047-.02.071a.187.187 0 00-.02.07.187.187 0 00-.02.07l-.03.071c0 .024-.01.047-.02.07 0 .024-.01.047-.02.07-.01.024-.01.048-.02.071-.01.024-.01.047-.02.07-.01.024-.01.048-.02.071-.01.024-.02.047-.02.07a.187.187 0 00-.02.07l-.03.071c0 .024-.01.047-.02.07 0 .024-.01.048-.02.071-.01.023-.01.047-.02.07-.01.024-.01.047-.02.07-.01.024-.01.048-.02.071-.01.024-.02.047-.02.07-.01.024-.02.047-.02.071l-.03.07c0 .024-.01.047-.02.07 0 .024-.01.048-.02.071-.01.024-.01.047-.02.07-.01.024-.01.047-.02.07-.01.024-.01.048-.02.071a.188.188 0 00-.02.07.188.188 0 00-.02.071l-.03.07c0 .024-.01.047-.02.07 0 .024-.01.048-.02.071-.01.024-.01.047-.02.07-.01.024-.01.048-.02.071-.01.023-.01.047-.02.07a.187.187 0 00-.02.07.188.188 0 00-.02.071l-.03.07c0 .024-.01.048-.02.071 0 .023-.01.047-.02.07-.01.024-.01.047-.02.07-.01.024-.01.048-.02.071-.01.024-.01.047-.02.07-.01.024-.02.047-.02.071a.187.187 0 00-.02.07l-.03.07c0 .024-.01.048-.02.071 0 .024-.01.047-.02.07-.01.024-.01.047-.02.07-.01.024-.01.048-.02.071-.01.024-.01.047-.02.07-.01.024-.02.048-.02.071-.01.024-.02.047-.02.07l-.03.07c0 .024-.01.048-.02.071 0 .024-.01.047-.02.07-.01.024-.01.048-.02.071-.01.023-.01.047-.02.07-.01.024-.01.047-.02.07a.188.188 0 00-.02.071.188.188 0 00-.02.07l-.03.071c0 .023-.01.047-.02.07 0 .024-.01.047-.02.07-.01.024-.01.048-.02.071-.01.024-.01.047-.02.07-.01.024-.01.047-.02.071a.187.187 0 00-.02.07.187.187 0 00-.02.07l-.03.071c0 .024-.01.047-.02.07 0 .024-.01.047-.02.07-.01.024-.01.048-.02.071-.01.024-.01.047-.02.07-.01.024-.01.048-.02.071a.187.187 0 00-.02.07.187.187 0 00-.02.07l-.03.071c0 .024-.01.047-.02.07 0 .024-.01.048-.02.071-.01.023-.01.047-.02.07-.01.024-.01.047-.02.07-.01.024-.01.048-.02.071-.01.024-.02.047-.02.07-.01.024-.02.048-.02.071l-.03.07c0 .024-.01.047-.02.07 0 .024-.01.048-.02.071-.01.024-.01.047-.02.07-.01.024-.01.047-.02.07-.01.024-.01.048-.02.071-.01.024-.02.047-.02.07-.01.024-.02.048-.02.071l-.03.07c0 .024-.01.047-.02.07 0 .024-.01.048-.02.071-.01.024-.01.047-.02.07-.01.024-.01.048-.02.071-.01.023-.01.047-.02.07a.187.187 0 00-.02.07.187.187 0 00-.02.071l-.03.07c0 .024-.01.048-.02.071 0 .023-.01.047-.02.07-.01.024-.01.047-.02.07-.01.024-.01.048-.02.071-.01.024-.01.047-.02.07-.01.024-.02.048-.02.071a.187.187 0 00-.02.07l-.03.07c0 .024-.01.048-.02.071 0 .024-.01.047-.02.07-.01.024-.01.047-.02.07-.01.024-.01.048-.02.071-.01.024-.01.047-.02.07-.01.024-.02.048-.02.071-.01.024-.02.047-.02.07l-.03.07c0 .024-.01.048-.02.071 0 .024-.01.047-.02.07-.01.024-.01.048-.02.071-.01.023-.01.047-.02.07-.01.024-.01.047-.02.07-.01.024-.02.048-.02.071-.01.024-.02.047-.02.07l-.03.071c0 .023-.01.047-.02.07 0 .024-.01.047-.02.07-.01.024-.01.048-.02.071-.01.024-.01.047-.02.07-.01.024-.01.047-.02.071a.187.187 0 00-.02.07.187.187 0 00-.02.07l-.03.071c0 .024-.01.047-.02.07 0 .024-.01.047-.02.07-.01.024-.01.048-.02.071-.01.024-.01.047-.02.07-.01.024-.01.048-.02.071-.01.024-.02.047-.02.07a.187.187 0 00-.02.07l-.03.071c0 .024-.01.047-.02.07 0 .024-.01.048-.02.071-.01.023-.01.047-.02.07-.01.024-.01.047-.02.07-.01.024-.01.048-.02.071-.01.024-.02.047-.02.07-.01.024-.02.047-.02.071l-.03.07c0 .024-.01.047-.02.07 0 .024-.01.048-.02.071-.01.024-.01.047-.02.07-.01.024-.01.047-.02.07-.01.024-.01.048-.02.071-.01.024-.02.047-.02.07-.01.024-.02.048-.02.071l-.03.07c0 .024-.01.047-.02.07 0 .024-.01.048-.02.071-.01.024-.01.047-.02.07-.01.024-.01.048-.02.071-.01.023-.01.047-.02.07a.187.187 0 00-.02.07.187.187 0 00-.02.071l-.03.07c0 .024-.01.048-.02.071 0 .023-.01.047-.02.07-.01.024-.01.047-.02.07-.01.024-.01.048-.02.071-.01.024-.01.047-.02.07a.187.187 0 00-.02.071.187.187 0 00-.02.07l-.03.07c0 .024-.01.048-.02.071 0 .024-.01.047-.02.07-.01.024-.01.047-.02.07-.01.024-.01.048-.02.071-.01.024-.01.047-.02.07-.01.024-.02.048-.02.071-.01.024-.02.047-.02.07l-.03.07c0 .024-.01.048-.02.071 0 .024-.01.047-.02.07-.01.024-.01.048-.02.071-.01.023-.01.047-.02.07-.01.024-.01.047-.02.07-.01.024-.02.048-.02.071-.01.024-.02.047-.02.07l-.03.071c0 .023-.01.047-.02.07 0 .024-.01.047-.02.07-.01.024-.01.048-.02.071-.01.024-.01.047-.02.07-.01.024-.01.047-.02.071a.187.187 0 00-.02.07.187.187 0 00-.02.07l-.03.071c0 .024-.01.047-.02.07 0 .024-.01.047-.02.07-.01.024-.01.048-.02.071-.01.024-.01.047-.02.07-.01.024-.01.048-.02.071-.01.024-.02.047-.02.07a.187.187 0 00-.02.07l-.03.071c0 .024-.01.047-.02.07 0 .024-.01.048-.02.071-.01.023-.01.047-.02.07-.01.024-.01.047-.02.07-.01.024-.01.048-.02.071-.01.024-.02.047-.02.07-.01.024-.02.047-.02.071l-.03.07c0 .024-.01.047-.02.07 0 .024-.01.048-.02.071-.01.024-.01.047-.02.07-.01.024-.01.047-.02.07-.01.024-.01.048-.02.071-.01.024-.02.047-.02.07a.188.188 0 00-.02.071l-.03.07c0 .024-.01.047-.02.07 0 .024-.01.048-.02.071-.01.024-.01.047-.02.07-.01.024-.01.048-.02.071-.01.023-.01.047-.02.07a.187.187 0 00-.02.07.187.187 0 00-.02.071l-.03.07c0 .024-.01.048-.02.071 0 .023-.01.047-.02.07-.01.024-.01.047-.02.07-.01.024-.01.048-.02.071-.01.024-.01.047-.02.07-.01.024-.02.047-.02.071a.187.187 0 00-.02.07l-.03.07c0 .024-.01.048-.02.071 0 .024-.01.047-.02.07-.01.024-.01.047-.02.07-.01.024-.01.048-.02.071-.01.024-.01.047-.02.07-.01.024-.02.048-.02.071-.01.024-.02.047-.02.07l-.03.07c0 .024-.01.048-.02.071 0 .024-.01.047-.02.07-.01.024-.01.048-.02.071-.01.023-.01.047-.02.07-.01.024-.01.047-.02.07-.01.024-.02.048-.02.071-.01.024-.02.047-.02.07l-.03.071c0 .023-.01.047-.02.07 0 .024-.01.047-.02.07-.01.024-.01.048-.02.071-.01.024-.01.047-.02.07-.01.024-.01.047-.02.071a.187.187 0 00-.02.07.187.187 0 00-.02.07l-.03.071c0 .024-.01.047-.02.07 0 .024-.01.047-.02.07-.01.024-.01.048-.02.071-.01.024-.01.047-.02.07-.01.024-.01.048-.02.071a.187.187 0 00-.02.07.187.187 0 00-.02.07l-.03.071c0 .024-.01.047-.02.07 0 .024-.01.048-.02.071-.01.023-.01.047-.02.07-.01.024-.01.047-.02.07-.01.024-.01.048-.02.071-.01.024-.02.047-.02.07-.01.024-.02.047-.02.071l-.03.07c0 .024-.01.047-.02.07 0 .024-.01.048-.02.071-.01.024-.01.047-.02.07-.01.024-.01.047-.02.07-.01.024-.01.048-.02.071-.01.024-.02.047-.02.07-.01.024-.02.048-.02.071l-.03.07c0 .024-.01.047-.02.07 0 .024-.01.048-.02.071-.01.024-.01.047-.02.07-.01.024-.01.048-.02.071-.01.023-.01.047-.02.07a.187.187 0 00-.02.07.187.187 0 00-.02.071l-.03.07c0 .024-.01.048-.02.071 0 .023-.01.047-.02.07-.01.024-.01.047-.02.07-.01.024-.01.048-.02.071-.01.024-.01.047-.02.07-.01.024-.02.047-.02.071a.187.187 0 00-.02.07l-.03.07c0 .024-.01.048-.02.071 0 .024-.01.047-.02.07-.01.024-.01.047-.02.07-.01.024-.01.048-.02.071-.01.024-.01.047-.02.07-.01.024-.02.048-.02.071-.01.024-.02.047-.02.07l-.03.07c0 .024-.01.048-.02.071 0 .024-.01.047-.02.07-.01.024-.01.048-.02.071-.01.023-.01.047-.02.07-.01.024-.01.047-.02.07-.01.024-.02.048-.02.071-.01.024-.02.047-.02.07l-.03.071c0 .023-.01.047-.02.07 0 .024-.01.047-.02.07-.01.024-.01.048-.02.071-.01.024-.01.047-.02.07-.01.024-.01.048-.02.071a.187.187 0 00-.02.07.187.187 0 00-.02.07l-.03.071c0 .024-.01.047-.02.07 0 .024-.01.047-.02.07-.01.024-.01.048-.02.071-.01.024-.01.047-.02.07-.01.024-.01.048-.02.071-.01.024-.02.047-.02.07a.187.187 0 00-.02.07l-.03.071c0 .024-.01.047-.02.07 0 .024-.01.048-.02.071-.01.023-.01.047-.02.07-.01.024-.01.047-.02.07-.01.024-.01.048-.02.071-.01.024-.02.047-.02.07-.01.024-.02.047-.02.071l-.03.07c0 .024-.01.047-.02.07 0 .024-.01.048-.02.071-.01.024-.01.047-.02.07-.01.024-.01.048-.02.07-.01.024-.01.048-.02.071-.01.024-.02.047-.02.07-.01.024-.02.048-.02.071l-.03.07c0 .024-.01.047-.02.07 0 .024-.01.048-.02.071-.01.024-.01.047-.02.07-.01.024-.01.048-.02.071-.01.024-.01.047-.02.07a.187.187 0 00-.02.07.187.187 0 00-.02.071l-.03.07c0 .024-.01.048-.02.071 0 .023-.01.047-.02.07-.01.024-.01.047-.02.07-.01.024-.01.048-.02.071-.01.024-.01.047-.02.07-.01.024-.02.047-.02.071a.187.187 0 00-.02.07l-.03.07c0 .024-.01.048-.02.071 0 .024-.01.047-.02.07-.01.024-.01.047-.02.07-.01.024-.01.048-.02.071-.01.024-.01.047-.02.07-.01.024-.02.048-.02.071-.01.024-.02.047-.02.07l-.03.07c0 .024-.01.048-.02.071 0 .024-.01.047-.02.07-.01.024-.01.048-.02.071-.01.024-.01.047-.02.07-.01.024-.01.047-.02.07-.01.024-.02.048-.02.071-.01.024-.02.047-.02.07l-.03.071c0 .023-.01.047-.02.07 0 .024-.01.047-.02.07-.01.024-.01.048-.02.071-.01.024-.01.047-.02.07-.01.024-.01.047-.02.071a.187.187 0 00-.02.07.187.187 0 00-.02.07l-.03.071c0 .024-.01.047-.02.07 0 .024-.01.047-.02.07-.01.024-.01.048-.02.071-.01.024-.01.047-.02.07-.01.024-.01.048-.02.071a.187.187 0 00-.02.07.187.187 0 00-.02.07l-.03.071c0 .024-.01.047-.02.07 0 .024-.01.048-.02.071-.01.024-.01.047-.02.07-.01.024-.01.047-.02.07-.01.024-.01.048-.02.071-.01.024-.02.047-.02.07-.01.024-.02.047-.02.071l1.91.578c.01-.023.01-.047.02-.07.01-.024.02-.047.02-.07a.187.187 0 00.02-.071l.03-.07c0-.024.01-.047.02-.07 0-.024.01-.048.02-.071 0-.024.01-.047.02-.07.01-.024.01-.048.02-.071.01-.024.01-.047.02-.07.01-.024.02-.047.02-.07.01-.024.02-.048.02-.071l.03-.07c0-.024.01-.048.02-.071 0-.023.01-.047.02-.07 0-.024.01-.047.02-.07.01-.024.01-.048.02-.071.01-.024.01-.047.02-.07.01-.024.02-.048.02-.071a.185.185 0 00.02-.07l.03-.07c0-.024.01-.048.02-.071 0-.024.01-.047.02-.07 0-.024.01-.047.02-.071.01-.023.01-.047.02-.07.01-.024.01-.047.02-.07a.187.187 0 00.02-.071.187.187 0 00.02-.07l.03-.07c0-.024.01-.048.02-.071 0-.024.01-.047.02-.07.01-.024.01-.048.02-.071.01-.024.01-.047.02-.07.01-.024.01-.047.02-.07a.187.187 0 00.02-.071.187.187 0 00.02-.07l.03-.071c0-.023.01-.047.02-.07 0-.024.01-.047.02-.07 0-.024.01-.048.02-.071.01-.024.01-.047.02-.07.01-.024.01-.047.02-.071a.185.185 0 00.02-.07c.01-.024.02-.047.02-.07l.03-.071c0-.024.01-.047.02-.07 0-.024.01-.047.02-.071 0-.023.01-.047.02-.07.01-.024.01-.047.02-.07.01-.024.01-.048.02-.071.01-.024.02-.047.02-.07.01-.024.02-.047.02-.07l.03-.071c0-.024.01-.047.02-.07 0-.024.01-.048.02-.071.01-.024.01-.047.02-.07.01-.024.01-.047.02-.07.01-.024.01-.048.02-.071a.187.187 0 00.02-.07.187.187 0 00.02-.071l.03-.07c0-.024.01-.047.02-.07 0-.024.01-.048.02-.071 0-.024.01-.047.02-.07.01-.024.01-.047.02-.071.01-.023.01-.047.02-.07.01-.024.02-.047.02-.07a.187.187 0 00.02-.071l.03-.07c0-.024.01-.047.02-.071 0-.023.01-.047.02-.07 0-.024.01-.047.02-.07.01-.024.01-.048.02-.071.01-.024.01-.047.02-.07.01-.024.02-.047.02-.07.01-.024.02-.048.02-.071l.03-.07c0-.024.01-.048.02-.071 0-.023.01-.047.02-.07 0-.024.01-.047.02-.07.01-.024.01-.048.02-.071.01-.024.01-.047.02-.07.01-.024.02-.048.02-.071a.185.185 0 00.02-.07l.03-.07c0-.024.01-.048.02-.071 0-.024.01-.047.02-.07 0-.024.01-.047.02-.071.01-.023.01-.047.02-.07.01-.024.01-.047.02-.07a.187.187 0 00.02-.071.187.187 0 00.02-.07l.03-.07c0-.024.01-.048.02-.071 0-.024.01-.047.02-.07 0-.024.01-.048.02-.071.01-.024.01-.047.02-.07.01-.024.01-.047.02-.07.01-.024.02-.048.02-.071a.187.187 0 00.02-.07l.03-.071c0-.023.01-.047.02-.07 0-.024.01-.047.02-.07 0-.024.01-.048.02-.071.01-.024.01-.047.02-.07.01-.024.01-.048.02-.071a.185.185 0 00.02-.07c.01-.024.02-.047.02-.07l.03-.071c0-.024.01-.047.02-.07 0-.024.01-.047.02-.071 0-.023.01-.047.02-.07.01-.024.01-.047.02-.07.01-.024.01-.048.02-.071.01-.024.02-.047.02-.07.01-.024.02-.047.02-.07l.03-.071c0-.024.01-.047.02-.07 0-.024.01-.048.02-.071.01-.024.01-.047.02-.07.01-.024.01-.047.02-.07.01-.024.01-.048.02-.071a.187.187 0 00.02-.07.187.187 0 00.02-.071l.03-.07c0-.024.01-.047.02-.07 0-.024.01-.048.02-.071 0-.024.01-.047.02-.07.01-.024.01-.048.02-.071.01-.023.01-.047.02-.07a.187.187 0 00.02-.07.187.187 0 00.02-.071l.03-.07c0-.024.01-.047.02-.071 0-.023.01-.047.02-.07 0-.024.01-.047.02-.07.01-.024.01-.048.02-.071.01-.024.01-.047.02-.07.01-.024.02-.047.02-.07.01-.024.02-.048.02-.071l.03-.07c0-.024.01-.048.02-.071 0-.023.01-.047.02-.07.01-.024.01-.047.02-.07.01-.024.01-.048.02-.071.01-.024.01-.047.02-.07a.188.188 0 00.02-.071.185.185 0 00.02-.07l.03-.07c0-.024.01-.048.02-.071 0-.024.01-.047.02-.07 0-.024.01-.048.02-.071.01-.023.01-.047.02-.07.01-.024.01-.047.02-.07a.187.187 0 00.02-.071.187.187 0 00.02-.07l.03-.07c0-.024.01-.048.02-.071 0-.024.01-.047.02-.07 0-.024.01-.048.02-.071.01-.024.01-.047.02-.07.01-.024.01-.047.02-.07.01-.024.02-.048.02-.071a.187.187 0 00.02-.07l.03-.071c0-.023.01-.047.02-.07 0-.024.01-.047.02-.07.01-.024.01-.048.02-.071.01-.024.01-.047.02-.07.01-.024.01-.047.02-.071a.185.185 0 00.02-.07c.01-.024.02-.047.02-.07l.03-.071c0-.024.01-.047.02-.07 0-.024.01-.047.02-.071 0-.023.01-.047.02-.07.01-.024.01-.047.02-.07.01-.024.01-.048.02-.071a.188.188 0 00.02-.07c.01-.024.02-.047.02-.07l.03-.071c0-.024.01-.047.02-.07 0-.024.01-.048.02-.071 0-.024.01-.047.02-.07.01-.024.01-.047.02-.07.01-.024.01-.048.02-.071a.187.187 0 00.02-.07.187.187 0 00.02-.071l.03-.07c0-.024.01-.047.02-.07 0-.024.01-.048.02-.071 0-.024.01-.047.02-.07.01-.024.01-.047.02-.071.01-.023.01-.047.02-.07.01-.024.02-.047.02-.07a.187.187 0 00.02-.071l.03-.07c0-.024.01-.047.02-.07 0-.024.01-.048.02-.071 0-.024.01-.047.02-.07.01-.024.01-.048.02-.071.01-.024.01-.047.02-.07.01-.024.02-.047.02-.07.01-.024.02-.048.02-.071l.03-.07c0-.024.01-.048.02-.071 0-.023.01-.047.02-.07 0-.024.01-.047.02-.07.01-.024.01-.048.02-.071.01-.024.01-.047.02-.07.01-.024.02-.048.02-.071a.185.185 0 00.02-.07l.03-.07c0-.024.01-.048.02-.071 0-.024.01-.047.02-.07 0-.024.01-.047.02-.071.01-.023.01-.047.02-.07.01-.024.01-.047.02-.07a.187.187 0 00.02-.071.187.187 0 00.02-.07l.03-.07c0-.024.01-.048.02-.071 0-.024.01-.047.02-.07 0-.024.01-.048.02-.071.01-.024.01-.047.02-.07.01-.024.01-.047.02-.07a.187.187 0 00.02-.071.187.187 0 00.02-.07l.03-.071c0-.023.01-.047.02-.07 0-.024.01-.047.02-.07.01-.024.01-.048.02-.071.01-.024.01-.047.02-.07.01-.024.01-.048.02-.071a.185.185 0 00.02-.07c.01-.024.02-.047.02-.07l.03-.071c0-.024.01-.047.02-.07 0-.024.01-.047.02-.071 0-.023.01-.047.02-.07.01-.024.01-.047.02-.07.01-.024.01-.048.02-.071.01-.024.02-.047.02-.07a.188.188 0 00.02-.07l.03-.071c0-.024.01-.047.02-.07 0-.024.01-.048.02-.071 0-.024.01-.047.02-.07.01-.024.01-.047.02-.07.01-.024.01-.048.02-.071a.187.187 0 00.02-.07.187.187 0 00.02-.071l.03-.07c0-.024.01-.047.02-.07 0-.024.01-.048.02-.071.01-.024.01-.047.02-.07.01-.024.01-.047.02-.071.01-.023.01-.047.02-.07.01-.024.02-.047.02-.07a.187.187 0 00.02-.071l.03-.07c0-.024.01-.047.02-.071 0-.023.01-.047.02-.07 0-.024.01-.047.02-.07.01-.024.01-.048.02-.071.01-.024.01-.047.02-.07.01-.024.02-.047.02-.07.01-.024.02-.048.02-.071l.03-.07c0-.024.01-.048.02-.071 0-.023.01-.047.02-.07 0-.024.01-.047.02-.07.01-.024.01-.048.02-.071.01-.024.01-.047.02-.07.01-.024.02-.048.02-.071a.185.185 0 00.02-.07l.03-.07c0-.024.01-.048.02-.071 0-.024.01-.047.02-.07 0-.024.01-.047.02-.071.01-.023.01-.047.02-.07.01-.024.01-.047.02-.07a.187.187 0 00.02-.071.187.187 0 00.02-.07l.03-.07c0-.024.01-.048.02-.071 0-.024.01-.047.02-.07 0-.024.01-.048.02-.071.01-.024.01-.047.02-.07.01-.024.01-.047.02-.07.01-.024.02-.048.02-.071a.187.187 0 00.02-.07l.03-.071c0-.023.01-.047.02-.07 0-.024.01-.047.02-.07 0-.024.01-.048.02-.071.01-.024.01-.047.02-.07.01-.024.01-.047.02-.071a.185.185 0 00.02-.07c.01-.024.02-.047.02-.07l.03-.071c0-.024.01-.047.02-.07 0-.024.01-.047.02-.071 0-.023.01-.047.02-.07.01-.024.01-.047.02-.07.01-.024.01-.048.02-.071.01-.024.02-.047.02-.07.01-.024.02-.047.02-.07l.03-.071c0-.024.01-.047.02-.07 0-.024.01-.048.02-.071 0-.024.01-.047.02-.07.01-.024.01-.047.02-.07.01-.024.01-.048.02-.071a.187.187 0 00.02-.07.187.187 0 00.02-.071l.03-.07c0-.024.01-.047.02-.07 0-.024.01-.048.02-.071 0-.024.01-.047.02-.07.01-.024.01-.047.02-.071.01-.023.01-.047.02-.07.01-.024.02-.047.02-.07a.187.187 0 00.02-.071l.03-.07c0-.024.01-.047.02-.07 0-.024.01-.048.02-.071 0-.024.01-.047.02-.07.01-.024.01-.048.02-.071.01-.024.01-.047.02-.07.01-.024.02-.047.02-.07.01-.024.02-.048.02-.071l.03-.07c0-.024.01-.048.02-.071 0-.023.01-.047.02-.07 0-.024.01-.047.02-.07.01-.024.01-.048.02-.071.01-.024.01-.047.02-.07a.188.188 0 00.02-.071.185.185 0 00.02-.07l.03-.07c0-.024.01-.048.02-.071 0-.024.01-.047.02-.07.01-.024.01-.048.02-.071.01-.023.01-.047.02-.07.01-.024.01-.047.02-.07a.187.187 0 00.02-.071.187.187 0 00.02-.07l.03-.07c0-.024.01-.048.02-.071 0-.024.01-.047.02-.07 0-.024.01-.048.02-.071.01-.024.01-.047.02-.07.01-.024.01-.047.02-.07a.187.187 0 00.02-.071.187.187 0 00.02-.07l.03-.071c0-.024.01-.047.02-.07 0-.024.01-.047.02-.07 0-.024.01-.048.02-.071.01-.024.01-.047.02-.07.01-.024.01-.048.02-.071a.185.185 0 00.02-.07c.01-.024.02-.047.02-.07l.03-.071c0-.024.01-.047.02-.07 0-.024.01-.047.02-.071.01-.023.01-.047.02-.07.01-.024.01-.047.02-.07.01-.024.01-.048.02-.071.01-.024.02-.047.02-.07.01-.024.02-.047.02-.07l.03-.071c0-.024.01-.047.02-.07 0-.024.01-.048.02-.071 0-.024.01-.047.02-.07.01-.024.01-.047.02-.07.01-.024.01-.048.02-.071a.187.187 0 00.02-.07.187.187 0 00.02-.071l.03-.07c0-.024.01-.047.02-.07 0-.024.01-.048.02-.071 0-.024.01-.047.02-.07.01-.024.01-.047.02-.071.01-.023.01-.047.02-.07.01-.024.02-.047.02-.07a.187.187 0 00.02-.071l.03-.07c0-.024.01-.047.02-.071 0-.023.01-.047.02-.07 0-.024.01-.047.02-.07.01-.024.01-.048.02-.071.01-.024.01-.047.02-.07.01-.024.02-.047.02-.07.01-.024.02-.048.02-.071l.03-.07c0-.024.01-.048.02-.071 0-.023.01-.047.02-.07 0-.024.01-.047.02-.07.01-.024.01-.048.02-.071.01-.024.01-.047.02-.07.01-.024.02-.048.02-.071.01-.024.02-.047.02-.07l.03-.07c0-.024.01-.048.02-.071 0-.024.01-.047.02-.07 0-.024.01-.047.02-.071.01-.023.01-.047.02-.07.01-.024.01-.047.02-.07a.187.187 0 00.02-.071.187.187 0 00.02-.07l.03-.07c0-.024.01-.048.02-.071 0-.024.01-.047.02-.07 0-.024.01-.048.02-.071.01-.024.01-.047.02-.07.01-.024.01-.047.02-.07.01-.024.02-.048.02-.071a.187.187 0 00.02-.07l.03-.071c0-.023.01-.047.02-.07 0-.024.01-.047.02-.07 0-.024.01-.048.02-.071.01-.024.01-.047.02-.07.01-.024.01-.048.02-.071.01-.024.02-.047.02-.07.01-.024.02-.047.02-.07l.03-.071c0-.024.01-.047.02-.07 0-.024.01-.047.02-.071.01-.023.01-.047.02-.07.01-.024.01-.047.02-.07.01-.024.01-.048.02-.071.01-.024.02-.047.02-.07.01-.024.02-.047.02-.07l.03-.071c0-.024.01-.047.02-.07 0-.024.01-.048.02-.071 0-.024.01-.047.02-.07.01-.024.01-.047.02-.07.01-.024.01-.048.02-.071a.187.187 0 00.02-.07.187.187 0 00.02-.071l.03-.07c0-.024.01-.047.02-.07 0-.024.01-.048.02-.071 0-.024.01-.047.02-.07.01-.024.01-.047.02-.071.01-.024.01-.047.02-.07a.187.187 0 00.02-.07.187.187 0 00.02-.071l.03-.07c0-.024.01-.047.02-.071 0-.023.01-.047.02-.07.01-.024.01-.047.02-.07.01-.024.01-.048.02-.071.01-.024.01-.047.02-.07.01-.024.02-.047.02-.07.01-.024.02-.048.02-.071l.03-.07c0-.024.01-.048.02-.071 0-.023.01-.047.02-.07 0-.024.01-.047.02-.07.01-.024.01-.048.02-.071.01-.024.01-.047.02-.07.01-.024.02-.048.02-.071a.185.185 0 00.02-.07l.03-.07c0-.024.01-.048.02-.071 0-.024.01-.047.02-.07 0-.024.01-.047.02-.071.01-.023.01-.047.02-.07.01-.024.01-.047.02-.07a.187.187 0 00.02-.071.187.187 0 00.02-.07l.03-.07c0-.024.01-.048.02-.071 0-.024.01-.047.02-.07 0-.024.01-.048.02-.071.01-.024.01-.047.02-.07.01-.024.01-.047.02-.07.01-.024.02-.048.02-.071a.187.187 0 00.02-.07l.03-.071c0-.023.01-.047.02-.07 0-.024.01-.047.02-.07 0-.024.01-.048.02-.071.01-.024.01-.047.02-.07.01-.024.01-.047.02-.071a.185.185 0 00.02-.07c.01-.024.02-.047.02-.07l.03-.071c0-.024.01-.047.02-.07 0-.024.01-.047.02-.071 0-.023.01-.047.02-.07.01-.024.01-.047.02-.07.01-.024.01-.048.02-.071a.188.188 0 00.02-.07c.01-.024.02-.047.02-.07l.03-.071c0-.024.01-.047.02-.07 0-.024.01-.048.02-.071 0-.024.01-.047.02-.07.01-.024.01-.047.02-.07.01-.024.01-.048.02-.071a.187.187 0 00.02-.07.187.187 0 00.02-.071l.03-.07c0-.024.01-.047.02-.07 0-.024.01-.048.02-.071 0-.024.01-.047.02-.07.01-.024.01-.047.02-.071l-1.91-.578zm-10.88 36.038c-3.63 11.884-7.42 23.257-11.38 34.118l1.88.686c3.98-10.898 7.78-22.306 11.41-34.222l-1.91-.582zM1617.51 121h-24.31v2h24.31v-2zm-23.36.687c-6-18.224-11.6-37.469-16.81-57.736l-1.94.498c5.22 20.306 10.84 39.594 16.85 57.864l1.9-.626zm-16.81-57.73c-5.09-20.273-9.62-40.26-13.59-59.964l-1.96.394c3.97 19.736 8.51 39.755 13.61 60.057l1.94-.488zM1562.77 5.19h28.73v-2h-28.73v2zm27.75-.833a1185.54 1185.54 0 003.74 20.927l1.97-.368a1188.32 1188.32 0 01-3.74-20.893l-1.97.334zm3.74 20.93c1.36 7.144 2.78 14.345 4.25 21.602l1.96-.398a1681.48 1681.48 0 01-4.24-21.578l-1.97.374zm4.25 21.602a1663.36 1663.36 0 004.43 21.093l1.95-.424c-1.47-6.795-2.94-13.818-4.42-21.067l-1.96.398zm4.43 21.108c1.59 6.81 3.18 13.114 4.77 18.908l1.93-.53c-1.59-5.766-3.17-12.043-4.75-18.832l-1.95.454zm6.67 18.988a353.578 353.578 0 005.97-17.73l-1.91-.59a347.616 347.616 0 01-5.94 17.63l1.88.69zm5.97-17.73c1.93-6.238 3.8-12.477 5.61-18.716l-1.92-.558c-1.81 6.228-3.68 12.456-5.6 18.684l1.91.59zm5.61-18.716c1.82-6.243 3.47-12.26 4.94-18.052l-1.94-.494a557.55 557.55 0 01-4.92 17.988l1.92.558zm4.94-18.034c1.58-5.78 3-10.937 4.25-15.47l-1.93-.53c-1.25 4.533-2.66 9.69-4.25 15.47l1.93.53zm3.28-14.735h22.61v-2h-22.61v2zm127.41 60.88l-.96.28.01.012v.01l.95-.302zm6.12 12.07l-.79.608.01.015.01.015.77-.638zm9.86 7.65l.43-.905-.43.905zm26.35 0l-.41-.91-.01.005.42.905zm9.86-7.65l-.78-.625v.004l.78.621zm6.12-12.07l-.95-.302v.01l-.01.011.96.281zm0-31.28l-.96.275.01.013v.014l.95-.302zm-6.12-12.07l-.79.608.01.015.01.015.77-.638zm-9.86-7.82l-.42.905.01.005.41-.91zm-26.35.17l.43.905.01-.005.01-.006-.45-.894zm-9.86 7.82l-.78-.625v.004l.78.621zm-6.12 12.07l-.95-.296v.008l-.01.007.96.281zm83.3 42.16l-.93-.37v.008l.93.362zm-12.24 19.21l.7.715.01-.008-.71-.707zm-18.7 11.56l-.33-.941-.01.002.34.939zm-64.6-11.56l-.7.715.01.007.69-.722zM1732 89.7l-.93.369.01.005.92-.374zm.17-53.21l.93.386v-.005l-.93-.381zm12.75-19.38l-.69-.722-.01.007.7.715zm18.7-11.73l-.34-.94v.002l.34.938zm45.22 0l.35-.94-.35.94zm18.7 11.73l.7-.715-.7.715zm12.58 19.38l-.93.369.01.005.92-.374zm-86.34 26.52c0 5.857.69 11.167 2.08 15.92l1.92-.56c-1.32-4.54-2-9.657-2-15.36h-2zm2.09 15.942c1.5 4.742 3.59 8.873 6.28 12.376l1.59-1.216c-2.53-3.297-4.52-7.213-5.96-11.764l-1.91.604zm6.3 12.406c2.82 3.4 6.22 6.04 10.21 7.917l.85-1.81a27.326 27.326 0 01-9.52-7.383l-1.54 1.276zm10.21 7.917c4.01 1.886 8.58 2.815 13.68 2.815v-2c-4.86 0-9.13-.884-12.83-2.625l-.85 1.81zm13.68 2.815c5 0 9.52-.931 13.52-2.815l-.85-1.81c-3.7 1.742-7.92 2.625-12.67 2.625v2zm13.51-2.81c4.1-1.877 7.52-4.523 10.23-7.939l-1.57-1.242c-2.5 3.158-5.66 5.611-9.49 7.361l.83 1.82zm10.22-7.935c2.82-3.513 4.91-7.656 6.3-12.414l-1.92-.562c-1.32 4.536-3.31 8.439-5.94 11.726l1.56 1.25zm6.3-12.393c1.51-4.76 2.25-10.078 2.25-15.942h-2c0 5.696-.72 10.805-2.16 15.338l1.91.604zm2.25-15.942c0-5.864-.74-11.182-2.25-15.942l-1.91.604c1.44 4.533 2.16 9.642 2.16 15.338h2zm-2.24-15.915c-1.4-4.871-3.49-9.024-6.32-12.433l-1.54 1.276c2.62 3.164 4.6 7.058 5.93 11.707l1.93-.55zm-6.29-12.403c-2.71-3.533-6.13-6.241-10.24-8.122l-.83 1.82c3.82 1.746 6.98 4.25 9.48 7.518l1.59-1.216zm-10.23-8.117c-4-1.884-8.52-2.815-13.52-2.815v2c4.75 0 8.97.883 12.67 2.625l.85-1.81zm-13.52-2.815c-5.11 0-9.69.99-13.7 2.996l.89 1.788c3.7-1.847 7.96-2.784 12.81-2.784v-2zm-13.68 2.985c-4 1.88-7.4 4.584-10.22 8.1l1.56 1.25c2.63-3.284 5.8-5.793 9.51-7.54l-.85-1.81zm-10.22 8.104c-2.7 3.4-4.79 7.539-6.29 12.395l1.91.592c1.44-4.664 3.43-8.571 5.95-11.745l-1.57-1.242zm-6.3 12.41c-1.39 4.752-2.08 10.005-2.08 15.751h2c0-5.587.67-10.648 2-15.19l-1.92-.56zm87.85 15.751c0 9.987-1.51 18.754-4.52 26.321l1.86.738c3.12-7.847 4.66-16.873 4.66-27.059h-2zm-4.52 26.328c-2.9 7.478-6.91 13.76-12.01 18.865l1.41 1.414c5.32-5.321 9.47-11.846 12.47-19.555l-1.87-.724zm-12.01 18.857c-5.1 4.994-11.21 8.773-18.33 11.334l.67 1.882c7.38-2.652 13.74-6.58 19.06-11.786l-1.4-1.43zm-18.34 11.336c-7.02 2.563-14.61 3.849-22.78 3.849v2c8.38 0 16.21-1.32 23.47-3.971l-.69-1.878zm-22.78 3.849c-7.93 0-15.41-1.285-22.43-3.849l-.69 1.878c7.26 2.649 14.97 3.971 23.12 3.971v-2zm-22.43-3.849c-7.02-2.561-13.13-6.342-18.35-11.343l-1.39 1.444c5.43 5.199 11.79 9.125 19.05 11.777l.69-1.878zm-18.35-11.336c-5.22-5.107-9.33-11.39-12.35-18.869l-1.85.748c3.1 7.709 7.37 14.232 12.8 19.551l1.4-1.43zm-12.35-18.864c-3-7.567-4.52-16.334-4.52-26.321h-2c0 10.186 1.55 19.212 4.66 27.059l1.86-.738zm-4.52-26.321c0-9.983 1.57-18.687 4.69-26.134l-1.85-.772c-3.23 7.74-4.84 16.716-4.84 26.906h2zm4.69-26.14c3.13-7.595 7.3-13.937 12.52-19.045l-1.4-1.43c-5.43 5.32-9.75 11.897-12.97 19.714l1.85.762zm12.52-19.038c5.34-5.12 11.45-8.956 18.35-11.514l-.69-1.876c-7.16 2.655-13.51 6.639-19.05 11.946l1.39 1.444zm18.35-11.513c7.02-2.565 14.39-3.849 22.09-3.849v-2c-7.93 0-15.53 1.323-22.78 3.97l.69 1.88zm22.09-3.849c7.94 0 15.42 1.285 22.44 3.85l.69-1.88c-7.26-2.648-14.97-3.97-23.13-3.97v2zm22.44 3.85c7.01 2.558 13.12 6.393 18.34 11.505l1.4-1.43c-5.43-5.314-11.78-9.3-19.05-11.954l-.69 1.878zm18.34 11.505c5.22 5.105 9.34 11.443 12.35 19.034l1.86-.738c-3.1-7.822-7.37-14.404-12.81-19.726l-1.4 1.43zm12.36 19.039c3 7.45 4.51 16.159 4.51 26.146h2c0-10.186-1.54-19.158-4.66-26.894l-1.85.748zm102.76-24.514l-.56.829.01.005.55-.834zm8.33 49.47l-.8-.594-.01.003.81.591zm-16.32 12.07l-.38-.924-1.24.51.84 1.042.78-.628zm7.48 10.2l-.83.56.01.012.82-.572zm7.65 11.9l-.86.511.01.014.01.013.84-.538zm7.48 12.92l-.88.465v.009l.88-.474zm6.63 13.09v1h1.58l-.68-1.428-.9.428zm-29.75 0l-.87.488.28.512h.59v-1zm-6.63-11.73l-.88.477.01.01v.009l.87-.496zm-6.8-11.56l-.85.518v.01l.01.009.84-.537zm-6.8-10.54l-.83.555v.006l.01.007.82-.568zm-6.8-9.18l.77-.64-.3-.36h-.47v1zm-13.09 0v-1h-1v1h1zm0 43.01v1h1v-1h-1zm-26.52 0h-1v1h1v-1zm0-116.11l-.19-.981-.81.158v.823h1zm17.85-2.38l-.07-.997.07.997zm12.92 22.1l-.07-.997h-.01l.08.997zm-4.25.34l-.08-.997-.92.077v.92h1zm0 31.96h-1v1h1v-1zm28.9-3.74l-.5-.865.5.865zm-.17-24.99l-.5.865.01.008.02.008.47-.881zm-20.74-25.35c17.58 0 30.9 3.16 40.07 9.349l1.12-1.658c-9.64-6.504-23.41-9.691-41.19-9.691v2zm40.08 9.354c9.07 6.013 13.66 15.413 13.66 28.406h2c0-13.527-4.82-23.62-14.56-30.074l-1.1 1.668zm13.66 28.406c0 8.119-1.89 14.637-5.58 19.636l1.6 1.188c4.02-5.427 5.98-12.396 5.98-20.824h-2zm-5.59 19.639c-3.61 4.922-8.88 8.844-15.89 11.737l.76 1.848c7.27-3 12.88-7.125 16.75-12.403l-1.62-1.182zm-16.29 13.29c2.36 2.92 4.84 6.296 7.43 10.131l1.66-1.12c-2.62-3.872-5.13-7.295-7.53-10.268l-1.56 1.256zm7.44 10.143a194.97 194.97 0 017.61 11.84l1.72-1.023c-2.5-4.213-5.07-8.2-7.69-11.96l-1.64 1.143zm7.63 11.866a175.63 175.63 0 017.44 12.847l1.77-.93c-2.4-4.557-4.9-8.888-7.53-12.993l-1.68 1.076zm7.44 12.856c2.37 4.406 4.57 8.754 6.61 13.044l1.8-.856a275.661 275.661 0 00-6.65-13.136l-1.76.948zm7.51 11.616h-29.75v2h29.75v-2zm-28.88.512c-2.15-3.856-4.36-7.769-6.63-11.738l-1.74.992c2.27 3.964 4.48 7.871 6.63 11.722l1.74-.976zm-6.62-11.719c-2.16-3.987-4.44-7.86-6.84-11.62l-1.68 1.074c2.36 3.72 4.62 7.553 6.76 11.5l1.76-.954zm-6.82-11.601a216.416 216.416 0 00-6.84-10.59l-1.64 1.136a217.62 217.62 0 016.77 10.49l1.71-1.036zm-6.83-10.577c-2.28-3.425-4.57-6.514-6.86-9.265l-1.54 1.28c2.24 2.69 4.49 5.72 6.74 9.095l1.66-1.11zm-7.63-9.625h-13.09v2h13.09v-2zm-14.09 1V122h2V78.99h-2zm1 42.01h-26.52v2h26.52v-2zm-25.52 1V5.89h-2V122h2zm-.81-115.129a149.516 149.516 0 0117.73-2.364l-.14-1.994a151.42 151.42 0 00-17.97 2.396l.38 1.962zm17.73-2.364c6.22-.452 11.75-.677 16.59-.677v-2c-4.9 0-10.48.228-16.73.683l.14 1.994zm18.12 19.933c-1.94 0-3.73.057-5.34.172l.14 1.996c1.56-.112 3.29-.168 5.2-.168v-2zm-5.35.173c-1.47.113-2.89.227-4.25.34l.16 1.994c1.36-.114 2.78-.227 4.25-.34l-.16-1.994zm-5.17 1.337v31.96h2V25.95h-2zm1 32.96h7.48v-2h-7.48v2zm7.48 0c10.01 0 17.37-1.242 21.92-3.875l-1-1.73c-4.07 2.353-10.98 3.605-20.92 3.605v2zm21.92-3.875c4.69-2.711 6.96-7.338 6.96-13.615h-2c0 5.737-2.03 9.61-5.96 11.885l1 1.73zm6.96-13.615c0-6.08-2.36-10.536-7.16-13.12l-.94 1.76c4.04 2.176 6.1 5.88 6.1 11.36h2zm-7.13-13.105c-4.53-2.624-11.14-3.875-19.71-3.875v2c8.43 0 14.63 1.242 18.71 3.605l1-1.73zM2049.74 122l-.85.525.29.475h.56v-1zm-8.5-12.41l-.82.573.01.012.01.012.8-.597zm-10.54-13.43l-.77.636.01.01.01.011.75-.657zm-11.73-12.92l-.72.697.01.01.71-.707zm-12.24-11.05l.61-.79-1.61-1.255v2.045h1zm0 49.81v1h1v-1h-1zm-26.52 0h-1v1h1v-1zm0-117.81v-1h-1v1h1zm26.52 0h1v-1h-1v1zm0 44.54h-1v2.499l1.72-1.81-.72-.689zm20.74-22.61l-.75-.663.75.663zm19.55-21.93v-1h-.45l-.29.332.74.668zm31.45 0l.76.646 1.39-1.646h-2.15v1zm-24.31 27.54l-.74-.678v.005l.74.673zm-25.5 26.69l-.71-.707-.77.775.84.701.64-.769zm27.2 27.88l-.78.63.01.005.77-.635zm25.33 35.7v1h1.79l-.94-1.525-.85.525zm-30.6-.525c-2.4-3.883-5.25-8.043-8.55-12.482l-1.6 1.194c3.27 4.401 6.09 8.514 8.45 12.338l1.7-1.05zm-8.53-12.458c-3.2-4.564-6.73-9.069-10.61-13.514l-1.5 1.314c3.83 4.395 7.32 8.844 10.47 13.346l1.64-1.146zm-10.59-13.493a184.207 184.207 0 00-11.79-12.991l-1.42 1.414c4.06 4.057 7.95 8.34 11.67 12.85l1.54-1.273zm-11.78-12.981c-4.11-4.223-8.23-7.937-12.35-11.142l-1.22 1.578c4.03 3.142 8.08 6.794 12.13 10.958l1.44-1.394zm-13.96-10.353V122h2V72.19h-2zm1 48.81h-26.52v2h26.52v-2zm-25.52 1V4.19h-2V122h2zm-1-116.81h26.52v-2h-26.52v2zm25.52-1v44.54h2V4.19h-2zm1.72 45.23a806.25 806.25 0 0020.77-22.638l-1.5-1.324a832.619 832.619 0 01-20.71 22.582l1.44 1.38zm20.77-22.637c7.02-7.932 13.54-15.24 19.54-21.925l-1.48-1.336c-6.01 6.688-12.53 14-19.56 21.935l1.5 1.326zm18.8-21.593h31.45v-2h-31.45v2zm30.69-1.646a842.566 842.566 0 01-24.29 27.508l1.47 1.356a835.4 835.4 0 0024.34-27.572l-1.52-1.292zm-24.29 27.513a783.355 783.355 0 01-25.47 26.656l1.42 1.414a793.437 793.437 0 0025.53-26.724l-1.48-1.346zm-25.4 28.132c9.35 7.773 18.37 17.018 27.06 27.74l1.56-1.259c-8.77-10.81-17.88-20.152-27.34-28.019l-1.28 1.538zm27.07 27.746c8.81 10.728 17.22 22.591 25.25 35.59l1.7-1.05c-8.07-13.068-16.54-25.005-25.41-35.81l-1.54 1.27zm26.1 34.065h-31.45v2h31.45v-2zm56.54-20.08l.23.973.02-.004.01-.004-.26-.965zm5.95-2.55l.57.822.02-.014.02-.015-.61-.793zm3.06-3.91l.93.359-.93-.359zm-4.59-14.45l-.58.812.01.006v.006l.57-.824zm-18.7-8.33l-.33.943.01.003v.003l.32-.949zm-11.56-4.59l-.43.905.02.005.01.005.4-.915zm-10.37-6.63l-.66.747v.007l.01.007.65-.761zm-7.48-9.69l-.89.447v.011l.89-.458zm.17-28.56l.9.428.01-.009-.91-.419zm8.67-11.22l-.63-.774.63.774zm13.6-6.97l.29.958.01-.002v-.003l-.3-.953zm38.59 0l-.28.96.28-.96zm14.28 5.61l.94.344.3-.81-.76-.412-.48.878zm-7.65 20.91l-.46.888 1.01.522.39-1.066-.94-.344zm-11.05-4.42l-.32.946.01.005.02.005.29-.956zm-28.22.68l.53.848.01-.006-.54-.842zm-2.55 13.43l.82-.57-.82.57zm4.25 4.08l-.57.824.03.02.03.018.51-.862zm6.46 3.23l-.39.92.02.01.03.01.34-.94zm8.16 2.89l.35-.938-.01-.003-.01-.004-.33.945zm15.98 6.8l-.45.894.01.005.01.004.43-.903zm11.22 7.65l-.71.707.01.007.01.006.69-.72zm-2.55 50.49l.62.789v-.006l-.62-.783zm-48.96 7.99l.16-.987-.01-.002-.02-.002-.13.991zm-11.22-2.21l-.27.962v.002l.27-.964zm-8.33-2.89l-.41.912.01.004.01.003.39-.919zm-5.78-2.89l-.94-.334-.28.787.72.415.5-.868zm7.48-21.08l.48-.877-1.03-.565-.39 1.108.94.334zm12.92 5.27l-.3.955.02.004.01.003.27-.962zm19.04 3.21c3.78 0 6.93-.286 9.41-.877l-.46-1.946c-2.28.542-5.25.823-8.95.823v2zm9.44-.885c2.56-.698 4.66-1.587 6.26-2.693l-1.14-1.644c-1.35.934-3.21 1.745-5.64 2.407l.52 1.93zm6.3-2.722c1.59-1.226 2.74-2.67 3.38-4.344l-1.86-.718c-.49 1.273-1.39 2.435-2.74 3.476l1.22 1.586zm3.38-4.344c.62-1.604.92-3.371.92-5.289h-2c0 1.709-.27 3.228-.78 4.571l1.86.718zm.92-5.289c0-4.233-2.02-7.695-5.87-10.344l-1.14 1.648c3.4 2.338 5.01 5.223 5.01 8.696h2zm-5.86-10.332c-3.75-2.7-10.11-5.515-18.96-8.467l-.64 1.898c8.83 2.941 14.94 5.68 18.44 8.193l1.16-1.624zm-18.95-8.461a161.88 161.88 0 01-11.49-4.562l-.8 1.83c3.87 1.71 7.75 3.25 11.63 4.618l.66-1.886zm-11.46-4.552c-3.78-1.778-7.16-3.94-10.15-6.486l-1.3 1.522c3.13 2.668 6.67 4.925 10.59 6.774l.86-1.81zm-10.14-6.472c-2.96-2.636-5.38-5.767-7.25-9.401l-1.78.916c1.98 3.846 4.55 7.175 7.71 9.98l1.32-1.495zm-7.25-9.39c-1.84-3.683-2.78-8.169-2.78-13.493h-2c0 5.556.98 10.363 3 14.387l1.78-.894zm-2.78-13.493c0-5.313 1-10.037 2.96-14.192l-1.8-.856c-2.12 4.458-3.16 9.48-3.16 15.048h2zm2.97-14.2c1.98-4.284 4.77-7.903 8.39-10.866l-1.26-1.548c-3.86 3.157-6.84 7.018-8.95 11.575l1.82.838zm8.39-10.866c3.63-2.964 8.04-5.231 13.26-6.786l-.58-1.916c-5.43 1.618-10.09 3.998-13.94 7.154l1.26 1.548zm13.27-6.791c5.22-1.664 11.12-2.503 17.72-2.503v-2c-6.77 0-12.88.86-18.32 2.597l.6 1.906zm17.72-2.503c7.87 0 14.62.843 20.29 2.51l.56-1.92c-5.89-1.733-12.85-2.59-20.85-2.59v2zm20.29 2.51c5.74 1.687 10.42 3.533 14.08 5.528l.96-1.756c-3.82-2.085-8.65-3.979-14.48-5.691l-.56 1.918zm13.62 4.306l-7.65 20.91 1.88.688 7.65-20.91-1.88-.688zm-6.25 20.366c-3.35-1.732-7.09-3.227-11.22-4.488l-.58 1.912c4.03 1.232 7.66 2.684 10.88 4.352l.92-1.776zm-11.19-4.478c-4.1-1.406-9.03-2.094-14.77-2.094v2c5.59 0 10.29.672 14.13 1.986l.64-1.892zm-14.77-2.094c-6.39 0-11.23.905-14.31 2.878l1.08 1.684c2.58-1.653 6.93-2.562 13.23-2.562v-2zm-14.3 2.872c-3.05 1.91-4.55 4.92-4.55 8.838h2c0-3.335 1.23-5.651 3.61-7.142l-1.06-1.696zm-4.55 8.838c0 2.315.55 4.337 1.71 6.01l1.64-1.14c-.88-1.274-1.35-2.878-1.35-4.87h-2zm1.71 6.01c1.1 1.592 2.61 3.034 4.5 4.334l1.14-1.648c-1.74-1.193-3.06-2.471-4-3.825l-1.64 1.138zm4.56 4.372c1.97 1.158 4.16 2.253 6.58 3.287l.78-1.838c-2.34-1.006-4.46-2.064-6.34-3.173l-1.02 1.724zm6.63 3.308c2.5.909 5.22 1.874 8.17 2.895l.66-1.89c-2.95-1.019-5.66-1.98-8.15-2.885l-.68 1.88zm8.15 2.888c6.1 2.257 11.39 4.51 15.88 6.756l.9-1.788c-4.58-2.287-9.94-4.568-16.08-6.844l-.7 1.876zm15.9 6.765c4.45 2.114 8.09 4.603 10.94 7.454l1.42-1.414c-3.04-3.042-6.88-5.654-11.5-7.846l-.86 1.806zm10.96 7.467a26.532 26.532 0 016.55 9.998l1.88-.696a28.567 28.567 0 00-7.05-10.742l-1.38 1.44zm6.55 9.998c1.42 3.825 2.15 8.516 2.15 14.102h2c0-5.748-.75-10.69-2.27-14.798l-1.88.696zm2.15 14.102c0 10.729-3.74 18.98-11.18 24.887l1.24 1.566c7.98-6.333 11.94-15.195 11.94-26.453h-2zm-11.17 24.881c-7.46 5.81-18.81 8.799-34.24 8.799v2c15.63 0 27.51-3.018 35.47-9.221l-1.23-1.578zm-34.24 8.799c-5.17 0-9.82-.337-13.95-1.007l-.32 1.974c4.26.69 9.01 1.033 14.27 1.033v-2zm-13.98-1.011c-4.15-.562-7.85-1.291-11.08-2.183l-.54 1.928c3.34.921 7.13 1.666 11.36 2.237l.26-1.982zm-11.07-2.181c-3.15-.898-5.88-1.848-8.22-2.847l-.78 1.838c2.42 1.041 5.24 2.017 8.45 2.933l.55-1.924zm-8.2-2.84c-2.25-1.011-4.14-1.96-5.69-2.846l-1 1.736c1.63.927 3.58 1.905 5.87 2.934l.82-1.824zm-5.25-1.644l7.48-21.08-1.88-.668-7.48 21.08 1.88.668zm6.06-20.537c3.59 1.967 7.96 3.748 13.1 5.348l.6-1.91c-5.06-1.573-9.3-3.306-12.74-5.192l-.96 1.754zm13.13 5.355c5.33 1.506 11.77 2.248 19.31 2.248v-2c-7.42 0-13.67-.731-18.77-2.172l-.54 1.924z" fill="#646482"/></g><defs><filter id="filter0_d" x=".5" y=".47" width="2179.46" height="132.91" filterUnits="userSpaceOnUse" color-interpolation-filters="sRGB"><feFlood flood-opacity="0" result="BackgroundImageFix"/><feColorMatrix in="SourceAlpha" values="0 0 0 0 0 0 0 0 0 0 0 0 0 0 0 0 0 0 127 0"/><feOffset dy="4"/><feGaussianBlur stdDeviation="2"/><feColorMatrix values="0 0 0 0 0 0 0 0 0 0 0 0 0 0 0 0 0 0 0.25 0"/><feBlend in2="BackgroundImageFix" result="effect1_dropShadow"/><feBlend in="SourceGraphic" in2="effect1_dropShadow" result="shape"/></filter></defs></svg>