<svg width="2451" height="134" viewBox="0 0 2451 134" fill="none" xmlns="http://www.w3.org/2000/svg"><g filter="url(#filter0_d)"><path d="M102.98 4.19h1v-1h-1v1zm0 22.61v1h1v-1h-1zm-35.53 0v-1h-1v1h1zm0 95.2v1h1v-1h-1zm-26.52 0h-1v1h1v-1zm0-95.2h1v-1h-1v1zm-35.53 0h-1v1h1v-1zm0-22.61v-1h-1v1h1zm96.58 0V26.8h2V4.19h-2zm1 21.61H67.45v2h35.53v-2zm-36.53 1V122h2V26.8h-2zm1 94.2H40.93v2h26.52v-2zm-25.52 1V26.8h-2V122h2zm-1-96.2H5.4v2h35.53v-2zm-34.53 1V4.19h-2V26.8h2zm-1-21.61h97.58v-2H5.4v2zM120.024 122h-1v1h1v-1zm0-117.81v-1h-1v1h1zm79.56 0h1v-1h-1v1zm0 22.27v1h1v-1h-1zm-53.04 0v-1h-1v1h1zm0 23.12h-1v1h1v-1zm47.09 0h1v-1h-1v1zm0 21.76v1h1v-1h-1zm-47.09 0v-1h-1v1h1zm0 28.39h-1v1h1v-1zm56.95 0h1v-1h-1v1zm0 22.27v1h1v-1h-1zm-82.47 0V4.19h-2V122h2zm-1-116.81h79.56v-2h-79.56v2zm78.56-1v22.27h2V4.19h-2zm1 21.27h-53.04v2h53.04v-2zm-54.04 1v23.12h2V26.46h-2zm1 24.12h47.09v-2h-47.09v2zm46.09-1v21.76h2V49.58h-2zm1 20.76h-47.09v2h47.09v-2zm-48.09 1v28.39h2V71.34h-2zm1 29.39h56.95v-2h-56.95v2zm55.95-1V122h2V99.73h-2zm1 21.27h-83.47v2h83.47v-2zm29.486-12.6l-.731.683.004.005.727-.688zM222.61 37l.927.374.002-.005-.929-.369zm12.58-19.38l.699.715.008-.008-.707-.707zm19.04-12.07l-.347-.938.347.938zm37.57-2.89l-.191.982.013.002.013.002.165-.986zm10.71 2.55l-.317.949.016.005.016.005.285-.959zm12.07 5.27l.941.336.271-.758-.682-.426-.53.848zm-7.65 21.42l-.47.883 1.022.543.389-1.09-.941-.336zm-12.75-4.93l-.275.962.006.001.269-.963zm-28.39 0l-.325-.946-.008.003.333.943zm-10.37 6.63l-.708-.707.708.707zm-8.16 44.2l-.973.232.003.013.004.014.966-.259zm5.78 12.07l-.794.608.006.009.007.008.781-.625zm10.54 8.16l-.429.904.01.004.01.005.409-.913zm26.01 2.21l-.147-.99.147.99zm8.16-1.53l.231.973.022-.005.021-.007-.274-.961zm6.29-2.21l.4.916-.4-.916zm4.93-2.21l.945-.325-.36-1.047-1.005.464.42.908zm7.31 21.25l.518.855.689-.418-.262-.762-.945.325zm-15.81 6.12l.257.966-.257-.966zm-23.63 1.72c-18.967 0-33.29-5.27-43.134-15.668l-1.453 1.376c10.329 10.908 25.247 16.292 44.587 16.292v-2zm-43.13-15.663c-9.748-10.412-14.69-25.265-14.69-44.707h-2c0 19.771 5.03 35.179 15.23 46.073l1.46-1.366zM219.02 63.01c0-9.642 1.513-18.182 4.517-25.636l-1.855-.748c-3.116 7.733-4.662 16.533-4.662 26.384h2zm4.519-25.641c3.014-7.591 7.134-13.93 12.35-19.034l-1.399-1.43c-5.437 5.322-9.704 11.904-12.81 19.726l1.859.738zm12.358-19.042c5.22-5.22 11.442-9.167 18.679-11.839l-.693-1.876c-7.496 2.768-13.967 6.868-19.401 12.3l1.415 1.415zm18.679-11.839c7.245-2.675 15.117-4.018 23.624-4.018v-2c-8.721 0-16.829 1.377-24.317 4.142l.693 1.876zM278.2 2.47c4.934 0 9.403.393 13.409 1.172l.381-1.964C287.837.871 283.238.47 278.2.47v2zm13.435 1.176c4.042.674 7.559 1.513 10.558 2.513l.633-1.898c-3.121-1.04-6.744-1.901-10.862-2.587l-.329 1.972zm10.59 2.523c3.025.896 5.516 1.84 7.487 2.825l.895-1.788c-2.109-1.055-4.718-2.038-7.813-2.955l-.569 1.918zm7.487 2.825c2.036 1.018 3.474 1.794 4.338 2.334l1.06-1.696c-.95-.593-2.459-1.404-4.503-2.426l-.895 1.788zm3.926 1.15l-7.65 21.42 1.883.672 7.65-21.42-1.883-.672zm-6.239 20.873c-3.703-1.967-8.023-3.635-12.951-5.01l-.537 1.926c4.819 1.345 8.999 2.964 12.549 4.85l.939-1.766zm-12.945-5.008c-4.867-1.391-10.403-2.079-16.594-2.079v2c6.048 0 11.392.672 16.045 2.002l.549-1.923zM277.86 23.93c-4.194 0-8.327.7-12.395 2.094l.649 1.892c3.865-1.325 7.779-1.986 11.746-1.986v-2zm-12.403 2.097c-4.003 1.413-7.585 3.707-10.745 6.866l1.415 1.414c2.96-2.96 6.291-5.087 9.995-6.394l-.665-1.886zm-10.745 6.866c-3.066 3.066-5.514 7.048-7.367 11.911l1.869.712c1.774-4.657 4.085-8.381 6.913-11.209l-1.415-1.414zm-7.367 11.911c-1.868 4.905-2.785 10.813-2.785 17.696h2c0-6.717.896-12.369 2.654-16.984l-1.869-.712zM244.56 62.5c0 5.51.573 10.688 1.727 15.532l1.945-.464c-1.113-4.676-1.672-9.697-1.672-15.068h-2zm1.734 15.56c1.276 4.757 3.256 8.902 5.952 12.418l1.587-1.216c-2.518-3.284-4.391-7.186-5.608-11.721l-1.931.518zm5.965 12.435c2.823 3.53 6.462 6.34 10.892 8.439l.857-1.808c-4.183-1.98-7.571-4.61-10.188-7.88l-1.561 1.249zm10.912 8.448c4.467 1.998 9.828 2.977 16.049 2.977v-2c-6.02 0-11.086-.948-15.232-2.803l-.817 1.826zm16.049 2.977c3.891 0 7.397-.229 10.516-.691l-.293-1.978c-3.001.444-6.408.669-10.223.669v2zm10.516-.691c3.082-.456 5.831-.971 8.245-1.546l-.463-1.946c-2.346.559-5.037 1.064-8.075 1.514l.293 1.978zm8.288-1.558c2.413-.689 4.553-1.44 6.416-2.255l-.801-1.832c-1.764.772-3.817 1.494-6.164 2.165l.549 1.922zm6.416-2.255a272.768 272.768 0 004.949-2.218l-.839-1.816a271.81 271.81 0 01-4.911 2.202l.801 1.832zm3.584-2.8l7.31 21.249 1.891-.65-7.31-21.25-1.891.65zm7.737 20.069c-3.625 2.197-8.792 4.207-15.549 6.009l.515 1.932c6.843-1.825 12.216-3.894 16.071-6.231l-1.037-1.71zm-15.549 6.009c-6.697 1.786-14.484 2.686-23.372 2.686v2c9.017 0 16.984-.913 23.887-2.754l-.515-1.932zM404.414 4.19v-1h-1v1h1zm26.52 0h1v-1h-1v1zm0 117.81v1h1v-1h-1zm-26.52 0h-1v1h1v-1zm0-49.98h1v-1h-1v1zm-44.54 0v-1h-1v1h1zm0 49.98v1h1v-1h-1zm-26.52 0h-1v1h1v-1zm0-117.81v-1h-1v1h1zm26.52 0h1v-1h-1v1zm0 45.05h-1v1h1v-1zm44.54 0v1h1v-1h-1zm0-44.05h26.52v-2h-26.52v2zm25.52-1V122h2V4.19h-2zm1 116.81h-26.52v2h26.52v-2zm-25.52 1V72.02h-2V122h2zm-1-50.98h-44.54v2h44.54v-2zm-45.54 1V122h2V72.02h-2zm1 48.98h-26.52v2h26.52v-2zm-25.52 1V4.19h-2V122h2zm-1-116.81h26.52v-2h-26.52v2zm25.52-1v45.05h2V4.19h-2zm1 46.05h44.54v-2h-44.54v2zm45.54-1V4.19h-2v45.05h2zM537.248 122l-.872.491.287.509h.585v-1zm-24.65-39.95l-.83.558.83-.558zm-28.22-37.23l.76-.65-1.76-2.06v2.71h1zm0 77.18v1h1v-1h-1zm-26.18 0h-1v1h1v-1zm0-117.81v-1h-1v1h1zm21.59 0l.707-.707-.293-.293h-.414v1zm12.41 13.77l.768-.64-.768.64zm13.77 17.51l-.802.598.006.008.006.008.79-.614zm14.11 19.21l-.822.57.005.007.817-.577zm13.09 19.04l-.832.555 1.832 2.748V73.72h-1zm0-69.53v-1h-1v1h1zm26.35 0h1v-1h-1v1zm0 117.81v1h1v-1h-1zm-21.399-.491a593.806 593.806 0 00-24.692-40.017l-1.659 1.116a591.832 591.832 0 0124.608 39.883l1.743-.982zm-24.692-40.017c-8.86-13.178-18.29-25.618-28.289-37.322l-1.521 1.3c9.948 11.643 19.332 24.022 28.151 37.138l1.659-1.116zM483.378 44.82V122h2V44.82h-2zm1 76.18h-26.18v2h26.18v-2zm-25.18 1V4.19h-2V122h2zm-1-116.81h21.59v-2h-21.59v2zm20.883-.293c3.712 3.713 7.828 8.28 12.348 13.703l1.537-1.28c-4.547-5.456-8.704-10.07-12.471-13.837l-1.414 1.414zM491.429 18.6c4.521 5.425 9.1 11.247 13.737 17.468l1.603-1.196c-4.656-6.246-9.257-12.097-13.803-17.552l-1.537 1.28zm13.749 17.484a441.547 441.547 0 0114.078 19.167l1.643-1.142a444.854 444.854 0 00-14.142-19.253l-1.579 1.228zm14.083 19.173a846.8 846.8 0 0113.075 19.018l1.664-1.11a847.058 847.058 0 00-13.106-19.062l-1.633 1.154zm14.907 18.463V4.19h-2v69.53h2zm-1-68.53h26.35v-2h-26.35v2zm25.35-1V122h2V4.19h-2zm1 116.81h-22.27v2h22.27v-2zm51.486-42.35l-.96.28.003.012.004.01.953-.302zm6.12 12.07l-.794.608.011.015.012.015.771-.638zm9.86 7.65l.426-.905-.426.905zm26.35 0l-.416-.91-.01.005.426.905zm9.86-7.65l-.781-.625-.003.004.784.621zm6.12-12.07l-.953-.302-.004.01-.003.011.96.281zm0-31.28l-.962.275.004.013.005.014.953-.302zm-6.12-12.07l-.794.608.011.015.012.015.771-.638zm-9.86-7.82l-.426.905.01.005.416-.91zm-26.35.17l.426.905.01-.005.011-.006-.447-.894zm-9.86 7.82l-.781-.625-.003.004.784.621zm-6.12 12.07l-.956-.296-.002.008-.002.007.96.281zm83.3 42.16l-.93-.37-.002.008.932.362zm-12.24 19.21l.699.715.008-.008-.707-.707zm-18.7 11.56l-.338-.941-.005.002.343.939zm-64.6-11.56l-.7.715.008.007.692-.722zm-12.58-19.21l-.93.369.002.005.928-.374zm.17-53.21l.922.386.002-.005-.924-.381zm12.75-19.38l-.692-.722-.008.007.7.715zm18.7-11.73l-.343-.94-.005.002.348.938zm45.22 0l.343-.94-.343.94zm18.7 11.73l.699-.715-.699.715zm12.58 19.38l-.93.369.002.005.928-.374zm-86.34 26.52c0 5.857.689 11.167 2.08 15.92l1.92-.56c-1.329-4.54-2-9.657-2-15.36h-2zm2.087 15.942c1.503 4.742 3.593 8.873 6.279 12.376l1.587-1.216c-2.527-3.297-4.517-7.213-5.96-11.764l-1.906.604zm6.302 12.406a29.28 29.28 0 0010.205 7.917l.852-1.81a27.285 27.285 0 01-9.516-7.383l-1.541 1.276zm10.205 7.917c4.007 1.886 8.577 2.815 13.686 2.815v-2c-4.865 0-9.135-.884-12.834-2.625l-.852 1.81zm13.686 2.815c4.999 0 9.511-.931 13.516-2.815l-.852-1.81c-3.702 1.742-7.917 2.625-12.664 2.625v2zm13.506-2.81c4.104-1.877 7.518-4.523 10.227-7.939L662.41 90.1c-2.504 3.158-5.663 5.611-9.492 7.361l.832 1.82zm10.225-7.935c2.81-3.513 4.906-7.656 6.298-12.414l-1.919-.562c-1.327 4.536-3.311 8.439-5.941 11.726l1.562 1.25zm6.292-12.393c1.509-4.76 2.257-10.078 2.257-15.942h-2c0 5.696-.726 10.805-2.163 15.338l1.906.604zm2.257-15.942c0-5.864-.748-11.182-2.257-15.942l-1.906.604c1.437 4.533 2.163 9.642 2.163 15.338h2zm-2.249-15.915c-1.392-4.871-3.49-9.024-6.311-12.433l-1.541 1.276c2.619 3.164 4.601 7.058 5.929 11.707l1.923-.55zm-6.288-12.403c-2.708-3.533-6.125-6.241-10.237-8.122l-.832 1.82c3.821 1.746 6.977 4.25 9.482 7.518l1.587-1.216zm-10.227-8.117c-4.005-1.884-8.517-2.815-13.516-2.815v2c4.747 0 8.962.883 12.664 2.625l.852-1.81zm-13.516-2.815c-5.118 0-9.695.99-13.707 2.996l.894 1.788c3.694-1.847 7.957-2.784 12.813-2.784v-2zm-13.686 2.985c-3.995 1.88-7.402 4.584-10.215 8.1l1.562 1.25c2.626-3.284 5.793-5.793 9.505-7.54l-.852-1.81zM616.34 34.85c-2.696 3.4-4.788 7.539-6.292 12.395l1.911.592c1.443-4.664 3.432-8.571 5.948-11.745l-1.567-1.242zm-6.296 12.41c-1.391 4.752-2.08 10.005-2.08 15.751h2c0-5.587.67-10.648 2-15.19l-1.92-.56zm87.85 15.751c0 9.987-1.515 18.754-4.52 26.321l1.859.738c3.116-7.847 4.661-16.873 4.661-27.059h-2zm-4.522 26.328c-2.902 7.478-6.91 13.76-12.015 18.865l1.414 1.414c5.321-5.321 9.473-11.846 12.465-19.555l-1.864-.724zm-12.008 18.857c-5.104 4.994-11.213 8.773-18.338 11.334l.676 1.882c7.381-2.652 13.739-6.58 19.061-11.786l-1.399-1.43zm-18.343 11.336c-7.021 2.563-14.611 3.849-22.777 3.849v2c8.38 0 16.204-1.32 23.463-3.971l-.686-1.878zm-22.777 3.849c-7.937 0-15.413-1.285-22.437-3.849l-.686 1.878c7.256 2.649 14.966 3.971 23.123 3.971v-2zm-22.437-3.849c-7.014-2.561-13.128-6.342-18.352-11.343l-1.383 1.444c5.43 5.199 11.783 9.125 19.049 11.777l.686-1.878zm-18.344-11.336c-5.218-5.107-9.338-11.39-12.352-18.869l-1.855.748c3.107 7.709 7.374 14.232 12.808 19.551l1.399-1.43zm-12.35-18.864c-3.004-7.567-4.519-16.334-4.519-26.321h-2c0 10.186 1.545 19.212 4.66 27.059l1.859-.738zm-4.519-26.321c0-9.983 1.57-18.687 4.682-26.134l-1.845-.772c-3.234 7.74-4.837 16.716-4.837 26.906h2zm4.684-26.14c3.128-7.595 7.306-13.937 12.525-19.045l-1.399-1.43c-5.434 5.32-9.756 11.897-12.975 19.714l1.849.762zm12.518-19.038c5.341-5.12 11.458-8.956 18.356-11.514l-.696-1.876c-7.156 2.655-13.506 6.639-19.044 11.946l1.384 1.444zM618.147 6.32c7.027-2.565 14.39-3.849 22.097-3.849v-2c-7.934 0-15.53 1.323-22.783 3.97l.686 1.88zm22.097-3.849c7.936 0 15.413 1.285 22.437 3.85l.686-1.88C656.11 1.793 648.401.47 640.244.47v2zm22.437 3.85c7.009 2.558 13.12 6.393 18.343 11.505l1.399-1.43c-5.43-5.314-11.786-9.3-19.056-11.954l-.686 1.878zm18.343 11.505c5.216 5.105 9.336 11.443 12.35 19.034l1.859-.738c-3.106-7.822-7.372-14.404-12.81-19.726l-1.399 1.43zm12.352 19.039c3.003 7.45 4.518 16.159 4.518 26.146h2c0-10.186-1.545-19.158-4.663-26.894l-1.855.748zM799.71 99.22h1v-1h-1v1zm0 22.78v1h1v-1h-1zM721 122h-1v1h1v-1zm0-117.81v-1h-1v1h1zm26.52 0h1v-1h-1v1zm0 95.03h-1v1h1v-1zm51.19 0V122h2V99.22h-2zm1 21.78H721v2h78.71v-2zM722 122V4.19h-2V122h2zM721 5.19h26.52v-2H721v2zm25.52-1v95.03h2V4.19h-2zm1 96.03h52.19v-2h-52.19v2zm90.261-21.57l-.96.28.003.012.004.01.953-.302zm6.12 12.07l-.794.608.012.015.012.015.77-.638zm9.86 7.65l.426-.905-.426.905zm26.35 0l-.416-.91-.01.005.426.905zm9.86-7.65l-.781-.625-.002.004.783.621zm6.12-12.07l-.953-.302-.003.01-.004.011.96.281zm0-31.28l-.961.275.004.013.004.014.953-.302zm-6.12-12.07l-.794.608.012.015.012.015.77-.638zm-9.86-7.82l-.426.905.01.005.416-.91zm-26.35.17l.426.905.011-.005.01-.006-.447-.894zm-9.86 7.82l-.781-.625-.002.004.783.621zm-6.12 12.07l-.955-.296-.002.008-.003.007.96.281zm83.3 42.16l-.929-.37-.003.008.932.362zm-12.24 19.21l.699.715.008-.008-.707-.707zm-18.7 11.56l-.338-.941-.005.002.343.939zm-64.6-11.56l-.699.715.008.007.691-.722zm-12.58-19.21l-.929.369.002.005.927-.374zm.17-53.21l.923.386.002-.005-.925-.381zm12.75-19.38l-.692-.722-.007.007.699.715zm18.7-11.73l-.343-.94-.005.002.348.938zm45.22 0l.343-.94-.343.94zm18.7 11.73l.7-.715-.7.715zm12.58 19.38l-.929.369.002.005.927-.374zm-86.34 26.52c0 5.857.689 11.167 2.08 15.92l1.92-.56c-1.329-4.54-2-9.657-2-15.36h-2zm2.087 15.942c1.503 4.742 3.593 8.873 6.279 12.376l1.588-1.216c-2.527-3.297-4.518-7.213-5.961-11.764l-1.906.604zm6.303 12.406a29.276 29.276 0 0010.204 7.917l.852-1.81a27.272 27.272 0 01-9.515-7.383l-1.541 1.276zm10.204 7.917c4.008 1.886 8.577 2.815 13.686 2.815v-2c-4.864 0-9.135-.884-12.834-2.625l-.852 1.81zm13.686 2.815c4.999 0 9.511-.931 13.516-2.815l-.852-1.81c-3.702 1.742-7.917 2.625-12.664 2.625v2zm13.506-2.81c4.104-1.877 7.519-4.523 10.228-7.939l-1.567-1.242c-2.505 3.158-5.664 5.611-9.493 7.361l.832 1.82zm10.225-7.935c2.81-3.513 4.906-7.656 6.299-12.414l-1.92-.562c-1.327 4.536-3.311 8.439-5.941 11.726l1.562 1.25zm6.292-12.393c1.51-4.76 2.257-10.078 2.257-15.942h-2c0 5.696-.726 10.805-2.163 15.338l1.906.604zm2.257-15.942c0-5.864-.747-11.182-2.257-15.942l-1.906.604c1.437 4.533 2.163 9.642 2.163 15.338h2zm-2.248-15.915c-1.392-4.871-3.49-9.024-6.311-12.433l-1.541 1.276c2.619 3.164 4.601 7.058 5.929 11.707l1.923-.55zm-6.288-12.403c-2.708-3.533-6.126-6.241-10.238-8.122l-.832 1.82c3.821 1.746 6.977 4.25 9.482 7.518l1.588-1.216zm-10.228-8.117c-4.005-1.884-8.517-2.815-13.516-2.815v2c4.747 0 8.962.883 12.664 2.625l.852-1.81zm-13.516-2.815c-5.117 0-9.695.99-13.707 2.996l.894 1.788c3.694-1.847 7.957-2.784 12.813-2.784v-2zm-13.686 2.985c-3.994 1.88-7.402 4.584-10.215 8.1l1.562 1.25c2.627-3.284 5.793-5.793 9.505-7.54l-.852-1.81zm-10.217 8.104c-2.697 3.4-4.789 7.539-6.292 12.395l1.91.592c1.444-4.664 3.432-8.571 5.949-11.745l-1.567-1.242zm-6.297 12.41c-1.39 4.752-2.08 10.005-2.08 15.751h2c0-5.587.671-10.648 2-15.19l-1.92-.56zm87.85 15.751c0 9.987-1.515 18.754-4.519 26.321l1.858.738c3.116-7.847 4.661-16.873 4.661-27.059h-2zm-4.522 26.328c-2.902 7.478-6.91 13.76-12.015 18.865l1.414 1.414c5.322-5.321 9.474-11.846 12.465-19.555l-1.864-.724zm-12.007 18.857c-5.105 4.994-11.213 8.773-18.339 11.334l.676 1.882c7.381-2.652 13.74-6.58 19.061-11.786l-1.398-1.43zm-18.344 11.336c-7.021 2.563-14.61 3.849-22.777 3.849v2c8.38 0 16.204-1.32 23.463-3.971l-.686-1.878zm-22.777 3.849c-7.937 0-15.413-1.285-22.437-3.849l-.686 1.878c7.256 2.649 14.966 3.971 23.123 3.971v-2zm-22.437-3.849c-7.014-2.561-13.128-6.342-18.351-11.343l-1.383 1.444c5.429 5.199 11.782 9.125 19.048 11.777l.686-1.878zm-18.343-11.336c-5.219-5.107-9.339-11.39-12.352-18.869l-1.855.748c3.106 7.709 7.373 14.232 12.808 19.551l1.399-1.43zm-12.35-18.864c-3.005-7.567-4.52-16.334-4.52-26.321h-2c0 10.186 1.545 19.212 4.661 27.059l1.859-.738zm-4.52-26.321c0-9.983 1.571-18.687 4.683-26.134l-1.846-.772c-3.234 7.74-4.837 16.716-4.837 26.906h2zm4.685-26.14c3.128-7.595 7.306-13.937 12.525-19.045l-1.399-1.43c-5.435 5.32-9.757 11.897-12.976 19.714l1.85.762zm12.517-19.038c5.342-5.12 11.458-8.956 18.356-11.514l-.696-1.876c-7.155 2.655-13.506 6.639-19.044 11.946l1.384 1.444zm18.351-11.513c7.027-2.565 14.391-3.849 22.097-3.849v-2c-7.933 0-15.53 1.323-22.783 3.97l.686 1.88zm22.097-3.849c7.937 0 15.413 1.285 22.437 3.85l.686-1.88C882.888 1.793 875.178.47 867.021.47v2zm22.437 3.85c7.009 2.558 13.121 6.393 18.344 11.505l1.399-1.43c-5.431-5.314-11.786-9.3-19.057-11.954l-.686 1.878zm18.344 11.505c5.216 5.105 9.335 11.443 12.35 19.034l1.858-.738c-3.105-7.822-7.372-14.404-12.809-19.726l-1.399 1.43zm12.352 19.039c3.002 7.45 4.517 16.159 4.517 26.146h2c0-10.186-1.545-19.158-4.662-26.894l-1.855.748zm58.224-1.904l-.78-.626-.001.001.781.625zm-6.12 43.86l-.962.275.002.006.96-.281zm6.12 12.07l.781-.625-.781.625zm10.2 7.99l-.427.904.01.005.011.005.406-.914zm21.762 2.55l-.05-.999-.01.001.06.998zm5.61-.68l.21.978.79-.17v-.808h-1zm0-40.97v-1h-1v1h1zm26.52 0h1v-1h-1v1zm0 58.31l.36.931.64-.249v-.682h-1zm-15.3 3.91l-.19-.982-.01.002-.01.001.21.979zm-50.152-1.87l-.356.934.005.002.351-.936zm-18.36-11.9l-.715.699.715-.699zm-11.9-19.21l-.942.337.005.013.937-.35zm.51-52.19l-.928-.374.928.374zm12.58-19.21l.699.715.008-.008-.707-.707zm18.7-12.07l-.351-.936-.005.002.356.934zm38.082-2.89l-.18.984.02.003.01.002.15-.989zm11.56 2.55l-.31.952.02.006.02.006.27-.964zm7.99 2.89l-.45.894.01.005.01.005.43-.904zm4.59 2.38l.94.339.27-.76-.68-.427-.53.848zm-7.65 21.25l-.47.883 1.02.541.39-1.085-.94-.339zm-12.58-4.93l-.3.953.01.005.01.004.28-.962zm-15.3-3.21c-12.533 0-21.832 3.511-27.642 10.744l1.559 1.252c5.297-6.594 13.905-9.996 26.083-9.996v-2zm-27.643 10.745c-5.626 7.033-8.379 16.63-8.379 28.675h2c0-11.755 2.687-20.858 7.941-27.425l-1.562-1.25zm-8.379 28.675c0 5.858.689 11.222 2.078 16.085l1.923-.55c-1.33-4.657-2.001-9.833-2.001-15.535h-2zm2.08 16.09c1.393 4.759 3.489 8.902 6.299 12.415l1.562-1.25c-2.63-3.287-4.614-7.19-5.942-11.726l-1.919.562zm6.299 12.415c2.818 3.523 6.341 6.28 10.554 8.27l.854-1.81c-3.948-1.863-7.225-4.433-9.846-7.71l-1.562 1.25zm10.575 8.279c4.232 1.881 9.136 2.806 14.688 2.806v-2c-5.332 0-9.949-.888-13.876-2.634l-.812 1.828zm14.688 2.806c2.96 0 5.47-.057 7.53-.172l-.11-1.996c-2.01.112-4.49.168-7.42.168v2zm7.53-.171c2.19-.116 4.12-.347 5.77-.701l-.42-1.956c-1.52.326-3.34.548-5.45.659l.1 1.998zm6.56-1.679V59.78h-2v40.97h2zm-1-39.97h26.52v-2h-26.52v2zm25.52-1v58.31h2V59.78h-2zm.63 57.379c-3.08 1.211-8.11 2.501-15.12 3.859l.38 1.964c7.03-1.362 12.21-2.679 15.47-3.961l-.73-1.862zm-15.14 3.862c-6.93 1.455-15.53 2.189-25.8 2.189v2c10.35 0 19.1-.739 26.21-2.231l-.41-1.958zm-25.8 2.189c-8.739 0-16.665-1.344-23.791-4.016l-.702 1.872c7.38 2.768 15.548 4.144 24.493 4.144v-2zm-23.786-4.014c-7.012-2.671-13.007-6.56-18.001-11.665l-1.43 1.398c5.206 5.322 11.45 9.366 18.719 12.135l.712-1.868zm-18.001-11.665c-4.992-5.103-8.888-11.383-11.678-18.86l-1.874.699c2.877 7.71 6.914 14.236 12.122 19.559l1.43-1.398zm-11.674-18.848c-2.674-7.466-4.021-16.018-4.021-25.673h-2c0 9.838 1.372 18.626 4.138 26.347l1.883-.674zm-4.021-25.673c0-9.758 1.514-18.353 4.517-25.806l-1.855-.748c-3.116 7.734-4.662 16.591-4.662 26.554h2zm4.517-25.806c3.014-7.478 7.134-13.762 12.352-18.87l-1.399-1.429c-5.434 5.32-9.701 11.842-12.808 19.551l1.855.748zm12.36-18.877c5.225-5.225 11.339-9.172 18.349-11.843l-.712-1.869c-7.27 2.77-13.624 6.87-19.051 12.298l1.414 1.414zm18.344-11.84c7.135-2.676 14.722-4.017 22.771-4.017v-2c-8.276 0-16.102 1.38-23.473 4.144l.702 1.872zm22.771-4.017c5.51 0 10.43.394 14.78 1.174l.35-1.968C1012.31.87 1007.27.47 1001.67.47v2zm14.81 1.179c4.5.675 8.29 1.514 11.4 2.513l.61-1.904c-3.24-1.041-7.15-1.902-11.71-2.587l-.3 1.978zm11.44 2.525c3.25.897 5.85 1.84 7.81 2.82l.89-1.788c-2.11-1.06-4.84-2.044-8.17-2.96l-.53 1.928zm7.83 2.83c2.15 1.018 3.63 1.79 4.49 2.324l1.06-1.696c-.96-.6-2.54-1.414-4.69-2.436l-.86 1.808zm4.08 1.137l-7.65 21.25 1.88.678 7.65-21.25-1.88-.678zm-6.24 20.706c-3.7-1.966-7.96-3.633-12.78-5.009l-.55 1.924c4.71 1.344 8.83 2.963 12.39 4.851l.94-1.766zm-12.75-5c-4.76-1.509-9.96-2.257-15.6-2.257v2c5.46 0 10.46.725 15 2.163l.6-1.906zM1107 52.64l-.86.51.86 1.454.86-1.455-.86-.509zm13.6-24.14l.88.472-.88-.472zm11.9-24.31v-1h-.65l-.26.594.91.406zm29.24 0l.89.454.74-1.454h-1.63v1zm-20.06 36.89l.87.502-.87-.502zm-21.93 35.87l-.84-.54-.16.247v.293h1zm0 45.05v1h1v-1h-1zm-26.52 0h-1v1h1v-1zm0-44.71h1v-.293l-.16-.247-.84.54zm-22.1-36.04l-.86.499v.006l.86-.505zm-20.06-37.06v-1h-1.63l.74 1.454.89-.454zm30.77 0l.92-.406-.27-.594h-.65v1zm11.73 24.31l-.88.462.88-.462zm14.29 24.65a639.798 639.798 0 0013.62-24.178l-1.76-.944a651.51 651.51 0 01-13.58 24.103l1.72 1.018zm13.62-24.178a371.5 371.5 0 0011.94-24.376l-1.83-.812a368.233 368.233 0 01-11.87 24.244l1.76.944zM1132.5 5.19h29.24v-2h-29.24v2zm28.35-1.454a756.873 756.873 0 01-20.03 36.842l1.73 1.004a752.853 752.853 0 0020.08-36.938l-1.78-.908zm-20.03 36.842a957.372 957.372 0 01-21.91 35.832l1.68 1.08a946.407 946.407 0 0021.96-35.908l-1.73-1.004zm-22.07 36.372V122h2V76.95h-2zm1 44.05h-26.52v2h26.52v-2zm-25.52 1V77.29h-2V122h2zm-.16-45.25A1026.212 1026.212 0 011072 40.745l-1.73 1.01c7.03 12.025 14.41 24.05 22.12 36.075l1.68-1.08zM1072 40.751c-6.91-11.998-13.58-24.336-20.04-37.015l-1.78.908a815.19 815.19 0 0020.09 37.105l1.73-.998zM1051.07 5.19h30.77v-2h-30.77v2zm29.86-.594c3.63 8.18 7.55 16.301 11.76 24.366l1.77-.924a430.114 430.114 0 01-11.7-24.254l-1.83.812zm11.76 24.366c4.2 8.063 8.68 16.125 13.45 24.187l1.72-1.018a509.342 509.342 0 01-13.4-24.093l-1.77.924zM1386.11 4.19h1v-1h-1v1zm0 22.61v1h1v-1h-1zm-35.53 0v-1h-1v1h1zm0 95.2v1h1v-1h-1zm-26.52 0h-1v1h1v-1zm0-95.2h1v-1h-1v1zm-35.53 0h-1v1h1v-1zm0-22.61v-1h-1v1h1zm96.58 0V26.8h2V4.19h-2zm1 21.61h-35.53v2h35.53v-2zm-36.53 1V122h2V26.8h-2zm1 94.2h-26.52v2h26.52v-2zm-25.52 1V26.8h-2V122h2zm-1-96.2h-35.53v2h35.53v-2zm-34.53 1V4.19h-2V26.8h2zm-1-21.61h97.58v-2h-97.58v2zM1403.16 122h-1v1h1v-1zm0-117.81v-1h-1v1h1zm79.56 0h1v-1h-1v1zm0 22.27v1h1v-1h-1zm-53.04 0v-1h-1v1h1zm0 23.12h-1v1h1v-1zm47.09 0h1v-1h-1v1zm0 21.76v1h1v-1h-1zm-47.09 0v-1h-1v1h1zm0 28.39h-1v1h1v-1zm56.95 0h1v-1h-1v1zm0 22.27v1h1v-1h-1zm-82.47 0V4.19h-2V122h2zm-1-116.81h79.56v-2h-79.56v2zm78.56-1v22.27h2V4.19h-2zm1 21.27h-53.04v2h53.04v-2zm-54.04 1v23.12h2V26.46h-2zm1 24.12h47.09v-2h-47.09v2zm46.09-1v21.76h2V49.58h-2zm1 20.76h-47.09v2h47.09v-2zm-48.09 1v28.39h2V71.34h-2zm1 29.39h56.95v-2h-56.95v2zm55.95-1V122h2V99.73h-2zm1 21.27h-83.47v2h83.47v-2zm29.48-12.6l-.73.683.01.005.72-.688zM1505.74 37l.93.374v-.005l-.93-.369zm12.58-19.38l.7.715.01-.008-.71-.707zm19.04-12.07l-.34-.938.34.938zm37.57-2.89l-.19.982.02.002.01.002.16-.986zm10.71 2.55l-.31.949.01.005.02.005.28-.959zm12.07 5.27l.95.336.27-.758-.69-.426-.53.848zm-7.65 21.42l-.46.883 1.02.543.39-1.09-.95-.336zm-12.75-4.93l-.27.962.01.001.26-.963zm-28.39 0l-.32-.946-.01.003.33.943zm-10.37 6.63l-.7-.707.7.707zm-8.16 44.2l-.97.232v.013l.01.014.96-.259zm5.78 12.07l-.79.608.01.009v.008l.78-.625zm10.54 8.16l-.42.904.01.004.01.005.4-.913zm26.01 2.21l-.14-.99.14.99zm8.16-1.53l.24.973.02-.005.02-.007-.28-.961zm6.29-2.21l.41.916-.41-.916zm4.93-2.21l.95-.325-.36-1.047-1 .464.41.908zm7.31 21.25l.52.855.69-.418-.26-.762-.95.325zm-15.81 6.12l.26.966-.26-.966zm-23.63 1.72c-18.96 0-33.28-5.27-43.13-15.668l-1.45 1.376c10.33 10.908 25.24 16.292 44.58 16.292v-2zm-43.13-15.663c-9.74-10.412-14.69-25.265-14.69-44.707h-2c0 19.771 5.03 35.179 15.23 46.073l1.46-1.366zm-14.69-44.707c0-9.642 1.52-18.182 4.52-25.636l-1.85-.748c-3.12 7.733-4.67 16.533-4.67 26.384h2zm4.52-25.641c3.02-7.591 7.14-13.93 12.35-19.034l-1.4-1.43c-5.43 5.322-9.7 11.904-12.81 19.726l1.86.738zm12.36-19.042c5.22-5.22 11.44-9.167 18.68-11.839l-.69-1.876c-7.5 2.768-13.97 6.868-19.4 12.3l1.41 1.415zm18.68-11.839c7.25-2.675 15.12-4.018 23.62-4.018v-2c-8.72 0-16.82 1.377-24.31 4.142l.69 1.876zm23.62-4.018c4.94 0 9.41.393 13.41 1.172l.39-1.964c-4.16-.807-8.76-1.208-13.8-1.208v2zm13.44 1.176c4.04.674 7.56 1.513 10.56 2.513l.63-1.898c-3.12-1.04-6.74-1.901-10.86-2.587l-.33 1.972zm10.59 2.523c3.02.896 5.52 1.84 7.49 2.825l.89-1.788c-2.11-1.055-4.72-2.038-7.81-2.955l-.57 1.918zm7.49 2.825c2.03 1.018 3.47 1.794 4.33 2.334l1.06-1.696c-.95-.593-2.45-1.404-4.5-2.426l-.89 1.788zm3.92 1.15l-7.65 21.42 1.89.672 7.65-21.42-1.89-.672zm-6.24 20.873c-3.7-1.967-8.02-3.635-12.95-5.01l-.53 1.926c4.81 1.345 8.99 2.964 12.55 4.85l.93-1.766zm-12.94-5.008c-4.87-1.391-10.4-2.079-16.6-2.079v2c6.05 0 11.4.672 16.05 2.002l.55-1.923zm-16.6-2.079c-4.19 0-8.32.7-12.39 2.094l.65 1.892c3.86-1.325 7.78-1.986 11.74-1.986v-2zm-12.4 2.097c-4 1.413-7.58 3.707-10.74 6.866l1.41 1.414c2.96-2.96 6.29-5.087 10-6.394l-.67-1.886zm-10.74 6.866c-3.07 3.066-5.52 7.048-7.37 11.911l1.87.712c1.77-4.657 4.08-8.381 6.91-11.209l-1.41-1.414zm-7.37 11.911c-1.87 4.905-2.79 10.813-2.79 17.696h2c0-6.717.9-12.369 2.66-16.984l-1.87-.712zm-2.79 17.696c0 5.51.58 10.688 1.73 15.532l1.95-.464c-1.12-4.676-1.68-9.697-1.68-15.068h-2zm1.74 15.56c1.27 4.757 3.26 8.902 5.95 12.418l1.59-1.216c-2.52-3.284-4.39-7.186-5.61-11.721l-1.93.518zm5.96 12.435c2.83 3.53 6.47 6.34 10.9 8.439l.85-1.808c-4.18-1.98-7.57-4.61-10.18-7.88l-1.57 1.249zm10.92 8.448c4.46 1.998 9.82 2.977 16.04 2.977v-2c-6.02 0-11.08-.948-15.23-2.803l-.81 1.826zm16.04 2.977c3.9 0 7.4-.229 10.52-.691l-.29-1.978c-3 .444-6.41.669-10.23.669v2zm10.52-.691c3.08-.456 5.83-.971 8.25-1.546l-.47-1.946c-2.34.559-5.03 1.064-8.07 1.514l.29 1.978zm8.29-1.558c2.41-.689 4.55-1.44 6.42-2.255l-.81-1.832c-1.76.772-3.81 1.494-6.16 2.165l.55 1.922zm6.42-2.255c1.81-.795 3.46-1.535 4.94-2.218l-.83-1.816c-1.47.677-3.11 1.41-4.92 2.202l.81 1.832zm3.58-2.8l7.31 21.249 1.89-.65-7.31-21.25-1.89.65zm7.74 20.069c-3.63 2.197-8.8 4.207-15.55 6.009l.51 1.932c6.85-1.825 12.22-3.894 16.07-6.231l-1.03-1.71zm-15.55 6.009c-6.7 1.786-14.49 2.686-23.38 2.686v2c9.02 0 16.99-.913 23.89-2.754l-.51-1.932zM1687.55 4.19v-1h-1v1h1zm26.52 0h1v-1h-1v1zm0 117.81v1h1v-1h-1zm-26.52 0h-1v1h1v-1zm0-49.98h1v-1h-1v1zm-44.54 0v-1h-1v1h1zm0 49.98v1h1v-1h-1zm-26.52 0h-1v1h1v-1zm0-117.81v-1h-1v1h1zm26.52 0h1v-1h-1v1zm0 45.05h-1v1h1v-1zm44.54 0v1h1v-1h-1zm0-44.05h26.52v-2h-26.52v2zm25.52-1V122h2V4.19h-2zm1 116.81h-26.52v2h26.52v-2zm-25.52 1V72.02h-2V122h2zm-1-50.98h-44.54v2h44.54v-2zm-45.54 1V122h2V72.02h-2zm1 48.98h-26.52v2h26.52v-2zm-25.52 1V4.19h-2V122h2zm-1-116.81h26.52v-2h-26.52v2zm25.52-1v45.05h2V4.19h-2zm1 46.05h44.54v-2h-44.54v2zm45.54-1V4.19h-2v45.05h2zM1820.38 122l-.87.491.29.509h.58v-1zm-24.65-39.95l-.83.558.83-.558zm-28.22-37.23l.76-.65-1.76-2.06v2.71h1zm0 77.18v1h1v-1h-1zm-26.18 0h-1v1h1v-1zm0-117.81v-1h-1v1h1zm21.59 0l.71-.707-.29-.293h-.42v1zm12.41 13.77l.77-.64-.77.64zm13.77 17.51l-.8.598.01.008v.008l.79-.614zm14.11 19.21l-.82.57.01.007.81-.577zm13.09 19.04l-.83.555 1.83 2.748V73.72h-1zm0-69.53v-1h-1v1h1zm26.35 0h1v-1h-1v1zm0 117.81v1h1v-1h-1zm-21.4-.491a588.932 588.932 0 00-24.69-40.017l-1.66 1.116a589.837 589.837 0 0124.61 39.883l1.74-.982zm-24.69-40.017c-8.86-13.178-18.29-25.618-28.29-37.322l-1.52 1.3c9.95 11.643 19.33 24.022 28.15 37.138l1.66-1.116zm-30.05-36.672V122h2V44.82h-2zm1 76.18h-26.18v2h26.18v-2zm-25.18 1V4.19h-2V122h2zm-1-116.81h21.59v-2h-21.59v2zm20.89-.293c3.71 3.713 7.82 8.28 12.34 13.703l1.54-1.28c-4.55-5.456-8.7-10.07-12.47-13.837l-1.41 1.414zm12.34 13.703c4.52 5.425 9.1 11.247 13.74 17.468l1.6-1.196c-4.65-6.246-9.25-12.097-13.8-17.552l-1.54 1.28zm13.75 17.484a444.077 444.077 0 0114.08 19.167l1.64-1.142c-4.65-6.7-9.37-13.118-14.14-19.253l-1.58 1.228zm14.09 19.173c4.64 6.567 9 12.906 13.07 19.018l1.66-1.11a833.173 833.173 0 00-13.1-19.062l-1.63 1.154zm14.9 18.463V4.19h-2v69.53h2zm-1-68.53h26.35v-2h-26.35v2zm25.35-1V122h2V4.19h-2zm1 116.81h-22.27v2h22.27v-2zm51.49-42.35l-.96.28v.012l.01.01.95-.302zm6.12 12.07l-.8.608.02.015.01.015.77-.638zm9.86 7.65l.42-.905-.42.905zm26.35 0l-.42-.91-.01.005.43.905zm9.86-7.65l-.78-.625v.004l.78.621zm6.12-12.07l-.95-.302-.01.01v.011l.96.281zm0-31.28l-.96.275v.013l.01.014.95-.302zm-6.12-12.07l-.8.608.02.015.01.015.77-.638zm-9.86-7.82l-.43.905.01.005.42-.91zm-26.35.17l.42.905.02-.005.01-.006-.45-.894zm-9.86 7.82l-.78-.625-.01.004.79.621zm-6.12 12.07l-.96-.296v.015l.96.281zm83.3 42.16l-.93-.37v.008l.93.362zm-12.24 19.21l.7.715.01-.008-.71-.707zm-18.7 11.56l-.34-.941v.002l.34.939zm-64.6-11.56l-.7.715.01.007.69-.722zm-12.58-19.21l-.93.369v.005l.93-.374zm.17-53.21l.92.386v-.005l-.92-.381zm12.75-19.38l-.69-.722-.01.007.7.715zm18.7-11.73l-.34-.94-.01.002.35.938zm45.22 0l.34-.94-.34.94zm18.7 11.73l.7-.715-.7.715zm12.58 19.38l-.93.369v.005l.93-.374zm-86.34 26.52c0 5.857.69 11.167 2.08 15.92l1.92-.56c-1.33-4.54-2-9.657-2-15.36h-2zm2.09 15.942c1.5 4.742 3.59 8.873 6.27 12.376l1.59-1.216c-2.52-3.297-4.52-7.213-5.96-11.764l-1.9.604zm6.3 12.406a29.29 29.29 0 0010.2 7.917l.85-1.81c-3.72-1.75-6.88-4.209-9.51-7.383l-1.54 1.276zm10.2 7.917c4.01 1.886 8.58 2.815 13.69 2.815v-2c-4.87 0-9.14-.884-12.84-2.625l-.85 1.81zm13.69 2.815c5 0 9.51-.931 13.51-2.815l-.85-1.81c-3.7 1.742-7.91 2.625-12.66 2.625v2zm13.5-2.81c4.11-1.877 7.52-4.523 10.23-7.939l-1.56-1.242c-2.51 3.158-5.67 5.611-9.5 7.361l.83 1.82zm10.23-7.935c2.81-3.513 4.91-7.656 6.3-12.414l-1.92-.562c-1.33 4.536-3.31 8.439-5.94 11.726l1.56 1.25zm6.29-12.393c1.51-4.76 2.26-10.078 2.26-15.942h-2c0 5.696-.73 10.805-2.16 15.338l1.9.604zm2.26-15.942c0-5.864-.75-11.182-2.26-15.942l-1.9.604c1.43 4.533 2.16 9.642 2.16 15.338h2zm-2.25-15.915c-1.39-4.871-3.49-9.024-6.31-12.433l-1.54 1.276c2.62 3.164 4.6 7.058 5.93 11.707l1.92-.55zm-6.29-12.403c-2.71-3.533-6.12-6.241-10.24-8.122l-.83 1.82c3.82 1.746 6.98 4.25 9.48 7.518l1.59-1.216zm-10.23-8.117c-4-1.884-8.51-2.815-13.51-2.815v2c4.75 0 8.96.883 12.66 2.625l.85-1.81zm-13.51-2.815c-5.12 0-9.7.99-13.71 2.996l.9 1.788c3.69-1.847 7.95-2.784 12.81-2.784v-2zm-13.69 2.985c-3.99 1.88-7.4 4.584-10.21 8.1l1.56 1.25c2.63-3.284 5.79-5.793 9.5-7.54l-.85-1.81zm-10.22 8.104c-2.69 3.4-4.78 7.539-6.29 12.395l1.91.592c1.45-4.664 3.44-8.571 5.95-11.745l-1.57-1.242zm-6.29 12.41c-1.39 4.752-2.08 10.005-2.08 15.751h2c0-5.587.67-10.648 2-15.19l-1.92-.56zm87.85 15.751c0 9.987-1.52 18.754-4.52 26.321l1.86.738c3.11-7.847 4.66-16.873 4.66-27.059h-2zm-4.52 26.328c-2.91 7.478-6.91 13.76-12.02 18.865l1.42 1.414c5.32-5.321 9.47-11.846 12.46-19.555l-1.86-.724zm-12.01 18.857c-5.11 4.994-11.21 8.773-18.34 11.334l.68 1.882c7.38-2.652 13.74-6.58 19.06-11.786l-1.4-1.43zm-18.34 11.336c-7.03 2.563-14.61 3.849-22.78 3.849v2c8.38 0 16.2-1.32 23.46-3.971l-.68-1.878zm-22.78 3.849c-7.94 0-15.41-1.285-22.44-3.849l-.68 1.878c7.25 2.649 14.96 3.971 23.12 3.971v-2zm-22.44-3.849c-7.01-2.561-13.13-6.342-18.35-11.343l-1.38 1.444c5.43 5.199 11.78 9.125 19.05 11.777l.68-1.878zm-18.34-11.336c-5.22-5.107-9.34-11.39-12.35-18.869l-1.86.748c3.11 7.709 7.37 14.232 12.81 19.551l1.4-1.43zm-12.35-18.864c-3.01-7.567-4.52-16.334-4.52-26.321h-2c0 10.186 1.54 19.212 4.66 27.059l1.86-.738zm-4.52-26.321c0-9.983 1.57-18.687 4.68-26.134l-1.84-.772c-3.24 7.74-4.84 16.716-4.84 26.906h2zm4.68-26.14c3.13-7.595 7.31-13.937 12.53-19.045l-1.4-1.43c-5.44 5.32-9.76 11.897-12.98 19.714l1.85.762zm12.52-19.038c5.34-5.12 11.46-8.956 18.36-11.514l-.7-1.876a54.764 54.764 0 00-19.04 11.946l1.38 1.444zm18.35-11.513c7.03-2.565 14.39-3.849 22.1-3.849v-2c-7.94 0-15.53 1.323-22.78 3.97l.68 1.88zm22.1-3.849c7.94 0 15.41 1.285 22.44 3.85l.68-1.88c-7.25-2.648-14.96-3.97-23.12-3.97v2zm22.44 3.85c7 2.558 13.12 6.393 18.34 11.505l1.4-1.43c-5.43-5.314-11.79-9.3-19.06-11.954l-.68 1.878zm18.34 11.505c5.22 5.105 9.33 11.443 12.35 19.034l1.86-.738c-3.11-7.822-7.37-14.404-12.81-19.726l-1.4 1.43zm12.35 19.039c3 7.45 4.52 16.159 4.52 26.146h2c0-10.186-1.55-19.158-4.66-26.894l-1.86.748zm106.34 62.356h1v-1h-1v1zm0 22.78v1h1v-1h-1zm-78.71 0h-1v1h1v-1zm0-117.81v-1h-1v1h1zm26.52 0h1v-1h-1v1zm0 95.03h-1v1h1v-1zm51.19 0V122h2V99.22h-2zm1 21.78h-78.71v2h78.71v-2zm-77.71 1V4.19h-2V122h2zm-1-116.81h26.52v-2h-26.52v2zm25.52-1v95.03h2V4.19h-2zm1 96.03h52.19v-2h-52.19v2zm90.26-21.57l-.96.28v.022l.96-.302zm6.12 12.07l-.8.608.01.015.02.015.77-.638zm9.86 7.65l.42-.905-.42.905zm26.35 0l-.42-.91-.01.005.43.905zm9.86-7.65l-.79-.625v.004l.79.621zm6.12-12.07l-.96-.302v.021l.96.281zm0-31.28l-.97.275.01.013v.014l.96-.302zm-6.12-12.07l-.8.608.01.015.02.015.77-.638zm-9.86-7.82l-.43.905.01.005.42-.91zm-26.35.17l.42.905.01-.005.01-.006-.44-.894zm-9.86 7.82l-.79-.625v.004l.79.621zm-6.12 12.07l-.96-.296v.015l.96.281zm83.3 42.16l-.93-.37-.01.008.94.362zm-12.24 19.21l.7.715v-.008l-.7-.707zm-18.7 11.56l-.34-.941-.01.002.35.939zm-64.6-11.56l-.7.715v.007l.7-.722zM2096.1 89.7l-.93.369v.005l.93-.374zm.17-53.21l.92.386v-.005l-.92-.381zm12.75-19.38l-.7-.722v.007l.7.715zm18.7-11.73l-.35-.94v.002l.35.938zm45.22 0l.34-.94-.34.94zm18.7 11.73l.7-.715-.7.715zm12.58 19.38l-.93.369v.005l.93-.374zm-86.34 26.52c0 5.857.68 11.167 2.08 15.92l1.92-.56c-1.33-4.54-2-9.657-2-15.36h-2zm2.08 15.942c1.51 4.742 3.6 8.873 6.28 12.376l1.59-1.216c-2.53-3.297-4.52-7.213-5.96-11.764l-1.91.604zm6.31 12.406c2.81 3.4 6.21 6.04 10.2 7.917l.85-1.81a27.2 27.2 0 01-9.51-7.383l-1.54 1.276zm10.2 7.917c4.01 1.886 8.58 2.815 13.69 2.815v-2c-4.87 0-9.14-.884-12.84-2.625l-.85 1.81zm13.69 2.815c5 0 9.51-.931 13.51-2.815l-.85-1.81c-3.7 1.742-7.92 2.625-12.66 2.625v2zm13.5-2.81c4.11-1.877 7.52-4.523 10.23-7.939l-1.57-1.242c-2.5 3.158-5.66 5.611-9.49 7.361l.83 1.82zm10.23-7.935c2.81-3.513 4.9-7.656 6.3-12.414l-1.92-.562c-1.33 4.536-3.32 8.439-5.95 11.726l1.57 1.25zm6.29-12.393c1.51-4.76 2.26-10.078 2.26-15.942h-2c0 5.696-.73 10.805-2.17 15.338l1.91.604zm2.26-15.942c0-5.864-.75-11.182-2.26-15.942l-1.91.604c1.44 4.533 2.17 9.642 2.17 15.338h2zm-2.25-15.915c-1.39-4.871-3.49-9.024-6.31-12.433l-1.54 1.276c2.61 3.164 4.6 7.058 5.92 11.707l1.93-.55zm-6.29-12.403c-2.71-3.533-6.13-6.241-10.24-8.122l-.83 1.82c3.82 1.746 6.98 4.25 9.48 7.518l1.59-1.216zm-10.23-8.117c-4-1.884-8.51-2.815-13.51-2.815v2c4.74 0 8.96.883 12.66 2.625l.85-1.81zm-13.51-2.815c-5.12 0-9.7.99-13.71 2.996l.89 1.788c3.7-1.847 7.96-2.784 12.82-2.784v-2zm-13.69 2.985c-3.99 1.88-7.4 4.584-10.22 8.1l1.57 1.25c2.62-3.284 5.79-5.793 9.5-7.54l-.85-1.81zm-10.22 8.104c-2.69 3.4-4.79 7.539-6.29 12.395l1.91.592c1.44-4.664 3.43-8.571 5.95-11.745l-1.57-1.242zm-6.29 12.41c-1.39 4.752-2.08 10.005-2.08 15.751h2c0-5.587.67-10.648 2-15.19l-1.92-.56zm87.85 15.751c0 9.987-1.52 18.754-4.52 26.321l1.86.738c3.11-7.847 4.66-16.873 4.66-27.059h-2zm-4.53 26.328c-2.9 7.478-6.91 13.76-12.01 18.865l1.41 1.414c5.32-5.321 9.48-11.846 12.47-19.555l-1.87-.724zm-12 18.857c-5.11 4.994-11.22 8.773-18.34 11.334l.67 1.882c7.38-2.652 13.74-6.58 19.07-11.786l-1.4-1.43zm-18.35 11.336c-7.02 2.563-14.61 3.849-22.77 3.849v2c8.38 0 16.2-1.32 23.46-3.971l-.69-1.878zm-22.77 3.849c-7.94 0-15.42-1.285-22.44-3.849l-.69 1.878c7.26 2.649 14.97 3.971 23.13 3.971v-2zm-22.44-3.849c-7.02-2.561-13.13-6.342-18.35-11.343l-1.39 1.444c5.43 5.199 11.79 9.125 19.05 11.777l.69-1.878zm-18.34-11.336c-5.22-5.107-9.34-11.39-12.36-18.869l-1.85.748c3.1 7.709 7.37 14.232 12.81 19.551l1.4-1.43zm-12.35-18.864c-3.01-7.567-4.52-16.334-4.52-26.321h-2c0 10.186 1.54 19.212 4.66 27.059l1.86-.738zm-4.52-26.321c0-9.983 1.57-18.687 4.68-26.134l-1.85-.772c-3.23 7.74-4.83 16.716-4.83 26.906h2zm4.68-26.14c3.13-7.595 7.31-13.937 12.53-19.045l-1.4-1.43c-5.44 5.32-9.76 11.897-12.98 19.714l1.85.762zm12.52-19.038c5.34-5.12 11.46-8.956 18.35-11.514l-.69-1.876c-7.16 2.655-13.51 6.639-19.05 11.946l1.39 1.444zm18.35-11.513c7.03-2.565 14.39-3.849 22.1-3.849v-2c-7.94 0-15.53 1.323-22.79 3.97l.69 1.88zm22.1-3.849c7.93 0 15.41 1.285 22.43 3.85l.69-1.88c-7.26-2.648-14.97-3.97-23.12-3.97v2zm22.43 3.85c7.01 2.558 13.12 6.393 18.35 11.505l1.4-1.43c-5.43-5.314-11.79-9.3-19.06-11.954l-.69 1.878zm18.35 11.505c5.21 5.105 9.33 11.443 12.35 19.034l1.86-.738c-3.11-7.822-7.38-14.404-12.81-19.726l-1.4 1.43zm12.35 19.039c3 7.45 4.52 16.159 4.52 26.146h2c0-10.186-1.55-19.158-4.67-26.894l-1.85.748zm58.22-1.904l-.78-.626v.001l.78.625zm-6.12 43.86l-.96.275v.006l.96-.281zm6.12 12.07l.78-.625-.78.625zm10.2 7.99l-.42.904.01.005.01.005.4-.914zm21.76 2.55l-.05-.999v.001l.05.998zm5.61-.68l.21.978.79-.17v-.808h-1zm0-40.97v-1h-1v1h1zm26.52 0h1v-1h-1v1zm0 58.31l.37.931.63-.249v-.682h-1zm-15.3 3.91l-.19-.982-.01.002v.001l.2.979zm-50.15-1.87l-.35.934v.002l.35-.936zm-18.36-11.9l-.71.699.71-.699zm-11.9-19.21l-.94.337.01.013.93-.35zm.51-52.19l-.92-.374.92.374zm12.58-19.21l.7.715.01-.008-.71-.707zm18.7-12.07l-.35-.936v.002l.35.934zm38.08-2.89l-.17.984.01.003.01.002.15-.989zm11.56 2.55l-.3.952.02.006.02.006.26-.964zm7.99 2.89l-.44.894V9l.01.005.43-.904zm4.59 2.38l.94.339.28-.76-.69-.427-.53.848zm-7.65 21.25l-.47.883 1.02.541.39-1.085-.94-.339zm-12.58-4.93l-.3.953.01.005.02.004.27-.962zm-15.3-3.21c-12.53 0-21.83 3.511-27.64 10.744l1.56 1.252c5.3-6.594 13.91-9.996 26.08-9.996v-2zm-27.64 10.745c-5.62 7.033-8.38 16.63-8.38 28.675h2c0-11.755 2.69-20.858 7.94-27.425l-1.56-1.25zm-8.38 28.675c0 5.858.69 11.222 2.08 16.085l1.92-.55c-1.33-4.657-2-9.833-2-15.535h-2zm2.08 16.09c1.4 4.759 3.49 8.902 6.3 12.415l1.56-1.25c-2.63-3.287-4.61-7.19-5.94-11.726l-1.92.562zm6.3 12.415c2.82 3.523 6.34 6.28 10.56 8.27l.85-1.81c-3.95-1.863-7.23-4.433-9.85-7.71l-1.56 1.25zm10.58 8.279c4.23 1.881 9.13 2.806 14.68 2.806v-2c-5.33 0-9.94-.888-13.87-2.634l-.81 1.828zm14.68 2.806c2.96 0 5.47-.057 7.54-.172l-.11-1.996c-2.02.112-4.49.168-7.43.168v2zm7.54-.171c2.19-.116 4.11-.347 5.76-.701l-.42-1.956c-1.52.326-3.33.548-5.45.659l.11 1.998zm6.55-1.679V59.78h-2v40.97h2zm-1-39.97h26.52v-2h-26.52v2zm25.52-1v58.31h2V59.78h-2zm.64 57.379c-3.09 1.211-8.11 2.501-15.13 3.859l.38 1.964c7.04-1.362 12.21-2.679 15.48-3.961l-.73-1.862zm-15.14 3.862c-6.94 1.455-15.54 2.189-25.81 2.189v2c10.36 0 19.1-.739 26.22-2.231l-.41-1.958zm-25.81 2.189c-8.73 0-16.66-1.344-23.79-4.016l-.7 1.872c7.38 2.768 15.55 4.144 24.49 4.144v-2zm-23.78-4.014c-7.01-2.671-13.01-6.56-18-11.665l-1.43 1.398c5.2 5.322 11.45 9.366 18.72 12.135l.71-1.868zm-18-11.665c-4.99-5.103-8.89-11.383-11.68-18.86l-1.87.699c2.87 7.71 6.91 14.236 12.12 19.559l1.43-1.398zm-11.68-18.848c-2.67-7.466-4.02-16.018-4.02-25.673h-2c0 9.838 1.38 18.626 4.14 26.347l1.88-.674zm-4.02-25.673c0-9.758 1.52-18.353 4.52-25.806l-1.85-.748c-3.12 7.734-4.67 16.591-4.67 26.554h2zm4.52-25.806c3.01-7.478 7.13-13.762 12.35-18.87l-1.4-1.429c-5.43 5.32-9.7 11.842-12.8 19.551l1.85.748zm12.36-18.877c5.23-5.225 11.34-9.172 18.35-11.843l-.71-1.869c-7.27 2.77-13.63 6.87-19.05 12.298l1.41 1.414zm18.34-11.84c7.14-2.676 14.73-4.017 22.77-4.017v-2c-8.27 0-16.1 1.38-23.47 4.144l.7 1.872zm22.77-4.017c5.51 0 10.44.394 14.79 1.174l.35-1.968C2295.45.87 2290.4.47 2284.8.47v2zm14.81 1.179c4.5.675 8.3 1.514 11.41 2.513l.61-1.904c-3.24-1.041-7.15-1.902-11.72-2.587l-.3 1.978zm11.45 2.525c3.25.897 5.84 1.84 7.81 2.82l.89-1.788c-2.12-1.06-4.85-2.044-8.17-2.96l-.53 1.928zm7.82 2.83c2.15 1.018 3.64 1.79 4.49 2.324l1.06-1.696c-.96-.6-2.53-1.414-4.69-2.436l-.86 1.808zm4.08 1.137l-7.65 21.25 1.88.678 7.65-21.25-1.88-.678zm-6.24 20.706c-3.7-1.966-7.96-3.633-12.77-5.009l-.55 1.924c4.7 1.344 8.83 2.963 12.38 4.851l.94-1.766zm-12.75-5c-4.75-1.509-9.96-2.257-15.6-2.257v2c5.47 0 10.46.725 15 2.163l.6-1.906zm86.17 26.793l-.86.51.86 1.454.86-1.455-.86-.509zm13.6-24.14l.88.472-.88-.472zm11.9-24.31v-1h-.65l-.27.594.92.406zm29.24 0l.89.454.74-1.454h-1.63v1zm-20.06 36.89l.86.502-.86-.502zm-21.93 35.87l-.84-.54-.16.247v.293h1zm0 45.05v1h1v-1h-1zm-26.52 0h-1v1h1v-1zm0-44.71h1v-.293l-.16-.247-.84.54zm-22.1-36.04l-.87.499v.006l.87-.505zm-20.06-37.06v-1h-1.63l.74 1.454.89-.454zm30.77 0l.91-.406-.26-.594h-.65v1zm11.73 24.31l-.89.462.89-.462zM2391 53.15a639.798 639.798 0 0013.62-24.178l-1.76-.944a651.51 651.51 0 01-13.58 24.103l1.72 1.018zm13.62-24.178a371.32 371.32 0 0011.93-24.376l-1.83-.812a368.076 368.076 0 01-11.86 24.244l1.76.944zm11.02-23.782h29.24v-2h-29.24v2zm28.35-1.454c-6.46 12.678-13.13 24.958-20.04 36.842l1.73 1.004a761.47 761.47 0 0020.09-36.938l-1.78-.908zm-20.04 36.842c-6.9 11.886-14.21 23.83-21.9 35.832l1.68 1.08a959.126 959.126 0 0021.95-35.908l-1.73-1.004zm-22.06 36.372V122h2V76.95h-2zm1 44.05h-26.52v2h26.52v-2zm-25.52 1V77.29h-2V122h2zm-.16-45.25a1026.593 1026.593 0 01-22.08-36.005l-1.73 1.01a1029.38 1029.38 0 0022.13 36.075l1.68-1.08zm-22.08-35.999a820.627 820.627 0 01-20.03-37.015l-1.78.908a815.094 815.094 0 0020.08 37.105l1.73-.998zM2334.21 5.19h30.77v-2h-30.77v2zm29.85-.594c3.64 8.18 7.56 16.301 11.76 24.366l1.77-.924a437.115 437.115 0 01-11.7-24.254l-1.83.812zm11.76 24.366c4.2 8.063 8.69 16.125 13.46 24.187l1.72-1.018a518.723 518.723 0 01-13.41-24.093l-1.77.924z" fill="#646482"/></g><defs><filter id="filter0_d" x=".4" y=".47" width="2450.11" height="132.91" filterUnits="userSpaceOnUse" color-interpolation-filters="sRGB"><feFlood flood-opacity="0" result="BackgroundImageFix"/><feColorMatrix in="SourceAlpha" values="0 0 0 0 0 0 0 0 0 0 0 0 0 0 0 0 0 0 127 0"/><feOffset dy="4"/><feGaussianBlur stdDeviation="2"/><feColorMatrix values="0 0 0 0 0 0 0 0 0 0 0 0 0 0 0 0 0 0 0.25 0"/><feBlend in2="BackgroundImageFix" result="effect1_dropShadow"/><feBlend in="SourceGraphic" in2="effect1_dropShadow" result="shape"/></filter></defs></svg>