<svg width="3543" height="126" viewBox="0 0 3543 126" fill="none" xmlns="http://www.w3.org/2000/svg"><path d="M30.91 78.65l-.96.28.003.012.004.01.953-.302zm6.12 12.07l-.794.608.012.015.012.015.77-.638zm9.86 7.65l.426-.905-.426.905zm26.35 0l-.416-.91-.01.005.426.905zm9.86-7.65l-.78-.625-.003.004.783.621zm6.12-12.07l-.953-.302-.004.01-.003.011.96.281zm0-31.28l-.962.275.004.013.005.014.953-.302zM83.1 35.3l-.794.608.012.015.012.015.77-.638zm-9.86-7.82l-.426.905.01.005.416-.91zm-26.35.17l.426.905.01-.005.011-.006-.447-.894zm-9.86 7.82l-.78-.625-.004.004.784.621zm-6.12 12.07l-.955-.296-.003.008-.002.007.96.281zm83.3 42.16l-.929-.37-.003.008.932.362zm-12.24 19.21l.699.715.008-.008-.707-.707zm-18.7 11.56l-.338-.941-.005.002.343.939zm-64.6-11.56l-.7.715.008.007.692-.722zM6.09 89.7l-.93.369.002.005.928-.374zm.17-53.21l.923.386.002-.005-.925-.381zm12.75-19.38l-.692-.722-.008.007.7.715zm18.7-11.73l-.343-.94-.005.002.348.938zm45.22 0l.343-.94-.343.94zm18.7 11.73l.699-.715-.699.715zm12.58 19.38l-.929.369.001.005.928-.374zM27.87 63.01c0 5.857.689 11.167 2.08 15.92l1.92-.56c-1.329-4.54-2-9.657-2-15.36h-2zm2.087 15.942c1.503 4.742 3.593 8.873 6.28 12.376l1.587-1.216c-2.527-3.297-4.518-7.213-5.96-11.764l-1.907.604zm6.303 12.406a29.277 29.277 0 0010.204 7.917l.852-1.81a27.277 27.277 0 01-9.516-7.383l-1.54 1.276zm10.204 7.917c4.008 1.886 8.577 2.815 13.686 2.815v-2c-4.864 0-9.135-.884-12.834-2.625l-.852 1.81zm13.686 2.815c5 0 9.511-.931 13.516-2.815l-.852-1.81c-3.702 1.742-7.917 2.625-12.664 2.625v2zm13.506-2.81c4.104-1.877 7.519-4.523 10.227-7.939L82.317 90.1c-2.505 3.158-5.664 5.611-9.493 7.361l.832 1.82zm10.225-7.935c2.81-3.513 4.906-7.656 6.299-12.414l-1.92-.562c-1.327 4.536-3.311 8.439-5.94 11.726l1.56 1.25zm6.292-12.393c1.51-4.76 2.257-10.078 2.257-15.942h-2c0 5.696-.726 10.805-2.163 15.338l1.906.604zM92.43 63.01c0-5.864-.747-11.182-2.257-15.942l-1.906.604c1.437 4.533 2.163 9.642 2.163 15.338h2zm-2.249-15.915c-1.391-4.871-3.49-9.024-6.31-12.433l-1.541 1.276c2.618 3.164 4.6 7.058 5.928 11.707l1.924-.55zm-6.287-12.403c-2.708-3.533-6.126-6.241-10.238-8.122l-.832 1.82c3.821 1.746 6.977 4.25 9.482 7.518l1.588-1.216zm-10.228-8.117c-4.005-1.884-8.517-2.815-13.516-2.815v2c4.747 0 8.962.883 12.664 2.625l.852-1.81zM60.15 23.76c-5.117 0-9.695.99-13.707 2.996l.894 1.788c3.694-1.847 7.957-2.784 12.813-2.784v-2zm-13.686 2.985c-3.995 1.88-7.402 4.584-10.215 8.1l1.562 1.25c2.627-3.284 5.793-5.793 9.505-7.54l-.852-1.81zM36.246 34.85c-2.696 3.4-4.788 7.539-6.291 12.395l1.91.592c1.444-4.664 3.432-8.571 5.948-11.745l-1.567-1.242zM29.95 47.26c-1.39 4.752-2.08 10.005-2.08 15.751h2c0-5.587.67-10.648 2-15.19l-1.92-.56zm87.85 15.75c0 9.987-1.515 18.754-4.519 26.321l1.858.738c3.116-7.847 4.661-16.873 4.661-27.059h-2zm-4.522 26.328c-2.902 7.478-6.91 13.76-12.015 18.865l1.414 1.414c5.322-5.321 9.474-11.846 12.465-19.555l-1.864-.724zm-12.007 18.857c-5.105 4.994-11.213 8.773-18.34 11.334l.677 1.882c7.38-2.652 13.74-6.58 19.061-11.786l-1.398-1.43zm-18.344 11.336c-7.02 2.563-14.61 3.849-22.777 3.849v2c8.38 0 16.204-1.32 23.463-3.971l-.686-1.878zM60.15 123.38c-7.937 0-15.413-1.285-22.437-3.849l-.686 1.878c7.256 2.649 14.966 3.971 23.123 3.971v-2zm-22.437-3.849c-7.014-2.561-13.128-6.342-18.351-11.343l-1.384 1.444c5.43 5.199 11.783 9.125 19.05 11.777l.685-1.878zm-18.344-11.336c-5.218-5.107-9.338-11.39-12.351-18.869l-1.856.748c3.107 7.709 7.374 14.232 12.809 19.551l1.398-1.43zM7.02 89.331C4.015 81.764 2.5 72.997 2.5 63.01h-2c0 10.186 1.545 19.212 4.66 27.059l1.86-.738zM2.5 63.01c0-9.983 1.57-18.687 4.683-26.134l-1.846-.772C2.103 43.844.5 52.82.5 63.01h2zm4.685-26.14c3.128-7.595 7.306-13.937 12.524-19.045l-1.398-1.43c-5.435 5.32-9.757 11.897-12.976 19.714l1.85.762zm12.517-19.038c5.342-5.12 11.458-8.956 18.356-11.514l-.696-1.876c-7.155 2.655-13.506 6.639-19.044 11.946l1.384 1.444zm18.35-11.513C45.08 3.754 52.445 2.47 60.15 2.47v-2c-7.934 0-15.53 1.323-22.783 3.97l.686 1.88zM60.15 2.47c7.937 0 15.413 1.285 22.437 3.85l.686-1.88C76.017 1.793 68.307.47 60.15.47v2zm22.437 3.85c7.01 2.558 13.12 6.393 18.344 11.505l1.398-1.43c-5.43-5.314-11.785-9.3-19.056-11.954l-.686 1.878zm18.344 11.505c5.216 5.105 9.335 11.443 12.35 19.034l1.858-.738c-3.105-7.822-7.372-14.404-12.81-19.726l-1.398 1.43zm12.351 19.039c3.003 7.45 4.518 16.159 4.518 26.146h2c0-10.186-1.545-19.158-4.662-26.894l-1.856.748zm52.275 84.116l-.369.93.008.003.008.003.353-.936zm-14.96-9.69l-.737.677.01.01.01.01.717-.697zm-8.67-14.79l-.955.3.004.01.004.012.947-.322zm-2.72-92.31v-1h-1v1h1zm26.52 0h1v-1h-1v1zm1.53 83.3l-.958.287.006.02.006.019.946-.326zm4.42 8.16l-.765.644.018.022.02.02.727-.686zm6.8 4.42l-.329.945.012.004.317-.949zm24.48-4.59l-.698-.717-.009.01.707.707zm6.12-91.29v-1h-1v1h1zm26.52 0h1v-1h-1v1zm-2.89 92.31l-.949-.316.949.316zm-8.84 14.96l.717.697.009-.01-.726-.687zm-36.89 11.92c-8.186 0-15.201-1.122-21.067-3.336l-.706 1.872c6.146 2.319 13.412 3.464 21.773 3.464v-2zm-21.052-3.33c-5.893-2.335-10.756-5.491-14.611-9.457l-1.434 1.394c4.077 4.194 9.188 7.498 15.308 9.923l.737-1.86zm-14.592-9.437c-3.755-4.085-6.575-8.893-8.46-14.435l-1.893.644c1.969 5.791 4.928 10.844 8.88 15.145l1.473-1.354zm-8.452-14.412c-1.779-5.67-2.674-11.915-2.674-18.741h-2c0 7 .918 13.45 2.765 19.34l1.909-.6zm-2.674-18.741V4.19h-2v73.27h2zm-1-72.27h26.52v-2h-26.52v2zm25.52-1v71.06h2V4.19h-2zm0 71.06c0 4.826.516 9.008 1.572 12.527l1.915-.574c-.984-3.282-1.487-7.26-1.487-11.953h-2zm1.584 12.566c1.165 3.376 2.692 6.212 4.601 8.478l1.53-1.288c-1.718-2.04-3.138-4.645-4.24-7.842l-1.891.652zm4.639 8.52c2.035 2.155 4.437 3.718 7.198 4.678l.657-1.888c-2.452-.854-4.583-2.237-6.401-4.163l-1.454 1.374zm7.21 4.683c2.833.944 5.887 1.411 9.157 1.411v-2c-3.078 0-5.916-.44-8.524-1.309l-.633 1.898zm9.157 1.411c6.681 0 12.164-2.06 16.347-6.243l-1.414-1.414c-3.751 3.75-8.695 5.657-14.933 5.657v2zm16.337-6.233c4.369-4.248 6.423-11.33 6.423-20.947h-2c0 9.422-2.027 15.828-5.817 19.513l1.394 1.434zm6.423-20.947V4.19h-2v71.06h2zm-1-70.06h26.52v-2h-26.52v2zm25.52-1v73.27h2V4.19h-2zm0 73.27c0 6.82-.951 13.058-2.839 18.724l1.897.632c1.965-5.894 2.942-12.35 2.942-19.356h-2zm-2.839 18.724c-1.883 5.649-4.757 10.507-8.618 14.589l1.453 1.374c4.073-4.305 7.092-9.42 9.062-15.33l-1.897-.633zm-8.608 14.579c-3.849 3.959-8.76 7.057-14.761 9.279l.695 1.876c6.239-2.311 11.415-5.56 15.5-9.761l-1.434-1.394zm-14.761 9.279c-5.982 2.216-13.112 3.338-21.412 3.338v2c8.473 0 15.849-1.145 22.107-3.462l-.695-1.876zM336.242 12.35l-.559.829.007.005.552-.834zm8.33 49.47l-.804-.594-.002.003.806.591zm-16.32 12.07l-.382-.924-1.237.51.841 1.042.778-.628zm7.48 10.2l-.828.56.008.012.82-.572zm7.65 11.9l-.86.511.009.014.008.013.843-.538zm7.48 12.92l-.885.465.004.009.881-.474zm6.63 13.09v1h1.58l-.676-1.428-.904.428zm-29.75 0l-.873.488.286.512h.587v-1zm-6.63-11.73l-.879.477.005.01.006.009.868-.496zm-6.8-11.56l-.855.518.005.01.006.009.844-.537zm-6.8-10.54l-.832.555.004.006.005.007.823-.568zm-6.8-9.18l.768-.64-.3-.36h-.468v1zm-13.09 0v-1h-1v1h1zm0 43.01v1h1v-1h-1zm-26.52 0h-1v1h1v-1zm0-116.11l-.192-.981-.808.158v.823h1zm17.85-2.38l-.073-.997h-.001l.074.997zm12.92 22.1l-.071-.997h-.006l.077.997zm-4.25.34l-.083-.997-.917.077v.92h1zm0 31.96h-1v1h1v-1zm28.9-3.74l-.501-.865.501.865zm-.17-24.99l-.501.865.013.008.014.008.474-.881zm-20.74-25.35c17.584 0 30.898 3.16 40.071 9.349l1.118-1.658c-9.64-6.504-23.413-9.691-41.189-9.691v2zm40.078 9.354c9.074 6.013 13.662 15.413 13.662 28.406h2c0-13.527-4.819-23.62-14.558-30.074l-1.104 1.668zm13.662 28.406c0 8.119-1.889 14.637-5.584 19.636l1.608 1.188c4.012-5.427 5.976-12.396 5.976-20.824h-2zm-5.586 19.639c-3.61 4.922-8.887 8.844-15.896 11.737l.763 1.848c7.272-3 12.875-7.125 16.745-12.403l-1.612-1.182zm-16.292 13.29c2.359 2.92 4.835 6.296 7.43 10.131l1.656-1.12c-2.619-3.872-5.129-7.295-7.53-10.268l-1.556 1.256zm7.438 10.143a194.487 194.487 0 017.61 11.84l1.719-1.023a196.256 196.256 0 00-7.689-11.96l-1.64 1.143zm7.627 11.866a174.446 174.446 0 017.438 12.847l1.77-.93a176.668 176.668 0 00-7.522-12.993l-1.686 1.076zm7.442 12.856a283.04 283.04 0 016.607 13.044l1.808-.856a285.512 285.512 0 00-6.654-13.136l-1.761.948zM357.492 121h-29.75v2h29.75v-2zm-28.877.512a1416.935 1416.935 0 00-6.635-11.738l-1.736.992c2.265 3.964 4.473 7.871 6.625 11.722l1.746-.976zm-6.624-11.719a194.43 194.43 0 00-6.835-11.62l-1.688 1.074a191.569 191.569 0 016.765 11.5l1.758-.954zm-6.824-11.601a214.239 214.239 0 00-6.832-10.59l-1.646 1.136a213.13 213.13 0 016.768 10.49l1.71-1.036zm-6.823-10.577c-2.283-3.425-4.571-6.514-6.864-9.265l-1.536 1.28c2.24 2.69 4.486 5.72 6.736 9.095l1.664-1.11zm-7.632-9.625h-13.09v2h13.09v-2zm-14.09 1V122h2V78.99h-2zm1 42.01h-26.52v2h26.52v-2zm-25.52 1V5.89h-2V122h2zm-.808-115.129a149.494 149.494 0 0117.732-2.364l-.148-1.994a151.441 151.441 0 00-17.968 2.396l.384 1.962zm17.73-2.364c6.216-.452 11.744-.677 16.588-.677v-2c-4.903 0-10.481.228-16.733.683l.145 1.994zm18.118 19.933c-1.946 0-3.727.057-5.341.172l.142 1.996a73.419 73.419 0 015.199-.168v-2zm-5.347.173a666.46 666.46 0 00-4.256.34l.166 1.994c1.358-.114 2.772-.227 4.244-.34l-.154-1.994zm-5.173 1.337v31.96h2V25.95h-2zm1 32.96h7.48v-2h-7.48v2zm7.48 0c10.005 0 17.373-1.242 21.921-3.875l-1.002-1.73c-4.065 2.353-10.978 3.605-20.919 3.605v2zm21.921-3.875c4.684-2.711 6.959-7.338 6.959-13.615h-2c0 5.737-2.032 9.61-5.961 11.885l1.002 1.73zm6.959-13.615c0-6.08-2.357-10.536-7.156-13.12l-.948 1.76c4.041 2.176 6.104 5.88 6.104 11.36h2zm-7.129-13.105c-4.532-2.624-11.144-3.875-19.711-3.875v2c8.433 0 14.627 1.242 18.709 3.605l1.002-1.73zM425.19 108.4l-.73.683.004.005.726-.688zM414.82 37l.928.374.002-.005-.93-.369zm12.58-19.38l.7.715.008-.008-.708-.707zm19.04-12.07l-.346-.938.346.938zm37.57-2.89l-.19.982.013.002.013.002.164-.986zm10.71 2.55l-.316.949.016.005.016.005.284-.959zm12.07 5.27l.942.336.271-.758-.683-.426-.53.848zm-7.65 21.42l-.469.883 1.022.543.389-1.09-.942-.336zm-12.75-4.93l-.274.962.006.001.268-.963zm-28.39 0l-.324-.946-.008.003.332.943zm-10.37 6.63l-.707-.707.707.707zm-8.16 44.2l-.972.232.003.013.004.014.965-.259zm5.78 12.07l-.793.608.006.009.007.008.78-.625zm10.54 8.16l-.428.904.01.004.01.005.408-.913zm26.01 2.21l-.146-.99.146.99zm8.16-1.53l.232.973.022-.005.021-.007-.275-.961zm6.29-2.21l.401.916-.401-.916zm4.93-2.21l.946-.325-.36-1.047-1.005.464.419.908zm7.31 21.25l.519.855.689-.418-.262-.762-.946.325zm-15.81 6.12l.258.966-.258-.966zm-23.63 1.72c-18.966 0-33.289-5.27-43.133-15.668l-1.453 1.376c10.329 10.908 25.247 16.292 44.586 16.292v-2zm-43.129-15.663c-9.748-10.412-14.691-25.265-14.691-44.707h-2c0 19.771 5.031 35.179 15.23 46.073l1.461-1.366zM411.23 63.01c0-9.642 1.514-18.182 4.518-25.636l-1.855-.748c-3.116 7.733-4.663 16.533-4.663 26.384h2zm4.52-25.641c3.014-7.591 7.134-13.93 12.35-19.034l-1.399-1.43c-5.437 5.322-9.704 11.904-12.81 19.726l1.859.738zm12.358-19.042c5.22-5.22 11.442-9.167 18.679-11.839l-.693-1.876c-7.496 2.768-13.967 6.868-19.401 12.3l1.415 1.415zm18.679-11.839c7.245-2.675 15.117-4.018 23.623-4.018v-2c-8.72 0-16.828 1.377-24.316 4.142l.693 1.876zM470.41 2.47c4.935 0 9.403.393 13.41 1.172l.381-1.964C480.047.871 475.449.47 470.41.47v2zm13.436 1.176c4.042.674 7.559 1.513 10.558 2.513l.633-1.898c-3.121-1.04-6.744-1.901-10.862-2.587l-.329 1.972zm10.59 2.523c3.025.896 5.516 1.84 7.487 2.825l.895-1.788c-2.109-1.055-4.718-2.038-7.813-2.955l-.569 1.918zm7.487 2.825c2.036 1.018 3.474 1.794 4.337 2.334l1.06-1.696c-.949-.593-2.458-1.404-4.502-2.426l-.895 1.788zm3.926 1.15l-7.65 21.42 1.883.672 7.65-21.42-1.883-.672zm-6.239 20.873c-3.703-1.967-8.023-3.635-12.951-5.01l-.537 1.926c4.819 1.345 8.999 2.964 12.549 4.85l.939-1.766zm-12.945-5.008c-4.867-1.391-10.403-2.079-16.595-2.079v2c6.049 0 11.393.672 16.046 2.002l.549-1.923zM470.07 23.93c-4.193 0-8.326.7-12.394 2.094l.649 1.892c3.865-1.325 7.779-1.986 11.745-1.986v-2zm-12.402 2.097c-4.003 1.413-7.585 3.707-10.745 6.866l1.415 1.414c2.96-2.96 6.291-5.087 9.995-6.394l-.665-1.886zm-10.745 6.866c-3.066 3.066-5.514 7.048-7.367 11.911l1.869.712c1.774-4.657 4.085-8.381 6.913-11.209l-1.415-1.414zm-7.367 11.911c-1.868 4.905-2.786 10.813-2.786 17.696h2c0-6.717.897-12.369 2.655-16.984l-1.869-.712zM436.77 62.5c0 5.51.574 10.688 1.728 15.532l1.945-.464c-1.113-4.676-1.673-9.697-1.673-15.068h-2zm1.735 15.56c1.276 4.757 3.256 8.902 5.952 12.418l1.587-1.216c-2.518-3.284-4.391-7.186-5.608-11.721l-1.931.518zm5.965 12.435c2.823 3.53 6.462 6.34 10.892 8.439l.857-1.808c-4.183-1.98-7.571-4.61-10.188-7.88l-1.561 1.249zm10.912 8.448c4.467 1.998 9.828 2.977 16.048 2.977v-2c-6.019 0-11.085-.948-15.231-2.803l-.817 1.826zm16.048 2.977c3.892 0 7.398-.229 10.517-.691l-.293-1.978c-3.001.444-6.408.669-10.224.669v2zm10.517-.691c3.082-.456 5.831-.971 8.245-1.546l-.463-1.946c-2.346.559-5.037 1.064-8.075 1.514l.293 1.978zm8.288-1.558c2.413-.689 4.553-1.44 6.416-2.255l-.801-1.832c-1.764.772-3.817 1.494-6.164 2.165l.549 1.922zm6.416-2.255a275.919 275.919 0 004.949-2.218l-.839-1.816a271.81 271.81 0 01-4.911 2.202l.801 1.832zm3.584-2.8l7.31 21.249 1.891-.65-7.31-21.25-1.891.65zm7.737 20.069c-3.625 2.197-8.792 4.207-15.549 6.009l.515 1.932c6.843-1.825 12.216-3.894 16.071-6.231l-1.037-1.71zm-15.549 6.009c-6.697 1.786-14.484 2.686-23.373 2.686v2c9.018 0 16.985-.913 23.888-2.754l-.515-1.932zM604.275 99.22h1v-1h-1v1zm0 22.78v1h1v-1h-1zm-78.71 0h-1v1h1v-1zm0-117.81v-1h-1v1h1zm26.52 0h1v-1h-1v1zm0 95.03h-1v1h1v-1zm51.19 0V122h2V99.22h-2zm1 21.78h-78.71v2h78.71v-2zm-77.71 1V4.19h-2V122h2zm-1-116.81h26.52v-2h-26.52v2zm25.52-1v95.03h2V4.19h-2zm1 96.03h52.19v-2h-52.19v2zm69.271-96.03v-1h-1v1h1zm26.52 0h1v-1h-1v1zm0 117.81v1h1v-1h-1zm-26.52 0h-1v1h1v-1zm0-116.81h26.52v-2h-26.52v2zm25.52-1V122h2V4.19h-2zm1 116.81h-26.52v2h26.52v-2zm-25.52 1V4.19h-2V122h2zm52.789 0h-1v1h1v-1zm0-117.81v-1h-1v1h1zm79.56 0h1v-1h-1v1zm0 22.27v1h1v-1h-1zm-53.04 0v-1h-1v1h1zm0 23.12h-1v1h1v-1zm47.09 0h1v-1h-1v1zm0 21.76v1h1v-1h-1zm-47.09 0v-1h-1v1h1zm0 28.39h-1v1h1v-1zm56.95 0h1v-1h-1v1zm0 22.27v1h1v-1h-1zm-82.47 0V4.19h-2V122h2zm-1-116.81h79.56v-2h-79.56v2zm78.56-1v22.27h2V4.19h-2zm1 21.27h-53.04v2h53.04v-2zm-54.04 1v23.12h2V26.46h-2zm1 24.12h47.09v-2h-47.09v2zm46.09-1v21.76h2V49.58h-2zm1 20.76h-47.09v2h47.09v-2zm-48.09 1v28.39h2V71.34h-2zm1 29.39h56.95v-2h-56.95v2zm55.95-1V122h2V99.73h-2zm1 21.27h-83.47v2h83.47v-2zm98.676 1l-.872.491.287.509h.585v-1zm-24.65-39.95l-.83.558.83-.558zm-28.22-37.23l.76-.65-1.76-2.06v2.71h1zm0 77.18v1h1v-1h-1zm-26.18 0h-1v1h1v-1zm0-117.81v-1h-1v1h1zm21.59 0l.707-.707-.293-.293h-.414v1zm12.41 13.77l.768-.64-.768.64zm13.77 17.51l-.802.598.006.008.006.008.79-.614zm14.11 19.21l-.822.57.005.007.817-.577zm13.09 19.04l-.832.555 1.832 2.748V73.72h-1zm0-69.53v-1h-1v1h1zm26.35 0h1v-1h-1v1zm0 117.81v1h1v-1h-1zm-21.399-.491a593.806 593.806 0 00-24.692-40.017l-1.659 1.116a591.832 591.832 0 0124.608 39.883l1.743-.982zM833.47 81.492c-8.86-13.178-18.29-25.618-28.289-37.322l-1.521 1.3c9.948 11.643 19.332 24.022 28.151 37.138l1.659-1.116zM803.421 44.82V122h2V44.82h-2zm1 76.18h-26.18v2h26.18v-2zm-25.18 1V4.19h-2V122h2zm-1-116.81h21.59v-2h-21.59v2zm20.883-.293c3.712 3.713 7.828 8.28 12.348 13.703l1.537-1.28c-4.547-5.456-8.704-10.07-12.471-13.837l-1.414 1.414zM811.472 18.6c4.521 5.425 9.1 11.247 13.737 17.468l1.603-1.196c-4.656-6.246-9.257-12.097-13.803-17.552l-1.537 1.28zm13.749 17.484a442.382 442.382 0 0114.078 19.167l1.643-1.142A444.854 444.854 0 00826.8 34.856l-1.579 1.228zm14.083 19.173a846.8 846.8 0 0113.075 19.018l1.664-1.11a847.058 847.058 0 00-13.106-19.062l-1.633 1.154zm14.907 18.463V4.19h-2v69.53h2zm-1-68.53h26.35v-2h-26.35v2zm25.35-1V122h2V4.19h-2zm1 116.81h-22.27v2h22.27v-2zM994.117 4.19h1v-1h-1v1zm0 22.61v1h1v-1h-1zm-35.53 0v-1h-1v1h1zm0 95.2v1h1v-1h-1zm-26.52 0h-1v1h1v-1zm0-95.2h1v-1h-1v1zm-35.53 0h-1v1h1v-1zm0-22.61v-1h-1v1h1zm96.58 0V26.8h2V4.19h-2zm1 21.61h-35.53v2h35.53v-2zm-36.53 1V122h2V26.8h-2zm1 94.2h-26.52v2h26.52v-2zm-25.52 1V26.8h-2V122h2zm-1-96.2h-35.53v2h35.53v-2zm-34.53 1V4.19h-2V26.8h2zm-1-21.61h97.58v-2h-97.58v2zm155.933 95.73l.23.973.02-.004.01-.004-.26-.965zm5.95-2.55l.57.822.02-.014.02-.015-.61-.793zm3.06-3.91l.93.359-.93-.359zm-4.59-14.45l-.58.812.01.006v.006l.57-.824zm-18.7-8.33l-.33.943.01.003v.003l.32-.949zm-11.56-4.59l-.43.905.02.005.01.005.4-.915zm-10.37-6.63l-.66.747v.007l.01.007.65-.761zm-7.48-9.69l-.89.447v.011l.89-.458zm.17-28.56l.9.428.01-.009-.91-.419zm8.67-11.22l-.63-.774.63.774zm13.6-6.97l.29.958.01-.002v-.003l-.3-.953zm38.59 0l-.28.96.28-.96zm14.28 5.61l.94.344.3-.81-.76-.412-.48.878zm-7.65 20.91l-.46.888 1.01.522.39-1.066-.94-.344zm-11.05-4.42l-.32.946.01.005.02.005.29-.956zm-28.22.68l.53.848.01-.006-.54-.842zm-2.55 13.43l.82-.57-.82.57zm4.25 4.08l-.57.824.03.02.03.018.51-.862zm6.46 3.23l-.39.92.02.01.03.01.34-.94zm8.16 2.89l.35-.938-.01-.003-.01-.004-.33.945zm15.98 6.8l-.45.894.01.005.01.004.43-.903zm11.22 7.65l-.71.707.01.007.01.006.69-.72zm-2.55 50.49l.62.789v-.006l-.62-.783zm-48.96 7.99l.16-.987-.01-.002-.02-.002-.13.991zm-11.22-2.21l-.27.962v.002l.27-.964zm-8.33-2.89l-.41.912.01.004.01.003.39-.919zm-5.78-2.89l-.94-.334-.28.787.72.415.5-.868zm7.48-21.08l.48-.877-1.03-.565-.39 1.108.94.334zm12.92 5.27l-.3.955.02.004.01.003.27-.962zm19.04 3.21c3.78 0 6.93-.286 9.41-.877l-.46-1.946c-2.28.542-5.25.823-8.95.823v2zm9.44-.885c2.56-.698 4.66-1.587 6.26-2.693l-1.14-1.644c-1.35.934-3.21 1.745-5.64 2.407l.52 1.93zm6.3-2.722c1.59-1.226 2.74-2.67 3.38-4.344l-1.86-.718c-.49 1.273-1.39 2.435-2.74 3.476l1.22 1.586zm3.38-4.344c.62-1.604.92-3.371.92-5.289h-2c0 1.709-.27 3.228-.78 4.571l1.86.718zm.92-5.289c0-4.233-2.02-7.695-5.87-10.344l-1.14 1.648c3.4 2.338 5.01 5.223 5.01 8.696h2zm-5.86-10.332c-3.75-2.7-10.11-5.515-18.96-8.467l-.64 1.898c8.83 2.941 14.94 5.68 18.44 8.193l1.16-1.624zm-18.95-8.461a161.88 161.88 0 01-11.49-4.562l-.8 1.83c3.87 1.71 7.75 3.25 11.63 4.618l.66-1.886zm-11.46-4.552c-3.78-1.778-7.16-3.94-10.15-6.486l-1.3 1.522c3.13 2.668 6.67 4.925 10.59 6.774l.86-1.81zm-10.14-6.472c-2.96-2.636-5.38-5.767-7.25-9.401l-1.78.916c1.98 3.846 4.55 7.175 7.71 9.98l1.32-1.495zm-7.25-9.39c-1.84-3.683-2.78-8.169-2.78-13.493h-2c0 5.556.98 10.363 3 14.387l1.78-.894zm-2.78-13.493c0-5.313 1-10.037 2.96-14.192l-1.8-.856c-2.12 4.458-3.16 9.48-3.16 15.048h2zm2.97-14.2c1.98-4.284 4.77-7.903 8.39-10.866l-1.26-1.548c-3.86 3.157-6.84 7.018-8.95 11.575l1.82.838zm8.39-10.866c3.63-2.964 8.04-5.231 13.26-6.786l-.57-1.916c-5.44 1.618-10.1 3.998-13.95 7.154l1.26 1.548zm13.27-6.791c5.22-1.664 11.12-2.503 17.72-2.503v-2c-6.77 0-12.88.86-18.32 2.597l.6 1.906zm17.72-2.503c7.87 0 14.62.843 20.29 2.51l.56-1.92c-5.89-1.733-12.85-2.59-20.85-2.59v2zm20.29 2.51c5.74 1.687 10.42 3.533 14.08 5.528l.96-1.756c-3.82-2.085-8.65-3.979-14.48-5.691l-.56 1.918zm13.62 4.306l-7.65 20.91 1.88.688 7.65-20.91-1.88-.688zm-6.25 20.366c-3.35-1.732-7.09-3.227-11.22-4.488l-.58 1.912c4.03 1.232 7.66 2.684 10.88 4.352l.92-1.776zm-11.19-4.478c-4.1-1.406-9.03-2.094-14.77-2.094v2c5.59 0 10.29.672 14.13 1.986l.64-1.892zm-14.77-2.094c-6.39 0-11.23.905-14.31 2.878l1.08 1.684c2.58-1.653 6.93-2.562 13.23-2.562v-2zm-14.3 2.872c-3.05 1.91-4.55 4.92-4.55 8.838h2c0-3.335 1.23-5.651 3.61-7.142l-1.06-1.696zm-4.55 8.838c0 2.315.55 4.337 1.71 6.01l1.64-1.14c-.88-1.274-1.35-2.878-1.35-4.87h-2zm1.71 6.01c1.1 1.592 2.61 3.034 4.5 4.334l1.14-1.648c-1.74-1.193-3.06-2.471-4-3.825l-1.64 1.138zm4.56 4.372c1.97 1.158 4.16 2.253 6.58 3.287l.78-1.838c-2.34-1.006-4.46-2.064-6.34-3.173l-1.02 1.724zm6.63 3.308c2.5.909 5.22 1.874 8.17 2.895l.66-1.89a582.59 582.59 0 01-8.15-2.885l-.68 1.88zm8.15 2.888c6.1 2.257 11.39 4.51 15.88 6.756l.9-1.788c-4.58-2.287-9.94-4.568-16.08-6.844l-.7 1.876zm15.9 6.765c4.45 2.114 8.09 4.603 10.94 7.454l1.42-1.414c-3.04-3.042-6.88-5.654-11.5-7.846l-.86 1.806zM1080 65.6a26.532 26.532 0 016.55 9.998l1.88-.696a28.567 28.567 0 00-7.05-10.742L1080 65.6zm6.55 9.998c1.42 3.825 2.15 8.516 2.15 14.102h2c0-5.748-.75-10.69-2.27-14.798l-1.88.696zm2.15 14.102c0 10.729-3.74 18.98-11.18 24.887l1.24 1.566c7.98-6.333 11.94-15.195 11.94-26.453h-2zm-11.17 24.881c-7.46 5.81-18.81 8.799-34.24 8.799v2c15.63 0 27.51-3.018 35.47-9.221l-1.23-1.578zm-34.24 8.799c-5.17 0-9.82-.337-13.95-1.007l-.32 1.974c4.26.69 9.02 1.033 14.27 1.033v-2zm-13.98-1.011c-4.15-.562-7.85-1.291-11.08-2.183l-.54 1.928c3.34.921 7.13 1.666 11.36 2.237l.26-1.982zm-11.07-2.181c-3.15-.898-5.88-1.848-8.22-2.847l-.78 1.838c2.42 1.041 5.24 2.017 8.45 2.933l.55-1.924zm-8.2-2.84c-2.25-1.011-4.14-1.96-5.69-2.846l-1 1.736c1.63.927 3.58 1.905 5.87 2.934l.82-1.824zm-5.25-1.644l7.48-21.08-1.88-.668-7.48 21.08 1.88.668zm6.06-20.537c3.59 1.967 7.96 3.748 13.1 5.348l.6-1.91c-5.06-1.573-9.3-3.306-12.74-5.192l-.96 1.754zm13.13 5.355c5.33 1.506 11.77 2.248 19.31 2.248v-2c-7.42 0-13.67-.731-18.77-2.172l-.54 1.924zm232.96-21.872l-.96.28v.022l.96-.302zm6.12 12.07l-.8.608.01.015.02.015.77-.638zm9.86 7.65l.42-.905-.42.905zm26.35 0l-.42-.91-.01.005.43.905zm9.86-7.65l-.79-.625v.004l.79.621zm6.12-12.07l-.96-.302v.021l.96.281zm0-31.28l-.97.275.01.013v.014l.96-.302zm-6.12-12.07l-.8.608.01.015.01.015.78-.638zm-9.86-7.82l-.43.905.01.005.42-.91zm-26.35.17l.42.905.01-.005.01-.006-.44-.894zm-9.86 7.82l-.79-.625v.004l.79.621zm-6.12 12.07l-.96-.296v.015l.96.281zm83.3 42.16l-.93-.37-.01.008.94.362zM1328 108.91l.69.715.01-.008-.7-.707zm-18.7 11.56l-.34-.941-.01.002.35.939zm-64.6-11.56l-.7.715v.007l.7-.722zm-12.58-19.21l-.93.369v.005l.93-.374zm.17-53.21l.92.386v-.005l-.92-.381zm12.75-19.38l-.7-.722v.007l.7.715zm18.7-11.73l-.35-.94v.002l.35.938zm45.22 0l.34-.94-.34.94zm18.7 11.73l.69-.715-.69.715zm12.58 19.38l-.93.369v.005l.93-.374zm-86.34 26.52c0 5.857.68 11.167 2.08 15.92l1.92-.56c-1.33-4.54-2-9.657-2-15.36h-2zm2.08 15.942c1.51 4.742 3.6 8.873 6.28 12.376l1.59-1.216c-2.53-3.297-4.52-7.213-5.96-11.764l-1.91.604zm6.31 12.406c2.81 3.4 6.21 6.04 10.2 7.917l.85-1.81a27.2 27.2 0 01-9.51-7.383l-1.54 1.276zm10.2 7.917c4.01 1.886 8.58 2.815 13.69 2.815v-2c-4.87 0-9.14-.884-12.84-2.625l-.85 1.81zm13.69 2.815c4.99 0 9.51-.931 13.51-2.815l-.85-1.81c-3.7 1.742-7.92 2.625-12.66 2.625v2zm13.5-2.81c4.11-1.877 7.52-4.523 10.23-7.939l-1.57-1.242c-2.5 3.158-5.66 5.611-9.49 7.361l.83 1.82zm10.23-7.935c2.81-3.513 4.9-7.656 6.3-12.414l-1.92-.562c-1.33 4.536-3.32 8.439-5.95 11.726l1.57 1.25zm6.29-12.393c1.51-4.76 2.26-10.078 2.26-15.942h-2c0 5.696-.73 10.805-2.17 15.338l1.91.604zm2.26-15.942c0-5.864-.75-11.182-2.26-15.942l-1.91.604c1.44 4.533 2.17 9.642 2.17 15.338h2zm-2.25-15.915c-1.4-4.871-3.49-9.024-6.31-12.433l-1.55 1.276c2.62 3.164 4.61 7.058 5.93 11.707l1.93-.55zm-6.29-12.403c-2.71-3.533-6.13-6.241-10.24-8.122l-.83 1.82c3.82 1.746 6.98 4.25 9.48 7.518l1.59-1.216zm-10.23-8.117c-4-1.884-8.52-2.815-13.51-2.815v2c4.74 0 8.96.883 12.66 2.625l.85-1.81zm-13.51-2.815c-5.12 0-9.7.99-13.71 2.996l.89 1.788c3.7-1.847 7.96-2.784 12.82-2.784v-2zm-13.69 2.985c-4 1.88-7.4 4.584-10.22 8.1l1.57 1.25c2.62-3.284 5.79-5.793 9.5-7.54l-.85-1.81zm-10.22 8.104c-2.69 3.4-4.79 7.539-6.29 12.395l1.91.592c1.44-4.664 3.43-8.571 5.95-11.745l-1.57-1.242zm-6.29 12.41c-1.4 4.752-2.08 10.005-2.08 15.751h2c0-5.587.67-10.648 2-15.19l-1.92-.56zm87.85 15.751c0 9.987-1.52 18.754-4.52 26.321l1.85.738c3.12-7.847 4.67-16.873 4.67-27.059h-2zm-4.53 26.328c-2.9 7.478-6.91 13.76-12.01 18.865l1.41 1.414c5.32-5.321 9.48-11.846 12.47-19.555l-1.87-.724zm-12 18.857c-5.11 4.994-11.22 8.773-18.34 11.334l.67 1.882c7.38-2.652 13.74-6.58 19.06-11.786l-1.39-1.43zm-18.35 11.336c-7.02 2.563-14.61 3.849-22.77 3.849v2c8.38 0 16.2-1.32 23.46-3.971l-.69-1.878zm-22.77 3.849c-7.94 0-15.42-1.285-22.44-3.849l-.69 1.878c7.26 2.649 14.97 3.971 23.13 3.971v-2zm-22.44-3.849c-7.02-2.561-13.13-6.342-18.35-11.343l-1.39 1.444c5.43 5.199 11.79 9.125 19.05 11.777l.69-1.878zm-18.35-11.336c-5.21-5.107-9.33-11.39-12.35-18.869l-1.85.748c3.1 7.709 7.37 14.232 12.81 19.551l1.39-1.43zm-12.35-18.864c-3-7.567-4.51-16.334-4.51-26.321h-2c0 10.186 1.54 19.212 4.66 27.059l1.85-.738zm-4.51-26.321c0-9.983 1.57-18.687 4.68-26.134l-1.85-.772c-3.23 7.74-4.83 16.716-4.83 26.906h2zm4.68-26.14c3.13-7.595 7.31-13.937 12.52-19.045l-1.39-1.43c-5.44 5.32-9.76 11.897-12.98 19.714l1.85.762zm12.52-19.038c5.34-5.12 11.46-8.956 18.35-11.514l-.69-1.876c-7.16 2.655-13.51 6.639-19.05 11.946l1.39 1.444zm18.35-11.513c7.03-2.565 14.39-3.849 22.1-3.849v-2c-7.94 0-15.53 1.323-22.79 3.97l.69 1.88zm22.1-3.849c7.93 0 15.41 1.285 22.43 3.85l.69-1.88c-7.26-2.648-14.97-3.97-23.12-3.97v2zm22.43 3.85c7.01 2.558 13.12 6.393 18.35 11.505l1.39-1.43c-5.43-5.314-11.78-9.3-19.05-11.954l-.69 1.878zm18.35 11.505c5.21 5.105 9.33 11.443 12.35 19.034l1.85-.738c-3.1-7.822-7.37-14.404-12.81-19.726l-1.39 1.43zm12.35 19.039c3 7.45 4.52 16.159 4.52 26.146h2c0-10.186-1.55-19.158-4.67-26.894l-1.85.748zm52.27 84.116l-.37.93.01.003.01.003.35-.936zm-14.96-9.69l-.73.677.01.01.01.01.71-.697zm-8.67-14.79l-.95.3v.01l.01.012.94-.322zm-2.72-92.31v-1h-1v1h1zm26.52 0h1v-1h-1v1zm1.53 83.3l-.96.287.01.02.01.019.94-.326zm4.42 8.16l-.76.644.02.022.01.02.73-.686zm6.8 4.42l-.33.945.02.004.31-.949zm24.48-4.59l-.7-.717-.01.01.71.707zm6.12-91.29v-1h-1v1h1zm26.52 0h1v-1h-1v1zm-2.89 92.31l-.95-.316.95.316zm-8.84 14.96l.72.697.01-.01-.73-.687zM1413 123.38c-8.18 0-15.2-1.122-21.06-3.336l-.71 1.872c6.15 2.319 13.41 3.464 21.77 3.464v-2zm-21.05-3.33c-5.89-2.335-10.76-5.491-14.61-9.457l-1.43 1.394c4.07 4.194 9.18 7.498 15.3 9.923l.74-1.86zm-14.59-9.437c-3.76-4.085-6.58-8.893-8.46-14.435l-1.89.644c1.96 5.791 4.92 10.844 8.88 15.145l1.47-1.354zm-8.45-14.412c-1.78-5.67-2.68-11.915-2.68-18.741h-2c0 7 .92 13.45 2.77 19.34l1.91-.6zm-2.68-18.741V4.19h-2v73.27h2zm-1-72.27h26.52v-2h-26.52v2zm25.52-1v71.06h2V4.19h-2zm0 71.06c0 4.826.52 9.008 1.57 12.527l1.92-.574c-.98-3.282-1.49-7.26-1.49-11.953h-2zm1.59 12.566c1.16 3.376 2.69 6.212 4.6 8.478l1.53-1.288c-1.72-2.04-3.14-4.645-4.24-7.842l-1.89.652zm4.63 8.52c2.04 2.155 4.44 3.718 7.2 4.678l.66-1.888c-2.45-.854-4.58-2.237-6.4-4.163l-1.46 1.374zm7.22 4.683c2.83.944 5.88 1.411 9.15 1.411v-2c-3.08 0-5.91-.44-8.52-1.309l-.63 1.898zm9.15 1.411c6.68 0 12.17-2.06 16.35-6.243l-1.42-1.414c-3.75 3.75-8.69 5.657-14.93 5.657v2zm16.34-6.233c4.37-4.248 6.42-11.33 6.42-20.947h-2c0 9.422-2.02 15.828-5.82 19.513l1.4 1.434zm6.42-20.947V4.19h-2v71.06h2zm-1-70.06h26.52v-2h-26.52v2zm25.52-1v73.27h2V4.19h-2zm0 73.27c0 6.82-.95 13.058-2.84 18.724l1.9.632c1.97-5.894 2.94-12.35 2.94-19.356h-2zm-2.84 18.724c-1.88 5.649-4.75 10.507-8.61 14.589l1.45 1.374c4.07-4.305 7.09-9.42 9.06-15.33l-1.9-.633zm-8.6 14.579c-3.85 3.959-8.76 7.057-14.77 9.279l.7 1.876c6.24-2.311 11.41-5.56 15.5-9.761l-1.43-1.394zm-14.77 9.279c-5.98 2.216-13.11 3.338-21.41 3.338v2c8.48 0 15.85-1.145 22.11-3.462l-.7-1.876zM1562.27 12.35l-.56.829v.005l.56-.834zm8.33 49.47l-.81-.594v.003l.81.591zm-16.32 12.07l-.38-.924-1.24.51.84 1.042.78-.628zm7.48 10.2l-.83.56.01.012.82-.572zm7.65 11.9l-.86.511.01.014v.013l.85-.538zm7.48 12.92l-.89.465.01.009.88-.474zm6.63 13.09v1h1.58l-.68-1.428-.9.428zm-29.75 0l-.88.488.29.512h.59v-1zm-6.63-11.73l-.88.477v.01l.01.009.87-.496zm-6.8-11.56l-.86.518.01.01v.009l.85-.537zm-6.8-10.54l-.83.555v.013l.83-.568zm-6.8-9.18l.77-.64-.3-.36h-.47v1zm-13.09 0v-1h-1v1h1zm0 43.01v1h1v-1h-1zm-26.52 0h-1v1h1v-1zm0-116.11l-.2-.981-.8.158v.823h1zm17.85-2.38l-.08-.997.08.997zm12.92 22.1l-.07-.997h-.01l.08.997zm-4.25.34l-.09-.997-.91.077v.92h1zm0 31.96h-1v1h1v-1zm28.9-3.74l-.5-.865.5.865zm-.17-24.99l-.5.865.01.008.01.008.48-.881zm-20.74-25.35c17.58 0 30.9 3.16 40.07 9.349l1.12-1.658c-9.64-6.504-23.42-9.691-41.19-9.691v2zm40.07 9.354c9.08 6.013 13.67 15.413 13.67 28.406h2c0-13.527-4.82-23.62-14.56-30.074l-1.11 1.668zm13.67 28.406c0 8.119-1.89 14.637-5.59 19.636l1.61 1.188c4.01-5.427 5.98-12.396 5.98-20.824h-2zm-5.59 19.639c-3.61 4.922-8.89 8.844-15.89 11.737l.76 1.848c7.27-3 12.87-7.125 16.74-12.403l-1.61-1.182zm-16.29 13.29c2.36 2.92 4.83 6.296 7.43 10.131l1.66-1.12c-2.62-3.872-5.13-7.295-7.53-10.268l-1.56 1.256zm7.44 10.143a194.97 194.97 0 017.61 11.84l1.72-1.023c-2.51-4.213-5.07-8.2-7.69-11.96l-1.64 1.143zm7.62 11.866c2.6 4.055 5.07 8.337 7.44 12.847l1.77-.93c-2.39-4.557-4.9-8.888-7.52-12.993l-1.69 1.076zm7.45 12.856c2.37 4.406 4.57 8.754 6.6 13.044l1.81-.856a285.373 285.373 0 00-6.65-13.136l-1.76.948zm7.51 11.616h-29.75v2h29.75v-2zm-28.88.512c-2.15-3.856-4.37-7.769-6.63-11.738l-1.74.992c2.26 3.964 4.47 7.871 6.62 11.722l1.75-.976zm-6.62-11.719c-2.17-3.987-4.45-7.86-6.84-11.62l-1.69 1.074c2.37 3.72 4.63 7.553 6.77 11.5l1.76-.954zm-6.83-11.601a209.265 209.265 0 00-6.83-10.59l-1.65 1.136c2.26 3.269 4.51 6.766 6.77 10.49l1.71-1.036zm-6.82-10.577c-2.28-3.425-4.57-6.514-6.86-9.265l-1.54 1.28c2.24 2.69 4.49 5.72 6.74 9.095l1.66-1.11zm-7.63-9.625h-13.09v2h13.09v-2zm-14.09 1V122h2V78.99h-2zm1 42.01h-26.52v2h26.52v-2zm-25.52 1V5.89h-2V122h2zm-.81-115.129a149.516 149.516 0 0117.73-2.364l-.15-1.994c-6.15.456-12.14 1.254-17.97 2.396l.39 1.962zm17.73-2.364c6.22-.452 11.74-.677 16.59-.677v-2c-4.91 0-10.48.228-16.74.683l.15 1.994zm18.12 19.933c-1.95 0-3.73.057-5.34.172l.14 1.996c1.56-.112 3.29-.168 5.2-.168v-2zm-5.35.173c-1.47.113-2.89.227-4.26.34l.17 1.994c1.36-.114 2.77-.227 4.24-.34l-.15-1.994zm-5.17 1.337v31.96h2V25.95h-2zm1 32.96h7.48v-2h-7.48v2zm7.48 0c10 0 17.37-1.242 21.92-3.875l-1-1.73c-4.07 2.353-10.98 3.605-20.92 3.605v2zm21.92-3.875c4.68-2.711 6.96-7.338 6.96-13.615h-2c0 5.737-2.03 9.61-5.96 11.885l1 1.73zm6.96-13.615c0-6.08-2.36-10.536-7.16-13.12l-.95 1.76c4.04 2.176 6.11 5.88 6.11 11.36h2zm-7.13-13.105c-4.53-2.624-11.15-3.875-19.71-3.875v2c8.43 0 14.62 1.242 18.71 3.605l1-1.73zm108.34 80.085l-.73.683v.005l.73-.688zM1640.85 37l.92.374.01-.005-.93-.369zm12.58-19.38l.7.715v-.008l-.7-.707zm19.04-12.07l-.35-.938.35.938zm37.57-2.89l-.2.982.02.002.01.002.17-.986zm10.71 2.55l-.32.949.02.005.01.005.29-.959zm12.07 5.27l.94.336.27-.758-.68-.426-.53.848zm-7.65 21.42l-.47.883 1.02.543.39-1.09-.94-.336zm-12.75-4.93l-.28.962.01.001.27-.963zm-28.39 0l-.33-.946-.01.003.34.943zm-10.37 6.63l-.71-.707.71.707zm-8.16 44.2l-.98.232.01.013v.014l.97-.259zm5.78 12.07l-.8.608.01.009v.008l.79-.625zm10.54 8.16l-.43.904.01.004.01.005.41-.913zm26.01 2.21l-.15-.99.15.99zm8.16-1.53l.23.973.02-.005.02-.007-.27-.961zm6.29-2.21l.4.916-.4-.916zm4.93-2.21l.94-.325-.36-1.047-1 .464.42.908zm7.31 21.25l.51.855.69-.418-.26-.762-.94.325zm-15.81 6.12l.25.966-.25-.966zm-23.63 1.72c-18.97 0-33.29-5.27-43.14-15.668l-1.45 1.376c10.33 10.908 25.25 16.292 44.59 16.292v-2zm-43.13-15.663c-9.75-10.412-14.69-25.265-14.69-44.707h-2c0 19.771 5.03 35.179 15.23 46.073l1.46-1.366zm-14.69-44.707c0-9.642 1.51-18.182 4.51-25.636l-1.85-.748c-3.12 7.733-4.66 16.533-4.66 26.384h2zm4.52-25.641c3.01-7.591 7.13-13.93 12.35-19.034l-1.4-1.43c-5.44 5.322-9.71 11.904-12.81 19.726l1.86.738zm12.35-19.042c5.22-5.22 11.45-9.167 18.68-11.839l-.69-1.876c-7.5 2.768-13.97 6.868-19.4 12.3l1.41 1.415zm18.68-11.839c7.25-2.675 15.12-4.018 23.63-4.018v-2c-8.72 0-16.83 1.377-24.32 4.142l.69 1.876zm23.63-4.018c4.93 0 9.4.393 13.4 1.172l.39-1.964c-4.16-.807-8.76-1.208-13.79-1.208v2zm13.43 1.176c4.04.674 7.56 1.513 10.56 2.513l.63-1.898c-3.12-1.04-6.74-1.901-10.86-2.587l-.33 1.972zm10.59 2.523c3.03.896 5.52 1.84 7.49 2.825l.89-1.788c-2.11-1.055-4.71-2.038-7.81-2.955l-.57 1.918zm7.49 2.825c2.03 1.018 3.47 1.794 4.34 2.334l1.06-1.696c-.95-.593-2.46-1.404-4.51-2.426l-.89 1.788zm3.92 1.15l-7.65 21.42 1.89.672 7.65-21.42-1.89-.672zm-6.23 20.873c-3.71-1.967-8.03-3.635-12.96-5.01l-.53 1.926c4.82 1.345 9 2.964 12.55 4.85l.94-1.766zm-12.95-5.008c-4.87-1.391-10.4-2.079-16.59-2.079v2c6.04 0 11.39.672 16.04 2.002l.55-1.923zm-16.59-2.079c-4.2 0-8.33.7-12.4 2.094l.65 1.892c3.87-1.325 7.78-1.986 11.75-1.986v-2zm-12.41 2.097c-4 1.413-7.58 3.707-10.74 6.866l1.41 1.414c2.96-2.96 6.29-5.087 10-6.394l-.67-1.886zm-10.74 6.866c-3.07 3.066-5.52 7.048-7.37 11.911l1.87.712c1.77-4.657 4.09-8.381 6.91-11.209l-1.41-1.414zm-7.37 11.911c-1.87 4.905-2.78 10.813-2.78 17.696h2c0-6.717.89-12.369 2.65-16.984l-1.87-.712zM1662.8 62.5c0 5.51.57 10.688 1.72 15.532l1.95-.464c-1.11-4.676-1.67-9.697-1.67-15.068h-2zm1.73 15.56c1.28 4.757 3.26 8.902 5.95 12.418l1.59-1.216c-2.52-3.284-4.39-7.186-5.61-11.721l-1.93.518zm5.96 12.435c2.83 3.53 6.47 6.34 10.9 8.439l.85-1.808c-4.18-1.98-7.57-4.61-10.18-7.88l-1.57 1.249zm10.92 8.448c4.46 1.998 9.83 2.977 16.05 2.977v-2c-6.02 0-11.09-.948-15.24-2.803l-.81 1.826zm16.05 2.977c3.89 0 7.39-.229 10.51-.691l-.29-1.978c-3 .444-6.41.669-10.22.669v2zm10.51-.691c3.08-.456 5.83-.971 8.25-1.546l-.47-1.946c-2.34.559-5.03 1.064-8.07 1.514l.29 1.978zm8.29-1.558c2.41-.689 4.55-1.44 6.42-2.255l-.8-1.832c-1.77.772-3.82 1.494-6.17 2.165l.55 1.922zm6.42-2.255c1.81-.795 3.46-1.535 4.94-2.218l-.83-1.816c-1.47.677-3.11 1.41-4.91 2.202l.8 1.832zm3.58-2.8l7.31 21.249 1.89-.65-7.31-21.25-1.89.65zm7.74 20.069c-3.63 2.197-8.79 4.207-15.55 6.009l.51 1.932c6.85-1.825 12.22-3.894 16.07-6.231l-1.03-1.71zm-15.55 6.009c-6.7 1.786-14.49 2.686-23.37 2.686v2c9.01 0 16.98-.913 23.88-2.754l-.51-1.932zM1830.3 99.22h1v-1h-1v1zm0 22.78v1h1v-1h-1zm-78.71 0h-1v1h1v-1zm0-117.81v-1h-1v1h1zm26.52 0h1v-1h-1v1zm0 95.03h-1v1h1v-1zm51.19 0V122h2V99.22h-2zm1 21.78h-78.71v2h78.71v-2zm-77.71 1V4.19h-2V122h2zm-1-116.81h26.52v-2h-26.52v2zm25.52-1v95.03h2V4.19h-2zm1 96.03h52.19v-2h-52.19v2zm69.27-96.03v-1h-1v1h1zm26.52 0h1v-1h-1v1zm0 117.81v1h1v-1h-1zm-26.52 0h-1v1h1v-1zm0-116.81h26.52v-2h-26.52v2zm25.52-1V122h2V4.19h-2zm1 116.81h-26.52v2h26.52v-2zm-25.52 1V4.19h-2V122h2zm52.79 0h-1v1h1v-1zm0-117.81v-1h-1v1h1zm79.56 0h1v-1h-1v1zm0 22.27v1h1v-1h-1zm-53.04 0v-1h-1v1h1zm0 23.12h-1v1h1v-1zm47.09 0h1v-1h-1v1zm0 21.76v1h1v-1h-1zm-47.09 0v-1h-1v1h1zm0 28.39h-1v1h1v-1zm56.95 0h1v-1h-1v1zm0 22.27v1h1v-1h-1zm-82.47 0V4.19h-2V122h2zm-1-116.81h79.56v-2h-79.56v2zm78.56-1v22.27h2V4.19h-2zm1 21.27h-53.04v2h53.04v-2zm-54.04 1v23.12h2V26.46h-2zm1 24.12h47.09v-2h-47.09v2zm46.09-1v21.76h2V49.58h-2zm1 20.76h-47.09v2h47.09v-2zm-48.09 1v28.39h2V71.34h-2zm1 29.39h56.95v-2h-56.95v2zm55.95-1V122h2V99.73h-2zm1 21.27h-83.47v2h83.47v-2zm98.68 1l-.88.491.29.509h.59v-1zm-24.65-39.95l-.83.558.83-.558zm-28.22-37.23l.76-.65-1.76-2.06v2.71h1zm0 77.18v1h1v-1h-1zm-26.18 0h-1v1h1v-1zm0-117.81v-1h-1v1h1zm21.59 0l.7-.707-.29-.293h-.41v1zm12.41 13.77l.76-.64-.76.64zm13.77 17.51l-.81.598.01.008.01.008.79-.614zm14.11 19.21l-.83.57.01.007.82-.577zm13.09 19.04l-.84.555 1.84 2.748V73.72h-1zm0-69.53v-1h-1v1h1zm26.35 0h1v-1h-1v1zm0 117.81v1h1v-1h-1zm-21.4-.491a597.045 597.045 0 00-24.69-40.017l-1.66 1.116a593.74 593.74 0 0124.6 39.883l1.75-.982zm-24.69-40.017c-8.86-13.178-18.29-25.618-28.29-37.322l-1.52 1.3c9.94 11.643 19.33 24.022 28.15 37.138l1.66-1.116zm-30.05-36.672V122h2V44.82h-2zm1 76.18h-26.18v2h26.18v-2zm-25.18 1V4.19h-2V122h2zm-1-116.81h21.59v-2h-21.59v2zm20.88-.293c3.71 3.713 7.83 8.28 12.35 13.703l1.53-1.28c-4.54-5.456-8.7-10.07-12.47-13.837l-1.41 1.414zM2037.5 18.6c4.52 5.425 9.1 11.247 13.73 17.468l1.61-1.196c-4.66-6.246-9.26-12.097-13.81-17.552l-1.53 1.28zm13.75 17.484a435.724 435.724 0 0114.07 19.167l1.65-1.142c-4.66-6.7-9.37-13.118-14.14-19.253l-1.58 1.228zm14.08 19.173c4.64 6.567 9 12.906 13.07 19.018l1.67-1.11a868.02 868.02 0 00-13.11-19.062l-1.63 1.154zm14.91 18.463V4.19h-2v69.53h2zm-1-68.53h26.35v-2h-26.35v2zm25.35-1V122h2V4.19h-2zm1 116.81h-22.27v2h22.27v-2zM2220.14 4.19h1v-1h-1v1zm0 22.61v1h1v-1h-1zm-35.53 0v-1h-1v1h1zm0 95.2v1h1v-1h-1zm-26.52 0h-1v1h1v-1zm0-95.2h1v-1h-1v1zm-35.53 0h-1v1h1v-1zm0-22.61v-1h-1v1h1zm96.58 0V26.8h2V4.19h-2zm1 21.61h-35.53v2h35.53v-2zm-36.53 1V122h2V26.8h-2zm1 94.2h-26.52v2h26.52v-2zm-25.52 1V26.8h-2V122h2zm-1-96.2h-35.53v2h35.53v-2zm-34.53 1V4.19h-2V26.8h2zm-1-21.61h97.58v-2h-97.58v2zm155.94 95.73l.23.973.01-.004.02-.004-.26-.965zm5.95-2.55l.57.822.02-.014.02-.015-.61-.793zm3.06-3.91l.93.359-.93-.359zm-4.59-14.45l-.59.812.01.006.01.006.57-.824zm-18.7-8.33l-.34.943.01.003.01.003.32-.949zm-11.56-4.59l-.43.905.01.005.01.005.41-.915zm-10.37-6.63l-.67.747.01.007.01.007.65-.761zm-7.48-9.69l-.9.447.01.011.89-.458zm.17-28.56l.9.428v-.009l-.9-.419zm8.67-11.22l-.64-.774.64.774zm13.6-6.97l.28.958.01-.002.01-.003-.3-.953zm38.59 0l-.29.96.29-.96zm14.28 5.61l.94.344.29-.81-.76-.412-.47.878zm-7.65 20.91l-.46.888 1 .522.4-1.066-.94-.344zm-11.05-4.42l-.33.946.02.005.01.005.3-.956zm-28.22.68l.53.848.01-.006-.54-.842zm-2.55 13.43l.82-.57-.82.57zm4.25 4.08l-.57.824.03.02.03.018.51-.862zm6.46 3.23l-.4.92.03.01.02.01.35-.94zm8.16 2.89l.34-.938-.01-.003-.01-.004-.32.945zm15.98 6.8l-.45.894.01.005.01.004.43-.903zm11.22 7.65l-.71.707.01.007v.006l.7-.72zm-2.55 50.49l.61.789.01-.006-.62-.783zm-48.96 7.99l.16-.987-.02-.002-.01-.002-.13.991zm-11.22-2.21l-.28.962.01.002.27-.964zm-8.33-2.89l-.41.912v.004l.01.003.4-.919zm-5.78-2.89l-.95-.334-.28.787.73.415.5-.868zm7.48-21.08l.48-.877-1.03-.565-.4 1.108.95.334zm12.92 5.27l-.3.955.01.004.01.003.28-.962zm19.04 3.21c3.78 0 6.92-.286 9.41-.877l-.47-1.946c-2.27.542-5.25.823-8.94.823v2zm9.44-.885c2.56-.698 4.66-1.587 6.26-2.693l-1.14-1.644c-1.35.934-3.22 1.745-5.65 2.407l.53 1.93zm6.3-2.722c1.59-1.226 2.74-2.67 3.38-4.344l-1.87-.718c-.49 1.273-1.38 2.435-2.73 3.476l1.22 1.586zm3.38-4.344c.62-1.604.92-3.371.92-5.289h-2c0 1.709-.27 3.228-.79 4.571l1.87.718zm.92-5.289c0-4.233-2.02-7.695-5.88-10.344l-1.13 1.648c3.4 2.338 5.01 5.223 5.01 8.696h2zm-5.86-10.332c-3.76-2.7-10.11-5.515-18.97-8.467l-.63 1.898c8.82 2.941 14.94 5.68 18.43 8.193l1.17-1.624zm-18.95-8.461a161.88 161.88 0 01-11.49-4.562l-.81 1.83c3.88 1.71 7.76 3.25 11.63 4.618l.67-1.886zm-11.47-4.552c-3.78-1.778-7.16-3.94-10.15-6.486l-1.29 1.522c3.13 2.668 6.66 4.925 10.59 6.774l.85-1.81zm-10.13-6.472c-2.97-2.636-5.38-5.767-7.26-9.401l-1.77.916c1.98 3.846 4.55 7.175 7.7 9.98l1.33-1.495zm-7.25-9.39c-1.84-3.683-2.78-8.169-2.78-13.493h-2c0 5.556.98 10.363 2.99 14.387l1.79-.894zm-2.78-13.493c0-5.313.99-10.037 2.96-14.192l-1.81-.856c-2.11 4.458-3.15 9.48-3.15 15.048h2zm2.96-14.2c1.98-4.284 4.78-7.903 8.4-10.866l-1.27-1.548c-3.86 3.157-6.84 7.018-8.94 11.575l1.81.838zm8.4-10.866c3.62-2.964 8.03-5.231 13.25-6.786l-.57-1.916c-5.43 1.618-10.09 3.998-13.95 7.154l1.27 1.548zm13.27-6.791c5.21-1.664 11.11-2.503 17.72-2.503v-2c-6.77 0-12.89.86-18.33 2.597l.61 1.906zm17.72-2.503c7.86 0 14.62.843 20.28 2.51l.57-1.92c-5.9-1.733-12.85-2.59-20.85-2.59v2zm20.28 2.51c5.74 1.687 10.43 3.533 14.09 5.528l.95-1.756c-3.82-2.085-8.65-3.979-14.47-5.691l-.57 1.918zm13.63 4.306l-7.65 20.91 1.88.688 7.65-20.91-1.88-.688zm-6.25 20.366c-3.35-1.732-7.09-3.227-11.22-4.488l-.59 1.912c4.03 1.232 7.66 2.684 10.89 4.352l.92-1.776zm-11.19-4.478c-4.1-1.406-9.03-2.094-14.77-2.094v2c5.59 0 10.29.672 14.12 1.986l.65-1.892zm-14.77-2.094c-6.4 0-11.23.905-14.31 2.878l1.08 1.684c2.58-1.653 6.93-2.562 13.23-2.562v-2zm-14.3 2.872c-3.06 1.91-4.55 4.92-4.55 8.838h2c0-3.335 1.22-5.651 3.61-7.142l-1.06-1.696zm-4.55 8.838c0 2.315.55 4.337 1.7 6.01l1.65-1.14c-.88-1.274-1.35-2.878-1.35-4.87h-2zm1.7 6.01c1.11 1.592 2.62 3.034 4.51 4.334l1.13-1.648c-1.73-1.193-3.05-2.471-3.99-3.825l-1.65 1.138zm4.57 4.372c1.97 1.158 4.16 2.253 6.57 3.287l.79-1.838c-2.35-1.006-4.46-2.064-6.35-3.173l-1.01 1.724zm6.62 3.308c2.5.909 5.23 1.874 8.18 2.895l.65-1.89c-2.94-1.019-5.65-1.98-8.14-2.885l-.69 1.88zm8.16 2.888c6.09 2.257 11.39 4.51 15.88 6.756l.89-1.788c-4.57-2.287-9.93-4.568-16.08-6.844l-.69 1.876zm15.9 6.765c4.45 2.114 8.09 4.603 10.94 7.454l1.41-1.414c-3.04-3.042-6.88-5.654-11.49-7.846l-.86 1.806zm10.95 7.467c2.95 2.843 5.14 6.173 6.56 9.998l1.87-.696a28.421 28.421 0 00-7.04-10.742l-1.39 1.44zm6.56 9.998c1.42 3.825 2.15 8.516 2.15 14.102h2c0-5.748-.75-10.69-2.28-14.798l-1.87.696zm2.15 14.102c0 10.729-3.75 18.98-11.19 24.887l1.25 1.566c7.97-6.333 11.94-15.195 11.94-26.453h-2zm-11.18 24.881c-7.45 5.81-18.81 8.799-34.23 8.799v2c15.62 0 27.5-3.018 35.46-9.221l-1.23-1.578zm-34.23 8.799c-5.18 0-9.82-.337-13.95-1.007l-.32 1.974c4.25.69 9.01 1.033 14.27 1.033v-2zm-13.98-1.011c-4.16-.562-7.85-1.291-11.09-2.183l-.53 1.928c3.34.921 7.12 1.666 11.35 2.237l.27-1.982zm-11.08-2.181c-3.14-.898-5.88-1.848-8.21-2.847l-.79 1.838c2.43 1.041 5.25 2.017 8.45 2.933l.55-1.924zm-8.19-2.84c-2.25-1.011-4.15-1.96-5.7-2.846l-.99 1.736c1.62.927 3.58 1.905 5.87 2.934l.82-1.824zm-5.25-1.644l7.48-21.08-1.89-.668-7.48 21.08 1.89.668zm6.06-20.537c3.58 1.967 7.95 3.748 13.1 5.348l.59-1.91c-5.05-1.573-9.29-3.306-12.73-5.192l-.96 1.754zm13.12 5.355c5.33 1.506 11.78 2.248 19.32 2.248v-2c-7.42 0-13.67-.731-18.77-2.172l-.55 1.924zm232.96-21.872l-.96.28v.012l.01.01.95-.302zm6.12 12.07l-.79.608.01.015.01.015.77-.638zm9.86 7.65l.43-.905-.43.905zm26.35 0l-.41-.91-.02.005.43.905zm9.86-7.65l-.78-.625v.004l.78.621zm6.12-12.07l-.95-.302-.01.01v.011l.96.281zm0-31.28l-.96.275v.013l.01.014.95-.302zm-6.12-12.07l-.79.608.01.015.01.015.77-.638zm-9.86-7.82l-.43.905.02.005.41-.91zm-26.35.17l.43.905.01-.005.01-.006-.45-.894zm-9.86 7.82l-.78-.625v.004l.78.621zm-6.12 12.07l-.95-.296-.01.008v.007l.96.281zm83.3 42.16l-.93-.37v.008l.93.362zm-12.24 19.21l.7.715.01-.008-.71-.707zm-18.7 11.56l-.34-.941v.002l.34.939zm-64.6-11.56l-.7.715.01.007.69-.722zm-12.58-19.21l-.93.369v.005l.93-.374zm.17-53.21l.92.386.01-.005-.93-.381zm12.75-19.38l-.69-.722-.01.007.7.715zm18.7-11.73l-.34-.94-.01.002.35.938zm45.22 0l.34-.94-.34.94zm18.7 11.73l.7-.715-.7.715zm12.58 19.38l-.93.369v.005l.93-.374zm-86.34 26.52c0 5.857.69 11.167 2.08 15.92l1.92-.56c-1.33-4.54-2-9.657-2-15.36h-2zm2.09 15.942c1.5 4.742 3.59 8.873 6.28 12.376l1.58-1.216c-2.52-3.297-4.51-7.213-5.96-11.764l-1.9.604zm6.3 12.406a29.29 29.29 0 0010.2 7.917l.86-1.81a27.326 27.326 0 01-9.52-7.383l-1.54 1.276zm10.2 7.917c4.01 1.886 8.58 2.815 13.69 2.815v-2c-4.86 0-9.13-.884-12.83-2.625l-.86 1.81zm13.69 2.815c5 0 9.51-.931 13.52-2.815l-.86-1.81c-3.7 1.742-7.91 2.625-12.66 2.625v2zm13.51-2.81c4.1-1.877 7.52-4.523 10.22-7.939l-1.56-1.242c-2.51 3.158-5.67 5.611-9.49 7.361l.83 1.82zm10.22-7.935c2.81-3.513 4.91-7.656 6.3-12.414l-1.92-.562c-1.33 4.536-3.31 8.439-5.94 11.726l1.56 1.25zm6.29-12.393c1.51-4.76 2.26-10.078 2.26-15.942h-2c0 5.696-.73 10.805-2.16 15.338l1.9.604zm2.26-15.942c0-5.864-.75-11.182-2.26-15.942l-1.9.604c1.43 4.533 2.16 9.642 2.16 15.338h2zm-2.25-15.915c-1.39-4.871-3.49-9.024-6.31-12.433l-1.54 1.276c2.62 3.164 4.6 7.058 5.93 11.707l1.92-.55zm-6.29-12.403c-2.7-3.533-6.12-6.241-10.23-8.122l-.83 1.82c3.82 1.746 6.97 4.25 9.48 7.518l1.58-1.216zm-10.22-8.117c-4.01-1.884-8.52-2.815-13.52-2.815v2c4.75 0 8.96.883 12.66 2.625l.86-1.81zm-13.52-2.815c-5.12 0-9.69.99-13.71 2.996l.9 1.788c3.69-1.847 7.95-2.784 12.81-2.784v-2zm-13.69 2.985c-3.99 1.88-7.4 4.584-10.21 8.1l1.56 1.25c2.63-3.284 5.79-5.793 9.51-7.54l-.86-1.81zm-10.21 8.104c-2.7 3.4-4.79 7.539-6.29 12.395l1.91.592c1.44-4.664 3.43-8.571 5.94-11.745l-1.56-1.242zm-6.3 12.41c-1.39 4.752-2.08 10.005-2.08 15.751h2c0-5.587.67-10.648 2-15.19l-1.92-.56zm87.85 15.751c0 9.987-1.51 18.754-4.52 26.321l1.86.738c3.12-7.847 4.66-16.873 4.66-27.059h-2zm-4.52 26.328c-2.9 7.478-6.91 13.76-12.02 18.865l1.42 1.414c5.32-5.321 9.47-11.846 12.46-19.555l-1.86-.724zm-12.01 18.857c-5.1 4.994-11.21 8.773-18.34 11.334l.68 1.882c7.38-2.652 13.74-6.58 19.06-11.786l-1.4-1.43zm-18.34 11.336c-7.02 2.563-14.61 3.849-22.78 3.849v2c8.38 0 16.2-1.32 23.46-3.971l-.68-1.878zm-22.78 3.849c-7.94 0-15.41-1.285-22.44-3.849l-.68 1.878c7.25 2.649 14.96 3.971 23.12 3.971v-2zm-22.44-3.849c-7.01-2.561-13.12-6.342-18.35-11.343l-1.38 1.444c5.43 5.199 11.78 9.125 19.05 11.777l.68-1.878zm-18.34-11.336c-5.22-5.107-9.34-11.39-12.35-18.869l-1.86.748c3.11 7.709 7.38 14.232 12.81 19.551l1.4-1.43zm-12.35-18.864c-3-7.567-4.52-16.334-4.52-26.321h-2c0 10.186 1.55 19.212 4.66 27.059l1.86-.738zm-4.52-26.321c0-9.983 1.57-18.687 4.68-26.134l-1.84-.772c-3.24 7.74-4.84 16.716-4.84 26.906h2zm4.69-26.14c3.12-7.595 7.3-13.937 12.52-19.045l-1.4-1.43c-5.43 5.32-9.76 11.897-12.97 19.714l1.85.762zm12.51-19.038c5.34-5.12 11.46-8.956 18.36-11.514l-.7-1.876c-7.15 2.655-13.5 6.639-19.04 11.946l1.38 1.444zm18.35-11.513c7.03-2.565 14.39-3.849 22.1-3.849v-2c-7.93 0-15.53 1.323-22.78 3.97l.68 1.88zm22.1-3.849c7.94 0 15.41 1.285 22.44 3.85l.68-1.88c-7.25-2.648-14.96-3.97-23.12-3.97v2zm22.44 3.85c7.01 2.558 13.12 6.393 18.34 11.505l1.4-1.43c-5.43-5.314-11.79-9.3-19.06-11.954l-.68 1.878zm18.34 11.505c5.22 5.105 9.34 11.443 12.35 19.034l1.86-.738c-3.11-7.822-7.37-14.404-12.81-19.726l-1.4 1.43zm12.35 19.039c3.01 7.45 4.52 16.159 4.52 26.146h2c0-10.186-1.54-19.158-4.66-26.894l-1.86.748zm52.28 84.116l-.37.93.01.003v.003l.36-.936zm-14.96-9.69l-.74.677.01.01.01.01.72-.697zm-8.67-14.79l-.96.3.01.01v.012l.95-.322zm-2.72-92.31v-1h-1v1h1zm26.52 0h1v-1h-1v1zm1.53 83.3l-.96.287.01.02v.019l.95-.326zm4.42 8.16l-.77.644.02.022.02.02.73-.686zm6.8 4.42l-.33.945.01.004.32-.949zm24.48-4.59l-.7-.717-.01.01.71.707zm6.12-91.29v-1h-1v1h1zm26.52 0h1v-1h-1v1zm-2.89 92.31l-.95-.316.95.316zm-8.84 14.96l.71.697.01-.01-.72-.687zm-36.89 11.92c-8.19 0-15.2-1.122-21.07-3.336l-.71 1.872c6.15 2.319 13.42 3.464 21.78 3.464v-2zm-21.05-3.33c-5.9-2.335-10.76-5.491-14.62-9.457l-1.43 1.394c4.08 4.194 9.19 7.498 15.31 9.923l.74-1.86zm-14.6-9.437c-3.75-4.085-6.57-8.893-8.46-14.435l-1.89.644c1.97 5.791 4.93 10.844 8.88 15.145l1.47-1.354zm-8.45-14.412c-1.78-5.67-2.67-11.915-2.67-18.741h-2c0 7 .92 13.45 2.76 19.34l1.91-.6zm-2.67-18.741V4.19h-2v73.27h2zm-1-72.27h26.52v-2h-26.52v2zm25.52-1v71.06h2V4.19h-2zm0 71.06c0 4.826.51 9.008 1.57 12.527l1.92-.574c-.99-3.282-1.49-7.26-1.49-11.953h-2zm1.58 12.566c1.17 3.376 2.69 6.212 4.6 8.478l1.53-1.288c-1.72-2.04-3.13-4.645-4.24-7.842l-1.89.652zm4.64 8.52c2.04 2.155 4.44 3.718 7.2 4.678l.66-1.888c-2.46-.854-4.59-2.237-6.41-4.163l-1.45 1.374zm7.21 4.683c2.83.944 5.89 1.411 9.16 1.411v-2c-3.08 0-5.92-.44-8.53-1.309l-.63 1.898zm9.16 1.411c6.68 0 12.16-2.06 16.34-6.243l-1.41-1.414c-3.75 3.75-8.69 5.657-14.93 5.657v2zm16.33-6.233c4.37-4.248 6.43-11.33 6.43-20.947h-2c0 9.422-2.03 15.828-5.82 19.513l1.39 1.434zm6.43-20.947V4.19h-2v71.06h2zm-1-70.06h26.52v-2h-26.52v2zm25.52-1v73.27h2V4.19h-2zm0 73.27c0 6.82-.95 13.058-2.84 18.724l1.9.632c1.96-5.894 2.94-12.35 2.94-19.356h-2zm-2.84 18.724c-1.88 5.649-4.76 10.507-8.62 14.589l1.45 1.374c4.08-4.305 7.1-9.42 9.07-15.33l-1.9-.633zm-8.61 14.579c-3.85 3.959-8.76 7.057-14.76 9.279l.69 1.876c6.24-2.311 11.42-5.56 15.5-9.761l-1.43-1.394zm-14.76 9.279c-5.98 2.216-13.11 3.338-21.41 3.338v2c8.47 0 15.85-1.145 22.1-3.462l-.69-1.876zM2788.29 12.35l-.56.829.01.005.55-.834zm8.33 49.47l-.8-.594v.003l.8.591zm-16.32 12.07l-.38-.924-1.24.51.84 1.042.78-.628zm7.48 10.2l-.83.56.01.012.82-.572zm7.65 11.9l-.86.511.01.014.01.013.84-.538zm7.48 12.92l-.88.465v.009l.88-.474zm6.63 13.09v1h1.58l-.67-1.428-.91.428zm-29.75 0l-.87.488.29.512h.58v-1zm-6.63-11.73l-.88.477.01.01v.009l.87-.496zm-6.8-11.56l-.85.518v.01l.01.009.84-.537zm-6.8-10.54l-.83.555.01.006v.007l.82-.568zm-6.8-9.18l.77-.64-.3-.36h-.47v1zm-13.09 0v-1h-1v1h1zm0 43.01v1h1v-1h-1zm-26.52 0h-1v1h1v-1zm0-116.11l-.19-.981-.81.158v.823h1zM2731 3.51l-.07-.997.07.997zm12.92 22.1l-.07-.997.07.997zm-4.25.34l-.08-.997-.92.077v.92h1zm0 31.96h-1v1h1v-1zm28.9-3.74l-.5-.865.5.865zm-.17-24.99l-.5.865.02.008.01.008.47-.881zm-20.74-25.35c17.59 0 30.9 3.16 40.07 9.349l1.12-1.658c-9.64-6.504-23.41-9.691-41.19-9.691v2zm40.08 9.354c9.08 6.013 13.66 15.413 13.66 28.406h2c0-13.527-4.82-23.62-14.55-30.074l-1.11 1.668zm13.66 28.406c0 8.119-1.89 14.637-5.58 19.636l1.61 1.188c4.01-5.427 5.97-12.396 5.97-20.824h-2zm-5.58 19.639c-3.61 4.922-8.89 8.844-15.9 11.737l.76 1.848c7.28-3 12.88-7.125 16.75-12.403l-1.61-1.182zm-16.3 13.29c2.36 2.92 4.84 6.296 7.43 10.131l1.66-1.12c-2.62-3.872-5.13-7.295-7.53-10.268l-1.56 1.256zm7.44 10.143a194.97 194.97 0 017.61 11.84l1.72-1.023c-2.5-4.213-5.07-8.2-7.69-11.96l-1.64 1.143zm7.63 11.866a175.63 175.63 0 017.44 12.847l1.77-.93c-2.39-4.557-4.9-8.888-7.52-12.993l-1.69 1.076zm7.44 12.856c2.37 4.406 4.58 8.754 6.61 13.044l1.81-.856a285.72 285.72 0 00-6.66-13.136l-1.76.948zm7.51 11.616h-29.75v2h29.75v-2zm-28.87.512c-2.16-3.856-4.37-7.769-6.64-11.738l-1.74.992c2.27 3.964 4.48 7.871 6.63 11.722l1.75-.976zm-6.63-11.719c-2.16-3.987-4.44-7.86-6.83-11.62l-1.69 1.074c2.37 3.72 4.62 7.553 6.76 11.5l1.76-.954zm-6.82-11.601a224.153 224.153 0 00-6.83-10.59l-1.65 1.136a217.62 217.62 0 016.77 10.49l1.71-1.036zm-6.83-10.577c-2.28-3.425-4.57-6.514-6.86-9.265l-1.54 1.28c2.25 2.69 4.49 5.72 6.74 9.095l1.66-1.11zm-7.63-9.625h-13.09v2h13.09v-2zm-14.09 1V122h2V78.99h-2zm1 42.01h-26.52v2h26.52v-2zm-25.52 1V5.89h-2V122h2zm-.8-115.129a148.962 148.962 0 0117.73-2.364l-.15-1.994a151.42 151.42 0 00-17.97 2.396l.39 1.962zm17.73-2.364c6.21-.452 11.74-.677 16.58-.677v-2c-4.9 0-10.48.228-16.73.683l.15 1.994zm18.11 19.933c-1.94 0-3.72.057-5.34.172l.14 1.996c1.56-.112 3.3-.168 5.2-.168v-2zm-5.34.173c-1.48.113-2.9.227-4.26.34l.17 1.994c1.35-.114 2.77-.227 4.24-.34l-.15-1.994zm-5.18 1.337v31.96h2V25.95h-2zm1 32.96h7.48v-2h-7.48v2zm7.48 0c10.01 0 17.38-1.242 21.92-3.875l-1-1.73c-4.06 2.353-10.98 3.605-20.92 3.605v2zm21.92-3.875c4.69-2.711 6.96-7.338 6.96-13.615h-2c0 5.737-2.03 9.61-5.96 11.885l1 1.73zm6.96-13.615c0-6.08-2.35-10.536-7.15-13.12l-.95 1.76c4.04 2.176 6.1 5.88 6.1 11.36h2zm-7.13-13.105c-4.53-2.624-11.14-3.875-19.71-3.875v2c8.44 0 14.63 1.242 18.71 3.605l1-1.73zm108.34 80.085l-.73.683.01.005.72-.688zM2866.87 37l.93.374v-.005l-.93-.369zm12.58-19.38l.7.715.01-.008-.71-.707zm19.04-12.07l-.35-.938.35.938zm37.57-2.89l-.19.982.01.002.02.002.16-.986zm10.71 2.55l-.31.949.01.005.02.005.28-.959zm12.07 5.27l.94.336.27-.758-.68-.426-.53.848zm-7.65 21.42l-.47.883 1.02.543.39-1.09-.94-.336zm-12.75-4.93l-.27.962v.001l.27-.963zm-28.39 0l-.32-.946-.01.003.33.943zm-10.37 6.63l-.71-.707.71.707zm-8.16 44.2l-.97.232v.013l.01.014.96-.259zm5.78 12.07l-.79.608v.009l.01.008.78-.625zm10.54 8.16l-.43.904.01.004.01.005.41-.913zm26.01 2.21l-.15-.99.15.99zm8.16-1.53l.23.973.02-.005.03-.007-.28-.961zm6.29-2.21l.4.916-.4-.916zm4.93-2.21l.95-.325-.36-1.047-1.01.464.42.908zm7.31 21.25l.52.855.69-.418-.26-.762-.95.325zm-15.81 6.12l.26.966-.26-.966zm-23.63 1.72c-18.97 0-33.29-5.27-43.13-15.668l-1.45 1.376c10.32 10.908 25.24 16.292 44.58 16.292v-2zm-43.13-15.663c-9.75-10.412-14.69-25.265-14.69-44.707h-2c0 19.771 5.03 35.179 15.23 46.073l1.46-1.366zm-14.69-44.707c0-9.642 1.51-18.182 4.52-25.636l-1.86-.748c-3.11 7.733-4.66 16.533-4.66 26.384h2zm4.52-25.641c3.01-7.591 7.13-13.93 12.35-19.034l-1.4-1.43c-5.44 5.322-9.7 11.904-12.81 19.726l1.86.738zm12.36-19.042c5.22-5.22 11.44-9.167 18.68-11.839l-.7-1.876c-7.49 2.768-13.96 6.868-19.4 12.3l1.42 1.415zm18.68-11.839c7.24-2.675 15.11-4.018 23.62-4.018v-2c-8.72 0-16.83 1.377-24.32 4.142l.7 1.876zm23.62-4.018c4.94 0 9.4.393 13.41 1.172l.38-1.964C2932.1.871 2927.5.47 2922.46.47v2zm13.44 1.176c4.04.674 7.56 1.513 10.56 2.513l.63-1.898c-3.12-1.04-6.75-1.901-10.86-2.587l-.33 1.972zm10.59 2.523c3.02.896 5.51 1.84 7.48 2.825l.9-1.788c-2.11-1.055-4.72-2.038-7.81-2.955l-.57 1.918zm7.48 2.825c2.04 1.018 3.48 1.794 4.34 2.334l1.06-1.696c-.95-.593-2.46-1.404-4.5-2.426l-.9 1.788zm3.93 1.15l-7.65 21.42 1.88.672 7.65-21.42-1.88-.672zm-6.24 20.873c-3.7-1.967-8.02-3.635-12.95-5.01l-.54 1.926c4.82 1.345 9 2.964 12.55 4.85l.94-1.766zm-12.94-5.008c-4.87-1.391-10.41-2.079-16.6-2.079v2c6.05 0 11.39.672 16.05 2.002l.55-1.923zm-16.6-2.079c-4.19 0-8.33.7-12.39 2.094l.65 1.892c3.86-1.325 7.77-1.986 11.74-1.986v-2zm-12.4 2.097c-4 1.413-7.59 3.707-10.75 6.866l1.42 1.414c2.96-2.96 6.29-5.087 9.99-6.394l-.66-1.886zm-10.75 6.866c-3.06 3.066-5.51 7.048-7.36 11.911l1.87.712c1.77-4.657 4.08-8.381 6.91-11.209l-1.42-1.414zm-7.36 11.911c-1.87 4.905-2.79 10.813-2.79 17.696h2c0-6.717.9-12.369 2.66-16.984l-1.87-.712zm-2.79 17.696c0 5.51.58 10.688 1.73 15.532l1.94-.464c-1.11-4.676-1.67-9.697-1.67-15.068h-2zm1.74 15.56c1.27 4.757 3.25 8.902 5.95 12.418l1.58-1.216c-2.51-3.284-4.39-7.186-5.6-11.721l-1.93.518zm5.96 12.435c2.82 3.53 6.46 6.34 10.89 8.439l.86-1.808c-4.18-1.98-7.57-4.61-10.19-7.88l-1.56 1.249zm10.91 8.448c4.47 1.998 9.83 2.977 16.05 2.977v-2c-6.02 0-11.08-.948-15.23-2.803l-.82 1.826zm16.05 2.977c3.89 0 7.4-.229 10.52-.691l-.3-1.978c-3 .444-6.4.669-10.22.669v2zm10.52-.691c3.08-.456 5.83-.971 8.24-1.546l-.46-1.946c-2.35.559-5.04 1.064-8.08 1.514l.3 1.978zm8.29-1.558c2.41-.689 4.55-1.44 6.41-2.255l-.8-1.832c-1.76.772-3.82 1.494-6.16 2.165l.55 1.922zm6.41-2.255a265.72 265.72 0 004.95-2.218l-.84-1.816c-1.46.677-3.1 1.41-4.91 2.202l.8 1.832zm3.59-2.8l7.31 21.249 1.89-.65-7.31-21.25-1.89.65zm7.73 20.069c-3.62 2.197-8.79 4.207-15.55 6.009l.52 1.932c6.84-1.825 12.21-3.894 16.07-6.231l-1.04-1.71zm-15.55 6.009c-6.69 1.786-14.48 2.686-23.37 2.686v2c9.02 0 16.99-.913 23.89-2.754l-.52-1.932zm111.86-21.474h1v-1h-1v1zm0 22.78v1h1v-1h-1zm-78.71 0h-1v1h1v-1zm0-117.81v-1h-1v1h1zm26.52 0h1v-1h-1v1zm0 95.03h-1v1h1v-1zm51.19 0V122h2V99.22h-2zm1 21.78h-78.71v2h78.71v-2zm-77.71 1V4.19h-2V122h2zm-1-116.81h26.52v-2h-26.52v2zm25.52-1v95.03h2V4.19h-2zm1 96.03h52.19v-2h-52.19v2zm69.27-96.03v-1h-1v1h1zm26.52 0h1v-1h-1v1zm0 117.81v1h1v-1h-1zm-26.52 0h-1v1h1v-1zm0-116.81h26.52v-2h-26.52v2zm25.52-1V122h2V4.19h-2zm1 116.81h-26.52v2h26.52v-2zm-25.52 1V4.19h-2V122h2zm52.79 0h-1v1h1v-1zm0-117.81v-1h-1v1h1zm79.56 0h1v-1h-1v1zm0 22.27v1h1v-1h-1zm-53.04 0v-1h-1v1h1zm0 23.12h-1v1h1v-1zm47.09 0h1v-1h-1v1zm0 21.76v1h1v-1h-1zm-47.09 0v-1h-1v1h1zm0 28.39h-1v1h1v-1zm56.95 0h1v-1h-1v1zm0 22.27v1h1v-1h-1zm-82.47 0V4.19h-2V122h2zm-1-116.81h79.56v-2h-79.56v2zm78.56-1v22.27h2V4.19h-2zm1 21.27h-53.04v2h53.04v-2zm-54.04 1v23.12h2V26.46h-2zm1 24.12h47.09v-2h-47.09v2zm46.09-1v21.76h2V49.58h-2zm1 20.76h-47.09v2h47.09v-2zm-48.09 1v28.39h2V71.34h-2zm1 29.39h56.95v-2h-56.95v2zm55.95-1V122h2V99.73h-2zm1 21.27h-83.47v2h83.47v-2zm98.67 1l-.87.491.29.509h.58v-1zm-24.65-39.95l-.83.558.83-.558zm-28.22-37.23l.76-.65-1.76-2.06v2.71h1zm0 77.18v1h1v-1h-1zm-26.18 0h-1v1h1v-1zm0-117.81v-1h-1v1h1zm21.59 0l.71-.707-.29-.293h-.42v1zm12.41 13.77l.77-.64-.77.64zm13.77 17.51l-.8.598.01.008v.008l.79-.614zm14.11 19.21l-.82.57v.007l.82-.577zm13.09 19.04l-.83.555 1.83 2.748V73.72h-1zm0-69.53v-1h-1v1h1zm26.35 0h1v-1h-1v1zm0 117.81v1h1v-1h-1zm-21.4-.491a588.932 588.932 0 00-24.69-40.017l-1.66 1.116a589.837 589.837 0 0124.61 39.883l1.74-.982zm-24.69-40.017c-8.86-13.178-18.29-25.618-28.29-37.322l-1.52 1.3c9.95 11.643 19.33 24.022 28.15 37.138l1.66-1.116zm-30.05-36.672V122h2V44.82h-2zm1 76.18h-26.18v2h26.18v-2zm-25.18 1V4.19h-2V122h2zm-1-116.81h21.59v-2h-21.59v2zm20.88-.293c3.72 3.713 7.83 8.28 12.35 13.703l1.54-1.28c-4.55-5.456-8.7-10.07-12.47-13.837l-1.42 1.414zm12.35 13.703c4.52 5.425 9.1 11.247 13.74 17.468l1.6-1.196c-4.65-6.246-9.25-12.097-13.8-17.552l-1.54 1.28zm13.75 17.484a444.077 444.077 0 0114.08 19.167l1.64-1.142c-4.65-6.7-9.37-13.118-14.14-19.253l-1.58 1.228zm14.08 19.173c4.65 6.567 9 12.906 13.08 19.018l1.66-1.11a833.173 833.173 0 00-13.1-19.062l-1.64 1.154zm14.91 18.463V4.19h-2v69.53h2zm-1-68.53h26.35v-2h-26.35v2zm25.35-1V122h2V4.19h-2zm1 116.81h-22.27v2h22.27v-2zM3446.17 4.19h1v-1h-1v1zm0 22.61v1h1v-1h-1zm-35.53 0v-1h-1v1h1zm0 95.2v1h1v-1h-1zm-26.52 0h-1v1h1v-1zm0-95.2h1v-1h-1v1zm-35.53 0h-1v1h1v-1zm0-22.61v-1h-1v1h1zm96.58 0V26.8h2V4.19h-2zm1 21.61h-35.53v2h35.53v-2zm-36.53 1V122h2V26.8h-2zm1 94.2h-26.52v2h26.52v-2zm-25.52 1V26.8h-2V122h2zm-1-96.2h-35.53v2h35.53v-2zm-34.53 1V4.19h-2V26.8h2zm-1-21.61h97.58v-2h-97.58v2zm155.93 95.73l.23.973.02-.004.01-.004-.26-.965zm5.95-2.55l.57.822.02-.014.02-.015-.61-.793zm3.06-3.91l.93.359-.93-.359zm-4.59-14.45l-.58.812.01.006v.006l.57-.824zm-18.7-8.33l-.33.943.01.003.01.003.31-.949zm-11.56-4.59l-.42.905.01.005.01.005.4-.915zm-10.37-6.63l-.66.747v.007l.01.007.65-.761zm-7.48-9.69l-.89.447v.011l.89-.458zm.17-28.56l.91.428v-.009l-.91-.419zm8.67-11.22l-.63-.774.63.774zm13.6-6.97l.29.958.01-.002.01-.003-.31-.953zm38.59 0l-.28.96.28-.96zm14.28 5.61l.94.344.3-.81-.76-.412-.48.878zm-7.65 20.91l-.46.888 1.01.522.39-1.066-.94-.344zm-11.05-4.42l-.32.946.01.005.02.005.29-.956zm-28.22.68l.53.848.01-.006-.54-.842zm-2.55 13.43l.82-.57-.82.57zm4.25 4.08l-.57.824.03.02.03.018.51-.862zm6.46 3.23l-.39.92.02.01.03.01.34-.94zm8.16 2.89l.35-.938-.01-.003-.01-.004-.33.945zm15.98 6.8l-.45.894.01.005.01.004.43-.903zm11.22 7.65l-.71.707.01.007.01.006.69-.72zm-2.55 50.49l.62.789v-.006l-.62-.783zm-48.96 7.99l.16-.987-.01-.002-.01-.002-.14.991zm-11.22-2.21l-.27.962.01.002.26-.964zm-8.33-2.89l-.41.912.01.004.01.003.39-.919zm-5.78-2.89l-.94-.334-.28.787.73.415.49-.868zm7.48-21.08l.48-.877-1.03-.565-.39 1.108.94.334zm12.92 5.27l-.3.955.02.004.01.003.27-.962zm19.04 3.21c3.78 0 6.93-.286 9.41-.877l-.46-1.946c-2.28.542-5.25.823-8.95.823v2zm9.44-.885c2.56-.698 4.66-1.587 6.26-2.693l-1.14-1.644c-1.35.934-3.21 1.745-5.64 2.407l.52 1.93zm6.3-2.722c1.59-1.226 2.74-2.67 3.38-4.344l-1.86-.718c-.49 1.273-1.38 2.435-2.74 3.476l1.22 1.586zm3.38-4.344c.62-1.604.92-3.371.92-5.289h-2c0 1.709-.27 3.228-.78 4.571l1.86.718zm.92-5.289c0-4.233-2.02-7.695-5.87-10.344l-1.14 1.648c3.4 2.338 5.01 5.223 5.01 8.696h2zm-5.86-10.332c-3.75-2.7-10.11-5.515-18.96-8.467l-.63 1.898c8.82 2.941 14.93 5.68 18.43 8.193l1.16-1.624zm-18.95-8.461a165.76 165.76 0 01-11.49-4.562l-.8 1.83c3.87 1.71 7.75 3.25 11.63 4.618l.66-1.886zm-11.46-4.552c-3.78-1.778-7.16-3.94-10.15-6.486l-1.3 1.522c3.13 2.668 6.67 4.925 10.6 6.774l.85-1.81zm-10.13-6.472c-2.97-2.636-5.39-5.767-7.26-9.401l-1.78.916c1.98 3.846 4.55 7.175 7.71 9.98l1.33-1.495zm-7.25-9.39c-1.85-3.683-2.79-8.169-2.79-13.493h-2c0 5.556.99 10.363 3 14.387l1.79-.894zm-2.79-13.493c0-5.313 1-10.037 2.97-14.192l-1.81-.856c-2.11 4.458-3.16 9.48-3.16 15.048h2zm2.97-14.2c1.98-4.284 4.77-7.903 8.39-10.866l-1.26-1.548c-3.86 3.157-6.84 7.018-8.95 11.575l1.82.838zm8.39-10.866c3.63-2.964 8.04-5.231 13.26-6.786l-.57-1.916c-5.44 1.618-10.1 3.998-13.95 7.154l1.26 1.548zm13.28-6.791c5.21-1.664 11.11-2.503 17.71-2.503v-2c-6.77 0-12.88.86-18.32 2.597l.61 1.906zm17.71-2.503c7.87 0 14.62.843 20.29 2.51l.56-1.92c-5.89-1.733-12.85-2.59-20.85-2.59v2zm20.29 2.51c5.74 1.687 10.42 3.533 14.08 5.528l.96-1.756c-3.82-2.085-8.65-3.979-14.48-5.691l-.56 1.918zm13.62 4.306l-7.65 20.91 1.88.688 7.65-20.91-1.88-.688zm-6.25 20.366c-3.35-1.732-7.09-3.227-11.22-4.488l-.58 1.912c4.03 1.232 7.66 2.684 10.88 4.352l.92-1.776zm-11.18-4.478c-4.1-1.406-9.04-2.094-14.78-2.094v2c5.59 0 10.29.672 14.13 1.986l.65-1.892zm-14.78-2.094c-6.39 0-11.22.905-14.31 2.878l1.08 1.684c2.58-1.653 6.93-2.562 13.23-2.562v-2zm-14.3 2.872c-3.05 1.91-4.55 4.92-4.55 8.838h2c0-3.335 1.23-5.651 3.61-7.142l-1.06-1.696zm-4.55 8.838c0 2.315.55 4.337 1.71 6.01l1.64-1.14c-.88-1.274-1.35-2.878-1.35-4.87h-2zm1.71 6.01c1.1 1.592 2.61 3.034 4.5 4.334l1.14-1.648c-1.74-1.193-3.06-2.471-4-3.825l-1.64 1.138zm4.56 4.372c1.97 1.158 4.16 2.253 6.58 3.287l.79-1.838c-2.35-1.006-4.47-2.064-6.35-3.173l-1.02 1.724zm6.63 3.308c2.5.909 5.22 1.874 8.17 2.895l.66-1.89a582.59 582.59 0 01-8.15-2.885l-.68 1.88zm8.15 2.888c6.1 2.257 11.39 4.51 15.88 6.756l.9-1.788c-4.57-2.287-9.94-4.568-16.08-6.844l-.7 1.876zm15.9 6.765c4.45 2.114 8.09 4.603 10.94 7.454l1.42-1.414c-3.04-3.042-6.88-5.654-11.5-7.846l-.86 1.806zm10.96 7.467a26.532 26.532 0 016.55 9.998l1.88-.696a28.663 28.663 0 00-7.04-10.742l-1.39 1.44zm6.55 9.998c1.42 3.825 2.15 8.516 2.15 14.102h2c0-5.748-.75-10.69-2.27-14.798l-1.88.696zm2.15 14.102c0 10.729-3.74 18.98-11.18 24.887l1.24 1.566c7.98-6.333 11.94-15.195 11.94-26.453h-2zm-11.17 24.881c-7.46 5.81-18.81 8.799-34.24 8.799v2c15.63 0 27.51-3.018 35.47-9.221l-1.23-1.578zm-34.24 8.799c-5.17 0-9.82-.337-13.95-1.007l-.32 1.974c4.26.69 9.02 1.033 14.27 1.033v-2zm-13.97-1.011c-4.16-.562-7.86-1.291-11.09-2.183l-.53 1.928c3.33.921 7.12 1.666 11.35 2.237l.27-1.982zm-11.08-2.181c-3.15-.898-5.88-1.848-8.21-2.847l-.79 1.838c2.43 1.041 5.24 2.017 8.45 2.933l.55-1.924zm-8.2-2.84c-2.25-1.011-4.14-1.96-5.69-2.846l-.99 1.736c1.62.927 3.57 1.905 5.86 2.934l.82-1.824zm-5.25-1.644l7.48-21.08-1.88-.668-7.48 21.08 1.88.668zm6.06-20.537c3.59 1.967 7.96 3.748 13.1 5.348l.6-1.91c-5.06-1.573-9.3-3.306-12.74-5.192l-.96 1.754zm13.13 5.355c5.33 1.506 11.77 2.248 19.31 2.248v-2c-7.42 0-13.67-.731-18.77-2.172l-.54 1.924z" fill="#646482"/></svg>