<svg width="24" height="33" viewBox="0 0 24 33" fill="none" xmlns="http://www.w3.org/2000/svg"><path d="M8.182 31.462l.132-.991-.016-.002-.017-.002-.099.995zm-2.436-.378l.21-.978-.21.978zm-2.142-.546l.291-.957-.291.957zm-1.512-.546l-.974-.228-.185.794.74.342.419-.908zm1.218-5.208l.39-.921-1.093-.462-.27 1.155.973.228zm2.772 1.008l-.31.951.015.005.014.004.281-.96zm8.484-.588l-.63-.776.63.776zm.84-4.83l-.865.501.015.027.018.027.832-.555zm-1.302-1.26l-.514.857.016.01.016.01.482-.877zm-2.016-.672l-.182.983.02.004.02.003.142-.99zm-4.872-.21h-1v1h1v-1zm0-5.04v-1h-1v1h1zm4.536-.168l-.187-.982-.01.001.197.981zm1.554-.546l.49.872.02-.012.02-.012-.53-.848zm1.05-1.092l-.862-.507-.005.008-.005.009.872.49zm.084-3.15l.868-.496-.868.496zm-.882-.966l-.6.8.015.011.016.011.569-.822zm-1.218-.546l-.298.954.034.011.035.008.229-.973zm-4.746.336l-.332-.943-.008.002.34.941zM4.822 8.404l-.9.437.49 1.006.945-.598-.535-.845zM2.596 3.826l-.53-.848-.763.477.394.808.899-.437zm1.554-.882l-.447-.894-.009.004-.008.004.464.886zm4.326-1.47L8.28.494h-.007l.203.98zm7.056.378l-.323.947.013.004.013.004.297-.955zm3.108 1.722l-.681.732.006.006.008.007.667-.745zm1.806 2.604l-.932.362.003.01.929-.372zm-.378 6.594l.856.518.005-.01-.861-.508zm-2.604 2.436l-.456-.89-1.939.994 2.018.822.377-.926zm3.486 2.772l-.835.55.007.011.008.011.82-.572zm.588 8.106l.928.371.004-.008-.932-.363zm-2.1 2.94l.649.76.006-.005.007-.005-.662-.75zm-3.654 1.932l.294.956.011-.004-.305-.952zm-5.208-.328c-.707 0-1.46-.052-2.262-.16l-.264 1.983c.878.117 1.72.177 2.526.177v-2zm-2.295-.163c-.804-.08-1.58-.201-2.325-.36l-.42 1.955c.823.176 1.671.308 2.546.395l.2-1.99zm-2.325-.36a25.344 25.344 0 01-2.06-.526l-.583 1.914a27.65 27.65 0 002.223.567l.42-1.956zm-2.06-.526c-.626-.19-1.08-.357-1.385-.497L1.673 30.9c.424.196.977.393 1.64.595l.582-1.914zm-.83.639l1.218-5.208-1.948-.456-1.218 5.208 1.948.456zm-.146-4.515a36.3 36.3 0 002.853 1.038l.618-1.902a34.35 34.35 0 01-2.691-.978l-.78 1.842zm2.881 1.047c1.268.37 2.783.544 4.523.544v-2c-1.62 0-2.933-.163-3.961-.464l-.562 1.92zm4.523.544c2.02 0 3.713-.374 4.873-1.316l-1.262-1.552c-.632.514-1.767.868-3.611.868v2zm4.873-1.316c1.147-.932 1.713-2.206 1.713-3.716h-2c0 .954-.33 1.64-.975 2.164l1.262 1.552zm1.713-3.716c0-.904-.202-1.74-.672-2.445l-1.664 1.11c.202.303.336.727.336 1.335h2zm-.639-2.391a4.316 4.316 0 00-1.685-1.635l-.964 1.752c.407.224.706.517.919.885l1.73-1.002zm-1.653-1.617c-.695-.417-1.5-.677-2.389-.804l-.282 1.98c.679.097 1.218.285 1.643.54l1.028-1.716zm-2.348-.797a14.382 14.382 0 00-2.618-.227v2c.815 0 1.565.066 2.254.193l.364-1.966zm-2.618-.227H7.216v2h2.436v-2zm-1.436 1v-5.04h-2v5.04h2zm-1-4.04h2.772v-2H7.216v2zm2.772 0c.677 0 1.33-.062 1.96-.187l-.392-1.962a7.982 7.982 0 01-1.568.149v2zm1.951-.186a6.09 6.09 0 001.857-.656l-.98-1.744c-.34.191-.752.34-1.251.436l.374 1.964zm1.897-.68a4.017 4.017 0 001.392-1.45l-1.744-.98c-.167.298-.398.54-.708.734l1.06 1.696zm1.382-1.433c.392-.666.558-1.44.558-2.271h-2c0 .569-.114.97-.282 1.257l1.724 1.014zm.558-2.271c0-.675-.143-1.314-.468-1.882l-1.736.992c.123.216.204.5.204.89h2zm-.468-1.882a3.92 3.92 0 00-1.18-1.292l-1.14 1.644c.24.165.432.375.584.64l1.736-.992zm-1.15-1.27c-.463-.347-1-.581-1.589-.72l-.458 1.947c.364.086.638.216.847.373l1.2-1.6zm-1.52-.7a5.62 5.62 0 00-1.684-.256v2c.376 0 .738.055 1.088.164l.596-1.908zm-1.684-.256c-1.306 0-2.54.198-3.691.603l.662 1.886c.92-.323 1.927-.489 3.029-.489v-2zm-3.7.605a15.13 15.13 0 00-2.967 1.44l1.07 1.69a13.13 13.13 0 012.577-1.248l-.68-1.882zM5.721 7.967L3.495 3.389l-1.798.874 2.226 4.578 1.798-.874zM3.126 4.674a22.72 22.72 0 011.488-.844l-.928-1.772c-.605.317-1.146.624-1.62.92l1.06 1.696zm1.471-.836c.573-.286 1.204-.55 1.896-.789l-.654-1.89c-.764.265-1.477.561-2.136.89l.894 1.79zm1.896-.789a17.54 17.54 0 012.186-.596L8.273.495a19.54 19.54 0 00-2.434.664l.654 1.89zm2.18-.594a12.47 12.47 0 012.449-.233v-2c-.985 0-1.933.09-2.842.271l.392 1.962zm2.449-.233c1.63 0 2.986.201 4.087.577l.646-1.894C14.492.441 12.908.222 11.122.222v2zm4.113.585c1.144.356 2.04.863 2.724 1.499l1.362-1.464c-.94-.876-2.116-1.517-3.492-1.945l-.594 1.91zm2.738 1.512a5.728 5.728 0 011.541 2.221l1.864-.724a7.726 7.726 0 00-2.07-2.987l-1.335 1.49zm1.544 2.23c.34.85.517 1.8.517 2.863h2c0-1.289-.215-2.495-.66-3.605l-1.857.742zm.517 2.863c0 .951-.264 1.897-.827 2.852l1.722 1.016c.725-1.23 1.105-2.523 1.105-3.868h-2zm-.822 2.842a5.414 5.414 0 01-2.204 2.064l.912 1.78a7.413 7.413 0 003.003-2.808l-1.71-1.036zm-2.125 3.88c1.346.548 2.339 1.35 3.028 2.396l1.67-1.1c-.935-1.419-2.265-2.464-3.944-3.148l-.754 1.852zm3.043 2.418c.704 1.01 1.08 2.258 1.08 3.796h2c0-1.878-.465-3.542-1.44-4.94l-1.64 1.144zm1.08 3.796c0 1.23-.205 2.352-.604 3.375l1.864.727c.497-1.274.74-2.645.74-4.102h-2zm-.6 3.367c-.387.967-.993 1.82-1.834 2.561l1.324 1.5c1.063-.938 1.857-2.046 2.366-3.319l-1.857-.742zm-1.82 2.55c-.83.708-1.924 1.296-3.311 1.74l.61 1.905c1.58-.507 2.924-1.207 3.998-2.123l-1.298-1.522zm-3.3 1.737c-1.336.411-2.967.628-4.914.628v2c2.085 0 3.926-.231 5.502-.716l-.588-1.912z" fill="#019BE0"/></svg>