<svg width="23" height="32" viewBox="0 0 23 32" fill="none" xmlns="http://www.w3.org/2000/svg"><path d="M20.202 12.604l.92.394-.92-.394zm-1.638 2.856l.8.6.004-.006.005-.006-.809-.588zm-4.746 4.998l-.681-.732h-.001l.682.732zm-1.386 1.344l-.707-.707.707.707zm-1.386 1.47l-.747-.664.747.664zM9.828 24.7l-.776-.63-.005.005.781.625zm-.63 1.05l-.958-.287-.386 1.287h1.344v-1zm12.516 0h1v-1h-1v1zm0 5.25v1h1v-1h-1zM2.31 31l-.984.179.15.821h.834v-1zm.546-5.88l-.928-.371-.005.01-.003.01.936.351zm1.722-3.108l.806.592.008-.01-.814-.582zm2.352-2.73l-.684-.73-.006.006-.005.005.695.719zm2.646-2.52l-.692-.722-.003.003.695.719zm1.89-1.806l.69.724.008-.008.01-.009-.708-.707zm1.554-1.68l.765.644.008-.01.008-.01-.781-.624zm1.05-1.638l.904.428.004-.009.004-.009-.912-.41zM8.652 6.976l.329.944.01-.003.012-.005-.351-.936zm-1.806.84l.501.865.007-.003.006-.005-.514-.857zm-1.386.966l.618.786.017-.013.016-.014-.651-.759zm-.882.756l-.815.58.686.963.836-.836-.707-.707zM1.47 5.17l-.682-.732-.64.598.507.714.815-.58zm4.284-2.814l.41.913.006-.004-.416-.909zm9.702-.546l.303-.953-.303.953zm3.024 1.68l-.68.733.013.012.014.012.653-.757zm1.764 2.604l-.944.331.006.016.006.015.932-.362zm-.412 3.444c0 .928-.182 1.816-.55 2.672l1.84.788c.472-1.104.71-2.26.71-3.46h-2zm-.55 2.672a13.708 13.708 0 01-1.527 2.662l1.618 1.176a15.697 15.697 0 001.748-3.05l-1.838-.788zm-1.518 2.65a23.362 23.362 0 01-2.175 2.497l1.414 1.414a25.322 25.322 0 002.361-2.711l-1.6-1.2zm-2.175 2.497a95.526 95.526 0 01-2.452 2.37l1.362 1.463a97.67 97.67 0 002.504-2.419l-1.414-1.414zm-2.453 2.37c-.43.401-.9.858-1.411 1.368l1.414 1.414a56.12 56.12 0 011.361-1.32l-1.364-1.462zm-1.411 1.368c-.49.49-.965.994-1.426 1.513l1.494 1.328c.435-.489.884-.965 1.346-1.427l-1.414-1.414zm-1.426 1.513c-.457.513-.872 1-1.247 1.461l1.552 1.262c.353-.435.75-.9 1.19-1.395l-1.495-1.328zm-1.252 1.467c-.36.45-.667.921-.807 1.388l1.916.574c.028-.093.141-.323.453-.712l-1.562-1.25zm.151 2.675h12.516v-2H9.198v2zm11.516-1V31h2v-5.25h-2zm1 4.25H2.31v2h19.404v-2zm-18.42.821a5.817 5.817 0 01-.068-.997h-2c0 .508.03.966.1 1.355l1.968-.358zm-.068-.997v-1.007h-2v1.007h2zm0-1.008c0-1.239.193-2.35.566-3.345L1.92 24.77c-.467 1.245-.694 2.598-.694 4.047h2zm.558-3.325a13 13 0 011.6-2.887L3.772 21.42a14.999 14.999 0 00-1.844 3.329l1.856.742zm1.608-2.898a18.84 18.84 0 012.233-2.592l-1.39-1.438a20.832 20.832 0 00-2.47 2.868l1.627 1.162zm2.222-2.581c.9-.844 1.786-1.688 2.657-2.531l-1.39-1.438a229.63 229.63 0 01-2.635 2.51l1.368 1.459zm2.654-2.528c.671-.643 1.3-1.245 1.888-1.804l-1.38-1.448c-.588.56-1.22 1.163-1.892 1.808l1.384 1.444zm1.905-1.82a27.896 27.896 0 001.612-1.744l-1.53-1.288a25.947 25.947 0 01-1.496 1.617l1.414 1.414zm1.628-1.763a9.417 9.417 0 001.173-1.835l-1.808-.856c-.212.449-.517.93-.927 1.441l1.562 1.25zm1.18-1.853a5.063 5.063 0 00.467-2.09h-2c0 .405-.09.826-.29 1.27l1.824.82zm.467-2.09c0-1.407-.405-2.652-1.466-3.416l-1.168 1.624c.339.244.634.735.634 1.792h2zm-1.466-3.416c-.902-.65-1.985-.944-3.188-.944v2c.87 0 1.522.21 2.02.568l1.168-1.624zm-3.188-.944a7.05 7.05 0 00-2.493.442l.702 1.872a5.05 5.05 0 011.791-.314v-2zm-2.47.434a10.68 10.68 0 00-1.992.926L7.36 8.674a8.68 8.68 0 011.62-.753l-.657-1.888zm-1.979.919c-.575.333-1.09.69-1.536 1.072L6.111 9.54c.337-.29.747-.577 1.236-.86L6.345 6.95zM4.842 7.996c-.403.316-.733.597-.971.835l1.414 1.414c.154-.154.412-.377.793-.677L4.842 7.996zm.55.962L2.286 4.59.655 5.75l3.108 4.368 1.63-1.16zm-3.24-3.056c1.147-1.07 2.482-1.948 4.011-2.633l-.818-1.826A16.557 16.557 0 00.788 4.438l1.364 1.464zM6.17 3.265a11.567 11.567 0 014.876-1.043v-2c-2.015 0-3.921.407-5.708 1.225l.832 1.818zm4.876-1.043c1.636 0 2.998.188 4.107.54l.606-1.905C14.403.426 12.826.222 11.046.222v2zm4.107.54c1.12.357 1.99.852 2.646 1.46l1.361-1.465c-.912-.847-2.057-1.472-3.4-1.9l-.607 1.906zm2.674 1.485A5 5 0 0119.3 6.425l1.887-.662a7 7 0 00-2.054-3.03l-1.306 1.514zm1.485 2.21c.34.872.52 1.894.52 3.081h2c0-1.389-.211-2.663-.656-3.806l-1.864.724z" fill="#019BE0"/></svg>