<svg width="104" height="12" viewBox="0 0 104 12" fill="none" xmlns="http://www.w3.org/2000/svg">
<path d="M103.887 5.73487L98.0993 0.109872C97.9485 -0.036624 97.7044 -0.036624 97.5537 0.109872C97.403 0.256368 97.403 0.493673 97.5537 0.640134L102.683 5.62501H0.385857C0.172581 5.62501 0 5.79274 0 6.00002C0 6.2073 0.172581 6.37503 0.385857 6.37503H102.683L97.5537 11.3599C97.403 11.5064 97.403 11.7437 97.5537 11.8901C97.629 11.9634 97.7278 12 97.8265 12C97.9252 12 98.0239 11.9634 98.0993 11.8901L103.887 6.26514C104.038 6.11867 104.038 5.88137 103.887 5.73487Z" fill="white"/>
</svg>
