<svg width="25" height="32" viewBox="0 0 25 32" fill="none" xmlns="http://www.w3.org/2000/svg">
<path d="M14.398 9.538H15.398V6.58408L13.6036 8.93055L14.398 9.538ZM10.912 14.2L11.7184 14.7914L10.912 14.2ZM7.804 19.366L6.90114 18.9361L6.22022 20.366H7.804V19.366ZM14.398 19.366V20.366H15.398V19.366H14.398ZM20.53 1.894H21.53V0.893999H20.53V1.894ZM20.53 19.366H19.53V20.366H20.53V19.366ZM23.638 19.366H24.638V18.366H23.638V19.366ZM23.638 24.49V25.49H24.638V24.49H23.638ZM20.53 24.49V23.49H19.53V24.49H20.53ZM20.53 31V32H21.53V31H20.53ZM14.398 31H13.398V32H14.398V31ZM14.398 24.49H15.398V23.49H14.398V24.49ZM1.84 24.49H0.84V25.49H1.84V24.49ZM1.84 19.912L0.945573 19.4648L0.84 19.6759V19.912H1.84ZM4.15 15.754L5.00752 16.2685L5.01154 16.2617L4.15 15.754ZM7.216 10.966L6.39481 10.3953L6.39279 10.3983L7.216 10.966ZM14.608 1.894V0.893999H14.1938L13.9009 1.18689L14.608 1.894ZM13.6036 8.93055C12.507 10.3646 11.341 11.9241 10.1056 13.6086L11.7184 14.7914C12.947 13.1159 14.105 11.5674 15.1924 10.1454L13.6036 8.93055ZM10.1056 13.6086C8.83888 15.336 7.76987 17.1117 6.90114 18.9361L8.70686 19.7959C9.51813 18.0923 10.5211 16.424 11.7184 14.7914L10.1056 13.6086ZM7.804 20.366H14.398V18.366H7.804V20.366ZM15.398 19.366V9.538H13.398V19.366H15.398ZM19.53 1.894V19.366H21.53V1.894H19.53ZM20.53 20.366H23.638V18.366H20.53V20.366ZM22.638 19.366V24.49H24.638V19.366H22.638ZM23.638 23.49H20.53V25.49H23.638V23.49ZM19.53 24.49V31H21.53V24.49H19.53ZM20.53 30H14.398V32H20.53V30ZM15.398 31V24.49H13.398V31H15.398ZM14.398 23.49H1.84V25.49H14.398V23.49ZM2.84 24.49V19.912H0.84V24.49H2.84ZM2.73443 20.3592C3.33616 19.1558 4.09295 17.7927 5.00749 16.2685L3.29251 15.2395C2.35905 16.7953 1.57584 18.2042 0.945573 19.4648L2.73443 20.3592ZM5.01154 16.2617C5.92253 14.7158 6.93159 13.1398 8.03921 11.5337L6.39279 10.3983C5.26041 12.0402 4.22547 13.6562 3.28846 15.2463L5.01154 16.2617ZM8.03719 11.5367C9.17195 9.90371 10.362 8.3123 11.6075 6.76239L10.0485 5.50961C8.77395 7.0957 7.55605 8.72429 6.39481 10.3953L8.03719 11.5367ZM11.6075 6.76239C12.8477 5.21906 14.0837 3.83252 15.3151 2.60111L13.9009 1.18689C12.6123 2.47548 11.3283 3.91694 10.0485 5.50961L11.6075 6.76239ZM14.608 2.894H20.53V0.893999H14.608V2.894Z" fill="#019BE0"/>
</svg>
