<svg width="161" height="32" viewBox="0 0 161 32" fill="none" xmlns="http://www.w3.org/2000/svg">
<path fill-rule="evenodd" clip-rule="evenodd" d="M15.6262 8.17896H7.94081V15.8635H0.255859V23.5485V31.233H7.94081H15.6262L23.3111 31.2326V23.5481V15.8635V8.17896H15.6262ZM15.6262 15.8635V19.8497V23.5481H11.64L7.94081 23.5485V19.5619V15.8635H15.6262Z" fill="white"/>
<path fill-rule="evenodd" clip-rule="evenodd" d="M0.254883 8.17942H7.93983V0.494873H0.254883V8.17942Z" fill="white"/>
<path fill-rule="evenodd" clip-rule="evenodd" d="M47.8016 27.6395C50.8526 27.6395 51.972 26.7581 51.972 24.4864C51.972 22.1473 50.7849 21.2999 47.3946 21.2999H42.8177V27.6395H47.8016ZM47.2595 17.7059C50.2089 17.7059 51.26 16.9258 51.26 14.7227C51.26 12.5526 50.2089 11.7725 47.3946 11.7725H42.8177V17.7059H47.2595ZM38.6816 8.17896H47.7677C52.9888 8.17896 55.3622 10.0437 55.3622 14.1797C55.3622 16.7225 54.4466 18.3162 52.2769 19.0955V19.1633C54.9891 19.9772 56.108 21.7742 56.108 24.7913C56.108 29.2331 53.7346 31.2334 48.4797 31.2334H38.6816V8.17896Z" fill="white"/>
<mask id="mask0" mask-type="alpha" maskUnits="userSpaceOnUse" x="0" y="0" width="161" height="32">
<path d="M0.254883 31.64H160.999V0.494385H0.254883V31.64Z" fill="white"/>
</mask>
<g mask="url(#mask0)">
<path fill-rule="evenodd" clip-rule="evenodd" d="M59.8359 31.2334H63.972V8.17896H59.8359V31.2334Z" fill="white"/>
<path fill-rule="evenodd" clip-rule="evenodd" d="M72.9892 11.8745H66.5137V8.17896H83.6008V11.8745H77.1253V31.233H72.9892V11.8745Z" fill="white"/>
<path fill-rule="evenodd" clip-rule="evenodd" d="M86.1426 8.17896H101.332V11.8072H90.279V17.7737H99.6366V21.4015H90.279V31.2334H86.1426V8.17896Z" fill="white"/>
<path fill-rule="evenodd" clip-rule="evenodd" d="M103.806 23.5712V8.17896H107.942V23.4695C107.942 26.7916 109.129 28.0126 112.35 28.0126C115.57 28.0126 116.757 26.7916 116.757 23.4695V8.17896H120.757V23.5712C120.757 29.1989 118.248 31.64 112.282 31.64C106.348 31.64 103.806 29.1989 103.806 23.5712Z" fill="white"/>
<path fill-rule="evenodd" clip-rule="evenodd" d="M133.199 18.7228C136.115 18.7228 137.131 17.7394 137.131 15.2648C137.131 12.7559 136.115 11.8068 133.199 11.8068H128.588V18.7228H133.199ZM124.452 8.17896H133.606C139.064 8.17896 141.268 10.247 141.268 15.2648C141.268 19.0959 139.946 21.1978 136.861 21.9779L142.149 31.2334H137.403L132.385 22.3167H128.588V31.2334H124.452V8.17896Z" fill="white"/>
<path fill-rule="evenodd" clip-rule="evenodd" d="M153.201 21.4351V31.2332H149.064V21.5029L141.267 8.17871H146.013L151.302 17.333L156.557 8.17871H160.999L153.201 21.4351Z" fill="white"/>
</g>
</svg>
