<svg width="67" height="67" viewBox="0 0 67 67" fill="none" xmlns="http://www.w3.org/2000/svg">
<path fill-rule="evenodd" clip-rule="evenodd" d="M50.6353 4.72363C45.4607 1.6172 39.5355 -0.0161241 33.5001 0.000119993C27.1706 0.000119993 21.1679 1.77353 16.1261 4.86391C14.6186 5.79563 13.7643 6.53891 13.7643 7.49785C13.7643 10.3244 20.368 13.3604 32.0784 13.3604C43.6652 13.3604 52.6558 10.0334 52.6558 6.82995C52.6558 6.06572 51.9879 5.53182 50.6353 4.72363ZM55.6227 8.44632C55.7629 8.66407 55.832 8.90276 55.832 9.21892C55.832 12.9395 44.4462 19.5244 26.3185 19.5244C13.0022 19.5244 10.5086 14.5831 10.5086 11.4383C10.5086 10.314 10.9378 9.16448 11.8862 7.99826C11.9386 7.92707 11.8946 7.90195 11.8339 7.95429C10.1045 9.41992 8.5153 11.0698 7.11876 12.8537C6.45295 13.6954 6.03839 14.4407 6.03839 14.8888C6.03839 21.4025 22.3697 26.126 37.6331 26.126C53.9016 26.126 61.1627 20.8162 61.1627 16.1451C61.1627 14.4763 60.5137 13.5027 58.8533 11.6142C57.856 10.4832 56.7948 9.41013 55.675 8.40026C55.6227 8.35839 55.5871 8.39188 55.6227 8.44632ZM3.23066 19.1287C2.2466 21.0779 1.15785 24.3714 0.833314 26.0736C0.693033 26.8023 0.753751 27.1519 1.00919 27.6963C3.06316 32.0597 13.4586 39.0403 37.7043 39.0403C52.4967 39.0403 63.9893 35.4055 65.8507 28.7683C66.1919 27.5476 66.2087 26.2579 65.7711 24.518C65.2791 22.5792 64.3578 20.3137 63.5768 18.7246C63.5496 18.6722 63.5056 18.6827 63.514 18.7434C63.8051 27.443 39.5489 33.0521 27.3109 33.0521C14.0554 33.0521 2.99407 27.7675 2.99407 21.0968C2.99407 20.4561 3.12597 19.8133 3.29138 19.1475C3.31022 19.0847 3.25788 19.0763 3.22857 19.1287H3.23066ZM26.7666 46.9337C9.6208 46.9337 1.53682 38.9439 0.0711876 33.4918C0.0523438 33.4122 0 33.429 0 33.5002C0 35.3343 0.18425 37.7044 0.500407 39.2768C0.649064 40.0411 1.273 41.245 2.18588 42.1997C6.33779 46.5275 16.6893 52.5952 34.6139 52.5952C59.0376 52.5952 64.6216 44.4568 65.7627 41.7789C66.5793 39.8652 67.0001 36.4063 67.0001 33.5002C67.0001 32.7967 66.9834 32.2356 66.9562 31.6828C66.9562 31.5949 66.9038 31.5865 66.885 31.6744C65.6643 38.2237 44.798 46.9316 26.7666 46.9316V46.9337ZM35.7739 61.6716C44.017 61.6716 53.0767 59.425 58.4911 54.9716C59.9777 53.7614 61.391 52.1451 62.6535 49.978C63.3821 48.7301 64.094 47.2478 64.674 45.7905C64.7012 45.7214 64.6551 45.6858 64.6028 45.7633C59.5631 53.1836 44.9738 57.8087 29.9093 57.8087C19.2604 57.8087 7.80342 54.4021 3.3186 47.8968C3.27463 47.834 3.23066 47.8612 3.25579 47.9324C7.43492 56.8162 20.1105 61.6716 35.7739 61.6716ZM12.9561 59.9589C18.8309 64.5246 26.0597 67.0022 33.5001 67.0002C41.963 67.0002 49.6785 63.8575 55.5682 58.6964C55.6394 58.6336 55.6059 58.5917 55.5347 58.6336C52.8924 60.3986 45.3591 64.2532 33.5001 64.2532C23.1946 64.2532 16.6788 61.9501 13.0022 59.8982C12.931 59.8626 12.9059 59.915 12.9561 59.961" fill="white"/>
</svg>
