<svg width="189" height="52" viewBox="0 0 189 52" fill="none" xmlns="http://www.w3.org/2000/svg">
<path d="M74.4222 21.4886H73.5078C73.305 18.1101 72.0177 17.2135 68.8346 17.2135C67.5817 17.2135 65.5494 17.0412 65.5494 18.1443V34.4849C65.5494 37.0359 66.0237 38.0016 69.3082 38.139V38.9324C67.4459 38.8975 65.5494 38.8291 63.6864 38.7942C61.892 38.8291 60.1304 38.8975 58.3017 38.9324V38.139C61.5869 38.0009 62.0605 37.0359 62.0605 34.4849V18.1443C62.0605 17.1102 60.5704 17.2135 59.2161 17.2135C55.8637 17.2135 54.2378 17.3858 54.1028 21.4886H53.3242V16.1104H74.1171L74.4222 21.4886Z" fill="white"/>
<path d="M99.0425 29.7967C99.0425 36.0709 96.6381 39.3113 90.204 39.3113C84.1422 39.3113 81.1963 37.1391 81.1963 30.8999V22.6609C81.1963 21.5577 81.1963 19.0067 80.8577 18.0759C80.4176 16.9037 79.029 16.9037 77.9453 16.9037V16.1111C79.5369 16.1453 81.1627 16.2143 82.7542 16.2493C84.4815 16.2151 86.1745 16.146 87.9017 16.1111V16.9037C86.8181 16.9037 85.3959 16.8695 84.9894 18.0759C84.6851 19.0067 84.6851 21.5577 84.6851 22.6609V31.1413C84.6851 35.5539 86.3781 38.0707 91.0177 38.0707C95.6909 38.0707 98.0282 35.5888 98.0282 30.969V23.4193C98.0282 22.2129 98.0282 19.5579 97.6896 18.4897C97.2153 17.0419 95.8609 16.9037 94.5401 16.9037V16.1111C95.8609 16.1453 97.1474 16.2143 98.4682 16.2493C99.7212 16.2151 100.974 16.146 102.261 16.1111V16.9037C101.177 16.9379 99.9919 16.9037 99.5176 18.145C99.0433 19.3863 99.0433 22.0406 99.0433 23.4193V29.7967H99.0425Z" fill="white"/>
<path d="M108.221 22.7298C108.221 21.6267 108.221 19.0757 107.917 18.1449C107.544 16.9385 106.122 16.9727 105.038 16.9727V16.111C106.427 16.1451 107.883 16.2142 109.306 16.2491C111.134 16.215 112.963 16.1459 114.792 16.111C121.937 15.9728 127.355 20.5235 127.355 28.0049C127.355 35.3131 122.649 39.1054 115.672 38.933C113.674 38.8981 111.642 38.8298 109.644 38.7949C108.086 38.8298 106.562 38.8981 105.038 38.933V38.1397C106.122 38.1397 107.544 38.1397 107.917 36.9674C108.221 36.0366 108.221 33.4857 108.221 32.3825V22.7298ZM111.709 32.8646C111.709 34.0369 111.574 35.6912 112.251 36.6911C113.03 37.8633 114.757 38.0015 116.044 38.0015C121.97 38.0015 123.122 33.658 123.122 28.5553C123.122 21.7292 121.191 17.041 113.944 17.041C113.538 17.041 112.217 16.9719 111.912 17.2825C111.709 17.489 111.709 18.0758 111.709 18.3514V32.8646Z" fill="white"/>
<path d="M130.741 27.5904C130.741 20.7301 136.634 15.6965 143.17 15.6965C149.638 15.6965 155.327 20.5229 155.327 27.349C155.327 34.4165 149.875 39.3112 143.034 39.3112C136.431 39.312 130.741 34.5198 130.741 27.5904ZM134.974 27.5904C134.974 33.0029 137.074 38.3812 143.237 38.3812C149.265 38.3812 151.093 32.624 151.093 27.4872C151.093 22.3161 148.994 16.6273 143.034 16.6273C137.176 16.6273 134.974 22.4885 134.974 27.5904Z" fill="white"/>
<path d="M176.799 36.1058C177.882 37.3813 178.39 37.8642 180.118 38.1398V38.9331C179.102 38.8982 178.086 38.8299 177.07 38.795C176.223 38.8299 175.377 38.8982 174.529 38.9331L172.938 36.9334L167.316 29.8317C166.199 28.5213 166.334 28.3147 164.539 28.3147V32.3826C164.539 33.4858 164.539 36.0367 164.844 36.9675C165.249 38.1739 166.638 38.1398 167.722 38.1398V38.9331C166.164 38.8982 164.573 38.8299 162.948 38.795C161.255 38.8299 159.561 38.8982 157.868 38.9331V38.1398C158.952 38.1398 160.374 38.1398 160.747 36.9675C161.051 36.0367 161.051 33.4858 161.051 32.3826V22.6609C161.051 21.5577 161.051 19.0067 160.747 18.0759C160.374 16.8695 158.952 16.9037 157.868 16.9037V16.1111C159.798 16.1453 161.763 16.2143 163.693 16.2493C165.115 16.2151 166.572 16.146 167.994 16.1111C171.855 16.1111 175.749 17.0077 175.749 21.7991C175.749 25.5223 172.971 27.4181 169.619 27.7286L176.799 36.1058ZM164.539 27.3839C168.773 27.3839 171.854 27.2807 171.854 22.282C171.854 19.2482 170.161 17.111 167.113 17.111C166.707 17.111 165.217 17.0077 164.912 17.1451C164.472 17.3517 164.539 18.0069 164.539 18.3865V27.3839Z" fill="white"/>
<path d="M24.3662 9.12085C14.3674 9.12085 6.23242 17.4022 6.23242 27.5808C6.23242 37.7602 14.3674 46.0416 24.3662 46.0416C34.3657 46.0416 42.5 37.7602 42.5 27.5808C42.5007 17.4022 34.3657 9.12085 24.3662 9.12085ZM35.596 25.0715H34.9466C34.1088 21.3186 31.3847 18.2907 27.847 17.0642V37.966C31.3884 36.7388 34.1147 33.7057 34.9487 29.9476H35.596V38.9555H27.847V38.9577H20.7095V38.9555H13.1532V29.9468H13.7589C14.5813 33.6522 17.2411 36.6571 20.7095 37.917V17.1125C17.244 18.3716 14.5871 21.3713 13.761 25.0715H13.1532V16.1082H35.596V25.0715Z" fill="white"/>
<path d="M43.5242 9.05615C44.0839 9.05615 44.6283 9.16758 45.1566 9.39044C45.6857 9.6133 46.1491 9.92678 46.546 10.3316C46.9394 10.732 47.2429 11.2023 47.4582 11.7431C47.6735 12.2839 47.7807 12.8447 47.7807 13.4271C47.7807 13.9924 47.6684 14.5444 47.4429 15.083C47.2181 15.6215 46.8985 16.1014 46.4855 16.5226C46.0841 16.9312 45.6288 17.241 45.1201 17.4512C44.6115 17.6614 44.0635 17.7669 43.4753 17.7669C42.92 17.7669 42.3866 17.6584 41.8758 17.4415C41.365 17.2246 40.9052 16.9104 40.4951 16.4974C40.0857 16.0851 39.7734 15.6163 39.5589 15.0919C39.3436 14.5682 39.2363 14.0088 39.2363 13.4145C39.2363 12.8366 39.3436 12.2824 39.5589 11.7527C39.7741 11.2223 40.0821 10.7491 40.4834 10.3316C40.8811 9.92307 41.3431 9.60884 41.8699 9.38747C42.3968 9.16684 42.9485 9.05615 43.5242 9.05615ZM43.5242 9.56427C43.0295 9.56427 42.5515 9.66307 42.0888 9.86067C41.6269 10.0583 41.2168 10.3406 40.8607 10.7068C40.5039 11.073 40.2309 11.4898 40.0427 11.9578C39.8537 12.425 39.7595 12.9138 39.7595 13.4242C39.7595 13.9471 39.8537 14.4389 40.0427 14.9002C40.2309 15.3615 40.5075 15.7753 40.8724 16.1415C41.2292 16.5078 41.6313 16.7856 42.0794 16.975C42.5274 17.1644 43.0047 17.2588 43.5118 17.2588C44.0226 17.2588 44.5021 17.1644 44.9501 16.975C45.3982 16.7856 45.7988 16.5078 46.1512 16.1415C46.5081 15.7708 46.7817 15.3534 46.9722 14.8883C47.1627 14.4233 47.2582 13.9352 47.2582 13.4249C47.2582 12.9146 47.1619 12.4176 46.9693 11.9332C46.7766 11.4496 46.5081 11.0366 46.1637 10.6949C45.8148 10.3368 45.4084 10.059 44.9443 9.86141C44.4802 9.66307 44.0066 9.56427 43.5242 9.56427ZM41.2438 10.8516H43.6337C44.2299 10.8516 44.7013 10.9638 45.0472 11.1889C45.3945 11.414 45.5675 11.7163 45.5675 12.0959C45.5675 12.4094 45.4266 12.6657 45.145 12.8633C44.8633 13.0616 44.4225 13.2162 43.8227 13.3276C44.1999 13.4472 44.4875 13.6069 44.6859 13.8075C44.8844 14.008 45.0289 14.2829 45.1179 14.6335C45.142 14.7242 45.1647 14.8542 45.1851 15.0235C45.2376 15.3868 45.3573 15.568 45.5441 15.568C45.674 15.568 45.774 15.4982 45.8455 15.3578C45.9163 15.2174 45.952 15.0131 45.952 14.745H46.2133V14.8192C46.2133 15.1825 46.1308 15.4581 45.9674 15.646C45.8032 15.834 45.5609 15.9276 45.2405 15.9276C45.0545 15.9276 44.8954 15.8927 44.7633 15.8221C44.6312 15.7523 44.5327 15.6512 44.4685 15.519C44.3955 15.3541 44.3532 15.1201 44.3408 14.8163C44.3284 14.5132 44.3101 14.3156 44.2861 14.225C44.2051 13.9442 44.062 13.7369 43.857 13.6024C43.6527 13.4687 43.3761 13.4011 43.0273 13.4011H42.8266V14.9366C42.8266 15.1595 42.8806 15.3155 42.9879 15.4039C43.0951 15.493 43.2951 15.545 43.587 15.5614V15.8087H41.2438V15.5628C41.5357 15.5502 41.7371 15.4997 41.8488 15.4113C41.9604 15.3229 42.0159 15.1647 42.0159 14.9381V11.7438C42.0159 11.5172 41.9633 11.3598 41.8575 11.2736C41.7517 11.1867 41.5474 11.1354 41.2431 11.1191V10.8516H41.2438ZM42.8251 13.1604C42.8901 13.1649 42.955 13.1679 43.02 13.1694C43.0849 13.1716 43.1535 13.1723 43.2265 13.1723C43.6804 13.1723 44.0321 13.0787 44.2817 12.8908C44.5312 12.7028 44.656 12.4376 44.656 12.0952C44.656 11.7943 44.5488 11.5514 44.3335 11.3679C44.1182 11.1844 43.8285 11.0923 43.4637 11.0923C43.2528 11.0923 43.0937 11.1302 42.9864 11.2067C42.8784 11.2832 42.8251 11.3932 42.8251 11.538V13.1604Z" fill="white"/>
</svg>
