<svg width="137" height="17" viewBox="0 0 137 17" fill="none" xmlns="http://www.w3.org/2000/svg">
<path fill-rule="evenodd" clip-rule="evenodd" d="M136.03 12.7124C135.948 13.4731 135.794 14.2237 135.573 14.9564C135.545 15.0428 135.491 15.1179 135.417 15.1695C135.249 15.2705 130.03 15.4725 129.383 15.4276V13.9578V8.79654C129.885 8.79654 130.499 8.72922 131.302 8.72922C131.742 8.74269 132.182 8.78083 132.618 8.84142C132.703 8.90426 132.761 8.99514 132.785 9.09948C132.847 9.31154 132.89 9.52921 132.908 9.75025H133.922V7.60721L133.978 6.48521H132.963C132.943 6.70512 132.903 6.92391 132.842 7.13597C132.816 7.23583 132.757 7.32335 132.673 7.38281C132.119 7.45911 131.56 7.4995 131.001 7.50623H129.307V4.98172C129.293 3.8238 129.349 2.66589 129.473 1.51471C130.209 1.51471 134.826 1.68301 134.938 1.76155C135.007 1.82214 135.055 1.90517 135.072 1.99717C135.158 2.57613 135.196 3.16182 135.183 3.74751H136.119L136.576 0H123.863V1.02103C124.447 1.01991 125.029 1.09508 125.593 1.24543C125.672 1.28021 125.736 1.34417 125.77 1.42495C125.902 1.968 125.959 2.52676 125.938 3.08552V5.44174V10.8723C125.938 11.5006 125.938 12.4992 125.837 13.8905C125.825 14.438 125.784 14.9844 125.715 15.5286C125.369 15.8001 124.994 16.0324 124.599 16.2242V16.875H136.576L137 12.6899L136.03 12.7124Z" fill="white"/>
<path fill-rule="evenodd" clip-rule="evenodd" d="M28.806 4.17964L31.3145 10.3709H28.9041H26.4065L28.806 4.17964ZM26.6356 15.8804C26.0684 15.9061 25.5002 15.8334 24.956 15.668C24.8251 15.5753 24.7542 15.4166 24.7705 15.2546C24.8971 14.5438 25.1021 13.8509 25.3813 13.1871L25.9048 11.7454H31.9253L32.9287 14.394C33.0759 14.7025 33.1675 15.0355 33.2013 15.3775C33.209 15.5172 33.1359 15.6479 33.0159 15.7127C32.4924 15.8312 31.9591 15.8871 31.4236 15.8804V16.875H38.7855V15.8804L38.2729 15.8133C38.0417 15.8111 37.8116 15.7843 37.5858 15.7351C37.4974 15.7027 37.4167 15.6524 37.3458 15.5898C37.2586 15.4971 37.1855 15.3909 37.1277 15.2769L36.6587 14.1594L35.928 12.5166L30.6601 0H29.0023L27.9662 2.71565L24.9123 10.4491C24.3343 11.9131 23.9416 12.8965 23.7344 13.3882C23.2872 14.4499 23.0255 15.0646 22.9382 15.221C22.8652 15.3574 22.7735 15.4814 22.6656 15.5898C22.574 15.6636 22.4703 15.7206 22.3602 15.7575C21.9992 15.8212 21.6349 15.8625 21.2695 15.8804V16.875H26.7228L26.6356 15.8804Z" fill="white"/>
<path fill-rule="evenodd" clip-rule="evenodd" d="M68.9762 15.3881C68.963 15.4363 68.9411 15.4823 68.9104 15.5226C68.8215 15.6235 68.713 15.7031 68.5924 15.758C68.316 15.9317 68.0309 16.0886 67.737 16.2287V16.8451C67.737 16.8451 79.3717 16.9124 79.602 16.8451L80.0735 12.4517H79.0866C78.944 13.2362 78.7905 13.9311 78.626 14.5475C78.5953 14.7112 78.5284 14.8647 78.4286 14.9958C78.3628 14.9958 72.5181 15.2872 72.5181 15.2872V13.2362V9.87395V6.38837V3.02607C72.5159 2.52621 72.5521 2.02859 72.6278 1.53545C72.6541 1.43346 72.7221 1.34828 72.8142 1.30009C73.3471 1.13309 73.902 1.05352 74.459 1.06473V0H66.9365V1.12077C67.5451 1.08714 68.1537 1.16672 68.7349 1.35613C68.8237 1.39872 68.8884 1.48165 68.9104 1.58028C69.0354 2.41861 69.0869 3.26591 69.0639 4.11321V8.80922V13.2923C69.0639 14.57 68.9762 15.1864 68.9762 15.3881Z" fill="white"/>
<path fill-rule="evenodd" clip-rule="evenodd" d="M116.081 14.525C116.042 14.6851 115.975 14.8361 115.885 14.9726C115.82 14.9726 111.077 15.3195 109.998 15.2636V13.2158V9.85867V6.37848V3.02139C109.995 2.5223 110.031 2.02545 110.107 1.53307C110.138 1.43348 110.204 1.34955 110.292 1.29808C110.817 1.14253 111.361 1.06979 111.906 1.08546V0H104.471V1.11903C105.076 1.06868 105.685 1.1291 106.27 1.29808C106.356 1.34396 106.419 1.42565 106.444 1.52188C106.569 2.37794 106.631 3.24184 106.629 4.10685V8.79559V13.2717C106.629 14.5474 106.553 15.2188 106.52 15.4203C106.525 15.465 106.525 15.5098 106.52 15.5545C106.429 15.6519 106.323 15.7313 106.204 15.7895C105.927 15.9641 105.639 16.1208 105.343 16.2595V16.875H117.15L117.608 12.4884H116.637C116.408 13.2158 116.256 13.9096 116.081 14.525Z" fill="white"/>
<path fill-rule="evenodd" clip-rule="evenodd" d="M99.466 0H96.6033L92.439 7.86975L87.6991 0H83.2012V1.02307H84.0088C84.3801 1.02757 84.7248 1.22206 84.9259 1.54022L89.5884 9.08394C89.8094 9.42572 89.963 9.80684 90.0414 10.2082V12.4567C90.0414 13.0975 90.0414 13.8845 89.974 14.7951C89.9862 15.0458 89.9409 15.2954 89.8426 15.5259C89.7575 15.6192 89.6448 15.6822 89.5222 15.7058C88.9973 15.7732 88.4703 15.807 87.9411 15.807V16.875H95.6752V15.807C95.1515 15.8182 94.6267 15.789 94.1063 15.717C93.9704 15.6844 93.8466 15.6102 93.7538 15.5034C93.6422 15.2325 93.5826 14.9424 93.577 14.649C93.5107 13.9014 93.4853 13.1504 93.4997 12.4005V10.4443C93.4898 10.143 93.5119 9.84169 93.5649 9.54489C93.6146 9.24359 93.6997 8.94791 93.8201 8.66797C94.0853 8.16206 94.7703 7.02657 95.8752 5.29522C96.8585 3.72127 97.9733 1.45028 98.6142 1.20295C98.8904 1.11526 99.1765 1.07366 99.466 1.07928V0Z" fill="white"/>
<path fill-rule="evenodd" clip-rule="evenodd" d="M53.6538 7.6333C53.2044 7.79929 52.7295 7.87892 52.2514 7.86882H50.5068C50.5068 7.09494 50.5068 5.62569 50.573 3.38256C50.573 2.36193 50.6283 1.71143 50.6503 1.43103C51.0147 1.36486 51.3846 1.33122 51.7545 1.33009C52.353 1.29869 52.9515 1.35925 53.5323 1.50954C54.059 1.70806 54.5106 2.06921 54.8242 2.54139C55.1897 3.08086 55.3719 3.72688 55.3432 4.38075C55.362 5.08061 55.1985 5.77374 54.8684 6.38836C54.5923 6.90091 54.1683 7.31589 53.6538 7.57722V7.6333ZM60.1685 15.4843C60.036 15.3497 59.6716 14.8674 59.0643 14.0711C59.0202 14.0184 58.7552 13.6146 58.2693 12.8598L56.4474 10.0559L56.3149 9.83156C56.3149 9.74184 56.1161 9.51753 55.8622 9.13619C55.6082 8.75486 55.3874 8.39596 55.1886 8.01463C56.2619 7.67031 57.2148 7.01643 57.927 6.1304C58.5288 5.38231 58.8634 4.44917 58.8766 3.4835C58.8921 2.73766 58.6624 2.00752 58.2251 1.4086C57.832 0.872495 57.2777 0.478825 56.6461 0.287037C55.7164 0.0672105 54.7624 -0.027001 53.8083 0.00664597H45.0852V0.993624C45.6781 0.995867 46.2689 1.07886 46.8409 1.24037C46.9215 1.28411 46.9833 1.35589 47.0175 1.44225C47.1368 2.03668 47.1854 2.64233 47.1611 3.24797V5.79393V10.2802L47.0727 13.8019C47.0628 14.2786 47.0231 14.7552 46.9513 15.2263C46.9447 15.3452 46.9115 15.4607 46.8519 15.5628C46.7989 15.6278 46.7238 15.6716 46.6421 15.6861C46.1132 15.7781 45.5777 15.8196 45.041 15.8095V16.875H52.5716V15.8095C52.1145 15.8162 51.6563 15.7938 51.2024 15.7422C51.0788 15.7209 50.9595 15.6794 50.8491 15.6188C50.7862 15.5706 50.7332 15.5089 50.6945 15.4394C50.6139 15.1556 50.573 14.8607 50.573 14.5646C50.573 14.3403 50.573 13.443 50.4958 11.7382V8.73243H51.4012C51.6739 8.73131 51.929 8.86477 52.0858 9.09133C52.5164 9.71941 53.4108 11.0316 53.9519 11.9401L56.4805 16.1908C56.6097 16.4028 56.7069 16.6339 56.7676 16.875H61.3059V15.8768C61.0519 15.8847 60.7979 15.851 60.555 15.7759C60.4092 15.7041 60.2778 15.6054 60.1685 15.4843Z" fill="white"/>
<path fill-rule="evenodd" clip-rule="evenodd" d="M2.4886 14.4589C3.23171 15.1589 4.1051 15.7156 5.06132 16.0957C6.46803 16.6308 7.9686 16.8946 9.478 16.871C10.4695 16.8968 11.46 16.7988 12.4261 16.5802C13.4994 16.269 14.502 15.7651 15.3853 15.0942V14.1251C14.6389 14.5139 13.8505 14.8207 13.0334 15.0404C12.2859 15.2159 11.5174 15.3031 10.7478 15.2988C9.69 15.3214 8.63772 15.1341 7.65612 14.7497C6.95497 14.4202 6.31897 13.9722 5.77903 13.4252C5.11763 12.7738 4.60529 11.9909 4.27736 11.1316C3.88538 10.099 3.69325 9.00282 3.71423 7.90127C3.58062 6.15255 4.16031 4.42215 5.32632 3.088C6.48238 1.92937 8.08674 1.30375 9.743 1.36513C10.6043 1.33606 11.4633 1.47173 12.2715 1.76354C12.9473 2.04028 13.5568 2.45054 14.0603 2.96955C14.1266 3.48641 14.1597 4.16479 14.1818 5.00469H15.1093L15.6393 1.1067C15.6393 1.1067 13.4309 0.406785 12.6028 0.256034C11.6698 0.0955922 10.7235 0.0159095 9.77612 0.0191399C7.15372 -0.139149 4.56886 0.688905 2.55485 2.33425C0.859948 3.86006 -0.0708676 6.0298 0.00421602 8.27814C-0.00792986 9.64136 0.285779 10.9895 0.865469 12.23C1.27401 13.0569 1.82278 13.8107 2.4886 14.4589Z" fill="white"/>
</svg>
