<svg width="17" height="32" viewBox="0 0 17 32" fill="none" xmlns="http://www.w3.org/2000/svg">
<path d="M1.94 7.942L1.55765 7.01798L0.651343 7.39301L1.00876 8.3064L1.94 7.942ZM4.46 6.808L4.8956 7.70823L4.90721 7.70243L4.46 6.808ZM7.064 5.38L7.5785 6.23749L7.58885 6.23128L7.59905 6.22482L7.064 5.38ZM9.458 3.742L10.0532 4.54557L10.058 4.542L9.458 3.742ZM11.558 1.894V0.893999H11.1307L10.8354 1.20278L11.558 1.894ZM15.926 1.894H16.926V0.893999H15.926V1.894ZM15.926 31V32H16.926V31H15.926ZM9.668 31H8.668V32H9.668V31ZM9.668 10.042H10.668V8.17348L9.1133 9.20995L9.668 10.042ZM6.854 11.596L7.25091 12.5139L7.26126 12.5094L7.2715 12.5047L6.854 11.596ZM3.83 12.772L2.89876 13.1364L3.24792 14.0287L4.15432 13.7179L3.83 12.772ZM2.32235 8.86602C3.15395 8.52191 4.01172 8.13582 4.89556 7.70816L4.02444 5.90784C3.17228 6.32018 2.35005 6.69009 1.55765 7.01798L2.32235 8.86602ZM4.90721 7.70243C5.82559 7.24324 6.71606 6.75495 7.5785 6.23749L6.5495 4.52251C5.73194 5.01305 4.88641 5.47676 4.01279 5.91357L4.90721 7.70243ZM7.59905 6.22482C8.45845 5.68053 9.27661 5.12083 10.0532 4.54555L8.86277 2.93844C8.12739 3.48317 7.34955 4.01547 6.52895 4.53518L7.59905 6.22482ZM10.058 4.542C10.8815 3.92437 11.6233 3.27246 12.2806 2.58522L10.8354 1.20278C10.2607 1.80354 9.60249 2.38363 8.858 2.942L10.058 4.542ZM11.558 2.894H15.926V0.893999H11.558V2.894ZM14.926 1.894V31H16.926V1.894H14.926ZM15.926 30H9.668V32H15.926V30ZM10.668 31V10.042H8.668V31H10.668ZM9.1133 9.20995C8.32212 9.7374 7.43082 10.2305 6.4365 10.6873L7.2715 12.5047C8.34918 12.0095 9.33388 11.4666 10.2227 10.8741L9.1133 9.20995ZM6.45709 10.6781C5.44282 11.1167 4.45906 11.4992 3.50568 11.8261L4.15432 13.7179C5.16094 13.3728 6.19318 12.9713 7.25091 12.5139L6.45709 10.6781ZM4.76124 12.4076L2.87124 7.5776L1.00876 8.3064L2.89876 13.1364L4.76124 12.4076Z" fill="#019BE0"/>
</svg>
