<svg width="2451" height="134" viewBox="0 0 2451 134" fill="none" xmlns="http://www.w3.org/2000/svg">
<g filter="url(#filter0_d)">
<path d="M102.98 4.19H103.98V3.19H102.98V4.19ZM102.98 26.8V27.8H103.98V26.8H102.98ZM67.45 26.8V25.8H66.45V26.8H67.45ZM67.45 122V123H68.45V122H67.45ZM40.93 122H39.93V123H40.93V122ZM40.93 26.8H41.93V25.8H40.93V26.8ZM5.4 26.8H4.4V27.8H5.4V26.8ZM5.4 4.19V3.19H4.4V4.19H5.4ZM101.98 4.19V26.8H103.98V4.19H101.98ZM102.98 25.8H67.45V27.8H102.98V25.8ZM66.45 26.8V122H68.45V26.8H66.45ZM67.45 121H40.93V123H67.45V121ZM41.93 122V26.8H39.93V122H41.93ZM40.93 25.8H5.4V27.8H40.93V25.8ZM6.4 26.8V4.19H4.4V26.8H6.4ZM5.4 5.19H102.98V3.19H5.4V5.19ZM120.024 122H119.024V123H120.024V122ZM120.024 4.19V3.19H119.024V4.19H120.024ZM199.584 4.19H200.584V3.19H199.584V4.19ZM199.584 26.46V27.46H200.584V26.46H199.584ZM146.544 26.46V25.46H145.544V26.46H146.544ZM146.544 49.58H145.544V50.58H146.544V49.58ZM193.634 49.58H194.634V48.58H193.634V49.58ZM193.634 71.34V72.34H194.634V71.34H193.634ZM146.544 71.34V70.34H145.544V71.34H146.544ZM146.544 99.73H145.544V100.73H146.544V99.73ZM203.494 99.73H204.494V98.73H203.494V99.73ZM203.494 122V123H204.494V122H203.494ZM121.024 122V4.19H119.024V122H121.024ZM120.024 5.19H199.584V3.19H120.024V5.19ZM198.584 4.19V26.46H200.584V4.19H198.584ZM199.584 25.46H146.544V27.46H199.584V25.46ZM145.544 26.46V49.58H147.544V26.46H145.544ZM146.544 50.58H193.634V48.58H146.544V50.58ZM192.634 49.58V71.34H194.634V49.58H192.634ZM193.634 70.34H146.544V72.34H193.634V70.34ZM145.544 71.34V99.73H147.544V71.34H145.544ZM146.544 100.73H203.494V98.73H146.544V100.73ZM202.494 99.73V122H204.494V99.73H202.494ZM203.494 121H120.024V123H203.494V121ZM232.98 108.4L232.249 109.083L232.253 109.088L232.98 108.4ZM222.61 37L223.537 37.3738L223.539 37.369L222.61 37ZM235.19 17.62L235.889 18.3347L235.897 18.3271L235.19 17.62ZM254.23 5.54999L253.883 4.61189L254.23 5.54999ZM291.8 2.66L291.609 3.64161L291.622 3.64418L291.635 3.64639L291.8 2.66ZM302.51 5.21L302.193 6.15868L302.209 6.16401L302.225 6.16879L302.51 5.21ZM314.58 10.48L315.521 10.8163L315.792 10.0585L315.11 9.632L314.58 10.48ZM306.93 31.9L306.46 32.7831L307.482 33.3259L307.871 32.2363L306.93 31.9ZM294.18 26.97L293.905 27.9315L293.911 27.9332L294.18 26.97ZM265.79 26.97L265.465 26.024L265.457 26.027L265.79 26.97ZM255.42 33.6L254.712 32.8929L255.42 33.6ZM247.26 77.8L246.287 78.0316L246.29 78.0454L246.294 78.0591L247.26 77.8ZM253.04 89.87L252.246 90.4784L252.252 90.4866L252.259 90.4947L253.04 89.87ZM263.58 98.03L263.151 98.9337L263.161 98.9384L263.171 98.9428L263.58 98.03ZM289.59 100.24L289.443 99.2508L289.59 100.24ZM297.75 98.71L297.981 99.6828L298.003 99.6776L298.024 99.6715L297.75 98.71ZM304.04 96.5L304.44 97.4162L304.04 96.5ZM308.97 94.29L309.915 93.9647L309.555 92.9183L308.55 93.382L308.97 94.29ZM316.28 115.54L316.798 116.395L317.487 115.977L317.225 115.215L316.28 115.54ZM300.47 121.66L300.727 122.626L300.47 121.66ZM276.84 123.38C257.873 123.38 243.55 118.11 233.706 107.712L232.253 109.088C242.582 119.996 257.5 125.38 276.84 125.38V123.38ZM233.71 107.717C223.962 97.3046 219.02 82.4518 219.02 63.01H217.02C217.02 82.7815 222.05 98.1887 232.25 109.083L233.71 107.717ZM219.02 63.01C219.02 53.3675 220.533 44.828 223.537 37.3738L221.682 36.6262C218.566 44.3587 217.02 53.1591 217.02 63.01H219.02ZM223.539 37.369C226.553 29.7777 230.673 23.4397 235.889 18.3347L234.49 16.9053C229.053 22.227 224.786 28.809 221.68 36.631L223.539 37.369ZM235.897 18.3271C241.117 13.1069 247.339 9.16023 254.576 6.48809L253.883 4.61189C246.387 7.37976 239.916 11.4797 234.482 16.9129L235.897 18.3271ZM254.576 6.48809C261.821 3.81282 269.693 2.46999 278.2 2.46999V0.46999C269.479 0.46999 261.371 1.84717 253.883 4.61189L254.576 6.48809ZM278.2 2.46999C283.134 2.46999 287.603 2.86264 291.609 3.64161L291.99 1.67838C287.837 0.870682 283.238 0.46999 278.2 0.46999V2.46999ZM291.635 3.64639C295.677 4.32007 299.194 5.15904 302.193 6.15868L302.826 4.26131C299.705 3.22094 296.082 2.35992 291.964 1.6736L291.635 3.64639ZM302.225 6.16879C305.25 7.06485 307.741 8.00866 309.712 8.99442L310.607 7.20557C308.498 6.15134 305.889 5.16847 302.794 4.2512L302.225 6.16879ZM309.712 8.99442C311.748 10.0124 313.186 10.7881 314.05 11.328L315.11 9.632C314.16 9.0386 312.651 8.22762 310.607 7.20557L309.712 8.99442ZM313.638 10.1437L305.988 31.5637L307.871 32.2363L315.521 10.8163L313.638 10.1437ZM307.399 31.0169C303.696 29.0496 299.376 27.3819 294.448 26.0068L293.911 27.9332C298.73 29.2781 302.91 30.897 306.46 32.7831L307.399 31.0169ZM294.454 26.0085C289.587 24.6178 284.051 23.93 277.86 23.93V25.93C283.908 25.93 289.252 26.6022 293.905 27.9315L294.454 26.0085ZM277.86 23.93C273.666 23.93 269.533 24.6293 265.465 26.0241L266.114 27.9159C269.979 26.5907 273.893 25.93 277.86 25.93V23.93ZM265.457 26.027C261.454 27.4396 257.872 29.7337 254.712 32.8929L256.127 34.3071C259.087 31.3463 262.418 29.2204 266.122 27.913L265.457 26.027ZM254.712 32.8929C251.646 35.9588 249.198 39.9409 247.345 44.804L249.214 45.516C250.988 40.8591 253.299 37.1345 256.127 34.3071L254.712 32.8929ZM247.345 44.804C245.477 49.7087 244.56 55.6167 244.56 62.5H246.56C246.56 55.7833 247.456 50.1313 249.214 45.516L247.345 44.804ZM244.56 62.5C244.56 68.0094 245.133 73.1878 246.287 78.0316L248.232 77.5684C247.119 72.8922 246.56 67.8706 246.56 62.5H244.56ZM246.294 78.0591C247.57 82.8169 249.55 86.9624 252.246 90.4784L253.833 89.2616C251.315 85.9776 249.442 82.0765 248.225 77.5409L246.294 78.0591ZM252.259 90.4947C255.082 94.0242 258.721 96.835 263.151 98.9337L264.008 97.1263C259.825 95.1451 256.437 92.5158 253.82 89.2453L252.259 90.4947ZM263.171 98.9428C267.638 100.941 272.999 101.92 279.22 101.92V99.92C273.2 99.92 268.134 98.972 263.988 97.1172L263.171 98.9428ZM279.22 101.92C283.111 101.92 286.617 101.691 289.736 101.229L289.443 99.2508C286.442 99.6954 283.035 99.92 279.22 99.92V101.92ZM289.736 101.229C292.818 100.773 295.567 100.258 297.981 99.6828L297.518 97.7372C295.172 98.2957 292.481 98.8006 289.443 99.2508L289.736 101.229ZM298.024 99.6715C300.437 98.9821 302.577 98.2312 304.44 97.4162L303.639 95.5838C301.875 96.3555 299.822 97.0779 297.475 97.7485L298.024 99.6715ZM304.44 97.4162C306.259 96.6207 307.908 95.8813 309.389 95.198L308.55 93.382C307.084 94.0587 305.447 94.7926 303.639 95.5838L304.44 97.4162ZM308.024 94.6153L315.334 115.865L317.225 115.215L309.915 93.9647L308.024 94.6153ZM315.761 114.685C312.136 116.882 306.969 118.892 300.212 120.694L300.727 122.626C307.57 120.801 312.943 118.732 316.798 116.395L315.761 114.685ZM300.212 120.694C293.515 122.48 285.728 123.38 276.84 123.38V125.38C285.857 125.38 293.824 124.467 300.727 122.626L300.212 120.694ZM404.414 4.19V3.19H403.414V4.19H404.414ZM430.934 4.19H431.934V3.19H430.934V4.19ZM430.934 122V123H431.934V122H430.934ZM404.414 122H403.414V123H404.414V122ZM404.414 72.02H405.414V71.02H404.414V72.02ZM359.874 72.02V71.02H358.874V72.02H359.874ZM359.874 122V123H360.874V122H359.874ZM333.354 122H332.354V123H333.354V122ZM333.354 4.19V3.19H332.354V4.19H333.354ZM359.874 4.19H360.874V3.19H359.874V4.19ZM359.874 49.24H358.874V50.24H359.874V49.24ZM404.414 49.24V50.24H405.414V49.24H404.414ZM404.414 5.19H430.934V3.19H404.414V5.19ZM429.934 4.19V122H431.934V4.19H429.934ZM430.934 121H404.414V123H430.934V121ZM405.414 122V72.02H403.414V122H405.414ZM404.414 71.02H359.874V73.02H404.414V71.02ZM358.874 72.02V122H360.874V72.02H358.874ZM359.874 121H333.354V123H359.874V121ZM334.354 122V4.19H332.354V122H334.354ZM333.354 5.19H359.874V3.19H333.354V5.19ZM358.874 4.19V49.24H360.874V4.19H358.874ZM359.874 50.24H404.414V48.24H359.874V50.24ZM405.414 49.24V4.19H403.414V49.24H405.414ZM537.248 122L536.376 122.491L536.663 123H537.248V122ZM512.598 82.05L511.768 82.608L512.598 82.05ZM484.378 44.82L485.138 44.1704L483.378 42.1101V44.82H484.378ZM484.378 122V123H485.378V122H484.378ZM458.198 122H457.198V123H458.198V122ZM458.198 4.19V3.19H457.198V4.19H458.198ZM479.788 4.19L480.495 3.48289L480.202 3.19H479.788V4.19ZM492.198 17.96L492.966 17.3198L492.198 17.96ZM505.968 35.47L505.166 36.0677L505.172 36.0759L505.178 36.0839L505.968 35.47ZM520.078 54.68L519.256 55.2507L519.261 55.2572L520.078 54.68ZM533.168 73.72L532.336 74.2747L534.168 77.0228V73.72H533.168ZM533.168 4.19V3.19H532.168V4.19H533.168ZM559.518 4.19H560.518V3.19H559.518V4.19ZM559.518 122V123H560.518V122H559.518ZM538.119 121.509C530.512 107.999 522.282 94.6601 513.427 81.492L511.768 82.608C520.593 95.7333 528.796 109.027 536.376 122.491L538.119 121.509ZM513.427 81.492C504.567 68.3145 495.137 55.8738 485.138 44.1704L483.617 45.4696C493.565 57.1128 502.949 69.4922 511.768 82.608L513.427 81.492ZM483.378 44.82V122H485.378V44.82H483.378ZM484.378 121H458.198V123H484.378V121ZM459.198 122V4.19H457.198V122H459.198ZM458.198 5.19H479.788V3.19H458.198V5.19ZM479.081 4.8971C482.793 8.60998 486.909 13.1762 491.429 18.6002L492.966 17.3198C488.419 11.8638 484.262 7.25002 480.495 3.48289L479.081 4.8971ZM491.429 18.6002C495.95 24.025 500.529 29.8474 505.166 36.0677L506.769 34.8723C502.113 28.6259 497.512 22.7749 492.966 17.3198L491.429 18.6002ZM505.178 36.0839C509.927 42.1891 514.62 48.578 519.256 55.2506L520.899 54.1093C516.242 47.4087 511.529 40.9909 506.757 34.8561L505.178 36.0839ZM519.261 55.2572C523.903 61.8238 528.261 68.1629 532.336 74.2747L534 73.1653C529.914 67.037 525.546 60.6828 520.894 54.1028L519.261 55.2572ZM534.168 73.72V4.19H532.168V73.72H534.168ZM533.168 5.19H559.518V3.19H533.168V5.19ZM558.518 4.19V122H560.518V4.19H558.518ZM559.518 121H537.248V123H559.518V121ZM611.004 78.65L610.044 78.9309L610.047 78.9416L610.051 78.9522L611.004 78.65ZM617.124 90.72L616.33 91.3284L616.341 91.3432L616.353 91.3576L617.124 90.72ZM626.984 98.37L627.41 97.4652L626.984 98.37ZM653.334 98.37L652.918 97.4605L652.908 97.4652L653.334 98.37ZM663.194 90.72L662.413 90.0953L662.41 90.0986L663.194 90.72ZM669.314 78.65L668.361 78.3477L668.357 78.3584L668.354 78.3691L669.314 78.65ZM669.314 47.37L668.352 47.6447L668.356 47.6585L668.361 47.6722L669.314 47.37ZM663.194 35.3L662.4 35.9084L662.411 35.9232L662.423 35.9376L663.194 35.3ZM653.334 27.48L652.908 28.3849L652.918 28.3895L653.334 27.48ZM626.984 27.65L627.41 28.5548L627.42 28.5498L627.431 28.5444L626.984 27.65ZM617.124 35.47L616.343 34.8453L616.34 34.8486L617.124 35.47ZM611.004 47.54L610.048 47.2443L610.046 47.2517L610.044 47.2591L611.004 47.54ZM694.304 89.7L693.374 89.3309L693.372 89.3382L694.304 89.7ZM682.064 108.91L682.763 109.625L682.771 109.617L682.064 108.91ZM663.364 120.47L663.026 119.529L663.021 119.531L663.364 120.47ZM598.764 108.91L598.064 109.625L598.072 109.632L598.764 108.91ZM586.184 89.7L585.254 90.069L585.256 90.0738L586.184 89.7ZM586.354 36.49L587.276 36.8756L587.278 36.8707L586.354 36.49ZM599.104 17.11L598.412 16.388L598.404 16.3953L599.104 17.11ZM617.804 5.37999L617.461 4.44062L617.456 4.44242L617.804 5.37999ZM663.024 5.37999L663.367 4.44064L663.024 5.37999ZM681.724 17.11L682.423 16.3953L681.724 17.11ZM694.304 36.49L693.374 36.859L693.376 36.8638L694.304 36.49ZM607.964 63.01C607.964 68.8673 608.653 74.1773 610.044 78.9309L611.964 78.3691C610.635 73.8293 609.964 68.7127 609.964 63.01H607.964ZM610.051 78.9522C611.554 83.6944 613.644 87.8246 616.33 91.3284L617.917 90.1116C615.39 86.8153 613.4 82.8989 611.957 78.3478L610.051 78.9522ZM616.353 91.3576C619.167 94.7574 622.571 97.3987 626.558 99.2748L627.41 97.4652C623.69 95.7146 620.521 93.256 617.894 90.0824L616.353 91.3576ZM626.558 99.2748C630.565 101.161 635.135 102.09 640.244 102.09V100.09C635.379 100.09 631.109 99.206 627.41 97.4652L626.558 99.2748ZM640.244 102.09C645.243 102.09 649.755 101.159 653.76 99.2748L652.908 97.4652C649.206 99.2074 644.991 100.09 640.244 100.09V102.09ZM653.75 99.2795C657.854 97.4032 661.268 94.7567 663.977 91.3414L662.41 90.0986C659.906 93.2566 656.747 95.7101 652.918 97.4605L653.75 99.2795ZM663.975 91.3447C666.785 87.832 668.881 83.6887 670.273 78.9309L668.354 78.3691C667.027 82.9046 665.043 86.808 662.413 90.0953L663.975 91.3447ZM670.267 78.9522C671.776 74.1916 672.524 68.8741 672.524 63.01H670.524C670.524 68.7059 669.798 73.815 668.361 78.3477L670.267 78.9522ZM672.524 63.01C672.524 57.1459 671.776 51.8284 670.267 47.0678L668.361 47.6722C669.798 52.205 670.524 57.3141 670.524 63.01H672.524ZM670.275 47.0953C668.883 42.2235 666.785 38.0713 663.964 34.6624L662.423 35.9376C665.042 39.1021 667.024 42.9964 668.352 47.6447L670.275 47.0953ZM663.987 34.6916C661.279 31.1594 657.862 28.4505 653.75 26.5705L652.918 28.3895C656.739 30.1361 659.895 32.6406 662.4 35.9084L663.987 34.6916ZM653.76 26.5752C649.755 24.6907 645.243 23.76 640.244 23.76V25.76C644.991 25.76 649.206 26.6426 652.908 28.3848L653.76 26.5752ZM640.244 23.76C635.126 23.76 630.549 24.7493 626.537 26.7556L627.431 28.5444C631.125 26.6974 635.388 25.76 640.244 25.76V23.76ZM626.558 26.7452C622.563 28.625 619.156 31.3288 616.343 34.8453L617.905 36.0947C620.531 32.8112 623.698 30.3016 627.41 28.5548L626.558 26.7452ZM616.34 34.8486C613.644 38.2486 611.552 42.3878 610.048 47.2443L611.959 47.8357C613.402 43.1722 615.391 39.2647 617.907 36.0914L616.34 34.8486ZM610.044 47.2591C608.653 52.011 607.964 57.264 607.964 63.01H609.964C609.964 57.4226 610.634 52.3623 611.964 47.8209L610.044 47.2591ZM697.894 63.01C697.894 72.9969 696.379 81.7642 693.374 89.331L695.233 90.069C698.349 82.2225 699.894 73.1964 699.894 63.01H697.894ZM693.372 89.3382C690.47 96.8157 686.462 103.098 681.357 108.203L682.771 109.617C688.092 104.296 692.244 97.771 695.236 90.0618L693.372 89.3382ZM681.364 108.195C676.26 113.189 670.151 116.968 663.026 119.529L663.702 121.411C671.083 118.759 677.441 114.831 682.763 109.625L681.364 108.195ZM663.021 119.531C656 122.094 648.41 123.38 640.244 123.38V125.38C648.624 125.38 656.448 124.06 663.707 121.409L663.021 119.531ZM640.244 123.38C632.307 123.38 624.831 122.095 617.807 119.531L617.121 121.409C624.377 124.058 632.087 125.38 640.244 125.38V123.38ZM617.807 119.531C610.793 116.97 604.679 113.189 599.455 108.188L598.072 109.632C603.502 114.831 609.855 118.757 617.121 121.409L617.807 119.531ZM599.463 108.195C594.245 103.088 590.125 96.8041 587.111 89.3262L585.256 90.0738C588.363 97.7826 592.63 104.306 598.064 109.625L599.463 108.195ZM587.113 89.331C584.109 81.7642 582.594 72.9969 582.594 63.01H580.594C580.594 73.1964 582.139 82.2225 585.254 90.069L587.113 89.331ZM582.594 63.01C582.594 53.0267 584.164 44.3226 587.276 36.8756L585.431 36.1044C582.197 43.8441 580.594 52.82 580.594 63.01H582.594ZM587.278 36.8707C590.406 29.2747 594.584 22.9325 599.803 17.8247L598.404 16.3953C592.97 21.7142 588.648 28.292 585.429 36.1092L587.278 36.8707ZM599.796 17.832C605.137 12.7128 611.254 8.87639 618.152 6.31756L617.456 4.44242C610.3 7.09692 603.95 11.0806 598.412 16.388L599.796 17.832ZM618.147 6.31935C625.174 3.75396 632.537 2.46999 640.244 2.46999V0.46999C632.31 0.46999 624.714 1.79269 617.461 4.44064L618.147 6.31935ZM640.244 2.46999C648.18 2.46999 655.657 3.7551 662.681 6.31935L663.367 4.44064C656.11 1.79155 648.401 0.46999 640.244 0.46999V2.46999ZM662.681 6.31935C669.69 8.87829 675.801 12.7127 681.024 17.8247L682.423 16.3953C676.993 11.0806 670.637 7.09503 663.367 4.44064L662.681 6.31935ZM681.024 17.8247C686.24 22.9296 690.36 29.2677 693.374 36.859L695.233 36.121C692.127 28.299 687.861 21.717 682.423 16.3953L681.024 17.8247ZM693.376 36.8638C696.379 44.3142 697.894 53.0226 697.894 63.01H699.894C699.894 52.8241 698.349 43.8524 695.231 36.1162L693.376 36.8638ZM799.71 99.22H800.71V98.22H799.71V99.22ZM799.71 122V123H800.71V122H799.71ZM721 122H720V123H721V122ZM721 4.19V3.19H720V4.19H721ZM747.52 4.19H748.52V3.19H747.52V4.19ZM747.52 99.22H746.52V100.22H747.52V99.22ZM798.71 99.22V122H800.71V99.22H798.71ZM799.71 121H721V123H799.71V121ZM722 122V4.19H720V122H722ZM721 5.19H747.52V3.19H721V5.19ZM746.52 4.19V99.22H748.52V4.19H746.52ZM747.52 100.22H799.71V98.22H747.52V100.22ZM837.781 78.65L836.821 78.9309L836.824 78.9416L836.828 78.9522L837.781 78.65ZM843.901 90.72L843.107 91.3284L843.119 91.3432L843.131 91.3576L843.901 90.72ZM853.761 98.37L854.187 97.4652L853.761 98.37ZM880.111 98.37L879.695 97.4605L879.685 97.4652L880.111 98.37ZM889.971 90.72L889.19 90.0953L889.188 90.0986L889.971 90.72ZM896.091 78.65L895.138 78.3477L895.135 78.3584L895.131 78.3691L896.091 78.65ZM896.091 47.37L895.13 47.6447L895.134 47.6585L895.138 47.6722L896.091 47.37ZM889.971 35.3L889.177 35.9084L889.189 35.9232L889.201 35.9376L889.971 35.3ZM880.111 27.48L879.685 28.3849L879.695 28.3895L880.111 27.48ZM853.761 27.65L854.187 28.5548L854.198 28.5498L854.208 28.5444L853.761 27.65ZM843.901 35.47L843.12 34.8453L843.118 34.8486L843.901 35.47ZM837.781 47.54L836.826 47.2443L836.824 47.2517L836.821 47.2591L837.781 47.54ZM921.081 89.7L920.152 89.3309L920.149 89.3382L921.081 89.7ZM908.841 108.91L909.54 109.625L909.548 109.617L908.841 108.91ZM890.141 120.47L889.803 119.529L889.798 119.531L890.141 120.47ZM825.541 108.91L824.842 109.625L824.85 109.632L825.541 108.91ZM812.961 89.7L812.032 90.069L812.034 90.0738L812.961 89.7ZM813.131 36.49L814.054 36.8756L814.056 36.8707L813.131 36.49ZM825.881 17.11L825.189 16.388L825.182 16.3953L825.881 17.11ZM844.581 5.37999L844.238 4.44062L844.233 4.44242L844.581 5.37999ZM889.801 5.37999L890.144 4.44064L889.801 5.37999ZM908.501 17.11L909.201 16.3953L908.501 17.11ZM921.081 36.49L920.152 36.859L920.154 36.8638L921.081 36.49ZM834.741 63.01C834.741 68.8673 835.43 74.1773 836.821 78.9309L838.741 78.3691C837.412 73.8293 836.741 68.7127 836.741 63.01H834.741ZM836.828 78.9522C838.331 83.6944 840.421 87.8246 843.107 91.3284L844.695 90.1116C842.168 86.8153 840.177 82.8989 838.734 78.3478L836.828 78.9522ZM843.131 91.3576C845.944 94.7574 849.349 97.3987 853.335 99.2748L854.187 97.4652C850.467 95.7146 847.298 93.256 844.672 90.0824L843.131 91.3576ZM853.335 99.2748C857.343 101.161 861.912 102.09 867.021 102.09V100.09C862.157 100.09 857.886 99.206 854.187 97.4652L853.335 99.2748ZM867.021 102.09C872.02 102.09 876.532 101.159 880.537 99.2748L879.685 97.4652C875.983 99.2074 871.768 100.09 867.021 100.09V102.09ZM880.527 99.2795C884.631 97.4032 888.046 94.7567 890.755 91.3414L889.188 90.0986C886.683 93.2566 883.524 95.7101 879.695 97.4605L880.527 99.2795ZM890.752 91.3447C893.562 87.832 895.658 83.6887 897.051 78.9309L895.131 78.3691C893.804 82.9046 891.82 86.808 889.19 90.0953L890.752 91.3447ZM897.044 78.9522C898.554 74.1916 899.301 68.8741 899.301 63.01H897.301C897.301 68.7059 896.575 73.815 895.138 78.3477L897.044 78.9522ZM899.301 63.01C899.301 57.1459 898.554 51.8284 897.044 47.0678L895.138 47.6722C896.575 52.205 897.301 57.3141 897.301 63.01H899.301ZM897.053 47.0953C895.661 42.2235 893.563 38.0713 890.742 34.6624L889.201 35.9376C891.82 39.1021 893.802 42.9964 895.13 47.6447L897.053 47.0953ZM890.765 34.6916C888.057 31.1594 884.639 28.4505 880.527 26.5705L879.695 28.3895C883.516 30.1361 886.672 32.6406 889.177 35.9084L890.765 34.6916ZM880.537 26.5752C876.532 24.6907 872.02 23.76 867.021 23.76V25.76C871.768 25.76 875.983 26.6426 879.685 28.3848L880.537 26.5752ZM867.021 23.76C861.904 23.76 857.326 24.7493 853.314 26.7556L854.208 28.5444C857.902 26.6974 862.165 25.76 867.021 25.76V23.76ZM853.335 26.7452C849.341 28.625 845.933 31.3288 843.12 34.8453L844.682 36.0947C847.309 32.8112 850.475 30.3016 854.187 28.5548L853.335 26.7452ZM843.118 34.8486C840.421 38.2486 838.329 42.3878 836.826 47.2443L838.736 47.8357C840.18 43.1722 842.168 39.2647 844.685 36.0914L843.118 34.8486ZM836.821 47.2591C835.431 52.011 834.741 57.264 834.741 63.01H836.741C836.741 57.4226 837.412 52.3623 838.741 47.8209L836.821 47.2591ZM924.671 63.01C924.671 72.9969 923.156 81.7642 920.152 89.331L922.01 90.069C925.126 82.2225 926.671 73.1964 926.671 63.01H924.671ZM920.149 89.3382C917.247 96.8157 913.239 103.098 908.134 108.203L909.548 109.617C914.87 104.296 919.022 97.771 922.013 90.0618L920.149 89.3382ZM908.142 108.195C903.037 113.189 896.929 116.968 889.803 119.529L890.479 121.411C897.86 118.759 904.219 114.831 909.54 109.625L908.142 108.195ZM889.798 119.531C882.777 122.094 875.188 123.38 867.021 123.38V125.38C875.401 125.38 883.225 124.06 890.484 121.409L889.798 119.531ZM867.021 123.38C859.084 123.38 851.608 122.095 844.584 119.531L843.898 121.409C851.154 124.058 858.864 125.38 867.021 125.38V123.38ZM844.584 119.531C837.57 116.97 831.456 113.189 826.233 108.188L824.85 109.632C830.279 114.831 836.632 118.757 843.898 121.409L844.584 119.531ZM826.241 108.195C821.022 103.088 816.902 96.8041 813.889 89.3262L812.034 90.0738C815.14 97.7826 819.407 104.306 824.842 109.625L826.241 108.195ZM813.891 89.331C810.886 81.7642 809.371 72.9969 809.371 63.01H807.371C807.371 73.1964 808.916 82.2225 812.032 90.069L813.891 89.331ZM809.371 63.01C809.371 53.0267 810.942 44.3226 814.054 36.8756L812.208 36.1044C808.974 43.8441 807.371 52.82 807.371 63.01H809.371ZM814.056 36.8707C817.184 29.2747 821.362 22.9325 826.581 17.8247L825.182 16.3953C819.747 21.7142 815.425 28.292 812.206 36.1092L814.056 36.8707ZM826.573 17.832C831.915 12.7128 838.031 8.87639 844.929 6.31756L844.233 4.44242C837.078 7.09692 830.727 11.0806 825.189 16.388L826.573 17.832ZM844.924 6.31935C851.951 3.75396 859.315 2.46999 867.021 2.46999V0.46999C859.088 0.46999 851.491 1.79269 844.238 4.44064L844.924 6.31935ZM867.021 2.46999C874.958 2.46999 882.434 3.7551 889.458 6.31935L890.144 4.44064C882.888 1.79155 875.178 0.46999 867.021 0.46999V2.46999ZM889.458 6.31935C896.467 8.87829 902.579 12.7127 907.802 17.8247L909.201 16.3953C903.77 11.0806 897.415 7.09503 890.144 4.44064L889.458 6.31935ZM907.802 17.8247C913.018 22.9296 917.137 29.2677 920.152 36.859L922.01 36.121C918.905 28.299 914.638 21.717 909.201 16.3953L907.802 17.8247ZM920.154 36.8638C923.156 44.3142 924.671 53.0226 924.671 63.01H926.671C926.671 52.8241 925.126 43.8524 922.009 36.1162L920.154 36.8638ZM978.378 34.96L977.598 34.3337L977.597 34.3353L978.378 34.96ZM972.258 78.82L971.296 79.0947L971.298 79.1009L972.258 78.82ZM978.378 90.89L979.159 90.2653L978.378 90.89ZM988.578 98.88L988.151 99.7842L988.161 99.7892L988.172 99.7938L988.578 98.88ZM1010.34 101.43L1010.29 100.431L1010.28 100.432L1010.34 101.43ZM1015.95 100.75L1016.16 101.728L1016.95 101.558V100.75H1015.95ZM1015.95 59.78V58.78H1014.95V59.78H1015.95ZM1042.47 59.78H1043.47V58.78H1042.47V59.78ZM1042.47 118.09L1042.83 119.021L1043.47 118.772V118.09H1042.47ZM1027.17 122L1026.98 121.018L1026.97 121.02L1026.96 121.021L1027.17 122ZM977.018 120.13L976.662 121.064L976.667 121.066L977.018 120.13ZM958.658 108.23L957.943 108.929L958.658 108.23ZM946.758 89.02L945.816 89.3573L945.821 89.3696L946.758 89.02ZM947.268 36.83L946.34 36.4562L947.268 36.83ZM959.848 17.62L960.547 18.3347L960.555 18.3271L959.848 17.62ZM978.548 5.54999L978.197 4.61365L978.192 4.6155L978.548 5.54999ZM1016.63 2.66L1016.45 3.64427L1016.47 3.6468L1016.48 3.64893L1016.63 2.66ZM1028.19 5.21L1027.88 6.16202L1027.9 6.16842L1027.92 6.17398L1028.19 5.21ZM1036.18 8.1L1035.73 8.99442L1035.74 8.99918L1035.75 9.00373L1036.18 8.1ZM1040.77 10.48L1041.71 10.8187L1041.98 10.0596L1041.3 9.632L1040.77 10.48ZM1033.12 31.73L1032.65 32.6131L1033.67 33.1545L1034.06 32.0687L1033.12 31.73ZM1020.54 26.8L1020.24 27.7532L1020.25 27.7576L1020.26 27.7615L1020.54 26.8ZM1005.24 23.59C992.707 23.59 983.408 27.101 977.598 34.3337L979.157 35.5863C984.454 28.9923 993.062 25.59 1005.24 25.59V23.59ZM977.597 34.3353C971.971 41.3678 969.218 50.9655 969.218 63.01H971.218C971.218 51.2545 973.905 42.1522 979.159 35.5847L977.597 34.3353ZM969.218 63.01C969.218 68.8678 969.907 74.2319 971.296 79.0947L973.219 78.5453C971.889 73.8881 971.218 68.7122 971.218 63.01H969.218ZM971.298 79.1009C972.691 83.8587 974.787 88.002 977.597 91.5147L979.159 90.2653C976.529 86.978 974.545 83.0746 973.217 78.5391L971.298 79.1009ZM977.597 91.5147C980.415 95.038 983.938 97.795 988.151 99.7842L989.005 97.9758C985.057 96.1117 981.78 93.542 979.159 90.2653L977.597 91.5147ZM988.172 99.7938C992.404 101.675 997.308 102.6 1002.86 102.6V100.6C997.528 100.6 992.911 99.7117 988.984 97.9662L988.172 99.7938ZM1002.86 102.6C1005.82 102.6 1008.33 102.543 1010.39 102.428L1010.28 100.432C1008.27 100.544 1005.79 100.6 1002.86 100.6V102.6ZM1010.39 102.429C1012.58 102.313 1014.51 102.082 1016.16 101.728L1015.74 99.7722C1014.22 100.098 1012.4 100.32 1010.29 100.431L1010.39 102.429ZM1016.95 100.75V59.78H1014.95V100.75H1016.95ZM1015.95 60.78H1042.47V58.78H1015.95V60.78ZM1041.47 59.78V118.09H1043.47V59.78H1041.47ZM1042.1 117.159C1039.02 118.37 1033.99 119.66 1026.98 121.018L1027.36 122.982C1034.39 121.62 1039.57 120.303 1042.83 119.021L1042.1 117.159ZM1026.96 121.021C1020.03 122.476 1011.43 123.21 1001.16 123.21V125.21C1011.51 125.21 1020.26 124.471 1027.37 122.979L1026.96 121.021ZM1001.16 123.21C992.421 123.21 984.495 121.866 977.369 119.194L976.667 121.066C984.047 123.834 992.215 125.21 1001.16 125.21V123.21ZM977.374 119.196C970.362 116.525 964.367 112.636 959.373 107.531L957.943 108.929C963.149 114.251 969.393 118.295 976.662 121.064L977.374 119.196ZM959.373 107.531C954.381 102.428 950.485 96.1476 947.695 88.6704L945.821 89.3696C948.698 97.0791 952.735 103.606 957.943 108.929L959.373 107.531ZM947.699 88.6828C945.025 81.2175 943.678 72.665 943.678 63.01H941.678C941.678 72.8484 943.05 81.6358 945.816 89.3572L947.699 88.6828ZM943.678 63.01C943.678 53.2525 945.192 44.6567 948.195 37.2038L946.34 36.4562C943.224 44.1899 941.678 53.0475 941.678 63.01H943.678ZM948.195 37.2038C951.209 29.7259 955.329 23.4422 960.547 18.3347L959.148 16.9053C953.714 22.2245 949.447 28.7474 946.34 36.4562L948.195 37.2038ZM960.555 18.3271C965.78 13.1016 971.894 9.15503 978.904 6.48448L978.192 4.6155C970.922 7.38496 964.568 11.4851 959.141 16.9129L960.555 18.3271ZM978.899 6.48632C986.034 3.81064 993.621 2.46999 1001.67 2.46999V0.46999C993.394 0.46999 985.568 1.84935 978.197 4.61366L978.899 6.48632ZM1001.67 2.46999C1007.18 2.46999 1012.1 2.86351 1016.45 3.64427L1016.8 1.67572C1012.31 0.869812 1007.27 0.46999 1001.67 0.46999V2.46999ZM1016.48 3.64893C1020.98 4.32366 1024.77 5.16341 1027.88 6.16202L1028.49 4.25797C1025.25 3.21658 1021.34 2.35633 1016.78 1.67106L1016.48 3.64893ZM1027.92 6.17398C1031.17 7.07098 1033.77 8.01388 1035.73 8.99442L1036.62 7.20557C1034.51 6.14611 1031.78 5.16235 1028.45 4.246L1027.92 6.17398ZM1035.75 9.00373C1037.9 10.0222 1039.38 10.7946 1040.24 11.328L1041.3 9.632C1040.34 9.03211 1038.76 8.21779 1036.61 7.19626L1035.75 9.00373ZM1039.83 10.1413L1032.18 31.3913L1034.06 32.0687L1041.71 10.8187L1039.83 10.1413ZM1033.59 30.8469C1029.89 28.8814 1025.63 27.2139 1020.81 25.8385L1020.26 27.7615C1024.97 29.1061 1029.09 30.7252 1032.65 32.6131L1033.59 30.8469ZM1020.84 25.8468C1016.08 24.3385 1010.88 23.59 1005.24 23.59V25.59C1010.7 25.59 1015.7 26.3149 1020.24 27.7532L1020.84 25.8468ZM1107 52.64L1106.14 53.1491L1107 54.6041L1107.86 53.1491L1107 52.64ZM1120.6 28.5L1121.48 28.9719L1120.6 28.5ZM1132.5 4.19V3.19H1131.85L1131.59 3.78386L1132.5 4.19ZM1161.74 4.19L1162.63 4.64357L1163.37 3.19H1161.74V4.19ZM1141.68 41.08L1142.55 41.5823L1141.68 41.08ZM1119.75 76.95L1118.91 76.41L1118.75 76.6568V76.95H1119.75ZM1119.75 122V123H1120.75V122H1119.75ZM1093.23 122H1092.23V123H1093.23V122ZM1093.23 77.29H1094.23V76.9968L1094.07 76.75L1093.23 77.29ZM1071.13 41.25L1070.27 41.7488L1070.27 41.7549L1071.13 41.25ZM1051.07 4.19V3.19H1049.44L1050.18 4.64357L1051.07 4.19ZM1081.84 4.19L1082.76 3.78386L1082.49 3.19H1081.84V4.19ZM1093.57 28.5L1092.69 28.9621L1093.57 28.5ZM1107.86 53.1491C1112.63 45.0905 1117.17 37.0314 1121.48 28.9719L1119.72 28.0281C1115.42 36.0619 1110.89 44.0962 1106.14 52.1309L1107.86 53.1491ZM1121.48 28.9719C1125.8 20.9042 1129.78 12.7789 1133.42 4.59613L1131.59 3.78386C1127.97 11.9211 1124.02 20.0025 1119.72 28.0281L1121.48 28.9719ZM1132.5 5.19H1161.74V3.19H1132.5V5.19ZM1160.85 3.73643C1154.4 16.4138 1147.72 28.6942 1140.82 40.5777L1142.55 41.5823C1149.47 29.6658 1156.17 17.3528 1162.63 4.64357L1160.85 3.73643ZM1140.82 40.5777C1133.91 52.4645 1126.61 64.4086 1118.91 76.41L1120.59 77.49C1128.31 65.4647 1135.63 53.4955 1142.55 41.5823L1140.82 40.5777ZM1118.75 76.95V122H1120.75V76.95H1118.75ZM1119.75 121H1093.23V123H1119.75V121ZM1094.23 122V77.29H1092.23V122H1094.23ZM1094.07 76.75C1086.37 64.748 1079.02 52.7463 1072 40.7451L1070.27 41.7549C1077.3 53.7803 1084.68 65.8054 1092.39 77.83L1094.07 76.75ZM1072 40.7512C1065.09 28.7531 1058.42 16.4149 1051.96 3.73643L1050.18 4.64357C1056.65 17.3518 1063.34 29.7202 1070.27 41.7488L1072 40.7512ZM1051.07 5.19H1081.84V3.19H1051.07V5.19ZM1080.93 4.59613C1084.56 12.7754 1088.48 20.8974 1092.69 28.9621L1094.46 28.0379C1090.28 20.0093 1086.37 11.9246 1082.76 3.78386L1080.93 4.59613ZM1092.69 28.9621C1096.89 37.0252 1101.37 45.0875 1106.14 53.1491L1107.86 52.1309C1103.11 44.0992 1098.64 36.0682 1094.46 28.0379L1092.69 28.9621ZM1386.11 4.19H1387.11V3.19H1386.11V4.19ZM1386.11 26.8V27.8H1387.11V26.8H1386.11ZM1350.58 26.8V25.8H1349.58V26.8H1350.58ZM1350.58 122V123H1351.58V122H1350.58ZM1324.06 122H1323.06V123H1324.06V122ZM1324.06 26.8H1325.06V25.8H1324.06V26.8ZM1288.53 26.8H1287.53V27.8H1288.53V26.8ZM1288.53 4.19V3.19H1287.53V4.19H1288.53ZM1385.11 4.19V26.8H1387.11V4.19H1385.11ZM1386.11 25.8H1350.58V27.8H1386.11V25.8ZM1349.58 26.8V122H1351.58V26.8H1349.58ZM1350.58 121H1324.06V123H1350.58V121ZM1325.06 122V26.8H1323.06V122H1325.06ZM1324.06 25.8H1288.53V27.8H1324.06V25.8ZM1289.53 26.8V4.19H1287.53V26.8H1289.53ZM1288.53 5.19H1386.11V3.19H1288.53V5.19ZM1403.16 122H1402.16V123H1403.16V122ZM1403.16 4.19V3.19H1402.16V4.19H1403.16ZM1482.72 4.19H1483.72V3.19H1482.72V4.19ZM1482.72 26.46V27.46H1483.72V26.46H1482.72ZM1429.68 26.46V25.46H1428.68V26.46H1429.68ZM1429.68 49.58H1428.68V50.58H1429.68V49.58ZM1476.77 49.58H1477.77V48.58H1476.77V49.58ZM1476.77 71.34V72.34H1477.77V71.34H1476.77ZM1429.68 71.34V70.34H1428.68V71.34H1429.68ZM1429.68 99.73H1428.68V100.73H1429.68V99.73ZM1486.63 99.73H1487.63V98.73H1486.63V99.73ZM1486.63 122V123H1487.63V122H1486.63ZM1404.16 122V4.19H1402.16V122H1404.16ZM1403.16 5.19H1482.72V3.19H1403.16V5.19ZM1481.72 4.19V26.46H1483.72V4.19H1481.72ZM1482.72 25.46H1429.68V27.46H1482.72V25.46ZM1428.68 26.46V49.58H1430.68V26.46H1428.68ZM1429.68 50.58H1476.77V48.58H1429.68V50.58ZM1475.77 49.58V71.34H1477.77V49.58H1475.77ZM1476.77 70.34H1429.68V72.34H1476.77V70.34ZM1428.68 71.34V99.73H1430.68V71.34H1428.68ZM1429.68 100.73H1486.63V98.73H1429.68V100.73ZM1485.63 99.73V122H1487.63V99.73H1485.63ZM1486.63 121H1403.16V123H1486.63V121ZM1516.11 108.4L1515.38 109.083L1515.39 109.088L1516.11 108.4ZM1505.74 37L1506.67 37.3738L1506.67 37.369L1505.74 37ZM1518.32 17.62L1519.02 18.3347L1519.03 18.3271L1518.32 17.62ZM1537.36 5.54999L1537.02 4.61189L1537.36 5.54999ZM1574.93 2.66L1574.74 3.64161L1574.76 3.64418L1574.77 3.64639L1574.93 2.66ZM1585.64 5.21L1585.33 6.15868L1585.34 6.16401L1585.36 6.16879L1585.64 5.21ZM1597.71 10.48L1598.66 10.8163L1598.93 10.0585L1598.24 9.632L1597.71 10.48ZM1590.06 31.9L1589.6 32.7831L1590.62 33.3259L1591.01 32.2363L1590.06 31.9ZM1577.31 26.97L1577.04 27.9315L1577.05 27.9332L1577.31 26.97ZM1548.92 26.97L1548.6 26.024L1548.59 26.027L1548.92 26.97ZM1538.55 33.6L1537.85 32.8929L1538.55 33.6ZM1530.39 77.8L1529.42 78.0316L1529.42 78.0454L1529.43 78.0591L1530.39 77.8ZM1536.17 89.87L1535.38 90.4784L1535.39 90.4866L1535.39 90.4947L1536.17 89.87ZM1546.71 98.03L1546.29 98.9337L1546.3 98.9384L1546.31 98.9428L1546.71 98.03ZM1572.72 100.24L1572.58 99.2508L1572.72 100.24ZM1580.88 98.71L1581.12 99.6828L1581.14 99.6776L1581.16 99.6715L1580.88 98.71ZM1587.17 96.5L1587.58 97.4162L1587.17 96.5ZM1592.1 94.29L1593.05 93.9647L1592.69 92.9183L1591.69 93.382L1592.1 94.29ZM1599.41 115.54L1599.93 116.395L1600.62 115.977L1600.36 115.215L1599.41 115.54ZM1583.6 121.66L1583.86 122.626L1583.6 121.66ZM1559.97 123.38C1541.01 123.38 1526.69 118.11 1516.84 107.712L1515.39 109.088C1525.72 119.996 1540.63 125.38 1559.97 125.38V123.38ZM1516.84 107.717C1507.1 97.3046 1502.15 82.4518 1502.15 63.01H1500.15C1500.15 82.7815 1505.18 98.1887 1515.38 109.083L1516.84 107.717ZM1502.15 63.01C1502.15 53.3675 1503.67 44.828 1506.67 37.3738L1504.82 36.6262C1501.7 44.3587 1500.15 53.1591 1500.15 63.01H1502.15ZM1506.67 37.369C1509.69 29.7777 1513.81 23.4397 1519.02 18.3347L1517.62 16.9053C1512.19 22.227 1507.92 28.809 1504.81 36.631L1506.67 37.369ZM1519.03 18.3271C1524.25 13.1069 1530.47 9.16023 1537.71 6.48809L1537.02 4.61189C1529.52 7.37976 1523.05 11.4797 1517.62 16.9129L1519.03 18.3271ZM1537.71 6.48809C1544.96 3.81282 1552.83 2.46999 1561.33 2.46999V0.46999C1552.61 0.46999 1544.51 1.84717 1537.02 4.61189L1537.71 6.48809ZM1561.33 2.46999C1566.27 2.46999 1570.74 2.86264 1574.74 3.64161L1575.13 1.67838C1570.97 0.870682 1566.37 0.46999 1561.33 0.46999V2.46999ZM1574.77 3.64639C1578.81 4.32007 1582.33 5.15904 1585.33 6.15868L1585.96 4.26131C1582.84 3.22094 1579.22 2.35992 1575.1 1.6736L1574.77 3.64639ZM1585.36 6.16879C1588.38 7.06485 1590.88 8.00866 1592.85 8.99442L1593.74 7.20557C1591.63 6.15134 1589.02 5.16847 1585.93 4.2512L1585.36 6.16879ZM1592.85 8.99442C1594.88 10.0124 1596.32 10.7881 1597.18 11.328L1598.24 9.632C1597.29 9.0386 1595.79 8.22762 1593.74 7.20557L1592.85 8.99442ZM1596.77 10.1437L1589.12 31.5637L1591.01 32.2363L1598.66 10.8163L1596.77 10.1437ZM1590.53 31.0169C1586.83 29.0496 1582.51 27.3819 1577.58 26.0068L1577.05 27.9332C1581.86 29.2781 1586.04 30.897 1589.6 32.7831L1590.53 31.0169ZM1577.59 26.0085C1572.72 24.6178 1567.19 23.93 1560.99 23.93V25.93C1567.04 25.93 1572.39 26.6022 1577.04 27.9315L1577.59 26.0085ZM1560.99 23.93C1556.8 23.93 1552.67 24.6293 1548.6 26.0241L1549.25 27.9159C1553.11 26.5907 1557.03 25.93 1560.99 25.93V23.93ZM1548.59 26.027C1544.59 27.4396 1541.01 29.7337 1537.85 32.8929L1539.26 34.3071C1542.22 31.3463 1545.55 29.2204 1549.26 27.913L1548.59 26.027ZM1537.85 32.8929C1534.78 35.9588 1532.33 39.9409 1530.48 44.804L1532.35 45.516C1534.12 40.8591 1536.43 37.1345 1539.26 34.3071L1537.85 32.8929ZM1530.48 44.804C1528.61 49.7087 1527.69 55.6167 1527.69 62.5H1529.69C1529.69 55.7833 1530.59 50.1313 1532.35 45.516L1530.48 44.804ZM1527.69 62.5C1527.69 68.0094 1528.27 73.1878 1529.42 78.0316L1531.37 77.5684C1530.25 72.8922 1529.69 67.8706 1529.69 62.5H1527.69ZM1529.43 78.0591C1530.7 82.8169 1532.69 86.9624 1535.38 90.4784L1536.97 89.2616C1534.45 85.9776 1532.58 82.0765 1531.36 77.5409L1529.43 78.0591ZM1535.39 90.4947C1538.22 94.0242 1541.86 96.835 1546.29 98.9337L1547.14 97.1263C1542.96 95.1451 1539.57 92.5158 1536.96 89.2453L1535.39 90.4947ZM1546.31 98.9428C1550.77 100.941 1556.13 101.92 1562.35 101.92V99.92C1556.33 99.92 1551.27 98.972 1547.12 97.1172L1546.31 98.9428ZM1562.35 101.92C1566.25 101.92 1569.75 101.691 1572.87 101.229L1572.58 99.2508C1569.58 99.6954 1566.17 99.92 1562.35 99.92V101.92ZM1572.87 101.229C1575.95 100.773 1578.7 100.258 1581.12 99.6828L1580.65 97.7372C1578.31 98.2957 1575.62 98.8006 1572.58 99.2508L1572.87 101.229ZM1581.16 99.6715C1583.57 98.9821 1585.71 98.2312 1587.58 97.4162L1586.77 95.5838C1585.01 96.3555 1582.96 97.0779 1580.61 97.7485L1581.16 99.6715ZM1587.58 97.4162C1589.39 96.6207 1591.04 95.8813 1592.52 95.198L1591.69 93.382C1590.22 94.0587 1588.58 94.7926 1586.77 95.5838L1587.58 97.4162ZM1591.16 94.6153L1598.47 115.865L1600.36 115.215L1593.05 93.9647L1591.16 94.6153ZM1598.9 114.685C1595.27 116.882 1590.1 118.892 1583.35 120.694L1583.86 122.626C1590.71 120.801 1596.08 118.732 1599.93 116.395L1598.9 114.685ZM1583.35 120.694C1576.65 122.48 1568.86 123.38 1559.97 123.38V125.38C1568.99 125.38 1576.96 124.467 1583.86 122.626L1583.35 120.694ZM1687.55 4.19V3.19H1686.55V4.19H1687.55ZM1714.07 4.19H1715.07V3.19H1714.07V4.19ZM1714.07 122V123H1715.07V122H1714.07ZM1687.55 122H1686.55V123H1687.55V122ZM1687.55 72.02H1688.55V71.02H1687.55V72.02ZM1643.01 72.02V71.02H1642.01V72.02H1643.01ZM1643.01 122V123H1644.01V122H1643.01ZM1616.49 122H1615.49V123H1616.49V122ZM1616.49 4.19V3.19H1615.49V4.19H1616.49ZM1643.01 4.19H1644.01V3.19H1643.01V4.19ZM1643.01 49.24H1642.01V50.24H1643.01V49.24ZM1687.55 49.24V50.24H1688.55V49.24H1687.55ZM1687.55 5.19H1714.07V3.19H1687.55V5.19ZM1713.07 4.19V122H1715.07V4.19H1713.07ZM1714.07 121H1687.55V123H1714.07V121ZM1688.55 122V72.02H1686.55V122H1688.55ZM1687.55 71.02H1643.01V73.02H1687.55V71.02ZM1642.01 72.02V122H1644.01V72.02H1642.01ZM1643.01 121H1616.49V123H1643.01V121ZM1617.49 122V4.19H1615.49V122H1617.49ZM1616.49 5.19H1643.01V3.19H1616.49V5.19ZM1642.01 4.19V49.24H1644.01V4.19H1642.01ZM1643.01 50.24H1687.55V48.24H1643.01V50.24ZM1688.55 49.24V4.19H1686.55V49.24H1688.55ZM1820.38 122L1819.51 122.491L1819.8 123H1820.38V122ZM1795.73 82.05L1794.9 82.608L1795.73 82.05ZM1767.51 44.82L1768.27 44.1704L1766.51 42.1101V44.82H1767.51ZM1767.51 122V123H1768.51V122H1767.51ZM1741.33 122H1740.33V123H1741.33V122ZM1741.33 4.19V3.19H1740.33V4.19H1741.33ZM1762.92 4.19L1763.63 3.48289L1763.34 3.19H1762.92V4.19ZM1775.33 17.96L1776.1 17.3198L1775.33 17.96ZM1789.1 35.47L1788.3 36.0677L1788.31 36.0759L1788.31 36.0839L1789.1 35.47ZM1803.21 54.68L1802.39 55.2507L1802.4 55.2572L1803.21 54.68ZM1816.3 73.72L1815.47 74.2747L1817.3 77.0228V73.72H1816.3ZM1816.3 4.19V3.19H1815.3V4.19H1816.3ZM1842.65 4.19H1843.65V3.19H1842.65V4.19ZM1842.65 122V123H1843.65V122H1842.65ZM1821.25 121.509C1813.65 107.999 1805.42 94.6601 1796.56 81.492L1794.9 82.608C1803.73 95.7333 1811.93 109.027 1819.51 122.491L1821.25 121.509ZM1796.56 81.492C1787.7 68.3145 1778.27 55.8738 1768.27 44.1704L1766.75 45.4696C1776.7 57.1128 1786.08 69.4922 1794.9 82.608L1796.56 81.492ZM1766.51 44.82V122H1768.51V44.82H1766.51ZM1767.51 121H1741.33V123H1767.51V121ZM1742.33 122V4.19H1740.33V122H1742.33ZM1741.33 5.19H1762.92V3.19H1741.33V5.19ZM1762.22 4.8971C1765.93 8.60998 1770.04 13.1762 1774.56 18.6002L1776.1 17.3198C1771.55 11.8638 1767.4 7.25002 1763.63 3.48289L1762.22 4.8971ZM1774.56 18.6002C1779.08 24.025 1783.66 29.8474 1788.3 36.0677L1789.9 34.8723C1785.25 28.6259 1780.65 22.7749 1776.1 17.3198L1774.56 18.6002ZM1788.31 36.0839C1793.06 42.1891 1797.75 48.578 1802.39 55.2506L1804.03 54.1093C1799.38 47.4087 1794.66 40.9909 1789.89 34.8561L1788.31 36.0839ZM1802.4 55.2572C1807.04 61.8238 1811.4 68.1629 1815.47 74.2747L1817.13 73.1653C1813.05 67.037 1808.68 60.6828 1804.03 54.1028L1802.4 55.2572ZM1817.3 73.72V4.19H1815.3V73.72H1817.3ZM1816.3 5.19H1842.65V3.19H1816.3V5.19ZM1841.65 4.19V122H1843.65V4.19H1841.65ZM1842.65 121H1820.38V123H1842.65V121ZM1894.14 78.65L1893.18 78.9309L1893.18 78.9416L1893.19 78.9522L1894.14 78.65ZM1900.26 90.72L1899.46 91.3284L1899.48 91.3432L1899.49 91.3576L1900.26 90.72ZM1910.12 98.37L1910.54 97.4652L1910.12 98.37ZM1936.47 98.37L1936.05 97.4605L1936.04 97.4652L1936.47 98.37ZM1946.33 90.72L1945.55 90.0953L1945.55 90.0986L1946.33 90.72ZM1952.45 78.65L1951.5 78.3477L1951.49 78.3584L1951.49 78.3691L1952.45 78.65ZM1952.45 47.37L1951.49 47.6447L1951.49 47.6585L1951.5 47.6722L1952.45 47.37ZM1946.33 35.3L1945.53 35.9084L1945.55 35.9232L1945.56 35.9376L1946.33 35.3ZM1936.47 27.48L1936.04 28.3849L1936.05 28.3895L1936.47 27.48ZM1910.12 27.65L1910.54 28.5548L1910.56 28.5498L1910.57 28.5444L1910.12 27.65ZM1900.26 35.47L1899.48 34.8453L1899.47 34.8486L1900.26 35.47ZM1894.14 47.54L1893.18 47.2443L1893.18 47.2517L1893.18 47.2591L1894.14 47.54ZM1977.44 89.7L1976.51 89.3309L1976.51 89.3382L1977.44 89.7ZM1965.2 108.91L1965.9 109.625L1965.91 109.617L1965.2 108.91ZM1946.5 120.47L1946.16 119.529L1946.16 119.531L1946.5 120.47ZM1881.9 108.91L1881.2 109.625L1881.21 109.632L1881.9 108.91ZM1869.32 89.7L1868.39 90.069L1868.39 90.0738L1869.32 89.7ZM1869.49 36.49L1870.41 36.8756L1870.41 36.8707L1869.49 36.49ZM1882.24 17.11L1881.55 16.388L1881.54 16.3953L1882.24 17.11ZM1900.94 5.37999L1900.6 4.44062L1900.59 4.44242L1900.94 5.37999ZM1946.16 5.37999L1946.5 4.44064L1946.16 5.37999ZM1964.86 17.11L1965.56 16.3953L1964.86 17.11ZM1977.44 36.49L1976.51 36.859L1976.51 36.8638L1977.44 36.49ZM1891.1 63.01C1891.1 68.8673 1891.79 74.1773 1893.18 78.9309L1895.1 78.3691C1893.77 73.8293 1893.1 68.7127 1893.1 63.01H1891.1ZM1893.19 78.9522C1894.69 83.6944 1896.78 87.8246 1899.46 91.3284L1901.05 90.1116C1898.53 86.8153 1896.53 82.8989 1895.09 78.3478L1893.19 78.9522ZM1899.49 91.3576C1902.3 94.7574 1905.71 97.3987 1909.69 99.2748L1910.54 97.4652C1906.82 95.7146 1903.66 93.256 1901.03 90.0824L1899.49 91.3576ZM1909.69 99.2748C1913.7 101.161 1918.27 102.09 1923.38 102.09V100.09C1918.51 100.09 1914.24 99.206 1910.54 97.4652L1909.69 99.2748ZM1923.38 102.09C1928.38 102.09 1932.89 101.159 1936.89 99.2748L1936.04 97.4652C1932.34 99.2074 1928.13 100.09 1923.38 100.09V102.09ZM1936.88 99.2795C1940.99 97.4032 1944.4 94.7567 1947.11 91.3414L1945.55 90.0986C1943.04 93.2566 1939.88 95.7101 1936.05 97.4605L1936.88 99.2795ZM1947.11 91.3447C1949.92 87.832 1952.02 83.6887 1953.41 78.9309L1951.49 78.3691C1950.16 82.9046 1948.18 86.808 1945.55 90.0953L1947.11 91.3447ZM1953.4 78.9522C1954.91 74.1916 1955.66 68.8741 1955.66 63.01H1953.66C1953.66 68.7059 1952.93 73.815 1951.5 78.3477L1953.4 78.9522ZM1955.66 63.01C1955.66 57.1459 1954.91 51.8284 1953.4 47.0678L1951.5 47.6722C1952.93 52.205 1953.66 57.3141 1953.66 63.01H1955.66ZM1953.41 47.0953C1952.02 42.2235 1949.92 38.0713 1947.1 34.6624L1945.56 35.9376C1948.18 39.1021 1950.16 42.9964 1951.49 47.6447L1953.41 47.0953ZM1947.12 34.6916C1944.41 31.1594 1941 28.4505 1936.88 26.5705L1936.05 28.3895C1939.87 30.1361 1943.03 32.6406 1945.53 35.9084L1947.12 34.6916ZM1936.89 26.5752C1932.89 24.6907 1928.38 23.76 1923.38 23.76V25.76C1928.13 25.76 1932.34 26.6426 1936.04 28.3848L1936.89 26.5752ZM1923.38 23.76C1918.26 23.76 1913.68 24.7493 1909.67 26.7556L1910.57 28.5444C1914.26 26.6974 1918.52 25.76 1923.38 25.76V23.76ZM1909.69 26.7452C1905.7 28.625 1902.29 31.3288 1899.48 34.8453L1901.04 36.0947C1903.67 32.8112 1906.83 30.3016 1910.54 28.5548L1909.69 26.7452ZM1899.47 34.8486C1896.78 38.2486 1894.69 42.3878 1893.18 47.2443L1895.09 47.8357C1896.54 43.1722 1898.53 39.2647 1901.04 36.0914L1899.47 34.8486ZM1893.18 47.2591C1891.79 52.011 1891.1 57.264 1891.1 63.01H1893.1C1893.1 57.4226 1893.77 52.3623 1895.1 47.8209L1893.18 47.2591ZM1981.03 63.01C1981.03 72.9969 1979.51 81.7642 1976.51 89.331L1978.37 90.069C1981.48 82.2225 1983.03 73.1964 1983.03 63.01H1981.03ZM1976.51 89.3382C1973.6 96.8157 1969.6 103.098 1964.49 108.203L1965.91 109.617C1971.23 104.296 1975.38 97.771 1978.37 90.0618L1976.51 89.3382ZM1964.5 108.195C1959.39 113.189 1953.29 116.968 1946.16 119.529L1946.84 121.411C1954.22 118.759 1960.58 114.831 1965.9 109.625L1964.5 108.195ZM1946.16 119.531C1939.13 122.094 1931.55 123.38 1923.38 123.38V125.38C1931.76 125.38 1939.58 124.06 1946.84 121.409L1946.16 119.531ZM1923.38 123.38C1915.44 123.38 1907.97 122.095 1900.94 119.531L1900.26 121.409C1907.51 124.058 1915.22 125.38 1923.38 125.38V123.38ZM1900.94 119.531C1893.93 116.97 1887.81 113.189 1882.59 108.188L1881.21 109.632C1886.64 114.831 1892.99 118.757 1900.26 121.409L1900.94 119.531ZM1882.6 108.195C1877.38 103.088 1873.26 96.8041 1870.25 89.3262L1868.39 90.0738C1871.5 97.7826 1875.76 104.306 1881.2 109.625L1882.6 108.195ZM1870.25 89.331C1867.24 81.7642 1865.73 72.9969 1865.73 63.01H1863.73C1863.73 73.1964 1865.27 82.2225 1868.39 90.069L1870.25 89.331ZM1865.73 63.01C1865.73 53.0267 1867.3 44.3226 1870.41 36.8756L1868.57 36.1044C1865.33 43.8441 1863.73 52.82 1863.73 63.01H1865.73ZM1870.41 36.8707C1873.54 29.2747 1877.72 22.9325 1882.94 17.8247L1881.54 16.3953C1876.1 21.7142 1871.78 28.292 1868.56 36.1092L1870.41 36.8707ZM1882.93 17.832C1888.27 12.7128 1894.39 8.87639 1901.29 6.31756L1900.59 4.44242C1893.44 7.09692 1887.08 11.0806 1881.55 16.388L1882.93 17.832ZM1901.28 6.31935C1908.31 3.75396 1915.67 2.46999 1923.38 2.46999V0.46999C1915.44 0.46999 1907.85 1.79269 1900.6 4.44064L1901.28 6.31935ZM1923.38 2.46999C1931.32 2.46999 1938.79 3.7551 1945.82 6.31935L1946.5 4.44064C1939.25 1.79155 1931.54 0.46999 1923.38 0.46999V2.46999ZM1945.82 6.31935C1952.82 8.87829 1958.94 12.7127 1964.16 17.8247L1965.56 16.3953C1960.13 11.0806 1953.77 7.09503 1946.5 4.44064L1945.82 6.31935ZM1964.16 17.8247C1969.38 22.9296 1973.49 29.2677 1976.51 36.859L1978.37 36.121C1975.26 28.299 1971 21.717 1965.56 16.3953L1964.16 17.8247ZM1976.51 36.8638C1979.51 44.3142 1981.03 53.0226 1981.03 63.01H1983.03C1983.03 52.8241 1981.48 43.8524 1978.37 36.1162L1976.51 36.8638ZM2082.85 99.22H2083.85V98.22H2082.85V99.22ZM2082.85 122V123H2083.85V122H2082.85ZM2004.14 122H2003.14V123H2004.14V122ZM2004.14 4.19V3.19H2003.14V4.19H2004.14ZM2030.66 4.19H2031.66V3.19H2030.66V4.19ZM2030.66 99.22H2029.66V100.22H2030.66V99.22ZM2081.85 99.22V122H2083.85V99.22H2081.85ZM2082.85 121H2004.14V123H2082.85V121ZM2005.14 122V4.19H2003.14V122H2005.14ZM2004.14 5.19H2030.66V3.19H2004.14V5.19ZM2029.66 4.19V99.22H2031.66V4.19H2029.66ZM2030.66 100.22H2082.85V98.22H2030.66V100.22ZM2120.92 78.65L2119.96 78.9309L2119.96 78.9416L2119.96 78.9522L2120.92 78.65ZM2127.04 90.72L2126.24 91.3284L2126.25 91.3432L2126.27 91.3576L2127.04 90.72ZM2136.9 98.37L2137.32 97.4652L2136.9 98.37ZM2163.25 98.37L2162.83 97.4605L2162.82 97.4652L2163.25 98.37ZM2173.11 90.72L2172.32 90.0953L2172.32 90.0986L2173.11 90.72ZM2179.23 78.65L2178.27 78.3477L2178.27 78.3584L2178.27 78.3691L2179.23 78.65ZM2179.23 47.37L2178.26 47.6447L2178.27 47.6585L2178.27 47.6722L2179.23 47.37ZM2173.11 35.3L2172.31 35.9084L2172.32 35.9232L2172.34 35.9376L2173.11 35.3ZM2163.25 27.48L2162.82 28.3849L2162.83 28.3895L2163.25 27.48ZM2136.9 27.65L2137.32 28.5548L2137.33 28.5498L2137.34 28.5444L2136.9 27.65ZM2127.04 35.47L2126.25 34.8453L2126.25 34.8486L2127.04 35.47ZM2120.92 47.54L2119.96 47.2443L2119.96 47.2517L2119.96 47.2591L2120.92 47.54ZM2204.22 89.7L2203.29 89.3309L2203.28 89.3382L2204.22 89.7ZM2191.98 108.91L2192.68 109.625L2192.68 109.617L2191.98 108.91ZM2173.28 120.47L2172.94 119.529L2172.93 119.531L2173.28 120.47ZM2108.68 108.91L2107.98 109.625L2107.98 109.632L2108.68 108.91ZM2096.1 89.7L2095.17 90.069L2095.17 90.0738L2096.1 89.7ZM2096.27 36.49L2097.19 36.8756L2097.19 36.8707L2096.27 36.49ZM2109.02 17.11L2108.32 16.388L2108.32 16.3953L2109.02 17.11ZM2127.72 5.37999L2127.37 4.44062L2127.37 4.44242L2127.72 5.37999ZM2172.94 5.37999L2173.28 4.44064L2172.94 5.37999ZM2191.64 17.11L2192.34 16.3953L2191.64 17.11ZM2204.22 36.49L2203.29 36.859L2203.29 36.8638L2204.22 36.49ZM2117.88 63.01C2117.88 68.8673 2118.56 74.1773 2119.96 78.9309L2121.88 78.3691C2120.55 73.8293 2119.88 68.7127 2119.88 63.01H2117.88ZM2119.96 78.9522C2121.47 83.6944 2123.56 87.8246 2126.24 91.3284L2127.83 90.1116C2125.3 86.8153 2123.31 82.8989 2121.87 78.3478L2119.96 78.9522ZM2126.27 91.3576C2129.08 94.7574 2132.48 97.3987 2136.47 99.2748L2137.32 97.4652C2133.6 95.7146 2130.43 93.256 2127.81 90.0824L2126.27 91.3576ZM2136.47 99.2748C2140.48 101.161 2145.05 102.09 2150.16 102.09V100.09C2145.29 100.09 2141.02 99.206 2137.32 97.4652L2136.47 99.2748ZM2150.16 102.09C2155.16 102.09 2159.67 101.159 2163.67 99.2748L2162.82 97.4652C2159.12 99.2074 2154.9 100.09 2150.16 100.09V102.09ZM2163.66 99.2795C2167.77 97.4032 2171.18 94.7567 2173.89 91.3414L2172.32 90.0986C2169.82 93.2566 2166.66 95.7101 2162.83 97.4605L2163.66 99.2795ZM2173.89 91.3447C2176.7 87.832 2178.79 83.6887 2180.19 78.9309L2178.27 78.3691C2176.94 82.9046 2174.95 86.808 2172.32 90.0953L2173.89 91.3447ZM2180.18 78.9522C2181.69 74.1916 2182.44 68.8741 2182.44 63.01H2180.44C2180.44 68.7059 2179.71 73.815 2178.27 78.3477L2180.18 78.9522ZM2182.44 63.01C2182.44 57.1459 2181.69 51.8284 2180.18 47.0678L2178.27 47.6722C2179.71 52.205 2180.44 57.3141 2180.44 63.01H2182.44ZM2180.19 47.0953C2178.8 42.2235 2176.7 38.0713 2173.88 34.6624L2172.34 35.9376C2174.95 39.1021 2176.94 42.9964 2178.26 47.6447L2180.19 47.0953ZM2173.9 34.6916C2171.19 31.1594 2167.77 28.4505 2163.66 26.5705L2162.83 28.3895C2166.65 30.1361 2169.81 32.6406 2172.31 35.9084L2173.9 34.6916ZM2163.67 26.5752C2159.67 24.6907 2155.16 23.76 2150.16 23.76V25.76C2154.9 25.76 2159.12 26.6426 2162.82 28.3848L2163.67 26.5752ZM2150.16 23.76C2145.04 23.76 2140.46 24.7493 2136.45 26.7556L2137.34 28.5444C2141.04 26.6974 2145.3 25.76 2150.16 25.76V23.76ZM2136.47 26.7452C2132.48 28.625 2129.07 31.3288 2126.25 34.8453L2127.82 36.0947C2130.44 32.8112 2133.61 30.3016 2137.32 28.5548L2136.47 26.7452ZM2126.25 34.8486C2123.56 38.2486 2121.46 42.3878 2119.96 47.2443L2121.87 47.8357C2123.31 43.1722 2125.3 39.2647 2127.82 36.0914L2126.25 34.8486ZM2119.96 47.2591C2118.57 52.011 2117.88 57.264 2117.88 63.01H2119.88C2119.88 57.4226 2120.55 52.3623 2121.88 47.8209L2119.96 47.2591ZM2207.81 63.01C2207.81 72.9969 2206.29 81.7642 2203.29 89.331L2205.15 90.069C2208.26 82.2225 2209.81 73.1964 2209.81 63.01H2207.81ZM2203.28 89.3382C2200.38 96.8157 2196.37 103.098 2191.27 108.203L2192.68 109.617C2198 104.296 2202.16 97.771 2205.15 90.0618L2203.28 89.3382ZM2191.28 108.195C2186.17 113.189 2180.06 116.968 2172.94 119.529L2173.61 121.411C2180.99 118.759 2187.35 114.831 2192.68 109.625L2191.28 108.195ZM2172.93 119.531C2165.91 122.094 2158.32 123.38 2150.16 123.38V125.38C2158.54 125.38 2166.36 124.06 2173.62 121.409L2172.93 119.531ZM2150.16 123.38C2142.22 123.38 2134.74 122.095 2127.72 119.531L2127.03 121.409C2134.29 124.058 2142 125.38 2150.16 125.38V123.38ZM2127.72 119.531C2120.7 116.97 2114.59 113.189 2109.37 108.188L2107.98 109.632C2113.41 114.831 2119.77 118.757 2127.03 121.409L2127.72 119.531ZM2109.38 108.195C2104.16 103.088 2100.04 96.8041 2097.02 89.3262L2095.17 90.0738C2098.27 97.7826 2102.54 104.306 2107.98 109.625L2109.38 108.195ZM2097.03 89.331C2094.02 81.7642 2092.51 72.9969 2092.51 63.01H2090.51C2090.51 73.1964 2092.05 82.2225 2095.17 90.069L2097.03 89.331ZM2092.51 63.01C2092.51 53.0267 2094.08 44.3226 2097.19 36.8756L2095.34 36.1044C2092.11 43.8441 2090.51 52.82 2090.51 63.01H2092.51ZM2097.19 36.8707C2100.32 29.2747 2104.5 22.9325 2109.72 17.8247L2108.32 16.3953C2102.88 21.7142 2098.56 28.292 2095.34 36.1092L2097.19 36.8707ZM2109.71 17.832C2115.05 12.7128 2121.17 8.87639 2128.06 6.31756L2127.37 4.44242C2120.21 7.09692 2113.86 11.0806 2108.32 16.388L2109.71 17.832ZM2128.06 6.31935C2135.09 3.75396 2142.45 2.46999 2150.16 2.46999V0.46999C2142.22 0.46999 2134.63 1.79269 2127.37 4.44064L2128.06 6.31935ZM2150.16 2.46999C2158.09 2.46999 2165.57 3.7551 2172.59 6.31935L2173.28 4.44064C2166.02 1.79155 2158.31 0.46999 2150.16 0.46999V2.46999ZM2172.59 6.31935C2179.6 8.87829 2185.71 12.7127 2190.94 17.8247L2192.34 16.3953C2186.91 11.0806 2180.55 7.09503 2173.28 4.44064L2172.59 6.31935ZM2190.94 17.8247C2196.15 22.9296 2200.27 29.2677 2203.29 36.859L2205.15 36.121C2202.04 28.299 2197.77 21.717 2192.34 16.3953L2190.94 17.8247ZM2203.29 36.8638C2206.29 44.3142 2207.81 53.0226 2207.81 63.01H2209.81C2209.81 52.8241 2208.26 43.8524 2205.14 36.1162L2203.29 36.8638ZM2261.51 34.96L2260.73 34.3337L2260.73 34.3353L2261.51 34.96ZM2255.39 78.82L2254.43 79.0947L2254.43 79.1009L2255.39 78.82ZM2261.51 90.89L2262.29 90.2653L2261.51 90.89ZM2271.71 98.88L2271.29 99.7842L2271.3 99.7892L2271.31 99.7938L2271.71 98.88ZM2293.47 101.43L2293.42 100.431L2293.42 100.432L2293.47 101.43ZM2299.08 100.75L2299.29 101.728L2300.08 101.558V100.75H2299.08ZM2299.08 59.78V58.78H2298.08V59.78H2299.08ZM2325.6 59.78H2326.6V58.78H2325.6V59.78ZM2325.6 118.09L2325.97 119.021L2326.6 118.772V118.09H2325.6ZM2310.3 122L2310.11 121.018L2310.1 121.02L2310.1 121.021L2310.3 122ZM2260.15 120.13L2259.8 121.064L2259.8 121.066L2260.15 120.13ZM2241.79 108.23L2241.08 108.929L2241.79 108.23ZM2229.89 89.02L2228.95 89.3573L2228.96 89.3696L2229.89 89.02ZM2230.4 36.83L2229.48 36.4562L2230.4 36.83ZM2242.98 17.62L2243.68 18.3347L2243.69 18.3271L2242.98 17.62ZM2261.68 5.54999L2261.33 4.61365L2261.33 4.6155L2261.68 5.54999ZM2299.76 2.66L2299.59 3.64427L2299.6 3.6468L2299.61 3.64893L2299.76 2.66ZM2311.32 5.21L2311.02 6.16202L2311.04 6.16842L2311.06 6.17398L2311.32 5.21ZM2319.31 8.1L2318.87 8.99442L2318.87 8.99918L2318.88 9.00373L2319.31 8.1ZM2323.9 10.48L2324.84 10.8187L2325.12 10.0596L2324.43 9.632L2323.9 10.48ZM2316.25 31.73L2315.78 32.6131L2316.8 33.1545L2317.19 32.0687L2316.25 31.73ZM2303.67 26.8L2303.37 27.7532L2303.38 27.7576L2303.4 27.7615L2303.67 26.8ZM2288.37 23.59C2275.84 23.59 2266.54 27.101 2260.73 34.3337L2262.29 35.5863C2267.59 28.9923 2276.2 25.59 2288.37 25.59V23.59ZM2260.73 34.3353C2255.11 41.3678 2252.35 50.9655 2252.35 63.01H2254.35C2254.35 51.2545 2257.04 42.1522 2262.29 35.5847L2260.73 34.3353ZM2252.35 63.01C2252.35 68.8678 2253.04 74.2319 2254.43 79.0947L2256.35 78.5453C2255.02 73.8881 2254.35 68.7122 2254.35 63.01H2252.35ZM2254.43 79.1009C2255.83 83.8587 2257.92 88.002 2260.73 91.5147L2262.29 90.2653C2259.66 86.978 2257.68 83.0746 2256.35 78.5391L2254.43 79.1009ZM2260.73 91.5147C2263.55 95.038 2267.07 97.795 2271.29 99.7842L2272.14 97.9758C2268.19 96.1117 2264.91 93.542 2262.29 90.2653L2260.73 91.5147ZM2271.31 99.7938C2275.54 101.675 2280.44 102.6 2285.99 102.6V100.6C2280.66 100.6 2276.05 99.7117 2272.12 97.9662L2271.31 99.7938ZM2285.99 102.6C2288.95 102.6 2291.46 102.543 2293.53 102.428L2293.42 100.432C2291.4 100.544 2288.93 100.6 2285.99 100.6V102.6ZM2293.53 102.429C2295.72 102.313 2297.64 102.082 2299.29 101.728L2298.87 99.7722C2297.35 100.098 2295.54 100.32 2293.42 100.431L2293.53 102.429ZM2300.08 100.75V59.78H2298.08V100.75H2300.08ZM2299.08 60.78H2325.6V58.78H2299.08V60.78ZM2324.6 59.78V118.09H2326.6V59.78H2324.6ZM2325.24 117.159C2322.15 118.37 2317.13 119.66 2310.11 121.018L2310.49 122.982C2317.53 121.62 2322.7 120.303 2325.97 119.021L2325.24 117.159ZM2310.1 121.021C2303.16 122.476 2294.56 123.21 2284.29 123.21V125.21C2294.65 125.21 2303.39 124.471 2310.51 122.979L2310.1 121.021ZM2284.29 123.21C2275.56 123.21 2267.63 121.866 2260.5 119.194L2259.8 121.066C2267.18 123.834 2275.35 125.21 2284.29 125.21V123.21ZM2260.51 119.196C2253.5 116.525 2247.5 112.636 2242.51 107.531L2241.08 108.929C2246.28 114.251 2252.53 118.295 2259.8 121.064L2260.51 119.196ZM2242.51 107.531C2237.52 102.428 2233.62 96.1476 2230.83 88.6704L2228.96 89.3696C2231.83 97.0791 2235.87 103.606 2241.08 108.929L2242.51 107.531ZM2230.83 88.6828C2228.16 81.2175 2226.81 72.665 2226.81 63.01H2224.81C2224.81 72.8484 2226.19 81.6358 2228.95 89.3572L2230.83 88.6828ZM2226.81 63.01C2226.81 53.2525 2228.33 44.6567 2231.33 37.2038L2229.48 36.4562C2226.36 44.1899 2224.81 53.0475 2224.81 63.01H2226.81ZM2231.33 37.2038C2234.34 29.7259 2238.46 23.4422 2243.68 18.3347L2242.28 16.9053C2236.85 22.2245 2232.58 28.7474 2229.48 36.4562L2231.33 37.2038ZM2243.69 18.3271C2248.92 13.1016 2255.03 9.15503 2262.04 6.48448L2261.33 4.6155C2254.06 7.38496 2247.7 11.4851 2242.28 16.9129L2243.69 18.3271ZM2262.03 6.48632C2269.17 3.81064 2276.76 2.46999 2284.8 2.46999V0.46999C2276.53 0.46999 2268.7 1.84935 2261.33 4.61366L2262.03 6.48632ZM2284.8 2.46999C2290.31 2.46999 2295.24 2.86351 2299.59 3.64427L2299.94 1.67572C2295.45 0.869812 2290.4 0.46999 2284.8 0.46999V2.46999ZM2299.61 3.64893C2304.11 4.32366 2307.91 5.16341 2311.02 6.16202L2311.63 4.25797C2308.39 3.21658 2304.48 2.35633 2299.91 1.67106L2299.61 3.64893ZM2311.06 6.17398C2314.31 7.07098 2316.9 8.01388 2318.87 8.99442L2319.76 7.20557C2317.64 6.14611 2314.91 5.16235 2311.59 4.246L2311.06 6.17398ZM2318.88 9.00373C2321.03 10.0222 2322.52 10.7946 2323.37 11.328L2324.43 9.632C2323.47 9.03211 2321.9 8.21779 2319.74 7.19626L2318.88 9.00373ZM2322.96 10.1413L2315.31 31.3913L2317.19 32.0687L2324.84 10.8187L2322.96 10.1413ZM2316.72 30.8469C2313.02 28.8814 2308.76 27.2139 2303.95 25.8385L2303.4 27.7615C2308.1 29.1061 2312.23 30.7252 2315.78 32.6131L2316.72 30.8469ZM2303.97 25.8468C2299.22 24.3385 2294.01 23.59 2288.37 23.59V25.59C2293.84 25.59 2298.83 26.3149 2303.37 27.7532L2303.97 25.8468ZM2390.14 52.64L2389.28 53.1491L2390.14 54.6041L2391 53.1491L2390.14 52.64ZM2403.74 28.5L2404.62 28.9719L2403.74 28.5ZM2415.64 4.19V3.19H2414.99L2414.72 3.78386L2415.64 4.19ZM2444.88 4.19L2445.77 4.64357L2446.51 3.19H2444.88V4.19ZM2424.82 41.08L2425.68 41.5823L2424.82 41.08ZM2402.89 76.95L2402.05 76.41L2401.89 76.6568V76.95H2402.89ZM2402.89 122V123H2403.89V122H2402.89ZM2376.37 122H2375.37V123H2376.37V122ZM2376.37 77.29H2377.37V76.9968L2377.21 76.75L2376.37 77.29ZM2354.27 41.25L2353.4 41.7488L2353.4 41.7549L2354.27 41.25ZM2334.21 4.19V3.19H2332.58L2333.32 4.64357L2334.21 4.19ZM2364.98 4.19L2365.89 3.78386L2365.63 3.19H2364.98V4.19ZM2376.71 28.5L2375.82 28.9621L2376.71 28.5ZM2391 53.1491C2395.77 45.0905 2400.31 37.0314 2404.62 28.9719L2402.86 28.0281C2398.56 36.0619 2394.03 44.0962 2389.28 52.1309L2391 53.1491ZM2404.62 28.9719C2408.94 20.9042 2412.91 12.7789 2416.55 4.59613L2414.72 3.78386C2411.11 11.9211 2407.15 20.0025 2402.86 28.0281L2404.62 28.9719ZM2415.64 5.19H2444.88V3.19H2415.64V5.19ZM2443.99 3.73643C2437.53 16.4138 2430.86 28.6942 2423.95 40.5777L2425.68 41.5823C2432.6 29.6658 2439.3 17.3528 2445.77 4.64357L2443.99 3.73643ZM2423.95 40.5777C2417.05 52.4645 2409.74 64.4086 2402.05 76.41L2403.73 77.49C2411.44 65.4647 2418.76 53.4955 2425.68 41.5823L2423.95 40.5777ZM2401.89 76.95V122H2403.89V76.95H2401.89ZM2402.89 121H2376.37V123H2402.89V121ZM2377.37 122V77.29H2375.37V122H2377.37ZM2377.21 76.75C2369.51 64.748 2362.15 52.7463 2355.13 40.7451L2353.4 41.7549C2360.44 53.7803 2367.81 65.8054 2375.53 77.83L2377.21 76.75ZM2355.13 40.7512C2348.23 28.7531 2341.55 16.4149 2335.1 3.73643L2333.32 4.64357C2339.78 17.3518 2346.48 29.7202 2353.4 41.7488L2355.13 40.7512ZM2334.21 5.19H2364.98V3.19H2334.21V5.19ZM2364.06 4.59613C2367.7 12.7754 2371.62 20.8974 2375.82 28.9621L2377.59 28.0379C2373.41 20.0093 2369.51 11.9246 2365.89 3.78386L2364.06 4.59613ZM2375.82 28.9621C2380.02 37.0252 2384.51 45.0875 2389.28 53.1491L2391 52.1309C2386.25 44.0992 2381.78 36.0682 2377.59 28.0379L2375.82 28.9621Z" fill="#646482"/>
</g>
<defs>
<filter id="filter0_d" x="0.400391" y="0.469971" width="2450.11" height="132.91" filterUnits="userSpaceOnUse" color-interpolation-filters="sRGB">
<feFlood flood-opacity="0" result="BackgroundImageFix"/>
<feColorMatrix in="SourceAlpha" type="matrix" values="0 0 0 0 0 0 0 0 0 0 0 0 0 0 0 0 0 0 127 0"/>
<feOffset dy="4"/>
<feGaussianBlur stdDeviation="2"/>
<feColorMatrix type="matrix" values="0 0 0 0 0 0 0 0 0 0 0 0 0 0 0 0 0 0 0.25 0"/>
<feBlend mode="normal" in2="BackgroundImageFix" result="effect1_dropShadow"/>
<feBlend mode="normal" in="SourceGraphic" in2="effect1_dropShadow" result="shape"/>
</filter>
</defs>
</svg>
