<svg width="3543" height="126" viewBox="0 0 3543 126" fill="none" xmlns="http://www.w3.org/2000/svg">
<path d="M30.91 78.65L29.9503 78.9309L29.9534 78.9416L29.9568 78.9522L30.91 78.65ZM37.03 90.72L36.2364 91.3284L36.2477 91.3432L36.2596 91.3576L37.03 90.72ZM46.89 98.37L47.3158 97.4652L46.89 98.37ZM73.24 98.37L72.8242 97.4605L72.8142 97.4652L73.24 98.37ZM83.1 90.72L82.3191 90.0953L82.3165 90.0986L83.1 90.72ZM89.22 78.65L88.2668 78.3477L88.2634 78.3584L88.2603 78.3691L89.22 78.65ZM89.22 47.37L88.2585 47.6447L88.2624 47.6585L88.2668 47.6722L89.22 47.37ZM83.1 35.3L82.3064 35.9084L82.3177 35.9232L82.3296 35.9376L83.1 35.3ZM73.24 27.48L72.8142 28.3849L72.8242 28.3895L73.24 27.48ZM46.89 27.65L47.3158 28.5548L47.3266 28.5498L47.3372 28.5444L46.89 27.65ZM37.03 35.47L36.2491 34.8453L36.2465 34.8486L37.03 35.47ZM30.91 47.54L29.9547 47.2443L29.9524 47.2517L29.9503 47.2591L30.91 47.54ZM114.21 89.7L113.281 89.3309L113.278 89.3382L114.21 89.7ZM101.97 108.91L102.669 109.625L102.677 109.617L101.97 108.91ZM83.27 120.47L82.9318 119.529L82.9271 119.531L83.27 120.47ZM18.67 108.91L17.9705 109.625L17.9784 109.632L18.67 108.91ZM6.09 89.7L5.16057 90.069L5.16248 90.0738L6.09 89.7ZM6.26 36.49L7.18268 36.8756L7.18468 36.8707L6.26 36.49ZM19.01 17.11L18.3181 16.388L18.3105 16.3953L19.01 17.11ZM37.71 5.37999L37.3671 4.44062L37.3622 4.44242L37.71 5.37999ZM82.93 5.37999L83.2729 4.44064L82.93 5.37999ZM101.63 17.11L102.329 16.3953L101.63 17.11ZM114.21 36.49L113.281 36.859L113.282 36.8638L114.21 36.49ZM27.87 63.01C27.87 68.8673 28.559 74.1773 29.9503 78.9309L31.8697 78.3691C30.541 73.8293 29.87 68.7127 29.87 63.01H27.87ZM29.9568 78.9522C31.4604 83.6944 33.5502 87.8246 36.2364 91.3284L37.8236 90.1116C35.2965 86.8153 33.3063 82.8989 31.8632 78.3478L29.9568 78.9522ZM36.2596 91.3576C39.0732 94.7574 42.4775 97.3987 46.4642 99.2748L47.3158 97.4652C43.5958 95.7146 40.4268 93.256 37.8004 90.0824L36.2596 91.3576ZM46.4642 99.2748C50.4716 101.161 55.0411 102.09 60.15 102.09V100.09C55.2856 100.09 51.015 99.206 47.3158 97.4652L46.4642 99.2748ZM60.15 102.09C65.1493 102.09 69.6613 101.159 73.6658 99.2748L72.8142 97.4652C69.112 99.2074 64.8974 100.09 60.15 100.09V102.09ZM73.6558 99.2795C77.7601 97.4032 81.1748 94.7567 83.8835 91.3414L82.3165 90.0986C79.8119 93.2566 76.6532 95.7101 72.8242 97.4605L73.6558 99.2795ZM83.8809 91.3447C86.691 87.832 88.7872 83.6887 90.1797 78.9309L88.2603 78.3691C86.9328 82.9046 84.949 86.808 82.3191 90.0953L83.8809 91.3447ZM90.1732 78.9522C91.6827 74.1916 92.43 68.8741 92.43 63.01H90.43C90.43 68.7059 89.704 73.815 88.2668 78.3477L90.1732 78.9522ZM92.43 63.01C92.43 57.1459 91.6827 51.8284 90.1732 47.0678L88.2668 47.6722C89.704 52.205 90.43 57.3141 90.43 63.01H92.43ZM90.1815 47.0953C88.7896 42.2235 86.6915 38.0713 83.8704 34.6624L82.3296 35.9376C84.9485 39.1021 86.9304 42.9964 88.2585 47.6447L90.1815 47.0953ZM83.8936 34.6916C81.1856 31.1594 77.7683 28.4505 73.6558 26.5705L72.8242 28.3895C76.645 30.1361 79.801 32.6406 82.3064 35.9084L83.8936 34.6916ZM73.6658 26.5752C69.6613 24.6907 65.1493 23.76 60.15 23.76V25.76C64.8974 25.76 69.112 26.6426 72.8142 28.3848L73.6658 26.5752ZM60.15 23.76C55.0326 23.76 50.4553 24.7493 46.4428 26.7556L47.3372 28.5444C51.0313 26.6974 55.2941 25.76 60.15 25.76V23.76ZM46.4642 26.7452C42.4695 28.625 39.0623 31.3288 36.2491 34.8453L37.8109 36.0947C40.4377 32.8112 43.6038 30.3016 47.3158 28.5548L46.4642 26.7452ZM36.2465 34.8486C33.5499 38.2486 31.4579 42.3878 29.9547 47.2443L31.8653 47.8357C33.3087 43.1722 35.2967 39.2647 37.8135 36.0914L36.2465 34.8486ZM29.9503 47.2591C28.5595 52.011 27.87 57.264 27.87 63.01H29.87C29.87 57.4226 30.5405 52.3623 31.8697 47.8209L29.9503 47.2591ZM117.8 63.01C117.8 72.9969 116.285 81.7642 113.281 89.331L115.139 90.069C118.255 82.2225 119.8 73.1964 119.8 63.01H117.8ZM113.278 89.3382C110.376 96.8157 106.368 103.098 101.263 108.203L102.677 109.617C107.999 104.296 112.151 97.771 115.142 90.0618L113.278 89.3382ZM101.271 108.195C96.1659 113.189 90.0578 116.968 82.9318 119.529L83.6082 121.411C90.9889 118.759 97.3475 114.831 102.669 109.625L101.271 108.195ZM82.9271 119.531C75.9063 122.094 68.3167 123.38 60.15 123.38V125.38C68.53 125.38 76.3537 124.06 83.6129 121.409L82.9271 119.531ZM60.15 123.38C52.2134 123.38 44.7367 122.095 37.7129 119.531L37.0271 121.409C44.2833 124.058 51.9933 125.38 60.15 125.38V123.38ZM37.7129 119.531C30.6988 116.97 24.5852 113.189 19.3616 108.188L17.9784 109.632C23.4081 114.831 29.7612 118.757 37.0271 121.409L37.7129 119.531ZM19.3695 108.195C14.1509 103.088 10.031 96.8041 7.01752 89.3262L5.16248 90.0738C8.26901 97.7826 12.5358 104.306 17.9705 109.625L19.3695 108.195ZM7.01942 89.331C4.01495 81.7642 2.5 72.9969 2.5 63.01H0.5C0.5 73.1964 2.04505 82.2225 5.16058 90.069L7.01942 89.331ZM2.5 63.01C2.5 53.0267 4.0705 44.3226 7.18267 36.8756L5.33733 36.1044C2.10283 43.8441 0.5 52.82 0.5 63.01H2.5ZM7.18468 36.8707C10.3125 29.2747 14.4906 22.9325 19.7095 17.8247L18.3105 16.3953C12.8761 21.7142 8.55419 28.292 5.33532 36.1092L7.18468 36.8707ZM19.7019 17.832C25.0437 12.7128 31.1601 8.87639 38.0578 6.31756L37.3622 4.44242C30.2066 7.09692 23.8563 11.0806 18.3181 16.388L19.7019 17.832ZM38.0529 6.31935C45.0799 3.75396 52.4436 2.46999 60.15 2.46999V0.46999C52.2164 0.46999 44.6201 1.79269 37.3671 4.44064L38.0529 6.31935ZM60.15 2.46999C68.0866 2.46999 75.5633 3.7551 82.5871 6.31935L83.2729 4.44064C76.0167 1.79155 68.3067 0.46999 60.15 0.46999V2.46999ZM82.5871 6.31935C89.5963 8.87829 95.7075 12.7127 100.931 17.8247L102.329 16.3953C96.8992 11.0806 90.5437 7.09503 83.2729 4.44064L82.5871 6.31935ZM100.931 17.8247C106.147 22.9296 110.266 29.2677 113.281 36.859L115.139 36.121C112.034 28.299 107.767 21.717 102.329 16.3953L100.931 17.8247ZM113.282 36.8638C116.285 44.3142 117.8 53.0226 117.8 63.01H119.8C119.8 52.8241 118.255 43.8524 115.138 36.1162L113.282 36.8638ZM165.557 120.98L165.188 121.91L165.196 121.913L165.204 121.916L165.557 120.98ZM150.597 111.29L149.86 111.967L149.87 111.977L149.88 111.987L150.597 111.29ZM141.927 96.5L140.972 96.7993L140.976 96.8107L140.98 96.8219L141.927 96.5ZM139.207 4.19V3.19H138.207V4.19H139.207ZM165.727 4.19H166.727V3.19H165.727V4.19ZM167.257 87.49L166.299 87.7773L166.305 87.7968L166.311 87.816L167.257 87.49ZM171.677 95.65L170.912 96.2941L170.93 96.3159L170.95 96.3366L171.677 95.65ZM178.477 100.07L178.148 101.015L178.16 101.019L178.477 100.07ZM202.957 95.48L202.259 94.7629L202.25 94.7729L202.957 95.48ZM209.077 4.19V3.19H208.077V4.19H209.077ZM235.597 4.19H236.597V3.19H235.597V4.19ZM232.707 96.5L231.758 96.1838L232.707 96.5ZM223.867 111.46L224.584 112.157L224.593 112.147L223.867 111.46ZM186.977 123.38C178.791 123.38 171.776 122.258 165.91 120.044L165.204 121.916C171.35 124.235 178.616 125.38 186.977 125.38V123.38ZM165.925 120.05C160.032 117.715 155.169 114.559 151.314 110.593L149.88 111.987C153.957 116.181 159.068 119.485 165.188 121.91L165.925 120.05ZM151.333 110.613C147.578 106.528 144.758 101.72 142.873 96.1781L140.98 96.8219C142.949 102.613 145.908 107.666 149.86 111.967L151.333 110.613ZM142.881 96.2007C141.102 90.5301 140.207 84.2859 140.207 77.46H138.207C138.207 84.4608 139.125 90.9099 140.972 96.7993L142.881 96.2007ZM140.207 77.46V4.19H138.207V77.46H140.207ZM139.207 5.19H165.727V3.19H139.207V5.19ZM164.727 4.19V75.25H166.727V4.19H164.727ZM164.727 75.25C164.727 80.0764 165.243 84.2585 166.299 87.7773L168.214 87.2027C167.23 83.9214 166.727 79.9436 166.727 75.25H164.727ZM166.311 87.816C167.476 91.1925 169.003 94.0275 170.912 96.2941L172.442 95.0059C170.724 92.9658 169.304 90.3608 168.202 87.164L166.311 87.816ZM170.95 96.3366C172.985 98.4913 175.387 100.054 178.148 101.014L178.805 99.1255C176.353 98.2725 174.222 96.8887 172.404 94.9634L170.95 96.3366ZM178.16 101.019C180.993 101.963 184.047 102.43 187.317 102.43V100.43C184.239 100.43 181.401 99.9906 178.793 99.1213L178.16 101.019ZM187.317 102.43C193.998 102.43 199.481 100.37 203.664 96.1871L202.25 94.7729C198.499 98.5233 193.555 100.43 187.317 100.43V102.43ZM203.654 96.197C208.023 91.9487 210.077 84.8678 210.077 75.25H208.077C208.077 84.6722 206.05 91.0779 202.26 94.763L203.654 96.197ZM210.077 75.25V4.19H208.077V75.25H210.077ZM209.077 5.19H235.597V3.19H209.077V5.19ZM234.597 4.19V77.46H236.597V4.19H234.597ZM234.597 77.46C234.597 84.2801 233.646 90.5184 231.758 96.1838L233.655 96.8162C235.62 90.9216 236.597 84.4665 236.597 77.46H234.597ZM231.758 96.1838C229.875 101.833 227.001 106.691 223.14 110.773L224.593 112.147C228.666 107.842 231.685 102.727 233.655 96.8162L231.758 96.1838ZM223.15 110.763C219.301 114.722 214.39 117.82 208.389 120.042L209.084 121.918C215.323 119.607 220.499 116.358 224.584 112.157L223.15 110.763ZM208.389 120.042C202.407 122.258 195.277 123.38 186.977 123.38V125.38C195.45 125.38 202.826 124.235 209.084 121.918L208.389 120.042ZM336.242 12.35L335.683 13.179L335.69 13.1836L336.242 12.35ZM344.572 61.82L343.768 61.2256L343.766 61.2286L344.572 61.82ZM328.252 73.89L327.87 72.9656L326.633 73.4765L327.474 74.5183L328.252 73.89ZM335.732 84.09L334.904 84.6504L334.912 84.6618L335.732 84.09ZM343.382 95.99L342.522 96.5011L342.531 96.5149L342.539 96.5284L343.382 95.99ZM350.862 108.91L349.977 109.375L349.981 109.384L350.862 108.91ZM357.492 122V123H359.072L358.396 121.572L357.492 122ZM327.742 122L326.869 122.488L327.155 123H327.742V122ZM321.112 110.27L320.233 110.747L320.238 110.757L320.244 110.766L321.112 110.27ZM314.312 98.71L313.457 99.2283L313.462 99.2377L313.468 99.2469L314.312 98.71ZM307.512 88.17L306.68 88.7247L306.684 88.7312L306.689 88.7377L307.512 88.17ZM300.712 78.99L301.48 78.3498L301.18 77.99H300.712V78.99ZM287.622 78.99V77.99H286.622V78.99H287.622ZM287.622 122V123H288.622V122H287.622ZM261.102 122H260.102V123H261.102V122ZM261.102 5.89L260.91 4.90868L260.102 5.06703V5.89H261.102ZM278.952 3.50999L278.879 2.51263L278.878 2.51273L278.952 3.50999ZM291.872 25.61L291.801 24.6125L291.795 24.6129L291.872 25.61ZM287.622 25.95L287.539 24.9535L286.622 25.0299V25.95H287.622ZM287.622 57.91H286.622V58.91H287.622V57.91ZM316.522 54.17L316.021 53.3046H316.021L316.522 54.17ZM316.352 29.18L315.851 30.0454L315.864 30.0532L315.878 30.0605L316.352 29.18ZM295.612 3.82999C313.196 3.82999 326.51 6.99002 335.683 13.179L336.801 11.521C327.161 5.01664 313.388 1.82999 295.612 1.82999V3.82999ZM335.69 13.1836C344.764 19.197 349.352 28.5974 349.352 41.59H351.352C351.352 28.0626 346.533 17.9696 336.794 11.5164L335.69 13.1836ZM349.352 41.59C349.352 49.7088 347.463 56.2267 343.768 61.2256L345.376 62.4144C349.388 56.9866 351.352 50.0178 351.352 41.59H349.352ZM343.766 61.2286C340.156 66.1511 334.879 70.0734 327.87 72.9656L328.633 74.8144C335.905 71.8132 341.508 67.6889 345.378 62.4114L343.766 61.2286ZM327.474 74.5183C329.833 77.4388 332.309 80.8153 334.904 84.6503L336.56 83.5297C333.941 79.658 331.431 76.2346 329.03 73.2617L327.474 74.5183ZM334.912 84.6618C337.504 88.3807 340.041 92.327 342.522 96.5011L344.241 95.4789C341.737 91.2663 339.174 87.2793 336.552 83.5182L334.912 84.6618ZM342.539 96.5284C345.13 100.583 347.609 104.865 349.977 109.375L351.747 108.445C349.355 103.888 346.847 99.5568 344.225 95.4516L342.539 96.5284ZM349.981 109.384C352.354 113.79 354.556 118.138 356.588 122.428L358.396 121.572C356.348 117.249 354.13 112.87 351.742 108.436L349.981 109.384ZM357.492 121H327.742V123H357.492V121ZM328.615 121.512C326.46 117.656 324.248 113.743 321.98 109.774L320.244 110.766C322.509 114.73 324.717 118.637 326.869 122.488L328.615 121.512ZM321.991 109.793C319.827 105.806 317.548 101.933 315.156 98.1731L313.468 99.2469C315.836 102.967 318.091 106.8 320.233 110.747L321.991 109.793ZM315.167 98.1917C312.891 94.4365 310.614 90.9065 308.335 87.6023L306.689 88.7377C308.943 92.0068 311.199 95.5035 313.457 99.2283L315.167 98.1917ZM308.344 87.6153C306.061 84.1901 303.773 81.1009 301.48 78.3498L299.944 79.6302C302.184 82.3191 304.43 85.3499 306.68 88.7247L308.344 87.6153ZM300.712 77.99H287.622V79.99H300.712V77.99ZM286.622 78.99V122H288.622V78.99H286.622ZM287.622 121H261.102V123H287.622V121ZM262.102 122V5.89H260.102V122H262.102ZM261.294 6.87131C267.034 5.74597 272.944 4.95777 279.026 4.50726L278.878 2.51273C272.72 2.96889 266.73 3.76736 260.91 4.90868L261.294 6.87131ZM279.024 4.50736C285.24 4.05532 290.768 3.82999 295.612 3.82999V1.82999C290.709 1.82999 285.131 2.058 278.879 2.51263L279.024 4.50736ZM297.142 24.44C295.196 24.44 293.415 24.4972 291.801 24.6125L291.943 26.6075C293.502 26.4961 295.234 26.44 297.142 26.44V24.44ZM291.795 24.6129C290.32 24.7264 288.901 24.8399 287.539 24.9535L287.705 26.9465C289.063 26.8334 290.477 26.7202 291.949 26.607L291.795 24.6129ZM286.622 25.95V57.91H288.622V25.95H286.622ZM287.622 58.91H295.102V56.91H287.622V58.91ZM295.102 58.91C305.107 58.91 312.475 57.6684 317.023 55.0354L316.021 53.3046C311.956 55.6582 305.043 56.91 295.102 56.91V58.91ZM317.023 55.0354C321.707 52.3236 323.982 47.6965 323.982 41.42H321.982C321.982 47.1568 319.95 51.0297 316.021 53.3046L317.023 55.0354ZM323.982 41.42C323.982 35.3396 321.625 30.8838 316.826 28.2995L315.878 30.0605C319.919 32.2362 321.982 35.9404 321.982 41.42H323.982ZM316.853 28.3146C312.321 25.691 305.709 24.44 297.142 24.44V26.44C305.575 26.44 311.769 27.6824 315.851 30.0454L316.853 28.3146ZM425.19 108.4L424.46 109.083L424.464 109.088L425.19 108.4ZM414.82 37L415.748 37.3738L415.75 37.369L414.82 37ZM427.4 17.62L428.1 18.3347L428.108 18.3271L427.4 17.62ZM446.44 5.54999L446.094 4.61189L446.44 5.54999ZM484.01 2.66L483.82 3.64161L483.833 3.64418L483.846 3.64639L484.01 2.66ZM494.72 5.21L494.404 6.15868L494.42 6.16401L494.436 6.16879L494.72 5.21ZM506.79 10.48L507.732 10.8163L508.003 10.0585L507.32 9.632L506.79 10.48ZM499.14 31.9L498.671 32.7831L499.693 33.3259L500.082 32.2363L499.14 31.9ZM486.39 26.97L486.116 27.9315L486.122 27.9332L486.39 26.97ZM458 26.97L457.676 26.024L457.668 26.027L458 26.97ZM447.63 33.6L446.923 32.8929L447.63 33.6ZM439.47 77.8L438.498 78.0316L438.501 78.0454L438.505 78.0591L439.47 77.8ZM445.25 89.87L444.457 90.4784L444.463 90.4866L444.47 90.4947L445.25 89.87ZM455.79 98.03L455.362 98.9337L455.372 98.9384L455.382 98.9428L455.79 98.03ZM481.8 100.24L481.654 99.2508L481.8 100.24ZM489.96 98.71L490.192 99.6828L490.214 99.6776L490.235 99.6715L489.96 98.71ZM496.25 96.5L496.651 97.4162L496.25 96.5ZM501.18 94.29L502.126 93.9647L501.766 92.9183L500.761 93.382L501.18 94.29ZM508.49 115.54L509.009 116.395L509.698 115.977L509.436 115.215L508.49 115.54ZM492.68 121.66L492.938 122.626L492.68 121.66ZM469.05 123.38C450.084 123.38 435.761 118.11 425.917 107.712L424.464 109.088C434.793 119.996 449.711 125.38 469.05 125.38V123.38ZM425.921 107.717C416.173 97.3046 411.23 82.4518 411.23 63.01H409.23C409.23 82.7815 414.261 98.1887 424.46 109.083L425.921 107.717ZM411.23 63.01C411.23 53.3675 412.744 44.828 415.748 37.3738L413.893 36.6262C410.777 44.3587 409.23 53.1591 409.23 63.01H411.23ZM415.75 37.369C418.764 29.7777 422.884 23.4397 428.1 18.3347L426.701 16.9053C421.264 22.227 416.997 28.809 413.891 36.631L415.75 37.369ZM428.108 18.3271C433.328 13.1069 439.55 9.16023 446.787 6.48809L446.094 4.61189C438.598 7.37976 432.127 11.4797 426.693 16.9129L428.108 18.3271ZM446.787 6.48809C454.032 3.81282 461.904 2.46999 470.41 2.46999V0.46999C461.69 0.46999 453.582 1.84717 446.094 4.61189L446.787 6.48809ZM470.41 2.46999C475.345 2.46999 479.813 2.86264 483.82 3.64161L484.201 1.67838C480.047 0.870682 475.449 0.46999 470.41 0.46999V2.46999ZM483.846 3.64639C487.888 4.32007 491.405 5.15904 494.404 6.15868L495.037 4.26131C491.916 3.22094 488.293 2.35992 484.175 1.6736L483.846 3.64639ZM494.436 6.16879C497.461 7.06485 499.952 8.00866 501.923 8.99442L502.818 7.20557C500.709 6.15134 498.1 5.16847 495.005 4.2512L494.436 6.16879ZM501.923 8.99442C503.959 10.0124 505.397 10.7881 506.26 11.328L507.32 9.632C506.371 9.0386 504.862 8.22762 502.818 7.20557L501.923 8.99442ZM505.849 10.1437L498.199 31.5637L500.082 32.2363L507.732 10.8163L505.849 10.1437ZM499.61 31.0169C495.907 29.0496 491.587 27.3819 486.659 26.0068L486.122 27.9332C490.941 29.2781 495.121 30.897 498.671 32.7831L499.61 31.0169ZM486.665 26.0085C481.798 24.6178 476.262 23.93 470.07 23.93V25.93C476.119 25.93 481.463 26.6022 486.116 27.9315L486.665 26.0085ZM470.07 23.93C465.877 23.93 461.744 24.6293 457.676 26.0241L458.325 27.9159C462.19 26.5907 466.104 25.93 470.07 25.93V23.93ZM457.668 26.027C453.665 27.4396 450.083 29.7337 446.923 32.8929L448.338 34.3071C451.298 31.3463 454.629 29.2204 458.333 27.913L457.668 26.027ZM446.923 32.8929C443.857 35.9588 441.409 39.9409 439.556 44.804L441.425 45.516C443.199 40.8591 445.51 37.1345 448.338 34.3071L446.923 32.8929ZM439.556 44.804C437.688 49.7087 436.77 55.6167 436.77 62.5H438.77C438.77 55.7833 439.667 50.1313 441.425 45.516L439.556 44.804ZM436.77 62.5C436.77 68.0094 437.344 73.1878 438.498 78.0316L440.443 77.5684C439.33 72.8922 438.77 67.8706 438.77 62.5H436.77ZM438.505 78.0591C439.781 82.8169 441.761 86.9624 444.457 90.4784L446.044 89.2616C443.526 85.9776 441.653 82.0765 440.436 77.5409L438.505 78.0591ZM444.47 90.4947C447.293 94.0242 450.932 96.835 455.362 98.9337L456.219 97.1263C452.036 95.1451 448.648 92.5158 446.031 89.2453L444.47 90.4947ZM455.382 98.9428C459.849 100.941 465.21 101.92 471.43 101.92V99.92C465.411 99.92 460.345 98.972 456.199 97.1172L455.382 98.9428ZM471.43 101.92C475.322 101.92 478.828 101.691 481.947 101.229L481.654 99.2508C478.653 99.6954 475.246 99.92 471.43 99.92V101.92ZM481.947 101.229C485.029 100.773 487.778 100.258 490.192 99.6828L489.729 97.7372C487.383 98.2957 484.692 98.8006 481.654 99.2508L481.947 101.229ZM490.235 99.6715C492.648 98.9821 494.788 98.2312 496.651 97.4162L495.85 95.5838C494.086 96.3555 492.033 97.0779 489.686 97.7485L490.235 99.6715ZM496.651 97.4162C498.469 96.6207 500.119 95.8813 501.6 95.198L500.761 93.382C499.295 94.0587 497.658 94.7926 495.85 95.5838L496.651 97.4162ZM500.235 94.6153L507.545 115.865L509.436 115.215L502.126 93.9647L500.235 94.6153ZM507.972 114.685C504.347 116.882 499.18 118.892 492.423 120.694L492.938 122.626C499.781 120.801 505.154 118.732 509.009 116.395L507.972 114.685ZM492.423 120.694C485.726 122.48 477.939 123.38 469.05 123.38V125.38C478.068 125.38 486.035 124.467 492.938 122.626L492.423 120.694ZM604.275 99.22H605.275V98.22H604.275V99.22ZM604.275 122V123H605.275V122H604.275ZM525.565 122H524.565V123H525.565V122ZM525.565 4.19V3.19H524.565V4.19H525.565ZM552.085 4.19H553.085V3.19H552.085V4.19ZM552.085 99.22H551.085V100.22H552.085V99.22ZM603.275 99.22V122H605.275V99.22H603.275ZM604.275 121H525.565V123H604.275V121ZM526.565 122V4.19H524.565V122H526.565ZM525.565 5.19H552.085V3.19H525.565V5.19ZM551.085 4.19V99.22H553.085V4.19H551.085ZM552.085 100.22H604.275V98.22H552.085V100.22ZM621.356 4.19V3.19H620.356V4.19H621.356ZM647.876 4.19H648.876V3.19H647.876V4.19ZM647.876 122V123H648.876V122H647.876ZM621.356 122H620.356V123H621.356V122ZM621.356 5.19H647.876V3.19H621.356V5.19ZM646.876 4.19V122H648.876V4.19H646.876ZM647.876 121H621.356V123H647.876V121ZM622.356 122V4.19H620.356V122H622.356ZM675.145 122H674.145V123H675.145V122ZM675.145 4.19V3.19H674.145V4.19H675.145ZM754.705 4.19H755.705V3.19H754.705V4.19ZM754.705 26.46V27.46H755.705V26.46H754.705ZM701.665 26.46V25.46H700.665V26.46H701.665ZM701.665 49.58H700.665V50.58H701.665V49.58ZM748.755 49.58H749.755V48.58H748.755V49.58ZM748.755 71.34V72.34H749.755V71.34H748.755ZM701.665 71.34V70.34H700.665V71.34H701.665ZM701.665 99.73H700.665V100.73H701.665V99.73ZM758.615 99.73H759.615V98.73H758.615V99.73ZM758.615 122V123H759.615V122H758.615ZM676.145 122V4.19H674.145V122H676.145ZM675.145 5.19H754.705V3.19H675.145V5.19ZM753.705 4.19V26.46H755.705V4.19H753.705ZM754.705 25.46H701.665V27.46H754.705V25.46ZM700.665 26.46V49.58H702.665V26.46H700.665ZM701.665 50.58H748.755V48.58H701.665V50.58ZM747.755 49.58V71.34H749.755V49.58H747.755ZM748.755 70.34H701.665V72.34H748.755V70.34ZM700.665 71.34V99.73H702.665V71.34H700.665ZM701.665 100.73H758.615V98.73H701.665V100.73ZM757.615 99.73V122H759.615V99.73H757.615ZM758.615 121H675.145V123H758.615V121ZM857.291 122L856.419 122.491L856.706 123H857.291V122ZM832.641 82.05L831.811 82.608L832.641 82.05ZM804.421 44.82L805.181 44.1704L803.421 42.1101V44.82H804.421ZM804.421 122V123H805.421V122H804.421ZM778.241 122H777.241V123H778.241V122ZM778.241 4.19V3.19H777.241V4.19H778.241ZM799.831 4.19L800.538 3.48289L800.245 3.19H799.831V4.19ZM812.241 17.96L813.009 17.3198L812.241 17.96ZM826.011 35.47L825.209 36.0677L825.215 36.0759L825.221 36.0839L826.011 35.47ZM840.121 54.68L839.299 55.2507L839.304 55.2572L840.121 54.68ZM853.211 73.72L852.379 74.2747L854.211 77.0228V73.72H853.211ZM853.211 4.19V3.19H852.211V4.19H853.211ZM879.561 4.19H880.561V3.19H879.561V4.19ZM879.561 122V123H880.561V122H879.561ZM858.162 121.509C850.555 107.999 842.325 94.6601 833.47 81.492L831.811 82.608C840.636 95.7333 848.839 109.027 856.419 122.491L858.162 121.509ZM833.47 81.492C824.61 68.3145 815.18 55.8738 805.181 44.1704L803.66 45.4696C813.608 57.1128 822.992 69.4922 831.811 82.608L833.47 81.492ZM803.421 44.82V122H805.421V44.82H803.421ZM804.421 121H778.241V123H804.421V121ZM779.241 122V4.19H777.241V122H779.241ZM778.241 5.19H799.831V3.19H778.241V5.19ZM799.124 4.8971C802.836 8.60998 806.952 13.1762 811.472 18.6002L813.009 17.3198C808.462 11.8638 804.305 7.25002 800.538 3.48289L799.124 4.8971ZM811.472 18.6002C815.993 24.025 820.572 29.8474 825.209 36.0677L826.812 34.8723C822.156 28.6259 817.555 22.7749 813.009 17.3198L811.472 18.6002ZM825.221 36.0839C829.97 42.1891 834.662 48.578 839.299 55.2506L840.942 54.1093C836.285 47.4087 831.572 40.9909 826.8 34.8561L825.221 36.0839ZM839.304 55.2572C843.946 61.8238 848.304 68.1629 852.379 74.2747L854.043 73.1653C849.957 67.037 845.589 60.6828 840.937 54.1028L839.304 55.2572ZM854.211 73.72V4.19H852.211V73.72H854.211ZM853.211 5.19H879.561V3.19H853.211V5.19ZM878.561 4.19V122H880.561V4.19H878.561ZM879.561 121H857.291V123H879.561V121ZM994.117 4.19H995.117V3.19H994.117V4.19ZM994.117 26.8V27.8H995.117V26.8H994.117ZM958.587 26.8V25.8H957.587V26.8H958.587ZM958.587 122V123H959.587V122H958.587ZM932.067 122H931.067V123H932.067V122ZM932.067 26.8H933.067V25.8H932.067V26.8ZM896.537 26.8H895.537V27.8H896.537V26.8ZM896.537 4.19V3.19H895.537V4.19H896.537ZM993.117 4.19V26.8H995.117V4.19H993.117ZM994.117 25.8H958.587V27.8H994.117V25.8ZM957.587 26.8V122H959.587V26.8H957.587ZM958.587 121H932.067V123H958.587V121ZM933.067 122V26.8H931.067V122H933.067ZM932.067 25.8H896.537V27.8H932.067V25.8ZM897.537 26.8V4.19H895.537V26.8H897.537ZM896.537 5.19H994.117V3.19H896.537V5.19ZM1052.47 100.92L1052.7 101.893L1052.72 101.889L1052.73 101.885L1052.47 100.92ZM1058.42 98.37L1058.99 99.1922L1059.01 99.1779L1059.03 99.1626L1058.42 98.37ZM1061.48 94.46L1062.41 94.819L1061.48 94.46ZM1056.89 80.01L1056.31 80.822L1056.32 80.8281L1056.32 80.834L1056.89 80.01ZM1038.19 71.68L1037.86 72.623L1037.87 72.6259L1037.87 72.6287L1038.19 71.68ZM1026.63 67.09L1026.2 67.9948L1026.22 68L1026.23 68.0049L1026.63 67.09ZM1016.26 60.46L1015.6 61.2074L1015.6 61.2144L1015.61 61.2212L1016.26 60.46ZM1008.78 50.77L1007.89 51.2172L1007.89 51.228L1008.78 50.77ZM1008.95 22.21L1009.85 22.6381L1009.86 22.6291L1008.95 22.21ZM1017.62 10.99L1016.99 10.216L1017.62 10.99ZM1031.22 4.02L1031.51 4.97839L1031.52 4.97561L1031.52 4.97266L1031.22 4.02ZM1069.81 4.02L1069.53 4.97936V4.97937L1069.81 4.02ZM1084.09 9.63L1085.03 9.97358L1085.33 9.1646L1084.57 8.7521L1084.09 9.63ZM1076.44 30.54L1075.98 31.4282L1076.99 31.9498L1077.38 30.8836L1076.44 30.54ZM1065.39 26.12L1065.07 27.0659L1065.08 27.0714L1065.1 27.0763L1065.39 26.12ZM1037.17 26.8L1037.7 27.648L1037.71 27.6423L1037.17 26.8ZM1034.62 40.23L1035.44 39.6608L1034.62 40.23ZM1038.87 44.31L1038.3 45.134L1038.33 45.154L1038.36 45.1719L1038.87 44.31ZM1045.33 47.54L1044.94 48.4591L1044.96 48.4702L1044.99 48.4798L1045.33 47.54ZM1053.49 50.43L1053.84 49.4922L1053.83 49.4885L1053.82 49.485L1053.49 50.43ZM1069.47 57.23L1069.02 58.1244L1069.03 58.1289L1069.04 58.1333L1069.47 57.23ZM1080.69 64.88L1079.98 65.5871L1079.99 65.5938L1080 65.6003L1080.69 64.88ZM1078.14 115.37L1078.76 116.159L1078.76 116.153L1078.14 115.37ZM1029.18 123.36L1029.34 122.373L1029.33 122.371L1029.31 122.369L1029.18 123.36ZM1017.96 121.15L1017.69 122.112L1017.69 122.114L1017.96 121.15ZM1009.63 118.26L1009.22 119.172L1009.23 119.176L1009.24 119.179L1009.63 118.26ZM1003.85 115.37L1002.91 115.036L1002.63 115.823L1003.35 116.238L1003.85 115.37ZM1011.33 94.29L1011.81 93.4132L1010.78 92.8482L1010.39 93.9556L1011.33 94.29ZM1024.25 99.56L1023.95 100.515L1023.97 100.519L1023.98 100.522L1024.25 99.56ZM1043.29 102.77C1047.07 102.77 1050.22 102.484 1052.7 101.893L1052.24 99.9472C1049.96 100.489 1046.99 100.77 1043.29 100.77V102.77ZM1052.73 101.885C1055.29 101.187 1057.39 100.298 1058.99 99.1922L1057.85 97.5478C1056.5 98.4816 1054.64 99.293 1052.21 99.9552L1052.73 101.885ZM1059.03 99.1626C1060.62 97.9374 1061.77 96.4923 1062.41 94.819L1060.55 94.101C1060.06 95.3744 1059.16 96.536 1057.81 97.5774L1059.03 99.1626ZM1062.41 94.819C1063.03 93.2154 1063.33 91.448 1063.33 89.53H1061.33C1061.33 91.2386 1061.06 92.7579 1060.55 94.101L1062.41 94.819ZM1063.33 89.53C1063.33 85.2966 1061.31 81.8351 1057.46 79.186L1056.32 80.834C1059.72 83.1716 1061.33 86.0568 1061.33 89.53H1063.33ZM1057.47 79.198C1053.72 76.4979 1047.36 73.683 1038.51 70.7313L1037.87 72.6287C1046.7 75.5703 1052.81 78.3087 1056.31 80.822L1057.47 79.198ZM1038.52 70.737C1034.69 69.3857 1030.86 67.8651 1027.03 66.1751L1026.23 68.0049C1030.1 69.7149 1033.98 71.2543 1037.86 72.623L1038.52 70.737ZM1027.06 66.1852C1023.28 64.4074 1019.9 62.2446 1016.91 59.6988L1015.61 61.2212C1018.74 63.8887 1022.28 66.146 1026.2 67.9948L1027.06 66.1852ZM1016.92 59.7126C1013.96 57.0767 1011.54 53.9456 1009.67 50.312L1007.89 51.228C1009.87 55.0744 1012.44 58.4033 1015.6 61.2074L1016.92 59.7126ZM1009.67 50.3228C1007.83 46.6399 1006.89 42.1545 1006.89 36.83H1004.89C1004.89 42.3855 1005.87 47.1934 1007.89 51.2172L1009.67 50.3228ZM1006.89 36.83C1006.89 31.5171 1007.89 26.7932 1009.85 22.6381L1008.05 21.7819C1005.93 26.2401 1004.89 31.2629 1004.89 36.83H1006.89ZM1009.86 22.6291C1011.84 18.3456 1014.63 14.7273 1018.25 11.7639L1016.99 10.216C1013.13 13.3727 1010.15 17.2344 1008.04 21.7909L1009.86 22.6291ZM1018.25 11.7639C1021.88 8.79951 1026.29 6.53286 1031.51 4.97839L1030.94 3.06161C1025.5 4.68048 1020.84 7.06048 1016.99 10.216L1018.25 11.7639ZM1031.52 4.97266C1036.74 3.30947 1042.64 2.46999 1049.24 2.46999V0.46999C1042.47 0.46999 1036.36 1.33052 1030.92 3.06734L1031.52 4.97266ZM1049.24 2.46999C1057.11 2.46999 1063.86 3.31328 1069.53 4.97936L1070.09 3.06063C1064.2 1.32671 1057.24 0.46999 1049.24 0.46999V2.46999ZM1069.53 4.97937C1075.27 6.66683 1079.95 8.51275 1083.61 10.5079L1084.57 8.7521C1080.75 6.66724 1075.92 4.77317 1070.09 3.06063L1069.53 4.97937ZM1083.15 9.28642L1075.5 30.1964L1077.38 30.8836L1085.03 9.97358L1083.15 9.28642ZM1076.9 29.6518C1073.55 27.9202 1069.81 26.4253 1065.68 25.1636L1065.1 27.0763C1069.13 28.308 1072.76 29.7597 1075.98 31.4282L1076.9 29.6518ZM1065.71 25.174C1061.61 23.7682 1056.68 23.08 1050.94 23.08V25.08C1056.53 25.08 1061.23 25.7518 1065.07 27.0659L1065.71 25.174ZM1050.94 23.08C1044.55 23.08 1039.71 23.9846 1036.63 25.9577L1037.71 27.6423C1040.29 25.9887 1044.64 25.08 1050.94 25.08V23.08ZM1036.64 25.952C1033.59 27.8613 1032.09 30.8719 1032.09 34.79H1034.09C1034.09 31.4548 1035.32 29.1387 1037.7 27.648L1036.64 25.952ZM1032.09 34.79C1032.09 37.105 1032.64 39.1273 1033.8 40.7992L1035.44 39.6608C1034.56 38.386 1034.09 36.7817 1034.09 34.79H1032.09ZM1033.8 40.7992C1034.9 42.3921 1036.41 43.8338 1038.3 45.134L1039.44 43.486C1037.7 42.2929 1036.38 41.0145 1035.44 39.6608L1033.8 40.7992ZM1038.36 45.1719C1040.33 46.3298 1042.52 47.425 1044.94 48.4591L1045.72 46.6208C1043.38 45.615 1041.26 44.5569 1039.38 43.4481L1038.36 45.1719ZM1044.99 48.4798C1047.49 49.3885 1050.21 50.3536 1053.16 51.375L1053.82 49.485C1050.88 48.4664 1048.16 47.5048 1045.67 46.6002L1044.99 48.4798ZM1053.14 51.3677C1059.24 53.6252 1064.53 55.8778 1069.02 58.1244L1069.92 56.3356C1065.34 54.0488 1059.98 51.7682 1053.84 49.4922L1053.14 51.3677ZM1069.04 58.1333C1073.49 60.2473 1077.13 62.7358 1079.98 65.5871L1081.4 64.1729C1078.36 61.1308 1074.52 58.5194 1069.9 56.3267L1069.04 58.1333ZM1080 65.6003C1082.95 68.4432 1085.13 71.7729 1086.55 75.5982L1088.43 74.9018C1086.9 70.7938 1084.55 67.2101 1081.38 64.1597L1080 65.6003ZM1086.55 75.5982C1087.97 79.4227 1088.7 84.1143 1088.7 89.7H1090.7C1090.7 83.9523 1089.95 79.0106 1088.43 74.9018L1086.55 75.5982ZM1088.7 89.7C1088.7 100.429 1084.96 108.68 1077.52 114.587L1078.76 116.153C1086.74 109.82 1090.7 100.958 1090.7 89.7H1088.7ZM1077.53 114.581C1070.07 120.391 1058.72 123.38 1043.29 123.38V125.38C1058.92 125.38 1070.8 122.362 1078.76 116.159L1077.53 114.581ZM1043.29 123.38C1038.12 123.38 1033.47 123.043 1029.34 122.373L1029.02 124.347C1033.28 125.037 1038.04 125.38 1043.29 125.38V123.38ZM1029.31 122.369C1025.16 121.807 1021.46 121.078 1018.23 120.186L1017.69 122.114C1021.03 123.035 1024.82 123.78 1029.05 124.351L1029.31 122.369ZM1018.24 120.188C1015.09 119.29 1012.36 118.34 1010.02 117.341L1009.24 119.179C1011.66 120.22 1014.48 121.196 1017.69 122.112L1018.24 120.188ZM1010.04 117.348C1007.79 116.337 1005.9 115.388 1004.35 114.502L1003.35 116.238C1004.98 117.165 1006.93 118.143 1009.22 119.172L1010.04 117.348ZM1004.79 115.704L1012.27 94.6244L1010.39 93.9556L1002.91 115.036L1004.79 115.704ZM1010.85 95.1668C1014.44 97.1341 1018.81 98.9145 1023.95 100.515L1024.55 98.6051C1019.49 97.0322 1015.25 95.2992 1011.81 93.4132L1010.85 95.1668ZM1023.98 100.522C1029.31 102.028 1035.75 102.77 1043.29 102.77V100.77C1035.87 100.77 1029.62 100.039 1024.52 98.5977L1023.98 100.522ZM1256.94 78.65L1255.98 78.9309L1255.98 78.9416L1255.98 78.9522L1256.94 78.65ZM1263.06 90.72L1262.26 91.3284L1262.27 91.3432L1262.29 91.3576L1263.06 90.72ZM1272.92 98.37L1273.34 97.4652L1272.92 98.37ZM1299.27 98.37L1298.85 97.4605L1298.84 97.4652L1299.27 98.37ZM1309.13 90.72L1308.34 90.0953L1308.34 90.0986L1309.13 90.72ZM1315.25 78.65L1314.29 78.3477L1314.29 78.3584L1314.29 78.3691L1315.25 78.65ZM1315.25 47.37L1314.28 47.6447L1314.29 47.6585L1314.29 47.6722L1315.25 47.37ZM1309.13 35.3L1308.33 35.9084L1308.34 35.9232L1308.35 35.9376L1309.13 35.3ZM1299.27 27.48L1298.84 28.3849L1298.85 28.3895L1299.27 27.48ZM1272.92 27.65L1273.34 28.5548L1273.35 28.5498L1273.36 28.5444L1272.92 27.65ZM1263.06 35.47L1262.27 34.8453L1262.27 34.8486L1263.06 35.47ZM1256.94 47.54L1255.98 47.2443L1255.98 47.2517L1255.98 47.2591L1256.94 47.54ZM1340.24 89.7L1339.31 89.3309L1339.3 89.3382L1340.24 89.7ZM1328 108.91L1328.69 109.625L1328.7 109.617L1328 108.91ZM1309.3 120.47L1308.96 119.529L1308.95 119.531L1309.3 120.47ZM1244.7 108.91L1244 109.625L1244 109.632L1244.7 108.91ZM1232.12 89.7L1231.19 90.069L1231.19 90.0738L1232.12 89.7ZM1232.29 36.49L1233.21 36.8756L1233.21 36.8707L1232.29 36.49ZM1245.04 17.11L1244.34 16.388L1244.34 16.3953L1245.04 17.11ZM1263.74 5.37999L1263.39 4.44062L1263.39 4.44242L1263.74 5.37999ZM1308.96 5.37999L1309.3 4.44064L1308.96 5.37999ZM1327.66 17.11L1328.35 16.3953L1327.66 17.11ZM1340.24 36.49L1339.31 36.859L1339.31 36.8638L1340.24 36.49ZM1253.9 63.01C1253.9 68.8673 1254.58 74.1773 1255.98 78.9309L1257.9 78.3691C1256.57 73.8293 1255.9 68.7127 1255.9 63.01H1253.9ZM1255.98 78.9522C1257.49 83.6944 1259.58 87.8246 1262.26 91.3284L1263.85 90.1116C1261.32 86.8153 1259.33 82.8989 1257.89 78.3478L1255.98 78.9522ZM1262.29 91.3576C1265.1 94.7574 1268.5 97.3987 1272.49 99.2748L1273.34 97.4652C1269.62 95.7146 1266.45 93.256 1263.83 90.0824L1262.29 91.3576ZM1272.49 99.2748C1276.5 101.161 1281.07 102.09 1286.18 102.09V100.09C1281.31 100.09 1277.04 99.206 1273.34 97.4652L1272.49 99.2748ZM1286.18 102.09C1291.17 102.09 1295.69 101.159 1299.69 99.2748L1298.84 97.4652C1295.14 99.2074 1290.92 100.09 1286.18 100.09V102.09ZM1299.68 99.2795C1303.79 97.4032 1307.2 94.7567 1309.91 91.3414L1308.34 90.0986C1305.84 93.2566 1302.68 95.7101 1298.85 97.4605L1299.68 99.2795ZM1309.91 91.3447C1312.72 87.832 1314.81 83.6887 1316.21 78.9309L1314.29 78.3691C1312.96 82.9046 1310.97 86.808 1308.34 90.0953L1309.91 91.3447ZM1316.2 78.9522C1317.71 74.1916 1318.46 68.8741 1318.46 63.01H1316.46C1316.46 68.7059 1315.73 73.815 1314.29 78.3477L1316.2 78.9522ZM1318.46 63.01C1318.46 57.1459 1317.71 51.8284 1316.2 47.0678L1314.29 47.6722C1315.73 52.205 1316.46 57.3141 1316.46 63.01H1318.46ZM1316.21 47.0953C1314.81 42.2235 1312.72 38.0713 1309.9 34.6624L1308.35 35.9376C1310.97 39.1021 1312.96 42.9964 1314.28 47.6447L1316.21 47.0953ZM1309.92 34.6916C1307.21 31.1594 1303.79 28.4505 1299.68 26.5705L1298.85 28.3895C1302.67 30.1361 1305.83 32.6406 1308.33 35.9084L1309.92 34.6916ZM1299.69 26.5752C1295.69 24.6907 1291.17 23.76 1286.18 23.76V25.76C1290.92 25.76 1295.14 26.6426 1298.84 28.3848L1299.69 26.5752ZM1286.18 23.76C1281.06 23.76 1276.48 24.7493 1272.47 26.7556L1273.36 28.5444C1277.06 26.6974 1281.32 25.76 1286.18 25.76V23.76ZM1272.49 26.7452C1268.49 28.625 1265.09 31.3288 1262.27 34.8453L1263.84 36.0947C1266.46 32.8112 1269.63 30.3016 1273.34 28.5548L1272.49 26.7452ZM1262.27 34.8486C1259.58 38.2486 1257.48 42.3878 1255.98 47.2443L1257.89 47.8357C1259.33 43.1722 1261.32 39.2647 1263.84 36.0914L1262.27 34.8486ZM1255.98 47.2591C1254.58 52.011 1253.9 57.264 1253.9 63.01H1255.9C1255.9 57.4226 1256.57 52.3623 1257.9 47.8209L1255.98 47.2591ZM1343.83 63.01C1343.83 72.9969 1342.31 81.7642 1339.31 89.331L1341.16 90.069C1344.28 82.2225 1345.83 73.1964 1345.83 63.01H1343.83ZM1339.3 89.3382C1336.4 96.8157 1332.39 103.098 1327.29 108.203L1328.7 109.617C1334.02 104.296 1338.18 97.771 1341.17 90.0618L1339.3 89.3382ZM1327.3 108.195C1322.19 113.189 1316.08 116.968 1308.96 119.529L1309.63 121.411C1317.01 118.759 1323.37 114.831 1328.69 109.625L1327.3 108.195ZM1308.95 119.531C1301.93 122.094 1294.34 123.38 1286.18 123.38V125.38C1294.56 125.38 1302.38 124.06 1309.64 121.409L1308.95 119.531ZM1286.18 123.38C1278.24 123.38 1270.76 122.095 1263.74 119.531L1263.05 121.409C1270.31 124.058 1278.02 125.38 1286.18 125.38V123.38ZM1263.74 119.531C1256.72 116.97 1250.61 113.189 1245.39 108.188L1244 109.632C1249.43 114.831 1255.79 118.757 1263.05 121.409L1263.74 119.531ZM1245.39 108.195C1240.18 103.088 1236.06 96.8041 1233.04 89.3262L1231.19 90.0738C1234.29 97.7826 1238.56 104.306 1244 109.625L1245.39 108.195ZM1233.04 89.331C1230.04 81.7642 1228.53 72.9969 1228.53 63.01H1226.53C1226.53 73.1964 1228.07 82.2225 1231.19 90.069L1233.04 89.331ZM1228.53 63.01C1228.53 53.0267 1230.1 44.3226 1233.21 36.8756L1231.36 36.1044C1228.13 43.8441 1226.53 52.82 1226.53 63.01H1228.53ZM1233.21 36.8707C1236.34 29.2747 1240.52 22.9325 1245.73 17.8247L1244.34 16.3953C1238.9 21.7142 1234.58 28.292 1231.36 36.1092L1233.21 36.8707ZM1245.73 17.832C1251.07 12.7128 1257.19 8.87639 1264.08 6.31756L1263.39 4.44242C1256.23 7.09692 1249.88 11.0806 1244.34 16.388L1245.73 17.832ZM1264.08 6.31935C1271.11 3.75396 1278.47 2.46999 1286.18 2.46999V0.46999C1278.24 0.46999 1270.65 1.79269 1263.39 4.44064L1264.08 6.31935ZM1286.18 2.46999C1294.11 2.46999 1301.59 3.7551 1308.61 6.31935L1309.3 4.44064C1302.04 1.79155 1294.33 0.46999 1286.18 0.46999V2.46999ZM1308.61 6.31935C1315.62 8.87829 1321.73 12.7127 1326.96 17.8247L1328.35 16.3953C1322.92 11.0806 1316.57 7.09503 1309.3 4.44064L1308.61 6.31935ZM1326.96 17.8247C1332.17 22.9296 1336.29 29.2677 1339.31 36.859L1341.16 36.121C1338.06 28.299 1333.79 21.717 1328.35 16.3953L1326.96 17.8247ZM1339.31 36.8638C1342.31 44.3142 1343.83 53.0226 1343.83 63.01H1345.83C1345.83 52.8241 1344.28 43.8524 1341.16 36.1162L1339.31 36.8638ZM1391.58 120.98L1391.21 121.91L1391.22 121.913L1391.23 121.916L1391.58 120.98ZM1376.62 111.29L1375.89 111.967L1375.9 111.977L1375.91 111.987L1376.62 111.29ZM1367.95 96.5L1367 96.7993L1367 96.8107L1367.01 96.8219L1367.95 96.5ZM1365.23 4.19V3.19H1364.23V4.19H1365.23ZM1391.75 4.19H1392.75V3.19H1391.75V4.19ZM1393.28 87.49L1392.32 87.7773L1392.33 87.7968L1392.34 87.816L1393.28 87.49ZM1397.7 95.65L1396.94 96.2941L1396.96 96.3159L1396.97 96.3366L1397.7 95.65ZM1404.5 100.07L1404.17 101.015L1404.19 101.019L1404.5 100.07ZM1428.98 95.48L1428.28 94.7629L1428.27 94.7729L1428.98 95.48ZM1435.1 4.19V3.19H1434.1V4.19H1435.1ZM1461.62 4.19H1462.62V3.19H1461.62V4.19ZM1458.73 96.5L1457.78 96.1838L1458.73 96.5ZM1449.89 111.46L1450.61 112.157L1450.62 112.147L1449.89 111.46ZM1413 123.38C1404.82 123.38 1397.8 122.258 1391.94 120.044L1391.23 121.916C1397.38 124.235 1404.64 125.38 1413 125.38V123.38ZM1391.95 120.05C1386.06 117.715 1381.19 114.559 1377.34 110.593L1375.91 111.987C1379.98 116.181 1385.09 119.485 1391.21 121.91L1391.95 120.05ZM1377.36 110.613C1373.6 106.528 1370.78 101.72 1368.9 96.1781L1367.01 96.8219C1368.97 102.613 1371.93 107.666 1375.89 111.967L1377.36 110.613ZM1368.91 96.2007C1367.13 90.5301 1366.23 84.2859 1366.23 77.46H1364.23C1364.23 84.4608 1365.15 90.9099 1367 96.7993L1368.91 96.2007ZM1366.23 77.46V4.19H1364.23V77.46H1366.23ZM1365.23 5.19H1391.75V3.19H1365.23V5.19ZM1390.75 4.19V75.25H1392.75V4.19H1390.75ZM1390.75 75.25C1390.75 80.0764 1391.27 84.2585 1392.32 87.7773L1394.24 87.2027C1393.26 83.9214 1392.75 79.9436 1392.75 75.25H1390.75ZM1392.34 87.816C1393.5 91.1925 1395.03 94.0275 1396.94 96.2941L1398.47 95.0059C1396.75 92.9658 1395.33 90.3608 1394.23 87.164L1392.34 87.816ZM1396.97 96.3366C1399.01 98.4913 1401.41 100.054 1404.17 101.014L1404.83 99.1255C1402.38 98.2725 1400.25 96.8887 1398.43 94.9634L1396.97 96.3366ZM1404.19 101.019C1407.02 101.963 1410.07 102.43 1413.34 102.43V100.43C1410.26 100.43 1407.43 99.9906 1404.82 99.1213L1404.19 101.019ZM1413.34 102.43C1420.02 102.43 1425.51 100.37 1429.69 96.1871L1428.27 94.7729C1424.52 98.5233 1419.58 100.43 1413.34 100.43V102.43ZM1429.68 96.197C1434.05 91.9487 1436.1 84.8678 1436.1 75.25H1434.1C1434.1 84.6722 1432.08 91.0779 1428.28 94.763L1429.68 96.197ZM1436.1 75.25V4.19H1434.1V75.25H1436.1ZM1435.1 5.19H1461.62V3.19H1435.1V5.19ZM1460.62 4.19V77.46H1462.62V4.19H1460.62ZM1460.62 77.46C1460.62 84.2801 1459.67 90.5184 1457.78 96.1838L1459.68 96.8162C1461.65 90.9216 1462.62 84.4665 1462.62 77.46H1460.62ZM1457.78 96.1838C1455.9 101.833 1453.03 106.691 1449.17 110.773L1450.62 112.147C1454.69 107.842 1457.71 102.727 1459.68 96.8162L1457.78 96.1838ZM1449.18 110.763C1445.33 114.722 1440.42 117.82 1434.41 120.042L1435.11 121.918C1441.35 119.607 1446.52 116.358 1450.61 112.157L1449.18 110.763ZM1434.41 120.042C1428.43 122.258 1421.3 123.38 1413 123.38V125.38C1421.48 125.38 1428.85 124.235 1435.11 121.918L1434.41 120.042ZM1562.27 12.35L1561.71 13.179L1561.71 13.1836L1562.27 12.35ZM1570.6 61.82L1569.79 61.2256L1569.79 61.2286L1570.6 61.82ZM1554.28 73.89L1553.9 72.9656L1552.66 73.4765L1553.5 74.5183L1554.28 73.89ZM1561.76 84.09L1560.93 84.6504L1560.94 84.6618L1561.76 84.09ZM1569.41 95.99L1568.55 96.5011L1568.56 96.5149L1568.56 96.5284L1569.41 95.99ZM1576.89 108.91L1576 109.375L1576.01 109.384L1576.89 108.91ZM1583.52 122V123H1585.1L1584.42 121.572L1583.52 122ZM1553.77 122L1552.89 122.488L1553.18 123H1553.77V122ZM1547.14 110.27L1546.26 110.747L1546.26 110.757L1546.27 110.766L1547.14 110.27ZM1540.34 98.71L1539.48 99.2283L1539.49 99.2377L1539.49 99.2469L1540.34 98.71ZM1533.54 88.17L1532.71 88.7247L1532.71 88.7312L1532.71 88.7377L1533.54 88.17ZM1526.74 78.99L1527.51 78.3498L1527.21 77.99H1526.74V78.99ZM1513.65 78.99V77.99H1512.65V78.99H1513.65ZM1513.65 122V123H1514.65V122H1513.65ZM1487.13 122H1486.13V123H1487.13V122ZM1487.13 5.89L1486.93 4.90868L1486.13 5.06703V5.89H1487.13ZM1504.98 3.50999L1504.9 2.51263L1504.9 2.51273L1504.98 3.50999ZM1517.9 25.61L1517.83 24.6125L1517.82 24.6129L1517.9 25.61ZM1513.65 25.95L1513.56 24.9535L1512.65 25.0299V25.95H1513.65ZM1513.65 57.91H1512.65V58.91H1513.65V57.91ZM1542.55 54.17L1542.05 53.3046L1542.55 54.17ZM1542.38 29.18L1541.88 30.0454L1541.89 30.0532L1541.9 30.0605L1542.38 29.18ZM1521.64 3.82999C1539.22 3.82999 1552.54 6.99002 1561.71 13.179L1562.83 11.521C1553.19 5.01664 1539.41 1.82999 1521.64 1.82999V3.82999ZM1561.71 13.1836C1570.79 19.197 1575.38 28.5974 1575.38 41.59H1577.38C1577.38 28.0626 1572.56 17.9696 1562.82 11.5164L1561.71 13.1836ZM1575.38 41.59C1575.38 49.7088 1573.49 56.2267 1569.79 61.2256L1571.4 62.4144C1575.41 56.9866 1577.38 50.0178 1577.38 41.59H1575.38ZM1569.79 61.2286C1566.18 66.1511 1560.9 70.0734 1553.9 72.9656L1554.66 74.8144C1561.93 71.8132 1567.53 67.6889 1571.4 62.4114L1569.79 61.2286ZM1553.5 74.5183C1555.86 77.4388 1558.33 80.8153 1560.93 84.6503L1562.59 83.5297C1559.97 79.658 1557.46 76.2346 1555.06 73.2617L1553.5 74.5183ZM1560.94 84.6618C1563.53 88.3807 1566.07 92.327 1568.55 96.5011L1570.27 95.4789C1567.76 91.2663 1565.2 87.2793 1562.58 83.5182L1560.94 84.6618ZM1568.56 96.5284C1571.16 100.583 1573.63 104.865 1576 109.375L1577.77 108.445C1575.38 103.888 1572.87 99.5568 1570.25 95.4516L1568.56 96.5284ZM1576.01 109.384C1578.38 113.79 1580.58 118.138 1582.61 122.428L1584.42 121.572C1582.37 117.249 1580.16 112.87 1577.77 108.436L1576.01 109.384ZM1583.52 121H1553.77V123H1583.52V121ZM1554.64 121.512C1552.49 117.656 1550.27 113.743 1548.01 109.774L1546.27 110.766C1548.53 114.73 1550.74 118.637 1552.89 122.488L1554.64 121.512ZM1548.02 109.793C1545.85 105.806 1543.57 101.933 1541.18 98.1731L1539.49 99.2469C1541.86 102.967 1544.12 106.8 1546.26 110.747L1548.02 109.793ZM1541.19 98.1917C1538.92 94.4365 1536.64 90.9065 1534.36 87.6023L1532.71 88.7377C1534.97 92.0068 1537.22 95.5035 1539.48 99.2283L1541.19 98.1917ZM1534.37 87.6153C1532.09 84.1901 1529.8 81.1009 1527.51 78.3498L1525.97 79.6302C1528.21 82.3191 1530.46 85.3499 1532.71 88.7247L1534.37 87.6153ZM1526.74 77.99H1513.65V79.99H1526.74V77.99ZM1512.65 78.99V122H1514.65V78.99H1512.65ZM1513.65 121H1487.13V123H1513.65V121ZM1488.13 122V5.89H1486.13V122H1488.13ZM1487.32 6.87131C1493.06 5.74597 1498.97 4.95777 1505.05 4.50726L1504.9 2.51273C1498.75 2.96889 1492.76 3.76736 1486.93 4.90868L1487.32 6.87131ZM1505.05 4.50736C1511.27 4.05532 1516.79 3.82999 1521.64 3.82999V1.82999C1516.73 1.82999 1511.16 2.058 1504.9 2.51263L1505.05 4.50736ZM1523.17 24.44C1521.22 24.44 1519.44 24.4972 1517.83 24.6125L1517.97 26.6075C1519.53 26.4961 1521.26 26.44 1523.17 26.44V24.44ZM1517.82 24.6129C1516.35 24.7264 1514.93 24.8399 1513.56 24.9535L1513.73 26.9465C1515.09 26.8334 1516.5 26.7202 1517.97 26.607L1517.82 24.6129ZM1512.65 25.95V57.91H1514.65V25.95H1512.65ZM1513.65 58.91H1521.13V56.91H1513.65V58.91ZM1521.13 58.91C1531.13 58.91 1538.5 57.6684 1543.05 55.0354L1542.05 53.3046C1537.98 55.6582 1531.07 56.91 1521.13 56.91V58.91ZM1543.05 55.0354C1547.73 52.3236 1550.01 47.6965 1550.01 41.42H1548.01C1548.01 47.1568 1545.98 51.0297 1542.05 53.3046L1543.05 55.0354ZM1550.01 41.42C1550.01 35.3396 1547.65 30.8838 1542.85 28.2995L1541.9 30.0605C1545.94 32.2362 1548.01 35.9404 1548.01 41.42H1550.01ZM1542.88 28.3146C1538.35 25.691 1531.73 24.44 1523.17 24.44V26.44C1531.6 26.44 1537.79 27.6824 1541.88 30.0454L1542.88 28.3146ZM1651.22 108.4L1650.49 109.083L1650.49 109.088L1651.22 108.4ZM1640.85 37L1641.77 37.3738L1641.78 37.369L1640.85 37ZM1653.43 17.62L1654.13 18.3347L1654.13 18.3271L1653.43 17.62ZM1672.47 5.54999L1672.12 4.61189L1672.47 5.54999ZM1710.04 2.66L1709.84 3.64161L1709.86 3.64418L1709.87 3.64639L1710.04 2.66ZM1720.75 5.21L1720.43 6.15868L1720.45 6.16401L1720.46 6.16879L1720.75 5.21ZM1732.82 10.48L1733.76 10.8163L1734.03 10.0585L1733.35 9.632L1732.82 10.48ZM1725.17 31.9L1724.7 32.7831L1725.72 33.3259L1726.11 32.2363L1725.17 31.9ZM1712.42 26.97L1712.14 27.9315L1712.15 27.9332L1712.42 26.97ZM1684.03 26.97L1683.7 26.024L1683.69 26.027L1684.03 26.97ZM1673.66 33.6L1672.95 32.8929L1673.66 33.6ZM1665.5 77.8L1664.52 78.0316L1664.53 78.0454L1664.53 78.0591L1665.5 77.8ZM1671.28 89.87L1670.48 90.4784L1670.49 90.4866L1670.49 90.4947L1671.28 89.87ZM1681.82 98.03L1681.39 98.9337L1681.4 98.9384L1681.41 98.9428L1681.82 98.03ZM1707.83 100.24L1707.68 99.2508L1707.83 100.24ZM1715.99 98.71L1716.22 99.6828L1716.24 99.6776L1716.26 99.6715L1715.99 98.71ZM1722.28 96.5L1722.68 97.4162L1722.28 96.5ZM1727.21 94.29L1728.15 93.9647L1727.79 92.9183L1726.79 93.382L1727.21 94.29ZM1734.52 115.54L1735.03 116.395L1735.72 115.977L1735.46 115.215L1734.52 115.54ZM1718.71 121.66L1718.96 122.626L1718.71 121.66ZM1695.08 123.38C1676.11 123.38 1661.79 118.11 1651.94 107.712L1650.49 109.088C1660.82 119.996 1675.74 125.38 1695.08 125.38V123.38ZM1651.95 107.717C1642.2 97.3046 1637.26 82.4518 1637.26 63.01H1635.26C1635.26 82.7815 1640.29 98.1887 1650.49 109.083L1651.95 107.717ZM1637.26 63.01C1637.26 53.3675 1638.77 44.828 1641.77 37.3738L1639.92 36.6262C1636.8 44.3587 1635.26 53.1591 1635.26 63.01H1637.26ZM1641.78 37.369C1644.79 29.7777 1648.91 23.4397 1654.13 18.3347L1652.73 16.9053C1647.29 22.227 1643.02 28.809 1639.92 36.631L1641.78 37.369ZM1654.13 18.3271C1659.35 13.1069 1665.58 9.16023 1672.81 6.48809L1672.12 4.61189C1664.62 7.37976 1658.15 11.4797 1652.72 16.9129L1654.13 18.3271ZM1672.81 6.48809C1680.06 3.81282 1687.93 2.46999 1696.44 2.46999V0.46999C1687.72 0.46999 1679.61 1.84717 1672.12 4.61189L1672.81 6.48809ZM1696.44 2.46999C1701.37 2.46999 1705.84 2.86264 1709.84 3.64161L1710.23 1.67838C1706.07 0.870682 1701.47 0.46999 1696.44 0.46999V2.46999ZM1709.87 3.64639C1713.91 4.32007 1717.43 5.15904 1720.43 6.15868L1721.06 4.26131C1717.94 3.22094 1714.32 2.35992 1710.2 1.6736L1709.87 3.64639ZM1720.46 6.16879C1723.49 7.06485 1725.98 8.00866 1727.95 8.99442L1728.84 7.20557C1726.73 6.15134 1724.13 5.16847 1721.03 4.2512L1720.46 6.16879ZM1727.95 8.99442C1729.98 10.0124 1731.42 10.7881 1732.29 11.328L1733.35 9.632C1732.4 9.0386 1730.89 8.22762 1728.84 7.20557L1727.95 8.99442ZM1731.87 10.1437L1724.22 31.5637L1726.11 32.2363L1733.76 10.8163L1731.87 10.1437ZM1725.64 31.0169C1721.93 29.0496 1717.61 27.3819 1712.68 26.0068L1712.15 27.9332C1716.97 29.2781 1721.15 30.897 1724.7 32.7831L1725.64 31.0169ZM1712.69 26.0085C1707.82 24.6178 1702.29 23.93 1696.1 23.93V25.93C1702.14 25.93 1707.49 26.6022 1712.14 27.9315L1712.69 26.0085ZM1696.1 23.93C1691.9 23.93 1687.77 24.6293 1683.7 26.0241L1684.35 27.9159C1688.22 26.5907 1692.13 25.93 1696.1 25.93V23.93ZM1683.69 26.027C1679.69 27.4396 1676.11 29.7337 1672.95 32.8929L1674.36 34.3071C1677.32 31.3463 1680.65 29.2204 1684.36 27.913L1683.69 26.027ZM1672.95 32.8929C1669.88 35.9588 1667.43 39.9409 1665.58 44.804L1667.45 45.516C1669.22 40.8591 1671.54 37.1345 1674.36 34.3071L1672.95 32.8929ZM1665.58 44.804C1663.71 49.7087 1662.8 55.6167 1662.8 62.5H1664.8C1664.8 55.7833 1665.69 50.1313 1667.45 45.516L1665.58 44.804ZM1662.8 62.5C1662.8 68.0094 1663.37 73.1878 1664.52 78.0316L1666.47 77.5684C1665.36 72.8922 1664.8 67.8706 1664.8 62.5H1662.8ZM1664.53 78.0591C1665.81 82.8169 1667.79 86.9624 1670.48 90.4784L1672.07 89.2616C1669.55 85.9776 1667.68 82.0765 1666.46 77.5409L1664.53 78.0591ZM1670.49 90.4947C1673.32 94.0242 1676.96 96.835 1681.39 98.9337L1682.24 97.1263C1678.06 95.1451 1674.67 92.5158 1672.06 89.2453L1670.49 90.4947ZM1681.41 98.9428C1685.87 100.941 1691.24 101.92 1697.46 101.92V99.92C1691.44 99.92 1686.37 98.972 1682.22 97.1172L1681.41 98.9428ZM1697.46 101.92C1701.35 101.92 1704.85 101.691 1707.97 101.229L1707.68 99.2508C1704.68 99.6954 1701.27 99.92 1697.46 99.92V101.92ZM1707.97 101.229C1711.05 100.773 1713.8 100.258 1716.22 99.6828L1715.75 97.7372C1713.41 98.2957 1710.72 98.8006 1707.68 99.2508L1707.97 101.229ZM1716.26 99.6715C1718.67 98.9821 1720.81 98.2312 1722.68 97.4162L1721.88 95.5838C1720.11 96.3555 1718.06 97.0779 1715.71 97.7485L1716.26 99.6715ZM1722.68 97.4162C1724.49 96.6207 1726.14 95.8813 1727.62 95.198L1726.79 93.382C1725.32 94.0587 1723.68 94.7926 1721.88 95.5838L1722.68 97.4162ZM1726.26 94.6153L1733.57 115.865L1735.46 115.215L1728.15 93.9647L1726.26 94.6153ZM1734 114.685C1730.37 116.882 1725.21 118.892 1718.45 120.694L1718.96 122.626C1725.81 120.801 1731.18 118.732 1735.03 116.395L1734 114.685ZM1718.45 120.694C1711.75 122.48 1703.96 123.38 1695.08 123.38V125.38C1704.09 125.38 1712.06 124.467 1718.96 122.626L1718.45 120.694ZM1830.3 99.22H1831.3V98.22H1830.3V99.22ZM1830.3 122V123H1831.3V122H1830.3ZM1751.59 122H1750.59V123H1751.59V122ZM1751.59 4.19V3.19H1750.59V4.19H1751.59ZM1778.11 4.19H1779.11V3.19H1778.11V4.19ZM1778.11 99.22H1777.11V100.22H1778.11V99.22ZM1829.3 99.22V122H1831.3V99.22H1829.3ZM1830.3 121H1751.59V123H1830.3V121ZM1752.59 122V4.19H1750.59V122H1752.59ZM1751.59 5.19H1778.11V3.19H1751.59V5.19ZM1777.11 4.19V99.22H1779.11V4.19H1777.11ZM1778.11 100.22H1830.3V98.22H1778.11V100.22ZM1847.38 4.19V3.19H1846.38V4.19H1847.38ZM1873.9 4.19H1874.9V3.19H1873.9V4.19ZM1873.9 122V123H1874.9V122H1873.9ZM1847.38 122H1846.38V123H1847.38V122ZM1847.38 5.19H1873.9V3.19H1847.38V5.19ZM1872.9 4.19V122H1874.9V4.19H1872.9ZM1873.9 121H1847.38V123H1873.9V121ZM1848.38 122V4.19H1846.38V122H1848.38ZM1901.17 122H1900.17V123H1901.17V122ZM1901.17 4.19V3.19H1900.17V4.19H1901.17ZM1980.73 4.19H1981.73V3.19H1980.73V4.19ZM1980.73 26.46V27.46H1981.73V26.46H1980.73ZM1927.69 26.46V25.46H1926.69V26.46H1927.69ZM1927.69 49.58H1926.69V50.58H1927.69V49.58ZM1974.78 49.58H1975.78V48.58H1974.78V49.58ZM1974.78 71.34V72.34H1975.78V71.34H1974.78ZM1927.69 71.34V70.34H1926.69V71.34H1927.69ZM1927.69 99.73H1926.69V100.73H1927.69V99.73ZM1984.64 99.73H1985.64V98.73H1984.64V99.73ZM1984.64 122V123H1985.64V122H1984.64ZM1902.17 122V4.19H1900.17V122H1902.17ZM1901.17 5.19H1980.73V3.19H1901.17V5.19ZM1979.73 4.19V26.46H1981.73V4.19H1979.73ZM1980.73 25.46H1927.69V27.46H1980.73V25.46ZM1926.69 26.46V49.58H1928.69V26.46H1926.69ZM1927.69 50.58H1974.78V48.58H1927.69V50.58ZM1973.78 49.58V71.34H1975.78V49.58H1973.78ZM1974.78 70.34H1927.69V72.34H1974.78V70.34ZM1926.69 71.34V99.73H1928.69V71.34H1926.69ZM1927.69 100.73H1984.64V98.73H1927.69V100.73ZM1983.64 99.73V122H1985.64V99.73H1983.64ZM1984.64 121H1901.17V123H1984.64V121ZM2083.32 122L2082.44 122.491L2082.73 123H2083.32V122ZM2058.67 82.05L2057.84 82.608L2058.67 82.05ZM2030.45 44.82L2031.21 44.1704L2029.45 42.1101V44.82H2030.45ZM2030.45 122V123H2031.45V122H2030.45ZM2004.27 122H2003.27V123H2004.27V122ZM2004.27 4.19V3.19H2003.27V4.19H2004.27ZM2025.86 4.19L2026.56 3.48289L2026.27 3.19H2025.86V4.19ZM2038.27 17.96L2039.03 17.3198L2038.27 17.96ZM2052.04 35.47L2051.23 36.0677L2051.24 36.0759L2051.25 36.0839L2052.04 35.47ZM2066.15 54.68L2065.32 55.2507L2065.33 55.2572L2066.15 54.68ZM2079.24 73.72L2078.4 74.2747L2080.24 77.0228V73.72H2079.24ZM2079.24 4.19V3.19H2078.24V4.19H2079.24ZM2105.59 4.19H2106.59V3.19H2105.59V4.19ZM2105.59 122V123H2106.59V122H2105.59ZM2084.19 121.509C2076.58 107.999 2068.35 94.6601 2059.5 81.492L2057.84 82.608C2066.66 95.7333 2074.86 109.027 2082.44 122.491L2084.19 121.509ZM2059.5 81.492C2050.64 68.3145 2041.21 55.8738 2031.21 44.1704L2029.69 45.4696C2039.63 57.1128 2049.02 69.4922 2057.84 82.608L2059.5 81.492ZM2029.45 44.82V122H2031.45V44.82H2029.45ZM2030.45 121H2004.27V123H2030.45V121ZM2005.27 122V4.19H2003.27V122H2005.27ZM2004.27 5.19H2025.86V3.19H2004.27V5.19ZM2025.15 4.8971C2028.86 8.60998 2032.98 13.1762 2037.5 18.6002L2039.03 17.3198C2034.49 11.8638 2030.33 7.25002 2026.56 3.48289L2025.15 4.8971ZM2037.5 18.6002C2042.02 24.025 2046.6 29.8474 2051.23 36.0677L2052.84 34.8723C2048.18 28.6259 2043.58 22.7749 2039.03 17.3198L2037.5 18.6002ZM2051.25 36.0839C2056 42.1891 2060.69 48.578 2065.32 55.2506L2066.97 54.1093C2062.31 47.4087 2057.6 40.9909 2052.83 34.8561L2051.25 36.0839ZM2065.33 55.2572C2069.97 61.8238 2074.33 68.1629 2078.4 74.2747L2080.07 73.1653C2075.98 67.037 2071.61 60.6828 2066.96 54.1028L2065.33 55.2572ZM2080.24 73.72V4.19H2078.24V73.72H2080.24ZM2079.24 5.19H2105.59V3.19H2079.24V5.19ZM2104.59 4.19V122H2106.59V4.19H2104.59ZM2105.59 121H2083.32V123H2105.59V121ZM2220.14 4.19H2221.14V3.19H2220.14V4.19ZM2220.14 26.8V27.8H2221.14V26.8H2220.14ZM2184.61 26.8V25.8H2183.61V26.8H2184.61ZM2184.61 122V123H2185.61V122H2184.61ZM2158.09 122H2157.09V123H2158.09V122ZM2158.09 26.8H2159.09V25.8H2158.09V26.8ZM2122.56 26.8H2121.56V27.8H2122.56V26.8ZM2122.56 4.19V3.19H2121.56V4.19H2122.56ZM2219.14 4.19V26.8H2221.14V4.19H2219.14ZM2220.14 25.8H2184.61V27.8H2220.14V25.8ZM2183.61 26.8V122H2185.61V26.8H2183.61ZM2184.61 121H2158.09V123H2184.61V121ZM2159.09 122V26.8H2157.09V122H2159.09ZM2158.09 25.8H2122.56V27.8H2158.09V25.8ZM2123.56 26.8V4.19H2121.56V26.8H2123.56ZM2122.56 5.19H2220.14V3.19H2122.56V5.19ZM2278.5 100.92L2278.73 101.893L2278.74 101.889L2278.76 101.885L2278.5 100.92ZM2284.45 98.37L2285.02 99.1922L2285.04 99.1779L2285.06 99.1626L2284.45 98.37ZM2287.51 94.46L2288.44 94.819L2287.51 94.46ZM2282.92 80.01L2282.33 80.822L2282.34 80.8281L2282.35 80.834L2282.92 80.01ZM2264.22 71.68L2263.88 72.623L2263.89 72.6259L2263.9 72.6287L2264.22 71.68ZM2252.66 67.09L2252.23 67.9948L2252.24 68L2252.25 68.0049L2252.66 67.09ZM2242.29 60.46L2241.62 61.2074L2241.63 61.2144L2241.64 61.2212L2242.29 60.46ZM2234.81 50.77L2233.91 51.2172L2233.92 51.228L2234.81 50.77ZM2234.98 22.21L2235.88 22.6381L2235.88 22.6291L2234.98 22.21ZM2243.65 10.99L2243.01 10.216L2243.65 10.99ZM2257.25 4.02L2257.53 4.97839L2257.54 4.97561L2257.55 4.97266L2257.25 4.02ZM2295.84 4.02L2295.55 4.97936V4.97937L2295.84 4.02ZM2310.12 9.63L2311.06 9.97358L2311.35 9.1646L2310.59 8.7521L2310.12 9.63ZM2302.47 30.54L2302.01 31.4282L2303.01 31.9498L2303.41 30.8836L2302.47 30.54ZM2291.42 26.12L2291.09 27.0659L2291.11 27.0714L2291.12 27.0763L2291.42 26.12ZM2263.2 26.8L2263.73 27.648L2263.74 27.6423L2263.2 26.8ZM2260.65 40.23L2261.47 39.6608L2260.65 40.23ZM2264.9 44.31L2264.33 45.134L2264.36 45.154L2264.39 45.1719L2264.9 44.31ZM2271.36 47.54L2270.96 48.4591L2270.99 48.4702L2271.01 48.4798L2271.36 47.54ZM2279.52 50.43L2279.86 49.4922L2279.85 49.4885L2279.84 49.485L2279.52 50.43ZM2295.5 57.23L2295.05 58.1244L2295.06 58.1289L2295.07 58.1333L2295.5 57.23ZM2306.72 64.88L2306.01 65.5871L2306.02 65.5938L2306.02 65.6003L2306.72 64.88ZM2304.17 115.37L2304.78 116.159L2304.79 116.153L2304.17 115.37ZM2255.21 123.36L2255.37 122.373L2255.35 122.371L2255.34 122.369L2255.21 123.36ZM2243.99 121.15L2243.71 122.112L2243.72 122.114L2243.99 121.15ZM2235.66 118.26L2235.25 119.172L2235.25 119.176L2235.26 119.179L2235.66 118.26ZM2229.88 115.37L2228.93 115.036L2228.65 115.823L2229.38 116.238L2229.88 115.37ZM2237.36 94.29L2237.84 93.4132L2236.81 92.8482L2236.41 93.9556L2237.36 94.29ZM2250.28 99.56L2249.98 100.515L2249.99 100.519L2250 100.522L2250.28 99.56ZM2269.32 102.77C2273.1 102.77 2276.24 102.484 2278.73 101.893L2278.26 99.9472C2275.99 100.489 2273.01 100.77 2269.32 100.77V102.77ZM2278.76 101.885C2281.32 101.187 2283.42 100.298 2285.02 99.1922L2283.88 97.5478C2282.53 98.4816 2280.66 99.293 2278.23 99.9552L2278.76 101.885ZM2285.06 99.1626C2286.65 97.9374 2287.8 96.4923 2288.44 94.819L2286.57 94.101C2286.08 95.3744 2285.19 96.536 2283.84 97.5774L2285.06 99.1626ZM2288.44 94.819C2289.06 93.2154 2289.36 91.448 2289.36 89.53H2287.36C2287.36 91.2386 2287.09 92.7579 2286.57 94.101L2288.44 94.819ZM2289.36 89.53C2289.36 85.2966 2287.34 81.8351 2283.48 79.186L2282.35 80.834C2285.75 83.1716 2287.36 86.0568 2287.36 89.53H2289.36ZM2283.5 79.198C2279.74 76.4979 2273.39 73.683 2264.53 70.7313L2263.9 72.6287C2272.72 75.5703 2278.84 78.3087 2282.33 80.822L2283.5 79.198ZM2264.55 70.737C2260.72 69.3857 2256.89 67.8651 2253.06 66.1751L2252.25 68.0049C2256.13 69.7149 2260.01 71.2543 2263.88 72.623L2264.55 70.737ZM2253.08 66.1852C2249.3 64.4074 2245.92 62.2446 2242.93 59.6988L2241.64 61.2212C2244.77 63.8887 2248.3 66.146 2252.23 67.9948L2253.08 66.1852ZM2242.95 59.7126C2239.98 57.0767 2237.57 53.9456 2235.69 50.312L2233.92 51.228C2235.9 55.0744 2238.47 58.4033 2241.62 61.2074L2242.95 59.7126ZM2235.7 50.3228C2233.86 46.6399 2232.92 42.1545 2232.92 36.83H2230.92C2230.92 42.3855 2231.9 47.1934 2233.91 51.2172L2235.7 50.3228ZM2232.92 36.83C2232.92 31.5171 2233.91 26.7932 2235.88 22.6381L2234.07 21.7819C2231.96 26.2401 2230.92 31.2629 2230.92 36.83H2232.92ZM2235.88 22.6291C2237.86 18.3456 2240.66 14.7273 2244.28 11.7639L2243.01 10.216C2239.15 13.3727 2236.17 17.2344 2234.07 21.7909L2235.88 22.6291ZM2244.28 11.7639C2247.9 8.79951 2252.31 6.53286 2257.53 4.97839L2256.96 3.06161C2251.53 4.68048 2246.87 7.06048 2243.01 10.216L2244.28 11.7639ZM2257.55 4.97266C2262.76 3.30947 2268.66 2.46999 2275.27 2.46999V0.46999C2268.5 0.46999 2262.38 1.33052 2256.94 3.06734L2257.55 4.97266ZM2275.27 2.46999C2283.13 2.46999 2289.89 3.31328 2295.55 4.97936L2296.12 3.06063C2290.22 1.32671 2283.27 0.46999 2275.27 0.46999V2.46999ZM2295.55 4.97937C2301.29 6.66683 2305.98 8.51275 2309.64 10.5079L2310.59 8.7521C2306.77 6.66724 2301.94 4.77317 2296.12 3.06063L2295.55 4.97937ZM2309.18 9.28642L2301.53 30.1964L2303.41 30.8836L2311.06 9.97358L2309.18 9.28642ZM2302.93 29.6518C2299.58 27.9202 2295.84 26.4253 2291.71 25.1636L2291.12 27.0763C2295.15 28.308 2298.78 29.7597 2302.01 31.4282L2302.93 29.6518ZM2291.74 25.174C2287.64 23.7682 2282.71 23.08 2276.97 23.08V25.08C2282.56 25.08 2287.26 25.7518 2291.09 27.0659L2291.74 25.174ZM2276.97 23.08C2270.57 23.08 2265.74 23.9846 2262.66 25.9577L2263.74 27.6423C2266.32 25.9887 2270.67 25.08 2276.97 25.08V23.08ZM2262.67 25.952C2259.61 27.8613 2258.12 30.8719 2258.12 34.79H2260.12C2260.12 31.4548 2261.34 29.1387 2263.73 27.648L2262.67 25.952ZM2258.12 34.79C2258.12 37.105 2258.67 39.1273 2259.82 40.7992L2261.47 39.6608C2260.59 38.386 2260.12 36.7817 2260.12 34.79H2258.12ZM2259.82 40.7992C2260.93 42.3921 2262.44 43.8338 2264.33 45.134L2265.46 43.486C2263.73 42.2929 2262.41 41.0145 2261.47 39.6608L2259.82 40.7992ZM2264.39 45.1719C2266.36 46.3298 2268.55 47.425 2270.96 48.4591L2271.75 46.6208C2269.4 45.615 2267.29 44.5569 2265.4 43.4481L2264.39 45.1719ZM2271.01 48.4798C2273.51 49.3885 2276.24 50.3536 2279.19 51.375L2279.84 49.485C2276.9 48.4664 2274.19 47.5048 2271.7 46.6002L2271.01 48.4798ZM2279.17 51.3677C2285.26 53.6252 2290.56 55.8778 2295.05 58.1244L2295.94 56.3356C2291.37 54.0488 2286.01 51.7682 2279.86 49.4922L2279.17 51.3677ZM2295.07 58.1333C2299.52 60.2473 2303.16 62.7358 2306.01 65.5871L2307.42 64.1729C2304.38 61.1308 2300.54 58.5194 2295.93 56.3267L2295.07 58.1333ZM2306.02 65.6003C2308.97 68.4432 2311.16 71.7729 2312.58 75.5982L2314.45 74.9018C2312.93 70.7938 2310.58 67.2101 2307.41 64.1597L2306.02 65.6003ZM2312.58 75.5982C2314 79.4227 2314.73 84.1143 2314.73 89.7H2316.73C2316.73 83.9523 2315.98 79.0106 2314.45 74.9018L2312.58 75.5982ZM2314.73 89.7C2314.73 100.429 2310.98 108.68 2303.54 114.587L2304.79 116.153C2312.76 109.82 2316.73 100.958 2316.73 89.7H2314.73ZM2303.55 114.581C2296.1 120.391 2284.74 123.38 2269.32 123.38V125.38C2284.94 125.38 2296.82 122.362 2304.78 116.159L2303.55 114.581ZM2269.32 123.38C2264.14 123.38 2259.5 123.043 2255.37 122.373L2255.05 124.347C2259.3 125.037 2264.06 125.38 2269.32 125.38V123.38ZM2255.34 122.369C2251.18 121.807 2247.49 121.078 2244.25 120.186L2243.72 122.114C2247.06 123.035 2250.84 123.78 2255.07 124.351L2255.34 122.369ZM2244.26 120.188C2241.12 119.29 2238.38 118.34 2236.05 117.341L2235.26 119.179C2237.69 120.22 2240.51 121.196 2243.71 122.112L2244.26 120.188ZM2236.07 117.348C2233.82 116.337 2231.92 115.388 2230.37 114.502L2229.38 116.238C2231 117.165 2232.96 118.143 2235.25 119.172L2236.07 117.348ZM2230.82 115.704L2238.3 94.6244L2236.41 93.9556L2228.93 115.036L2230.82 115.704ZM2236.88 95.1668C2240.46 97.1341 2244.83 98.9145 2249.98 100.515L2250.57 98.6051C2245.52 97.0322 2241.28 95.2992 2237.84 93.4132L2236.88 95.1668ZM2250 100.522C2255.33 102.028 2261.78 102.77 2269.32 102.77V100.77C2261.9 100.77 2255.65 100.039 2250.55 98.5977L2250 100.522ZM2482.96 78.65L2482 78.9309L2482 78.9416L2482.01 78.9522L2482.96 78.65ZM2489.08 90.72L2488.29 91.3284L2488.3 91.3432L2488.31 91.3576L2489.08 90.72ZM2498.94 98.37L2499.37 97.4652L2498.94 98.37ZM2525.29 98.37L2524.88 97.4605L2524.86 97.4652L2525.29 98.37ZM2535.15 90.72L2534.37 90.0953L2534.37 90.0986L2535.15 90.72ZM2541.27 78.65L2540.32 78.3477L2540.31 78.3584L2540.31 78.3691L2541.27 78.65ZM2541.27 47.37L2540.31 47.6447L2540.31 47.6585L2540.32 47.6722L2541.27 47.37ZM2535.15 35.3L2534.36 35.9084L2534.37 35.9232L2534.38 35.9376L2535.15 35.3ZM2525.29 27.48L2524.86 28.3849L2524.88 28.3895L2525.29 27.48ZM2498.94 27.65L2499.37 28.5548L2499.38 28.5498L2499.39 28.5444L2498.94 27.65ZM2489.08 35.47L2488.3 34.8453L2488.3 34.8486L2489.08 35.47ZM2482.96 47.54L2482.01 47.2443L2482 47.2517L2482 47.2591L2482.96 47.54ZM2566.26 89.7L2565.33 89.3309L2565.33 89.3382L2566.26 89.7ZM2554.02 108.91L2554.72 109.625L2554.73 109.617L2554.02 108.91ZM2535.32 120.47L2534.98 119.529L2534.98 119.531L2535.32 120.47ZM2470.72 108.91L2470.02 109.625L2470.03 109.632L2470.72 108.91ZM2458.14 89.7L2457.21 90.069L2457.21 90.0738L2458.14 89.7ZM2458.31 36.49L2459.23 36.8756L2459.24 36.8707L2458.31 36.49ZM2471.06 17.11L2470.37 16.388L2470.36 16.3953L2471.06 17.11ZM2489.76 5.37999L2489.42 4.44062L2489.41 4.44242L2489.76 5.37999ZM2534.98 5.37999L2535.32 4.44064L2534.98 5.37999ZM2553.68 17.11L2554.38 16.3953L2553.68 17.11ZM2566.26 36.49L2565.33 36.859L2565.33 36.8638L2566.26 36.49ZM2479.92 63.01C2479.92 68.8673 2480.61 74.1773 2482 78.9309L2483.92 78.3691C2482.59 73.8293 2481.92 68.7127 2481.92 63.01H2479.92ZM2482.01 78.9522C2483.51 83.6944 2485.6 87.8246 2488.29 91.3284L2489.87 90.1116C2487.35 86.8153 2485.36 82.8989 2483.91 78.3478L2482.01 78.9522ZM2488.31 91.3576C2491.12 94.7574 2494.53 97.3987 2498.51 99.2748L2499.37 97.4652C2495.65 95.7146 2492.48 93.256 2489.85 90.0824L2488.31 91.3576ZM2498.51 99.2748C2502.52 101.161 2507.09 102.09 2512.2 102.09V100.09C2507.34 100.09 2503.07 99.206 2499.37 97.4652L2498.51 99.2748ZM2512.2 102.09C2517.2 102.09 2521.71 101.159 2525.72 99.2748L2524.86 97.4652C2521.16 99.2074 2516.95 100.09 2512.2 100.09V102.09ZM2525.71 99.2795C2529.81 97.4032 2533.23 94.7567 2535.93 91.3414L2534.37 90.0986C2531.86 93.2566 2528.7 95.7101 2524.88 97.4605L2525.71 99.2795ZM2535.93 91.3447C2538.74 87.832 2540.84 83.6887 2542.23 78.9309L2540.31 78.3691C2538.98 82.9046 2537 86.808 2534.37 90.0953L2535.93 91.3447ZM2542.22 78.9522C2543.73 74.1916 2544.48 68.8741 2544.48 63.01H2542.48C2542.48 68.7059 2541.75 73.815 2540.32 78.3477L2542.22 78.9522ZM2544.48 63.01C2544.48 57.1459 2543.73 51.8284 2542.22 47.0678L2540.32 47.6722C2541.75 52.205 2542.48 57.3141 2542.48 63.01H2544.48ZM2542.23 47.0953C2540.84 42.2235 2538.74 38.0713 2535.92 34.6624L2534.38 35.9376C2537 39.1021 2538.98 42.9964 2540.31 47.6447L2542.23 47.0953ZM2535.94 34.6916C2533.24 31.1594 2529.82 28.4505 2525.71 26.5705L2524.88 28.3895C2528.7 30.1361 2531.85 32.6406 2534.36 35.9084L2535.94 34.6916ZM2525.72 26.5752C2521.71 24.6907 2517.2 23.76 2512.2 23.76V25.76C2516.95 25.76 2521.16 26.6426 2524.86 28.3848L2525.72 26.5752ZM2512.2 23.76C2507.08 23.76 2502.51 24.7493 2498.49 26.7556L2499.39 28.5444C2503.08 26.6974 2507.34 25.76 2512.2 25.76V23.76ZM2498.51 26.7452C2494.52 28.625 2491.11 31.3288 2488.3 34.8453L2489.86 36.0947C2492.49 32.8112 2495.65 30.3016 2499.37 28.5548L2498.51 26.7452ZM2488.3 34.8486C2485.6 38.2486 2483.51 42.3878 2482.01 47.2443L2483.92 47.8357C2485.36 43.1722 2487.35 39.2647 2489.86 36.0914L2488.3 34.8486ZM2482 47.2591C2480.61 52.011 2479.92 57.264 2479.92 63.01H2481.92C2481.92 57.4226 2482.59 52.3623 2483.92 47.8209L2482 47.2591ZM2569.85 63.01C2569.85 72.9969 2568.34 81.7642 2565.33 89.331L2567.19 90.069C2570.31 82.2225 2571.85 73.1964 2571.85 63.01H2569.85ZM2565.33 89.3382C2562.43 96.8157 2558.42 103.098 2553.31 108.203L2554.73 109.617C2560.05 104.296 2564.2 97.771 2567.19 90.0618L2565.33 89.3382ZM2553.32 108.195C2548.22 113.189 2542.11 116.968 2534.98 119.529L2535.66 121.411C2543.04 118.759 2549.4 114.831 2554.72 109.625L2553.32 108.195ZM2534.98 119.531C2527.96 122.094 2520.37 123.38 2512.2 123.38V125.38C2520.58 125.38 2528.4 124.06 2535.66 121.409L2534.98 119.531ZM2512.2 123.38C2504.26 123.38 2496.79 122.095 2489.76 119.531L2489.08 121.409C2496.33 124.058 2504.04 125.38 2512.2 125.38V123.38ZM2489.76 119.531C2482.75 116.97 2476.64 113.189 2471.41 108.188L2470.03 109.632C2475.46 114.831 2481.81 118.757 2489.08 121.409L2489.76 119.531ZM2471.42 108.195C2466.2 103.088 2462.08 96.8041 2459.07 89.3262L2457.21 90.0738C2460.32 97.7826 2464.59 104.306 2470.02 109.625L2471.42 108.195ZM2459.07 89.331C2456.07 81.7642 2454.55 72.9969 2454.55 63.01H2452.55C2452.55 73.1964 2454.1 82.2225 2457.21 90.069L2459.07 89.331ZM2454.55 63.01C2454.55 53.0267 2456.12 44.3226 2459.23 36.8756L2457.39 36.1044C2454.15 43.8441 2452.55 52.82 2452.55 63.01H2454.55ZM2459.24 36.8707C2462.36 29.2747 2466.54 22.9325 2471.76 17.8247L2470.36 16.3953C2464.93 21.7142 2460.6 28.292 2457.39 36.1092L2459.24 36.8707ZM2471.75 17.832C2477.09 12.7128 2483.21 8.87639 2490.11 6.31756L2489.41 4.44242C2482.26 7.09692 2475.91 11.0806 2470.37 16.388L2471.75 17.832ZM2490.1 6.31935C2497.13 3.75396 2504.49 2.46999 2512.2 2.46999V0.46999C2504.27 0.46999 2496.67 1.79269 2489.42 4.44064L2490.1 6.31935ZM2512.2 2.46999C2520.14 2.46999 2527.61 3.7551 2534.64 6.31935L2535.32 4.44064C2528.07 1.79155 2520.36 0.46999 2512.2 0.46999V2.46999ZM2534.64 6.31935C2541.65 8.87829 2547.76 12.7127 2552.98 17.8247L2554.38 16.3953C2548.95 11.0806 2542.59 7.09503 2535.32 4.44064L2534.64 6.31935ZM2552.98 17.8247C2558.2 22.9296 2562.32 29.2677 2565.33 36.859L2567.19 36.121C2564.08 28.299 2559.82 21.717 2554.38 16.3953L2552.98 17.8247ZM2565.33 36.8638C2568.34 44.3142 2569.85 53.0226 2569.85 63.01H2571.85C2571.85 52.8241 2570.31 43.8524 2567.19 36.1162L2565.33 36.8638ZM2617.61 120.98L2617.24 121.91L2617.25 121.913L2617.25 121.916L2617.61 120.98ZM2602.65 111.29L2601.91 111.967L2601.92 111.977L2601.93 111.987L2602.65 111.29ZM2593.98 96.5L2593.02 96.7993L2593.03 96.8107L2593.03 96.8219L2593.98 96.5ZM2591.26 4.19V3.19H2590.26V4.19H2591.26ZM2617.78 4.19H2618.78V3.19H2617.78V4.19ZM2619.31 87.49L2618.35 87.7773L2618.36 87.7968L2618.36 87.816L2619.31 87.49ZM2623.73 95.65L2622.96 96.2941L2622.98 96.3159L2623 96.3366L2623.73 95.65ZM2630.53 100.07L2630.2 101.015L2630.21 101.019L2630.53 100.07ZM2655.01 95.48L2654.31 94.7629L2654.3 94.7729L2655.01 95.48ZM2661.13 4.19V3.19H2660.13V4.19H2661.13ZM2687.65 4.19H2688.65V3.19H2687.65V4.19ZM2684.76 96.5L2683.81 96.1838L2684.76 96.5ZM2675.92 111.46L2676.63 112.157L2676.64 112.147L2675.92 111.46ZM2639.03 123.38C2630.84 123.38 2623.83 122.258 2617.96 120.044L2617.25 121.916C2623.4 124.235 2630.67 125.38 2639.03 125.38V123.38ZM2617.98 120.05C2612.08 117.715 2607.22 114.559 2603.36 110.593L2601.93 111.987C2606.01 116.181 2611.12 119.485 2617.24 121.91L2617.98 120.05ZM2603.38 110.613C2599.63 106.528 2596.81 101.72 2594.92 96.1781L2593.03 96.8219C2595 102.613 2597.96 107.666 2601.91 111.967L2603.38 110.613ZM2594.93 96.2007C2593.15 90.5301 2592.26 84.2859 2592.26 77.46H2590.26C2590.26 84.4608 2591.18 90.9099 2593.02 96.7993L2594.93 96.2007ZM2592.26 77.46V4.19H2590.26V77.46H2592.26ZM2591.26 5.19H2617.78V3.19H2591.26V5.19ZM2616.78 4.19V75.25H2618.78V4.19H2616.78ZM2616.78 75.25C2616.78 80.0764 2617.29 84.2585 2618.35 87.7773L2620.27 87.2027C2619.28 83.9214 2618.78 79.9436 2618.78 75.25H2616.78ZM2618.36 87.816C2619.53 91.1925 2621.05 94.0275 2622.96 96.2941L2624.49 95.0059C2622.77 92.9658 2621.36 90.3608 2620.25 87.164L2618.36 87.816ZM2623 96.3366C2625.04 98.4913 2627.44 100.054 2630.2 101.014L2630.86 99.1255C2628.4 98.2725 2626.27 96.8887 2624.45 94.9634L2623 96.3366ZM2630.21 101.019C2633.04 101.963 2636.1 102.43 2639.37 102.43V100.43C2636.29 100.43 2633.45 99.9906 2630.84 99.1213L2630.21 101.019ZM2639.37 102.43C2646.05 102.43 2651.53 100.37 2655.71 96.1871L2654.3 94.7729C2650.55 98.5233 2645.61 100.43 2639.37 100.43V102.43ZM2655.7 96.197C2660.07 91.9487 2662.13 84.8678 2662.13 75.25H2660.13C2660.13 84.6722 2658.1 91.0779 2654.31 94.763L2655.7 96.197ZM2662.13 75.25V4.19H2660.13V75.25H2662.13ZM2661.13 5.19H2687.65V3.19H2661.13V5.19ZM2686.65 4.19V77.46H2688.65V4.19H2686.65ZM2686.65 77.46C2686.65 84.2801 2685.7 90.5184 2683.81 96.1838L2685.71 96.8162C2687.67 90.9216 2688.65 84.4665 2688.65 77.46H2686.65ZM2683.81 96.1838C2681.93 101.833 2679.05 106.691 2675.19 110.773L2676.64 112.147C2680.72 107.842 2683.74 102.727 2685.71 96.8162L2683.81 96.1838ZM2675.2 110.763C2671.35 114.722 2666.44 117.82 2660.44 120.042L2661.13 121.918C2667.37 119.607 2672.55 116.358 2676.63 112.157L2675.2 110.763ZM2660.44 120.042C2654.46 122.258 2647.33 123.38 2639.03 123.38V125.38C2647.5 125.38 2654.88 124.235 2661.13 121.918L2660.44 120.042ZM2788.29 12.35L2787.73 13.179L2787.74 13.1836L2788.29 12.35ZM2796.62 61.82L2795.82 61.2256L2795.82 61.2286L2796.62 61.82ZM2780.3 73.89L2779.92 72.9656L2778.68 73.4765L2779.52 74.5183L2780.3 73.89ZM2787.78 84.09L2786.95 84.6504L2786.96 84.6618L2787.78 84.09ZM2795.43 95.99L2794.57 96.5011L2794.58 96.5149L2794.59 96.5284L2795.43 95.99ZM2802.91 108.91L2802.03 109.375L2802.03 109.384L2802.91 108.91ZM2809.54 122V123H2811.12L2810.45 121.572L2809.54 122ZM2779.79 122L2778.92 122.488L2779.21 123H2779.79V122ZM2773.16 110.27L2772.28 110.747L2772.29 110.757L2772.29 110.766L2773.16 110.27ZM2766.36 98.71L2765.51 99.2283L2765.51 99.2377L2765.52 99.2469L2766.36 98.71ZM2759.56 88.17L2758.73 88.7247L2758.74 88.7312L2758.74 88.7377L2759.56 88.17ZM2752.76 78.99L2753.53 78.3498L2753.23 77.99H2752.76V78.99ZM2739.67 78.99V77.99H2738.67V78.99H2739.67ZM2739.67 122V123H2740.67V122H2739.67ZM2713.15 122H2712.15V123H2713.15V122ZM2713.15 5.89L2712.96 4.90868L2712.15 5.06703V5.89H2713.15ZM2731 3.50999L2730.93 2.51263L2730.93 2.51273L2731 3.50999ZM2743.92 25.61L2743.85 24.6125L2743.85 24.6129L2743.92 25.61ZM2739.67 25.95L2739.59 24.9535L2738.67 25.0299V25.95H2739.67ZM2739.67 57.91H2738.67V58.91H2739.67V57.91ZM2768.57 54.17L2768.07 53.3046L2768.57 54.17ZM2768.4 29.18L2767.9 30.0454L2767.92 30.0532L2767.93 30.0605L2768.4 29.18ZM2747.66 3.82999C2765.25 3.82999 2778.56 6.99002 2787.73 13.179L2788.85 11.521C2779.21 5.01664 2765.44 1.82999 2747.66 1.82999V3.82999ZM2787.74 13.1836C2796.82 19.197 2801.4 28.5974 2801.4 41.59H2803.4C2803.4 28.0626 2798.58 17.9696 2788.85 11.5164L2787.74 13.1836ZM2801.4 41.59C2801.4 49.7088 2799.51 56.2267 2795.82 61.2256L2797.43 62.4144C2801.44 56.9866 2803.4 50.0178 2803.4 41.59H2801.4ZM2795.82 61.2286C2792.21 66.1511 2786.93 70.0734 2779.92 72.9656L2780.68 74.8144C2787.96 71.8132 2793.56 67.6889 2797.43 62.4114L2795.82 61.2286ZM2779.52 74.5183C2781.88 77.4388 2784.36 80.8153 2786.95 84.6503L2788.61 83.5297C2785.99 79.658 2783.48 76.2346 2781.08 73.2617L2779.52 74.5183ZM2786.96 84.6618C2789.55 88.3807 2792.09 92.327 2794.57 96.5011L2796.29 95.4789C2793.79 91.2663 2791.22 87.2793 2788.6 83.5182L2786.96 84.6618ZM2794.59 96.5284C2797.18 100.583 2799.66 104.865 2802.03 109.375L2803.8 108.445C2801.41 103.888 2798.9 99.5568 2796.28 95.4516L2794.59 96.5284ZM2802.03 109.384C2804.4 113.79 2806.61 118.138 2808.64 122.428L2810.45 121.572C2808.4 117.249 2806.18 112.87 2803.79 108.436L2802.03 109.384ZM2809.54 121H2779.79V123H2809.54V121ZM2780.67 121.512C2778.51 117.656 2776.3 113.743 2774.03 109.774L2772.29 110.766C2774.56 114.73 2776.77 118.637 2778.92 122.488L2780.67 121.512ZM2774.04 109.793C2771.88 105.806 2769.6 101.933 2767.21 98.1731L2765.52 99.2469C2767.89 102.967 2770.14 106.8 2772.28 110.747L2774.04 109.793ZM2767.22 98.1917C2764.94 94.4365 2762.66 90.9065 2760.39 87.6023L2758.74 88.7377C2760.99 92.0068 2763.25 95.5035 2765.51 99.2283L2767.22 98.1917ZM2760.39 87.6153C2758.11 84.1901 2755.82 81.1009 2753.53 78.3498L2751.99 79.6302C2754.24 82.3191 2756.48 85.3499 2758.73 88.7247L2760.39 87.6153ZM2752.76 77.99H2739.67V79.99H2752.76V77.99ZM2738.67 78.99V122H2740.67V78.99H2738.67ZM2739.67 121H2713.15V123H2739.67V121ZM2714.15 122V5.89H2712.15V122H2714.15ZM2713.35 6.87131C2719.08 5.74597 2724.99 4.95777 2731.08 4.50726L2730.93 2.51273C2724.77 2.96889 2718.78 3.76736 2712.96 4.90868L2713.35 6.87131ZM2731.08 4.50736C2737.29 4.05532 2742.82 3.82999 2747.66 3.82999V1.82999C2742.76 1.82999 2737.18 2.058 2730.93 2.51263L2731.08 4.50736ZM2749.19 24.44C2747.25 24.44 2745.47 24.4972 2743.85 24.6125L2743.99 26.6075C2745.55 26.4961 2747.29 26.44 2749.19 26.44V24.44ZM2743.85 24.6129C2742.37 24.7264 2740.95 24.8399 2739.59 24.9535L2739.76 26.9465C2741.11 26.8334 2742.53 26.7202 2744 26.607L2743.85 24.6129ZM2738.67 25.95V57.91H2740.67V25.95H2738.67ZM2739.67 58.91H2747.15V56.91H2739.67V58.91ZM2747.15 58.91C2757.16 58.91 2764.53 57.6684 2769.07 55.0354L2768.07 53.3046C2764.01 55.6582 2757.09 56.91 2747.15 56.91V58.91ZM2769.07 55.0354C2773.76 52.3236 2776.03 47.6965 2776.03 41.42H2774.03C2774.03 47.1568 2772 51.0297 2768.07 53.3046L2769.07 55.0354ZM2776.03 41.42C2776.03 35.3396 2773.68 30.8838 2768.88 28.2995L2767.93 30.0605C2771.97 32.2362 2774.03 35.9404 2774.03 41.42H2776.03ZM2768.9 28.3146C2764.37 25.691 2757.76 24.44 2749.19 24.44V26.44C2757.63 26.44 2763.82 27.6824 2767.9 30.0454L2768.9 28.3146ZM2877.24 108.4L2876.51 109.083L2876.52 109.088L2877.24 108.4ZM2866.87 37L2867.8 37.3738L2867.8 37.369L2866.87 37ZM2879.45 17.62L2880.15 18.3347L2880.16 18.3271L2879.45 17.62ZM2898.49 5.54999L2898.14 4.61189L2898.49 5.54999ZM2936.06 2.66L2935.87 3.64161L2935.88 3.64418L2935.9 3.64639L2936.06 2.66ZM2946.77 5.21L2946.46 6.15868L2946.47 6.16401L2946.49 6.16879L2946.77 5.21ZM2958.84 10.48L2959.78 10.8163L2960.05 10.0585L2959.37 9.632L2958.84 10.48ZM2951.19 31.9L2950.72 32.7831L2951.74 33.3259L2952.13 32.2363L2951.19 31.9ZM2938.44 26.97L2938.17 27.9315L2938.17 27.9332L2938.44 26.97ZM2910.05 26.97L2909.73 26.024L2909.72 26.027L2910.05 26.97ZM2899.68 33.6L2898.97 32.8929L2899.68 33.6ZM2891.52 77.8L2890.55 78.0316L2890.55 78.0454L2890.56 78.0591L2891.52 77.8ZM2897.3 89.87L2896.51 90.4784L2896.51 90.4866L2896.52 90.4947L2897.3 89.87ZM2907.84 98.03L2907.41 98.9337L2907.42 98.9384L2907.43 98.9428L2907.84 98.03ZM2933.85 100.24L2933.7 99.2508L2933.85 100.24ZM2942.01 98.71L2942.24 99.6828L2942.26 99.6776L2942.29 99.6715L2942.01 98.71ZM2948.3 96.5L2948.7 97.4162L2948.3 96.5ZM2953.23 94.29L2954.18 93.9647L2953.82 92.9183L2952.81 93.382L2953.23 94.29ZM2960.54 115.54L2961.06 116.395L2961.75 115.977L2961.49 115.215L2960.54 115.54ZM2944.73 121.66L2944.99 122.626L2944.73 121.66ZM2921.1 123.38C2902.13 123.38 2887.81 118.11 2877.97 107.712L2876.52 109.088C2886.84 119.996 2901.76 125.38 2921.1 125.38V123.38ZM2877.97 107.717C2868.22 97.3046 2863.28 82.4518 2863.28 63.01H2861.28C2861.28 82.7815 2866.31 98.1887 2876.51 109.083L2877.97 107.717ZM2863.28 63.01C2863.28 53.3675 2864.79 44.828 2867.8 37.3738L2865.94 36.6262C2862.83 44.3587 2861.28 53.1591 2861.28 63.01H2863.28ZM2867.8 37.369C2870.81 29.7777 2874.93 23.4397 2880.15 18.3347L2878.75 16.9053C2873.31 22.227 2869.05 28.809 2865.94 36.631L2867.8 37.369ZM2880.16 18.3271C2885.38 13.1069 2891.6 9.16023 2898.84 6.48809L2898.14 4.61189C2890.65 7.37976 2884.18 11.4797 2878.74 16.9129L2880.16 18.3271ZM2898.84 6.48809C2906.08 3.81282 2913.95 2.46999 2922.46 2.46999V0.46999C2913.74 0.46999 2905.63 1.84717 2898.14 4.61189L2898.84 6.48809ZM2922.46 2.46999C2927.4 2.46999 2931.86 2.86264 2935.87 3.64161L2936.25 1.67838C2932.1 0.870682 2927.5 0.46999 2922.46 0.46999V2.46999ZM2935.9 3.64639C2939.94 4.32007 2943.46 5.15904 2946.46 6.15868L2947.09 4.26131C2943.97 3.22094 2940.34 2.35992 2936.23 1.6736L2935.9 3.64639ZM2946.49 6.16879C2949.51 7.06485 2952 8.00866 2953.97 8.99442L2954.87 7.20557C2952.76 6.15134 2950.15 5.16847 2947.06 4.2512L2946.49 6.16879ZM2953.97 8.99442C2956.01 10.0124 2957.45 10.7881 2958.31 11.328L2959.37 9.632C2958.42 9.0386 2956.91 8.22762 2954.87 7.20557L2953.97 8.99442ZM2957.9 10.1437L2950.25 31.5637L2952.13 32.2363L2959.78 10.8163L2957.9 10.1437ZM2951.66 31.0169C2947.96 29.0496 2943.64 27.3819 2938.71 26.0068L2938.17 27.9332C2942.99 29.2781 2947.17 30.897 2950.72 32.7831L2951.66 31.0169ZM2938.72 26.0085C2933.85 24.6178 2928.31 23.93 2922.12 23.93V25.93C2928.17 25.93 2933.51 26.6022 2938.17 27.9315L2938.72 26.0085ZM2922.12 23.93C2917.93 23.93 2913.79 24.6293 2909.73 26.0241L2910.38 27.9159C2914.24 26.5907 2918.15 25.93 2922.12 25.93V23.93ZM2909.72 26.027C2905.72 27.4396 2902.13 29.7337 2898.97 32.8929L2900.39 34.3071C2903.35 31.3463 2906.68 29.2204 2910.38 27.913L2909.72 26.027ZM2898.97 32.8929C2895.91 35.9588 2893.46 39.9409 2891.61 44.804L2893.48 45.516C2895.25 40.8591 2897.56 37.1345 2900.39 34.3071L2898.97 32.8929ZM2891.61 44.804C2889.74 49.7087 2888.82 55.6167 2888.82 62.5H2890.82C2890.82 55.7833 2891.72 50.1313 2893.48 45.516L2891.61 44.804ZM2888.82 62.5C2888.82 68.0094 2889.4 73.1878 2890.55 78.0316L2892.49 77.5684C2891.38 72.8922 2890.82 67.8706 2890.82 62.5H2888.82ZM2890.56 78.0591C2891.83 82.8169 2893.81 86.9624 2896.51 90.4784L2898.09 89.2616C2895.58 85.9776 2893.7 82.0765 2892.49 77.5409L2890.56 78.0591ZM2896.52 90.4947C2899.34 94.0242 2902.98 96.835 2907.41 98.9337L2908.27 97.1263C2904.09 95.1451 2900.7 92.5158 2898.08 89.2453L2896.52 90.4947ZM2907.43 98.9428C2911.9 100.941 2917.26 101.92 2923.48 101.92V99.92C2917.46 99.92 2912.4 98.972 2908.25 97.1172L2907.43 98.9428ZM2923.48 101.92C2927.37 101.92 2930.88 101.691 2934 101.229L2933.7 99.2508C2930.7 99.6954 2927.3 99.92 2923.48 99.92V101.92ZM2934 101.229C2937.08 100.773 2939.83 100.258 2942.24 99.6828L2941.78 97.7372C2939.43 98.2957 2936.74 98.8006 2933.7 99.2508L2934 101.229ZM2942.29 99.6715C2944.7 98.9821 2946.84 98.2312 2948.7 97.4162L2947.9 95.5838C2946.14 96.3555 2944.08 97.0779 2941.74 97.7485L2942.29 99.6715ZM2948.7 97.4162C2950.52 96.6207 2952.17 95.8813 2953.65 95.198L2952.81 93.382C2951.35 94.0587 2949.71 94.7926 2947.9 95.5838L2948.7 97.4162ZM2952.29 94.6153L2959.6 115.865L2961.49 115.215L2954.18 93.9647L2952.29 94.6153ZM2960.02 114.685C2956.4 116.882 2951.23 118.892 2944.47 120.694L2944.99 122.626C2951.83 120.801 2957.2 118.732 2961.06 116.395L2960.02 114.685ZM2944.47 120.694C2937.78 122.48 2929.99 123.38 2921.1 123.38V125.38C2930.12 125.38 2938.09 124.467 2944.99 122.626L2944.47 120.694ZM3056.33 99.22H3057.33V98.22H3056.33V99.22ZM3056.33 122V123H3057.33V122H3056.33ZM2977.62 122H2976.62V123H2977.62V122ZM2977.62 4.19V3.19H2976.62V4.19H2977.62ZM3004.14 4.19H3005.14V3.19H3004.14V4.19ZM3004.14 99.22H3003.14V100.22H3004.14V99.22ZM3055.33 99.22V122H3057.33V99.22H3055.33ZM3056.33 121H2977.62V123H3056.33V121ZM2978.62 122V4.19H2976.62V122H2978.62ZM2977.62 5.19H3004.14V3.19H2977.62V5.19ZM3003.14 4.19V99.22H3005.14V4.19H3003.14ZM3004.14 100.22H3056.33V98.22H3004.14V100.22ZM3073.41 4.19V3.19H3072.41V4.19H3073.41ZM3099.93 4.19H3100.93V3.19H3099.93V4.19ZM3099.93 122V123H3100.93V122H3099.93ZM3073.41 122H3072.41V123H3073.41V122ZM3073.41 5.19H3099.93V3.19H3073.41V5.19ZM3098.93 4.19V122H3100.93V4.19H3098.93ZM3099.93 121H3073.41V123H3099.93V121ZM3074.41 122V4.19H3072.41V122H3074.41ZM3127.2 122H3126.2V123H3127.2V122ZM3127.2 4.19V3.19H3126.2V4.19H3127.2ZM3206.76 4.19H3207.76V3.19H3206.76V4.19ZM3206.76 26.46V27.46H3207.76V26.46H3206.76ZM3153.72 26.46V25.46H3152.72V26.46H3153.72ZM3153.72 49.58H3152.72V50.58H3153.72V49.58ZM3200.81 49.58H3201.81V48.58H3200.81V49.58ZM3200.81 71.34V72.34H3201.81V71.34H3200.81ZM3153.72 71.34V70.34H3152.72V71.34H3153.72ZM3153.72 99.73H3152.72V100.73H3153.72V99.73ZM3210.67 99.73H3211.67V98.73H3210.67V99.73ZM3210.67 122V123H3211.67V122H3210.67ZM3128.2 122V4.19H3126.2V122H3128.2ZM3127.2 5.19H3206.76V3.19H3127.2V5.19ZM3205.76 4.19V26.46H3207.76V4.19H3205.76ZM3206.76 25.46H3153.72V27.46H3206.76V25.46ZM3152.72 26.46V49.58H3154.72V26.46H3152.72ZM3153.72 50.58H3200.81V48.58H3153.72V50.58ZM3199.81 49.58V71.34H3201.81V49.58H3199.81ZM3200.81 70.34H3153.72V72.34H3200.81V70.34ZM3152.72 71.34V99.73H3154.72V71.34H3152.72ZM3153.72 100.73H3210.67V98.73H3153.72V100.73ZM3209.67 99.73V122H3211.67V99.73H3209.67ZM3210.67 121H3127.2V123H3210.67V121ZM3309.34 122L3308.47 122.491L3308.76 123H3309.34V122ZM3284.69 82.05L3283.86 82.608L3284.69 82.05ZM3256.47 44.82L3257.23 44.1704L3255.47 42.1101V44.82H3256.47ZM3256.47 122V123H3257.47V122H3256.47ZM3230.29 122H3229.29V123H3230.29V122ZM3230.29 4.19V3.19H3229.29V4.19H3230.29ZM3251.88 4.19L3252.59 3.48289L3252.3 3.19H3251.88V4.19ZM3264.29 17.96L3265.06 17.3198L3264.29 17.96ZM3278.06 35.47L3277.26 36.0677L3277.27 36.0759L3277.27 36.0839L3278.06 35.47ZM3292.17 54.68L3291.35 55.2507L3291.35 55.2572L3292.17 54.68ZM3305.26 73.72L3304.43 74.2747L3306.26 77.0228V73.72H3305.26ZM3305.26 4.19V3.19H3304.26V4.19H3305.26ZM3331.61 4.19H3332.61V3.19H3331.61V4.19ZM3331.61 122V123H3332.61V122H3331.61ZM3310.21 121.509C3302.61 107.999 3294.38 94.6601 3285.52 81.492L3283.86 82.608C3292.69 95.7333 3300.89 109.027 3308.47 122.491L3310.21 121.509ZM3285.52 81.492C3276.66 68.3145 3267.23 55.8738 3257.23 44.1704L3255.71 45.4696C3265.66 57.1128 3275.04 69.4922 3283.86 82.608L3285.52 81.492ZM3255.47 44.82V122H3257.47V44.82H3255.47ZM3256.47 121H3230.29V123H3256.47V121ZM3231.29 122V4.19H3229.29V122H3231.29ZM3230.29 5.19H3251.88V3.19H3230.29V5.19ZM3251.17 4.8971C3254.89 8.60998 3259 13.1762 3263.52 18.6002L3265.06 17.3198C3260.51 11.8638 3256.36 7.25002 3252.59 3.48289L3251.17 4.8971ZM3263.52 18.6002C3268.04 24.025 3272.62 29.8474 3277.26 36.0677L3278.86 34.8723C3274.21 28.6259 3269.61 22.7749 3265.06 17.3198L3263.52 18.6002ZM3277.27 36.0839C3282.02 42.1891 3286.71 48.578 3291.35 55.2506L3292.99 54.1093C3288.34 47.4087 3283.62 40.9909 3278.85 34.8561L3277.27 36.0839ZM3291.35 55.2572C3296 61.8238 3300.35 68.1629 3304.43 74.2747L3306.09 73.1653C3302.01 67.037 3297.64 60.6828 3292.99 54.1028L3291.35 55.2572ZM3306.26 73.72V4.19H3304.26V73.72H3306.26ZM3305.26 5.19H3331.61V3.19H3305.26V5.19ZM3330.61 4.19V122H3332.61V4.19H3330.61ZM3331.61 121H3309.34V123H3331.61V121ZM3446.17 4.19H3447.17V3.19H3446.17V4.19ZM3446.17 26.8V27.8H3447.17V26.8H3446.17ZM3410.64 26.8V25.8H3409.64V26.8H3410.64ZM3410.64 122V123H3411.64V122H3410.64ZM3384.12 122H3383.12V123H3384.12V122ZM3384.12 26.8H3385.12V25.8H3384.12V26.8ZM3348.59 26.8H3347.59V27.8H3348.59V26.8ZM3348.59 4.19V3.19H3347.59V4.19H3348.59ZM3445.17 4.19V26.8H3447.17V4.19H3445.17ZM3446.17 25.8H3410.64V27.8H3446.17V25.8ZM3409.64 26.8V122H3411.64V26.8H3409.64ZM3410.64 121H3384.12V123H3410.64V121ZM3385.12 122V26.8H3383.12V122H3385.12ZM3384.12 25.8H3348.59V27.8H3384.12V25.8ZM3349.59 26.8V4.19H3347.59V26.8H3349.59ZM3348.59 5.19H3446.17V3.19H3348.59V5.19ZM3504.52 100.92L3504.75 101.893L3504.77 101.889L3504.78 101.885L3504.52 100.92ZM3510.47 98.37L3511.04 99.1922L3511.06 99.1779L3511.08 99.1626L3510.47 98.37ZM3513.53 94.46L3514.46 94.819L3513.53 94.46ZM3508.94 80.01L3508.36 80.822L3508.37 80.8281L3508.37 80.834L3508.94 80.01ZM3490.24 71.68L3489.91 72.623L3489.92 72.6259L3489.93 72.6287L3490.24 71.68ZM3478.68 67.09L3478.26 67.9948L3478.27 68L3478.28 68.0049L3478.68 67.09ZM3468.31 60.46L3467.65 61.2074L3467.65 61.2144L3467.66 61.2212L3468.31 60.46ZM3460.83 50.77L3459.94 51.2172L3459.94 51.228L3460.83 50.77ZM3461 22.21L3461.91 22.6381L3461.91 22.6291L3461 22.21ZM3469.67 10.99L3469.04 10.216L3469.67 10.99ZM3483.27 4.02L3483.56 4.97839L3483.57 4.97561L3483.58 4.97266L3483.27 4.02ZM3521.86 4.02L3521.58 4.97936V4.97937L3521.86 4.02ZM3536.14 9.63L3537.08 9.97358L3537.38 9.1646L3536.62 8.7521L3536.14 9.63ZM3528.49 30.54L3528.03 31.4282L3529.04 31.9498L3529.43 30.8836L3528.49 30.54ZM3517.44 26.12L3517.12 27.0659L3517.13 27.0714L3517.15 27.0763L3517.44 26.12ZM3489.22 26.8L3489.75 27.648L3489.76 27.6423L3489.22 26.8ZM3486.67 40.23L3487.49 39.6608L3486.67 40.23ZM3490.92 44.31L3490.35 45.134L3490.38 45.154L3490.41 45.1719L3490.92 44.31ZM3497.38 47.54L3496.99 48.4591L3497.01 48.4702L3497.04 48.4798L3497.38 47.54ZM3505.54 50.43L3505.89 49.4922L3505.88 49.4885L3505.87 49.485L3505.54 50.43ZM3521.52 57.23L3521.07 58.1244L3521.08 58.1289L3521.09 58.1333L3521.52 57.23ZM3532.74 64.88L3532.03 65.5871L3532.04 65.5938L3532.05 65.6003L3532.74 64.88ZM3530.19 115.37L3530.81 116.159L3530.81 116.153L3530.19 115.37ZM3481.23 123.36L3481.39 122.373L3481.38 122.371L3481.37 122.369L3481.23 123.36ZM3470.01 121.15L3469.74 122.112L3469.75 122.114L3470.01 121.15ZM3461.68 118.26L3461.27 119.172L3461.28 119.176L3461.29 119.179L3461.68 118.26ZM3455.9 115.37L3454.96 115.036L3454.68 115.823L3455.41 116.238L3455.9 115.37ZM3463.38 94.29L3463.86 93.4132L3462.83 92.8482L3462.44 93.9556L3463.38 94.29ZM3476.3 99.56L3476 100.515L3476.02 100.519L3476.03 100.522L3476.3 99.56ZM3495.34 102.77C3499.12 102.77 3502.27 102.484 3504.75 101.893L3504.29 99.9472C3502.01 100.489 3499.04 100.77 3495.34 100.77V102.77ZM3504.78 101.885C3507.34 101.187 3509.44 100.298 3511.04 99.1922L3509.9 97.5478C3508.55 98.4816 3506.69 99.293 3504.26 99.9552L3504.78 101.885ZM3511.08 99.1626C3512.67 97.9374 3513.82 96.4923 3514.46 94.819L3512.6 94.101C3512.11 95.3744 3511.22 96.536 3509.86 97.5774L3511.08 99.1626ZM3514.46 94.819C3515.08 93.2154 3515.38 91.448 3515.38 89.53H3513.38C3513.38 91.2386 3513.11 92.7579 3512.6 94.101L3514.46 94.819ZM3515.38 89.53C3515.38 85.2966 3513.36 81.8351 3509.51 79.186L3508.37 80.834C3511.77 83.1716 3513.38 86.0568 3513.38 89.53H3515.38ZM3509.52 79.198C3505.77 76.4979 3499.41 73.683 3490.56 70.7313L3489.93 72.6287C3498.75 75.5703 3504.86 78.3087 3508.36 80.822L3509.52 79.198ZM3490.57 70.737C3486.75 69.3857 3482.92 67.8651 3479.08 66.1751L3478.28 68.0049C3482.15 69.7149 3486.03 71.2543 3489.91 72.623L3490.57 70.737ZM3479.11 66.1852C3475.33 64.4074 3471.95 62.2446 3468.96 59.6988L3467.66 61.2212C3470.79 63.8887 3474.33 66.146 3478.26 67.9948L3479.11 66.1852ZM3468.98 59.7126C3466.01 57.0767 3463.59 53.9456 3461.72 50.312L3459.94 51.228C3461.92 55.0744 3464.49 58.4033 3467.65 61.2074L3468.98 59.7126ZM3461.73 50.3228C3459.88 46.6399 3458.94 42.1545 3458.94 36.83H3456.94C3456.94 42.3855 3457.93 47.1934 3459.94 51.2172L3461.73 50.3228ZM3458.94 36.83C3458.94 31.5171 3459.94 26.7932 3461.91 22.6381L3460.1 21.7819C3457.99 26.2401 3456.94 31.2629 3456.94 36.83H3458.94ZM3461.91 22.6291C3463.89 18.3456 3466.68 14.7273 3470.3 11.7639L3469.04 10.216C3465.18 13.3727 3462.2 17.2344 3460.09 21.7909L3461.91 22.6291ZM3470.3 11.7639C3473.93 8.79951 3478.34 6.53286 3483.56 4.97839L3482.99 3.06161C3477.55 4.68048 3472.89 7.06048 3469.04 10.216L3470.3 11.7639ZM3483.58 4.97266C3488.79 3.30947 3494.69 2.46999 3501.29 2.46999V0.46999C3494.52 0.46999 3488.41 1.33052 3482.97 3.06734L3483.58 4.97266ZM3501.29 2.46999C3509.16 2.46999 3515.91 3.31328 3521.58 4.97936L3522.14 3.06063C3516.25 1.32671 3509.29 0.46999 3501.29 0.46999V2.46999ZM3521.58 4.97937C3527.32 6.66683 3532 8.51275 3535.66 10.5079L3536.62 8.7521C3532.8 6.66724 3527.97 4.77317 3522.14 3.06063L3521.58 4.97937ZM3535.2 9.28642L3527.55 30.1964L3529.43 30.8836L3537.08 9.97358L3535.2 9.28642ZM3528.95 29.6518C3525.6 27.9202 3521.86 26.4253 3517.73 25.1636L3517.15 27.0763C3521.18 28.308 3524.81 29.7597 3528.03 31.4282L3528.95 29.6518ZM3517.77 25.174C3513.67 23.7682 3508.73 23.08 3502.99 23.08V25.08C3508.58 25.08 3513.28 25.7518 3517.12 27.0659L3517.77 25.174ZM3502.99 23.08C3496.6 23.08 3491.77 23.9846 3488.68 25.9577L3489.76 27.6423C3492.34 25.9887 3496.69 25.08 3502.99 25.08V23.08ZM3488.69 25.952C3485.64 27.8613 3484.14 30.8719 3484.14 34.79H3486.14C3486.14 31.4548 3487.37 29.1387 3489.75 27.648L3488.69 25.952ZM3484.14 34.79C3484.14 37.105 3484.69 39.1273 3485.85 40.7992L3487.49 39.6608C3486.61 38.386 3486.14 36.7817 3486.14 34.79H3484.14ZM3485.85 40.7992C3486.95 42.3921 3488.46 43.8338 3490.35 45.134L3491.49 43.486C3489.75 42.2929 3488.43 41.0145 3487.49 39.6608L3485.85 40.7992ZM3490.41 45.1719C3492.38 46.3298 3494.57 47.425 3496.99 48.4591L3497.78 46.6208C3495.43 45.615 3493.31 44.5569 3491.43 43.4481L3490.41 45.1719ZM3497.04 48.4798C3499.54 49.3885 3502.26 50.3536 3505.21 51.375L3505.87 49.485C3502.93 48.4664 3500.21 47.5048 3497.72 46.6002L3497.04 48.4798ZM3505.19 51.3677C3511.29 53.6252 3516.58 55.8778 3521.07 58.1244L3521.97 56.3356C3517.4 54.0488 3512.03 51.7682 3505.89 49.4922L3505.19 51.3677ZM3521.09 58.1333C3525.54 60.2473 3529.18 62.7358 3532.03 65.5871L3533.45 64.1729C3530.41 61.1308 3526.57 58.5194 3521.95 56.3267L3521.09 58.1333ZM3532.05 65.6003C3535 68.4432 3537.18 71.7729 3538.6 75.5982L3540.48 74.9018C3538.95 70.7938 3536.6 67.2101 3533.44 64.1597L3532.05 65.6003ZM3538.6 75.5982C3540.02 79.4227 3540.75 84.1143 3540.75 89.7H3542.75C3542.75 83.9523 3542 79.0106 3540.48 74.9018L3538.6 75.5982ZM3540.75 89.7C3540.75 100.429 3537.01 108.68 3529.57 114.587L3530.81 116.153C3538.79 109.82 3542.75 100.958 3542.75 89.7H3540.75ZM3529.58 114.581C3522.12 120.391 3510.77 123.38 3495.34 123.38V125.38C3510.97 125.38 3522.85 122.362 3530.81 116.159L3529.58 114.581ZM3495.34 123.38C3490.17 123.38 3485.52 123.043 3481.39 122.373L3481.07 124.347C3485.33 125.037 3490.09 125.38 3495.34 125.38V123.38ZM3481.37 122.369C3477.21 121.807 3473.51 121.078 3470.28 120.186L3469.75 122.114C3473.08 123.035 3476.87 123.78 3481.1 124.351L3481.37 122.369ZM3470.29 120.188C3467.14 119.29 3464.41 118.34 3462.08 117.341L3461.29 119.179C3463.72 120.22 3466.53 121.196 3469.74 122.112L3470.29 120.188ZM3462.09 117.348C3459.84 116.337 3457.95 115.388 3456.4 114.502L3455.41 116.238C3457.03 117.165 3458.98 118.143 3461.27 119.172L3462.09 117.348ZM3456.84 115.704L3464.32 94.6244L3462.44 93.9556L3454.96 115.036L3456.84 115.704ZM3462.9 95.1668C3466.49 97.1341 3470.86 98.9145 3476 100.515L3476.6 98.6051C3471.54 97.0322 3467.3 95.2992 3463.86 93.4132L3462.9 95.1668ZM3476.03 100.522C3481.36 102.028 3487.8 102.77 3495.34 102.77V100.77C3487.92 100.77 3481.67 100.039 3476.57 98.5977L3476.03 100.522Z" fill="#646482"/>
</svg>
