<svg width="24" height="33" viewBox="0 0 24 33" fill="none" xmlns="http://www.w3.org/2000/svg">
<path d="M8.182 31.462L8.31416 30.4708L8.29787 30.4686L8.2815 30.467L8.182 31.462ZM5.746 31.084L5.95553 30.1062L5.746 31.084ZM3.604 30.538L3.89516 29.5813H3.89516L3.604 30.538ZM2.092 29.992L1.11827 29.7643L0.932585 30.5583L1.67294 30.9L2.092 29.992ZM3.31 24.784L3.69964 23.863L2.60656 23.4006L2.33627 24.5563L3.31 24.784ZM6.082 25.792L5.77291 26.743L5.78694 26.7476L5.8011 26.7517L6.082 25.792ZM14.566 25.204L13.9354 24.4279H13.9354L14.566 25.204ZM15.406 20.374L14.5406 20.875L14.5564 20.9024L14.574 20.9287L15.406 20.374ZM14.104 19.114L13.5895 19.9715L13.6056 19.9812L13.6221 19.9902L14.104 19.114ZM12.088 18.442L11.9059 19.4253L11.9262 19.429L11.9466 19.4319L12.088 18.442ZM7.216 18.232H6.216V19.232H7.216V18.232ZM7.216 13.192V12.192H6.216V13.192H7.216ZM11.752 13.024L11.5649 12.0416L11.5559 12.0434L11.752 13.024ZM13.306 12.478L13.7963 13.3496L13.8164 13.3382L13.836 13.326L13.306 12.478ZM14.356 11.386L13.4941 10.879L13.4892 10.8873L13.4844 10.8957L14.356 11.386ZM14.44 8.236L15.3082 7.73986L15.3082 7.73986L14.44 8.236ZM13.558 7.27L12.958 8.07L12.9732 8.08139L12.9888 8.09219L13.558 7.27ZM12.34 6.724L12.0417 7.67848L12.076 7.68919L12.111 7.69742L12.34 6.724ZM7.594 7.06L7.2625 6.1165L7.25436 6.11944L7.594 7.06ZM4.822 8.404L3.92268 8.84128L4.4119 9.84741L5.35705 9.24882L4.822 8.404ZM2.596 3.826L2.066 2.978L1.30346 3.45459L1.69668 4.26328L2.596 3.826ZM4.15 2.944L3.70279 2.04957L3.69435 2.05379L3.68599 2.05817L4.15 2.944ZM8.476 1.474L8.27988 0.493398L8.2734 0.49474L8.476 1.474ZM15.532 1.852L15.2093 2.79851L15.2221 2.80286L15.2349 2.80686L15.532 1.852ZM18.64 3.574L17.9586 4.30589L17.9655 4.31229L17.9725 4.31857L18.64 3.574ZM20.446 6.178L19.514 6.54046L19.5175 6.54939L20.446 6.178ZM20.068 12.772L20.9236 13.2898L20.9294 13.28L20.068 12.772ZM17.464 15.208L17.0077 14.3182L15.0693 15.3122L17.0867 16.1341L17.464 15.208ZM20.95 17.98L20.115 18.5303L20.1223 18.5413L20.1299 18.5522L20.95 17.98ZM21.538 26.086L22.4665 26.4574L22.4696 26.4495L21.538 26.086ZM19.438 29.026L20.0869 29.7868L20.0933 29.7814L20.0996 29.7758L19.438 29.026ZM15.784 30.958L16.0781 31.9138L16.0894 31.9102L15.784 30.958ZM10.576 30.63C9.86911 30.63 9.11551 30.5776 8.31416 30.4708L8.04984 32.4532C8.92849 32.5704 9.77089 32.63 10.576 32.63V30.63ZM8.2815 30.467C7.47654 30.3865 6.70135 30.266 5.95553 30.1062L5.53647 32.0618C6.35865 32.238 7.20746 32.3695 8.0825 32.457L8.2815 30.467ZM5.95553 30.1062C5.19401 29.943 4.50777 29.7678 3.89516 29.5813L3.31284 31.4947C3.98823 31.7002 4.72999 31.889 5.53647 32.0618L5.95553 30.1062ZM3.89516 29.5813C3.26981 29.391 2.81517 29.2244 2.51106 29.084L1.67294 30.9C2.09683 31.0956 2.65019 31.293 3.31284 31.4947L3.89516 29.5813ZM3.06573 30.2197L4.28373 25.0117L2.33627 24.5563L1.11827 29.7643L3.06573 30.2197ZM2.92036 25.705C3.68415 26.0281 4.63744 26.374 5.77291 26.743L6.39109 24.841C5.28656 24.482 4.39185 24.1559 3.69964 23.863L2.92036 25.705ZM5.8011 26.7517C7.06889 27.1228 8.58413 27.296 10.324 27.296V25.296C8.70387 25.296 7.39111 25.1332 6.3629 24.8323L5.8011 26.7517ZM10.324 27.296C12.3438 27.296 14.0368 26.9224 15.1966 25.9801L13.9354 24.4279C13.3032 24.9416 12.1682 25.296 10.324 25.296V27.296ZM15.1966 25.9801C16.3437 25.0481 16.91 23.7739 16.91 22.264H14.91C14.91 23.2181 14.5803 23.9039 13.9354 24.4279L15.1966 25.9801ZM16.91 22.264C16.91 21.3597 16.7079 20.5241 16.2381 19.8193L14.574 20.9287C14.7761 21.2319 14.91 21.6563 14.91 22.264H16.91ZM16.2714 19.873C15.8684 19.1769 15.2989 18.6299 14.5859 18.2378L13.6221 19.9902C14.0291 20.2141 14.3276 20.5071 14.5406 20.875L16.2714 19.873ZM14.6185 18.2565C13.9227 17.839 13.118 17.579 12.2294 17.452L11.9466 19.4319C12.626 19.529 13.1653 19.717 13.5895 19.9715L14.6185 18.2565ZM12.2701 17.4587C11.4469 17.3063 10.5734 17.232 9.652 17.232V19.232C10.4666 19.232 11.2171 19.2977 11.9059 19.4253L12.2701 17.4587ZM9.652 17.232H7.216V19.232H9.652V17.232ZM8.216 18.232V13.192H6.216V18.232H8.216ZM7.216 14.192H9.988V12.192H7.216V14.192ZM9.988 14.192C10.6647 14.192 11.3187 14.1305 11.9481 14.0046L11.5559 12.0434C11.0653 12.1415 10.5433 12.192 9.988 12.192V14.192ZM11.9391 14.0063C12.6164 13.8773 13.2398 13.6626 13.7963 13.3496L12.8157 11.6064C12.4762 11.7974 12.0636 11.9467 11.5649 12.0417L11.9391 14.0063ZM13.836 13.326C14.4219 12.9598 14.8911 12.4744 15.2276 11.8763L13.4844 10.8957C13.3169 11.1936 13.0861 11.4362 12.776 11.63L13.836 13.326ZM15.2179 11.893C15.6095 11.2273 15.776 10.4533 15.776 9.622H13.776C13.776 10.1907 13.6625 10.5926 13.4941 10.879L15.2179 11.893ZM15.776 9.622C15.776 8.94719 15.6329 8.30793 15.3082 7.73986L13.5718 8.73213C13.6951 8.94807 13.776 9.23281 13.776 9.622H15.776ZM15.3082 7.73986C15.0117 7.22086 14.6165 6.78652 14.1272 6.44781L12.9888 8.09219C13.2275 8.25747 13.4203 8.46713 13.5718 8.73214L15.3082 7.73986ZM14.158 6.47C13.695 6.12274 13.1575 5.88904 12.569 5.75058L12.111 7.69742C12.4745 7.78296 12.749 7.91326 12.958 8.07L14.158 6.47ZM12.6383 5.76952C12.0924 5.59892 11.5297 5.514 10.954 5.514V7.514C11.3303 7.514 11.6917 7.56908 12.0417 7.67848L12.6383 5.76952ZM10.954 5.514C9.64796 5.514 8.41481 5.71168 7.26252 6.11654L7.92549 8.00346C8.84519 7.68032 9.85204 7.514 10.954 7.514V5.514ZM7.25436 6.11944C6.1832 6.50625 5.19297 6.98537 4.28695 7.55918L5.35705 9.24882C6.13103 8.75863 6.9888 8.34175 7.93364 8.00055L7.25436 6.11944ZM5.72132 7.96671L3.49532 3.38871L1.69668 4.26328L3.92268 8.84128L5.72132 7.96671ZM3.126 4.674C3.54787 4.41033 4.04307 4.12889 4.61401 3.82983L3.68599 2.05817C3.08093 2.37511 2.54013 2.68167 2.066 2.978L3.126 4.674ZM4.59721 3.83843C5.17007 3.552 5.80146 3.2884 6.49311 3.04899L5.83889 1.15901C5.07454 1.42359 4.36193 1.72 3.70279 2.04957L4.59721 3.83843ZM6.49311 3.04899C7.17744 2.8121 7.90563 2.61318 8.67861 2.45326L8.2734 0.49474C7.42237 0.670814 6.61056 0.891897 5.83889 1.15901L6.49311 3.04899ZM8.67212 2.45458C9.44272 2.30046 10.2587 2.222 11.122 2.222V0.221998C10.1373 0.221998 9.18929 0.311538 8.27988 0.49342L8.67212 2.45458ZM11.122 2.222C12.7525 2.222 14.1079 2.42303 15.2093 2.79851L15.8547 0.90549C14.4921 0.44097 12.9075 0.221998 11.122 0.221998V2.222ZM15.2349 2.80686C16.3786 3.16265 17.2752 3.66967 17.9586 4.30589L19.3214 2.8421C18.3808 1.96633 17.2054 1.32535 15.8291 0.897143L15.2349 2.80686ZM17.9725 4.31857C18.6685 4.94264 19.1794 5.68008 19.514 6.54045L21.378 5.81555C20.9286 4.65991 20.2355 3.66136 19.3075 2.82943L17.9725 4.31857ZM19.5175 6.54939C19.8572 7.39851 20.034 8.34871 20.034 9.412H22.034C22.034 8.12328 21.8188 6.91748 21.3745 5.80661L19.5175 6.54939ZM20.034 9.412C20.034 10.3631 19.7696 11.3094 19.2066 12.264L20.9294 13.28C21.6544 12.0506 22.034 10.7569 22.034 9.412H20.034ZM19.2125 12.2542C18.6631 13.1618 17.9324 13.844 17.0077 14.3182L17.9203 16.0978C19.1796 15.452 20.1849 14.5102 20.9235 13.2898L19.2125 12.2542ZM17.0867 16.1341C18.4325 16.6824 19.4259 17.4847 20.115 18.5303L21.785 17.4297C20.8501 16.0113 19.5195 14.9656 17.8413 14.2819L17.0867 16.1341ZM20.1299 18.5522C20.8345 19.5622 21.21 20.8102 21.21 22.348H23.21C23.21 20.4698 22.7455 18.8058 21.7701 17.4078L20.1299 18.5522ZM21.21 22.348C21.21 23.5789 21.0053 24.7004 20.6064 25.7225L22.4696 26.4495C22.9667 25.1756 23.21 23.8051 23.21 22.348H21.21ZM20.6095 25.7146C20.2227 26.6817 19.6174 27.5341 18.7764 28.2762L20.0996 29.7758C21.1626 28.8379 21.9573 27.7303 22.4665 26.4574L20.6095 25.7146ZM18.7891 28.2652C17.9592 28.973 16.8665 29.5606 15.4786 30.0058L16.0894 31.9102C17.6695 31.4034 19.0128 30.703 20.0869 29.7868L18.7891 28.2652ZM15.4899 30.0022C14.1543 30.4132 12.5225 30.63 10.576 30.63V32.63C12.6615 32.63 14.5017 32.3988 16.0781 31.9138L15.4899 30.0022Z" fill="#019BE0"/>
</svg>
