<svg width="23" height="32" viewBox="0 0 23 32" fill="none" xmlns="http://www.w3.org/2000/svg">
<path d="M20.202 12.604L21.1211 12.9979V12.9979L20.202 12.604ZM18.564 15.46L19.364 16.06L19.3684 16.0541L19.3727 16.0482L18.564 15.46ZM13.818 20.458L13.1366 19.7261L13.1357 19.7269L13.818 20.458ZM12.432 21.802L11.7249 21.0949H11.7249L12.432 21.802ZM11.046 23.272L10.2986 22.6076H10.2986L11.046 23.272ZM9.828 24.7L9.05186 24.0694L9.04713 24.0753L9.828 24.7ZM9.198 25.75L8.24017 25.4627L7.85397 26.75H9.198V25.75ZM21.714 25.75H22.714V24.75H21.714V25.75ZM21.714 31V32H22.714V31H21.714ZM2.31 31L1.32613 31.1789L1.47542 32H2.31V31ZM2.856 25.12L1.92752 24.7486L1.92349 24.7587L1.91967 24.7689L2.856 25.12ZM4.578 22.012L5.38373 22.6044L5.39173 22.5932L4.578 22.012ZM6.93 19.282L6.24606 18.5525L6.24028 18.5579L6.23458 18.5634L6.93 19.282ZM9.576 16.762L8.88409 16.04L8.88058 16.0434L9.576 16.762ZM11.466 14.956L12.1557 15.6801L12.1645 15.6717L12.1731 15.6631L11.466 14.956ZM13.02 13.276L13.7849 13.9201L13.793 13.9105L13.8009 13.9007L13.02 13.276ZM14.07 11.638L14.9737 12.0661L14.9779 12.0573L14.9819 12.0484L14.07 11.638ZM8.652 6.976L8.98052 7.9205L8.99187 7.91655L9.00312 7.91233L8.652 6.976ZM6.846 7.816L7.34704 8.68142L7.3538 8.67751L7.36049 8.67349L6.846 7.816ZM5.46 8.782L6.07782 9.56832L6.0946 9.55514L6.11079 9.54126L5.46 8.782ZM4.578 9.538L3.76321 10.1178L4.44885 11.0814L5.28511 10.2451L4.578 9.538ZM1.47 5.17L0.788274 4.43839L0.147183 5.03577L0.655209 5.74975L1.47 5.17ZM5.754 2.356L6.16307 3.26853L6.17012 3.26531L5.754 2.356ZM15.456 1.81L15.7592 0.857072L15.456 1.81ZM18.48 3.49L17.7995 4.22279L17.8131 4.23535L17.8271 4.24741L18.48 3.49ZM20.244 6.094L19.3005 6.42548L19.306 6.44106L19.312 6.45644L20.244 6.094ZM19.832 9.538C19.832 10.4663 19.6496 11.3543 19.2829 12.2101L21.1211 12.9979C21.5944 11.8937 21.832 10.7377 21.832 9.538H19.832ZM19.2829 12.2101C18.8943 13.1167 18.3864 14.004 17.7553 14.8718L19.3727 16.0482C20.0856 15.068 20.6697 14.0513 21.1211 12.9979L19.2829 12.2101ZM17.764 14.86C17.122 15.7159 16.3974 16.5483 15.5889 17.3569L17.0031 18.7711C17.8746 17.8997 18.662 16.9961 19.364 16.06L17.764 14.86ZM15.5889 17.3569C14.7567 18.1891 13.9393 18.9788 13.1366 19.7261L14.4994 21.1899C15.3207 20.4252 16.1553 19.6189 17.0031 18.7711L15.5889 17.3569ZM13.1357 19.7269C12.7056 20.1284 12.2352 20.5846 11.7249 21.0949L13.1391 22.5091C13.6368 22.0114 14.0904 21.5716 14.5003 21.1891L13.1357 19.7269ZM11.7249 21.0949C11.235 21.5848 10.7596 22.089 10.2986 22.6076L11.7934 23.9364C12.2284 23.447 12.677 22.9712 13.1391 22.5091L11.7249 21.0949ZM10.2986 22.6076C9.84236 23.1209 9.42659 23.6082 9.05189 24.0694L10.6041 25.3306C10.9574 24.8958 11.3536 24.4311 11.7934 23.9364L10.2986 22.6076ZM9.04713 24.0753C8.68686 24.5256 8.38005 24.9964 8.24017 25.4627L10.1558 26.0373C10.1839 25.9436 10.2971 25.7144 10.6089 25.3247L9.04713 24.0753ZM9.198 26.75H21.714V24.75H9.198V26.75ZM20.714 25.75V31H22.714V25.75H20.714ZM21.714 30H2.31V32H21.714V30ZM3.29387 30.8211C3.2526 30.5941 3.226 30.2675 3.226 29.824H1.226C1.226 30.3325 1.2554 30.7899 1.32613 31.1789L3.29387 30.8211ZM3.226 29.824C3.226 29.8231 3.226 29.8221 3.226 29.8212C3.226 29.8203 3.226 29.8194 3.226 29.8184C3.226 29.8175 3.226 29.8166 3.226 29.8156C3.226 29.8147 3.226 29.8138 3.226 29.8129C3.226 29.8119 3.226 29.811 3.226 29.8101C3.226 29.8092 3.226 29.8082 3.226 29.8073C3.226 29.8064 3.226 29.8055 3.226 29.8046C3.226 29.8036 3.226 29.8027 3.226 29.8018C3.226 29.8009 3.226 29.7999 3.226 29.799C3.226 29.7981 3.226 29.7972 3.226 29.7963C3.226 29.7953 3.226 29.7944 3.226 29.7935C3.226 29.7926 3.226 29.7917 3.226 29.7908C3.226 29.7898 3.226 29.7889 3.226 29.788C3.226 29.7871 3.226 29.7862 3.226 29.7853C3.226 29.7844 3.226 29.7834 3.226 29.7825C3.226 29.7816 3.226 29.7807 3.226 29.7798C3.226 29.7789 3.226 29.778 3.226 29.7771C3.226 29.7761 3.226 29.7752 3.226 29.7743C3.226 29.7734 3.226 29.7725 3.226 29.7716C3.226 29.7707 3.226 29.7698 3.226 29.7689C3.226 29.768 3.226 29.767 3.226 29.7661C3.226 29.7652 3.226 29.7643 3.226 29.7634C3.226 29.7625 3.226 29.7616 3.226 29.7607C3.226 29.7598 3.226 29.7589 3.226 29.758C3.226 29.7571 3.226 29.7562 3.226 29.7553C3.226 29.7544 3.226 29.7535 3.226 29.7526C3.226 29.7517 3.226 29.7508 3.226 29.7499C3.226 29.749 3.226 29.7481 3.226 29.7472C3.226 29.7463 3.226 29.7454 3.226 29.7445C3.226 29.7436 3.226 29.7427 3.226 29.7418C3.226 29.7409 3.226 29.74 3.226 29.7391C3.226 29.7382 3.226 29.7373 3.226 29.7364C3.226 29.7355 3.226 29.7346 3.226 29.7337C3.226 29.7328 3.226 29.7319 3.226 29.731C3.226 29.7301 3.226 29.7292 3.226 29.7283C3.226 29.7275 3.226 29.7266 3.226 29.7257C3.226 29.7248 3.226 29.7239 3.226 29.723C3.226 29.7221 3.226 29.7212 3.226 29.7203C3.226 29.7194 3.226 29.7186 3.226 29.7177C3.226 29.7168 3.226 29.7159 3.226 29.715C3.226 29.7141 3.226 29.7132 3.226 29.7123C3.226 29.7115 3.226 29.7106 3.226 29.7097C3.226 29.7088 3.226 29.7079 3.226 29.707C3.226 29.7062 3.226 29.7053 3.226 29.7044C3.226 29.7035 3.226 29.7026 3.226 29.7017C3.226 29.7009 3.226 29.7 3.226 29.6991C3.226 29.6982 3.226 29.6973 3.226 29.6965C3.226 29.6956 3.226 29.6947 3.226 29.6938C3.226 29.6929 3.226 29.6921 3.226 29.6912C3.226 29.6903 3.226 29.6894 3.226 29.6886C3.226 29.6877 3.226 29.6868 3.226 29.6859C3.226 29.6851 3.226 29.6842 3.226 29.6833C3.226 29.6824 3.226 29.6816 3.226 29.6807C3.226 29.6798 3.226 29.6789 3.226 29.6781C3.226 29.6772 3.226 29.6763 3.226 29.6754C3.226 29.6746 3.226 29.6737 3.226 29.6728C3.226 29.672 3.226 29.6711 3.226 29.6702C3.226 29.6694 3.226 29.6685 3.226 29.6676C3.226 29.6668 3.226 29.6659 3.226 29.665C3.226 29.6642 3.226 29.6633 3.226 29.6624C3.226 29.6616 3.226 29.6607 3.226 29.6598C3.226 29.659 3.226 29.6581 3.226 29.6572C3.226 29.6564 3.226 29.6555 3.226 29.6546C3.226 29.6538 3.226 29.6529 3.226 29.6521C3.226 29.6512 3.226 29.6503 3.226 29.6495C3.226 29.6486 3.226 29.6478 3.226 29.6469C3.226 29.646 3.226 29.6452 3.226 29.6443C3.226 29.6435 3.226 29.6426 3.226 29.6418C3.226 29.6409 3.226 29.64 3.226 29.6392C3.226 29.6383 3.226 29.6375 3.226 29.6366C3.226 29.6358 3.226 29.6349 3.226 29.6341C3.226 29.6332 3.226 29.6323 3.226 29.6315C3.226 29.6306 3.226 29.6298 3.226 29.6289C3.226 29.6281 3.226 29.6272 3.226 29.6264C3.226 29.6255 3.226 29.6247 3.226 29.6238C3.226 29.623 3.226 29.6221 3.226 29.6213C3.226 29.6204 3.226 29.6196 3.226 29.6187C3.226 29.6179 3.226 29.617 3.226 29.6162C3.226 29.6154 3.226 29.6145 3.226 29.6137C3.226 29.6128 3.226 29.612 3.226 29.6111C3.226 29.6103 3.226 29.6094 3.226 29.6086C3.226 29.6078 3.226 29.6069 3.226 29.6061C3.226 29.6052 3.226 29.6044 3.226 29.6035C3.226 29.6027 3.226 29.6019 3.226 29.601C3.226 29.6002 3.226 29.5993 3.226 29.5985C3.226 29.5977 3.226 29.5968 3.226 29.596C3.226 29.5952 3.226 29.5943 3.226 29.5935C3.226 29.5926 3.226 29.5918 3.226 29.591C3.226 29.5901 3.226 29.5893 3.226 29.5885C3.226 29.5876 3.226 29.5868 3.226 29.586C3.226 29.5851 3.226 29.5843 3.226 29.5835C3.226 29.5826 3.226 29.5818 3.226 29.581C3.226 29.5801 3.226 29.5793 3.226 29.5785C3.226 29.5776 3.226 29.5768 3.226 29.576C3.226 29.5752 3.226 29.5743 3.226 29.5735C3.226 29.5727 3.226 29.5718 3.226 29.571C3.226 29.5702 3.226 29.5694 3.226 29.5685C3.226 29.5677 3.226 29.5669 3.226 29.5661C3.226 29.5652 3.226 29.5644 3.226 29.5636C3.226 29.5628 3.226 29.5619 3.226 29.5611C3.226 29.5603 3.226 29.5595 3.226 29.5586C3.226 29.5578 3.226 29.557 3.226 29.5562C3.226 29.5554 3.226 29.5545 3.226 29.5537C3.226 29.5529 3.226 29.5521 3.226 29.5513C3.226 29.5504 3.226 29.5496 3.226 29.5488C3.226 29.548 3.226 29.5472 3.226 29.5464C3.226 29.5455 3.226 29.5447 3.226 29.5439C3.226 29.5431 3.226 29.5423 3.226 29.5415C3.226 29.5407 3.226 29.5398 3.226 29.539C3.226 29.5382 3.226 29.5374 3.226 29.5366C3.226 29.5358 3.226 29.535 3.226 29.5342C3.226 29.5333 3.226 29.5325 3.226 29.5317C3.226 29.5309 3.226 29.5301 3.226 29.5293C3.226 29.5285 3.226 29.5277 3.226 29.5269C3.226 29.5261 3.226 29.5253 3.226 29.5244C3.226 29.5236 3.226 29.5228 3.226 29.522C3.226 29.5212 3.226 29.5204 3.226 29.5196C3.226 29.5188 3.226 29.518 3.226 29.5172C3.226 29.5164 3.226 29.5156 3.226 29.5148C3.226 29.514 3.226 29.5132 3.226 29.5124C3.226 29.5116 3.226 29.5108 3.226 29.51C3.226 29.5092 3.226 29.5084 3.226 29.5076C3.226 29.5068 3.226 29.506 3.226 29.5052C3.226 29.5044 3.226 29.5036 3.226 29.5028C3.226 29.502 3.226 29.5012 3.226 29.5004C3.226 29.4996 3.226 29.4988 3.226 29.498C3.226 29.4972 3.226 29.4964 3.226 29.4956C3.226 29.4948 3.226 29.494 3.226 29.4933C3.226 29.4925 3.226 29.4917 3.226 29.4909C3.226 29.4901 3.226 29.4893 3.226 29.4885C3.226 29.4877 3.226 29.4869 3.226 29.4861C3.226 29.4853 3.226 29.4846 3.226 29.4838C3.226 29.483 3.226 29.4822 3.226 29.4814C3.226 29.4806 3.226 29.4798 3.226 29.479C3.226 29.4782 3.226 29.4775 3.226 29.4767C3.226 29.4759 3.226 29.4751 3.226 29.4743C3.226 29.4735 3.226 29.4728 3.226 29.472C3.226 29.4712 3.226 29.4704 3.226 29.4696C3.226 29.4688 3.226 29.4681 3.226 29.4673C3.226 29.4665 3.226 29.4657 3.226 29.4649C3.226 29.4642 3.226 29.4634 3.226 29.4626C3.226 29.4618 3.226 29.461 3.226 29.4603C3.226 29.4595 3.226 29.4587 3.226 29.4579C3.226 29.4571 3.226 29.4564 3.226 29.4556C3.226 29.4548 3.226 29.454 3.226 29.4533C3.226 29.4525 3.226 29.4517 3.226 29.451C3.226 29.4502 3.226 29.4494 3.226 29.4486C3.226 29.4479 3.226 29.4471 3.226 29.4463C3.226 29.4455 3.226 29.4448 3.226 29.444C3.226 29.4432 3.226 29.4425 3.226 29.4417C3.226 29.4409 3.226 29.4402 3.226 29.4394C3.226 29.4386 3.226 29.4378 3.226 29.4371C3.226 29.4363 3.226 29.4355 3.226 29.4348C3.226 29.434 3.226 29.4332 3.226 29.4325C3.226 29.4317 3.226 29.431 3.226 29.4302C3.226 29.4294 3.226 29.4287 3.226 29.4279C3.226 29.4271 3.226 29.4264 3.226 29.4256C3.226 29.4248 3.226 29.4241 3.226 29.4233C3.226 29.4226 3.226 29.4218 3.226 29.421C3.226 29.4203 3.226 29.4195 3.226 29.4188C3.226 29.418 3.226 29.4172 3.226 29.4165C3.226 29.4157 3.226 29.415 3.226 29.4142C3.226 29.4135 3.226 29.4127 3.226 29.4119C3.226 29.4112 3.226 29.4104 3.226 29.4097C3.226 29.4089 3.226 29.4082 3.226 29.4074C3.226 29.4067 3.226 29.4059 3.226 29.4052C3.226 29.4044 3.226 29.4037 3.226 29.4029C3.226 29.4022 3.226 29.4014 3.226 29.4007C3.226 29.3999 3.226 29.3992 3.226 29.3984C3.226 29.3977 3.226 29.3969 3.226 29.3962C3.226 29.3954 3.226 29.3947 3.226 29.3939C3.226 29.3932 3.226 29.3924 3.226 29.3917C3.226 29.3909 3.226 29.3902 3.226 29.3894C3.226 29.3887 3.226 29.388 3.226 29.3872C3.226 29.3865 3.226 29.3857 3.226 29.385C3.226 29.3842 3.226 29.3835 3.226 29.3828C3.226 29.382 3.226 29.3813 3.226 29.3805C3.226 29.3798 3.226 29.3791 3.226 29.3783C3.226 29.3776 3.226 29.3768 3.226 29.3761C3.226 29.3754 3.226 29.3746 3.226 29.3739C3.226 29.3731 3.226 29.3724 3.226 29.3717C3.226 29.3709 3.226 29.3702 3.226 29.3695C3.226 29.3687 3.226 29.368 3.226 29.3673C3.226 29.3665 3.226 29.3658 3.226 29.3651C3.226 29.3643 3.226 29.3636 3.226 29.3629C3.226 29.3621 3.226 29.3614 3.226 29.3607C3.226 29.3599 3.226 29.3592 3.226 29.3585C3.226 29.3577 3.226 29.357 3.226 29.3563C3.226 29.3556 3.226 29.3548 3.226 29.3541C3.226 29.3534 3.226 29.3526 3.226 29.3519C3.226 29.3512 3.226 29.3505 3.226 29.3497C3.226 29.349 3.226 29.3483 3.226 29.3476C3.226 29.3468 3.226 29.3461 3.226 29.3454C3.226 29.3447 3.226 29.3439 3.226 29.3432C3.226 29.3425 3.226 29.3418 3.226 29.3411C3.226 29.3403 3.226 29.3396 3.226 29.3389C3.226 29.3382 3.226 29.3375 3.226 29.3367C3.226 29.336 3.226 29.3353 3.226 29.3346C3.226 29.3339 3.226 29.3331 3.226 29.3324C3.226 29.3317 3.226 29.331 3.226 29.3303C3.226 29.3296 3.226 29.3288 3.226 29.3281C3.226 29.3274 3.226 29.3267 3.226 29.326C3.226 29.3253 3.226 29.3246 3.226 29.3238C3.226 29.3231 3.226 29.3224 3.226 29.3217C3.226 29.321 3.226 29.3203 3.226 29.3196C3.226 29.3189 3.226 29.3182 3.226 29.3174C3.226 29.3167 3.226 29.316 3.226 29.3153C3.226 29.3146 3.226 29.3139 3.226 29.3132C3.226 29.3125 3.226 29.3118 3.226 29.3111C3.226 29.3104 3.226 29.3097 3.226 29.309C3.226 29.3082 3.226 29.3075 3.226 29.3068C3.226 29.3061 3.226 29.3054 3.226 29.3047C3.226 29.304 3.226 29.3033 3.226 29.3026C3.226 29.3019 3.226 29.3012 3.226 29.3005C3.226 29.2998 3.226 29.2991 3.226 29.2984C3.226 29.2977 3.226 29.297 3.226 29.2963C3.226 29.2956 3.226 29.2949 3.226 29.2942C3.226 29.2935 3.226 29.2928 3.226 29.2921C3.226 29.2914 3.226 29.2907 3.226 29.29C3.226 29.2893 3.226 29.2886 3.226 29.288C3.226 29.2873 3.226 29.2866 3.226 29.2859C3.226 29.2852 3.226 29.2845 3.226 29.2838C3.226 29.2831 3.226 29.2824 3.226 29.2817C3.226 29.281 3.226 29.2803 3.226 29.2796C3.226 29.2789 3.226 29.2783 3.226 29.2776C3.226 29.2769 3.226 29.2762 3.226 29.2755C3.226 29.2748 3.226 29.2741 3.226 29.2734C3.226 29.2728 3.226 29.2721 3.226 29.2714C3.226 29.2707 3.226 29.27 3.226 29.2693C3.226 29.2686 3.226 29.268 3.226 29.2673C3.226 29.2666 3.226 29.2659 3.226 29.2652C3.226 29.2645 3.226 29.2639 3.226 29.2632C3.226 29.2625 3.226 29.2618 3.226 29.2611C3.226 29.2604 3.226 29.2598 3.226 29.2591C3.226 29.2584 3.226 29.2577 3.226 29.257C3.226 29.2564 3.226 29.2557 3.226 29.255C3.226 29.2543 3.226 29.2537 3.226 29.253C3.226 29.2523 3.226 29.2516 3.226 29.251C3.226 29.2503 3.226 29.2496 3.226 29.2489C3.226 29.2483 3.226 29.2476 3.226 29.2469C3.226 29.2462 3.226 29.2456 3.226 29.2449C3.226 29.2442 3.226 29.2435 3.226 29.2429C3.226 29.2422 3.226 29.2415 3.226 29.2409C3.226 29.2402 3.226 29.2395 3.226 29.2389C3.226 29.2382 3.226 29.2375 3.226 29.2369C3.226 29.2362 3.226 29.2355 3.226 29.2348C3.226 29.2342 3.226 29.2335 3.226 29.2328C3.226 29.2322 3.226 29.2315 3.226 29.2309C3.226 29.2302 3.226 29.2295 3.226 29.2289C3.226 29.2282 3.226 29.2275 3.226 29.2269C3.226 29.2262 3.226 29.2255 3.226 29.2249C3.226 29.2242 3.226 29.2236 3.226 29.2229C3.226 29.2222 3.226 29.2216 3.226 29.2209C3.226 29.2203 3.226 29.2196 3.226 29.2189C3.226 29.2183 3.226 29.2176 3.226 29.217C3.226 29.2163 3.226 29.2157 3.226 29.215C3.226 29.2143 3.226 29.2137 3.226 29.213C3.226 29.2124 3.226 29.2117 3.226 29.2111C3.226 29.2104 3.226 29.2098 3.226 29.2091C3.226 29.2085 3.226 29.2078 3.226 29.2071C3.226 29.2065 3.226 29.2058 3.226 29.2052C3.226 29.2045 3.226 29.2039 3.226 29.2032C3.226 29.2026 3.226 29.2019 3.226 29.2013C3.226 29.2006 3.226 29.2 3.226 29.1994C3.226 29.1987 3.226 29.1981 3.226 29.1974C3.226 29.1968 3.226 29.1961 3.226 29.1955C3.226 29.1948 3.226 29.1942 3.226 29.1935C3.226 29.1929 3.226 29.1922 3.226 29.1916C3.226 29.191 3.226 29.1903 3.226 29.1897C3.226 29.189 3.226 29.1884 3.226 29.1878C3.226 29.1871 3.226 29.1865 3.226 29.1858C3.226 29.1852 3.226 29.1845 3.226 29.1839C3.226 29.1833 3.226 29.1826 3.226 29.182C3.226 29.1814 3.226 29.1807 3.226 29.1801C3.226 29.1794 3.226 29.1788 3.226 29.1782C3.226 29.1775 3.226 29.1769 3.226 29.1763C3.226 29.1756 3.226 29.175 3.226 29.1744C3.226 29.1737 3.226 29.1731 3.226 29.1725C3.226 29.1718 3.226 29.1712 3.226 29.1706C3.226 29.1699 3.226 29.1693 3.226 29.1687C3.226 29.168 3.226 29.1674 3.226 29.1668C3.226 29.1662 3.226 29.1655 3.226 29.1649C3.226 29.1643 3.226 29.1636 3.226 29.163C3.226 29.1624 3.226 29.1618 3.226 29.1611C3.226 29.1605 3.226 29.1599 3.226 29.1593C3.226 29.1586 3.226 29.158 3.226 29.1574C3.226 29.1568 3.226 29.1561 3.226 29.1555C3.226 29.1549 3.226 29.1543 3.226 29.1536C3.226 29.153 3.226 29.1524 3.226 29.1518C3.226 29.1512 3.226 29.1505 3.226 29.1499C3.226 29.1493 3.226 29.1487 3.226 29.1481C3.226 29.1474 3.226 29.1468 3.226 29.1462C3.226 29.1456 3.226 29.145 3.226 29.1443C3.226 29.1437 3.226 29.1431 3.226 29.1425C3.226 29.1419 3.226 29.1413 3.226 29.1407C3.226 29.14 3.226 29.1394 3.226 29.1388C3.226 29.1382 3.226 29.1376 3.226 29.137C3.226 29.1364 3.226 29.1357 3.226 29.1351C3.226 29.1345 3.226 29.1339 3.226 29.1333C3.226 29.1327 3.226 29.1321 3.226 29.1315C3.226 29.1309 3.226 29.1303 3.226 29.1297C3.226 29.129 3.226 29.1284 3.226 29.1278C3.226 29.1272 3.226 29.1266 3.226 29.126C3.226 29.1254 3.226 29.1248 3.226 29.1242C3.226 29.1236 3.226 29.123 3.226 29.1224C3.226 29.1218 3.226 29.1212 3.226 29.1206C3.226 29.12 3.226 29.1194 3.226 29.1188C3.226 29.1182 3.226 29.1176 3.226 29.117C3.226 29.1164 3.226 29.1158 3.226 29.1152C3.226 29.1146 3.226 29.114 3.226 29.1134C3.226 29.1128 3.226 29.1122 3.226 29.1116C3.226 29.111 3.226 29.1104 3.226 29.1098C3.226 29.1092 3.226 29.1086 3.226 29.108C3.226 29.1074 3.226 29.1068 3.226 29.1062C3.226 29.1056 3.226 29.105 3.226 29.1044C3.226 29.1038 3.226 29.1032 3.226 29.1026C3.226 29.1021 3.226 29.1015 3.226 29.1009C3.226 29.1003 3.226 29.0997 3.226 29.0991C3.226 29.0985 3.226 29.0979 3.226 29.0973C3.226 29.0967 3.226 29.0961 3.226 29.0956C3.226 29.095 3.226 29.0944 3.226 29.0938C3.226 29.0932 3.226 29.0926 3.226 29.092C3.226 29.0915 3.226 29.0909 3.226 29.0903C3.226 29.0897 3.226 29.0891 3.226 29.0885C3.226 29.088 3.226 29.0874 3.226 29.0868C3.226 29.0862 3.226 29.0856 3.226 29.085C3.226 29.0845 3.226 29.0839 3.226 29.0833C3.226 29.0827 3.226 29.0821 3.226 29.0816C3.226 29.081 3.226 29.0804 3.226 29.0798C3.226 29.0792 3.226 29.0787 3.226 29.0781C3.226 29.0775 3.226 29.0769 3.226 29.0764C3.226 29.0758 3.226 29.0752 3.226 29.0746C3.226 29.0741 3.226 29.0735 3.226 29.0729C3.226 29.0723 3.226 29.0718 3.226 29.0712C3.226 29.0706 3.226 29.07 3.226 29.0695C3.226 29.0689 3.226 29.0683 3.226 29.0678C3.226 29.0672 3.226 29.0666 3.226 29.066C3.226 29.0655 3.226 29.0649 3.226 29.0643C3.226 29.0638 3.226 29.0632 3.226 29.0626C3.226 29.0621 3.226 29.0615 3.226 29.0609C3.226 29.0604 3.226 29.0598 3.226 29.0592C3.226 29.0587 3.226 29.0581 3.226 29.0575C3.226 29.057 3.226 29.0564 3.226 29.0558C3.226 29.0553 3.226 29.0547 3.226 29.0542C3.226 29.0536 3.226 29.053 3.226 29.0525C3.226 29.0519 3.226 29.0513 3.226 29.0508C3.226 29.0502 3.226 29.0497 3.226 29.0491C3.226 29.0486 3.226 29.048 3.226 29.0474C3.226 29.0469 3.226 29.0463 3.226 29.0458C3.226 29.0452 3.226 29.0447 3.226 29.0441C3.226 29.0435 3.226 29.043 3.226 29.0424C3.226 29.0419 3.226 29.0413 3.226 29.0408C3.226 29.0402 3.226 29.0397 3.226 29.0391C3.226 29.0386 3.226 29.038 3.226 29.0374C3.226 29.0369 3.226 29.0363 3.226 29.0358C3.226 29.0352 3.226 29.0347 3.226 29.0341C3.226 29.0336 3.226 29.033 3.226 29.0325C3.226 29.032 3.226 29.0314 3.226 29.0309C3.226 29.0303 3.226 29.0298 3.226 29.0292C3.226 29.0287 3.226 29.0281 3.226 29.0276C3.226 29.027 3.226 29.0265 3.226 29.0259C3.226 29.0254 3.226 29.0249 3.226 29.0243C3.226 29.0238 3.226 29.0232 3.226 29.0227C3.226 29.0221 3.226 29.0216 3.226 29.0211C3.226 29.0205 3.226 29.02 3.226 29.0194C3.226 29.0189 3.226 29.0184 3.226 29.0178C3.226 29.0173 3.226 29.0167 3.226 29.0162C3.226 29.0157 3.226 29.0151 3.226 29.0146C3.226 29.0141 3.226 29.0135 3.226 29.013C3.226 29.0125 3.226 29.0119 3.226 29.0114C3.226 29.0108 3.226 29.0103 3.226 29.0098C3.226 29.0093 3.226 29.0087 3.226 29.0082C3.226 29.0077 3.226 29.0071 3.226 29.0066C3.226 29.0061 3.226 29.0055 3.226 29.005C3.226 29.0045 3.226 29.0039 3.226 29.0034C3.226 29.0029 3.226 29.0023 3.226 29.0018C3.226 29.0013 3.226 29.0008 3.226 29.0002C3.226 28.9997 3.226 28.9992 3.226 28.9987C3.226 28.9981 3.226 28.9976 3.226 28.9971C3.226 28.9966 3.226 28.996 3.226 28.9955C3.226 28.995 3.226 28.9945 3.226 28.9939C3.226 28.9934 3.226 28.9929 3.226 28.9924C3.226 28.9919 3.226 28.9913 3.226 28.9908C3.226 28.9903 3.226 28.9898 3.226 28.9893C3.226 28.9887 3.226 28.9882 3.226 28.9877C3.226 28.9872 3.226 28.9867 3.226 28.9861C3.226 28.9856 3.226 28.9851 3.226 28.9846C3.226 28.9841 3.226 28.9836 3.226 28.983C3.226 28.9825 3.226 28.982 3.226 28.9815C3.226 28.981 3.226 28.9805 3.226 28.98C3.226 28.9794 3.226 28.9789 3.226 28.9784C3.226 28.9779 3.226 28.9774 3.226 28.9769C3.226 28.9764 3.226 28.9759 3.226 28.9754C3.226 28.9748 3.226 28.9743 3.226 28.9738C3.226 28.9733 3.226 28.9728 3.226 28.9723C3.226 28.9718 3.226 28.9713 3.226 28.9708C3.226 28.9703 3.226 28.9698 3.226 28.9693C3.226 28.9688 3.226 28.9682 3.226 28.9677C3.226 28.9672 3.226 28.9667 3.226 28.9662C3.226 28.9657 3.226 28.9652 3.226 28.9647C3.226 28.9642 3.226 28.9637 3.226 28.9632C3.226 28.9627 3.226 28.9622 3.226 28.9617C3.226 28.9612 3.226 28.9607 3.226 28.9602C3.226 28.9597 3.226 28.9592 3.226 28.9587C3.226 28.9582 3.226 28.9577 3.226 28.9572C3.226 28.9567 3.226 28.9562 3.226 28.9557C3.226 28.9552 3.226 28.9547 3.226 28.9543C3.226 28.9538 3.226 28.9533 3.226 28.9528C3.226 28.9523 3.226 28.9518 3.226 28.9513C3.226 28.9508 3.226 28.9503 3.226 28.9498C3.226 28.9493 3.226 28.9488 3.226 28.9483C3.226 28.9478 3.226 28.9474 3.226 28.9469C3.226 28.9464 3.226 28.9459 3.226 28.9454C3.226 28.9449 3.226 28.9444 3.226 28.9439C3.226 28.9434 3.226 28.943 3.226 28.9425C3.226 28.942 3.226 28.9415 3.226 28.941C3.226 28.9405 3.226 28.94 3.226 28.9396C3.226 28.9391 3.226 28.9386 3.226 28.9381C3.226 28.9376 3.226 28.9371 3.226 28.9367C3.226 28.9362 3.226 28.9357 3.226 28.9352C3.226 28.9347 3.226 28.9343 3.226 28.9338C3.226 28.9333 3.226 28.9328 3.226 28.9323C3.226 28.9319 3.226 28.9314 3.226 28.9309C3.226 28.9304 3.226 28.9299 3.226 28.9295C3.226 28.929 3.226 28.9285 3.226 28.928C3.226 28.9276 3.226 28.9271 3.226 28.9266C3.226 28.9261 3.226 28.9257 3.226 28.9252C3.226 28.9247 3.226 28.9242 3.226 28.9238C3.226 28.9233 3.226 28.9228 3.226 28.9224C3.226 28.9219 3.226 28.9214 3.226 28.9209C3.226 28.9205 3.226 28.92 3.226 28.9195C3.226 28.9191 3.226 28.9186 3.226 28.9181C3.226 28.9177 3.226 28.9172 3.226 28.9167C3.226 28.9163 3.226 28.9158 3.226 28.9153C3.226 28.9149 3.226 28.9144 3.226 28.9139C3.226 28.9135 3.226 28.913 3.226 28.9125C3.226 28.9121 3.226 28.9116 3.226 28.9111C3.226 28.9107 3.226 28.9102 3.226 28.9098C3.226 28.9093 3.226 28.9088 3.226 28.9084C3.226 28.9079 3.226 28.9075 3.226 28.907C3.226 28.9065 3.226 28.9061 3.226 28.9056C3.226 28.9052 3.226 28.9047 3.226 28.9042C3.226 28.9038 3.226 28.9033 3.226 28.9029C3.226 28.9024 3.226 28.902 3.226 28.9015C3.226 28.901 3.226 28.9006 3.226 28.9001C3.226 28.8997 3.226 28.8992 3.226 28.8988C3.226 28.8983 3.226 28.8979 3.226 28.8974C3.226 28.897 3.226 28.8965 3.226 28.8961C3.226 28.8956 3.226 28.8952 3.226 28.8947C3.226 28.8943 3.226 28.8938 3.226 28.8934C3.226 28.8929 3.226 28.8925 3.226 28.892C3.226 28.8916 3.226 28.8911 3.226 28.8907C3.226 28.8902 3.226 28.8898 3.226 28.8893C3.226 28.8889 3.226 28.8884 3.226 28.888C3.226 28.8876 3.226 28.8871 3.226 28.8867C3.226 28.8862 3.226 28.8858 3.226 28.8853C3.226 28.8849 3.226 28.8845 3.226 28.884C3.226 28.8836 3.226 28.8831 3.226 28.8827C3.226 28.8822 3.226 28.8818 3.226 28.8814C3.226 28.8809 3.226 28.8805 3.226 28.8801C3.226 28.8796 3.226 28.8792 3.226 28.8787C3.226 28.8783 3.226 28.8779 3.226 28.8774C3.226 28.877 3.226 28.8766 3.226 28.8761C3.226 28.8757 3.226 28.8753 3.226 28.8748C3.226 28.8744 3.226 28.8739 3.226 28.8735C3.226 28.8731 3.226 28.8727 3.226 28.8722C3.226 28.8718 3.226 28.8714 3.226 28.8709C3.226 28.8705 3.226 28.8701 3.226 28.8696C3.226 28.8692 3.226 28.8688 3.226 28.8683C3.226 28.8679 3.226 28.8675 3.226 28.8671C3.226 28.8666 3.226 28.8662 3.226 28.8658C3.226 28.8654 3.226 28.8649 3.226 28.8645C3.226 28.8641 3.226 28.8637 3.226 28.8632C3.226 28.8628 3.226 28.8624 3.226 28.862C3.226 28.8615 3.226 28.8611 3.226 28.8607C3.226 28.8603 3.226 28.8598 3.226 28.8594C3.226 28.859 3.226 28.8586 3.226 28.8582C3.226 28.8577 3.226 28.8573 3.226 28.8569C3.226 28.8565 3.226 28.8561 3.226 28.8556C3.226 28.8552 3.226 28.8548 3.226 28.8544C3.226 28.854 3.226 28.8536 3.226 28.8531C3.226 28.8527 3.226 28.8523 3.226 28.8519C3.226 28.8515 3.226 28.8511 3.226 28.8507C3.226 28.8502 3.226 28.8498 3.226 28.8494C3.226 28.849 3.226 28.8486 3.226 28.8482C3.226 28.8478 3.226 28.8474 3.226 28.8469C3.226 28.8465 3.226 28.8461 3.226 28.8457C3.226 28.8453 3.226 28.8449 3.226 28.8445C3.226 28.8441 3.226 28.8437 3.226 28.8433C3.226 28.8429 3.226 28.8424 3.226 28.842C3.226 28.8416 3.226 28.8412 3.226 28.8408C3.226 28.8404 3.226 28.84 3.226 28.8396C3.226 28.8392 3.226 28.8388 3.226 28.8384C3.226 28.838 3.226 28.8376 3.226 28.8372C3.226 28.8368 3.226 28.8364 3.226 28.836C3.226 28.8356 3.226 28.8352 3.226 28.8348C3.226 28.8344 3.226 28.834 3.226 28.8336C3.226 28.8332 3.226 28.8328 3.226 28.8324C3.226 28.832 3.226 28.8316 3.226 28.8312C3.226 28.8308 3.226 28.8304 3.226 28.83C3.226 28.8296 3.226 28.8292 3.226 28.8288C3.226 28.8284 3.226 28.828 3.226 28.8276C3.226 28.8273 3.226 28.8269 3.226 28.8265C3.226 28.8261 3.226 28.8257 3.226 28.8253C3.226 28.8249 3.226 28.8245 3.226 28.8241C3.226 28.8237 3.226 28.8233 3.226 28.8229C3.226 28.8226 3.226 28.8222 3.226 28.8218C3.226 28.8214 3.226 28.821 3.226 28.8206C3.226 28.8202 3.226 28.8198 3.226 28.8195C3.226 28.8191 3.226 28.8187 3.226 28.8183C3.226 28.8179 3.226 28.8175 3.226 28.8172C3.226 28.8168 3.226 28.8164 3.226 28.816H1.226C1.226 28.8164 1.226 28.8168 1.226 28.8172C1.226 28.8175 1.226 28.8179 1.226 28.8183C1.226 28.8187 1.226 28.8191 1.226 28.8195C1.226 28.8198 1.226 28.8202 1.226 28.8206C1.226 28.821 1.226 28.8214 1.226 28.8218C1.226 28.8222 1.226 28.8226 1.226 28.8229C1.226 28.8233 1.226 28.8237 1.226 28.8241C1.226 28.8245 1.226 28.8249 1.226 28.8253C1.226 28.8257 1.226 28.8261 1.226 28.8265C1.226 28.8269 1.226 28.8273 1.226 28.8276C1.226 28.828 1.226 28.8284 1.226 28.8288C1.226 28.8292 1.226 28.8296 1.226 28.83C1.226 28.8304 1.226 28.8308 1.226 28.8312C1.226 28.8316 1.226 28.832 1.226 28.8324C1.226 28.8328 1.226 28.8332 1.226 28.8336C1.226 28.834 1.226 28.8344 1.226 28.8348C1.226 28.8352 1.226 28.8356 1.226 28.836C1.226 28.8364 1.226 28.8368 1.226 28.8372C1.226 28.8376 1.226 28.838 1.226 28.8384C1.226 28.8388 1.226 28.8392 1.226 28.8396C1.226 28.84 1.226 28.8404 1.226 28.8408C1.226 28.8412 1.226 28.8416 1.226 28.842C1.226 28.8424 1.226 28.8429 1.226 28.8433C1.226 28.8437 1.226 28.8441 1.226 28.8445C1.226 28.8449 1.226 28.8453 1.226 28.8457C1.226 28.8461 1.226 28.8465 1.226 28.8469C1.226 28.8474 1.226 28.8478 1.226 28.8482C1.226 28.8486 1.226 28.849 1.226 28.8494C1.226 28.8498 1.226 28.8502 1.226 28.8507C1.226 28.8511 1.226 28.8515 1.226 28.8519C1.226 28.8523 1.226 28.8527 1.226 28.8531C1.226 28.8536 1.226 28.854 1.226 28.8544C1.226 28.8548 1.226 28.8552 1.226 28.8556C1.226 28.8561 1.226 28.8565 1.226 28.8569C1.226 28.8573 1.226 28.8577 1.226 28.8582C1.226 28.8586 1.226 28.859 1.226 28.8594C1.226 28.8598 1.226 28.8603 1.226 28.8607C1.226 28.8611 1.226 28.8615 1.226 28.862C1.226 28.8624 1.226 28.8628 1.226 28.8632C1.226 28.8637 1.226 28.8641 1.226 28.8645C1.226 28.8649 1.226 28.8654 1.226 28.8658C1.226 28.8662 1.226 28.8666 1.226 28.8671C1.226 28.8675 1.226 28.8679 1.226 28.8683C1.226 28.8688 1.226 28.8692 1.226 28.8696C1.226 28.8701 1.226 28.8705 1.226 28.8709C1.226 28.8714 1.226 28.8718 1.226 28.8722C1.226 28.8727 1.226 28.8731 1.226 28.8735C1.226 28.8739 1.226 28.8744 1.226 28.8748C1.226 28.8753 1.226 28.8757 1.226 28.8761C1.226 28.8766 1.226 28.877 1.226 28.8774C1.226 28.8779 1.226 28.8783 1.226 28.8787C1.226 28.8792 1.226 28.8796 1.226 28.8801C1.226 28.8805 1.226 28.8809 1.226 28.8814C1.226 28.8818 1.226 28.8822 1.226 28.8827C1.226 28.8831 1.226 28.8836 1.226 28.884C1.226 28.8845 1.226 28.8849 1.226 28.8853C1.226 28.8858 1.226 28.8862 1.226 28.8867C1.226 28.8871 1.226 28.8876 1.226 28.888C1.226 28.8884 1.226 28.8889 1.226 28.8893C1.226 28.8898 1.226 28.8902 1.226 28.8907C1.226 28.8911 1.226 28.8916 1.226 28.892C1.226 28.8925 1.226 28.8929 1.226 28.8934C1.226 28.8938 1.226 28.8943 1.226 28.8947C1.226 28.8952 1.226 28.8956 1.226 28.8961C1.226 28.8965 1.226 28.897 1.226 28.8974C1.226 28.8979 1.226 28.8983 1.226 28.8988C1.226 28.8992 1.226 28.8997 1.226 28.9001C1.226 28.9006 1.226 28.901 1.226 28.9015C1.226 28.902 1.226 28.9024 1.226 28.9029C1.226 28.9033 1.226 28.9038 1.226 28.9042C1.226 28.9047 1.226 28.9052 1.226 28.9056C1.226 28.9061 1.226 28.9065 1.226 28.907C1.226 28.9075 1.226 28.9079 1.226 28.9084C1.226 28.9088 1.226 28.9093 1.226 28.9098C1.226 28.9102 1.226 28.9107 1.226 28.9111C1.226 28.9116 1.226 28.9121 1.226 28.9125C1.226 28.913 1.226 28.9135 1.226 28.9139C1.226 28.9144 1.226 28.9149 1.226 28.9153C1.226 28.9158 1.226 28.9163 1.226 28.9167C1.226 28.9172 1.226 28.9177 1.226 28.9181C1.226 28.9186 1.226 28.9191 1.226 28.9195C1.226 28.92 1.226 28.9205 1.226 28.9209C1.226 28.9214 1.226 28.9219 1.226 28.9224C1.226 28.9228 1.226 28.9233 1.226 28.9238C1.226 28.9242 1.226 28.9247 1.226 28.9252C1.226 28.9257 1.226 28.9261 1.226 28.9266C1.226 28.9271 1.226 28.9276 1.226 28.928C1.226 28.9285 1.226 28.929 1.226 28.9295C1.226 28.9299 1.226 28.9304 1.226 28.9309C1.226 28.9314 1.226 28.9319 1.226 28.9323C1.226 28.9328 1.226 28.9333 1.226 28.9338C1.226 28.9343 1.226 28.9347 1.226 28.9352C1.226 28.9357 1.226 28.9362 1.226 28.9367C1.226 28.9371 1.226 28.9376 1.226 28.9381C1.226 28.9386 1.226 28.9391 1.226 28.9396C1.226 28.94 1.226 28.9405 1.226 28.941C1.226 28.9415 1.226 28.942 1.226 28.9425C1.226 28.943 1.226 28.9434 1.226 28.9439C1.226 28.9444 1.226 28.9449 1.226 28.9454C1.226 28.9459 1.226 28.9464 1.226 28.9469C1.226 28.9474 1.226 28.9478 1.226 28.9483C1.226 28.9488 1.226 28.9493 1.226 28.9498C1.226 28.9503 1.226 28.9508 1.226 28.9513C1.226 28.9518 1.226 28.9523 1.226 28.9528C1.226 28.9533 1.226 28.9538 1.226 28.9543C1.226 28.9547 1.226 28.9552 1.226 28.9557C1.226 28.9562 1.226 28.9567 1.226 28.9572C1.226 28.9577 1.226 28.9582 1.226 28.9587C1.226 28.9592 1.226 28.9597 1.226 28.9602C1.226 28.9607 1.226 28.9612 1.226 28.9617C1.226 28.9622 1.226 28.9627 1.226 28.9632C1.226 28.9637 1.226 28.9642 1.226 28.9647C1.226 28.9652 1.226 28.9657 1.226 28.9662C1.226 28.9667 1.226 28.9672 1.226 28.9677C1.226 28.9682 1.226 28.9688 1.226 28.9693C1.226 28.9698 1.226 28.9703 1.226 28.9708C1.226 28.9713 1.226 28.9718 1.226 28.9723C1.226 28.9728 1.226 28.9733 1.226 28.9738C1.226 28.9743 1.226 28.9748 1.226 28.9754C1.226 28.9759 1.226 28.9764 1.226 28.9769C1.226 28.9774 1.226 28.9779 1.226 28.9784C1.226 28.9789 1.226 28.9794 1.226 28.98C1.226 28.9805 1.226 28.981 1.226 28.9815C1.226 28.982 1.226 28.9825 1.226 28.983C1.226 28.9836 1.226 28.9841 1.226 28.9846C1.226 28.9851 1.226 28.9856 1.226 28.9861C1.226 28.9867 1.226 28.9872 1.226 28.9877C1.226 28.9882 1.226 28.9887 1.226 28.9893C1.226 28.9898 1.226 28.9903 1.226 28.9908C1.226 28.9913 1.226 28.9919 1.226 28.9924C1.226 28.9929 1.226 28.9934 1.226 28.9939C1.226 28.9945 1.226 28.995 1.226 28.9955C1.226 28.996 1.226 28.9966 1.226 28.9971C1.226 28.9976 1.226 28.9981 1.226 28.9987C1.226 28.9992 1.226 28.9997 1.226 29.0002C1.226 29.0008 1.226 29.0013 1.226 29.0018C1.226 29.0023 1.226 29.0029 1.226 29.0034C1.226 29.0039 1.226 29.0045 1.226 29.005C1.226 29.0055 1.226 29.0061 1.226 29.0066C1.226 29.0071 1.226 29.0077 1.226 29.0082C1.226 29.0087 1.226 29.0093 1.226 29.0098C1.226 29.0103 1.226 29.0108 1.226 29.0114C1.226 29.0119 1.226 29.0125 1.226 29.013C1.226 29.0135 1.226 29.0141 1.226 29.0146C1.226 29.0151 1.226 29.0157 1.226 29.0162C1.226 29.0167 1.226 29.0173 1.226 29.0178C1.226 29.0184 1.226 29.0189 1.226 29.0194C1.226 29.02 1.226 29.0205 1.226 29.0211C1.226 29.0216 1.226 29.0221 1.226 29.0227C1.226 29.0232 1.226 29.0238 1.226 29.0243C1.226 29.0249 1.226 29.0254 1.226 29.0259C1.226 29.0265 1.226 29.027 1.226 29.0276C1.226 29.0281 1.226 29.0287 1.226 29.0292C1.226 29.0298 1.226 29.0303 1.226 29.0309C1.226 29.0314 1.226 29.032 1.226 29.0325C1.226 29.033 1.226 29.0336 1.226 29.0341C1.226 29.0347 1.226 29.0352 1.226 29.0358C1.226 29.0363 1.226 29.0369 1.226 29.0374C1.226 29.038 1.226 29.0386 1.226 29.0391C1.226 29.0397 1.226 29.0402 1.226 29.0408C1.226 29.0413 1.226 29.0419 1.226 29.0424C1.226 29.043 1.226 29.0435 1.226 29.0441C1.226 29.0447 1.226 29.0452 1.226 29.0458C1.226 29.0463 1.226 29.0469 1.226 29.0474C1.226 29.048 1.226 29.0486 1.226 29.0491C1.226 29.0497 1.226 29.0502 1.226 29.0508C1.226 29.0513 1.226 29.0519 1.226 29.0525C1.226 29.053 1.226 29.0536 1.226 29.0542C1.226 29.0547 1.226 29.0553 1.226 29.0558C1.226 29.0564 1.226 29.057 1.226 29.0575C1.226 29.0581 1.226 29.0587 1.226 29.0592C1.226 29.0598 1.226 29.0604 1.226 29.0609C1.226 29.0615 1.226 29.0621 1.226 29.0626C1.226 29.0632 1.226 29.0638 1.226 29.0643C1.226 29.0649 1.226 29.0655 1.226 29.066C1.226 29.0666 1.226 29.0672 1.226 29.0678C1.226 29.0683 1.226 29.0689 1.226 29.0695C1.226 29.07 1.226 29.0706 1.226 29.0712C1.226 29.0718 1.226 29.0723 1.226 29.0729C1.226 29.0735 1.226 29.0741 1.226 29.0746C1.226 29.0752 1.226 29.0758 1.226 29.0764C1.226 29.0769 1.226 29.0775 1.226 29.0781C1.226 29.0787 1.226 29.0792 1.226 29.0798C1.226 29.0804 1.226 29.081 1.226 29.0816C1.226 29.0821 1.226 29.0827 1.226 29.0833C1.226 29.0839 1.226 29.0845 1.226 29.085C1.226 29.0856 1.226 29.0862 1.226 29.0868C1.226 29.0874 1.226 29.088 1.226 29.0885C1.226 29.0891 1.226 29.0897 1.226 29.0903C1.226 29.0909 1.226 29.0915 1.226 29.092C1.226 29.0926 1.226 29.0932 1.226 29.0938C1.226 29.0944 1.226 29.095 1.226 29.0956C1.226 29.0961 1.226 29.0967 1.226 29.0973C1.226 29.0979 1.226 29.0985 1.226 29.0991C1.226 29.0997 1.226 29.1003 1.226 29.1009C1.226 29.1015 1.226 29.1021 1.226 29.1026C1.226 29.1032 1.226 29.1038 1.226 29.1044C1.226 29.105 1.226 29.1056 1.226 29.1062C1.226 29.1068 1.226 29.1074 1.226 29.108C1.226 29.1086 1.226 29.1092 1.226 29.1098C1.226 29.1104 1.226 29.111 1.226 29.1116C1.226 29.1122 1.226 29.1128 1.226 29.1134C1.226 29.114 1.226 29.1146 1.226 29.1152C1.226 29.1158 1.226 29.1164 1.226 29.117C1.226 29.1176 1.226 29.1182 1.226 29.1188C1.226 29.1194 1.226 29.12 1.226 29.1206C1.226 29.1212 1.226 29.1218 1.226 29.1224C1.226 29.123 1.226 29.1236 1.226 29.1242C1.226 29.1248 1.226 29.1254 1.226 29.126C1.226 29.1266 1.226 29.1272 1.226 29.1278C1.226 29.1284 1.226 29.129 1.226 29.1297C1.226 29.1303 1.226 29.1309 1.226 29.1315C1.226 29.1321 1.226 29.1327 1.226 29.1333C1.226 29.1339 1.226 29.1345 1.226 29.1351C1.226 29.1357 1.226 29.1364 1.226 29.137C1.226 29.1376 1.226 29.1382 1.226 29.1388C1.226 29.1394 1.226 29.14 1.226 29.1407C1.226 29.1413 1.226 29.1419 1.226 29.1425C1.226 29.1431 1.226 29.1437 1.226 29.1443C1.226 29.145 1.226 29.1456 1.226 29.1462C1.226 29.1468 1.226 29.1474 1.226 29.1481C1.226 29.1487 1.226 29.1493 1.226 29.1499C1.226 29.1505 1.226 29.1512 1.226 29.1518C1.226 29.1524 1.226 29.153 1.226 29.1536C1.226 29.1543 1.226 29.1549 1.226 29.1555C1.226 29.1561 1.226 29.1568 1.226 29.1574C1.226 29.158 1.226 29.1586 1.226 29.1593C1.226 29.1599 1.226 29.1605 1.226 29.1611C1.226 29.1618 1.226 29.1624 1.226 29.163C1.226 29.1636 1.226 29.1643 1.226 29.1649C1.226 29.1655 1.226 29.1662 1.226 29.1668C1.226 29.1674 1.226 29.168 1.226 29.1687C1.226 29.1693 1.226 29.1699 1.226 29.1706C1.226 29.1712 1.226 29.1718 1.226 29.1725C1.226 29.1731 1.226 29.1737 1.226 29.1744C1.226 29.175 1.226 29.1756 1.226 29.1763C1.226 29.1769 1.226 29.1775 1.226 29.1782C1.226 29.1788 1.226 29.1794 1.226 29.1801C1.226 29.1807 1.226 29.1814 1.226 29.182C1.226 29.1826 1.226 29.1833 1.226 29.1839C1.226 29.1845 1.226 29.1852 1.226 29.1858C1.226 29.1865 1.226 29.1871 1.226 29.1878C1.226 29.1884 1.226 29.189 1.226 29.1897C1.226 29.1903 1.226 29.191 1.226 29.1916C1.226 29.1922 1.226 29.1929 1.226 29.1935C1.226 29.1942 1.226 29.1948 1.226 29.1955C1.226 29.1961 1.226 29.1968 1.226 29.1974C1.226 29.1981 1.226 29.1987 1.226 29.1994C1.226 29.2 1.226 29.2006 1.226 29.2013C1.226 29.2019 1.226 29.2026 1.226 29.2032C1.226 29.2039 1.226 29.2045 1.226 29.2052C1.226 29.2058 1.226 29.2065 1.226 29.2071C1.226 29.2078 1.226 29.2085 1.226 29.2091C1.226 29.2098 1.226 29.2104 1.226 29.2111C1.226 29.2117 1.226 29.2124 1.226 29.213C1.226 29.2137 1.226 29.2143 1.226 29.215C1.226 29.2157 1.226 29.2163 1.226 29.217C1.226 29.2176 1.226 29.2183 1.226 29.2189C1.226 29.2196 1.226 29.2203 1.226 29.2209C1.226 29.2216 1.226 29.2222 1.226 29.2229C1.226 29.2236 1.226 29.2242 1.226 29.2249C1.226 29.2255 1.226 29.2262 1.226 29.2269C1.226 29.2275 1.226 29.2282 1.226 29.2289C1.226 29.2295 1.226 29.2302 1.226 29.2309C1.226 29.2315 1.226 29.2322 1.226 29.2328C1.226 29.2335 1.226 29.2342 1.226 29.2348C1.226 29.2355 1.226 29.2362 1.226 29.2369C1.226 29.2375 1.226 29.2382 1.226 29.2389C1.226 29.2395 1.226 29.2402 1.226 29.2409C1.226 29.2415 1.226 29.2422 1.226 29.2429C1.226 29.2435 1.226 29.2442 1.226 29.2449C1.226 29.2456 1.226 29.2462 1.226 29.2469C1.226 29.2476 1.226 29.2483 1.226 29.2489C1.226 29.2496 1.226 29.2503 1.226 29.251C1.226 29.2516 1.226 29.2523 1.226 29.253C1.226 29.2537 1.226 29.2543 1.226 29.255C1.226 29.2557 1.226 29.2564 1.226 29.257C1.226 29.2577 1.226 29.2584 1.226 29.2591C1.226 29.2598 1.226 29.2604 1.226 29.2611C1.226 29.2618 1.226 29.2625 1.226 29.2632C1.226 29.2639 1.226 29.2645 1.226 29.2652C1.226 29.2659 1.226 29.2666 1.226 29.2673C1.226 29.268 1.226 29.2686 1.226 29.2693C1.226 29.27 1.226 29.2707 1.226 29.2714C1.226 29.2721 1.226 29.2728 1.226 29.2734C1.226 29.2741 1.226 29.2748 1.226 29.2755C1.226 29.2762 1.226 29.2769 1.226 29.2776C1.226 29.2783 1.226 29.2789 1.226 29.2796C1.226 29.2803 1.226 29.281 1.226 29.2817C1.226 29.2824 1.226 29.2831 1.226 29.2838C1.226 29.2845 1.226 29.2852 1.226 29.2859C1.226 29.2866 1.226 29.2873 1.226 29.288C1.226 29.2886 1.226 29.2893 1.226 29.29C1.226 29.2907 1.226 29.2914 1.226 29.2921C1.226 29.2928 1.226 29.2935 1.226 29.2942C1.226 29.2949 1.226 29.2956 1.226 29.2963C1.226 29.297 1.226 29.2977 1.226 29.2984C1.226 29.2991 1.226 29.2998 1.226 29.3005C1.226 29.3012 1.226 29.3019 1.226 29.3026C1.226 29.3033 1.226 29.304 1.226 29.3047C1.226 29.3054 1.226 29.3061 1.226 29.3068C1.226 29.3075 1.226 29.3082 1.226 29.309C1.226 29.3097 1.226 29.3104 1.226 29.3111C1.226 29.3118 1.226 29.3125 1.226 29.3132C1.226 29.3139 1.226 29.3146 1.226 29.3153C1.226 29.316 1.226 29.3167 1.226 29.3174C1.226 29.3182 1.226 29.3189 1.226 29.3196C1.226 29.3203 1.226 29.321 1.226 29.3217C1.226 29.3224 1.226 29.3231 1.226 29.3238C1.226 29.3246 1.226 29.3253 1.226 29.326C1.226 29.3267 1.226 29.3274 1.226 29.3281C1.226 29.3288 1.226 29.3296 1.226 29.3303C1.226 29.331 1.226 29.3317 1.226 29.3324C1.226 29.3331 1.226 29.3339 1.226 29.3346C1.226 29.3353 1.226 29.336 1.226 29.3367C1.226 29.3375 1.226 29.3382 1.226 29.3389C1.226 29.3396 1.226 29.3403 1.226 29.3411C1.226 29.3418 1.226 29.3425 1.226 29.3432C1.226 29.3439 1.226 29.3447 1.226 29.3454C1.226 29.3461 1.226 29.3468 1.226 29.3476C1.226 29.3483 1.226 29.349 1.226 29.3497C1.226 29.3505 1.226 29.3512 1.226 29.3519C1.226 29.3526 1.226 29.3534 1.226 29.3541C1.226 29.3548 1.226 29.3556 1.226 29.3563C1.226 29.357 1.226 29.3577 1.226 29.3585C1.226 29.3592 1.226 29.3599 1.226 29.3607C1.226 29.3614 1.226 29.3621 1.226 29.3629C1.226 29.3636 1.226 29.3643 1.226 29.3651C1.226 29.3658 1.226 29.3665 1.226 29.3673C1.226 29.368 1.226 29.3687 1.226 29.3695C1.226 29.3702 1.226 29.3709 1.226 29.3717C1.226 29.3724 1.226 29.3731 1.226 29.3739C1.226 29.3746 1.226 29.3754 1.226 29.3761C1.226 29.3768 1.226 29.3776 1.226 29.3783C1.226 29.3791 1.226 29.3798 1.226 29.3805C1.226 29.3813 1.226 29.382 1.226 29.3828C1.226 29.3835 1.226 29.3842 1.226 29.385C1.226 29.3857 1.226 29.3865 1.226 29.3872C1.226 29.388 1.226 29.3887 1.226 29.3894C1.226 29.3902 1.226 29.3909 1.226 29.3917C1.226 29.3924 1.226 29.3932 1.226 29.3939C1.226 29.3947 1.226 29.3954 1.226 29.3962C1.226 29.3969 1.226 29.3977 1.226 29.3984C1.226 29.3992 1.226 29.3999 1.226 29.4007C1.226 29.4014 1.226 29.4022 1.226 29.4029C1.226 29.4037 1.226 29.4044 1.226 29.4052C1.226 29.4059 1.226 29.4067 1.226 29.4074C1.226 29.4082 1.226 29.4089 1.226 29.4097C1.226 29.4104 1.226 29.4112 1.226 29.4119C1.226 29.4127 1.226 29.4135 1.226 29.4142C1.226 29.415 1.226 29.4157 1.226 29.4165C1.226 29.4172 1.226 29.418 1.226 29.4188C1.226 29.4195 1.226 29.4203 1.226 29.421C1.226 29.4218 1.226 29.4226 1.226 29.4233C1.226 29.4241 1.226 29.4248 1.226 29.4256C1.226 29.4264 1.226 29.4271 1.226 29.4279C1.226 29.4287 1.226 29.4294 1.226 29.4302C1.226 29.431 1.226 29.4317 1.226 29.4325C1.226 29.4332 1.226 29.434 1.226 29.4348C1.226 29.4355 1.226 29.4363 1.226 29.4371C1.226 29.4378 1.226 29.4386 1.226 29.4394C1.226 29.4402 1.226 29.4409 1.226 29.4417C1.226 29.4425 1.226 29.4432 1.226 29.444C1.226 29.4448 1.226 29.4455 1.226 29.4463C1.226 29.4471 1.226 29.4479 1.226 29.4486C1.226 29.4494 1.226 29.4502 1.226 29.451C1.226 29.4517 1.226 29.4525 1.226 29.4533C1.226 29.454 1.226 29.4548 1.226 29.4556C1.226 29.4564 1.226 29.4571 1.226 29.4579C1.226 29.4587 1.226 29.4595 1.226 29.4603C1.226 29.461 1.226 29.4618 1.226 29.4626C1.226 29.4634 1.226 29.4642 1.226 29.4649C1.226 29.4657 1.226 29.4665 1.226 29.4673C1.226 29.4681 1.226 29.4688 1.226 29.4696C1.226 29.4704 1.226 29.4712 1.226 29.472C1.226 29.4728 1.226 29.4735 1.226 29.4743C1.226 29.4751 1.226 29.4759 1.226 29.4767C1.226 29.4775 1.226 29.4782 1.226 29.479C1.226 29.4798 1.226 29.4806 1.226 29.4814C1.226 29.4822 1.226 29.483 1.226 29.4838C1.226 29.4846 1.226 29.4853 1.226 29.4861C1.226 29.4869 1.226 29.4877 1.226 29.4885C1.226 29.4893 1.226 29.4901 1.226 29.4909C1.226 29.4917 1.226 29.4925 1.226 29.4933C1.226 29.494 1.226 29.4948 1.226 29.4956C1.226 29.4964 1.226 29.4972 1.226 29.498C1.226 29.4988 1.226 29.4996 1.226 29.5004C1.226 29.5012 1.226 29.502 1.226 29.5028C1.226 29.5036 1.226 29.5044 1.226 29.5052C1.226 29.506 1.226 29.5068 1.226 29.5076C1.226 29.5084 1.226 29.5092 1.226 29.51C1.226 29.5108 1.226 29.5116 1.226 29.5124C1.226 29.5132 1.226 29.514 1.226 29.5148C1.226 29.5156 1.226 29.5164 1.226 29.5172C1.226 29.518 1.226 29.5188 1.226 29.5196C1.226 29.5204 1.226 29.5212 1.226 29.522C1.226 29.5228 1.226 29.5236 1.226 29.5244C1.226 29.5253 1.226 29.5261 1.226 29.5269C1.226 29.5277 1.226 29.5285 1.226 29.5293C1.226 29.5301 1.226 29.5309 1.226 29.5317C1.226 29.5325 1.226 29.5333 1.226 29.5342C1.226 29.535 1.226 29.5358 1.226 29.5366C1.226 29.5374 1.226 29.5382 1.226 29.539C1.226 29.5398 1.226 29.5407 1.226 29.5415C1.226 29.5423 1.226 29.5431 1.226 29.5439C1.226 29.5447 1.226 29.5455 1.226 29.5464C1.226 29.5472 1.226 29.548 1.226 29.5488C1.226 29.5496 1.226 29.5504 1.226 29.5513C1.226 29.5521 1.226 29.5529 1.226 29.5537C1.226 29.5545 1.226 29.5554 1.226 29.5562C1.226 29.557 1.226 29.5578 1.226 29.5586C1.226 29.5595 1.226 29.5603 1.226 29.5611C1.226 29.5619 1.226 29.5628 1.226 29.5636C1.226 29.5644 1.226 29.5652 1.226 29.5661C1.226 29.5669 1.226 29.5677 1.226 29.5685C1.226 29.5694 1.226 29.5702 1.226 29.571C1.226 29.5718 1.226 29.5727 1.226 29.5735C1.226 29.5743 1.226 29.5752 1.226 29.576C1.226 29.5768 1.226 29.5776 1.226 29.5785C1.226 29.5793 1.226 29.5801 1.226 29.581C1.226 29.5818 1.226 29.5826 1.226 29.5835C1.226 29.5843 1.226 29.5851 1.226 29.586C1.226 29.5868 1.226 29.5876 1.226 29.5885C1.226 29.5893 1.226 29.5901 1.226 29.591C1.226 29.5918 1.226 29.5926 1.226 29.5935C1.226 29.5943 1.226 29.5952 1.226 29.596C1.226 29.5968 1.226 29.5977 1.226 29.5985C1.226 29.5993 1.226 29.6002 1.226 29.601C1.226 29.6019 1.226 29.6027 1.226 29.6035C1.226 29.6044 1.226 29.6052 1.226 29.6061C1.226 29.6069 1.226 29.6078 1.226 29.6086C1.226 29.6094 1.226 29.6103 1.226 29.6111C1.226 29.612 1.226 29.6128 1.226 29.6137C1.226 29.6145 1.226 29.6154 1.226 29.6162C1.226 29.617 1.226 29.6179 1.226 29.6187C1.226 29.6196 1.226 29.6204 1.226 29.6213C1.226 29.6221 1.226 29.623 1.226 29.6238C1.226 29.6247 1.226 29.6255 1.226 29.6264C1.226 29.6272 1.226 29.6281 1.226 29.6289C1.226 29.6298 1.226 29.6306 1.226 29.6315C1.226 29.6323 1.226 29.6332 1.226 29.6341C1.226 29.6349 1.226 29.6358 1.226 29.6366C1.226 29.6375 1.226 29.6383 1.226 29.6392C1.226 29.64 1.226 29.6409 1.226 29.6418C1.226 29.6426 1.226 29.6435 1.226 29.6443C1.226 29.6452 1.226 29.646 1.226 29.6469C1.226 29.6478 1.226 29.6486 1.226 29.6495C1.226 29.6503 1.226 29.6512 1.226 29.6521C1.226 29.6529 1.226 29.6538 1.226 29.6546C1.226 29.6555 1.226 29.6564 1.226 29.6572C1.226 29.6581 1.226 29.659 1.226 29.6598C1.226 29.6607 1.226 29.6616 1.226 29.6624C1.226 29.6633 1.226 29.6642 1.226 29.665C1.226 29.6659 1.226 29.6668 1.226 29.6676C1.226 29.6685 1.226 29.6694 1.226 29.6702C1.226 29.6711 1.226 29.672 1.226 29.6728C1.226 29.6737 1.226 29.6746 1.226 29.6754C1.226 29.6763 1.226 29.6772 1.226 29.6781C1.226 29.6789 1.226 29.6798 1.226 29.6807C1.226 29.6816 1.226 29.6824 1.226 29.6833C1.226 29.6842 1.226 29.6851 1.226 29.6859C1.226 29.6868 1.226 29.6877 1.226 29.6886C1.226 29.6894 1.226 29.6903 1.226 29.6912C1.226 29.6921 1.226 29.6929 1.226 29.6938C1.226 29.6947 1.226 29.6956 1.226 29.6965C1.226 29.6973 1.226 29.6982 1.226 29.6991C1.226 29.7 1.226 29.7009 1.226 29.7017C1.226 29.7026 1.226 29.7035 1.226 29.7044C1.226 29.7053 1.226 29.7062 1.226 29.707C1.226 29.7079 1.226 29.7088 1.226 29.7097C1.226 29.7106 1.226 29.7115 1.226 29.7123C1.226 29.7132 1.226 29.7141 1.226 29.715C1.226 29.7159 1.226 29.7168 1.226 29.7177C1.226 29.7186 1.226 29.7194 1.226 29.7203C1.226 29.7212 1.226 29.7221 1.226 29.723C1.226 29.7239 1.226 29.7248 1.226 29.7257C1.226 29.7266 1.226 29.7275 1.226 29.7283C1.226 29.7292 1.226 29.7301 1.226 29.731C1.226 29.7319 1.226 29.7328 1.226 29.7337C1.226 29.7346 1.226 29.7355 1.226 29.7364C1.226 29.7373 1.226 29.7382 1.226 29.7391C1.226 29.74 1.226 29.7409 1.226 29.7418C1.226 29.7427 1.226 29.7436 1.226 29.7445C1.226 29.7454 1.226 29.7463 1.226 29.7472C1.226 29.7481 1.226 29.749 1.226 29.7499C1.226 29.7508 1.226 29.7517 1.226 29.7526C1.226 29.7535 1.226 29.7544 1.226 29.7553C1.226 29.7562 1.226 29.7571 1.226 29.758C1.226 29.7589 1.226 29.7598 1.226 29.7607C1.226 29.7616 1.226 29.7625 1.226 29.7634C1.226 29.7643 1.226 29.7652 1.226 29.7661C1.226 29.767 1.226 29.768 1.226 29.7689C1.226 29.7698 1.226 29.7707 1.226 29.7716C1.226 29.7725 1.226 29.7734 1.226 29.7743C1.226 29.7752 1.226 29.7761 1.226 29.7771C1.226 29.778 1.226 29.7789 1.226 29.7798C1.226 29.7807 1.226 29.7816 1.226 29.7825C1.226 29.7834 1.226 29.7844 1.226 29.7853C1.226 29.7862 1.226 29.7871 1.226 29.788C1.226 29.7889 1.226 29.7898 1.226 29.7908C1.226 29.7917 1.226 29.7926 1.226 29.7935C1.226 29.7944 1.226 29.7953 1.226 29.7963C1.226 29.7972 1.226 29.7981 1.226 29.799C1.226 29.7999 1.226 29.8009 1.226 29.8018C1.226 29.8027 1.226 29.8036 1.226 29.8046C1.226 29.8055 1.226 29.8064 1.226 29.8073C1.226 29.8082 1.226 29.8092 1.226 29.8101C1.226 29.811 1.226 29.8119 1.226 29.8129C1.226 29.8138 1.226 29.8147 1.226 29.8156C1.226 29.8166 1.226 29.8175 1.226 29.8184C1.226 29.8194 1.226 29.8203 1.226 29.8212C1.226 29.8221 1.226 29.8231 1.226 29.824H3.226ZM3.226 28.816C3.226 27.5772 3.41931 26.4658 3.79233 25.4711L1.91967 24.7689C1.45269 26.0142 1.226 27.3668 1.226 28.816H3.226ZM3.78448 25.4914C4.20171 24.4483 4.73482 23.4868 5.38365 22.6044L3.77235 21.4196C3.02118 22.4412 2.40629 23.5517 1.92752 24.7486L3.78448 25.4914ZM5.39173 22.5932C6.05643 21.6627 6.80081 20.7986 7.62542 20.0006L6.23458 18.5634C5.32319 19.4454 4.49957 20.4013 3.76427 21.4308L5.39173 22.5932ZM7.61394 20.0115C8.51373 19.168 9.39956 18.3243 10.2714 17.4806L8.88058 16.0434C8.01644 16.8797 7.13827 17.716 6.24606 18.5525L7.61394 20.0115ZM10.2679 17.484C10.9393 16.8406 11.5685 16.2393 12.1557 15.6801L10.7763 14.2319C10.1875 14.7927 9.55674 15.3954 8.8841 16.04L10.2679 17.484ZM12.1731 15.6631C12.7775 15.0587 13.3154 14.4777 13.7849 13.9201L12.2551 12.6319C11.8286 13.1383 11.3305 13.6773 10.7589 14.2489L12.1731 15.6631ZM13.8009 13.9007C14.2872 13.2928 14.6823 12.6814 14.9737 12.0661L13.1663 11.2099C12.9537 11.6586 12.6488 12.1392 12.2391 12.6513L13.8009 13.9007ZM14.9819 12.0484C15.2863 11.3719 15.448 10.6726 15.448 9.958H13.448C13.448 10.3633 13.3577 10.7841 13.1581 11.2276L14.9819 12.0484ZM15.448 9.958C15.448 8.55104 15.0431 7.30622 13.9823 6.54246L12.8137 8.16553C13.1529 8.40978 13.448 8.90096 13.448 9.958H15.448ZM13.9823 6.54246C13.0802 5.89292 11.9966 5.598 10.794 5.598V7.598C11.6634 7.598 12.3158 7.80708 12.8137 8.16553L13.9823 6.54246ZM10.794 5.598C9.92456 5.598 9.09106 5.74335 8.30088 6.03967L9.00312 7.91233C9.55694 7.70465 10.1514 7.598 10.794 7.598V5.598ZM8.32348 6.0315C7.61751 6.27706 6.95288 6.58568 6.33151 6.9585L7.36049 8.67349C7.85912 8.37432 8.39849 8.12294 8.98052 7.9205L8.32348 6.0315ZM6.34496 6.95057C5.7696 7.28368 5.25557 7.64015 4.80921 8.02274L6.11079 9.54126C6.44843 9.25185 6.85841 8.96432 7.34704 8.68142L6.34496 6.95057ZM4.84218 7.99568C4.43934 8.3122 4.10886 8.59292 3.87089 8.83089L5.28511 10.2451C5.43914 10.0911 5.69666 9.8678 6.07782 9.56832L4.84218 7.99568ZM5.39279 8.95824L2.28479 4.59024L0.655209 5.74975L3.76321 10.1178L5.39279 8.95824ZM2.15173 5.90161C3.29891 4.83264 4.63353 3.95416 6.16306 3.26851L5.34494 1.44349C3.62647 2.21384 2.10509 3.21136 0.788274 4.43839L2.15173 5.90161ZM6.17012 3.26531C7.68723 2.57104 9.3088 2.222 11.046 2.222V0.221998C9.0312 0.221998 7.12477 0.628961 5.33788 1.44669L6.17012 3.26531ZM11.046 2.222C12.6821 2.222 14.0445 2.4103 15.1528 2.76292L15.7592 0.857072C14.4035 0.425698 12.8259 0.221998 11.046 0.221998V2.222ZM15.1528 2.76292C16.2732 3.1194 17.1437 3.61378 17.7995 4.22279L19.1605 2.75721C18.2483 1.91022 17.1028 1.2846 15.7592 0.857072L15.1528 2.76292ZM17.8271 4.24741C18.5033 4.8304 18.993 5.55022 19.3005 6.42548L21.1875 5.76251C20.767 4.56577 20.0807 3.54959 19.1329 2.73259L17.8271 4.24741ZM19.312 6.45644C19.6514 7.32912 19.832 8.35085 19.832 9.538H21.832C21.832 8.14915 21.6206 6.87487 21.176 5.73155L19.312 6.45644Z" fill="#019BE0"/>
</svg>
